G04 #@! TF.GenerationSoftware,KiCad,Pcbnew,(5.0.1)-3*
G04 #@! TF.CreationDate,2018-11-20T12:14:10-07:00*
G04 #@! TF.ProjectId,MiniSys-Breakout,4D696E695379732D427265616B6F7574,rev?*
G04 #@! TF.SameCoordinates,Original*
G04 #@! TF.FileFunction,Legend,Top*
G04 #@! TF.FilePolarity,Positive*
%FSLAX46Y46*%
G04 Gerber Fmt 4.6, Leading zero omitted, Abs format (unit mm)*
G04 Created by KiCad (PCBNEW (5.0.1)-3) date 11/20/2018 12:14:10 PM*
%MOMM*%
%LPD*%
G01*
G04 APERTURE LIST*
%ADD10C,0.150000*%
%ADD11C,0.160000*%
%ADD12C,0.200000*%
%ADD13C,0.300000*%
%ADD14C,0.125000*%
%ADD15C,0.120000*%
G04 APERTURE END LIST*
D10*
X70993095Y-51570000D02*
X70897857Y-51522380D01*
X70755000Y-51522380D01*
X70612142Y-51570000D01*
X70516904Y-51665238D01*
X70469285Y-51760476D01*
X70421666Y-51950952D01*
X70421666Y-52093809D01*
X70469285Y-52284285D01*
X70516904Y-52379523D01*
X70612142Y-52474761D01*
X70755000Y-52522380D01*
X70850238Y-52522380D01*
X70993095Y-52474761D01*
X71040714Y-52427142D01*
X71040714Y-52093809D01*
X70850238Y-52093809D01*
X71469285Y-52522380D02*
X71469285Y-51522380D01*
X72040714Y-52522380D01*
X72040714Y-51522380D01*
X72516904Y-52522380D02*
X72516904Y-51522380D01*
X72755000Y-51522380D01*
X72897857Y-51570000D01*
X72993095Y-51665238D01*
X73040714Y-51760476D01*
X73088333Y-51950952D01*
X73088333Y-52093809D01*
X73040714Y-52284285D01*
X72993095Y-52379523D01*
X72897857Y-52474761D01*
X72755000Y-52522380D01*
X72516904Y-52522380D01*
X86233095Y-51570000D02*
X86137857Y-51522380D01*
X85995000Y-51522380D01*
X85852142Y-51570000D01*
X85756904Y-51665238D01*
X85709285Y-51760476D01*
X85661666Y-51950952D01*
X85661666Y-52093809D01*
X85709285Y-52284285D01*
X85756904Y-52379523D01*
X85852142Y-52474761D01*
X85995000Y-52522380D01*
X86090238Y-52522380D01*
X86233095Y-52474761D01*
X86280714Y-52427142D01*
X86280714Y-52093809D01*
X86090238Y-52093809D01*
X86709285Y-52522380D02*
X86709285Y-51522380D01*
X87280714Y-52522380D01*
X87280714Y-51522380D01*
X87756904Y-52522380D02*
X87756904Y-51522380D01*
X87995000Y-51522380D01*
X88137857Y-51570000D01*
X88233095Y-51665238D01*
X88280714Y-51760476D01*
X88328333Y-51950952D01*
X88328333Y-52093809D01*
X88280714Y-52284285D01*
X88233095Y-52379523D01*
X88137857Y-52474761D01*
X87995000Y-52522380D01*
X87756904Y-52522380D01*
X101473095Y-51570000D02*
X101377857Y-51522380D01*
X101235000Y-51522380D01*
X101092142Y-51570000D01*
X100996904Y-51665238D01*
X100949285Y-51760476D01*
X100901666Y-51950952D01*
X100901666Y-52093809D01*
X100949285Y-52284285D01*
X100996904Y-52379523D01*
X101092142Y-52474761D01*
X101235000Y-52522380D01*
X101330238Y-52522380D01*
X101473095Y-52474761D01*
X101520714Y-52427142D01*
X101520714Y-52093809D01*
X101330238Y-52093809D01*
X101949285Y-52522380D02*
X101949285Y-51522380D01*
X102520714Y-52522380D01*
X102520714Y-51522380D01*
X102996904Y-52522380D02*
X102996904Y-51522380D01*
X103235000Y-51522380D01*
X103377857Y-51570000D01*
X103473095Y-51665238D01*
X103520714Y-51760476D01*
X103568333Y-51950952D01*
X103568333Y-52093809D01*
X103520714Y-52284285D01*
X103473095Y-52379523D01*
X103377857Y-52474761D01*
X103235000Y-52522380D01*
X102996904Y-52522380D01*
X116713095Y-51570000D02*
X116617857Y-51522380D01*
X116475000Y-51522380D01*
X116332142Y-51570000D01*
X116236904Y-51665238D01*
X116189285Y-51760476D01*
X116141666Y-51950952D01*
X116141666Y-52093809D01*
X116189285Y-52284285D01*
X116236904Y-52379523D01*
X116332142Y-52474761D01*
X116475000Y-52522380D01*
X116570238Y-52522380D01*
X116713095Y-52474761D01*
X116760714Y-52427142D01*
X116760714Y-52093809D01*
X116570238Y-52093809D01*
X117189285Y-52522380D02*
X117189285Y-51522380D01*
X117760714Y-52522380D01*
X117760714Y-51522380D01*
X118236904Y-52522380D02*
X118236904Y-51522380D01*
X118475000Y-51522380D01*
X118617857Y-51570000D01*
X118713095Y-51665238D01*
X118760714Y-51760476D01*
X118808333Y-51950952D01*
X118808333Y-52093809D01*
X118760714Y-52284285D01*
X118713095Y-52379523D01*
X118617857Y-52474761D01*
X118475000Y-52522380D01*
X118236904Y-52522380D01*
D11*
X113800000Y-85851904D02*
X113752380Y-85947142D01*
X113752380Y-86090000D01*
X113800000Y-86232857D01*
X113895238Y-86328095D01*
X113990476Y-86375714D01*
X114180952Y-86423333D01*
X114323809Y-86423333D01*
X114514285Y-86375714D01*
X114609523Y-86328095D01*
X114704761Y-86232857D01*
X114752380Y-86090000D01*
X114752380Y-85994761D01*
X114704761Y-85851904D01*
X114657142Y-85804285D01*
X114323809Y-85804285D01*
X114323809Y-85994761D01*
X114752380Y-85375714D02*
X113752380Y-85375714D01*
X114752380Y-84804285D01*
X113752380Y-84804285D01*
X114752380Y-84328095D02*
X113752380Y-84328095D01*
X113752380Y-84090000D01*
X113800000Y-83947142D01*
X113895238Y-83851904D01*
X113990476Y-83804285D01*
X114180952Y-83756666D01*
X114323809Y-83756666D01*
X114514285Y-83804285D01*
X114609523Y-83851904D01*
X114704761Y-83947142D01*
X114752380Y-84090000D01*
X114752380Y-84328095D01*
X112164761Y-86053809D02*
X112212380Y-85910952D01*
X112212380Y-85672857D01*
X112164761Y-85577619D01*
X112117142Y-85530000D01*
X112021904Y-85482380D01*
X111926666Y-85482380D01*
X111831428Y-85530000D01*
X111783809Y-85577619D01*
X111736190Y-85672857D01*
X111688571Y-85863333D01*
X111640952Y-85958571D01*
X111593333Y-86006190D01*
X111498095Y-86053809D01*
X111402857Y-86053809D01*
X111307619Y-86006190D01*
X111260000Y-85958571D01*
X111212380Y-85863333D01*
X111212380Y-85625238D01*
X111260000Y-85482380D01*
X112212380Y-85053809D02*
X111212380Y-85053809D01*
X111260000Y-84053809D02*
X111212380Y-84149047D01*
X111212380Y-84291904D01*
X111260000Y-84434761D01*
X111355238Y-84530000D01*
X111450476Y-84577619D01*
X111640952Y-84625238D01*
X111783809Y-84625238D01*
X111974285Y-84577619D01*
X112069523Y-84530000D01*
X112164761Y-84434761D01*
X112212380Y-84291904D01*
X112212380Y-84196666D01*
X112164761Y-84053809D01*
X112117142Y-84006190D01*
X111783809Y-84006190D01*
X111783809Y-84196666D01*
D12*
X111760000Y-86935000D02*
X111760000Y-88840000D01*
X114300000Y-86995000D02*
X114300000Y-88900000D01*
X111760000Y-81220000D02*
X111760000Y-83125000D01*
X114300000Y-81280000D02*
X114300000Y-83185000D01*
D11*
X98560000Y-85851904D02*
X98512380Y-85947142D01*
X98512380Y-86090000D01*
X98560000Y-86232857D01*
X98655238Y-86328095D01*
X98750476Y-86375714D01*
X98940952Y-86423333D01*
X99083809Y-86423333D01*
X99274285Y-86375714D01*
X99369523Y-86328095D01*
X99464761Y-86232857D01*
X99512380Y-86090000D01*
X99512380Y-85994761D01*
X99464761Y-85851904D01*
X99417142Y-85804285D01*
X99083809Y-85804285D01*
X99083809Y-85994761D01*
X99512380Y-85375714D02*
X98512380Y-85375714D01*
X99512380Y-84804285D01*
X98512380Y-84804285D01*
X99512380Y-84328095D02*
X98512380Y-84328095D01*
X98512380Y-84090000D01*
X98560000Y-83947142D01*
X98655238Y-83851904D01*
X98750476Y-83804285D01*
X98940952Y-83756666D01*
X99083809Y-83756666D01*
X99274285Y-83804285D01*
X99369523Y-83851904D01*
X99464761Y-83947142D01*
X99512380Y-84090000D01*
X99512380Y-84328095D01*
X96924761Y-86053809D02*
X96972380Y-85910952D01*
X96972380Y-85672857D01*
X96924761Y-85577619D01*
X96877142Y-85530000D01*
X96781904Y-85482380D01*
X96686666Y-85482380D01*
X96591428Y-85530000D01*
X96543809Y-85577619D01*
X96496190Y-85672857D01*
X96448571Y-85863333D01*
X96400952Y-85958571D01*
X96353333Y-86006190D01*
X96258095Y-86053809D01*
X96162857Y-86053809D01*
X96067619Y-86006190D01*
X96020000Y-85958571D01*
X95972380Y-85863333D01*
X95972380Y-85625238D01*
X96020000Y-85482380D01*
X96972380Y-85053809D02*
X95972380Y-85053809D01*
X96020000Y-84053809D02*
X95972380Y-84149047D01*
X95972380Y-84291904D01*
X96020000Y-84434761D01*
X96115238Y-84530000D01*
X96210476Y-84577619D01*
X96400952Y-84625238D01*
X96543809Y-84625238D01*
X96734285Y-84577619D01*
X96829523Y-84530000D01*
X96924761Y-84434761D01*
X96972380Y-84291904D01*
X96972380Y-84196666D01*
X96924761Y-84053809D01*
X96877142Y-84006190D01*
X96543809Y-84006190D01*
X96543809Y-84196666D01*
D12*
X96520000Y-81220000D02*
X96520000Y-83125000D01*
X96520000Y-86935000D02*
X96520000Y-88840000D01*
X99060000Y-86995000D02*
X99060000Y-88900000D01*
X99060000Y-81280000D02*
X99060000Y-83185000D01*
D11*
X81684761Y-86053809D02*
X81732380Y-85910952D01*
X81732380Y-85672857D01*
X81684761Y-85577619D01*
X81637142Y-85530000D01*
X81541904Y-85482380D01*
X81446666Y-85482380D01*
X81351428Y-85530000D01*
X81303809Y-85577619D01*
X81256190Y-85672857D01*
X81208571Y-85863333D01*
X81160952Y-85958571D01*
X81113333Y-86006190D01*
X81018095Y-86053809D01*
X80922857Y-86053809D01*
X80827619Y-86006190D01*
X80780000Y-85958571D01*
X80732380Y-85863333D01*
X80732380Y-85625238D01*
X80780000Y-85482380D01*
X81732380Y-85053809D02*
X80732380Y-85053809D01*
X80780000Y-84053809D02*
X80732380Y-84149047D01*
X80732380Y-84291904D01*
X80780000Y-84434761D01*
X80875238Y-84530000D01*
X80970476Y-84577619D01*
X81160952Y-84625238D01*
X81303809Y-84625238D01*
X81494285Y-84577619D01*
X81589523Y-84530000D01*
X81684761Y-84434761D01*
X81732380Y-84291904D01*
X81732380Y-84196666D01*
X81684761Y-84053809D01*
X81637142Y-84006190D01*
X81303809Y-84006190D01*
X81303809Y-84196666D01*
X83320000Y-85851904D02*
X83272380Y-85947142D01*
X83272380Y-86090000D01*
X83320000Y-86232857D01*
X83415238Y-86328095D01*
X83510476Y-86375714D01*
X83700952Y-86423333D01*
X83843809Y-86423333D01*
X84034285Y-86375714D01*
X84129523Y-86328095D01*
X84224761Y-86232857D01*
X84272380Y-86090000D01*
X84272380Y-85994761D01*
X84224761Y-85851904D01*
X84177142Y-85804285D01*
X83843809Y-85804285D01*
X83843809Y-85994761D01*
X84272380Y-85375714D02*
X83272380Y-85375714D01*
X84272380Y-84804285D01*
X83272380Y-84804285D01*
X84272380Y-84328095D02*
X83272380Y-84328095D01*
X83272380Y-84090000D01*
X83320000Y-83947142D01*
X83415238Y-83851904D01*
X83510476Y-83804285D01*
X83700952Y-83756666D01*
X83843809Y-83756666D01*
X84034285Y-83804285D01*
X84129523Y-83851904D01*
X84224761Y-83947142D01*
X84272380Y-84090000D01*
X84272380Y-84328095D01*
D12*
X81280000Y-81220000D02*
X81280000Y-83125000D01*
X81280000Y-86935000D02*
X81280000Y-88840000D01*
X83820000Y-86995000D02*
X83820000Y-88900000D01*
X83820000Y-81280000D02*
X83820000Y-83185000D01*
D11*
X68080000Y-85851904D02*
X68032380Y-85947142D01*
X68032380Y-86090000D01*
X68080000Y-86232857D01*
X68175238Y-86328095D01*
X68270476Y-86375714D01*
X68460952Y-86423333D01*
X68603809Y-86423333D01*
X68794285Y-86375714D01*
X68889523Y-86328095D01*
X68984761Y-86232857D01*
X69032380Y-86090000D01*
X69032380Y-85994761D01*
X68984761Y-85851904D01*
X68937142Y-85804285D01*
X68603809Y-85804285D01*
X68603809Y-85994761D01*
X69032380Y-85375714D02*
X68032380Y-85375714D01*
X69032380Y-84804285D01*
X68032380Y-84804285D01*
X69032380Y-84328095D02*
X68032380Y-84328095D01*
X68032380Y-84090000D01*
X68080000Y-83947142D01*
X68175238Y-83851904D01*
X68270476Y-83804285D01*
X68460952Y-83756666D01*
X68603809Y-83756666D01*
X68794285Y-83804285D01*
X68889523Y-83851904D01*
X68984761Y-83947142D01*
X69032380Y-84090000D01*
X69032380Y-84328095D01*
X66444761Y-86053809D02*
X66492380Y-85910952D01*
X66492380Y-85672857D01*
X66444761Y-85577619D01*
X66397142Y-85530000D01*
X66301904Y-85482380D01*
X66206666Y-85482380D01*
X66111428Y-85530000D01*
X66063809Y-85577619D01*
X66016190Y-85672857D01*
X65968571Y-85863333D01*
X65920952Y-85958571D01*
X65873333Y-86006190D01*
X65778095Y-86053809D01*
X65682857Y-86053809D01*
X65587619Y-86006190D01*
X65540000Y-85958571D01*
X65492380Y-85863333D01*
X65492380Y-85625238D01*
X65540000Y-85482380D01*
X66492380Y-85053809D02*
X65492380Y-85053809D01*
X65540000Y-84053809D02*
X65492380Y-84149047D01*
X65492380Y-84291904D01*
X65540000Y-84434761D01*
X65635238Y-84530000D01*
X65730476Y-84577619D01*
X65920952Y-84625238D01*
X66063809Y-84625238D01*
X66254285Y-84577619D01*
X66349523Y-84530000D01*
X66444761Y-84434761D01*
X66492380Y-84291904D01*
X66492380Y-84196666D01*
X66444761Y-84053809D01*
X66397142Y-84006190D01*
X66063809Y-84006190D01*
X66063809Y-84196666D01*
D12*
X66040000Y-81220000D02*
X66040000Y-83125000D01*
X66040000Y-86935000D02*
X66040000Y-88840000D01*
X68580000Y-86995000D02*
X68580000Y-88900000D01*
X68580000Y-81280000D02*
X68580000Y-83185000D01*
X53340000Y-81280000D02*
X53340000Y-83185000D01*
X53340000Y-86995000D02*
X53340000Y-88900000D01*
X50800000Y-86935000D02*
X50800000Y-88840000D01*
X50800000Y-81220000D02*
X50800000Y-83125000D01*
D11*
X51204761Y-86053809D02*
X51252380Y-85910952D01*
X51252380Y-85672857D01*
X51204761Y-85577619D01*
X51157142Y-85530000D01*
X51061904Y-85482380D01*
X50966666Y-85482380D01*
X50871428Y-85530000D01*
X50823809Y-85577619D01*
X50776190Y-85672857D01*
X50728571Y-85863333D01*
X50680952Y-85958571D01*
X50633333Y-86006190D01*
X50538095Y-86053809D01*
X50442857Y-86053809D01*
X50347619Y-86006190D01*
X50300000Y-85958571D01*
X50252380Y-85863333D01*
X50252380Y-85625238D01*
X50300000Y-85482380D01*
X51252380Y-85053809D02*
X50252380Y-85053809D01*
X50300000Y-84053809D02*
X50252380Y-84149047D01*
X50252380Y-84291904D01*
X50300000Y-84434761D01*
X50395238Y-84530000D01*
X50490476Y-84577619D01*
X50680952Y-84625238D01*
X50823809Y-84625238D01*
X51014285Y-84577619D01*
X51109523Y-84530000D01*
X51204761Y-84434761D01*
X51252380Y-84291904D01*
X51252380Y-84196666D01*
X51204761Y-84053809D01*
X51157142Y-84006190D01*
X50823809Y-84006190D01*
X50823809Y-84196666D01*
X52840000Y-85851904D02*
X52792380Y-85947142D01*
X52792380Y-86090000D01*
X52840000Y-86232857D01*
X52935238Y-86328095D01*
X53030476Y-86375714D01*
X53220952Y-86423333D01*
X53363809Y-86423333D01*
X53554285Y-86375714D01*
X53649523Y-86328095D01*
X53744761Y-86232857D01*
X53792380Y-86090000D01*
X53792380Y-85994761D01*
X53744761Y-85851904D01*
X53697142Y-85804285D01*
X53363809Y-85804285D01*
X53363809Y-85994761D01*
X53792380Y-85375714D02*
X52792380Y-85375714D01*
X53792380Y-84804285D01*
X52792380Y-84804285D01*
X53792380Y-84328095D02*
X52792380Y-84328095D01*
X52792380Y-84090000D01*
X52840000Y-83947142D01*
X52935238Y-83851904D01*
X53030476Y-83804285D01*
X53220952Y-83756666D01*
X53363809Y-83756666D01*
X53554285Y-83804285D01*
X53649523Y-83851904D01*
X53744761Y-83947142D01*
X53792380Y-84090000D01*
X53792380Y-84328095D01*
D12*
X35560000Y-81220000D02*
X35560000Y-83125000D01*
X35560000Y-86935000D02*
X35560000Y-88840000D01*
D11*
X35964761Y-86053809D02*
X36012380Y-85910952D01*
X36012380Y-85672857D01*
X35964761Y-85577619D01*
X35917142Y-85530000D01*
X35821904Y-85482380D01*
X35726666Y-85482380D01*
X35631428Y-85530000D01*
X35583809Y-85577619D01*
X35536190Y-85672857D01*
X35488571Y-85863333D01*
X35440952Y-85958571D01*
X35393333Y-86006190D01*
X35298095Y-86053809D01*
X35202857Y-86053809D01*
X35107619Y-86006190D01*
X35060000Y-85958571D01*
X35012380Y-85863333D01*
X35012380Y-85625238D01*
X35060000Y-85482380D01*
X36012380Y-85053809D02*
X35012380Y-85053809D01*
X35060000Y-84053809D02*
X35012380Y-84149047D01*
X35012380Y-84291904D01*
X35060000Y-84434761D01*
X35155238Y-84530000D01*
X35250476Y-84577619D01*
X35440952Y-84625238D01*
X35583809Y-84625238D01*
X35774285Y-84577619D01*
X35869523Y-84530000D01*
X35964761Y-84434761D01*
X36012380Y-84291904D01*
X36012380Y-84196666D01*
X35964761Y-84053809D01*
X35917142Y-84006190D01*
X35583809Y-84006190D01*
X35583809Y-84196666D01*
D12*
X38100000Y-86995000D02*
X38100000Y-88900000D01*
X38100000Y-81280000D02*
X38100000Y-83185000D01*
D11*
X37600000Y-85851904D02*
X37552380Y-85947142D01*
X37552380Y-86090000D01*
X37600000Y-86232857D01*
X37695238Y-86328095D01*
X37790476Y-86375714D01*
X37980952Y-86423333D01*
X38123809Y-86423333D01*
X38314285Y-86375714D01*
X38409523Y-86328095D01*
X38504761Y-86232857D01*
X38552380Y-86090000D01*
X38552380Y-85994761D01*
X38504761Y-85851904D01*
X38457142Y-85804285D01*
X38123809Y-85804285D01*
X38123809Y-85994761D01*
X38552380Y-85375714D02*
X37552380Y-85375714D01*
X38552380Y-84804285D01*
X37552380Y-84804285D01*
X38552380Y-84328095D02*
X37552380Y-84328095D01*
X37552380Y-84090000D01*
X37600000Y-83947142D01*
X37695238Y-83851904D01*
X37790476Y-83804285D01*
X37980952Y-83756666D01*
X38123809Y-83756666D01*
X38314285Y-83804285D01*
X38409523Y-83851904D01*
X38504761Y-83947142D01*
X38552380Y-84090000D01*
X38552380Y-84328095D01*
D13*
X123725714Y-98164285D02*
X123797142Y-98235714D01*
X123868571Y-98450000D01*
X123868571Y-98592857D01*
X123797142Y-98807142D01*
X123654285Y-98950000D01*
X123511428Y-99021428D01*
X123225714Y-99092857D01*
X123011428Y-99092857D01*
X122725714Y-99021428D01*
X122582857Y-98950000D01*
X122440000Y-98807142D01*
X122368571Y-98592857D01*
X122368571Y-98450000D01*
X122440000Y-98235714D01*
X122511428Y-98164285D01*
X123868571Y-97521428D02*
X122368571Y-97521428D01*
X123868571Y-96878571D02*
X123082857Y-96878571D01*
X122940000Y-96950000D01*
X122868571Y-97092857D01*
X122868571Y-97307142D01*
X122940000Y-97450000D01*
X123011428Y-97521428D01*
X123797142Y-95592857D02*
X123868571Y-95735714D01*
X123868571Y-96021428D01*
X123797142Y-96164285D01*
X123654285Y-96235714D01*
X123082857Y-96235714D01*
X122940000Y-96164285D01*
X122868571Y-96021428D01*
X122868571Y-95735714D01*
X122940000Y-95592857D01*
X123082857Y-95521428D01*
X123225714Y-95521428D01*
X123368571Y-96235714D01*
X123868571Y-94235714D02*
X123082857Y-94235714D01*
X122940000Y-94307142D01*
X122868571Y-94450000D01*
X122868571Y-94735714D01*
X122940000Y-94878571D01*
X123797142Y-94235714D02*
X123868571Y-94378571D01*
X123868571Y-94735714D01*
X123797142Y-94878571D01*
X123654285Y-94950000D01*
X123511428Y-94950000D01*
X123368571Y-94878571D01*
X123297142Y-94735714D01*
X123297142Y-94378571D01*
X123225714Y-94235714D01*
X122868571Y-93521428D02*
X124368571Y-93521428D01*
X122940000Y-93521428D02*
X122868571Y-93378571D01*
X122868571Y-93092857D01*
X122940000Y-92950000D01*
X123011428Y-92878571D01*
X123154285Y-92807142D01*
X123582857Y-92807142D01*
X123725714Y-92878571D01*
X123797142Y-92950000D01*
X123868571Y-93092857D01*
X123868571Y-93378571D01*
X123797142Y-93521428D01*
X123082857Y-91664285D02*
X123154285Y-91450000D01*
X123225714Y-91378571D01*
X123368571Y-91307142D01*
X123582857Y-91307142D01*
X123725714Y-91378571D01*
X123797142Y-91450000D01*
X123868571Y-91592857D01*
X123868571Y-92164285D01*
X122368571Y-92164285D01*
X122368571Y-91664285D01*
X122440000Y-91521428D01*
X122511428Y-91450000D01*
X122654285Y-91378571D01*
X122797142Y-91378571D01*
X122940000Y-91450000D01*
X123011428Y-91521428D01*
X123082857Y-91664285D01*
X123082857Y-92164285D01*
X122868571Y-90021428D02*
X123868571Y-90021428D01*
X122868571Y-90664285D02*
X123654285Y-90664285D01*
X123797142Y-90592857D01*
X123868571Y-90450000D01*
X123868571Y-90235714D01*
X123797142Y-90092857D01*
X123725714Y-90021428D01*
X123797142Y-89378571D02*
X123868571Y-89235714D01*
X123868571Y-88950000D01*
X123797142Y-88807142D01*
X123654285Y-88735714D01*
X123582857Y-88735714D01*
X123440000Y-88807142D01*
X123368571Y-88950000D01*
X123368571Y-89164285D01*
X123297142Y-89307142D01*
X123154285Y-89378571D01*
X123082857Y-89378571D01*
X122940000Y-89307142D01*
X122868571Y-89164285D01*
X122868571Y-88950000D01*
X122940000Y-88807142D01*
X123082857Y-86450000D02*
X123154285Y-86235714D01*
X123225714Y-86164285D01*
X123368571Y-86092857D01*
X123582857Y-86092857D01*
X123725714Y-86164285D01*
X123797142Y-86235714D01*
X123868571Y-86378571D01*
X123868571Y-86950000D01*
X122368571Y-86950000D01*
X122368571Y-86450000D01*
X122440000Y-86307142D01*
X122511428Y-86235714D01*
X122654285Y-86164285D01*
X122797142Y-86164285D01*
X122940000Y-86235714D01*
X123011428Y-86307142D01*
X123082857Y-86450000D01*
X123082857Y-86950000D01*
X123868571Y-85450000D02*
X122868571Y-85450000D01*
X123154285Y-85450000D02*
X123011428Y-85378571D01*
X122940000Y-85307142D01*
X122868571Y-85164285D01*
X122868571Y-85021428D01*
X123797142Y-83950000D02*
X123868571Y-84092857D01*
X123868571Y-84378571D01*
X123797142Y-84521428D01*
X123654285Y-84592857D01*
X123082857Y-84592857D01*
X122940000Y-84521428D01*
X122868571Y-84378571D01*
X122868571Y-84092857D01*
X122940000Y-83950000D01*
X123082857Y-83878571D01*
X123225714Y-83878571D01*
X123368571Y-84592857D01*
X123868571Y-82592857D02*
X123082857Y-82592857D01*
X122940000Y-82664285D01*
X122868571Y-82807142D01*
X122868571Y-83092857D01*
X122940000Y-83235714D01*
X123797142Y-82592857D02*
X123868571Y-82735714D01*
X123868571Y-83092857D01*
X123797142Y-83235714D01*
X123654285Y-83307142D01*
X123511428Y-83307142D01*
X123368571Y-83235714D01*
X123297142Y-83092857D01*
X123297142Y-82735714D01*
X123225714Y-82592857D01*
X123868571Y-81878571D02*
X122368571Y-81878571D01*
X123297142Y-81735714D02*
X123868571Y-81307142D01*
X122868571Y-81307142D02*
X123440000Y-81878571D01*
X123868571Y-80450000D02*
X123797142Y-80592857D01*
X123725714Y-80664285D01*
X123582857Y-80735714D01*
X123154285Y-80735714D01*
X123011428Y-80664285D01*
X122940000Y-80592857D01*
X122868571Y-80450000D01*
X122868571Y-80235714D01*
X122940000Y-80092857D01*
X123011428Y-80021428D01*
X123154285Y-79950000D01*
X123582857Y-79950000D01*
X123725714Y-80021428D01*
X123797142Y-80092857D01*
X123868571Y-80235714D01*
X123868571Y-80450000D01*
X122868571Y-78664285D02*
X123868571Y-78664285D01*
X122868571Y-79307142D02*
X123654285Y-79307142D01*
X123797142Y-79235714D01*
X123868571Y-79092857D01*
X123868571Y-78878571D01*
X123797142Y-78735714D01*
X123725714Y-78664285D01*
X122868571Y-78164285D02*
X122868571Y-77592857D01*
X122368571Y-77950000D02*
X123654285Y-77950000D01*
X123797142Y-77878571D01*
X123868571Y-77735714D01*
X123868571Y-77592857D01*
X123082857Y-75450000D02*
X123154285Y-75235714D01*
X123225714Y-75164285D01*
X123368571Y-75092857D01*
X123582857Y-75092857D01*
X123725714Y-75164285D01*
X123797142Y-75235714D01*
X123868571Y-75378571D01*
X123868571Y-75950000D01*
X122368571Y-75950000D01*
X122368571Y-75450000D01*
X122440000Y-75307142D01*
X122511428Y-75235714D01*
X122654285Y-75164285D01*
X122797142Y-75164285D01*
X122940000Y-75235714D01*
X123011428Y-75307142D01*
X123082857Y-75450000D01*
X123082857Y-75950000D01*
X123868571Y-74235714D02*
X123797142Y-74378571D01*
X123725714Y-74450000D01*
X123582857Y-74521428D01*
X123154285Y-74521428D01*
X123011428Y-74450000D01*
X122940000Y-74378571D01*
X122868571Y-74235714D01*
X122868571Y-74021428D01*
X122940000Y-73878571D01*
X123011428Y-73807142D01*
X123154285Y-73735714D01*
X123582857Y-73735714D01*
X123725714Y-73807142D01*
X123797142Y-73878571D01*
X123868571Y-74021428D01*
X123868571Y-74235714D01*
X123868571Y-72450000D02*
X123082857Y-72450000D01*
X122940000Y-72521428D01*
X122868571Y-72664285D01*
X122868571Y-72950000D01*
X122940000Y-73092857D01*
X123797142Y-72450000D02*
X123868571Y-72592857D01*
X123868571Y-72950000D01*
X123797142Y-73092857D01*
X123654285Y-73164285D01*
X123511428Y-73164285D01*
X123368571Y-73092857D01*
X123297142Y-72950000D01*
X123297142Y-72592857D01*
X123225714Y-72450000D01*
X123868571Y-71735714D02*
X122868571Y-71735714D01*
X123154285Y-71735714D02*
X123011428Y-71664285D01*
X122940000Y-71592857D01*
X122868571Y-71450000D01*
X122868571Y-71307142D01*
X123868571Y-70164285D02*
X122368571Y-70164285D01*
X123797142Y-70164285D02*
X123868571Y-70307142D01*
X123868571Y-70592857D01*
X123797142Y-70735714D01*
X123725714Y-70807142D01*
X123582857Y-70878571D01*
X123154285Y-70878571D01*
X123011428Y-70807142D01*
X122940000Y-70735714D01*
X122868571Y-70592857D01*
X122868571Y-70307142D01*
X122940000Y-70164285D01*
X123440000Y-66092857D02*
X123440000Y-65378571D01*
X123868571Y-66235714D02*
X122368571Y-65735714D01*
X123868571Y-65235714D01*
X123082857Y-64235714D02*
X123154285Y-64021428D01*
X123225714Y-63950000D01*
X123368571Y-63878571D01*
X123582857Y-63878571D01*
X123725714Y-63950000D01*
X123797142Y-64021428D01*
X123868571Y-64164285D01*
X123868571Y-64735714D01*
X122368571Y-64735714D01*
X122368571Y-64235714D01*
X122440000Y-64092857D01*
X122511428Y-64021428D01*
X122654285Y-63950000D01*
X122797142Y-63950000D01*
X122940000Y-64021428D01*
X123011428Y-64092857D01*
X123082857Y-64235714D01*
X123082857Y-64735714D01*
X122368571Y-62950000D02*
X122368571Y-62807142D01*
X122440000Y-62664285D01*
X122511428Y-62592857D01*
X122654285Y-62521428D01*
X122940000Y-62450000D01*
X123297142Y-62450000D01*
X123582857Y-62521428D01*
X123725714Y-62592857D01*
X123797142Y-62664285D01*
X123868571Y-62807142D01*
X123868571Y-62950000D01*
X123797142Y-63092857D01*
X123725714Y-63164285D01*
X123582857Y-63235714D01*
X123297142Y-63307142D01*
X122940000Y-63307142D01*
X122654285Y-63235714D01*
X122511428Y-63164285D01*
X122440000Y-63092857D01*
X122368571Y-62950000D01*
X122368571Y-62021428D02*
X122368571Y-61164285D01*
X123868571Y-61592857D02*
X122368571Y-61592857D01*
X122368571Y-60235714D02*
X123440000Y-60235714D01*
X123654285Y-60307142D01*
X123797142Y-60450000D01*
X123868571Y-60664285D01*
X123868571Y-60807142D01*
X122511428Y-58450000D02*
X122440000Y-58378571D01*
X122368571Y-58235714D01*
X122368571Y-57878571D01*
X122440000Y-57735714D01*
X122511428Y-57664285D01*
X122654285Y-57592857D01*
X122797142Y-57592857D01*
X123011428Y-57664285D01*
X123868571Y-58521428D01*
X123868571Y-57592857D01*
X122368571Y-56664285D02*
X122368571Y-56521428D01*
X122440000Y-56378571D01*
X122511428Y-56307142D01*
X122654285Y-56235714D01*
X122940000Y-56164285D01*
X123297142Y-56164285D01*
X123582857Y-56235714D01*
X123725714Y-56307142D01*
X123797142Y-56378571D01*
X123868571Y-56521428D01*
X123868571Y-56664285D01*
X123797142Y-56807142D01*
X123725714Y-56878571D01*
X123582857Y-56950000D01*
X123297142Y-57021428D01*
X122940000Y-57021428D01*
X122654285Y-56950000D01*
X122511428Y-56878571D01*
X122440000Y-56807142D01*
X122368571Y-56664285D01*
X123868571Y-54735714D02*
X123868571Y-55592857D01*
X123868571Y-55164285D02*
X122368571Y-55164285D01*
X122582857Y-55307142D01*
X122725714Y-55450000D01*
X122797142Y-55592857D01*
X123011428Y-53878571D02*
X122940000Y-54021428D01*
X122868571Y-54092857D01*
X122725714Y-54164285D01*
X122654285Y-54164285D01*
X122511428Y-54092857D01*
X122440000Y-54021428D01*
X122368571Y-53878571D01*
X122368571Y-53592857D01*
X122440000Y-53450000D01*
X122511428Y-53378571D01*
X122654285Y-53307142D01*
X122725714Y-53307142D01*
X122868571Y-53378571D01*
X122940000Y-53450000D01*
X123011428Y-53592857D01*
X123011428Y-53878571D01*
X123082857Y-54021428D01*
X123154285Y-54092857D01*
X123297142Y-54164285D01*
X123582857Y-54164285D01*
X123725714Y-54092857D01*
X123797142Y-54021428D01*
X123868571Y-53878571D01*
X123868571Y-53592857D01*
X123797142Y-53450000D01*
X123725714Y-53378571D01*
X123582857Y-53307142D01*
X123297142Y-53307142D01*
X123154285Y-53378571D01*
X123082857Y-53450000D01*
X123011428Y-53592857D01*
D14*
X42585714Y-47232857D02*
X42671428Y-47261428D01*
X42814285Y-47261428D01*
X42871428Y-47232857D01*
X42899999Y-47204285D01*
X42928571Y-47147142D01*
X42928571Y-47090000D01*
X42899999Y-47032857D01*
X42871428Y-47004285D01*
X42814285Y-46975714D01*
X42699999Y-46947142D01*
X42642857Y-46918571D01*
X42614285Y-46890000D01*
X42585714Y-46832857D01*
X42585714Y-46775714D01*
X42614285Y-46718571D01*
X42642857Y-46690000D01*
X42699999Y-46661428D01*
X42842857Y-46661428D01*
X42928571Y-46690000D01*
X43185714Y-47261428D02*
X43185714Y-46661428D01*
X43442857Y-47261428D02*
X43442857Y-46947142D01*
X43414285Y-46890000D01*
X43357142Y-46861428D01*
X43271428Y-46861428D01*
X43214285Y-46890000D01*
X43185714Y-46918571D01*
X43814285Y-47261428D02*
X43757142Y-47232857D01*
X43728571Y-47204285D01*
X43699999Y-47147142D01*
X43699999Y-46975714D01*
X43728571Y-46918571D01*
X43757142Y-46890000D01*
X43814285Y-46861428D01*
X43899999Y-46861428D01*
X43957142Y-46890000D01*
X43985714Y-46918571D01*
X44014285Y-46975714D01*
X44014285Y-47147142D01*
X43985714Y-47204285D01*
X43957142Y-47232857D01*
X43899999Y-47261428D01*
X43814285Y-47261428D01*
X44271428Y-47261428D02*
X44271428Y-46861428D01*
X44271428Y-46975714D02*
X44299999Y-46918571D01*
X44328571Y-46890000D01*
X44385714Y-46861428D01*
X44442857Y-46861428D01*
X44557142Y-46861428D02*
X44785714Y-46861428D01*
X44642857Y-46661428D02*
X44642857Y-47175714D01*
X44671428Y-47232857D01*
X44728571Y-47261428D01*
X44785714Y-47261428D01*
X45357142Y-46861428D02*
X45585714Y-46861428D01*
X45442857Y-46661428D02*
X45442857Y-47175714D01*
X45471428Y-47232857D01*
X45528571Y-47261428D01*
X45585714Y-47261428D01*
X45871428Y-47261428D02*
X45814285Y-47232857D01*
X45785714Y-47204285D01*
X45757142Y-47147142D01*
X45757142Y-46975714D01*
X45785714Y-46918571D01*
X45814285Y-46890000D01*
X45871428Y-46861428D01*
X45957142Y-46861428D01*
X46014285Y-46890000D01*
X46042857Y-46918571D01*
X46071428Y-46975714D01*
X46071428Y-47147142D01*
X46042857Y-47204285D01*
X46014285Y-47232857D01*
X45957142Y-47261428D01*
X45871428Y-47261428D01*
X47014285Y-47232857D02*
X46957142Y-47261428D01*
X46842857Y-47261428D01*
X46785714Y-47232857D01*
X46757142Y-47175714D01*
X46757142Y-46947142D01*
X46785714Y-46890000D01*
X46842857Y-46861428D01*
X46957142Y-46861428D01*
X47014285Y-46890000D01*
X47042857Y-46947142D01*
X47042857Y-47004285D01*
X46757142Y-47061428D01*
X47299999Y-46861428D02*
X47299999Y-47261428D01*
X47299999Y-46918571D02*
X47328571Y-46890000D01*
X47385714Y-46861428D01*
X47471428Y-46861428D01*
X47528571Y-46890000D01*
X47557142Y-46947142D01*
X47557142Y-47261428D01*
X48099999Y-47261428D02*
X48099999Y-46947142D01*
X48071428Y-46890000D01*
X48014285Y-46861428D01*
X47899999Y-46861428D01*
X47842857Y-46890000D01*
X48099999Y-47232857D02*
X48042857Y-47261428D01*
X47899999Y-47261428D01*
X47842857Y-47232857D01*
X47814285Y-47175714D01*
X47814285Y-47118571D01*
X47842857Y-47061428D01*
X47899999Y-47032857D01*
X48042857Y-47032857D01*
X48099999Y-47004285D01*
X48385714Y-47261428D02*
X48385714Y-46661428D01*
X48385714Y-46890000D02*
X48442857Y-46861428D01*
X48557142Y-46861428D01*
X48614285Y-46890000D01*
X48642857Y-46918571D01*
X48671428Y-46975714D01*
X48671428Y-47147142D01*
X48642857Y-47204285D01*
X48614285Y-47232857D01*
X48557142Y-47261428D01*
X48442857Y-47261428D01*
X48385714Y-47232857D01*
X49014285Y-47261428D02*
X48957142Y-47232857D01*
X48928571Y-47175714D01*
X48928571Y-46661428D01*
X49471428Y-47232857D02*
X49414285Y-47261428D01*
X49299999Y-47261428D01*
X49242857Y-47232857D01*
X49214285Y-47175714D01*
X49214285Y-46947142D01*
X49242857Y-46890000D01*
X49299999Y-46861428D01*
X49414285Y-46861428D01*
X49471428Y-46890000D01*
X49499999Y-46947142D01*
X49499999Y-47004285D01*
X49214285Y-47061428D01*
X50185714Y-47232857D02*
X50271428Y-47261428D01*
X50414285Y-47261428D01*
X50471428Y-47232857D01*
X50499999Y-47204285D01*
X50528571Y-47147142D01*
X50528571Y-47090000D01*
X50499999Y-47032857D01*
X50471428Y-47004285D01*
X50414285Y-46975714D01*
X50299999Y-46947142D01*
X50242857Y-46918571D01*
X50214285Y-46890000D01*
X50185714Y-46832857D01*
X50185714Y-46775714D01*
X50214285Y-46718571D01*
X50242857Y-46690000D01*
X50299999Y-46661428D01*
X50442857Y-46661428D01*
X50528571Y-46690000D01*
X50785714Y-47261428D02*
X50785714Y-46661428D01*
X51014285Y-46661428D01*
X51071428Y-46690000D01*
X51099999Y-46718571D01*
X51128571Y-46775714D01*
X51128571Y-46861428D01*
X51099999Y-46918571D01*
X51071428Y-46947142D01*
X51014285Y-46975714D01*
X50785714Y-46975714D01*
X51357142Y-47090000D02*
X51642857Y-47090000D01*
X51299999Y-47261428D02*
X51499999Y-46661428D01*
X51699999Y-47261428D01*
X52242857Y-47261428D02*
X52042857Y-46975714D01*
X51900000Y-47261428D02*
X51900000Y-46661428D01*
X52128571Y-46661428D01*
X52185714Y-46690000D01*
X52214285Y-46718571D01*
X52242857Y-46775714D01*
X52242857Y-46861428D01*
X52214285Y-46918571D01*
X52185714Y-46947142D01*
X52128571Y-46975714D01*
X51900000Y-46975714D01*
X52500000Y-46947142D02*
X52700000Y-46947142D01*
X52785714Y-47261428D02*
X52500000Y-47261428D01*
X52500000Y-46661428D01*
X52785714Y-46661428D01*
X53300000Y-46861428D02*
X53300000Y-47261428D01*
X53157142Y-46632857D02*
X53014285Y-47061428D01*
X53385714Y-47061428D01*
X53614285Y-47032857D02*
X54071428Y-47032857D01*
X54614285Y-46661428D02*
X54500000Y-46661428D01*
X54442857Y-46690000D01*
X54414285Y-46718571D01*
X54357142Y-46804285D01*
X54328571Y-46918571D01*
X54328571Y-47147142D01*
X54357142Y-47204285D01*
X54385714Y-47232857D01*
X54442857Y-47261428D01*
X54557142Y-47261428D01*
X54614285Y-47232857D01*
X54642857Y-47204285D01*
X54671428Y-47147142D01*
X54671428Y-47004285D01*
X54642857Y-46947142D01*
X54614285Y-46918571D01*
X54557142Y-46890000D01*
X54442857Y-46890000D01*
X54385714Y-46918571D01*
X54357142Y-46947142D01*
X54328571Y-47004285D01*
X55385714Y-47261428D02*
X55385714Y-46661428D01*
X55385714Y-46890000D02*
X55442857Y-46861428D01*
X55557142Y-46861428D01*
X55614285Y-46890000D01*
X55642857Y-46918571D01*
X55671428Y-46975714D01*
X55671428Y-47147142D01*
X55642857Y-47204285D01*
X55614285Y-47232857D01*
X55557142Y-47261428D01*
X55442857Y-47261428D01*
X55385714Y-47232857D01*
X55928571Y-47261428D02*
X55928571Y-46861428D01*
X55928571Y-46975714D02*
X55957142Y-46918571D01*
X55985714Y-46890000D01*
X56042857Y-46861428D01*
X56100000Y-46861428D01*
X56528571Y-47232857D02*
X56471428Y-47261428D01*
X56357142Y-47261428D01*
X56300000Y-47232857D01*
X56271428Y-47175714D01*
X56271428Y-46947142D01*
X56300000Y-46890000D01*
X56357142Y-46861428D01*
X56471428Y-46861428D01*
X56528571Y-46890000D01*
X56557142Y-46947142D01*
X56557142Y-47004285D01*
X56271428Y-47061428D01*
X57071428Y-47261428D02*
X57071428Y-46947142D01*
X57042857Y-46890000D01*
X56985714Y-46861428D01*
X56871428Y-46861428D01*
X56814285Y-46890000D01*
X57071428Y-47232857D02*
X57014285Y-47261428D01*
X56871428Y-47261428D01*
X56814285Y-47232857D01*
X56785714Y-47175714D01*
X56785714Y-47118571D01*
X56814285Y-47061428D01*
X56871428Y-47032857D01*
X57014285Y-47032857D01*
X57071428Y-47004285D01*
X57357142Y-47261428D02*
X57357142Y-46661428D01*
X57414285Y-47032857D02*
X57585714Y-47261428D01*
X57585714Y-46861428D02*
X57357142Y-47090000D01*
X57928571Y-47261428D02*
X57871428Y-47232857D01*
X57842857Y-47204285D01*
X57814285Y-47147142D01*
X57814285Y-46975714D01*
X57842857Y-46918571D01*
X57871428Y-46890000D01*
X57928571Y-46861428D01*
X58014285Y-46861428D01*
X58071428Y-46890000D01*
X58100000Y-46918571D01*
X58128571Y-46975714D01*
X58128571Y-47147142D01*
X58100000Y-47204285D01*
X58071428Y-47232857D01*
X58014285Y-47261428D01*
X57928571Y-47261428D01*
X58642857Y-46861428D02*
X58642857Y-47261428D01*
X58385714Y-46861428D02*
X58385714Y-47175714D01*
X58414285Y-47232857D01*
X58471428Y-47261428D01*
X58557142Y-47261428D01*
X58614285Y-47232857D01*
X58642857Y-47204285D01*
X58842857Y-46861428D02*
X59071428Y-46861428D01*
X58928571Y-46661428D02*
X58928571Y-47175714D01*
X58957142Y-47232857D01*
X59014285Y-47261428D01*
X59071428Y-47261428D01*
D12*
X53530476Y-54062380D02*
X53340000Y-54062380D01*
X53244761Y-54110000D01*
X53197142Y-54157619D01*
X53101904Y-54300476D01*
X53054285Y-54490952D01*
X53054285Y-54871904D01*
X53101904Y-54967142D01*
X53149523Y-55014761D01*
X53244761Y-55062380D01*
X53435238Y-55062380D01*
X53530476Y-55014761D01*
X53578095Y-54967142D01*
X53625714Y-54871904D01*
X53625714Y-54633809D01*
X53578095Y-54538571D01*
X53530476Y-54490952D01*
X53435238Y-54443333D01*
X53244761Y-54443333D01*
X53149523Y-54490952D01*
X53101904Y-54538571D01*
X53054285Y-54633809D01*
X51038095Y-54062380D02*
X50561904Y-54062380D01*
X50514285Y-54538571D01*
X50561904Y-54490952D01*
X50657142Y-54443333D01*
X50895238Y-54443333D01*
X50990476Y-54490952D01*
X51038095Y-54538571D01*
X51085714Y-54633809D01*
X51085714Y-54871904D01*
X51038095Y-54967142D01*
X50990476Y-55014761D01*
X50895238Y-55062380D01*
X50657142Y-55062380D01*
X50561904Y-55014761D01*
X50514285Y-54967142D01*
X48450476Y-54395714D02*
X48450476Y-55062380D01*
X48212380Y-54014761D02*
X47974285Y-54729047D01*
X48593333Y-54729047D01*
D10*
X30964285Y-80462380D02*
X30964285Y-79462380D01*
X31535714Y-80462380D01*
X31535714Y-79462380D01*
X32583333Y-80367142D02*
X32535714Y-80414761D01*
X32392857Y-80462380D01*
X32297619Y-80462380D01*
X32154761Y-80414761D01*
X32059523Y-80319523D01*
X32011904Y-80224285D01*
X31964285Y-80033809D01*
X31964285Y-79890952D01*
X32011904Y-79700476D01*
X32059523Y-79605238D01*
X32154761Y-79510000D01*
X32297619Y-79462380D01*
X32392857Y-79462380D01*
X32535714Y-79510000D01*
X32583333Y-79557619D01*
X30392857Y-76555000D02*
X31392857Y-76555000D01*
X31202380Y-77922380D02*
X30869047Y-77446190D01*
X30630952Y-77922380D02*
X30630952Y-76922380D01*
X31011904Y-76922380D01*
X31107142Y-76970000D01*
X31154761Y-77017619D01*
X31202380Y-77112857D01*
X31202380Y-77255714D01*
X31154761Y-77350952D01*
X31107142Y-77398571D01*
X31011904Y-77446190D01*
X30630952Y-77446190D01*
X31392857Y-76555000D02*
X32345238Y-76555000D01*
X31583333Y-77874761D02*
X31726190Y-77922380D01*
X31964285Y-77922380D01*
X32059523Y-77874761D01*
X32107142Y-77827142D01*
X32154761Y-77731904D01*
X32154761Y-77636666D01*
X32107142Y-77541428D01*
X32059523Y-77493809D01*
X31964285Y-77446190D01*
X31773809Y-77398571D01*
X31678571Y-77350952D01*
X31630952Y-77303333D01*
X31583333Y-77208095D01*
X31583333Y-77112857D01*
X31630952Y-77017619D01*
X31678571Y-76970000D01*
X31773809Y-76922380D01*
X32011904Y-76922380D01*
X32154761Y-76970000D01*
X32345238Y-76555000D02*
X33107142Y-76555000D01*
X32440476Y-76922380D02*
X33011904Y-76922380D01*
X32726190Y-77922380D02*
X32726190Y-76922380D01*
X30559523Y-75334761D02*
X30702380Y-75382380D01*
X30940476Y-75382380D01*
X31035714Y-75334761D01*
X31083333Y-75287142D01*
X31130952Y-75191904D01*
X31130952Y-75096666D01*
X31083333Y-75001428D01*
X31035714Y-74953809D01*
X30940476Y-74906190D01*
X30750000Y-74858571D01*
X30654761Y-74810952D01*
X30607142Y-74763333D01*
X30559523Y-74668095D01*
X30559523Y-74572857D01*
X30607142Y-74477619D01*
X30654761Y-74430000D01*
X30750000Y-74382380D01*
X30988095Y-74382380D01*
X31130952Y-74430000D01*
X32130952Y-75287142D02*
X32083333Y-75334761D01*
X31940476Y-75382380D01*
X31845238Y-75382380D01*
X31702380Y-75334761D01*
X31607142Y-75239523D01*
X31559523Y-75144285D01*
X31511904Y-74953809D01*
X31511904Y-74810952D01*
X31559523Y-74620476D01*
X31607142Y-74525238D01*
X31702380Y-74430000D01*
X31845238Y-74382380D01*
X31940476Y-74382380D01*
X32083333Y-74430000D01*
X32130952Y-74477619D01*
X33035714Y-75382380D02*
X32559523Y-75382380D01*
X32559523Y-74382380D01*
X30535714Y-72794761D02*
X30678571Y-72842380D01*
X30916666Y-72842380D01*
X31011904Y-72794761D01*
X31059523Y-72747142D01*
X31107142Y-72651904D01*
X31107142Y-72556666D01*
X31059523Y-72461428D01*
X31011904Y-72413809D01*
X30916666Y-72366190D01*
X30726190Y-72318571D01*
X30630952Y-72270952D01*
X30583333Y-72223333D01*
X30535714Y-72128095D01*
X30535714Y-72032857D01*
X30583333Y-71937619D01*
X30630952Y-71890000D01*
X30726190Y-71842380D01*
X30964285Y-71842380D01*
X31107142Y-71890000D01*
X31535714Y-72842380D02*
X31535714Y-71842380D01*
X31773809Y-71842380D01*
X31916666Y-71890000D01*
X32011904Y-71985238D01*
X32059523Y-72080476D01*
X32107142Y-72270952D01*
X32107142Y-72413809D01*
X32059523Y-72604285D01*
X32011904Y-72699523D01*
X31916666Y-72794761D01*
X31773809Y-72842380D01*
X31535714Y-72842380D01*
X32488095Y-72556666D02*
X32964285Y-72556666D01*
X32392857Y-72842380D02*
X32726190Y-71842380D01*
X33059523Y-72842380D01*
X30178571Y-68935000D02*
X30654761Y-68935000D01*
X30416666Y-70302380D02*
X30416666Y-69302380D01*
X30654761Y-68935000D02*
X31702380Y-68935000D01*
X30892857Y-70302380D02*
X30892857Y-69302380D01*
X31464285Y-70302380D01*
X31464285Y-69302380D01*
X31702380Y-68935000D02*
X32464285Y-68935000D01*
X31797619Y-69302380D02*
X32369047Y-69302380D01*
X32083333Y-70302380D02*
X32083333Y-69302380D01*
X32464285Y-68935000D02*
X33321428Y-68935000D01*
X32654761Y-70016666D02*
X33130952Y-70016666D01*
X32559523Y-70302380D02*
X32892857Y-69302380D01*
X33226190Y-70302380D01*
X30416666Y-66395000D02*
X31464285Y-66395000D01*
X30654761Y-67762380D02*
X30654761Y-66762380D01*
X31226190Y-67762380D01*
X31226190Y-66762380D01*
X31464285Y-66395000D02*
X32607142Y-66395000D01*
X31702380Y-67762380D02*
X31702380Y-66762380D01*
X32035714Y-67476666D01*
X32369047Y-66762380D01*
X32369047Y-67762380D01*
X32607142Y-66395000D02*
X33083333Y-66395000D01*
X32845238Y-67762380D02*
X32845238Y-66762380D01*
X30345238Y-63855000D02*
X31202380Y-63855000D01*
X30535714Y-64936666D02*
X31011904Y-64936666D01*
X30440476Y-65222380D02*
X30773809Y-64222380D01*
X31107142Y-65222380D01*
X31202380Y-63855000D02*
X32107142Y-63855000D01*
X31440476Y-64698571D02*
X31773809Y-64698571D01*
X31916666Y-65222380D02*
X31440476Y-65222380D01*
X31440476Y-64222380D01*
X31916666Y-64222380D01*
X32107142Y-63855000D02*
X33154761Y-63855000D01*
X32345238Y-65222380D02*
X32345238Y-64222380D01*
X32916666Y-65222380D01*
X32916666Y-64222380D01*
X29988095Y-62634761D02*
X30130952Y-62682380D01*
X30369047Y-62682380D01*
X30464285Y-62634761D01*
X30511904Y-62587142D01*
X30559523Y-62491904D01*
X30559523Y-62396666D01*
X30511904Y-62301428D01*
X30464285Y-62253809D01*
X30369047Y-62206190D01*
X30178571Y-62158571D01*
X30083333Y-62110952D01*
X30035714Y-62063333D01*
X29988095Y-61968095D01*
X29988095Y-61872857D01*
X30035714Y-61777619D01*
X30083333Y-61730000D01*
X30178571Y-61682380D01*
X30416666Y-61682380D01*
X30559523Y-61730000D01*
X30988095Y-62682380D02*
X30988095Y-61682380D01*
X31369047Y-61682380D01*
X31464285Y-61730000D01*
X31511904Y-61777619D01*
X31559523Y-61872857D01*
X31559523Y-62015714D01*
X31511904Y-62110952D01*
X31464285Y-62158571D01*
X31369047Y-62206190D01*
X30988095Y-62206190D01*
X32559523Y-62682380D02*
X32226190Y-62206190D01*
X31988095Y-62682380D02*
X31988095Y-61682380D01*
X32369047Y-61682380D01*
X32464285Y-61730000D01*
X32511904Y-61777619D01*
X32559523Y-61872857D01*
X32559523Y-62015714D01*
X32511904Y-62110952D01*
X32464285Y-62158571D01*
X32369047Y-62206190D01*
X31988095Y-62206190D01*
X33035714Y-62682380D02*
X33226190Y-62682380D01*
X33321428Y-62634761D01*
X33369047Y-62587142D01*
X33464285Y-62444285D01*
X33511904Y-62253809D01*
X33511904Y-61872857D01*
X33464285Y-61777619D01*
X33416666Y-61730000D01*
X33321428Y-61682380D01*
X33130952Y-61682380D01*
X33035714Y-61730000D01*
X32988095Y-61777619D01*
X32940476Y-61872857D01*
X32940476Y-62110952D01*
X32988095Y-62206190D01*
X33035714Y-62253809D01*
X33130952Y-62301428D01*
X33321428Y-62301428D01*
X33416666Y-62253809D01*
X33464285Y-62206190D01*
X33511904Y-62110952D01*
X45228095Y-80414761D02*
X45370952Y-80462380D01*
X45609047Y-80462380D01*
X45704285Y-80414761D01*
X45751904Y-80367142D01*
X45799523Y-80271904D01*
X45799523Y-80176666D01*
X45751904Y-80081428D01*
X45704285Y-80033809D01*
X45609047Y-79986190D01*
X45418571Y-79938571D01*
X45323333Y-79890952D01*
X45275714Y-79843333D01*
X45228095Y-79748095D01*
X45228095Y-79652857D01*
X45275714Y-79557619D01*
X45323333Y-79510000D01*
X45418571Y-79462380D01*
X45656666Y-79462380D01*
X45799523Y-79510000D01*
X46228095Y-80462380D02*
X46228095Y-79462380D01*
X46609047Y-79462380D01*
X46704285Y-79510000D01*
X46751904Y-79557619D01*
X46799523Y-79652857D01*
X46799523Y-79795714D01*
X46751904Y-79890952D01*
X46704285Y-79938571D01*
X46609047Y-79986190D01*
X46228095Y-79986190D01*
X47799523Y-80462380D02*
X47466190Y-79986190D01*
X47228095Y-80462380D02*
X47228095Y-79462380D01*
X47609047Y-79462380D01*
X47704285Y-79510000D01*
X47751904Y-79557619D01*
X47799523Y-79652857D01*
X47799523Y-79795714D01*
X47751904Y-79890952D01*
X47704285Y-79938571D01*
X47609047Y-79986190D01*
X47228095Y-79986190D01*
X48370952Y-79890952D02*
X48275714Y-79843333D01*
X48228095Y-79795714D01*
X48180476Y-79700476D01*
X48180476Y-79652857D01*
X48228095Y-79557619D01*
X48275714Y-79510000D01*
X48370952Y-79462380D01*
X48561428Y-79462380D01*
X48656666Y-79510000D01*
X48704285Y-79557619D01*
X48751904Y-79652857D01*
X48751904Y-79700476D01*
X48704285Y-79795714D01*
X48656666Y-79843333D01*
X48561428Y-79890952D01*
X48370952Y-79890952D01*
X48275714Y-79938571D01*
X48228095Y-79986190D01*
X48180476Y-80081428D01*
X48180476Y-80271904D01*
X48228095Y-80367142D01*
X48275714Y-80414761D01*
X48370952Y-80462380D01*
X48561428Y-80462380D01*
X48656666Y-80414761D01*
X48704285Y-80367142D01*
X48751904Y-80271904D01*
X48751904Y-80081428D01*
X48704285Y-79986190D01*
X48656666Y-79938571D01*
X48561428Y-79890952D01*
X45228095Y-77874761D02*
X45370952Y-77922380D01*
X45609047Y-77922380D01*
X45704285Y-77874761D01*
X45751904Y-77827142D01*
X45799523Y-77731904D01*
X45799523Y-77636666D01*
X45751904Y-77541428D01*
X45704285Y-77493809D01*
X45609047Y-77446190D01*
X45418571Y-77398571D01*
X45323333Y-77350952D01*
X45275714Y-77303333D01*
X45228095Y-77208095D01*
X45228095Y-77112857D01*
X45275714Y-77017619D01*
X45323333Y-76970000D01*
X45418571Y-76922380D01*
X45656666Y-76922380D01*
X45799523Y-76970000D01*
X46228095Y-77922380D02*
X46228095Y-76922380D01*
X46609047Y-76922380D01*
X46704285Y-76970000D01*
X46751904Y-77017619D01*
X46799523Y-77112857D01*
X46799523Y-77255714D01*
X46751904Y-77350952D01*
X46704285Y-77398571D01*
X46609047Y-77446190D01*
X46228095Y-77446190D01*
X47799523Y-77922380D02*
X47466190Y-77446190D01*
X47228095Y-77922380D02*
X47228095Y-76922380D01*
X47609047Y-76922380D01*
X47704285Y-76970000D01*
X47751904Y-77017619D01*
X47799523Y-77112857D01*
X47799523Y-77255714D01*
X47751904Y-77350952D01*
X47704285Y-77398571D01*
X47609047Y-77446190D01*
X47228095Y-77446190D01*
X48132857Y-76922380D02*
X48799523Y-76922380D01*
X48370952Y-77922380D01*
X45228095Y-75334761D02*
X45370952Y-75382380D01*
X45609047Y-75382380D01*
X45704285Y-75334761D01*
X45751904Y-75287142D01*
X45799523Y-75191904D01*
X45799523Y-75096666D01*
X45751904Y-75001428D01*
X45704285Y-74953809D01*
X45609047Y-74906190D01*
X45418571Y-74858571D01*
X45323333Y-74810952D01*
X45275714Y-74763333D01*
X45228095Y-74668095D01*
X45228095Y-74572857D01*
X45275714Y-74477619D01*
X45323333Y-74430000D01*
X45418571Y-74382380D01*
X45656666Y-74382380D01*
X45799523Y-74430000D01*
X46228095Y-75382380D02*
X46228095Y-74382380D01*
X46609047Y-74382380D01*
X46704285Y-74430000D01*
X46751904Y-74477619D01*
X46799523Y-74572857D01*
X46799523Y-74715714D01*
X46751904Y-74810952D01*
X46704285Y-74858571D01*
X46609047Y-74906190D01*
X46228095Y-74906190D01*
X47799523Y-75382380D02*
X47466190Y-74906190D01*
X47228095Y-75382380D02*
X47228095Y-74382380D01*
X47609047Y-74382380D01*
X47704285Y-74430000D01*
X47751904Y-74477619D01*
X47799523Y-74572857D01*
X47799523Y-74715714D01*
X47751904Y-74810952D01*
X47704285Y-74858571D01*
X47609047Y-74906190D01*
X47228095Y-74906190D01*
X48656666Y-74382380D02*
X48466190Y-74382380D01*
X48370952Y-74430000D01*
X48323333Y-74477619D01*
X48228095Y-74620476D01*
X48180476Y-74810952D01*
X48180476Y-75191904D01*
X48228095Y-75287142D01*
X48275714Y-75334761D01*
X48370952Y-75382380D01*
X48561428Y-75382380D01*
X48656666Y-75334761D01*
X48704285Y-75287142D01*
X48751904Y-75191904D01*
X48751904Y-74953809D01*
X48704285Y-74858571D01*
X48656666Y-74810952D01*
X48561428Y-74763333D01*
X48370952Y-74763333D01*
X48275714Y-74810952D01*
X48228095Y-74858571D01*
X48180476Y-74953809D01*
X45228095Y-72794761D02*
X45370952Y-72842380D01*
X45609047Y-72842380D01*
X45704285Y-72794761D01*
X45751904Y-72747142D01*
X45799523Y-72651904D01*
X45799523Y-72556666D01*
X45751904Y-72461428D01*
X45704285Y-72413809D01*
X45609047Y-72366190D01*
X45418571Y-72318571D01*
X45323333Y-72270952D01*
X45275714Y-72223333D01*
X45228095Y-72128095D01*
X45228095Y-72032857D01*
X45275714Y-71937619D01*
X45323333Y-71890000D01*
X45418571Y-71842380D01*
X45656666Y-71842380D01*
X45799523Y-71890000D01*
X46228095Y-72842380D02*
X46228095Y-71842380D01*
X46609047Y-71842380D01*
X46704285Y-71890000D01*
X46751904Y-71937619D01*
X46799523Y-72032857D01*
X46799523Y-72175714D01*
X46751904Y-72270952D01*
X46704285Y-72318571D01*
X46609047Y-72366190D01*
X46228095Y-72366190D01*
X47799523Y-72842380D02*
X47466190Y-72366190D01*
X47228095Y-72842380D02*
X47228095Y-71842380D01*
X47609047Y-71842380D01*
X47704285Y-71890000D01*
X47751904Y-71937619D01*
X47799523Y-72032857D01*
X47799523Y-72175714D01*
X47751904Y-72270952D01*
X47704285Y-72318571D01*
X47609047Y-72366190D01*
X47228095Y-72366190D01*
X48704285Y-71842380D02*
X48228095Y-71842380D01*
X48180476Y-72318571D01*
X48228095Y-72270952D01*
X48323333Y-72223333D01*
X48561428Y-72223333D01*
X48656666Y-72270952D01*
X48704285Y-72318571D01*
X48751904Y-72413809D01*
X48751904Y-72651904D01*
X48704285Y-72747142D01*
X48656666Y-72794761D01*
X48561428Y-72842380D01*
X48323333Y-72842380D01*
X48228095Y-72794761D01*
X48180476Y-72747142D01*
X45228095Y-70254761D02*
X45370952Y-70302380D01*
X45609047Y-70302380D01*
X45704285Y-70254761D01*
X45751904Y-70207142D01*
X45799523Y-70111904D01*
X45799523Y-70016666D01*
X45751904Y-69921428D01*
X45704285Y-69873809D01*
X45609047Y-69826190D01*
X45418571Y-69778571D01*
X45323333Y-69730952D01*
X45275714Y-69683333D01*
X45228095Y-69588095D01*
X45228095Y-69492857D01*
X45275714Y-69397619D01*
X45323333Y-69350000D01*
X45418571Y-69302380D01*
X45656666Y-69302380D01*
X45799523Y-69350000D01*
X46228095Y-70302380D02*
X46228095Y-69302380D01*
X46609047Y-69302380D01*
X46704285Y-69350000D01*
X46751904Y-69397619D01*
X46799523Y-69492857D01*
X46799523Y-69635714D01*
X46751904Y-69730952D01*
X46704285Y-69778571D01*
X46609047Y-69826190D01*
X46228095Y-69826190D01*
X47799523Y-70302380D02*
X47466190Y-69826190D01*
X47228095Y-70302380D02*
X47228095Y-69302380D01*
X47609047Y-69302380D01*
X47704285Y-69350000D01*
X47751904Y-69397619D01*
X47799523Y-69492857D01*
X47799523Y-69635714D01*
X47751904Y-69730952D01*
X47704285Y-69778571D01*
X47609047Y-69826190D01*
X47228095Y-69826190D01*
X48656666Y-69635714D02*
X48656666Y-70302380D01*
X48418571Y-69254761D02*
X48180476Y-69969047D01*
X48799523Y-69969047D01*
X45228095Y-67714761D02*
X45370952Y-67762380D01*
X45609047Y-67762380D01*
X45704285Y-67714761D01*
X45751904Y-67667142D01*
X45799523Y-67571904D01*
X45799523Y-67476666D01*
X45751904Y-67381428D01*
X45704285Y-67333809D01*
X45609047Y-67286190D01*
X45418571Y-67238571D01*
X45323333Y-67190952D01*
X45275714Y-67143333D01*
X45228095Y-67048095D01*
X45228095Y-66952857D01*
X45275714Y-66857619D01*
X45323333Y-66810000D01*
X45418571Y-66762380D01*
X45656666Y-66762380D01*
X45799523Y-66810000D01*
X46228095Y-67762380D02*
X46228095Y-66762380D01*
X46609047Y-66762380D01*
X46704285Y-66810000D01*
X46751904Y-66857619D01*
X46799523Y-66952857D01*
X46799523Y-67095714D01*
X46751904Y-67190952D01*
X46704285Y-67238571D01*
X46609047Y-67286190D01*
X46228095Y-67286190D01*
X47799523Y-67762380D02*
X47466190Y-67286190D01*
X47228095Y-67762380D02*
X47228095Y-66762380D01*
X47609047Y-66762380D01*
X47704285Y-66810000D01*
X47751904Y-66857619D01*
X47799523Y-66952857D01*
X47799523Y-67095714D01*
X47751904Y-67190952D01*
X47704285Y-67238571D01*
X47609047Y-67286190D01*
X47228095Y-67286190D01*
X48132857Y-66762380D02*
X48751904Y-66762380D01*
X48418571Y-67143333D01*
X48561428Y-67143333D01*
X48656666Y-67190952D01*
X48704285Y-67238571D01*
X48751904Y-67333809D01*
X48751904Y-67571904D01*
X48704285Y-67667142D01*
X48656666Y-67714761D01*
X48561428Y-67762380D01*
X48275714Y-67762380D01*
X48180476Y-67714761D01*
X48132857Y-67667142D01*
X45228095Y-65174761D02*
X45370952Y-65222380D01*
X45609047Y-65222380D01*
X45704285Y-65174761D01*
X45751904Y-65127142D01*
X45799523Y-65031904D01*
X45799523Y-64936666D01*
X45751904Y-64841428D01*
X45704285Y-64793809D01*
X45609047Y-64746190D01*
X45418571Y-64698571D01*
X45323333Y-64650952D01*
X45275714Y-64603333D01*
X45228095Y-64508095D01*
X45228095Y-64412857D01*
X45275714Y-64317619D01*
X45323333Y-64270000D01*
X45418571Y-64222380D01*
X45656666Y-64222380D01*
X45799523Y-64270000D01*
X46228095Y-65222380D02*
X46228095Y-64222380D01*
X46609047Y-64222380D01*
X46704285Y-64270000D01*
X46751904Y-64317619D01*
X46799523Y-64412857D01*
X46799523Y-64555714D01*
X46751904Y-64650952D01*
X46704285Y-64698571D01*
X46609047Y-64746190D01*
X46228095Y-64746190D01*
X47799523Y-65222380D02*
X47466190Y-64746190D01*
X47228095Y-65222380D02*
X47228095Y-64222380D01*
X47609047Y-64222380D01*
X47704285Y-64270000D01*
X47751904Y-64317619D01*
X47799523Y-64412857D01*
X47799523Y-64555714D01*
X47751904Y-64650952D01*
X47704285Y-64698571D01*
X47609047Y-64746190D01*
X47228095Y-64746190D01*
X48180476Y-64317619D02*
X48228095Y-64270000D01*
X48323333Y-64222380D01*
X48561428Y-64222380D01*
X48656666Y-64270000D01*
X48704285Y-64317619D01*
X48751904Y-64412857D01*
X48751904Y-64508095D01*
X48704285Y-64650952D01*
X48132857Y-65222380D01*
X48751904Y-65222380D01*
X45228095Y-62634761D02*
X45370952Y-62682380D01*
X45609047Y-62682380D01*
X45704285Y-62634761D01*
X45751904Y-62587142D01*
X45799523Y-62491904D01*
X45799523Y-62396666D01*
X45751904Y-62301428D01*
X45704285Y-62253809D01*
X45609047Y-62206190D01*
X45418571Y-62158571D01*
X45323333Y-62110952D01*
X45275714Y-62063333D01*
X45228095Y-61968095D01*
X45228095Y-61872857D01*
X45275714Y-61777619D01*
X45323333Y-61730000D01*
X45418571Y-61682380D01*
X45656666Y-61682380D01*
X45799523Y-61730000D01*
X46228095Y-62682380D02*
X46228095Y-61682380D01*
X46609047Y-61682380D01*
X46704285Y-61730000D01*
X46751904Y-61777619D01*
X46799523Y-61872857D01*
X46799523Y-62015714D01*
X46751904Y-62110952D01*
X46704285Y-62158571D01*
X46609047Y-62206190D01*
X46228095Y-62206190D01*
X47799523Y-62682380D02*
X47466190Y-62206190D01*
X47228095Y-62682380D02*
X47228095Y-61682380D01*
X47609047Y-61682380D01*
X47704285Y-61730000D01*
X47751904Y-61777619D01*
X47799523Y-61872857D01*
X47799523Y-62015714D01*
X47751904Y-62110952D01*
X47704285Y-62158571D01*
X47609047Y-62206190D01*
X47228095Y-62206190D01*
X48751904Y-62682380D02*
X48180476Y-62682380D01*
X48466190Y-62682380D02*
X48466190Y-61682380D01*
X48370952Y-61825238D01*
X48275714Y-61920476D01*
X48180476Y-61968095D01*
X75541428Y-79095000D02*
X76684285Y-79095000D01*
X75779523Y-80462380D02*
X75779523Y-79462380D01*
X76112857Y-80176666D01*
X76446190Y-79462380D01*
X76446190Y-80462380D01*
X76684285Y-79095000D02*
X77636666Y-79095000D01*
X76874761Y-80414761D02*
X77017619Y-80462380D01*
X77255714Y-80462380D01*
X77350952Y-80414761D01*
X77398571Y-80367142D01*
X77446190Y-80271904D01*
X77446190Y-80176666D01*
X77398571Y-80081428D01*
X77350952Y-80033809D01*
X77255714Y-79986190D01*
X77065238Y-79938571D01*
X76970000Y-79890952D01*
X76922380Y-79843333D01*
X76874761Y-79748095D01*
X76874761Y-79652857D01*
X76922380Y-79557619D01*
X76970000Y-79510000D01*
X77065238Y-79462380D01*
X77303333Y-79462380D01*
X77446190Y-79510000D01*
X77636666Y-79095000D02*
X78398571Y-79095000D01*
X77731904Y-79462380D02*
X78303333Y-79462380D01*
X78017619Y-80462380D02*
X78017619Y-79462380D01*
X78398571Y-79095000D02*
X79398571Y-79095000D01*
X79208095Y-80462380D02*
X78874761Y-79986190D01*
X78636666Y-80462380D02*
X78636666Y-79462380D01*
X79017619Y-79462380D01*
X79112857Y-79510000D01*
X79160476Y-79557619D01*
X79208095Y-79652857D01*
X79208095Y-79795714D01*
X79160476Y-79890952D01*
X79112857Y-79938571D01*
X79017619Y-79986190D01*
X78636666Y-79986190D01*
X75993809Y-76555000D02*
X76898571Y-76555000D01*
X76231904Y-77398571D02*
X76565238Y-77398571D01*
X76708095Y-77922380D02*
X76231904Y-77922380D01*
X76231904Y-76922380D01*
X76708095Y-76922380D01*
X76898571Y-76555000D02*
X77946190Y-76555000D01*
X77327142Y-76922380D02*
X77517619Y-76922380D01*
X77612857Y-76970000D01*
X77708095Y-77065238D01*
X77755714Y-77255714D01*
X77755714Y-77589047D01*
X77708095Y-77779523D01*
X77612857Y-77874761D01*
X77517619Y-77922380D01*
X77327142Y-77922380D01*
X77231904Y-77874761D01*
X77136666Y-77779523D01*
X77089047Y-77589047D01*
X77089047Y-77255714D01*
X77136666Y-77065238D01*
X77231904Y-76970000D01*
X77327142Y-76922380D01*
X77946190Y-76555000D02*
X78946190Y-76555000D01*
X78184285Y-77922380D02*
X78184285Y-76922380D01*
X78565238Y-76922380D01*
X78660476Y-76970000D01*
X78708095Y-77017619D01*
X78755714Y-77112857D01*
X78755714Y-77255714D01*
X78708095Y-77350952D01*
X78660476Y-77398571D01*
X78565238Y-77446190D01*
X78184285Y-77446190D01*
X75946190Y-74015000D02*
X77089047Y-74015000D01*
X76184285Y-75382380D02*
X76184285Y-74382380D01*
X76517619Y-75096666D01*
X76850952Y-74382380D01*
X76850952Y-75382380D01*
X77089047Y-74015000D02*
X78231904Y-74015000D01*
X77231904Y-74382380D02*
X77470000Y-75382380D01*
X77660476Y-74668095D01*
X77850952Y-75382380D01*
X78089047Y-74382380D01*
X78231904Y-74015000D02*
X78993809Y-74015000D01*
X78327142Y-74382380D02*
X78898571Y-74382380D01*
X78612857Y-75382380D02*
X78612857Y-74382380D01*
X75755714Y-71475000D02*
X76231904Y-71475000D01*
X75993809Y-72842380D02*
X75993809Y-71842380D01*
X76231904Y-71475000D02*
X77279523Y-71475000D01*
X76660476Y-71842380D02*
X76850952Y-71842380D01*
X76946190Y-71890000D01*
X77041428Y-71985238D01*
X77089047Y-72175714D01*
X77089047Y-72509047D01*
X77041428Y-72699523D01*
X76946190Y-72794761D01*
X76850952Y-72842380D01*
X76660476Y-72842380D01*
X76565238Y-72794761D01*
X76470000Y-72699523D01*
X76422380Y-72509047D01*
X76422380Y-72175714D01*
X76470000Y-71985238D01*
X76565238Y-71890000D01*
X76660476Y-71842380D01*
X77279523Y-71475000D02*
X78422380Y-71475000D01*
X77422380Y-71842380D02*
X77660476Y-72842380D01*
X77850952Y-72128095D01*
X78041428Y-72842380D01*
X78279523Y-71842380D01*
X78422380Y-71475000D02*
X79184285Y-71475000D01*
X78517619Y-71842380D02*
X79089047Y-71842380D01*
X78803333Y-72842380D02*
X78803333Y-71842380D01*
X75541428Y-68935000D02*
X76541428Y-68935000D01*
X76350952Y-70302380D02*
X76017619Y-69826190D01*
X75779523Y-70302380D02*
X75779523Y-69302380D01*
X76160476Y-69302380D01*
X76255714Y-69350000D01*
X76303333Y-69397619D01*
X76350952Y-69492857D01*
X76350952Y-69635714D01*
X76303333Y-69730952D01*
X76255714Y-69778571D01*
X76160476Y-69826190D01*
X75779523Y-69826190D01*
X76541428Y-68935000D02*
X77398571Y-68935000D01*
X77112857Y-69778571D02*
X76779523Y-69778571D01*
X76779523Y-70302380D02*
X76779523Y-69302380D01*
X77255714Y-69302380D01*
X77398571Y-68935000D02*
X78350952Y-68935000D01*
X77589047Y-70254761D02*
X77731904Y-70302380D01*
X77970000Y-70302380D01*
X78065238Y-70254761D01*
X78112857Y-70207142D01*
X78160476Y-70111904D01*
X78160476Y-70016666D01*
X78112857Y-69921428D01*
X78065238Y-69873809D01*
X77970000Y-69826190D01*
X77779523Y-69778571D01*
X77684285Y-69730952D01*
X77636666Y-69683333D01*
X77589047Y-69588095D01*
X77589047Y-69492857D01*
X77636666Y-69397619D01*
X77684285Y-69350000D01*
X77779523Y-69302380D01*
X78017619Y-69302380D01*
X78160476Y-69350000D01*
X78350952Y-68935000D02*
X79398571Y-68935000D01*
X78589047Y-70302380D02*
X78589047Y-69302380D01*
X78589047Y-69778571D02*
X79160476Y-69778571D01*
X79160476Y-70302380D02*
X79160476Y-69302380D01*
X76422380Y-66395000D02*
X77565238Y-66395000D01*
X76660476Y-67762380D02*
X76660476Y-66762380D01*
X76993809Y-67476666D01*
X77327142Y-66762380D01*
X77327142Y-67762380D01*
X77565238Y-66395000D02*
X78517619Y-66395000D01*
X78327142Y-67762380D02*
X77755714Y-67762380D01*
X78041428Y-67762380D02*
X78041428Y-66762380D01*
X77946190Y-66905238D01*
X77850952Y-67000476D01*
X77755714Y-67048095D01*
X75612857Y-63855000D02*
X76660476Y-63855000D01*
X75850952Y-65222380D02*
X75850952Y-64222380D01*
X75850952Y-64698571D02*
X76422380Y-64698571D01*
X76422380Y-65222380D02*
X76422380Y-64222380D01*
X76660476Y-63855000D02*
X77470000Y-63855000D01*
X77374761Y-65222380D02*
X76898571Y-65222380D01*
X76898571Y-64222380D01*
X77470000Y-63855000D02*
X78470000Y-63855000D01*
X77708095Y-65222380D02*
X77708095Y-64222380D01*
X77946190Y-64222380D01*
X78089047Y-64270000D01*
X78184285Y-64365238D01*
X78231904Y-64460476D01*
X78279523Y-64650952D01*
X78279523Y-64793809D01*
X78231904Y-64984285D01*
X78184285Y-65079523D01*
X78089047Y-65174761D01*
X77946190Y-65222380D01*
X77708095Y-65222380D01*
X78470000Y-63855000D02*
X79327142Y-63855000D01*
X78660476Y-64936666D02*
X79136666Y-64936666D01*
X78565238Y-65222380D02*
X78898571Y-64222380D01*
X79231904Y-65222380D01*
X75517619Y-61315000D02*
X76565238Y-61315000D01*
X75755714Y-62682380D02*
X75755714Y-61682380D01*
X75755714Y-62158571D02*
X76327142Y-62158571D01*
X76327142Y-62682380D02*
X76327142Y-61682380D01*
X76565238Y-61315000D02*
X77612857Y-61315000D01*
X76993809Y-61682380D02*
X77184285Y-61682380D01*
X77279523Y-61730000D01*
X77374761Y-61825238D01*
X77422380Y-62015714D01*
X77422380Y-62349047D01*
X77374761Y-62539523D01*
X77279523Y-62634761D01*
X77184285Y-62682380D01*
X76993809Y-62682380D01*
X76898571Y-62634761D01*
X76803333Y-62539523D01*
X76755714Y-62349047D01*
X76755714Y-62015714D01*
X76803333Y-61825238D01*
X76898571Y-61730000D01*
X76993809Y-61682380D01*
X77612857Y-61315000D02*
X78422380Y-61315000D01*
X78327142Y-62682380D02*
X77850952Y-62682380D01*
X77850952Y-61682380D01*
X78422380Y-61315000D02*
X79422380Y-61315000D01*
X78660476Y-62682380D02*
X78660476Y-61682380D01*
X78898571Y-61682380D01*
X79041428Y-61730000D01*
X79136666Y-61825238D01*
X79184285Y-61920476D01*
X79231904Y-62110952D01*
X79231904Y-62253809D01*
X79184285Y-62444285D01*
X79136666Y-62539523D01*
X79041428Y-62634761D01*
X78898571Y-62682380D01*
X78660476Y-62682380D01*
X60968095Y-61315000D02*
X61444285Y-61315000D01*
X61206190Y-62682380D02*
X61206190Y-61682380D01*
X61444285Y-61315000D02*
X62491904Y-61315000D01*
X61872857Y-61682380D02*
X62063333Y-61682380D01*
X62158571Y-61730000D01*
X62253809Y-61825238D01*
X62301428Y-62015714D01*
X62301428Y-62349047D01*
X62253809Y-62539523D01*
X62158571Y-62634761D01*
X62063333Y-62682380D01*
X61872857Y-62682380D01*
X61777619Y-62634761D01*
X61682380Y-62539523D01*
X61634761Y-62349047D01*
X61634761Y-62015714D01*
X61682380Y-61825238D01*
X61777619Y-61730000D01*
X61872857Y-61682380D01*
X62491904Y-61315000D02*
X63491904Y-61315000D01*
X63301428Y-62682380D02*
X62968095Y-62206190D01*
X62730000Y-62682380D02*
X62730000Y-61682380D01*
X63110952Y-61682380D01*
X63206190Y-61730000D01*
X63253809Y-61777619D01*
X63301428Y-61872857D01*
X63301428Y-62015714D01*
X63253809Y-62110952D01*
X63206190Y-62158571D01*
X63110952Y-62206190D01*
X62730000Y-62206190D01*
X60896666Y-63855000D02*
X61372857Y-63855000D01*
X61134761Y-65222380D02*
X61134761Y-64222380D01*
X61372857Y-63855000D02*
X62420476Y-63855000D01*
X61801428Y-64222380D02*
X61991904Y-64222380D01*
X62087142Y-64270000D01*
X62182380Y-64365238D01*
X62230000Y-64555714D01*
X62230000Y-64889047D01*
X62182380Y-65079523D01*
X62087142Y-65174761D01*
X61991904Y-65222380D01*
X61801428Y-65222380D01*
X61706190Y-65174761D01*
X61610952Y-65079523D01*
X61563333Y-64889047D01*
X61563333Y-64555714D01*
X61610952Y-64365238D01*
X61706190Y-64270000D01*
X61801428Y-64222380D01*
X62420476Y-63855000D02*
X63563333Y-63855000D01*
X62563333Y-64222380D02*
X62801428Y-65222380D01*
X62991904Y-64508095D01*
X63182380Y-65222380D01*
X63420476Y-64222380D01*
X60134761Y-66395000D02*
X61277619Y-66395000D01*
X60372857Y-67762380D02*
X60372857Y-66762380D01*
X60706190Y-67476666D01*
X61039523Y-66762380D01*
X61039523Y-67762380D01*
X61277619Y-66395000D02*
X62182380Y-66395000D01*
X61515714Y-67238571D02*
X61849047Y-67238571D01*
X61991904Y-67762380D02*
X61515714Y-67762380D01*
X61515714Y-66762380D01*
X61991904Y-66762380D01*
X62182380Y-66395000D02*
X63325238Y-66395000D01*
X62420476Y-67762380D02*
X62420476Y-66762380D01*
X62753809Y-67476666D01*
X63087142Y-66762380D01*
X63087142Y-67762380D01*
X63325238Y-66395000D02*
X64325238Y-66395000D01*
X64134761Y-67762380D02*
X63801428Y-67286190D01*
X63563333Y-67762380D02*
X63563333Y-66762380D01*
X63944285Y-66762380D01*
X64039523Y-66810000D01*
X64087142Y-66857619D01*
X64134761Y-66952857D01*
X64134761Y-67095714D01*
X64087142Y-67190952D01*
X64039523Y-67238571D01*
X63944285Y-67286190D01*
X63563333Y-67286190D01*
X60063333Y-68935000D02*
X61206190Y-68935000D01*
X60301428Y-70302380D02*
X60301428Y-69302380D01*
X60634761Y-70016666D01*
X60968095Y-69302380D01*
X60968095Y-70302380D01*
X61206190Y-68935000D02*
X62110952Y-68935000D01*
X61444285Y-69778571D02*
X61777619Y-69778571D01*
X61920476Y-70302380D02*
X61444285Y-70302380D01*
X61444285Y-69302380D01*
X61920476Y-69302380D01*
X62110952Y-68935000D02*
X63253809Y-68935000D01*
X62349047Y-70302380D02*
X62349047Y-69302380D01*
X62682380Y-70016666D01*
X63015714Y-69302380D01*
X63015714Y-70302380D01*
X63253809Y-68935000D02*
X64396666Y-68935000D01*
X63396666Y-69302380D02*
X63634761Y-70302380D01*
X63825238Y-69588095D01*
X64015714Y-70302380D01*
X64253809Y-69302380D01*
X60301428Y-71475000D02*
X61444285Y-71475000D01*
X60539523Y-72842380D02*
X60539523Y-71842380D01*
X60872857Y-72556666D01*
X61206190Y-71842380D01*
X61206190Y-72842380D01*
X61444285Y-71475000D02*
X62491904Y-71475000D01*
X61872857Y-71842380D02*
X62063333Y-71842380D01*
X62158571Y-71890000D01*
X62253809Y-71985238D01*
X62301428Y-72175714D01*
X62301428Y-72509047D01*
X62253809Y-72699523D01*
X62158571Y-72794761D01*
X62063333Y-72842380D01*
X61872857Y-72842380D01*
X61777619Y-72794761D01*
X61682380Y-72699523D01*
X61634761Y-72509047D01*
X61634761Y-72175714D01*
X61682380Y-71985238D01*
X61777619Y-71890000D01*
X61872857Y-71842380D01*
X62491904Y-71475000D02*
X63349047Y-71475000D01*
X62587142Y-71842380D02*
X62920476Y-72842380D01*
X63253809Y-71842380D01*
X63349047Y-71475000D02*
X64158571Y-71475000D01*
X64063333Y-72842380D02*
X63587142Y-72842380D01*
X63587142Y-71842380D01*
X60515714Y-74015000D02*
X60991904Y-74015000D01*
X60753809Y-75382380D02*
X60753809Y-74382380D01*
X60991904Y-74015000D02*
X62039523Y-74015000D01*
X61420476Y-74382380D02*
X61610952Y-74382380D01*
X61706190Y-74430000D01*
X61801428Y-74525238D01*
X61849047Y-74715714D01*
X61849047Y-75049047D01*
X61801428Y-75239523D01*
X61706190Y-75334761D01*
X61610952Y-75382380D01*
X61420476Y-75382380D01*
X61325238Y-75334761D01*
X61230000Y-75239523D01*
X61182380Y-75049047D01*
X61182380Y-74715714D01*
X61230000Y-74525238D01*
X61325238Y-74430000D01*
X61420476Y-74382380D01*
X62039523Y-74015000D02*
X62991904Y-74015000D01*
X62801428Y-75382380D02*
X62230000Y-75382380D01*
X62515714Y-75382380D02*
X62515714Y-74382380D01*
X62420476Y-74525238D01*
X62325238Y-74620476D01*
X62230000Y-74668095D01*
X62991904Y-74015000D02*
X63944285Y-74015000D01*
X63658571Y-74382380D02*
X63468095Y-74382380D01*
X63372857Y-74430000D01*
X63325238Y-74477619D01*
X63230000Y-74620476D01*
X63182380Y-74810952D01*
X63182380Y-75191904D01*
X63230000Y-75287142D01*
X63277619Y-75334761D01*
X63372857Y-75382380D01*
X63563333Y-75382380D01*
X63658571Y-75334761D01*
X63706190Y-75287142D01*
X63753809Y-75191904D01*
X63753809Y-74953809D01*
X63706190Y-74858571D01*
X63658571Y-74810952D01*
X63563333Y-74763333D01*
X63372857Y-74763333D01*
X63277619Y-74810952D01*
X63230000Y-74858571D01*
X63182380Y-74953809D01*
X60706190Y-76555000D02*
X61849047Y-76555000D01*
X60944285Y-77922380D02*
X60944285Y-76922380D01*
X61277619Y-77636666D01*
X61610952Y-76922380D01*
X61610952Y-77922380D01*
X61849047Y-76555000D02*
X62801428Y-76555000D01*
X62610952Y-77922380D02*
X62039523Y-77922380D01*
X62325238Y-77922380D02*
X62325238Y-76922380D01*
X62230000Y-77065238D01*
X62134761Y-77160476D01*
X62039523Y-77208095D01*
X62801428Y-76555000D02*
X63753809Y-76555000D01*
X63468095Y-76922380D02*
X63277619Y-76922380D01*
X63182380Y-76970000D01*
X63134761Y-77017619D01*
X63039523Y-77160476D01*
X62991904Y-77350952D01*
X62991904Y-77731904D01*
X63039523Y-77827142D01*
X63087142Y-77874761D01*
X63182380Y-77922380D01*
X63372857Y-77922380D01*
X63468095Y-77874761D01*
X63515714Y-77827142D01*
X63563333Y-77731904D01*
X63563333Y-77493809D01*
X63515714Y-77398571D01*
X63468095Y-77350952D01*
X63372857Y-77303333D01*
X63182380Y-77303333D01*
X63087142Y-77350952D01*
X63039523Y-77398571D01*
X62991904Y-77493809D01*
X60753809Y-79095000D02*
X61753809Y-79095000D01*
X61325238Y-79938571D02*
X61468095Y-79986190D01*
X61515714Y-80033809D01*
X61563333Y-80129047D01*
X61563333Y-80271904D01*
X61515714Y-80367142D01*
X61468095Y-80414761D01*
X61372857Y-80462380D01*
X60991904Y-80462380D01*
X60991904Y-79462380D01*
X61325238Y-79462380D01*
X61420476Y-79510000D01*
X61468095Y-79557619D01*
X61515714Y-79652857D01*
X61515714Y-79748095D01*
X61468095Y-79843333D01*
X61420476Y-79890952D01*
X61325238Y-79938571D01*
X60991904Y-79938571D01*
X61753809Y-79095000D02*
X62801428Y-79095000D01*
X61991904Y-80462380D02*
X61991904Y-79462380D01*
X61991904Y-79938571D02*
X62563333Y-79938571D01*
X62563333Y-80462380D02*
X62563333Y-79462380D01*
X62801428Y-79095000D02*
X63706190Y-79095000D01*
X63039523Y-79938571D02*
X63372857Y-79938571D01*
X63515714Y-80462380D02*
X63039523Y-80462380D01*
X63039523Y-79462380D01*
X63515714Y-79462380D01*
X106735714Y-62682380D02*
X106735714Y-61682380D01*
X106973809Y-61682380D01*
X107116666Y-61730000D01*
X107211904Y-61825238D01*
X107259523Y-61920476D01*
X107307142Y-62110952D01*
X107307142Y-62253809D01*
X107259523Y-62444285D01*
X107211904Y-62539523D01*
X107116666Y-62634761D01*
X106973809Y-62682380D01*
X106735714Y-62682380D01*
X108259523Y-62682380D02*
X107688095Y-62682380D01*
X107973809Y-62682380D02*
X107973809Y-61682380D01*
X107878571Y-61825238D01*
X107783333Y-61920476D01*
X107688095Y-61968095D01*
X109164285Y-61682380D02*
X108688095Y-61682380D01*
X108640476Y-62158571D01*
X108688095Y-62110952D01*
X108783333Y-62063333D01*
X109021428Y-62063333D01*
X109116666Y-62110952D01*
X109164285Y-62158571D01*
X109211904Y-62253809D01*
X109211904Y-62491904D01*
X109164285Y-62587142D01*
X109116666Y-62634761D01*
X109021428Y-62682380D01*
X108783333Y-62682380D01*
X108688095Y-62634761D01*
X108640476Y-62587142D01*
X106735714Y-65222380D02*
X106735714Y-64222380D01*
X106973809Y-64222380D01*
X107116666Y-64270000D01*
X107211904Y-64365238D01*
X107259523Y-64460476D01*
X107307142Y-64650952D01*
X107307142Y-64793809D01*
X107259523Y-64984285D01*
X107211904Y-65079523D01*
X107116666Y-65174761D01*
X106973809Y-65222380D01*
X106735714Y-65222380D01*
X108259523Y-65222380D02*
X107688095Y-65222380D01*
X107973809Y-65222380D02*
X107973809Y-64222380D01*
X107878571Y-64365238D01*
X107783333Y-64460476D01*
X107688095Y-64508095D01*
X109116666Y-64555714D02*
X109116666Y-65222380D01*
X108878571Y-64174761D02*
X108640476Y-64889047D01*
X109259523Y-64889047D01*
X106735714Y-67762380D02*
X106735714Y-66762380D01*
X106973809Y-66762380D01*
X107116666Y-66810000D01*
X107211904Y-66905238D01*
X107259523Y-67000476D01*
X107307142Y-67190952D01*
X107307142Y-67333809D01*
X107259523Y-67524285D01*
X107211904Y-67619523D01*
X107116666Y-67714761D01*
X106973809Y-67762380D01*
X106735714Y-67762380D01*
X108259523Y-67762380D02*
X107688095Y-67762380D01*
X107973809Y-67762380D02*
X107973809Y-66762380D01*
X107878571Y-66905238D01*
X107783333Y-67000476D01*
X107688095Y-67048095D01*
X108592857Y-66762380D02*
X109211904Y-66762380D01*
X108878571Y-67143333D01*
X109021428Y-67143333D01*
X109116666Y-67190952D01*
X109164285Y-67238571D01*
X109211904Y-67333809D01*
X109211904Y-67571904D01*
X109164285Y-67667142D01*
X109116666Y-67714761D01*
X109021428Y-67762380D01*
X108735714Y-67762380D01*
X108640476Y-67714761D01*
X108592857Y-67667142D01*
X106735714Y-70302380D02*
X106735714Y-69302380D01*
X106973809Y-69302380D01*
X107116666Y-69350000D01*
X107211904Y-69445238D01*
X107259523Y-69540476D01*
X107307142Y-69730952D01*
X107307142Y-69873809D01*
X107259523Y-70064285D01*
X107211904Y-70159523D01*
X107116666Y-70254761D01*
X106973809Y-70302380D01*
X106735714Y-70302380D01*
X108259523Y-70302380D02*
X107688095Y-70302380D01*
X107973809Y-70302380D02*
X107973809Y-69302380D01*
X107878571Y-69445238D01*
X107783333Y-69540476D01*
X107688095Y-69588095D01*
X108640476Y-69397619D02*
X108688095Y-69350000D01*
X108783333Y-69302380D01*
X109021428Y-69302380D01*
X109116666Y-69350000D01*
X109164285Y-69397619D01*
X109211904Y-69492857D01*
X109211904Y-69588095D01*
X109164285Y-69730952D01*
X108592857Y-70302380D01*
X109211904Y-70302380D01*
X106735714Y-72842380D02*
X106735714Y-71842380D01*
X106973809Y-71842380D01*
X107116666Y-71890000D01*
X107211904Y-71985238D01*
X107259523Y-72080476D01*
X107307142Y-72270952D01*
X107307142Y-72413809D01*
X107259523Y-72604285D01*
X107211904Y-72699523D01*
X107116666Y-72794761D01*
X106973809Y-72842380D01*
X106735714Y-72842380D01*
X108259523Y-72842380D02*
X107688095Y-72842380D01*
X107973809Y-72842380D02*
X107973809Y-71842380D01*
X107878571Y-71985238D01*
X107783333Y-72080476D01*
X107688095Y-72128095D01*
X109211904Y-72842380D02*
X108640476Y-72842380D01*
X108926190Y-72842380D02*
X108926190Y-71842380D01*
X108830952Y-71985238D01*
X108735714Y-72080476D01*
X108640476Y-72128095D01*
X106735714Y-75382380D02*
X106735714Y-74382380D01*
X106973809Y-74382380D01*
X107116666Y-74430000D01*
X107211904Y-74525238D01*
X107259523Y-74620476D01*
X107307142Y-74810952D01*
X107307142Y-74953809D01*
X107259523Y-75144285D01*
X107211904Y-75239523D01*
X107116666Y-75334761D01*
X106973809Y-75382380D01*
X106735714Y-75382380D01*
X108259523Y-75382380D02*
X107688095Y-75382380D01*
X107973809Y-75382380D02*
X107973809Y-74382380D01*
X107878571Y-74525238D01*
X107783333Y-74620476D01*
X107688095Y-74668095D01*
X108878571Y-74382380D02*
X108973809Y-74382380D01*
X109069047Y-74430000D01*
X109116666Y-74477619D01*
X109164285Y-74572857D01*
X109211904Y-74763333D01*
X109211904Y-75001428D01*
X109164285Y-75191904D01*
X109116666Y-75287142D01*
X109069047Y-75334761D01*
X108973809Y-75382380D01*
X108878571Y-75382380D01*
X108783333Y-75334761D01*
X108735714Y-75287142D01*
X108688095Y-75191904D01*
X108640476Y-75001428D01*
X108640476Y-74763333D01*
X108688095Y-74572857D01*
X108735714Y-74477619D01*
X108783333Y-74430000D01*
X108878571Y-74382380D01*
X107211904Y-77922380D02*
X107211904Y-76922380D01*
X107450000Y-76922380D01*
X107592857Y-76970000D01*
X107688095Y-77065238D01*
X107735714Y-77160476D01*
X107783333Y-77350952D01*
X107783333Y-77493809D01*
X107735714Y-77684285D01*
X107688095Y-77779523D01*
X107592857Y-77874761D01*
X107450000Y-77922380D01*
X107211904Y-77922380D01*
X108259523Y-77922380D02*
X108450000Y-77922380D01*
X108545238Y-77874761D01*
X108592857Y-77827142D01*
X108688095Y-77684285D01*
X108735714Y-77493809D01*
X108735714Y-77112857D01*
X108688095Y-77017619D01*
X108640476Y-76970000D01*
X108545238Y-76922380D01*
X108354761Y-76922380D01*
X108259523Y-76970000D01*
X108211904Y-77017619D01*
X108164285Y-77112857D01*
X108164285Y-77350952D01*
X108211904Y-77446190D01*
X108259523Y-77493809D01*
X108354761Y-77541428D01*
X108545238Y-77541428D01*
X108640476Y-77493809D01*
X108688095Y-77446190D01*
X108735714Y-77350952D01*
X107211904Y-80462380D02*
X107211904Y-79462380D01*
X107450000Y-79462380D01*
X107592857Y-79510000D01*
X107688095Y-79605238D01*
X107735714Y-79700476D01*
X107783333Y-79890952D01*
X107783333Y-80033809D01*
X107735714Y-80224285D01*
X107688095Y-80319523D01*
X107592857Y-80414761D01*
X107450000Y-80462380D01*
X107211904Y-80462380D01*
X108354761Y-79890952D02*
X108259523Y-79843333D01*
X108211904Y-79795714D01*
X108164285Y-79700476D01*
X108164285Y-79652857D01*
X108211904Y-79557619D01*
X108259523Y-79510000D01*
X108354761Y-79462380D01*
X108545238Y-79462380D01*
X108640476Y-79510000D01*
X108688095Y-79557619D01*
X108735714Y-79652857D01*
X108735714Y-79700476D01*
X108688095Y-79795714D01*
X108640476Y-79843333D01*
X108545238Y-79890952D01*
X108354761Y-79890952D01*
X108259523Y-79938571D01*
X108211904Y-79986190D01*
X108164285Y-80081428D01*
X108164285Y-80271904D01*
X108211904Y-80367142D01*
X108259523Y-80414761D01*
X108354761Y-80462380D01*
X108545238Y-80462380D01*
X108640476Y-80414761D01*
X108688095Y-80367142D01*
X108735714Y-80271904D01*
X108735714Y-80081428D01*
X108688095Y-79986190D01*
X108640476Y-79938571D01*
X108545238Y-79890952D01*
X91971904Y-62682380D02*
X91971904Y-61682380D01*
X92210000Y-61682380D01*
X92352857Y-61730000D01*
X92448095Y-61825238D01*
X92495714Y-61920476D01*
X92543333Y-62110952D01*
X92543333Y-62253809D01*
X92495714Y-62444285D01*
X92448095Y-62539523D01*
X92352857Y-62634761D01*
X92210000Y-62682380D01*
X91971904Y-62682380D01*
X92876666Y-61682380D02*
X93543333Y-61682380D01*
X93114761Y-62682380D01*
X91971904Y-65222380D02*
X91971904Y-64222380D01*
X92210000Y-64222380D01*
X92352857Y-64270000D01*
X92448095Y-64365238D01*
X92495714Y-64460476D01*
X92543333Y-64650952D01*
X92543333Y-64793809D01*
X92495714Y-64984285D01*
X92448095Y-65079523D01*
X92352857Y-65174761D01*
X92210000Y-65222380D01*
X91971904Y-65222380D01*
X93400476Y-64222380D02*
X93210000Y-64222380D01*
X93114761Y-64270000D01*
X93067142Y-64317619D01*
X92971904Y-64460476D01*
X92924285Y-64650952D01*
X92924285Y-65031904D01*
X92971904Y-65127142D01*
X93019523Y-65174761D01*
X93114761Y-65222380D01*
X93305238Y-65222380D01*
X93400476Y-65174761D01*
X93448095Y-65127142D01*
X93495714Y-65031904D01*
X93495714Y-64793809D01*
X93448095Y-64698571D01*
X93400476Y-64650952D01*
X93305238Y-64603333D01*
X93114761Y-64603333D01*
X93019523Y-64650952D01*
X92971904Y-64698571D01*
X92924285Y-64793809D01*
X91971904Y-67762380D02*
X91971904Y-66762380D01*
X92210000Y-66762380D01*
X92352857Y-66810000D01*
X92448095Y-66905238D01*
X92495714Y-67000476D01*
X92543333Y-67190952D01*
X92543333Y-67333809D01*
X92495714Y-67524285D01*
X92448095Y-67619523D01*
X92352857Y-67714761D01*
X92210000Y-67762380D01*
X91971904Y-67762380D01*
X93448095Y-66762380D02*
X92971904Y-66762380D01*
X92924285Y-67238571D01*
X92971904Y-67190952D01*
X93067142Y-67143333D01*
X93305238Y-67143333D01*
X93400476Y-67190952D01*
X93448095Y-67238571D01*
X93495714Y-67333809D01*
X93495714Y-67571904D01*
X93448095Y-67667142D01*
X93400476Y-67714761D01*
X93305238Y-67762380D01*
X93067142Y-67762380D01*
X92971904Y-67714761D01*
X92924285Y-67667142D01*
X91971904Y-70302380D02*
X91971904Y-69302380D01*
X92210000Y-69302380D01*
X92352857Y-69350000D01*
X92448095Y-69445238D01*
X92495714Y-69540476D01*
X92543333Y-69730952D01*
X92543333Y-69873809D01*
X92495714Y-70064285D01*
X92448095Y-70159523D01*
X92352857Y-70254761D01*
X92210000Y-70302380D01*
X91971904Y-70302380D01*
X93400476Y-69635714D02*
X93400476Y-70302380D01*
X93162380Y-69254761D02*
X92924285Y-69969047D01*
X93543333Y-69969047D01*
X91971904Y-72842380D02*
X91971904Y-71842380D01*
X92210000Y-71842380D01*
X92352857Y-71890000D01*
X92448095Y-71985238D01*
X92495714Y-72080476D01*
X92543333Y-72270952D01*
X92543333Y-72413809D01*
X92495714Y-72604285D01*
X92448095Y-72699523D01*
X92352857Y-72794761D01*
X92210000Y-72842380D01*
X91971904Y-72842380D01*
X92876666Y-71842380D02*
X93495714Y-71842380D01*
X93162380Y-72223333D01*
X93305238Y-72223333D01*
X93400476Y-72270952D01*
X93448095Y-72318571D01*
X93495714Y-72413809D01*
X93495714Y-72651904D01*
X93448095Y-72747142D01*
X93400476Y-72794761D01*
X93305238Y-72842380D01*
X93019523Y-72842380D01*
X92924285Y-72794761D01*
X92876666Y-72747142D01*
X91971904Y-75382380D02*
X91971904Y-74382380D01*
X92210000Y-74382380D01*
X92352857Y-74430000D01*
X92448095Y-74525238D01*
X92495714Y-74620476D01*
X92543333Y-74810952D01*
X92543333Y-74953809D01*
X92495714Y-75144285D01*
X92448095Y-75239523D01*
X92352857Y-75334761D01*
X92210000Y-75382380D01*
X91971904Y-75382380D01*
X92924285Y-74477619D02*
X92971904Y-74430000D01*
X93067142Y-74382380D01*
X93305238Y-74382380D01*
X93400476Y-74430000D01*
X93448095Y-74477619D01*
X93495714Y-74572857D01*
X93495714Y-74668095D01*
X93448095Y-74810952D01*
X92876666Y-75382380D01*
X93495714Y-75382380D01*
X91971904Y-77922380D02*
X91971904Y-76922380D01*
X92210000Y-76922380D01*
X92352857Y-76970000D01*
X92448095Y-77065238D01*
X92495714Y-77160476D01*
X92543333Y-77350952D01*
X92543333Y-77493809D01*
X92495714Y-77684285D01*
X92448095Y-77779523D01*
X92352857Y-77874761D01*
X92210000Y-77922380D01*
X91971904Y-77922380D01*
X93495714Y-77922380D02*
X92924285Y-77922380D01*
X93210000Y-77922380D02*
X93210000Y-76922380D01*
X93114761Y-77065238D01*
X93019523Y-77160476D01*
X92924285Y-77208095D01*
X91971904Y-80462380D02*
X91971904Y-79462380D01*
X92210000Y-79462380D01*
X92352857Y-79510000D01*
X92448095Y-79605238D01*
X92495714Y-79700476D01*
X92543333Y-79890952D01*
X92543333Y-80033809D01*
X92495714Y-80224285D01*
X92448095Y-80319523D01*
X92352857Y-80414761D01*
X92210000Y-80462380D01*
X91971904Y-80462380D01*
X93162380Y-79462380D02*
X93257619Y-79462380D01*
X93352857Y-79510000D01*
X93400476Y-79557619D01*
X93448095Y-79652857D01*
X93495714Y-79843333D01*
X93495714Y-80081428D01*
X93448095Y-80271904D01*
X93400476Y-80367142D01*
X93352857Y-80414761D01*
X93257619Y-80462380D01*
X93162380Y-80462380D01*
X93067142Y-80414761D01*
X93019523Y-80367142D01*
X92971904Y-80271904D01*
X92924285Y-80081428D01*
X92924285Y-79843333D01*
X92971904Y-79652857D01*
X93019523Y-79557619D01*
X93067142Y-79510000D01*
X93162380Y-79462380D01*
X30011904Y-107035000D02*
X30488095Y-107035000D01*
X30250000Y-108402380D02*
X30250000Y-107402380D01*
X30488095Y-107035000D02*
X31488095Y-107035000D01*
X31297619Y-108402380D02*
X30964285Y-107926190D01*
X30726190Y-108402380D02*
X30726190Y-107402380D01*
X31107142Y-107402380D01*
X31202380Y-107450000D01*
X31250000Y-107497619D01*
X31297619Y-107592857D01*
X31297619Y-107735714D01*
X31250000Y-107830952D01*
X31202380Y-107878571D01*
X31107142Y-107926190D01*
X30726190Y-107926190D01*
X31488095Y-107035000D02*
X32535714Y-107035000D01*
X32392857Y-108497619D02*
X32297619Y-108450000D01*
X32202380Y-108354761D01*
X32059523Y-108211904D01*
X31964285Y-108164285D01*
X31869047Y-108164285D01*
X31916666Y-108402380D02*
X31821428Y-108354761D01*
X31726190Y-108259523D01*
X31678571Y-108069047D01*
X31678571Y-107735714D01*
X31726190Y-107545238D01*
X31821428Y-107450000D01*
X31916666Y-107402380D01*
X32107142Y-107402380D01*
X32202380Y-107450000D01*
X32297619Y-107545238D01*
X32345238Y-107735714D01*
X32345238Y-108069047D01*
X32297619Y-108259523D01*
X32202380Y-108354761D01*
X32107142Y-108402380D01*
X31916666Y-108402380D01*
X32535714Y-107035000D02*
X33488095Y-107035000D01*
X32964285Y-107402380D02*
X33059523Y-107402380D01*
X33154761Y-107450000D01*
X33202380Y-107497619D01*
X33250000Y-107592857D01*
X33297619Y-107783333D01*
X33297619Y-108021428D01*
X33250000Y-108211904D01*
X33202380Y-108307142D01*
X33154761Y-108354761D01*
X33059523Y-108402380D01*
X32964285Y-108402380D01*
X32869047Y-108354761D01*
X32821428Y-108307142D01*
X32773809Y-108211904D01*
X32726190Y-108021428D01*
X32726190Y-107783333D01*
X32773809Y-107592857D01*
X32821428Y-107497619D01*
X32869047Y-107450000D01*
X32964285Y-107402380D01*
X30011904Y-104495000D02*
X30488095Y-104495000D01*
X30250000Y-105862380D02*
X30250000Y-104862380D01*
X30488095Y-104495000D02*
X31488095Y-104495000D01*
X31297619Y-105862380D02*
X30964285Y-105386190D01*
X30726190Y-105862380D02*
X30726190Y-104862380D01*
X31107142Y-104862380D01*
X31202380Y-104910000D01*
X31250000Y-104957619D01*
X31297619Y-105052857D01*
X31297619Y-105195714D01*
X31250000Y-105290952D01*
X31202380Y-105338571D01*
X31107142Y-105386190D01*
X30726190Y-105386190D01*
X31488095Y-104495000D02*
X32535714Y-104495000D01*
X32392857Y-105957619D02*
X32297619Y-105910000D01*
X32202380Y-105814761D01*
X32059523Y-105671904D01*
X31964285Y-105624285D01*
X31869047Y-105624285D01*
X31916666Y-105862380D02*
X31821428Y-105814761D01*
X31726190Y-105719523D01*
X31678571Y-105529047D01*
X31678571Y-105195714D01*
X31726190Y-105005238D01*
X31821428Y-104910000D01*
X31916666Y-104862380D01*
X32107142Y-104862380D01*
X32202380Y-104910000D01*
X32297619Y-105005238D01*
X32345238Y-105195714D01*
X32345238Y-105529047D01*
X32297619Y-105719523D01*
X32202380Y-105814761D01*
X32107142Y-105862380D01*
X31916666Y-105862380D01*
X32535714Y-104495000D02*
X33488095Y-104495000D01*
X33297619Y-105862380D02*
X32726190Y-105862380D01*
X33011904Y-105862380D02*
X33011904Y-104862380D01*
X32916666Y-105005238D01*
X32821428Y-105100476D01*
X32726190Y-105148095D01*
X30011904Y-101955000D02*
X30488095Y-101955000D01*
X30250000Y-103322380D02*
X30250000Y-102322380D01*
X30488095Y-101955000D02*
X31488095Y-101955000D01*
X31297619Y-103322380D02*
X30964285Y-102846190D01*
X30726190Y-103322380D02*
X30726190Y-102322380D01*
X31107142Y-102322380D01*
X31202380Y-102370000D01*
X31250000Y-102417619D01*
X31297619Y-102512857D01*
X31297619Y-102655714D01*
X31250000Y-102750952D01*
X31202380Y-102798571D01*
X31107142Y-102846190D01*
X30726190Y-102846190D01*
X31488095Y-101955000D02*
X32535714Y-101955000D01*
X32392857Y-103417619D02*
X32297619Y-103370000D01*
X32202380Y-103274761D01*
X32059523Y-103131904D01*
X31964285Y-103084285D01*
X31869047Y-103084285D01*
X31916666Y-103322380D02*
X31821428Y-103274761D01*
X31726190Y-103179523D01*
X31678571Y-102989047D01*
X31678571Y-102655714D01*
X31726190Y-102465238D01*
X31821428Y-102370000D01*
X31916666Y-102322380D01*
X32107142Y-102322380D01*
X32202380Y-102370000D01*
X32297619Y-102465238D01*
X32345238Y-102655714D01*
X32345238Y-102989047D01*
X32297619Y-103179523D01*
X32202380Y-103274761D01*
X32107142Y-103322380D01*
X31916666Y-103322380D01*
X32535714Y-101955000D02*
X33488095Y-101955000D01*
X32726190Y-102417619D02*
X32773809Y-102370000D01*
X32869047Y-102322380D01*
X33107142Y-102322380D01*
X33202380Y-102370000D01*
X33250000Y-102417619D01*
X33297619Y-102512857D01*
X33297619Y-102608095D01*
X33250000Y-102750952D01*
X32678571Y-103322380D01*
X33297619Y-103322380D01*
X30011904Y-99415000D02*
X30488095Y-99415000D01*
X30250000Y-100782380D02*
X30250000Y-99782380D01*
X30488095Y-99415000D02*
X31488095Y-99415000D01*
X31297619Y-100782380D02*
X30964285Y-100306190D01*
X30726190Y-100782380D02*
X30726190Y-99782380D01*
X31107142Y-99782380D01*
X31202380Y-99830000D01*
X31250000Y-99877619D01*
X31297619Y-99972857D01*
X31297619Y-100115714D01*
X31250000Y-100210952D01*
X31202380Y-100258571D01*
X31107142Y-100306190D01*
X30726190Y-100306190D01*
X31488095Y-99415000D02*
X32535714Y-99415000D01*
X32392857Y-100877619D02*
X32297619Y-100830000D01*
X32202380Y-100734761D01*
X32059523Y-100591904D01*
X31964285Y-100544285D01*
X31869047Y-100544285D01*
X31916666Y-100782380D02*
X31821428Y-100734761D01*
X31726190Y-100639523D01*
X31678571Y-100449047D01*
X31678571Y-100115714D01*
X31726190Y-99925238D01*
X31821428Y-99830000D01*
X31916666Y-99782380D01*
X32107142Y-99782380D01*
X32202380Y-99830000D01*
X32297619Y-99925238D01*
X32345238Y-100115714D01*
X32345238Y-100449047D01*
X32297619Y-100639523D01*
X32202380Y-100734761D01*
X32107142Y-100782380D01*
X31916666Y-100782380D01*
X32535714Y-99415000D02*
X33488095Y-99415000D01*
X32678571Y-99782380D02*
X33297619Y-99782380D01*
X32964285Y-100163333D01*
X33107142Y-100163333D01*
X33202380Y-100210952D01*
X33250000Y-100258571D01*
X33297619Y-100353809D01*
X33297619Y-100591904D01*
X33250000Y-100687142D01*
X33202380Y-100734761D01*
X33107142Y-100782380D01*
X32821428Y-100782380D01*
X32726190Y-100734761D01*
X32678571Y-100687142D01*
X30011904Y-96875000D02*
X30488095Y-96875000D01*
X30250000Y-98242380D02*
X30250000Y-97242380D01*
X30488095Y-96875000D02*
X31488095Y-96875000D01*
X31297619Y-98242380D02*
X30964285Y-97766190D01*
X30726190Y-98242380D02*
X30726190Y-97242380D01*
X31107142Y-97242380D01*
X31202380Y-97290000D01*
X31250000Y-97337619D01*
X31297619Y-97432857D01*
X31297619Y-97575714D01*
X31250000Y-97670952D01*
X31202380Y-97718571D01*
X31107142Y-97766190D01*
X30726190Y-97766190D01*
X31488095Y-96875000D02*
X32535714Y-96875000D01*
X32392857Y-98337619D02*
X32297619Y-98290000D01*
X32202380Y-98194761D01*
X32059523Y-98051904D01*
X31964285Y-98004285D01*
X31869047Y-98004285D01*
X31916666Y-98242380D02*
X31821428Y-98194761D01*
X31726190Y-98099523D01*
X31678571Y-97909047D01*
X31678571Y-97575714D01*
X31726190Y-97385238D01*
X31821428Y-97290000D01*
X31916666Y-97242380D01*
X32107142Y-97242380D01*
X32202380Y-97290000D01*
X32297619Y-97385238D01*
X32345238Y-97575714D01*
X32345238Y-97909047D01*
X32297619Y-98099523D01*
X32202380Y-98194761D01*
X32107142Y-98242380D01*
X31916666Y-98242380D01*
X32535714Y-96875000D02*
X33488095Y-96875000D01*
X33202380Y-97575714D02*
X33202380Y-98242380D01*
X32964285Y-97194761D02*
X32726190Y-97909047D01*
X33345238Y-97909047D01*
X30011904Y-94335000D02*
X30488095Y-94335000D01*
X30250000Y-95702380D02*
X30250000Y-94702380D01*
X30488095Y-94335000D02*
X31488095Y-94335000D01*
X31297619Y-95702380D02*
X30964285Y-95226190D01*
X30726190Y-95702380D02*
X30726190Y-94702380D01*
X31107142Y-94702380D01*
X31202380Y-94750000D01*
X31250000Y-94797619D01*
X31297619Y-94892857D01*
X31297619Y-95035714D01*
X31250000Y-95130952D01*
X31202380Y-95178571D01*
X31107142Y-95226190D01*
X30726190Y-95226190D01*
X31488095Y-94335000D02*
X32535714Y-94335000D01*
X32392857Y-95797619D02*
X32297619Y-95750000D01*
X32202380Y-95654761D01*
X32059523Y-95511904D01*
X31964285Y-95464285D01*
X31869047Y-95464285D01*
X31916666Y-95702380D02*
X31821428Y-95654761D01*
X31726190Y-95559523D01*
X31678571Y-95369047D01*
X31678571Y-95035714D01*
X31726190Y-94845238D01*
X31821428Y-94750000D01*
X31916666Y-94702380D01*
X32107142Y-94702380D01*
X32202380Y-94750000D01*
X32297619Y-94845238D01*
X32345238Y-95035714D01*
X32345238Y-95369047D01*
X32297619Y-95559523D01*
X32202380Y-95654761D01*
X32107142Y-95702380D01*
X31916666Y-95702380D01*
X32535714Y-94335000D02*
X33488095Y-94335000D01*
X33250000Y-94702380D02*
X32773809Y-94702380D01*
X32726190Y-95178571D01*
X32773809Y-95130952D01*
X32869047Y-95083333D01*
X33107142Y-95083333D01*
X33202380Y-95130952D01*
X33250000Y-95178571D01*
X33297619Y-95273809D01*
X33297619Y-95511904D01*
X33250000Y-95607142D01*
X33202380Y-95654761D01*
X33107142Y-95702380D01*
X32869047Y-95702380D01*
X32773809Y-95654761D01*
X32726190Y-95607142D01*
X30011904Y-91795000D02*
X30488095Y-91795000D01*
X30250000Y-93162380D02*
X30250000Y-92162380D01*
X30488095Y-91795000D02*
X31488095Y-91795000D01*
X31297619Y-93162380D02*
X30964285Y-92686190D01*
X30726190Y-93162380D02*
X30726190Y-92162380D01*
X31107142Y-92162380D01*
X31202380Y-92210000D01*
X31250000Y-92257619D01*
X31297619Y-92352857D01*
X31297619Y-92495714D01*
X31250000Y-92590952D01*
X31202380Y-92638571D01*
X31107142Y-92686190D01*
X30726190Y-92686190D01*
X31488095Y-91795000D02*
X32535714Y-91795000D01*
X32392857Y-93257619D02*
X32297619Y-93210000D01*
X32202380Y-93114761D01*
X32059523Y-92971904D01*
X31964285Y-92924285D01*
X31869047Y-92924285D01*
X31916666Y-93162380D02*
X31821428Y-93114761D01*
X31726190Y-93019523D01*
X31678571Y-92829047D01*
X31678571Y-92495714D01*
X31726190Y-92305238D01*
X31821428Y-92210000D01*
X31916666Y-92162380D01*
X32107142Y-92162380D01*
X32202380Y-92210000D01*
X32297619Y-92305238D01*
X32345238Y-92495714D01*
X32345238Y-92829047D01*
X32297619Y-93019523D01*
X32202380Y-93114761D01*
X32107142Y-93162380D01*
X31916666Y-93162380D01*
X32535714Y-91795000D02*
X33488095Y-91795000D01*
X33202380Y-92162380D02*
X33011904Y-92162380D01*
X32916666Y-92210000D01*
X32869047Y-92257619D01*
X32773809Y-92400476D01*
X32726190Y-92590952D01*
X32726190Y-92971904D01*
X32773809Y-93067142D01*
X32821428Y-93114761D01*
X32916666Y-93162380D01*
X33107142Y-93162380D01*
X33202380Y-93114761D01*
X33250000Y-93067142D01*
X33297619Y-92971904D01*
X33297619Y-92733809D01*
X33250000Y-92638571D01*
X33202380Y-92590952D01*
X33107142Y-92543333D01*
X32916666Y-92543333D01*
X32821428Y-92590952D01*
X32773809Y-92638571D01*
X32726190Y-92733809D01*
X30011904Y-89255000D02*
X30488095Y-89255000D01*
X30250000Y-90622380D02*
X30250000Y-89622380D01*
X30488095Y-89255000D02*
X31488095Y-89255000D01*
X31297619Y-90622380D02*
X30964285Y-90146190D01*
X30726190Y-90622380D02*
X30726190Y-89622380D01*
X31107142Y-89622380D01*
X31202380Y-89670000D01*
X31250000Y-89717619D01*
X31297619Y-89812857D01*
X31297619Y-89955714D01*
X31250000Y-90050952D01*
X31202380Y-90098571D01*
X31107142Y-90146190D01*
X30726190Y-90146190D01*
X31488095Y-89255000D02*
X32535714Y-89255000D01*
X32392857Y-90717619D02*
X32297619Y-90670000D01*
X32202380Y-90574761D01*
X32059523Y-90431904D01*
X31964285Y-90384285D01*
X31869047Y-90384285D01*
X31916666Y-90622380D02*
X31821428Y-90574761D01*
X31726190Y-90479523D01*
X31678571Y-90289047D01*
X31678571Y-89955714D01*
X31726190Y-89765238D01*
X31821428Y-89670000D01*
X31916666Y-89622380D01*
X32107142Y-89622380D01*
X32202380Y-89670000D01*
X32297619Y-89765238D01*
X32345238Y-89955714D01*
X32345238Y-90289047D01*
X32297619Y-90479523D01*
X32202380Y-90574761D01*
X32107142Y-90622380D01*
X31916666Y-90622380D01*
X32535714Y-89255000D02*
X33488095Y-89255000D01*
X32678571Y-89622380D02*
X33345238Y-89622380D01*
X32916666Y-90622380D01*
X45251904Y-107035000D02*
X45728095Y-107035000D01*
X45490000Y-108402380D02*
X45490000Y-107402380D01*
X45728095Y-107035000D02*
X46728095Y-107035000D01*
X46537619Y-108402380D02*
X46204285Y-107926190D01*
X45966190Y-108402380D02*
X45966190Y-107402380D01*
X46347142Y-107402380D01*
X46442380Y-107450000D01*
X46490000Y-107497619D01*
X46537619Y-107592857D01*
X46537619Y-107735714D01*
X46490000Y-107830952D01*
X46442380Y-107878571D01*
X46347142Y-107926190D01*
X45966190Y-107926190D01*
X46728095Y-107035000D02*
X47775714Y-107035000D01*
X47632857Y-108497619D02*
X47537619Y-108450000D01*
X47442380Y-108354761D01*
X47299523Y-108211904D01*
X47204285Y-108164285D01*
X47109047Y-108164285D01*
X47156666Y-108402380D02*
X47061428Y-108354761D01*
X46966190Y-108259523D01*
X46918571Y-108069047D01*
X46918571Y-107735714D01*
X46966190Y-107545238D01*
X47061428Y-107450000D01*
X47156666Y-107402380D01*
X47347142Y-107402380D01*
X47442380Y-107450000D01*
X47537619Y-107545238D01*
X47585238Y-107735714D01*
X47585238Y-108069047D01*
X47537619Y-108259523D01*
X47442380Y-108354761D01*
X47347142Y-108402380D01*
X47156666Y-108402380D01*
X47775714Y-107035000D02*
X48728095Y-107035000D01*
X48156666Y-107830952D02*
X48061428Y-107783333D01*
X48013809Y-107735714D01*
X47966190Y-107640476D01*
X47966190Y-107592857D01*
X48013809Y-107497619D01*
X48061428Y-107450000D01*
X48156666Y-107402380D01*
X48347142Y-107402380D01*
X48442380Y-107450000D01*
X48490000Y-107497619D01*
X48537619Y-107592857D01*
X48537619Y-107640476D01*
X48490000Y-107735714D01*
X48442380Y-107783333D01*
X48347142Y-107830952D01*
X48156666Y-107830952D01*
X48061428Y-107878571D01*
X48013809Y-107926190D01*
X47966190Y-108021428D01*
X47966190Y-108211904D01*
X48013809Y-108307142D01*
X48061428Y-108354761D01*
X48156666Y-108402380D01*
X48347142Y-108402380D01*
X48442380Y-108354761D01*
X48490000Y-108307142D01*
X48537619Y-108211904D01*
X48537619Y-108021428D01*
X48490000Y-107926190D01*
X48442380Y-107878571D01*
X48347142Y-107830952D01*
X45251904Y-104495000D02*
X45728095Y-104495000D01*
X45490000Y-105862380D02*
X45490000Y-104862380D01*
X45728095Y-104495000D02*
X46728095Y-104495000D01*
X46537619Y-105862380D02*
X46204285Y-105386190D01*
X45966190Y-105862380D02*
X45966190Y-104862380D01*
X46347142Y-104862380D01*
X46442380Y-104910000D01*
X46490000Y-104957619D01*
X46537619Y-105052857D01*
X46537619Y-105195714D01*
X46490000Y-105290952D01*
X46442380Y-105338571D01*
X46347142Y-105386190D01*
X45966190Y-105386190D01*
X46728095Y-104495000D02*
X47775714Y-104495000D01*
X47632857Y-105957619D02*
X47537619Y-105910000D01*
X47442380Y-105814761D01*
X47299523Y-105671904D01*
X47204285Y-105624285D01*
X47109047Y-105624285D01*
X47156666Y-105862380D02*
X47061428Y-105814761D01*
X46966190Y-105719523D01*
X46918571Y-105529047D01*
X46918571Y-105195714D01*
X46966190Y-105005238D01*
X47061428Y-104910000D01*
X47156666Y-104862380D01*
X47347142Y-104862380D01*
X47442380Y-104910000D01*
X47537619Y-105005238D01*
X47585238Y-105195714D01*
X47585238Y-105529047D01*
X47537619Y-105719523D01*
X47442380Y-105814761D01*
X47347142Y-105862380D01*
X47156666Y-105862380D01*
X47775714Y-104495000D02*
X48728095Y-104495000D01*
X48061428Y-105862380D02*
X48251904Y-105862380D01*
X48347142Y-105814761D01*
X48394761Y-105767142D01*
X48490000Y-105624285D01*
X48537619Y-105433809D01*
X48537619Y-105052857D01*
X48490000Y-104957619D01*
X48442380Y-104910000D01*
X48347142Y-104862380D01*
X48156666Y-104862380D01*
X48061428Y-104910000D01*
X48013809Y-104957619D01*
X47966190Y-105052857D01*
X47966190Y-105290952D01*
X48013809Y-105386190D01*
X48061428Y-105433809D01*
X48156666Y-105481428D01*
X48347142Y-105481428D01*
X48442380Y-105433809D01*
X48490000Y-105386190D01*
X48537619Y-105290952D01*
X44775714Y-101955000D02*
X45251904Y-101955000D01*
X45013809Y-103322380D02*
X45013809Y-102322380D01*
X45251904Y-101955000D02*
X46251904Y-101955000D01*
X46061428Y-103322380D02*
X45728095Y-102846190D01*
X45490000Y-103322380D02*
X45490000Y-102322380D01*
X45870952Y-102322380D01*
X45966190Y-102370000D01*
X46013809Y-102417619D01*
X46061428Y-102512857D01*
X46061428Y-102655714D01*
X46013809Y-102750952D01*
X45966190Y-102798571D01*
X45870952Y-102846190D01*
X45490000Y-102846190D01*
X46251904Y-101955000D02*
X47299523Y-101955000D01*
X47156666Y-103417619D02*
X47061428Y-103370000D01*
X46966190Y-103274761D01*
X46823333Y-103131904D01*
X46728095Y-103084285D01*
X46632857Y-103084285D01*
X46680476Y-103322380D02*
X46585238Y-103274761D01*
X46490000Y-103179523D01*
X46442380Y-102989047D01*
X46442380Y-102655714D01*
X46490000Y-102465238D01*
X46585238Y-102370000D01*
X46680476Y-102322380D01*
X46870952Y-102322380D01*
X46966190Y-102370000D01*
X47061428Y-102465238D01*
X47109047Y-102655714D01*
X47109047Y-102989047D01*
X47061428Y-103179523D01*
X46966190Y-103274761D01*
X46870952Y-103322380D01*
X46680476Y-103322380D01*
X47299523Y-101955000D02*
X48251904Y-101955000D01*
X48061428Y-103322380D02*
X47490000Y-103322380D01*
X47775714Y-103322380D02*
X47775714Y-102322380D01*
X47680476Y-102465238D01*
X47585238Y-102560476D01*
X47490000Y-102608095D01*
X48251904Y-101955000D02*
X49204285Y-101955000D01*
X48680476Y-102322380D02*
X48775714Y-102322380D01*
X48870952Y-102370000D01*
X48918571Y-102417619D01*
X48966190Y-102512857D01*
X49013809Y-102703333D01*
X49013809Y-102941428D01*
X48966190Y-103131904D01*
X48918571Y-103227142D01*
X48870952Y-103274761D01*
X48775714Y-103322380D01*
X48680476Y-103322380D01*
X48585238Y-103274761D01*
X48537619Y-103227142D01*
X48490000Y-103131904D01*
X48442380Y-102941428D01*
X48442380Y-102703333D01*
X48490000Y-102512857D01*
X48537619Y-102417619D01*
X48585238Y-102370000D01*
X48680476Y-102322380D01*
X44775714Y-99415000D02*
X45251904Y-99415000D01*
X45013809Y-100782380D02*
X45013809Y-99782380D01*
X45251904Y-99415000D02*
X46251904Y-99415000D01*
X46061428Y-100782380D02*
X45728095Y-100306190D01*
X45490000Y-100782380D02*
X45490000Y-99782380D01*
X45870952Y-99782380D01*
X45966190Y-99830000D01*
X46013809Y-99877619D01*
X46061428Y-99972857D01*
X46061428Y-100115714D01*
X46013809Y-100210952D01*
X45966190Y-100258571D01*
X45870952Y-100306190D01*
X45490000Y-100306190D01*
X46251904Y-99415000D02*
X47299523Y-99415000D01*
X47156666Y-100877619D02*
X47061428Y-100830000D01*
X46966190Y-100734761D01*
X46823333Y-100591904D01*
X46728095Y-100544285D01*
X46632857Y-100544285D01*
X46680476Y-100782380D02*
X46585238Y-100734761D01*
X46490000Y-100639523D01*
X46442380Y-100449047D01*
X46442380Y-100115714D01*
X46490000Y-99925238D01*
X46585238Y-99830000D01*
X46680476Y-99782380D01*
X46870952Y-99782380D01*
X46966190Y-99830000D01*
X47061428Y-99925238D01*
X47109047Y-100115714D01*
X47109047Y-100449047D01*
X47061428Y-100639523D01*
X46966190Y-100734761D01*
X46870952Y-100782380D01*
X46680476Y-100782380D01*
X47299523Y-99415000D02*
X48251904Y-99415000D01*
X48061428Y-100782380D02*
X47490000Y-100782380D01*
X47775714Y-100782380D02*
X47775714Y-99782380D01*
X47680476Y-99925238D01*
X47585238Y-100020476D01*
X47490000Y-100068095D01*
X48251904Y-99415000D02*
X49204285Y-99415000D01*
X49013809Y-100782380D02*
X48442380Y-100782380D01*
X48728095Y-100782380D02*
X48728095Y-99782380D01*
X48632857Y-99925238D01*
X48537619Y-100020476D01*
X48442380Y-100068095D01*
X44775714Y-96875000D02*
X45251904Y-96875000D01*
X45013809Y-98242380D02*
X45013809Y-97242380D01*
X45251904Y-96875000D02*
X46251904Y-96875000D01*
X46061428Y-98242380D02*
X45728095Y-97766190D01*
X45490000Y-98242380D02*
X45490000Y-97242380D01*
X45870952Y-97242380D01*
X45966190Y-97290000D01*
X46013809Y-97337619D01*
X46061428Y-97432857D01*
X46061428Y-97575714D01*
X46013809Y-97670952D01*
X45966190Y-97718571D01*
X45870952Y-97766190D01*
X45490000Y-97766190D01*
X46251904Y-96875000D02*
X47299523Y-96875000D01*
X47156666Y-98337619D02*
X47061428Y-98290000D01*
X46966190Y-98194761D01*
X46823333Y-98051904D01*
X46728095Y-98004285D01*
X46632857Y-98004285D01*
X46680476Y-98242380D02*
X46585238Y-98194761D01*
X46490000Y-98099523D01*
X46442380Y-97909047D01*
X46442380Y-97575714D01*
X46490000Y-97385238D01*
X46585238Y-97290000D01*
X46680476Y-97242380D01*
X46870952Y-97242380D01*
X46966190Y-97290000D01*
X47061428Y-97385238D01*
X47109047Y-97575714D01*
X47109047Y-97909047D01*
X47061428Y-98099523D01*
X46966190Y-98194761D01*
X46870952Y-98242380D01*
X46680476Y-98242380D01*
X47299523Y-96875000D02*
X48251904Y-96875000D01*
X48061428Y-98242380D02*
X47490000Y-98242380D01*
X47775714Y-98242380D02*
X47775714Y-97242380D01*
X47680476Y-97385238D01*
X47585238Y-97480476D01*
X47490000Y-97528095D01*
X48251904Y-96875000D02*
X49204285Y-96875000D01*
X48442380Y-97337619D02*
X48490000Y-97290000D01*
X48585238Y-97242380D01*
X48823333Y-97242380D01*
X48918571Y-97290000D01*
X48966190Y-97337619D01*
X49013809Y-97432857D01*
X49013809Y-97528095D01*
X48966190Y-97670952D01*
X48394761Y-98242380D01*
X49013809Y-98242380D01*
X44775714Y-94335000D02*
X45251904Y-94335000D01*
X45013809Y-95702380D02*
X45013809Y-94702380D01*
X45251904Y-94335000D02*
X46251904Y-94335000D01*
X46061428Y-95702380D02*
X45728095Y-95226190D01*
X45490000Y-95702380D02*
X45490000Y-94702380D01*
X45870952Y-94702380D01*
X45966190Y-94750000D01*
X46013809Y-94797619D01*
X46061428Y-94892857D01*
X46061428Y-95035714D01*
X46013809Y-95130952D01*
X45966190Y-95178571D01*
X45870952Y-95226190D01*
X45490000Y-95226190D01*
X46251904Y-94335000D02*
X47299523Y-94335000D01*
X47156666Y-95797619D02*
X47061428Y-95750000D01*
X46966190Y-95654761D01*
X46823333Y-95511904D01*
X46728095Y-95464285D01*
X46632857Y-95464285D01*
X46680476Y-95702380D02*
X46585238Y-95654761D01*
X46490000Y-95559523D01*
X46442380Y-95369047D01*
X46442380Y-95035714D01*
X46490000Y-94845238D01*
X46585238Y-94750000D01*
X46680476Y-94702380D01*
X46870952Y-94702380D01*
X46966190Y-94750000D01*
X47061428Y-94845238D01*
X47109047Y-95035714D01*
X47109047Y-95369047D01*
X47061428Y-95559523D01*
X46966190Y-95654761D01*
X46870952Y-95702380D01*
X46680476Y-95702380D01*
X47299523Y-94335000D02*
X48251904Y-94335000D01*
X48061428Y-95702380D02*
X47490000Y-95702380D01*
X47775714Y-95702380D02*
X47775714Y-94702380D01*
X47680476Y-94845238D01*
X47585238Y-94940476D01*
X47490000Y-94988095D01*
X48251904Y-94335000D02*
X49204285Y-94335000D01*
X48394761Y-94702380D02*
X49013809Y-94702380D01*
X48680476Y-95083333D01*
X48823333Y-95083333D01*
X48918571Y-95130952D01*
X48966190Y-95178571D01*
X49013809Y-95273809D01*
X49013809Y-95511904D01*
X48966190Y-95607142D01*
X48918571Y-95654761D01*
X48823333Y-95702380D01*
X48537619Y-95702380D01*
X48442380Y-95654761D01*
X48394761Y-95607142D01*
X44775714Y-91795000D02*
X45251904Y-91795000D01*
X45013809Y-93162380D02*
X45013809Y-92162380D01*
X45251904Y-91795000D02*
X46251904Y-91795000D01*
X46061428Y-93162380D02*
X45728095Y-92686190D01*
X45490000Y-93162380D02*
X45490000Y-92162380D01*
X45870952Y-92162380D01*
X45966190Y-92210000D01*
X46013809Y-92257619D01*
X46061428Y-92352857D01*
X46061428Y-92495714D01*
X46013809Y-92590952D01*
X45966190Y-92638571D01*
X45870952Y-92686190D01*
X45490000Y-92686190D01*
X46251904Y-91795000D02*
X47299523Y-91795000D01*
X47156666Y-93257619D02*
X47061428Y-93210000D01*
X46966190Y-93114761D01*
X46823333Y-92971904D01*
X46728095Y-92924285D01*
X46632857Y-92924285D01*
X46680476Y-93162380D02*
X46585238Y-93114761D01*
X46490000Y-93019523D01*
X46442380Y-92829047D01*
X46442380Y-92495714D01*
X46490000Y-92305238D01*
X46585238Y-92210000D01*
X46680476Y-92162380D01*
X46870952Y-92162380D01*
X46966190Y-92210000D01*
X47061428Y-92305238D01*
X47109047Y-92495714D01*
X47109047Y-92829047D01*
X47061428Y-93019523D01*
X46966190Y-93114761D01*
X46870952Y-93162380D01*
X46680476Y-93162380D01*
X47299523Y-91795000D02*
X48251904Y-91795000D01*
X48061428Y-93162380D02*
X47490000Y-93162380D01*
X47775714Y-93162380D02*
X47775714Y-92162380D01*
X47680476Y-92305238D01*
X47585238Y-92400476D01*
X47490000Y-92448095D01*
X48251904Y-91795000D02*
X49204285Y-91795000D01*
X48918571Y-92495714D02*
X48918571Y-93162380D01*
X48680476Y-92114761D02*
X48442380Y-92829047D01*
X49061428Y-92829047D01*
X45847142Y-89255000D02*
X46323333Y-89255000D01*
X46085238Y-90622380D02*
X46085238Y-89622380D01*
X46323333Y-89255000D02*
X47370952Y-89255000D01*
X46561428Y-90622380D02*
X46561428Y-89622380D01*
X47132857Y-90622380D01*
X47132857Y-89622380D01*
X47370952Y-89255000D02*
X48132857Y-89255000D01*
X47466190Y-89622380D02*
X48037619Y-89622380D01*
X47751904Y-90622380D02*
X47751904Y-89622380D01*
X60325238Y-107035000D02*
X61325238Y-107035000D01*
X60563333Y-108402380D02*
X60563333Y-107402380D01*
X60801428Y-107402380D01*
X60944285Y-107450000D01*
X61039523Y-107545238D01*
X61087142Y-107640476D01*
X61134761Y-107830952D01*
X61134761Y-107973809D01*
X61087142Y-108164285D01*
X61039523Y-108259523D01*
X60944285Y-108354761D01*
X60801428Y-108402380D01*
X60563333Y-108402380D01*
X61325238Y-107035000D02*
X62182380Y-107035000D01*
X61515714Y-108116666D02*
X61991904Y-108116666D01*
X61420476Y-108402380D02*
X61753809Y-107402380D01*
X62087142Y-108402380D01*
X62182380Y-107035000D02*
X63182380Y-107035000D01*
X62420476Y-108402380D02*
X62420476Y-107402380D01*
X62991904Y-108402380D02*
X62563333Y-107830952D01*
X62991904Y-107402380D02*
X62420476Y-107973809D01*
X63182380Y-107035000D02*
X64134761Y-107035000D01*
X63610952Y-107402380D02*
X63706190Y-107402380D01*
X63801428Y-107450000D01*
X63849047Y-107497619D01*
X63896666Y-107592857D01*
X63944285Y-107783333D01*
X63944285Y-108021428D01*
X63896666Y-108211904D01*
X63849047Y-108307142D01*
X63801428Y-108354761D01*
X63706190Y-108402380D01*
X63610952Y-108402380D01*
X63515714Y-108354761D01*
X63468095Y-108307142D01*
X63420476Y-108211904D01*
X63372857Y-108021428D01*
X63372857Y-107783333D01*
X63420476Y-107592857D01*
X63468095Y-107497619D01*
X63515714Y-107450000D01*
X63610952Y-107402380D01*
X60230000Y-104495000D02*
X61230000Y-104495000D01*
X60468095Y-105862380D02*
X60468095Y-104862380D01*
X60706190Y-104862380D01*
X60849047Y-104910000D01*
X60944285Y-105005238D01*
X60991904Y-105100476D01*
X61039523Y-105290952D01*
X61039523Y-105433809D01*
X60991904Y-105624285D01*
X60944285Y-105719523D01*
X60849047Y-105814761D01*
X60706190Y-105862380D01*
X60468095Y-105862380D01*
X61230000Y-104495000D02*
X62230000Y-104495000D01*
X62039523Y-105862380D02*
X61706190Y-105386190D01*
X61468095Y-105862380D02*
X61468095Y-104862380D01*
X61849047Y-104862380D01*
X61944285Y-104910000D01*
X61991904Y-104957619D01*
X62039523Y-105052857D01*
X62039523Y-105195714D01*
X61991904Y-105290952D01*
X61944285Y-105338571D01*
X61849047Y-105386190D01*
X61468095Y-105386190D01*
X62230000Y-104495000D02*
X63277619Y-104495000D01*
X63134761Y-105957619D02*
X63039523Y-105910000D01*
X62944285Y-105814761D01*
X62801428Y-105671904D01*
X62706190Y-105624285D01*
X62610952Y-105624285D01*
X62658571Y-105862380D02*
X62563333Y-105814761D01*
X62468095Y-105719523D01*
X62420476Y-105529047D01*
X62420476Y-105195714D01*
X62468095Y-105005238D01*
X62563333Y-104910000D01*
X62658571Y-104862380D01*
X62849047Y-104862380D01*
X62944285Y-104910000D01*
X63039523Y-105005238D01*
X63087142Y-105195714D01*
X63087142Y-105529047D01*
X63039523Y-105719523D01*
X62944285Y-105814761D01*
X62849047Y-105862380D01*
X62658571Y-105862380D01*
X63277619Y-104495000D02*
X64230000Y-104495000D01*
X63706190Y-104862380D02*
X63801428Y-104862380D01*
X63896666Y-104910000D01*
X63944285Y-104957619D01*
X63991904Y-105052857D01*
X64039523Y-105243333D01*
X64039523Y-105481428D01*
X63991904Y-105671904D01*
X63944285Y-105767142D01*
X63896666Y-105814761D01*
X63801428Y-105862380D01*
X63706190Y-105862380D01*
X63610952Y-105814761D01*
X63563333Y-105767142D01*
X63515714Y-105671904D01*
X63468095Y-105481428D01*
X63468095Y-105243333D01*
X63515714Y-105052857D01*
X63563333Y-104957619D01*
X63610952Y-104910000D01*
X63706190Y-104862380D01*
X60325238Y-101955000D02*
X61325238Y-101955000D01*
X60563333Y-103322380D02*
X60563333Y-102322380D01*
X60801428Y-102322380D01*
X60944285Y-102370000D01*
X61039523Y-102465238D01*
X61087142Y-102560476D01*
X61134761Y-102750952D01*
X61134761Y-102893809D01*
X61087142Y-103084285D01*
X61039523Y-103179523D01*
X60944285Y-103274761D01*
X60801428Y-103322380D01*
X60563333Y-103322380D01*
X61325238Y-101955000D02*
X62182380Y-101955000D01*
X61515714Y-103036666D02*
X61991904Y-103036666D01*
X61420476Y-103322380D02*
X61753809Y-102322380D01*
X62087142Y-103322380D01*
X62182380Y-101955000D02*
X63182380Y-101955000D01*
X62420476Y-103322380D02*
X62420476Y-102322380D01*
X62991904Y-103322380D02*
X62563333Y-102750952D01*
X62991904Y-102322380D02*
X62420476Y-102893809D01*
X63182380Y-101955000D02*
X64134761Y-101955000D01*
X63944285Y-103322380D02*
X63372857Y-103322380D01*
X63658571Y-103322380D02*
X63658571Y-102322380D01*
X63563333Y-102465238D01*
X63468095Y-102560476D01*
X63372857Y-102608095D01*
X60230000Y-99415000D02*
X61230000Y-99415000D01*
X60468095Y-100782380D02*
X60468095Y-99782380D01*
X60706190Y-99782380D01*
X60849047Y-99830000D01*
X60944285Y-99925238D01*
X60991904Y-100020476D01*
X61039523Y-100210952D01*
X61039523Y-100353809D01*
X60991904Y-100544285D01*
X60944285Y-100639523D01*
X60849047Y-100734761D01*
X60706190Y-100782380D01*
X60468095Y-100782380D01*
X61230000Y-99415000D02*
X62230000Y-99415000D01*
X62039523Y-100782380D02*
X61706190Y-100306190D01*
X61468095Y-100782380D02*
X61468095Y-99782380D01*
X61849047Y-99782380D01*
X61944285Y-99830000D01*
X61991904Y-99877619D01*
X62039523Y-99972857D01*
X62039523Y-100115714D01*
X61991904Y-100210952D01*
X61944285Y-100258571D01*
X61849047Y-100306190D01*
X61468095Y-100306190D01*
X62230000Y-99415000D02*
X63277619Y-99415000D01*
X63134761Y-100877619D02*
X63039523Y-100830000D01*
X62944285Y-100734761D01*
X62801428Y-100591904D01*
X62706190Y-100544285D01*
X62610952Y-100544285D01*
X62658571Y-100782380D02*
X62563333Y-100734761D01*
X62468095Y-100639523D01*
X62420476Y-100449047D01*
X62420476Y-100115714D01*
X62468095Y-99925238D01*
X62563333Y-99830000D01*
X62658571Y-99782380D01*
X62849047Y-99782380D01*
X62944285Y-99830000D01*
X63039523Y-99925238D01*
X63087142Y-100115714D01*
X63087142Y-100449047D01*
X63039523Y-100639523D01*
X62944285Y-100734761D01*
X62849047Y-100782380D01*
X62658571Y-100782380D01*
X63277619Y-99415000D02*
X64230000Y-99415000D01*
X64039523Y-100782380D02*
X63468095Y-100782380D01*
X63753809Y-100782380D02*
X63753809Y-99782380D01*
X63658571Y-99925238D01*
X63563333Y-100020476D01*
X63468095Y-100068095D01*
X60325238Y-96875000D02*
X61325238Y-96875000D01*
X60563333Y-98242380D02*
X60563333Y-97242380D01*
X60801428Y-97242380D01*
X60944285Y-97290000D01*
X61039523Y-97385238D01*
X61087142Y-97480476D01*
X61134761Y-97670952D01*
X61134761Y-97813809D01*
X61087142Y-98004285D01*
X61039523Y-98099523D01*
X60944285Y-98194761D01*
X60801428Y-98242380D01*
X60563333Y-98242380D01*
X61325238Y-96875000D02*
X62182380Y-96875000D01*
X61515714Y-97956666D02*
X61991904Y-97956666D01*
X61420476Y-98242380D02*
X61753809Y-97242380D01*
X62087142Y-98242380D01*
X62182380Y-96875000D02*
X63182380Y-96875000D01*
X62420476Y-98242380D02*
X62420476Y-97242380D01*
X62991904Y-98242380D02*
X62563333Y-97670952D01*
X62991904Y-97242380D02*
X62420476Y-97813809D01*
X63182380Y-96875000D02*
X64134761Y-96875000D01*
X63372857Y-97337619D02*
X63420476Y-97290000D01*
X63515714Y-97242380D01*
X63753809Y-97242380D01*
X63849047Y-97290000D01*
X63896666Y-97337619D01*
X63944285Y-97432857D01*
X63944285Y-97528095D01*
X63896666Y-97670952D01*
X63325238Y-98242380D01*
X63944285Y-98242380D01*
X60230000Y-94335000D02*
X61230000Y-94335000D01*
X60468095Y-95702380D02*
X60468095Y-94702380D01*
X60706190Y-94702380D01*
X60849047Y-94750000D01*
X60944285Y-94845238D01*
X60991904Y-94940476D01*
X61039523Y-95130952D01*
X61039523Y-95273809D01*
X60991904Y-95464285D01*
X60944285Y-95559523D01*
X60849047Y-95654761D01*
X60706190Y-95702380D01*
X60468095Y-95702380D01*
X61230000Y-94335000D02*
X62230000Y-94335000D01*
X62039523Y-95702380D02*
X61706190Y-95226190D01*
X61468095Y-95702380D02*
X61468095Y-94702380D01*
X61849047Y-94702380D01*
X61944285Y-94750000D01*
X61991904Y-94797619D01*
X62039523Y-94892857D01*
X62039523Y-95035714D01*
X61991904Y-95130952D01*
X61944285Y-95178571D01*
X61849047Y-95226190D01*
X61468095Y-95226190D01*
X62230000Y-94335000D02*
X63277619Y-94335000D01*
X63134761Y-95797619D02*
X63039523Y-95750000D01*
X62944285Y-95654761D01*
X62801428Y-95511904D01*
X62706190Y-95464285D01*
X62610952Y-95464285D01*
X62658571Y-95702380D02*
X62563333Y-95654761D01*
X62468095Y-95559523D01*
X62420476Y-95369047D01*
X62420476Y-95035714D01*
X62468095Y-94845238D01*
X62563333Y-94750000D01*
X62658571Y-94702380D01*
X62849047Y-94702380D01*
X62944285Y-94750000D01*
X63039523Y-94845238D01*
X63087142Y-95035714D01*
X63087142Y-95369047D01*
X63039523Y-95559523D01*
X62944285Y-95654761D01*
X62849047Y-95702380D01*
X62658571Y-95702380D01*
X63277619Y-94335000D02*
X64230000Y-94335000D01*
X63468095Y-94797619D02*
X63515714Y-94750000D01*
X63610952Y-94702380D01*
X63849047Y-94702380D01*
X63944285Y-94750000D01*
X63991904Y-94797619D01*
X64039523Y-94892857D01*
X64039523Y-94988095D01*
X63991904Y-95130952D01*
X63420476Y-95702380D01*
X64039523Y-95702380D01*
X60325238Y-91795000D02*
X61325238Y-91795000D01*
X60563333Y-93162380D02*
X60563333Y-92162380D01*
X60801428Y-92162380D01*
X60944285Y-92210000D01*
X61039523Y-92305238D01*
X61087142Y-92400476D01*
X61134761Y-92590952D01*
X61134761Y-92733809D01*
X61087142Y-92924285D01*
X61039523Y-93019523D01*
X60944285Y-93114761D01*
X60801428Y-93162380D01*
X60563333Y-93162380D01*
X61325238Y-91795000D02*
X62182380Y-91795000D01*
X61515714Y-92876666D02*
X61991904Y-92876666D01*
X61420476Y-93162380D02*
X61753809Y-92162380D01*
X62087142Y-93162380D01*
X62182380Y-91795000D02*
X63182380Y-91795000D01*
X62420476Y-93162380D02*
X62420476Y-92162380D01*
X62991904Y-93162380D02*
X62563333Y-92590952D01*
X62991904Y-92162380D02*
X62420476Y-92733809D01*
X63182380Y-91795000D02*
X64134761Y-91795000D01*
X63325238Y-92162380D02*
X63944285Y-92162380D01*
X63610952Y-92543333D01*
X63753809Y-92543333D01*
X63849047Y-92590952D01*
X63896666Y-92638571D01*
X63944285Y-92733809D01*
X63944285Y-92971904D01*
X63896666Y-93067142D01*
X63849047Y-93114761D01*
X63753809Y-93162380D01*
X63468095Y-93162380D01*
X63372857Y-93114761D01*
X63325238Y-93067142D01*
X60230000Y-89255000D02*
X61230000Y-89255000D01*
X60468095Y-90622380D02*
X60468095Y-89622380D01*
X60706190Y-89622380D01*
X60849047Y-89670000D01*
X60944285Y-89765238D01*
X60991904Y-89860476D01*
X61039523Y-90050952D01*
X61039523Y-90193809D01*
X60991904Y-90384285D01*
X60944285Y-90479523D01*
X60849047Y-90574761D01*
X60706190Y-90622380D01*
X60468095Y-90622380D01*
X61230000Y-89255000D02*
X62230000Y-89255000D01*
X62039523Y-90622380D02*
X61706190Y-90146190D01*
X61468095Y-90622380D02*
X61468095Y-89622380D01*
X61849047Y-89622380D01*
X61944285Y-89670000D01*
X61991904Y-89717619D01*
X62039523Y-89812857D01*
X62039523Y-89955714D01*
X61991904Y-90050952D01*
X61944285Y-90098571D01*
X61849047Y-90146190D01*
X61468095Y-90146190D01*
X62230000Y-89255000D02*
X63277619Y-89255000D01*
X63134761Y-90717619D02*
X63039523Y-90670000D01*
X62944285Y-90574761D01*
X62801428Y-90431904D01*
X62706190Y-90384285D01*
X62610952Y-90384285D01*
X62658571Y-90622380D02*
X62563333Y-90574761D01*
X62468095Y-90479523D01*
X62420476Y-90289047D01*
X62420476Y-89955714D01*
X62468095Y-89765238D01*
X62563333Y-89670000D01*
X62658571Y-89622380D01*
X62849047Y-89622380D01*
X62944285Y-89670000D01*
X63039523Y-89765238D01*
X63087142Y-89955714D01*
X63087142Y-90289047D01*
X63039523Y-90479523D01*
X62944285Y-90574761D01*
X62849047Y-90622380D01*
X62658571Y-90622380D01*
X63277619Y-89255000D02*
X64230000Y-89255000D01*
X63420476Y-89622380D02*
X64039523Y-89622380D01*
X63706190Y-90003333D01*
X63849047Y-90003333D01*
X63944285Y-90050952D01*
X63991904Y-90098571D01*
X64039523Y-90193809D01*
X64039523Y-90431904D01*
X63991904Y-90527142D01*
X63944285Y-90574761D01*
X63849047Y-90622380D01*
X63563333Y-90622380D01*
X63468095Y-90574761D01*
X63420476Y-90527142D01*
X76755714Y-108116666D02*
X77231904Y-108116666D01*
X76660476Y-108402380D02*
X76993809Y-107402380D01*
X77327142Y-108402380D01*
X77850952Y-107402380D02*
X77946190Y-107402380D01*
X78041428Y-107450000D01*
X78089047Y-107497619D01*
X78136666Y-107592857D01*
X78184285Y-107783333D01*
X78184285Y-108021428D01*
X78136666Y-108211904D01*
X78089047Y-108307142D01*
X78041428Y-108354761D01*
X77946190Y-108402380D01*
X77850952Y-108402380D01*
X77755714Y-108354761D01*
X77708095Y-108307142D01*
X77660476Y-108211904D01*
X77612857Y-108021428D01*
X77612857Y-107783333D01*
X77660476Y-107592857D01*
X77708095Y-107497619D01*
X77755714Y-107450000D01*
X77850952Y-107402380D01*
X76755714Y-105576666D02*
X77231904Y-105576666D01*
X76660476Y-105862380D02*
X76993809Y-104862380D01*
X77327142Y-105862380D01*
X78184285Y-105862380D02*
X77612857Y-105862380D01*
X77898571Y-105862380D02*
X77898571Y-104862380D01*
X77803333Y-105005238D01*
X77708095Y-105100476D01*
X77612857Y-105148095D01*
X76755714Y-103036666D02*
X77231904Y-103036666D01*
X76660476Y-103322380D02*
X76993809Y-102322380D01*
X77327142Y-103322380D01*
X77612857Y-102417619D02*
X77660476Y-102370000D01*
X77755714Y-102322380D01*
X77993809Y-102322380D01*
X78089047Y-102370000D01*
X78136666Y-102417619D01*
X78184285Y-102512857D01*
X78184285Y-102608095D01*
X78136666Y-102750952D01*
X77565238Y-103322380D01*
X78184285Y-103322380D01*
X76755714Y-100496666D02*
X77231904Y-100496666D01*
X76660476Y-100782380D02*
X76993809Y-99782380D01*
X77327142Y-100782380D01*
X77565238Y-99782380D02*
X78184285Y-99782380D01*
X77850952Y-100163333D01*
X77993809Y-100163333D01*
X78089047Y-100210952D01*
X78136666Y-100258571D01*
X78184285Y-100353809D01*
X78184285Y-100591904D01*
X78136666Y-100687142D01*
X78089047Y-100734761D01*
X77993809Y-100782380D01*
X77708095Y-100782380D01*
X77612857Y-100734761D01*
X77565238Y-100687142D01*
X76755714Y-97956666D02*
X77231904Y-97956666D01*
X76660476Y-98242380D02*
X76993809Y-97242380D01*
X77327142Y-98242380D01*
X78089047Y-97575714D02*
X78089047Y-98242380D01*
X77850952Y-97194761D02*
X77612857Y-97909047D01*
X78231904Y-97909047D01*
X76755714Y-95416666D02*
X77231904Y-95416666D01*
X76660476Y-95702380D02*
X76993809Y-94702380D01*
X77327142Y-95702380D01*
X78136666Y-94702380D02*
X77660476Y-94702380D01*
X77612857Y-95178571D01*
X77660476Y-95130952D01*
X77755714Y-95083333D01*
X77993809Y-95083333D01*
X78089047Y-95130952D01*
X78136666Y-95178571D01*
X78184285Y-95273809D01*
X78184285Y-95511904D01*
X78136666Y-95607142D01*
X78089047Y-95654761D01*
X77993809Y-95702380D01*
X77755714Y-95702380D01*
X77660476Y-95654761D01*
X77612857Y-95607142D01*
X76755714Y-92876666D02*
X77231904Y-92876666D01*
X76660476Y-93162380D02*
X76993809Y-92162380D01*
X77327142Y-93162380D01*
X78089047Y-92162380D02*
X77898571Y-92162380D01*
X77803333Y-92210000D01*
X77755714Y-92257619D01*
X77660476Y-92400476D01*
X77612857Y-92590952D01*
X77612857Y-92971904D01*
X77660476Y-93067142D01*
X77708095Y-93114761D01*
X77803333Y-93162380D01*
X77993809Y-93162380D01*
X78089047Y-93114761D01*
X78136666Y-93067142D01*
X78184285Y-92971904D01*
X78184285Y-92733809D01*
X78136666Y-92638571D01*
X78089047Y-92590952D01*
X77993809Y-92543333D01*
X77803333Y-92543333D01*
X77708095Y-92590952D01*
X77660476Y-92638571D01*
X77612857Y-92733809D01*
X76755714Y-90336666D02*
X77231904Y-90336666D01*
X76660476Y-90622380D02*
X76993809Y-89622380D01*
X77327142Y-90622380D01*
X77565238Y-89622380D02*
X78231904Y-89622380D01*
X77803333Y-90622380D01*
X91995714Y-108116666D02*
X92471904Y-108116666D01*
X91900476Y-108402380D02*
X92233809Y-107402380D01*
X92567142Y-108402380D01*
X93043333Y-107830952D02*
X92948095Y-107783333D01*
X92900476Y-107735714D01*
X92852857Y-107640476D01*
X92852857Y-107592857D01*
X92900476Y-107497619D01*
X92948095Y-107450000D01*
X93043333Y-107402380D01*
X93233809Y-107402380D01*
X93329047Y-107450000D01*
X93376666Y-107497619D01*
X93424285Y-107592857D01*
X93424285Y-107640476D01*
X93376666Y-107735714D01*
X93329047Y-107783333D01*
X93233809Y-107830952D01*
X93043333Y-107830952D01*
X92948095Y-107878571D01*
X92900476Y-107926190D01*
X92852857Y-108021428D01*
X92852857Y-108211904D01*
X92900476Y-108307142D01*
X92948095Y-108354761D01*
X93043333Y-108402380D01*
X93233809Y-108402380D01*
X93329047Y-108354761D01*
X93376666Y-108307142D01*
X93424285Y-108211904D01*
X93424285Y-108021428D01*
X93376666Y-107926190D01*
X93329047Y-107878571D01*
X93233809Y-107830952D01*
X91995714Y-105576666D02*
X92471904Y-105576666D01*
X91900476Y-105862380D02*
X92233809Y-104862380D01*
X92567142Y-105862380D01*
X92948095Y-105862380D02*
X93138571Y-105862380D01*
X93233809Y-105814761D01*
X93281428Y-105767142D01*
X93376666Y-105624285D01*
X93424285Y-105433809D01*
X93424285Y-105052857D01*
X93376666Y-104957619D01*
X93329047Y-104910000D01*
X93233809Y-104862380D01*
X93043333Y-104862380D01*
X92948095Y-104910000D01*
X92900476Y-104957619D01*
X92852857Y-105052857D01*
X92852857Y-105290952D01*
X92900476Y-105386190D01*
X92948095Y-105433809D01*
X93043333Y-105481428D01*
X93233809Y-105481428D01*
X93329047Y-105433809D01*
X93376666Y-105386190D01*
X93424285Y-105290952D01*
X91519523Y-103036666D02*
X91995714Y-103036666D01*
X91424285Y-103322380D02*
X91757619Y-102322380D01*
X92090952Y-103322380D01*
X92948095Y-103322380D02*
X92376666Y-103322380D01*
X92662380Y-103322380D02*
X92662380Y-102322380D01*
X92567142Y-102465238D01*
X92471904Y-102560476D01*
X92376666Y-102608095D01*
X93567142Y-102322380D02*
X93662380Y-102322380D01*
X93757619Y-102370000D01*
X93805238Y-102417619D01*
X93852857Y-102512857D01*
X93900476Y-102703333D01*
X93900476Y-102941428D01*
X93852857Y-103131904D01*
X93805238Y-103227142D01*
X93757619Y-103274761D01*
X93662380Y-103322380D01*
X93567142Y-103322380D01*
X93471904Y-103274761D01*
X93424285Y-103227142D01*
X93376666Y-103131904D01*
X93329047Y-102941428D01*
X93329047Y-102703333D01*
X93376666Y-102512857D01*
X93424285Y-102417619D01*
X93471904Y-102370000D01*
X93567142Y-102322380D01*
X91519523Y-100496666D02*
X91995714Y-100496666D01*
X91424285Y-100782380D02*
X91757619Y-99782380D01*
X92090952Y-100782380D01*
X92948095Y-100782380D02*
X92376666Y-100782380D01*
X92662380Y-100782380D02*
X92662380Y-99782380D01*
X92567142Y-99925238D01*
X92471904Y-100020476D01*
X92376666Y-100068095D01*
X93900476Y-100782380D02*
X93329047Y-100782380D01*
X93614761Y-100782380D02*
X93614761Y-99782380D01*
X93519523Y-99925238D01*
X93424285Y-100020476D01*
X93329047Y-100068095D01*
X91519523Y-97956666D02*
X91995714Y-97956666D01*
X91424285Y-98242380D02*
X91757619Y-97242380D01*
X92090952Y-98242380D01*
X92948095Y-98242380D02*
X92376666Y-98242380D01*
X92662380Y-98242380D02*
X92662380Y-97242380D01*
X92567142Y-97385238D01*
X92471904Y-97480476D01*
X92376666Y-97528095D01*
X93329047Y-97337619D02*
X93376666Y-97290000D01*
X93471904Y-97242380D01*
X93710000Y-97242380D01*
X93805238Y-97290000D01*
X93852857Y-97337619D01*
X93900476Y-97432857D01*
X93900476Y-97528095D01*
X93852857Y-97670952D01*
X93281428Y-98242380D01*
X93900476Y-98242380D01*
X91519523Y-95416666D02*
X91995714Y-95416666D01*
X91424285Y-95702380D02*
X91757619Y-94702380D01*
X92090952Y-95702380D01*
X92948095Y-95702380D02*
X92376666Y-95702380D01*
X92662380Y-95702380D02*
X92662380Y-94702380D01*
X92567142Y-94845238D01*
X92471904Y-94940476D01*
X92376666Y-94988095D01*
X93281428Y-94702380D02*
X93900476Y-94702380D01*
X93567142Y-95083333D01*
X93710000Y-95083333D01*
X93805238Y-95130952D01*
X93852857Y-95178571D01*
X93900476Y-95273809D01*
X93900476Y-95511904D01*
X93852857Y-95607142D01*
X93805238Y-95654761D01*
X93710000Y-95702380D01*
X93424285Y-95702380D01*
X93329047Y-95654761D01*
X93281428Y-95607142D01*
X91519523Y-92876666D02*
X91995714Y-92876666D01*
X91424285Y-93162380D02*
X91757619Y-92162380D01*
X92090952Y-93162380D01*
X92948095Y-93162380D02*
X92376666Y-93162380D01*
X92662380Y-93162380D02*
X92662380Y-92162380D01*
X92567142Y-92305238D01*
X92471904Y-92400476D01*
X92376666Y-92448095D01*
X93805238Y-92495714D02*
X93805238Y-93162380D01*
X93567142Y-92114761D02*
X93329047Y-92829047D01*
X93948095Y-92829047D01*
X91519523Y-90336666D02*
X91995714Y-90336666D01*
X91424285Y-90622380D02*
X91757619Y-89622380D01*
X92090952Y-90622380D01*
X92948095Y-90622380D02*
X92376666Y-90622380D01*
X92662380Y-90622380D02*
X92662380Y-89622380D01*
X92567142Y-89765238D01*
X92471904Y-89860476D01*
X92376666Y-89908095D01*
X93852857Y-89622380D02*
X93376666Y-89622380D01*
X93329047Y-90098571D01*
X93376666Y-90050952D01*
X93471904Y-90003333D01*
X93710000Y-90003333D01*
X93805238Y-90050952D01*
X93852857Y-90098571D01*
X93900476Y-90193809D01*
X93900476Y-90431904D01*
X93852857Y-90527142D01*
X93805238Y-90574761D01*
X93710000Y-90622380D01*
X93471904Y-90622380D01*
X93376666Y-90574761D01*
X93329047Y-90527142D01*
X106759523Y-108116666D02*
X107235714Y-108116666D01*
X106664285Y-108402380D02*
X106997619Y-107402380D01*
X107330952Y-108402380D01*
X108188095Y-108402380D02*
X107616666Y-108402380D01*
X107902380Y-108402380D02*
X107902380Y-107402380D01*
X107807142Y-107545238D01*
X107711904Y-107640476D01*
X107616666Y-107688095D01*
X109045238Y-107402380D02*
X108854761Y-107402380D01*
X108759523Y-107450000D01*
X108711904Y-107497619D01*
X108616666Y-107640476D01*
X108569047Y-107830952D01*
X108569047Y-108211904D01*
X108616666Y-108307142D01*
X108664285Y-108354761D01*
X108759523Y-108402380D01*
X108950000Y-108402380D01*
X109045238Y-108354761D01*
X109092857Y-108307142D01*
X109140476Y-108211904D01*
X109140476Y-107973809D01*
X109092857Y-107878571D01*
X109045238Y-107830952D01*
X108950000Y-107783333D01*
X108759523Y-107783333D01*
X108664285Y-107830952D01*
X108616666Y-107878571D01*
X108569047Y-107973809D01*
X106759523Y-105576666D02*
X107235714Y-105576666D01*
X106664285Y-105862380D02*
X106997619Y-104862380D01*
X107330952Y-105862380D01*
X108188095Y-105862380D02*
X107616666Y-105862380D01*
X107902380Y-105862380D02*
X107902380Y-104862380D01*
X107807142Y-105005238D01*
X107711904Y-105100476D01*
X107616666Y-105148095D01*
X108521428Y-104862380D02*
X109188095Y-104862380D01*
X108759523Y-105862380D01*
X106759523Y-103036666D02*
X107235714Y-103036666D01*
X106664285Y-103322380D02*
X106997619Y-102322380D01*
X107330952Y-103322380D01*
X108188095Y-103322380D02*
X107616666Y-103322380D01*
X107902380Y-103322380D02*
X107902380Y-102322380D01*
X107807142Y-102465238D01*
X107711904Y-102560476D01*
X107616666Y-102608095D01*
X108759523Y-102750952D02*
X108664285Y-102703333D01*
X108616666Y-102655714D01*
X108569047Y-102560476D01*
X108569047Y-102512857D01*
X108616666Y-102417619D01*
X108664285Y-102370000D01*
X108759523Y-102322380D01*
X108950000Y-102322380D01*
X109045238Y-102370000D01*
X109092857Y-102417619D01*
X109140476Y-102512857D01*
X109140476Y-102560476D01*
X109092857Y-102655714D01*
X109045238Y-102703333D01*
X108950000Y-102750952D01*
X108759523Y-102750952D01*
X108664285Y-102798571D01*
X108616666Y-102846190D01*
X108569047Y-102941428D01*
X108569047Y-103131904D01*
X108616666Y-103227142D01*
X108664285Y-103274761D01*
X108759523Y-103322380D01*
X108950000Y-103322380D01*
X109045238Y-103274761D01*
X109092857Y-103227142D01*
X109140476Y-103131904D01*
X109140476Y-102941428D01*
X109092857Y-102846190D01*
X109045238Y-102798571D01*
X108950000Y-102750952D01*
X106759523Y-100496666D02*
X107235714Y-100496666D01*
X106664285Y-100782380D02*
X106997619Y-99782380D01*
X107330952Y-100782380D01*
X108188095Y-100782380D02*
X107616666Y-100782380D01*
X107902380Y-100782380D02*
X107902380Y-99782380D01*
X107807142Y-99925238D01*
X107711904Y-100020476D01*
X107616666Y-100068095D01*
X108664285Y-100782380D02*
X108854761Y-100782380D01*
X108950000Y-100734761D01*
X108997619Y-100687142D01*
X109092857Y-100544285D01*
X109140476Y-100353809D01*
X109140476Y-99972857D01*
X109092857Y-99877619D01*
X109045238Y-99830000D01*
X108950000Y-99782380D01*
X108759523Y-99782380D01*
X108664285Y-99830000D01*
X108616666Y-99877619D01*
X108569047Y-99972857D01*
X108569047Y-100210952D01*
X108616666Y-100306190D01*
X108664285Y-100353809D01*
X108759523Y-100401428D01*
X108950000Y-100401428D01*
X109045238Y-100353809D01*
X109092857Y-100306190D01*
X109140476Y-100210952D01*
X106759523Y-97956666D02*
X107235714Y-97956666D01*
X106664285Y-98242380D02*
X106997619Y-97242380D01*
X107330952Y-98242380D01*
X107616666Y-97337619D02*
X107664285Y-97290000D01*
X107759523Y-97242380D01*
X107997619Y-97242380D01*
X108092857Y-97290000D01*
X108140476Y-97337619D01*
X108188095Y-97432857D01*
X108188095Y-97528095D01*
X108140476Y-97670952D01*
X107569047Y-98242380D01*
X108188095Y-98242380D01*
X108807142Y-97242380D02*
X108902380Y-97242380D01*
X108997619Y-97290000D01*
X109045238Y-97337619D01*
X109092857Y-97432857D01*
X109140476Y-97623333D01*
X109140476Y-97861428D01*
X109092857Y-98051904D01*
X109045238Y-98147142D01*
X108997619Y-98194761D01*
X108902380Y-98242380D01*
X108807142Y-98242380D01*
X108711904Y-98194761D01*
X108664285Y-98147142D01*
X108616666Y-98051904D01*
X108569047Y-97861428D01*
X108569047Y-97623333D01*
X108616666Y-97432857D01*
X108664285Y-97337619D01*
X108711904Y-97290000D01*
X108807142Y-97242380D01*
X106759523Y-95416666D02*
X107235714Y-95416666D01*
X106664285Y-95702380D02*
X106997619Y-94702380D01*
X107330952Y-95702380D01*
X107616666Y-94797619D02*
X107664285Y-94750000D01*
X107759523Y-94702380D01*
X107997619Y-94702380D01*
X108092857Y-94750000D01*
X108140476Y-94797619D01*
X108188095Y-94892857D01*
X108188095Y-94988095D01*
X108140476Y-95130952D01*
X107569047Y-95702380D01*
X108188095Y-95702380D01*
X109140476Y-95702380D02*
X108569047Y-95702380D01*
X108854761Y-95702380D02*
X108854761Y-94702380D01*
X108759523Y-94845238D01*
X108664285Y-94940476D01*
X108569047Y-94988095D01*
X106759523Y-92876666D02*
X107235714Y-92876666D01*
X106664285Y-93162380D02*
X106997619Y-92162380D01*
X107330952Y-93162380D01*
X107616666Y-92257619D02*
X107664285Y-92210000D01*
X107759523Y-92162380D01*
X107997619Y-92162380D01*
X108092857Y-92210000D01*
X108140476Y-92257619D01*
X108188095Y-92352857D01*
X108188095Y-92448095D01*
X108140476Y-92590952D01*
X107569047Y-93162380D01*
X108188095Y-93162380D01*
X108569047Y-92257619D02*
X108616666Y-92210000D01*
X108711904Y-92162380D01*
X108950000Y-92162380D01*
X109045238Y-92210000D01*
X109092857Y-92257619D01*
X109140476Y-92352857D01*
X109140476Y-92448095D01*
X109092857Y-92590952D01*
X108521428Y-93162380D01*
X109140476Y-93162380D01*
X106759523Y-90336666D02*
X107235714Y-90336666D01*
X106664285Y-90622380D02*
X106997619Y-89622380D01*
X107330952Y-90622380D01*
X107616666Y-89717619D02*
X107664285Y-89670000D01*
X107759523Y-89622380D01*
X107997619Y-89622380D01*
X108092857Y-89670000D01*
X108140476Y-89717619D01*
X108188095Y-89812857D01*
X108188095Y-89908095D01*
X108140476Y-90050952D01*
X107569047Y-90622380D01*
X108188095Y-90622380D01*
X108521428Y-89622380D02*
X109140476Y-89622380D01*
X108807142Y-90003333D01*
X108950000Y-90003333D01*
X109045238Y-90050952D01*
X109092857Y-90098571D01*
X109140476Y-90193809D01*
X109140476Y-90431904D01*
X109092857Y-90527142D01*
X109045238Y-90574761D01*
X108950000Y-90622380D01*
X108664285Y-90622380D01*
X108569047Y-90574761D01*
X108521428Y-90527142D01*
D13*
X106565714Y-36238571D02*
X105851428Y-36238571D01*
X105851428Y-34738571D01*
X107351428Y-34738571D02*
X107637142Y-34738571D01*
X107780000Y-34810000D01*
X107922857Y-34952857D01*
X107994285Y-35238571D01*
X107994285Y-35738571D01*
X107922857Y-36024285D01*
X107780000Y-36167142D01*
X107637142Y-36238571D01*
X107351428Y-36238571D01*
X107208571Y-36167142D01*
X107065714Y-36024285D01*
X106994285Y-35738571D01*
X106994285Y-35238571D01*
X107065714Y-34952857D01*
X107208571Y-34810000D01*
X107351428Y-34738571D01*
X109422857Y-34810000D02*
X109280000Y-34738571D01*
X109065714Y-34738571D01*
X108851428Y-34810000D01*
X108708571Y-34952857D01*
X108637142Y-35095714D01*
X108565714Y-35381428D01*
X108565714Y-35595714D01*
X108637142Y-35881428D01*
X108708571Y-36024285D01*
X108851428Y-36167142D01*
X109065714Y-36238571D01*
X109208571Y-36238571D01*
X109422857Y-36167142D01*
X109494285Y-36095714D01*
X109494285Y-35595714D01*
X109208571Y-35595714D01*
X110137142Y-36238571D02*
X110137142Y-34738571D01*
X111708571Y-36095714D02*
X111637142Y-36167142D01*
X111422857Y-36238571D01*
X111280000Y-36238571D01*
X111065714Y-36167142D01*
X110922857Y-36024285D01*
X110851428Y-35881428D01*
X110780000Y-35595714D01*
X110780000Y-35381428D01*
X110851428Y-35095714D01*
X110922857Y-34952857D01*
X111065714Y-34810000D01*
X111280000Y-34738571D01*
X111422857Y-34738571D01*
X111637142Y-34810000D01*
X111708571Y-34881428D01*
X113494285Y-36238571D02*
X113494285Y-34738571D01*
X114065714Y-34738571D01*
X114208571Y-34810000D01*
X114280000Y-34881428D01*
X114351428Y-35024285D01*
X114351428Y-35238571D01*
X114280000Y-35381428D01*
X114208571Y-35452857D01*
X114065714Y-35524285D01*
X113494285Y-35524285D01*
X115851428Y-36238571D02*
X115351428Y-35524285D01*
X114994285Y-36238571D02*
X114994285Y-34738571D01*
X115565714Y-34738571D01*
X115708571Y-34810000D01*
X115780000Y-34881428D01*
X115851428Y-35024285D01*
X115851428Y-35238571D01*
X115780000Y-35381428D01*
X115708571Y-35452857D01*
X115565714Y-35524285D01*
X114994285Y-35524285D01*
X116780000Y-34738571D02*
X117065714Y-34738571D01*
X117208571Y-34810000D01*
X117351428Y-34952857D01*
X117422857Y-35238571D01*
X117422857Y-35738571D01*
X117351428Y-36024285D01*
X117208571Y-36167142D01*
X117065714Y-36238571D01*
X116780000Y-36238571D01*
X116637142Y-36167142D01*
X116494285Y-36024285D01*
X116422857Y-35738571D01*
X116422857Y-35238571D01*
X116494285Y-34952857D01*
X116637142Y-34810000D01*
X116780000Y-34738571D01*
X118565714Y-35452857D02*
X118780000Y-35524285D01*
X118851428Y-35595714D01*
X118922857Y-35738571D01*
X118922857Y-35952857D01*
X118851428Y-36095714D01*
X118780000Y-36167142D01*
X118637142Y-36238571D01*
X118065714Y-36238571D01*
X118065714Y-34738571D01*
X118565714Y-34738571D01*
X118708571Y-34810000D01*
X118780000Y-34881428D01*
X118851428Y-35024285D01*
X118851428Y-35167142D01*
X118780000Y-35310000D01*
X118708571Y-35381428D01*
X118565714Y-35452857D01*
X118065714Y-35452857D01*
X119565714Y-35452857D02*
X120065714Y-35452857D01*
X120280000Y-36238571D02*
X119565714Y-36238571D01*
X119565714Y-34738571D01*
X120280000Y-34738571D01*
D15*
G04 #@! TO.C,J26*
X41850000Y-36770000D02*
X43180000Y-36770000D01*
X41850000Y-38100000D02*
X41850000Y-36770000D01*
X41850000Y-39370000D02*
X44510000Y-39370000D01*
X44510000Y-39370000D02*
X44510000Y-39430000D01*
X41850000Y-39370000D02*
X41850000Y-39430000D01*
X41850000Y-39430000D02*
X44510000Y-39430000D01*
G04 #@! TO.C,C1*
X91500000Y-44490000D02*
X86380000Y-44490000D01*
X91500000Y-41870000D02*
X86380000Y-41870000D01*
X91500000Y-44490000D02*
X91500000Y-44176000D01*
X91500000Y-42184000D02*
X91500000Y-41870000D01*
X86380000Y-44490000D02*
X86380000Y-44176000D01*
X86380000Y-42184000D02*
X86380000Y-41870000D01*
G04 #@! TO.C,C2*
X78800000Y-28936000D02*
X78800000Y-29250000D01*
X78800000Y-26630000D02*
X78800000Y-26944000D01*
X73680000Y-28936000D02*
X73680000Y-29250000D01*
X73680000Y-26630000D02*
X73680000Y-26944000D01*
X73680000Y-29250000D02*
X78800000Y-29250000D01*
X73680000Y-26630000D02*
X78800000Y-26630000D01*
G04 #@! TO.C,U1*
X73600000Y-32910000D02*
X73600000Y-34560000D01*
X91500000Y-32910000D02*
X73600000Y-32910000D01*
X91500000Y-38210000D02*
X91500000Y-32910000D01*
X73600000Y-38210000D02*
X91500000Y-38210000D01*
X73600000Y-36560000D02*
X73600000Y-38210000D01*
X73600000Y-34560000D02*
G75*
G02X73600000Y-36560000I0J-1000000D01*
G01*
G04 #@! TO.C,D7*
X58870000Y-30480462D02*
G75*
G03X53320000Y-28935170I-2990000J462D01*
G01*
X58870000Y-30479538D02*
G75*
G02X53320000Y-32024830I-2990000J-462D01*
G01*
X58380000Y-30480000D02*
G75*
G03X58380000Y-30480000I-2500000J0D01*
G01*
X53320000Y-28935000D02*
X53320000Y-32025000D01*
G04 #@! TO.C,D6*
X34270000Y-28935000D02*
X34270000Y-32025000D01*
X39330000Y-30480000D02*
G75*
G03X39330000Y-30480000I-2500000J0D01*
G01*
X39820000Y-30479538D02*
G75*
G02X34270000Y-32024830I-2990000J-462D01*
G01*
X39820000Y-30480462D02*
G75*
G03X34270000Y-28935170I-2990000J462D01*
G01*
G04 #@! TO.C,D5*
X52520000Y-30480462D02*
G75*
G03X46970000Y-28935170I-2990000J462D01*
G01*
X52520000Y-30479538D02*
G75*
G02X46970000Y-32024830I-2990000J-462D01*
G01*
X52030000Y-30480000D02*
G75*
G03X52030000Y-30480000I-2500000J0D01*
G01*
X46970000Y-28935000D02*
X46970000Y-32025000D01*
G04 #@! TO.C,D4*
X27920000Y-28935000D02*
X27920000Y-32025000D01*
X32980000Y-30480000D02*
G75*
G03X32980000Y-30480000I-2500000J0D01*
G01*
X33470000Y-30479538D02*
G75*
G02X27920000Y-32024830I-2990000J-462D01*
G01*
X33470000Y-30480462D02*
G75*
G03X27920000Y-28935170I-2990000J462D01*
G01*
G04 #@! TO.C,D3*
X122370000Y-30480462D02*
G75*
G03X116820000Y-28935170I-2990000J462D01*
G01*
X122370000Y-30479538D02*
G75*
G02X116820000Y-32024830I-2990000J-462D01*
G01*
X121880000Y-30480000D02*
G75*
G03X121880000Y-30480000I-2500000J0D01*
G01*
X116820000Y-28935000D02*
X116820000Y-32025000D01*
G04 #@! TO.C,D2*
X104120000Y-28935000D02*
X104120000Y-32025000D01*
X109180000Y-30480000D02*
G75*
G03X109180000Y-30480000I-2500000J0D01*
G01*
X109670000Y-30479538D02*
G75*
G02X104120000Y-32024830I-2990000J-462D01*
G01*
X109670000Y-30480462D02*
G75*
G03X104120000Y-28935170I-2990000J462D01*
G01*
G04 #@! TO.C,D1*
X116020000Y-30480462D02*
G75*
G03X110470000Y-28935170I-2990000J462D01*
G01*
X116020000Y-30479538D02*
G75*
G02X110470000Y-32024830I-2990000J-462D01*
G01*
X115530000Y-30480000D02*
G75*
G03X115530000Y-30480000I-2500000J0D01*
G01*
X110470000Y-28935000D02*
X110470000Y-32025000D01*
G04 #@! TO.C,D8*
X40620000Y-28935000D02*
X40620000Y-32025000D01*
X45680000Y-30480000D02*
G75*
G03X45680000Y-30480000I-2500000J0D01*
G01*
X46170000Y-30479538D02*
G75*
G02X40620000Y-32024830I-2990000J-462D01*
G01*
X46170000Y-30480462D02*
G75*
G03X40620000Y-28935170I-2990000J462D01*
G01*
G04 #@! TO.C,J15*
X60900000Y-30420000D02*
X62230000Y-30420000D01*
X60900000Y-31750000D02*
X60900000Y-30420000D01*
X60900000Y-33020000D02*
X63560000Y-33020000D01*
X63560000Y-33020000D02*
X63560000Y-33080000D01*
X60900000Y-33020000D02*
X60900000Y-33080000D01*
X60900000Y-33080000D02*
X63560000Y-33080000D01*
G04 #@! TO.C,J7*
X68520000Y-39430000D02*
X71180000Y-39430000D01*
X68520000Y-39370000D02*
X68520000Y-39430000D01*
X71180000Y-39370000D02*
X71180000Y-39430000D01*
X68520000Y-39370000D02*
X71180000Y-39370000D01*
X68520000Y-38100000D02*
X68520000Y-36770000D01*
X68520000Y-36770000D02*
X69850000Y-36770000D01*
G04 #@! TO.C,J8*
X48200000Y-36770000D02*
X49530000Y-36770000D01*
X48200000Y-38100000D02*
X48200000Y-36770000D01*
X48200000Y-39370000D02*
X50860000Y-39370000D01*
X50860000Y-39370000D02*
X50860000Y-39430000D01*
X48200000Y-39370000D02*
X48200000Y-39430000D01*
X48200000Y-39430000D02*
X50860000Y-39430000D01*
G04 #@! TO.C,J9*
X29150000Y-39430000D02*
X31810000Y-39430000D01*
X29150000Y-39370000D02*
X29150000Y-39430000D01*
X31810000Y-39370000D02*
X31810000Y-39430000D01*
X29150000Y-39370000D02*
X31810000Y-39370000D01*
X29150000Y-38100000D02*
X29150000Y-36770000D01*
X29150000Y-36770000D02*
X30480000Y-36770000D01*
G04 #@! TO.C,J10*
X54550000Y-36770000D02*
X55880000Y-36770000D01*
X54550000Y-38100000D02*
X54550000Y-36770000D01*
X54550000Y-39370000D02*
X57210000Y-39370000D01*
X57210000Y-39370000D02*
X57210000Y-39430000D01*
X54550000Y-39370000D02*
X54550000Y-39430000D01*
X54550000Y-39430000D02*
X57210000Y-39430000D01*
G04 #@! TO.C,J14*
X35500000Y-39430000D02*
X38160000Y-39430000D01*
X35500000Y-39370000D02*
X35500000Y-39430000D01*
X38160000Y-39370000D02*
X38160000Y-39430000D01*
X35500000Y-39370000D02*
X38160000Y-39370000D01*
X35500000Y-38100000D02*
X35500000Y-36770000D01*
X35500000Y-36770000D02*
X36830000Y-36770000D01*
G04 #@! TO.C,J2*
X60900000Y-36770000D02*
X62230000Y-36770000D01*
X60900000Y-38100000D02*
X60900000Y-36770000D01*
X60900000Y-39370000D02*
X63560000Y-39370000D01*
X63560000Y-39370000D02*
X63560000Y-39430000D01*
X60900000Y-39370000D02*
X60900000Y-39430000D01*
X60900000Y-39430000D02*
X63560000Y-39430000D01*
G04 #@! TO.C,J21*
X115630000Y-53400000D02*
X115630000Y-50740000D01*
X113030000Y-53400000D02*
X115630000Y-53400000D01*
X113030000Y-50740000D02*
X115630000Y-50740000D01*
X113030000Y-53400000D02*
X113030000Y-50740000D01*
X111760000Y-53400000D02*
X110430000Y-53400000D01*
X110430000Y-53400000D02*
X110430000Y-52070000D01*
G04 #@! TO.C,J18*
X95190000Y-53400000D02*
X95190000Y-52070000D01*
X96520000Y-53400000D02*
X95190000Y-53400000D01*
X97790000Y-53400000D02*
X97790000Y-50740000D01*
X97790000Y-50740000D02*
X100390000Y-50740000D01*
X97790000Y-53400000D02*
X100390000Y-53400000D01*
X100390000Y-53400000D02*
X100390000Y-50740000D01*
G04 #@! TO.C,J5*
X69910000Y-53400000D02*
X69910000Y-50740000D01*
X67310000Y-53400000D02*
X69910000Y-53400000D01*
X67310000Y-50740000D02*
X69910000Y-50740000D01*
X67310000Y-53400000D02*
X67310000Y-50740000D01*
X66040000Y-53400000D02*
X64710000Y-53400000D01*
X64710000Y-53400000D02*
X64710000Y-52070000D01*
G04 #@! TO.C,J13*
X79950000Y-53400000D02*
X79950000Y-52070000D01*
X81280000Y-53400000D02*
X79950000Y-53400000D01*
X82550000Y-53400000D02*
X82550000Y-50740000D01*
X82550000Y-50740000D02*
X85150000Y-50740000D01*
X82550000Y-53400000D02*
X85150000Y-53400000D01*
X85150000Y-53400000D02*
X85150000Y-50740000D01*
G04 #@! TO.C,J6*
X46930000Y-53400000D02*
X46930000Y-52070000D01*
X48260000Y-53400000D02*
X46930000Y-53400000D01*
X46930000Y-50800000D02*
X46930000Y-48200000D01*
X49530000Y-50800000D02*
X46930000Y-50800000D01*
X49530000Y-53400000D02*
X49530000Y-50800000D01*
X46930000Y-48200000D02*
X54670000Y-48200000D01*
X49530000Y-53400000D02*
X54670000Y-53400000D01*
X54670000Y-53400000D02*
X54670000Y-48200000D01*
G04 #@! TO.C,J23*
X34230000Y-81340000D02*
X39430000Y-81340000D01*
X34230000Y-63500000D02*
X34230000Y-81340000D01*
X39430000Y-60900000D02*
X39430000Y-81340000D01*
X34230000Y-63500000D02*
X36830000Y-63500000D01*
X36830000Y-63500000D02*
X36830000Y-60900000D01*
X36830000Y-60900000D02*
X39430000Y-60900000D01*
X34230000Y-62230000D02*
X34230000Y-60900000D01*
X34230000Y-60900000D02*
X35560000Y-60900000D01*
G04 #@! TO.C,J16*
X79950000Y-88840000D02*
X81280000Y-88840000D01*
X79950000Y-90170000D02*
X79950000Y-88840000D01*
X82550000Y-88840000D02*
X85150000Y-88840000D01*
X82550000Y-91440000D02*
X82550000Y-88840000D01*
X79950000Y-91440000D02*
X82550000Y-91440000D01*
X85150000Y-88840000D02*
X85150000Y-109280000D01*
X79950000Y-91440000D02*
X79950000Y-109280000D01*
X79950000Y-109280000D02*
X85150000Y-109280000D01*
G04 #@! TO.C,J17*
X49470000Y-109280000D02*
X54670000Y-109280000D01*
X49470000Y-91440000D02*
X49470000Y-109280000D01*
X54670000Y-88840000D02*
X54670000Y-109280000D01*
X49470000Y-91440000D02*
X52070000Y-91440000D01*
X52070000Y-91440000D02*
X52070000Y-88840000D01*
X52070000Y-88840000D02*
X54670000Y-88840000D01*
X49470000Y-90170000D02*
X49470000Y-88840000D01*
X49470000Y-88840000D02*
X50800000Y-88840000D01*
G04 #@! TO.C,J19*
X110430000Y-60900000D02*
X111760000Y-60900000D01*
X110430000Y-62230000D02*
X110430000Y-60900000D01*
X113030000Y-60900000D02*
X115630000Y-60900000D01*
X113030000Y-63500000D02*
X113030000Y-60900000D01*
X110430000Y-63500000D02*
X113030000Y-63500000D01*
X115630000Y-60900000D02*
X115630000Y-81340000D01*
X110430000Y-63500000D02*
X110430000Y-81340000D01*
X110430000Y-81340000D02*
X115630000Y-81340000D01*
G04 #@! TO.C,J12*
X64710000Y-109280000D02*
X69910000Y-109280000D01*
X64710000Y-91440000D02*
X64710000Y-109280000D01*
X69910000Y-88840000D02*
X69910000Y-109280000D01*
X64710000Y-91440000D02*
X67310000Y-91440000D01*
X67310000Y-91440000D02*
X67310000Y-88840000D01*
X67310000Y-88840000D02*
X69910000Y-88840000D01*
X64710000Y-90170000D02*
X64710000Y-88840000D01*
X64710000Y-88840000D02*
X66040000Y-88840000D01*
G04 #@! TO.C,J11*
X95190000Y-88840000D02*
X96520000Y-88840000D01*
X95190000Y-90170000D02*
X95190000Y-88840000D01*
X97790000Y-88840000D02*
X100390000Y-88840000D01*
X97790000Y-91440000D02*
X97790000Y-88840000D01*
X95190000Y-91440000D02*
X97790000Y-91440000D01*
X100390000Y-88840000D02*
X100390000Y-109280000D01*
X95190000Y-91440000D02*
X95190000Y-109280000D01*
X95190000Y-109280000D02*
X100390000Y-109280000D01*
G04 #@! TO.C,J22*
X95190000Y-81340000D02*
X100390000Y-81340000D01*
X95190000Y-63500000D02*
X95190000Y-81340000D01*
X100390000Y-60900000D02*
X100390000Y-81340000D01*
X95190000Y-63500000D02*
X97790000Y-63500000D01*
X97790000Y-63500000D02*
X97790000Y-60900000D01*
X97790000Y-60900000D02*
X100390000Y-60900000D01*
X95190000Y-62230000D02*
X95190000Y-60900000D01*
X95190000Y-60900000D02*
X96520000Y-60900000D01*
G04 #@! TO.C,J24*
X64710000Y-60900000D02*
X66040000Y-60900000D01*
X64710000Y-62230000D02*
X64710000Y-60900000D01*
X67310000Y-60900000D02*
X69910000Y-60900000D01*
X67310000Y-63500000D02*
X67310000Y-60900000D01*
X64710000Y-63500000D02*
X67310000Y-63500000D01*
X69910000Y-60900000D02*
X69910000Y-81340000D01*
X64710000Y-63500000D02*
X64710000Y-81340000D01*
X64710000Y-81340000D02*
X69910000Y-81340000D01*
G04 #@! TO.C,J25*
X49470000Y-60900000D02*
X50800000Y-60900000D01*
X49470000Y-62230000D02*
X49470000Y-60900000D01*
X52070000Y-60900000D02*
X54670000Y-60900000D01*
X52070000Y-63500000D02*
X52070000Y-60900000D01*
X49470000Y-63500000D02*
X52070000Y-63500000D01*
X54670000Y-60900000D02*
X54670000Y-81340000D01*
X49470000Y-63500000D02*
X49470000Y-81340000D01*
X49470000Y-81340000D02*
X54670000Y-81340000D01*
G04 #@! TO.C,J4*
X79950000Y-60900000D02*
X81280000Y-60900000D01*
X79950000Y-62230000D02*
X79950000Y-60900000D01*
X82550000Y-60900000D02*
X85150000Y-60900000D01*
X82550000Y-63500000D02*
X82550000Y-60900000D01*
X79950000Y-63500000D02*
X82550000Y-63500000D01*
X85150000Y-60900000D02*
X85150000Y-81340000D01*
X79950000Y-63500000D02*
X79950000Y-81340000D01*
X79950000Y-81340000D02*
X85150000Y-81340000D01*
G04 #@! TO.C,J3*
X110430000Y-109280000D02*
X115630000Y-109280000D01*
X110430000Y-91440000D02*
X110430000Y-109280000D01*
X115630000Y-88840000D02*
X115630000Y-109280000D01*
X110430000Y-91440000D02*
X113030000Y-91440000D01*
X113030000Y-91440000D02*
X113030000Y-88840000D01*
X113030000Y-88840000D02*
X115630000Y-88840000D01*
X110430000Y-90170000D02*
X110430000Y-88840000D01*
X110430000Y-88840000D02*
X111760000Y-88840000D01*
G04 #@! TO.C,J20*
X34230000Y-88840000D02*
X35560000Y-88840000D01*
X34230000Y-90170000D02*
X34230000Y-88840000D01*
X36830000Y-88840000D02*
X39430000Y-88840000D01*
X36830000Y-91440000D02*
X36830000Y-88840000D01*
X34230000Y-91440000D02*
X36830000Y-91440000D01*
X39430000Y-88840000D02*
X39430000Y-109280000D01*
X34230000Y-91440000D02*
X34230000Y-109280000D01*
X34230000Y-109280000D02*
X39430000Y-109280000D01*
G04 #@! TO.C,R6*
X31080000Y-41870000D02*
X31080000Y-44490000D01*
X31080000Y-44490000D02*
X37500000Y-44490000D01*
X37500000Y-44490000D02*
X37500000Y-41870000D01*
X37500000Y-41870000D02*
X31080000Y-41870000D01*
X30190000Y-43180000D02*
X31080000Y-43180000D01*
X38390000Y-43180000D02*
X37500000Y-43180000D01*
G04 #@! TO.C,R1*
X74640000Y-43180000D02*
X75530000Y-43180000D01*
X82840000Y-43180000D02*
X81950000Y-43180000D01*
X75530000Y-44490000D02*
X81950000Y-44490000D01*
X75530000Y-41870000D02*
X75530000Y-44490000D01*
X81950000Y-41870000D02*
X75530000Y-41870000D01*
X81950000Y-44490000D02*
X81950000Y-41870000D01*
G04 #@! TO.C,R2*
X102275000Y-34890000D02*
X99655000Y-34890000D01*
X99655000Y-34890000D02*
X99655000Y-41310000D01*
X99655000Y-41310000D02*
X102275000Y-41310000D01*
X102275000Y-41310000D02*
X102275000Y-34890000D01*
X100965000Y-34000000D02*
X100965000Y-34890000D01*
X100965000Y-42200000D02*
X100965000Y-41310000D01*
G04 #@! TO.C,R3*
X97790000Y-34000000D02*
X97790000Y-34890000D01*
X97790000Y-42200000D02*
X97790000Y-41310000D01*
X96480000Y-34890000D02*
X96480000Y-41310000D01*
X99100000Y-34890000D02*
X96480000Y-34890000D01*
X99100000Y-41310000D02*
X99100000Y-34890000D01*
X96480000Y-41310000D02*
X99100000Y-41310000D01*
G04 #@! TO.C,R4*
X95925000Y-34890000D02*
X93305000Y-34890000D01*
X93305000Y-34890000D02*
X93305000Y-41310000D01*
X93305000Y-41310000D02*
X95925000Y-41310000D01*
X95925000Y-41310000D02*
X95925000Y-34890000D01*
X94615000Y-34000000D02*
X94615000Y-34890000D01*
X94615000Y-42200000D02*
X94615000Y-41310000D01*
G04 #@! TO.C,R7*
X38390000Y-52705000D02*
X37500000Y-52705000D01*
X30190000Y-52705000D02*
X31080000Y-52705000D01*
X37500000Y-51395000D02*
X31080000Y-51395000D01*
X37500000Y-54015000D02*
X37500000Y-51395000D01*
X31080000Y-54015000D02*
X37500000Y-54015000D01*
X31080000Y-51395000D02*
X31080000Y-54015000D01*
G04 #@! TO.C,R8*
X31080000Y-45045000D02*
X31080000Y-47665000D01*
X31080000Y-47665000D02*
X37500000Y-47665000D01*
X37500000Y-47665000D02*
X37500000Y-45045000D01*
X37500000Y-45045000D02*
X31080000Y-45045000D01*
X30190000Y-46355000D02*
X31080000Y-46355000D01*
X38390000Y-46355000D02*
X37500000Y-46355000D01*
G04 #@! TO.C,R9*
X52360000Y-43180000D02*
X51470000Y-43180000D01*
X44160000Y-43180000D02*
X45050000Y-43180000D01*
X51470000Y-41870000D02*
X45050000Y-41870000D01*
X51470000Y-44490000D02*
X51470000Y-41870000D01*
X45050000Y-44490000D02*
X51470000Y-44490000D01*
X45050000Y-41870000D02*
X45050000Y-44490000D01*
G04 #@! TO.C,R5*
X83150000Y-26630000D02*
X83150000Y-29250000D01*
X83150000Y-29250000D02*
X89570000Y-29250000D01*
X89570000Y-29250000D02*
X89570000Y-26630000D01*
X89570000Y-26630000D02*
X83150000Y-26630000D01*
X82260000Y-27940000D02*
X83150000Y-27940000D01*
X90460000Y-27940000D02*
X89570000Y-27940000D01*
G04 #@! TO.C,R10*
X38390000Y-49530000D02*
X37500000Y-49530000D01*
X30190000Y-49530000D02*
X31080000Y-49530000D01*
X37500000Y-48220000D02*
X31080000Y-48220000D01*
X37500000Y-50840000D02*
X37500000Y-48220000D01*
X31080000Y-50840000D02*
X37500000Y-50840000D01*
X31080000Y-48220000D02*
X31080000Y-50840000D01*
G04 #@! TO.C,J26*
D10*
X40918095Y-35631428D02*
X41680000Y-35631428D01*
X41299047Y-36012380D02*
X41299047Y-35250476D01*
X42632380Y-35012380D02*
X42156190Y-35012380D01*
X42108571Y-35488571D01*
X42156190Y-35440952D01*
X42251428Y-35393333D01*
X42489523Y-35393333D01*
X42584761Y-35440952D01*
X42632380Y-35488571D01*
X42680000Y-35583809D01*
X42680000Y-35821904D01*
X42632380Y-35917142D01*
X42584761Y-35964761D01*
X42489523Y-36012380D01*
X42251428Y-36012380D01*
X42156190Y-35964761D01*
X42108571Y-35917142D01*
X42965714Y-35012380D02*
X43299047Y-36012380D01*
X43632380Y-35012380D01*
X43918095Y-35964761D02*
X44060952Y-36012380D01*
X44299047Y-36012380D01*
X44394285Y-35964761D01*
X44441904Y-35917142D01*
X44489523Y-35821904D01*
X44489523Y-35726666D01*
X44441904Y-35631428D01*
X44394285Y-35583809D01*
X44299047Y-35536190D01*
X44108571Y-35488571D01*
X44013333Y-35440952D01*
X43965714Y-35393333D01*
X43918095Y-35298095D01*
X43918095Y-35202857D01*
X43965714Y-35107619D01*
X44013333Y-35060000D01*
X44108571Y-35012380D01*
X44346666Y-35012380D01*
X44489523Y-35060000D01*
X45251428Y-35488571D02*
X45394285Y-35536190D01*
X45441904Y-35583809D01*
X45489523Y-35679047D01*
X45489523Y-35821904D01*
X45441904Y-35917142D01*
X45394285Y-35964761D01*
X45299047Y-36012380D01*
X44918095Y-36012380D01*
X44918095Y-35012380D01*
X45251428Y-35012380D01*
X45346666Y-35060000D01*
X45394285Y-35107619D01*
X45441904Y-35202857D01*
X45441904Y-35298095D01*
X45394285Y-35393333D01*
X45346666Y-35440952D01*
X45251428Y-35488571D01*
X44918095Y-35488571D01*
G04 #@! TO.C,C1*
X87582857Y-43537142D02*
X87630476Y-43584761D01*
X87582857Y-43632380D01*
X87535238Y-43584761D01*
X87582857Y-43537142D01*
X87582857Y-43632380D01*
X88582857Y-43632380D02*
X88011428Y-43632380D01*
X88297142Y-43632380D02*
X88297142Y-42632380D01*
X88201904Y-42775238D01*
X88106666Y-42870476D01*
X88011428Y-42918095D01*
X89440000Y-42965714D02*
X89440000Y-43632380D01*
X89011428Y-42965714D02*
X89011428Y-43489523D01*
X89059047Y-43584761D01*
X89154285Y-43632380D01*
X89297142Y-43632380D01*
X89392380Y-43584761D01*
X89440000Y-43537142D01*
X90249523Y-43108571D02*
X89916190Y-43108571D01*
X89916190Y-43632380D02*
X89916190Y-42632380D01*
X90392380Y-42632380D01*
G04 #@! TO.C,C2*
X74882857Y-28297142D02*
X74930476Y-28344761D01*
X74882857Y-28392380D01*
X74835238Y-28344761D01*
X74882857Y-28297142D01*
X74882857Y-28392380D01*
X75882857Y-28392380D02*
X75311428Y-28392380D01*
X75597142Y-28392380D02*
X75597142Y-27392380D01*
X75501904Y-27535238D01*
X75406666Y-27630476D01*
X75311428Y-27678095D01*
X76740000Y-27725714D02*
X76740000Y-28392380D01*
X76311428Y-27725714D02*
X76311428Y-28249523D01*
X76359047Y-28344761D01*
X76454285Y-28392380D01*
X76597142Y-28392380D01*
X76692380Y-28344761D01*
X76740000Y-28297142D01*
X77549523Y-27868571D02*
X77216190Y-27868571D01*
X77216190Y-28392380D02*
X77216190Y-27392380D01*
X77692380Y-27392380D01*
G04 #@! TO.C,U1*
X81311904Y-35345714D02*
X81311904Y-36012380D01*
X81073809Y-34964761D02*
X80835714Y-35679047D01*
X81454761Y-35679047D01*
X82026190Y-35012380D02*
X82121428Y-35012380D01*
X82216666Y-35060000D01*
X82264285Y-35107619D01*
X82311904Y-35202857D01*
X82359523Y-35393333D01*
X82359523Y-35631428D01*
X82311904Y-35821904D01*
X82264285Y-35917142D01*
X82216666Y-35964761D01*
X82121428Y-36012380D01*
X82026190Y-36012380D01*
X81930952Y-35964761D01*
X81883333Y-35917142D01*
X81835714Y-35821904D01*
X81788095Y-35631428D01*
X81788095Y-35393333D01*
X81835714Y-35202857D01*
X81883333Y-35107619D01*
X81930952Y-35060000D01*
X82026190Y-35012380D01*
X82978571Y-35012380D02*
X83073809Y-35012380D01*
X83169047Y-35060000D01*
X83216666Y-35107619D01*
X83264285Y-35202857D01*
X83311904Y-35393333D01*
X83311904Y-35631428D01*
X83264285Y-35821904D01*
X83216666Y-35917142D01*
X83169047Y-35964761D01*
X83073809Y-36012380D01*
X82978571Y-36012380D01*
X82883333Y-35964761D01*
X82835714Y-35917142D01*
X82788095Y-35821904D01*
X82740476Y-35631428D01*
X82740476Y-35393333D01*
X82788095Y-35202857D01*
X82835714Y-35107619D01*
X82883333Y-35060000D01*
X82978571Y-35012380D01*
X84264285Y-36012380D02*
X83692857Y-36012380D01*
X83978571Y-36012380D02*
X83978571Y-35012380D01*
X83883333Y-35155238D01*
X83788095Y-35250476D01*
X83692857Y-35298095D01*
G04 #@! TO.C,D7*
X54118095Y-26591428D02*
X54880000Y-26591428D01*
X55880000Y-26972380D02*
X55308571Y-26972380D01*
X55594285Y-26972380D02*
X55594285Y-25972380D01*
X55499047Y-26115238D01*
X55403809Y-26210476D01*
X55308571Y-26258095D01*
X56260952Y-26067619D02*
X56308571Y-26020000D01*
X56403809Y-25972380D01*
X56641904Y-25972380D01*
X56737142Y-26020000D01*
X56784761Y-26067619D01*
X56832380Y-26162857D01*
X56832380Y-26258095D01*
X56784761Y-26400952D01*
X56213333Y-26972380D01*
X56832380Y-26972380D01*
X57118095Y-25972380D02*
X57451428Y-26972380D01*
X57784761Y-25972380D01*
G04 #@! TO.C,D6*
X36639523Y-25972380D02*
X36163333Y-25972380D01*
X36115714Y-26448571D01*
X36163333Y-26400952D01*
X36258571Y-26353333D01*
X36496666Y-26353333D01*
X36591904Y-26400952D01*
X36639523Y-26448571D01*
X36687142Y-26543809D01*
X36687142Y-26781904D01*
X36639523Y-26877142D01*
X36591904Y-26924761D01*
X36496666Y-26972380D01*
X36258571Y-26972380D01*
X36163333Y-26924761D01*
X36115714Y-26877142D01*
X36972857Y-25972380D02*
X37306190Y-26972380D01*
X37639523Y-25972380D01*
G04 #@! TO.C,D5*
X47768095Y-26591428D02*
X48530000Y-26591428D01*
X48149047Y-26972380D02*
X48149047Y-26210476D01*
X49530000Y-26972380D02*
X48958571Y-26972380D01*
X49244285Y-26972380D02*
X49244285Y-25972380D01*
X49149047Y-26115238D01*
X49053809Y-26210476D01*
X48958571Y-26258095D01*
X49910952Y-26067619D02*
X49958571Y-26020000D01*
X50053809Y-25972380D01*
X50291904Y-25972380D01*
X50387142Y-26020000D01*
X50434761Y-26067619D01*
X50482380Y-26162857D01*
X50482380Y-26258095D01*
X50434761Y-26400952D01*
X49863333Y-26972380D01*
X50482380Y-26972380D01*
X50768095Y-25972380D02*
X51101428Y-26972380D01*
X51434761Y-25972380D01*
G04 #@! TO.C,D4*
X29241904Y-25972380D02*
X29860952Y-25972380D01*
X29527619Y-26353333D01*
X29670476Y-26353333D01*
X29765714Y-26400952D01*
X29813333Y-26448571D01*
X29860952Y-26543809D01*
X29860952Y-26781904D01*
X29813333Y-26877142D01*
X29765714Y-26924761D01*
X29670476Y-26972380D01*
X29384761Y-26972380D01*
X29289523Y-26924761D01*
X29241904Y-26877142D01*
X30146666Y-25972380D02*
X30480000Y-26972380D01*
X30813333Y-25972380D01*
X31051428Y-25972380D02*
X31670476Y-25972380D01*
X31337142Y-26353333D01*
X31480000Y-26353333D01*
X31575238Y-26400952D01*
X31622857Y-26448571D01*
X31670476Y-26543809D01*
X31670476Y-26781904D01*
X31622857Y-26877142D01*
X31575238Y-26924761D01*
X31480000Y-26972380D01*
X31194285Y-26972380D01*
X31099047Y-26924761D01*
X31051428Y-26877142D01*
G04 #@! TO.C,D3*
X118308571Y-25972380D02*
X118499047Y-25972380D01*
X118594285Y-26020000D01*
X118689523Y-26115238D01*
X118737142Y-26305714D01*
X118737142Y-26639047D01*
X118689523Y-26829523D01*
X118594285Y-26924761D01*
X118499047Y-26972380D01*
X118308571Y-26972380D01*
X118213333Y-26924761D01*
X118118095Y-26829523D01*
X118070476Y-26639047D01*
X118070476Y-26305714D01*
X118118095Y-26115238D01*
X118213333Y-26020000D01*
X118308571Y-25972380D01*
X119118095Y-26924761D02*
X119260952Y-26972380D01*
X119499047Y-26972380D01*
X119594285Y-26924761D01*
X119641904Y-26877142D01*
X119689523Y-26781904D01*
X119689523Y-26686666D01*
X119641904Y-26591428D01*
X119594285Y-26543809D01*
X119499047Y-26496190D01*
X119308571Y-26448571D01*
X119213333Y-26400952D01*
X119165714Y-26353333D01*
X119118095Y-26258095D01*
X119118095Y-26162857D01*
X119165714Y-26067619D01*
X119213333Y-26020000D01*
X119308571Y-25972380D01*
X119546666Y-25972380D01*
X119689523Y-26020000D01*
X120689523Y-26877142D02*
X120641904Y-26924761D01*
X120499047Y-26972380D01*
X120403809Y-26972380D01*
X120260952Y-26924761D01*
X120165714Y-26829523D01*
X120118095Y-26734285D01*
X120070476Y-26543809D01*
X120070476Y-26400952D01*
X120118095Y-26210476D01*
X120165714Y-26115238D01*
X120260952Y-26020000D01*
X120403809Y-25972380D01*
X120499047Y-25972380D01*
X120641904Y-26020000D01*
X120689523Y-26067619D01*
G04 #@! TO.C,D2*
X106465714Y-26972380D02*
X105989523Y-26972380D01*
X105989523Y-25972380D01*
X106989523Y-25972380D02*
X107180000Y-25972380D01*
X107275238Y-26020000D01*
X107370476Y-26115238D01*
X107418095Y-26305714D01*
X107418095Y-26639047D01*
X107370476Y-26829523D01*
X107275238Y-26924761D01*
X107180000Y-26972380D01*
X106989523Y-26972380D01*
X106894285Y-26924761D01*
X106799047Y-26829523D01*
X106751428Y-26639047D01*
X106751428Y-26305714D01*
X106799047Y-26115238D01*
X106894285Y-26020000D01*
X106989523Y-25972380D01*
G04 #@! TO.C,D1*
X112506190Y-26972380D02*
X112506190Y-25972380D01*
X112506190Y-26448571D02*
X113077619Y-26448571D01*
X113077619Y-26972380D02*
X113077619Y-25972380D01*
X113553809Y-26972380D02*
X113553809Y-25972380D01*
G04 #@! TO.C,D8*
X40918095Y-26591428D02*
X41680000Y-26591428D01*
X41299047Y-26972380D02*
X41299047Y-26210476D01*
X42632380Y-25972380D02*
X42156190Y-25972380D01*
X42108571Y-26448571D01*
X42156190Y-26400952D01*
X42251428Y-26353333D01*
X42489523Y-26353333D01*
X42584761Y-26400952D01*
X42632380Y-26448571D01*
X42680000Y-26543809D01*
X42680000Y-26781904D01*
X42632380Y-26877142D01*
X42584761Y-26924761D01*
X42489523Y-26972380D01*
X42251428Y-26972380D01*
X42156190Y-26924761D01*
X42108571Y-26877142D01*
X42965714Y-25972380D02*
X43299047Y-26972380D01*
X43632380Y-25972380D01*
X43918095Y-26924761D02*
X44060952Y-26972380D01*
X44299047Y-26972380D01*
X44394285Y-26924761D01*
X44441904Y-26877142D01*
X44489523Y-26781904D01*
X44489523Y-26686666D01*
X44441904Y-26591428D01*
X44394285Y-26543809D01*
X44299047Y-26496190D01*
X44108571Y-26448571D01*
X44013333Y-26400952D01*
X43965714Y-26353333D01*
X43918095Y-26258095D01*
X43918095Y-26162857D01*
X43965714Y-26067619D01*
X44013333Y-26020000D01*
X44108571Y-25972380D01*
X44346666Y-25972380D01*
X44489523Y-26020000D01*
X45251428Y-26448571D02*
X45394285Y-26496190D01*
X45441904Y-26543809D01*
X45489523Y-26639047D01*
X45489523Y-26781904D01*
X45441904Y-26877142D01*
X45394285Y-26924761D01*
X45299047Y-26972380D01*
X44918095Y-26972380D01*
X44918095Y-25972380D01*
X45251428Y-25972380D01*
X45346666Y-26020000D01*
X45394285Y-26067619D01*
X45441904Y-26162857D01*
X45441904Y-26258095D01*
X45394285Y-26353333D01*
X45346666Y-26400952D01*
X45251428Y-26448571D01*
X44918095Y-26448571D01*
G04 #@! TO.C,J15*
X60587142Y-28662380D02*
X60920476Y-29662380D01*
X61253809Y-28662380D01*
X61920476Y-29138571D02*
X62063333Y-29186190D01*
X62110952Y-29233809D01*
X62158571Y-29329047D01*
X62158571Y-29471904D01*
X62110952Y-29567142D01*
X62063333Y-29614761D01*
X61968095Y-29662380D01*
X61587142Y-29662380D01*
X61587142Y-28662380D01*
X61920476Y-28662380D01*
X62015714Y-28710000D01*
X62063333Y-28757619D01*
X62110952Y-28852857D01*
X62110952Y-28948095D01*
X62063333Y-29043333D01*
X62015714Y-29090952D01*
X61920476Y-29138571D01*
X61587142Y-29138571D01*
X62539523Y-29376666D02*
X63015714Y-29376666D01*
X62444285Y-29662380D02*
X62777619Y-28662380D01*
X63110952Y-29662380D01*
X63301428Y-28662380D02*
X63872857Y-28662380D01*
X63587142Y-29662380D02*
X63587142Y-28662380D01*
G04 #@! TO.C,J7*
X68397619Y-36012380D02*
X67921428Y-36012380D01*
X67921428Y-35012380D01*
X68921428Y-35012380D02*
X69111904Y-35012380D01*
X69207142Y-35060000D01*
X69302380Y-35155238D01*
X69350000Y-35345714D01*
X69350000Y-35679047D01*
X69302380Y-35869523D01*
X69207142Y-35964761D01*
X69111904Y-36012380D01*
X68921428Y-36012380D01*
X68826190Y-35964761D01*
X68730952Y-35869523D01*
X68683333Y-35679047D01*
X68683333Y-35345714D01*
X68730952Y-35155238D01*
X68826190Y-35060000D01*
X68921428Y-35012380D01*
X70302380Y-35060000D02*
X70207142Y-35012380D01*
X70064285Y-35012380D01*
X69921428Y-35060000D01*
X69826190Y-35155238D01*
X69778571Y-35250476D01*
X69730952Y-35440952D01*
X69730952Y-35583809D01*
X69778571Y-35774285D01*
X69826190Y-35869523D01*
X69921428Y-35964761D01*
X70064285Y-36012380D01*
X70159523Y-36012380D01*
X70302380Y-35964761D01*
X70350000Y-35917142D01*
X70350000Y-35583809D01*
X70159523Y-35583809D01*
X70778571Y-36012380D02*
X70778571Y-35012380D01*
X71826190Y-35917142D02*
X71778571Y-35964761D01*
X71635714Y-36012380D01*
X71540476Y-36012380D01*
X71397619Y-35964761D01*
X71302380Y-35869523D01*
X71254761Y-35774285D01*
X71207142Y-35583809D01*
X71207142Y-35440952D01*
X71254761Y-35250476D01*
X71302380Y-35155238D01*
X71397619Y-35060000D01*
X71540476Y-35012380D01*
X71635714Y-35012380D01*
X71778571Y-35060000D01*
X71826190Y-35107619D01*
G04 #@! TO.C,J8*
X47768095Y-35631428D02*
X48530000Y-35631428D01*
X48149047Y-36012380D02*
X48149047Y-35250476D01*
X49530000Y-36012380D02*
X48958571Y-36012380D01*
X49244285Y-36012380D02*
X49244285Y-35012380D01*
X49149047Y-35155238D01*
X49053809Y-35250476D01*
X48958571Y-35298095D01*
X49910952Y-35107619D02*
X49958571Y-35060000D01*
X50053809Y-35012380D01*
X50291904Y-35012380D01*
X50387142Y-35060000D01*
X50434761Y-35107619D01*
X50482380Y-35202857D01*
X50482380Y-35298095D01*
X50434761Y-35440952D01*
X49863333Y-36012380D01*
X50482380Y-36012380D01*
X50768095Y-35012380D02*
X51101428Y-36012380D01*
X51434761Y-35012380D01*
G04 #@! TO.C,J9*
X28480000Y-35631428D02*
X29241904Y-35631428D01*
X28860952Y-36012380D02*
X28860952Y-35250476D01*
X29622857Y-35012380D02*
X30241904Y-35012380D01*
X29908571Y-35393333D01*
X30051428Y-35393333D01*
X30146666Y-35440952D01*
X30194285Y-35488571D01*
X30241904Y-35583809D01*
X30241904Y-35821904D01*
X30194285Y-35917142D01*
X30146666Y-35964761D01*
X30051428Y-36012380D01*
X29765714Y-36012380D01*
X29670476Y-35964761D01*
X29622857Y-35917142D01*
X30670476Y-35917142D02*
X30718095Y-35964761D01*
X30670476Y-36012380D01*
X30622857Y-35964761D01*
X30670476Y-35917142D01*
X30670476Y-36012380D01*
X31051428Y-35012380D02*
X31670476Y-35012380D01*
X31337142Y-35393333D01*
X31480000Y-35393333D01*
X31575238Y-35440952D01*
X31622857Y-35488571D01*
X31670476Y-35583809D01*
X31670476Y-35821904D01*
X31622857Y-35917142D01*
X31575238Y-35964761D01*
X31480000Y-36012380D01*
X31194285Y-36012380D01*
X31099047Y-35964761D01*
X31051428Y-35917142D01*
X31956190Y-35012380D02*
X32289523Y-36012380D01*
X32622857Y-35012380D01*
G04 #@! TO.C,J10*
X54118095Y-35631428D02*
X54880000Y-35631428D01*
X55880000Y-36012380D02*
X55308571Y-36012380D01*
X55594285Y-36012380D02*
X55594285Y-35012380D01*
X55499047Y-35155238D01*
X55403809Y-35250476D01*
X55308571Y-35298095D01*
X56260952Y-35107619D02*
X56308571Y-35060000D01*
X56403809Y-35012380D01*
X56641904Y-35012380D01*
X56737142Y-35060000D01*
X56784761Y-35107619D01*
X56832380Y-35202857D01*
X56832380Y-35298095D01*
X56784761Y-35440952D01*
X56213333Y-36012380D01*
X56832380Y-36012380D01*
X57118095Y-35012380D02*
X57451428Y-36012380D01*
X57784761Y-35012380D01*
G04 #@! TO.C,J14*
X35544285Y-35631428D02*
X36306190Y-35631428D01*
X35925238Y-36012380D02*
X35925238Y-35250476D01*
X37258571Y-35012380D02*
X36782380Y-35012380D01*
X36734761Y-35488571D01*
X36782380Y-35440952D01*
X36877619Y-35393333D01*
X37115714Y-35393333D01*
X37210952Y-35440952D01*
X37258571Y-35488571D01*
X37306190Y-35583809D01*
X37306190Y-35821904D01*
X37258571Y-35917142D01*
X37210952Y-35964761D01*
X37115714Y-36012380D01*
X36877619Y-36012380D01*
X36782380Y-35964761D01*
X36734761Y-35917142D01*
X37591904Y-35012380D02*
X37925238Y-36012380D01*
X38258571Y-35012380D01*
G04 #@! TO.C,J2*
X61468095Y-35060000D02*
X61372857Y-35012380D01*
X61230000Y-35012380D01*
X61087142Y-35060000D01*
X60991904Y-35155238D01*
X60944285Y-35250476D01*
X60896666Y-35440952D01*
X60896666Y-35583809D01*
X60944285Y-35774285D01*
X60991904Y-35869523D01*
X61087142Y-35964761D01*
X61230000Y-36012380D01*
X61325238Y-36012380D01*
X61468095Y-35964761D01*
X61515714Y-35917142D01*
X61515714Y-35583809D01*
X61325238Y-35583809D01*
X61944285Y-36012380D02*
X61944285Y-35012380D01*
X62515714Y-36012380D01*
X62515714Y-35012380D01*
X62991904Y-36012380D02*
X62991904Y-35012380D01*
X63230000Y-35012380D01*
X63372857Y-35060000D01*
X63468095Y-35155238D01*
X63515714Y-35250476D01*
X63563333Y-35440952D01*
X63563333Y-35583809D01*
X63515714Y-35774285D01*
X63468095Y-35869523D01*
X63372857Y-35964761D01*
X63230000Y-36012380D01*
X62991904Y-36012380D01*
G04 #@! TO.C,J21*
X106878571Y-52427142D02*
X106830952Y-52474761D01*
X106688095Y-52522380D01*
X106592857Y-52522380D01*
X106450000Y-52474761D01*
X106354761Y-52379523D01*
X106307142Y-52284285D01*
X106259523Y-52093809D01*
X106259523Y-51950952D01*
X106307142Y-51760476D01*
X106354761Y-51665238D01*
X106450000Y-51570000D01*
X106592857Y-51522380D01*
X106688095Y-51522380D01*
X106830952Y-51570000D01*
X106878571Y-51617619D01*
X107783333Y-52522380D02*
X107307142Y-52522380D01*
X107307142Y-51522380D01*
X108116666Y-52522380D02*
X108116666Y-51522380D01*
X108688095Y-52522380D02*
X108259523Y-51950952D01*
X108688095Y-51522380D02*
X108116666Y-52093809D01*
X109545238Y-51855714D02*
X109545238Y-52522380D01*
X109307142Y-51474761D02*
X109069047Y-52189047D01*
X109688095Y-52189047D01*
G04 #@! TO.C,J18*
X91638571Y-52427142D02*
X91590952Y-52474761D01*
X91448095Y-52522380D01*
X91352857Y-52522380D01*
X91210000Y-52474761D01*
X91114761Y-52379523D01*
X91067142Y-52284285D01*
X91019523Y-52093809D01*
X91019523Y-51950952D01*
X91067142Y-51760476D01*
X91114761Y-51665238D01*
X91210000Y-51570000D01*
X91352857Y-51522380D01*
X91448095Y-51522380D01*
X91590952Y-51570000D01*
X91638571Y-51617619D01*
X92543333Y-52522380D02*
X92067142Y-52522380D01*
X92067142Y-51522380D01*
X92876666Y-52522380D02*
X92876666Y-51522380D01*
X93448095Y-52522380D02*
X93019523Y-51950952D01*
X93448095Y-51522380D02*
X92876666Y-52093809D01*
X93781428Y-51522380D02*
X94400476Y-51522380D01*
X94067142Y-51903333D01*
X94210000Y-51903333D01*
X94305238Y-51950952D01*
X94352857Y-51998571D01*
X94400476Y-52093809D01*
X94400476Y-52331904D01*
X94352857Y-52427142D01*
X94305238Y-52474761D01*
X94210000Y-52522380D01*
X93924285Y-52522380D01*
X93829047Y-52474761D01*
X93781428Y-52427142D01*
G04 #@! TO.C,J5*
X61158571Y-52427142D02*
X61110952Y-52474761D01*
X60968095Y-52522380D01*
X60872857Y-52522380D01*
X60730000Y-52474761D01*
X60634761Y-52379523D01*
X60587142Y-52284285D01*
X60539523Y-52093809D01*
X60539523Y-51950952D01*
X60587142Y-51760476D01*
X60634761Y-51665238D01*
X60730000Y-51570000D01*
X60872857Y-51522380D01*
X60968095Y-51522380D01*
X61110952Y-51570000D01*
X61158571Y-51617619D01*
X62063333Y-52522380D02*
X61587142Y-52522380D01*
X61587142Y-51522380D01*
X62396666Y-52522380D02*
X62396666Y-51522380D01*
X62968095Y-52522380D02*
X62539523Y-51950952D01*
X62968095Y-51522380D02*
X62396666Y-52093809D01*
X63920476Y-52522380D02*
X63349047Y-52522380D01*
X63634761Y-52522380D02*
X63634761Y-51522380D01*
X63539523Y-51665238D01*
X63444285Y-51760476D01*
X63349047Y-51808095D01*
G04 #@! TO.C,J13*
X76398571Y-52427142D02*
X76350952Y-52474761D01*
X76208095Y-52522380D01*
X76112857Y-52522380D01*
X75970000Y-52474761D01*
X75874761Y-52379523D01*
X75827142Y-52284285D01*
X75779523Y-52093809D01*
X75779523Y-51950952D01*
X75827142Y-51760476D01*
X75874761Y-51665238D01*
X75970000Y-51570000D01*
X76112857Y-51522380D01*
X76208095Y-51522380D01*
X76350952Y-51570000D01*
X76398571Y-51617619D01*
X77303333Y-52522380D02*
X76827142Y-52522380D01*
X76827142Y-51522380D01*
X77636666Y-52522380D02*
X77636666Y-51522380D01*
X78208095Y-52522380D02*
X77779523Y-51950952D01*
X78208095Y-51522380D02*
X77636666Y-52093809D01*
X78589047Y-51617619D02*
X78636666Y-51570000D01*
X78731904Y-51522380D01*
X78970000Y-51522380D01*
X79065238Y-51570000D01*
X79112857Y-51617619D01*
X79160476Y-51712857D01*
X79160476Y-51808095D01*
X79112857Y-51950952D01*
X78541428Y-52522380D01*
X79160476Y-52522380D01*
G04 #@! TO.C,J23*
X41092380Y-72667619D02*
X40092380Y-72667619D01*
X40806666Y-72334285D01*
X40092380Y-72000952D01*
X41092380Y-72000952D01*
X41092380Y-71524761D02*
X40092380Y-71524761D01*
X41044761Y-71096190D02*
X41092380Y-70953333D01*
X41092380Y-70715238D01*
X41044761Y-70620000D01*
X40997142Y-70572380D01*
X40901904Y-70524761D01*
X40806666Y-70524761D01*
X40711428Y-70572380D01*
X40663809Y-70620000D01*
X40616190Y-70715238D01*
X40568571Y-70905714D01*
X40520952Y-71000952D01*
X40473333Y-71048571D01*
X40378095Y-71096190D01*
X40282857Y-71096190D01*
X40187619Y-71048571D01*
X40140000Y-71000952D01*
X40092380Y-70905714D01*
X40092380Y-70667619D01*
X40140000Y-70524761D01*
X40997142Y-69524761D02*
X41044761Y-69572380D01*
X41092380Y-69715238D01*
X41092380Y-69810476D01*
X41044761Y-69953333D01*
X40949523Y-70048571D01*
X40854285Y-70096190D01*
X40663809Y-70143809D01*
X40520952Y-70143809D01*
X40330476Y-70096190D01*
X40235238Y-70048571D01*
X40140000Y-69953333D01*
X40092380Y-69810476D01*
X40092380Y-69715238D01*
X40140000Y-69572380D01*
X40187619Y-69524761D01*
G04 #@! TO.C,J16*
X86812380Y-101298095D02*
X86812380Y-101774285D01*
X85812380Y-101774285D01*
X86431428Y-100964761D02*
X86431428Y-100202857D01*
X86526666Y-99774285D02*
X86526666Y-99298095D01*
X86812380Y-99869523D02*
X85812380Y-99536190D01*
X86812380Y-99202857D01*
X86812380Y-98869523D02*
X85812380Y-98869523D01*
X85812380Y-98631428D01*
X85860000Y-98488571D01*
X85955238Y-98393333D01*
X86050476Y-98345714D01*
X86240952Y-98298095D01*
X86383809Y-98298095D01*
X86574285Y-98345714D01*
X86669523Y-98393333D01*
X86764761Y-98488571D01*
X86812380Y-98631428D01*
X86812380Y-98869523D01*
X86812380Y-97869523D02*
X85812380Y-97869523D01*
X85812380Y-97631428D01*
X85860000Y-97488571D01*
X85955238Y-97393333D01*
X86050476Y-97345714D01*
X86240952Y-97298095D01*
X86383809Y-97298095D01*
X86574285Y-97345714D01*
X86669523Y-97393333D01*
X86764761Y-97488571D01*
X86812380Y-97631428D01*
X86812380Y-97869523D01*
X86812380Y-96298095D02*
X86336190Y-96631428D01*
X86812380Y-96869523D02*
X85812380Y-96869523D01*
X85812380Y-96488571D01*
X85860000Y-96393333D01*
X85907619Y-96345714D01*
X86002857Y-96298095D01*
X86145714Y-96298095D01*
X86240952Y-96345714D01*
X86288571Y-96393333D01*
X86336190Y-96488571D01*
X86336190Y-96869523D01*
G04 #@! TO.C,J17*
X56332380Y-99964761D02*
X55332380Y-99964761D01*
X56332380Y-99488571D02*
X55332380Y-99488571D01*
X56332380Y-98917142D01*
X55332380Y-98917142D01*
X55332380Y-98583809D02*
X55332380Y-98012380D01*
X56332380Y-98298095D02*
X55332380Y-98298095D01*
G04 #@! TO.C,J19*
X117292380Y-73762857D02*
X116292380Y-73762857D01*
X116768571Y-73762857D02*
X116768571Y-73191428D01*
X117292380Y-73191428D02*
X116292380Y-73191428D01*
X116911428Y-72715238D02*
X116911428Y-71953333D01*
X117292380Y-71477142D02*
X116292380Y-71477142D01*
X116292380Y-71239047D01*
X116340000Y-71096190D01*
X116435238Y-71000952D01*
X116530476Y-70953333D01*
X116720952Y-70905714D01*
X116863809Y-70905714D01*
X117054285Y-70953333D01*
X117149523Y-71000952D01*
X117244761Y-71096190D01*
X117292380Y-71239047D01*
X117292380Y-71477142D01*
X117006666Y-70524761D02*
X117006666Y-70048571D01*
X117292380Y-70620000D02*
X116292380Y-70286666D01*
X117292380Y-69953333D01*
X116292380Y-69762857D02*
X116292380Y-69191428D01*
X117292380Y-69477142D02*
X116292380Y-69477142D01*
X117006666Y-68905714D02*
X117006666Y-68429523D01*
X117292380Y-69000952D02*
X116292380Y-68667619D01*
X117292380Y-68334285D01*
G04 #@! TO.C,J12*
X71572380Y-100321904D02*
X70572380Y-100321904D01*
X70572380Y-100083809D01*
X70620000Y-99940952D01*
X70715238Y-99845714D01*
X70810476Y-99798095D01*
X71000952Y-99750476D01*
X71143809Y-99750476D01*
X71334285Y-99798095D01*
X71429523Y-99845714D01*
X71524761Y-99940952D01*
X71572380Y-100083809D01*
X71572380Y-100321904D01*
X71572380Y-99321904D02*
X70572380Y-99321904D01*
X71286666Y-98988571D01*
X70572380Y-98655238D01*
X71572380Y-98655238D01*
X71286666Y-98226666D02*
X71286666Y-97750476D01*
X71572380Y-98321904D02*
X70572380Y-97988571D01*
X71572380Y-97655238D01*
G04 #@! TO.C,J11*
X102052380Y-101893333D02*
X101052380Y-101893333D01*
X101528571Y-101893333D02*
X101528571Y-101321904D01*
X102052380Y-101321904D02*
X101052380Y-101321904D01*
X101671428Y-100845714D02*
X101671428Y-100083809D01*
X101766666Y-99655238D02*
X101766666Y-99179047D01*
X102052380Y-99750476D02*
X101052380Y-99417142D01*
X102052380Y-99083809D01*
X102052380Y-98750476D02*
X101052380Y-98750476D01*
X101052380Y-98512380D01*
X101100000Y-98369523D01*
X101195238Y-98274285D01*
X101290476Y-98226666D01*
X101480952Y-98179047D01*
X101623809Y-98179047D01*
X101814285Y-98226666D01*
X101909523Y-98274285D01*
X102004761Y-98369523D01*
X102052380Y-98512380D01*
X102052380Y-98750476D01*
X102052380Y-97750476D02*
X101052380Y-97750476D01*
X101052380Y-97512380D01*
X101100000Y-97369523D01*
X101195238Y-97274285D01*
X101290476Y-97226666D01*
X101480952Y-97179047D01*
X101623809Y-97179047D01*
X101814285Y-97226666D01*
X101909523Y-97274285D01*
X102004761Y-97369523D01*
X102052380Y-97512380D01*
X102052380Y-97750476D01*
X102052380Y-96179047D02*
X101576190Y-96512380D01*
X102052380Y-96750476D02*
X101052380Y-96750476D01*
X101052380Y-96369523D01*
X101100000Y-96274285D01*
X101147619Y-96226666D01*
X101242857Y-96179047D01*
X101385714Y-96179047D01*
X101480952Y-96226666D01*
X101528571Y-96274285D01*
X101576190Y-96369523D01*
X101576190Y-96750476D01*
G04 #@! TO.C,J22*
X102052380Y-73167619D02*
X102052380Y-73643809D01*
X101052380Y-73643809D01*
X101671428Y-72834285D02*
X101671428Y-72072380D01*
X102052380Y-71596190D02*
X101052380Y-71596190D01*
X101052380Y-71358095D01*
X101100000Y-71215238D01*
X101195238Y-71120000D01*
X101290476Y-71072380D01*
X101480952Y-71024761D01*
X101623809Y-71024761D01*
X101814285Y-71072380D01*
X101909523Y-71120000D01*
X102004761Y-71215238D01*
X102052380Y-71358095D01*
X102052380Y-71596190D01*
X101766666Y-70643809D02*
X101766666Y-70167619D01*
X102052380Y-70739047D02*
X101052380Y-70405714D01*
X102052380Y-70072380D01*
X101052380Y-69881904D02*
X101052380Y-69310476D01*
X102052380Y-69596190D02*
X101052380Y-69596190D01*
X101766666Y-69024761D02*
X101766666Y-68548571D01*
X102052380Y-69120000D02*
X101052380Y-68786666D01*
X102052380Y-68453333D01*
G04 #@! TO.C,J24*
X71477142Y-72096190D02*
X71524761Y-72143809D01*
X71572380Y-72286666D01*
X71572380Y-72381904D01*
X71524761Y-72524761D01*
X71429523Y-72620000D01*
X71334285Y-72667619D01*
X71143809Y-72715238D01*
X71000952Y-72715238D01*
X70810476Y-72667619D01*
X70715238Y-72620000D01*
X70620000Y-72524761D01*
X70572380Y-72381904D01*
X70572380Y-72286666D01*
X70620000Y-72143809D01*
X70667619Y-72096190D01*
X70572380Y-71810476D02*
X70572380Y-71239047D01*
X71572380Y-71524761D02*
X70572380Y-71524761D01*
X71572380Y-70334285D02*
X71096190Y-70667619D01*
X71572380Y-70905714D02*
X70572380Y-70905714D01*
X70572380Y-70524761D01*
X70620000Y-70429523D01*
X70667619Y-70381904D01*
X70762857Y-70334285D01*
X70905714Y-70334285D01*
X71000952Y-70381904D01*
X71048571Y-70429523D01*
X71096190Y-70524761D01*
X71096190Y-70905714D01*
X71572380Y-69429523D02*
X71572380Y-69905714D01*
X70572380Y-69905714D01*
G04 #@! TO.C,J25*
X56284761Y-73286666D02*
X56332380Y-73143809D01*
X56332380Y-72905714D01*
X56284761Y-72810476D01*
X56237142Y-72762857D01*
X56141904Y-72715238D01*
X56046666Y-72715238D01*
X55951428Y-72762857D01*
X55903809Y-72810476D01*
X55856190Y-72905714D01*
X55808571Y-73096190D01*
X55760952Y-73191428D01*
X55713333Y-73239047D01*
X55618095Y-73286666D01*
X55522857Y-73286666D01*
X55427619Y-73239047D01*
X55380000Y-73191428D01*
X55332380Y-73096190D01*
X55332380Y-72858095D01*
X55380000Y-72715238D01*
X56332380Y-72286666D02*
X55332380Y-72286666D01*
X55332380Y-71905714D01*
X55380000Y-71810476D01*
X55427619Y-71762857D01*
X55522857Y-71715238D01*
X55665714Y-71715238D01*
X55760952Y-71762857D01*
X55808571Y-71810476D01*
X55856190Y-71905714D01*
X55856190Y-72286666D01*
X56046666Y-71334285D02*
X56046666Y-70858095D01*
X56332380Y-71429523D02*
X55332380Y-71096190D01*
X56332380Y-70762857D01*
X56332380Y-69858095D02*
X55856190Y-70191428D01*
X56332380Y-70429523D02*
X55332380Y-70429523D01*
X55332380Y-70048571D01*
X55380000Y-69953333D01*
X55427619Y-69905714D01*
X55522857Y-69858095D01*
X55665714Y-69858095D01*
X55760952Y-69905714D01*
X55808571Y-69953333D01*
X55856190Y-70048571D01*
X55856190Y-70429523D01*
X55808571Y-69429523D02*
X55808571Y-69096190D01*
X56332380Y-68953333D02*
X56332380Y-69429523D01*
X55332380Y-69429523D01*
X55332380Y-68953333D01*
G04 #@! TO.C,J4*
X86717142Y-72096190D02*
X86764761Y-72143809D01*
X86812380Y-72286666D01*
X86812380Y-72381904D01*
X86764761Y-72524761D01*
X86669523Y-72620000D01*
X86574285Y-72667619D01*
X86383809Y-72715238D01*
X86240952Y-72715238D01*
X86050476Y-72667619D01*
X85955238Y-72620000D01*
X85860000Y-72524761D01*
X85812380Y-72381904D01*
X85812380Y-72286666D01*
X85860000Y-72143809D01*
X85907619Y-72096190D01*
X85812380Y-71810476D02*
X85812380Y-71239047D01*
X86812380Y-71524761D02*
X85812380Y-71524761D01*
X86812380Y-70334285D02*
X86336190Y-70667619D01*
X86812380Y-70905714D02*
X85812380Y-70905714D01*
X85812380Y-70524761D01*
X85860000Y-70429523D01*
X85907619Y-70381904D01*
X86002857Y-70334285D01*
X86145714Y-70334285D01*
X86240952Y-70381904D01*
X86288571Y-70429523D01*
X86336190Y-70524761D01*
X86336190Y-70905714D01*
X86812380Y-69429523D02*
X86812380Y-69905714D01*
X85812380Y-69905714D01*
G04 #@! TO.C,J3*
X116292380Y-101940952D02*
X117292380Y-101274285D01*
X116292380Y-101274285D02*
X117292380Y-101940952D01*
X116911428Y-100893333D02*
X116911428Y-100131428D01*
X117006666Y-99702857D02*
X117006666Y-99226666D01*
X117292380Y-99798095D02*
X116292380Y-99464761D01*
X117292380Y-99131428D01*
X117292380Y-98798095D02*
X116292380Y-98798095D01*
X116292380Y-98560000D01*
X116340000Y-98417142D01*
X116435238Y-98321904D01*
X116530476Y-98274285D01*
X116720952Y-98226666D01*
X116863809Y-98226666D01*
X117054285Y-98274285D01*
X117149523Y-98321904D01*
X117244761Y-98417142D01*
X117292380Y-98560000D01*
X117292380Y-98798095D01*
X117292380Y-97798095D02*
X116292380Y-97798095D01*
X116292380Y-97560000D01*
X116340000Y-97417142D01*
X116435238Y-97321904D01*
X116530476Y-97274285D01*
X116720952Y-97226666D01*
X116863809Y-97226666D01*
X117054285Y-97274285D01*
X117149523Y-97321904D01*
X117244761Y-97417142D01*
X117292380Y-97560000D01*
X117292380Y-97798095D01*
X117292380Y-96226666D02*
X116816190Y-96560000D01*
X117292380Y-96798095D02*
X116292380Y-96798095D01*
X116292380Y-96417142D01*
X116340000Y-96321904D01*
X116387619Y-96274285D01*
X116482857Y-96226666D01*
X116625714Y-96226666D01*
X116720952Y-96274285D01*
X116768571Y-96321904D01*
X116816190Y-96417142D01*
X116816190Y-96798095D01*
G04 #@! TO.C,J20*
X41092380Y-99964761D02*
X40092380Y-99964761D01*
X41092380Y-99488571D02*
X40092380Y-99488571D01*
X41092380Y-98917142D01*
X40092380Y-98917142D01*
X40092380Y-98583809D02*
X40092380Y-98012380D01*
X41092380Y-98298095D02*
X40092380Y-98298095D01*
G04 #@! TO.C,R6*
X33004285Y-42632380D02*
X33623333Y-42632380D01*
X33290000Y-43013333D01*
X33432857Y-43013333D01*
X33528095Y-43060952D01*
X33575714Y-43108571D01*
X33623333Y-43203809D01*
X33623333Y-43441904D01*
X33575714Y-43537142D01*
X33528095Y-43584761D01*
X33432857Y-43632380D01*
X33147142Y-43632380D01*
X33051904Y-43584761D01*
X33004285Y-43537142D01*
X33956666Y-42632380D02*
X34575714Y-42632380D01*
X34242380Y-43013333D01*
X34385238Y-43013333D01*
X34480476Y-43060952D01*
X34528095Y-43108571D01*
X34575714Y-43203809D01*
X34575714Y-43441904D01*
X34528095Y-43537142D01*
X34480476Y-43584761D01*
X34385238Y-43632380D01*
X34099523Y-43632380D01*
X34004285Y-43584761D01*
X33956666Y-43537142D01*
X35194761Y-42632380D02*
X35290000Y-42632380D01*
X35385238Y-42680000D01*
X35432857Y-42727619D01*
X35480476Y-42822857D01*
X35528095Y-43013333D01*
X35528095Y-43251428D01*
X35480476Y-43441904D01*
X35432857Y-43537142D01*
X35385238Y-43584761D01*
X35290000Y-43632380D01*
X35194761Y-43632380D01*
X35099523Y-43584761D01*
X35051904Y-43537142D01*
X35004285Y-43441904D01*
X34956666Y-43251428D01*
X34956666Y-43013333D01*
X35004285Y-42822857D01*
X35051904Y-42727619D01*
X35099523Y-42680000D01*
X35194761Y-42632380D01*
G04 #@! TO.C,R1*
X77168571Y-42727619D02*
X77216190Y-42680000D01*
X77311428Y-42632380D01*
X77549523Y-42632380D01*
X77644761Y-42680000D01*
X77692380Y-42727619D01*
X77740000Y-42822857D01*
X77740000Y-42918095D01*
X77692380Y-43060952D01*
X77120952Y-43632380D01*
X77740000Y-43632380D01*
X78168571Y-43537142D02*
X78216190Y-43584761D01*
X78168571Y-43632380D01*
X78120952Y-43584761D01*
X78168571Y-43537142D01*
X78168571Y-43632380D01*
X78597142Y-42727619D02*
X78644761Y-42680000D01*
X78740000Y-42632380D01*
X78978095Y-42632380D01*
X79073333Y-42680000D01*
X79120952Y-42727619D01*
X79168571Y-42822857D01*
X79168571Y-42918095D01*
X79120952Y-43060952D01*
X78549523Y-43632380D01*
X79168571Y-43632380D01*
X79597142Y-43632380D02*
X79597142Y-42632380D01*
X79930476Y-43346666D01*
X80263809Y-42632380D01*
X80263809Y-43632380D01*
G04 #@! TO.C,R2*
X101417380Y-39242857D02*
X101417380Y-39814285D01*
X101417380Y-39528571D02*
X100417380Y-39528571D01*
X100560238Y-39623809D01*
X100655476Y-39719047D01*
X100703095Y-39814285D01*
X100417380Y-38623809D02*
X100417380Y-38528571D01*
X100465000Y-38433333D01*
X100512619Y-38385714D01*
X100607857Y-38338095D01*
X100798333Y-38290476D01*
X101036428Y-38290476D01*
X101226904Y-38338095D01*
X101322142Y-38385714D01*
X101369761Y-38433333D01*
X101417380Y-38528571D01*
X101417380Y-38623809D01*
X101369761Y-38719047D01*
X101322142Y-38766666D01*
X101226904Y-38814285D01*
X101036428Y-38861904D01*
X100798333Y-38861904D01*
X100607857Y-38814285D01*
X100512619Y-38766666D01*
X100465000Y-38719047D01*
X100417380Y-38623809D01*
X100417380Y-37671428D02*
X100417380Y-37576190D01*
X100465000Y-37480952D01*
X100512619Y-37433333D01*
X100607857Y-37385714D01*
X100798333Y-37338095D01*
X101036428Y-37338095D01*
X101226904Y-37385714D01*
X101322142Y-37433333D01*
X101369761Y-37480952D01*
X101417380Y-37576190D01*
X101417380Y-37671428D01*
X101369761Y-37766666D01*
X101322142Y-37814285D01*
X101226904Y-37861904D01*
X101036428Y-37909523D01*
X100798333Y-37909523D01*
X100607857Y-37861904D01*
X100512619Y-37814285D01*
X100465000Y-37766666D01*
X100417380Y-37671428D01*
X100417380Y-36719047D02*
X100417380Y-36623809D01*
X100465000Y-36528571D01*
X100512619Y-36480952D01*
X100607857Y-36433333D01*
X100798333Y-36385714D01*
X101036428Y-36385714D01*
X101226904Y-36433333D01*
X101322142Y-36480952D01*
X101369761Y-36528571D01*
X101417380Y-36623809D01*
X101417380Y-36719047D01*
X101369761Y-36814285D01*
X101322142Y-36861904D01*
X101226904Y-36909523D01*
X101036428Y-36957142D01*
X100798333Y-36957142D01*
X100607857Y-36909523D01*
X100512619Y-36861904D01*
X100465000Y-36814285D01*
X100417380Y-36719047D01*
G04 #@! TO.C,R3*
X98242380Y-39242857D02*
X98242380Y-39814285D01*
X98242380Y-39528571D02*
X97242380Y-39528571D01*
X97385238Y-39623809D01*
X97480476Y-39719047D01*
X97528095Y-39814285D01*
X97242380Y-38623809D02*
X97242380Y-38528571D01*
X97290000Y-38433333D01*
X97337619Y-38385714D01*
X97432857Y-38338095D01*
X97623333Y-38290476D01*
X97861428Y-38290476D01*
X98051904Y-38338095D01*
X98147142Y-38385714D01*
X98194761Y-38433333D01*
X98242380Y-38528571D01*
X98242380Y-38623809D01*
X98194761Y-38719047D01*
X98147142Y-38766666D01*
X98051904Y-38814285D01*
X97861428Y-38861904D01*
X97623333Y-38861904D01*
X97432857Y-38814285D01*
X97337619Y-38766666D01*
X97290000Y-38719047D01*
X97242380Y-38623809D01*
X97242380Y-37671428D02*
X97242380Y-37576190D01*
X97290000Y-37480952D01*
X97337619Y-37433333D01*
X97432857Y-37385714D01*
X97623333Y-37338095D01*
X97861428Y-37338095D01*
X98051904Y-37385714D01*
X98147142Y-37433333D01*
X98194761Y-37480952D01*
X98242380Y-37576190D01*
X98242380Y-37671428D01*
X98194761Y-37766666D01*
X98147142Y-37814285D01*
X98051904Y-37861904D01*
X97861428Y-37909523D01*
X97623333Y-37909523D01*
X97432857Y-37861904D01*
X97337619Y-37814285D01*
X97290000Y-37766666D01*
X97242380Y-37671428D01*
X97242380Y-36719047D02*
X97242380Y-36623809D01*
X97290000Y-36528571D01*
X97337619Y-36480952D01*
X97432857Y-36433333D01*
X97623333Y-36385714D01*
X97861428Y-36385714D01*
X98051904Y-36433333D01*
X98147142Y-36480952D01*
X98194761Y-36528571D01*
X98242380Y-36623809D01*
X98242380Y-36719047D01*
X98194761Y-36814285D01*
X98147142Y-36861904D01*
X98051904Y-36909523D01*
X97861428Y-36957142D01*
X97623333Y-36957142D01*
X97432857Y-36909523D01*
X97337619Y-36861904D01*
X97290000Y-36814285D01*
X97242380Y-36719047D01*
G04 #@! TO.C,R4*
X94400714Y-39195238D02*
X95067380Y-39195238D01*
X94019761Y-39433333D02*
X94734047Y-39671428D01*
X94734047Y-39052380D01*
X94972142Y-38671428D02*
X95019761Y-38623809D01*
X95067380Y-38671428D01*
X95019761Y-38719047D01*
X94972142Y-38671428D01*
X95067380Y-38671428D01*
X94067380Y-38290476D02*
X94067380Y-37623809D01*
X95067380Y-38052380D01*
X95067380Y-37242857D02*
X94067380Y-37242857D01*
X94781666Y-36909523D01*
X94067380Y-36576190D01*
X95067380Y-36576190D01*
G04 #@! TO.C,R7*
X33147142Y-53157380D02*
X32575714Y-53157380D01*
X32861428Y-53157380D02*
X32861428Y-52157380D01*
X32766190Y-52300238D01*
X32670952Y-52395476D01*
X32575714Y-52443095D01*
X34051904Y-52157380D02*
X33575714Y-52157380D01*
X33528095Y-52633571D01*
X33575714Y-52585952D01*
X33670952Y-52538333D01*
X33909047Y-52538333D01*
X34004285Y-52585952D01*
X34051904Y-52633571D01*
X34099523Y-52728809D01*
X34099523Y-52966904D01*
X34051904Y-53062142D01*
X34004285Y-53109761D01*
X33909047Y-53157380D01*
X33670952Y-53157380D01*
X33575714Y-53109761D01*
X33528095Y-53062142D01*
X34718571Y-52157380D02*
X34813809Y-52157380D01*
X34909047Y-52205000D01*
X34956666Y-52252619D01*
X35004285Y-52347857D01*
X35051904Y-52538333D01*
X35051904Y-52776428D01*
X35004285Y-52966904D01*
X34956666Y-53062142D01*
X34909047Y-53109761D01*
X34813809Y-53157380D01*
X34718571Y-53157380D01*
X34623333Y-53109761D01*
X34575714Y-53062142D01*
X34528095Y-52966904D01*
X34480476Y-52776428D01*
X34480476Y-52538333D01*
X34528095Y-52347857D01*
X34575714Y-52252619D01*
X34623333Y-52205000D01*
X34718571Y-52157380D01*
X35670952Y-52157380D02*
X35766190Y-52157380D01*
X35861428Y-52205000D01*
X35909047Y-52252619D01*
X35956666Y-52347857D01*
X36004285Y-52538333D01*
X36004285Y-52776428D01*
X35956666Y-52966904D01*
X35909047Y-53062142D01*
X35861428Y-53109761D01*
X35766190Y-53157380D01*
X35670952Y-53157380D01*
X35575714Y-53109761D01*
X35528095Y-53062142D01*
X35480476Y-52966904D01*
X35432857Y-52776428D01*
X35432857Y-52538333D01*
X35480476Y-52347857D01*
X35528095Y-52252619D01*
X35575714Y-52205000D01*
X35670952Y-52157380D01*
G04 #@! TO.C,R8*
X33528095Y-46140714D02*
X33528095Y-46807380D01*
X33290000Y-45759761D02*
X33051904Y-46474047D01*
X33670952Y-46474047D01*
X33956666Y-45807380D02*
X34623333Y-45807380D01*
X34194761Y-46807380D01*
X35194761Y-45807380D02*
X35290000Y-45807380D01*
X35385238Y-45855000D01*
X35432857Y-45902619D01*
X35480476Y-45997857D01*
X35528095Y-46188333D01*
X35528095Y-46426428D01*
X35480476Y-46616904D01*
X35432857Y-46712142D01*
X35385238Y-46759761D01*
X35290000Y-46807380D01*
X35194761Y-46807380D01*
X35099523Y-46759761D01*
X35051904Y-46712142D01*
X35004285Y-46616904D01*
X34956666Y-46426428D01*
X34956666Y-46188333D01*
X35004285Y-45997857D01*
X35051904Y-45902619D01*
X35099523Y-45855000D01*
X35194761Y-45807380D01*
G04 #@! TO.C,R9*
X47117142Y-43632380D02*
X46545714Y-43632380D01*
X46831428Y-43632380D02*
X46831428Y-42632380D01*
X46736190Y-42775238D01*
X46640952Y-42870476D01*
X46545714Y-42918095D01*
X48021904Y-42632380D02*
X47545714Y-42632380D01*
X47498095Y-43108571D01*
X47545714Y-43060952D01*
X47640952Y-43013333D01*
X47879047Y-43013333D01*
X47974285Y-43060952D01*
X48021904Y-43108571D01*
X48069523Y-43203809D01*
X48069523Y-43441904D01*
X48021904Y-43537142D01*
X47974285Y-43584761D01*
X47879047Y-43632380D01*
X47640952Y-43632380D01*
X47545714Y-43584761D01*
X47498095Y-43537142D01*
X48688571Y-42632380D02*
X48783809Y-42632380D01*
X48879047Y-42680000D01*
X48926666Y-42727619D01*
X48974285Y-42822857D01*
X49021904Y-43013333D01*
X49021904Y-43251428D01*
X48974285Y-43441904D01*
X48926666Y-43537142D01*
X48879047Y-43584761D01*
X48783809Y-43632380D01*
X48688571Y-43632380D01*
X48593333Y-43584761D01*
X48545714Y-43537142D01*
X48498095Y-43441904D01*
X48450476Y-43251428D01*
X48450476Y-43013333D01*
X48498095Y-42822857D01*
X48545714Y-42727619D01*
X48593333Y-42680000D01*
X48688571Y-42632380D01*
X49640952Y-42632380D02*
X49736190Y-42632380D01*
X49831428Y-42680000D01*
X49879047Y-42727619D01*
X49926666Y-42822857D01*
X49974285Y-43013333D01*
X49974285Y-43251428D01*
X49926666Y-43441904D01*
X49879047Y-43537142D01*
X49831428Y-43584761D01*
X49736190Y-43632380D01*
X49640952Y-43632380D01*
X49545714Y-43584761D01*
X49498095Y-43537142D01*
X49450476Y-43441904D01*
X49402857Y-43251428D01*
X49402857Y-43013333D01*
X49450476Y-42822857D01*
X49498095Y-42727619D01*
X49545714Y-42680000D01*
X49640952Y-42632380D01*
G04 #@! TO.C,R5*
X85217142Y-28392380D02*
X84645714Y-28392380D01*
X84931428Y-28392380D02*
X84931428Y-27392380D01*
X84836190Y-27535238D01*
X84740952Y-27630476D01*
X84645714Y-27678095D01*
X85836190Y-27392380D02*
X85931428Y-27392380D01*
X86026666Y-27440000D01*
X86074285Y-27487619D01*
X86121904Y-27582857D01*
X86169523Y-27773333D01*
X86169523Y-28011428D01*
X86121904Y-28201904D01*
X86074285Y-28297142D01*
X86026666Y-28344761D01*
X85931428Y-28392380D01*
X85836190Y-28392380D01*
X85740952Y-28344761D01*
X85693333Y-28297142D01*
X85645714Y-28201904D01*
X85598095Y-28011428D01*
X85598095Y-27773333D01*
X85645714Y-27582857D01*
X85693333Y-27487619D01*
X85740952Y-27440000D01*
X85836190Y-27392380D01*
X86788571Y-27392380D02*
X86883809Y-27392380D01*
X86979047Y-27440000D01*
X87026666Y-27487619D01*
X87074285Y-27582857D01*
X87121904Y-27773333D01*
X87121904Y-28011428D01*
X87074285Y-28201904D01*
X87026666Y-28297142D01*
X86979047Y-28344761D01*
X86883809Y-28392380D01*
X86788571Y-28392380D01*
X86693333Y-28344761D01*
X86645714Y-28297142D01*
X86598095Y-28201904D01*
X86550476Y-28011428D01*
X86550476Y-27773333D01*
X86598095Y-27582857D01*
X86645714Y-27487619D01*
X86693333Y-27440000D01*
X86788571Y-27392380D01*
X87740952Y-27392380D02*
X87836190Y-27392380D01*
X87931428Y-27440000D01*
X87979047Y-27487619D01*
X88026666Y-27582857D01*
X88074285Y-27773333D01*
X88074285Y-28011428D01*
X88026666Y-28201904D01*
X87979047Y-28297142D01*
X87931428Y-28344761D01*
X87836190Y-28392380D01*
X87740952Y-28392380D01*
X87645714Y-28344761D01*
X87598095Y-28297142D01*
X87550476Y-28201904D01*
X87502857Y-28011428D01*
X87502857Y-27773333D01*
X87550476Y-27582857D01*
X87598095Y-27487619D01*
X87645714Y-27440000D01*
X87740952Y-27392380D01*
G04 #@! TO.C,R10*
X33528095Y-49315714D02*
X33528095Y-49982380D01*
X33290000Y-48934761D02*
X33051904Y-49649047D01*
X33670952Y-49649047D01*
X33956666Y-48982380D02*
X34623333Y-48982380D01*
X34194761Y-49982380D01*
X35194761Y-48982380D02*
X35290000Y-48982380D01*
X35385238Y-49030000D01*
X35432857Y-49077619D01*
X35480476Y-49172857D01*
X35528095Y-49363333D01*
X35528095Y-49601428D01*
X35480476Y-49791904D01*
X35432857Y-49887142D01*
X35385238Y-49934761D01*
X35290000Y-49982380D01*
X35194761Y-49982380D01*
X35099523Y-49934761D01*
X35051904Y-49887142D01*
X35004285Y-49791904D01*
X34956666Y-49601428D01*
X34956666Y-49363333D01*
X35004285Y-49172857D01*
X35051904Y-49077619D01*
X35099523Y-49030000D01*
X35194761Y-48982380D01*
G04 #@! TD*
M02*
