M48
;DRILL file {KiCad (5.0.1)-3} date 11/20/2018 12:07:33 PM
;FORMAT={-:-/ absolute / inch / decimal}
FMAT,2
INCH,TZ
T1C0.0157
T2C0.0315
T3C0.0320
T4C0.0354
T5C0.0394
T6C0.0870
%
G90
G05
M72
T1
X1.05Y-1.05
X1.05Y-4.85
X1.2Y-4.575
X1.375Y-4.8
X1.45Y-1.875
X1.7535Y-4.6726
X1.7593Y-4.5094
X1.7846Y-2.6698
X1.85Y-1.625
X1.9Y-2.45
X1.9124Y-3.6335
X1.925Y-1.325
X1.925Y-2.2
X2.2518Y-4.5111
X2.478Y-4.5009
X2.4799Y-3.8371
X2.825Y-1.425
X2.85Y-3.375
X2.85Y-3.675
X2.85Y-4.45
X2.925Y-2.775
X2.925Y-3.775
X3.Y-1.325
X3.1Y-1.475
X3.1Y-2.775
X3.1128Y-3.3473
X3.1462Y-3.2158
X3.425Y-1.375
X3.7Y-2.775
X3.7535Y-3.9984
X3.9343Y-4.2935
X4.075Y-3.4
X4.1171Y-4.5128
X4.211Y-4.2044
X4.2659Y-4.3995
X4.275Y-2.8
X4.275Y-3.225
X4.275Y-3.75
X4.45Y-3.425
X4.85Y-1.05
X4.85Y-4.85
T2
X3.725Y-1.3
X3.725Y-1.7
X2.95Y-1.25
X2.95Y-1.55
X3.05Y-1.25
X3.05Y-1.55
X3.15Y-1.25
X3.15Y-1.55
X3.25Y-1.25
X3.25Y-1.55
X3.35Y-1.25
X3.35Y-1.55
X3.45Y-1.25
X3.45Y-1.55
X3.55Y-1.25
X3.55Y-1.55
X3.975Y-1.3
X3.975Y-1.7
X1.15Y-1.7
X1.55Y-1.7
X1.15Y-2.075
X1.55Y-2.075
X1.15Y-1.825
X1.55Y-1.825
X3.4031Y-1.7
X3.6Y-1.7
X3.2Y-1.1
X3.6Y-1.1
X1.7Y-1.7
X2.1Y-1.7
X1.15Y-1.95
X1.55Y-1.95
X3.85Y-1.3
X3.85Y-1.7
X2.9031Y-1.1
X3.1Y-1.1
X2.9Y-1.7
X3.3Y-1.7
T3
X1.45Y-4.6
X1.45Y-4.75
X1.5Y-4.675
X1.5Y-4.825
X1.55Y-4.6
X1.55Y-4.75
X1.6Y-4.675
X1.6Y-4.825
X1.65Y-4.6
X1.65Y-4.75
X1.7Y-4.675
X1.7Y-4.825
X1.75Y-4.6
X1.75Y-4.75
X1.8Y-4.675
X1.8Y-4.825
X1.85Y-4.6
X1.85Y-4.75
X1.9Y-4.675
X1.9Y-4.825
X1.95Y-4.6
X1.95Y-4.75
X2.Y-4.675
X2.Y-4.825
X2.05Y-4.6
X2.05Y-4.75
X2.1Y-4.675
X2.1Y-4.825
X2.15Y-4.6
X2.15Y-4.75
X2.2Y-4.675
X2.2Y-4.825
X2.25Y-4.6
X2.25Y-4.75
X2.3Y-4.675
X2.3Y-4.825
X2.35Y-4.6
X2.35Y-4.75
X2.4Y-4.675
X2.4Y-4.825
X2.45Y-4.6
X2.45Y-4.75
X2.5Y-4.675
X2.5Y-4.825
X2.55Y-4.6
X2.55Y-4.75
X2.6Y-4.675
X2.6Y-4.825
X2.65Y-4.6
X2.65Y-4.75
X2.7Y-4.675
X2.7Y-4.825
X2.75Y-4.6
X2.75Y-4.75
X2.8Y-4.675
X2.8Y-4.825
X2.85Y-4.6
X2.85Y-4.75
X2.9Y-4.675
X2.9Y-4.825
X2.95Y-4.6
X2.95Y-4.75
X3.Y-4.675
X3.Y-4.825
X3.05Y-4.6
X3.05Y-4.75
X3.1Y-4.675
X3.1Y-4.825
X3.15Y-4.6
X3.15Y-4.75
X3.2Y-4.675
X3.2Y-4.825
X3.25Y-4.6
X3.25Y-4.75
X3.3Y-4.675
X3.3Y-4.825
X3.35Y-4.6
X3.35Y-4.75
X3.4Y-4.675
X3.4Y-4.825
X3.45Y-4.6
X3.45Y-4.75
X3.5Y-4.675
X3.5Y-4.825
X3.55Y-4.6
X3.55Y-4.75
X3.6Y-4.675
X3.6Y-4.825
X3.65Y-4.6
X3.65Y-4.75
X3.7Y-4.675
X3.7Y-4.825
X3.75Y-4.6
X3.75Y-4.75
X3.8Y-4.675
X3.8Y-4.825
X3.85Y-4.6
X3.85Y-4.75
X3.9Y-4.675
X3.9Y-4.825
X3.95Y-4.6
X3.95Y-4.75
X4.Y-4.675
X4.Y-4.825
X4.05Y-4.6
X4.05Y-4.75
X4.1Y-4.675
X4.1Y-4.825
X4.15Y-4.6
X4.15Y-4.75
X4.2Y-4.675
X4.2Y-4.825
X4.25Y-4.6
X4.25Y-4.75
X4.3Y-4.675
X4.3Y-4.825
X4.35Y-4.6
X4.35Y-4.75
X4.4Y-4.675
X4.4Y-4.825
T4
X1.4Y-1.2
X1.5Y-1.2
X4.65Y-1.2
X4.75Y-1.2
X1.15Y-1.2
X1.25Y-1.2
X1.65Y-1.2
X1.75Y-1.2
X1.9Y-1.2
X2.Y-1.2
X2.15Y-1.2
X2.25Y-1.2
X4.4Y-1.2
X4.5Y-1.2
X4.15Y-1.2
X4.25Y-1.2
T5
X3.2Y-2.45
X3.2Y-2.55
X3.2Y-2.65
X3.2Y-2.75
X3.2Y-2.85
X3.2Y-2.95
X3.2Y-3.05
X3.2Y-3.15
X3.3Y-2.45
X3.3Y-2.55
X3.3Y-2.65
X3.3Y-2.75
X3.3Y-2.85
X3.3Y-2.95
X3.3Y-3.05
X3.3Y-3.15
X3.2Y-2.05
X3.3Y-2.05
X2.Y-3.55
X2.Y-3.65
X2.Y-3.75
X2.Y-3.85
X2.Y-3.95
X2.Y-4.05
X2.Y-4.15
X2.Y-4.25
X2.1Y-3.55
X2.1Y-3.65
X2.1Y-3.75
X2.1Y-3.85
X2.1Y-3.95
X2.1Y-4.05
X2.1Y-4.15
X2.1Y-4.25
X2.45Y-1.25
X2.Y-2.45
X2.Y-2.55
X2.Y-2.65
X2.Y-2.75
X2.Y-2.85
X2.Y-2.95
X2.Y-3.05
X2.Y-3.15
X2.1Y-2.45
X2.1Y-2.55
X2.1Y-2.65
X2.1Y-2.75
X2.1Y-2.85
X2.1Y-2.95
X2.1Y-3.05
X2.1Y-3.15
X2.6Y-2.45
X2.6Y-2.55
X2.6Y-2.65
X2.6Y-2.75
X2.6Y-2.85
X2.6Y-2.95
X2.6Y-3.05
X2.6Y-3.15
X2.7Y-2.45
X2.7Y-2.55
X2.7Y-2.65
X2.7Y-2.75
X2.7Y-2.85
X2.7Y-2.95
X2.7Y-3.05
X2.7Y-3.15
X2.2Y-1.5
X1.7Y-1.5
X3.8Y-2.45
X3.8Y-2.55
X3.8Y-2.65
X3.8Y-2.75
X3.8Y-2.85
X3.8Y-2.95
X3.8Y-3.05
X3.8Y-3.15
X3.9Y-2.45
X3.9Y-2.55
X3.9Y-2.65
X3.9Y-2.75
X3.9Y-2.85
X3.9Y-2.95
X3.9Y-3.05
X3.9Y-3.15
X3.2Y-3.55
X3.2Y-3.65
X3.2Y-3.75
X3.2Y-3.85
X3.2Y-3.95
X3.2Y-4.05
X3.2Y-4.15
X3.2Y-4.25
X3.3Y-3.55
X3.3Y-3.65
X3.3Y-3.75
X3.3Y-3.85
X3.3Y-3.95
X3.3Y-4.05
X3.3Y-4.15
X3.3Y-4.25
X2.45Y-1.5
X1.95Y-1.5
X3.8Y-2.05
X3.9Y-2.05
X4.4Y-3.55
X4.4Y-3.65
X4.4Y-3.75
X4.4Y-3.85
X4.4Y-3.95
X4.4Y-4.05
X4.4Y-4.15
X4.4Y-4.25
X4.5Y-3.55
X4.5Y-3.65
X4.5Y-3.75
X4.5Y-3.85
X4.5Y-3.95
X4.5Y-4.05
X4.5Y-4.15
X4.5Y-4.25
X1.4Y-3.55
X1.4Y-3.65
X1.4Y-3.75
X1.4Y-3.85
X1.4Y-3.95
X1.4Y-4.05
X1.4Y-4.15
X1.4Y-4.25
X1.5Y-3.55
X1.5Y-3.65
X1.5Y-3.75
X1.5Y-3.85
X1.5Y-3.95
X1.5Y-4.05
X1.5Y-4.15
X1.5Y-4.25
X2.6Y-2.05
X2.7Y-2.05
X4.4Y-2.05
X4.5Y-2.05
X1.9Y-1.95
X1.9Y-2.05
X2.Y-1.95
X2.Y-2.05
X2.1Y-1.95
X2.1Y-2.05
X2.75Y-1.5
X2.6Y-3.55
X2.6Y-3.65
X2.6Y-3.75
X2.6Y-3.85
X2.6Y-3.95
X2.6Y-4.05
X2.6Y-4.15
X2.6Y-4.25
X2.7Y-3.55
X2.7Y-3.65
X2.7Y-3.75
X2.7Y-3.85
X2.7Y-3.95
X2.7Y-4.05
X2.7Y-4.15
X2.7Y-4.25
X3.8Y-3.55
X3.8Y-3.65
X3.8Y-3.75
X3.8Y-3.85
X3.8Y-3.95
X3.8Y-4.05
X3.8Y-4.15
X3.8Y-4.25
X3.9Y-3.55
X3.9Y-3.65
X3.9Y-3.75
X3.9Y-3.85
X3.9Y-3.95
X3.9Y-4.05
X3.9Y-4.15
X3.9Y-4.25
X1.45Y-1.5
X1.2Y-1.5
X4.4Y-2.45
X4.4Y-2.55
X4.4Y-2.65
X4.4Y-2.75
X4.4Y-2.85
X4.4Y-2.95
X4.4Y-3.05
X4.4Y-3.15
X4.5Y-2.45
X4.5Y-2.55
X4.5Y-2.65
X4.5Y-2.75
X4.5Y-2.85
X4.5Y-2.95
X4.5Y-3.05
X4.5Y-3.15
X1.4Y-2.45
X1.4Y-2.55
X1.4Y-2.65
X1.4Y-2.75
X1.4Y-2.85
X1.4Y-2.95
X1.4Y-3.05
X1.4Y-3.15
X1.5Y-2.45
X1.5Y-2.55
X1.5Y-2.65
X1.5Y-2.75
X1.5Y-2.85
X1.5Y-2.95
X1.5Y-3.05
X1.5Y-3.15
T6
X1.275Y-4.713
X4.625Y-4.713
T0
M30
