G04 #@! TF.GenerationSoftware,KiCad,Pcbnew,(5.0.2)-1*
G04 #@! TF.CreationDate,2019-01-03T08:34:52-07:00*
G04 #@! TF.ProjectId,8085 CPU,38303835-2043-4505-952e-6b696361645f,rev?*
G04 #@! TF.SameCoordinates,Original*
G04 #@! TF.FileFunction,Legend,Top*
G04 #@! TF.FilePolarity,Positive*
%FSLAX46Y46*%
G04 Gerber Fmt 4.6, Leading zero omitted, Abs format (unit mm)*
G04 Created by KiCad (PCBNEW (5.0.2)-1) date 1/3/2019 8:34:52 AM*
%MOMM*%
%LPD*%
G01*
G04 APERTURE LIST*
%ADD10C,0.300000*%
%ADD11C,0.010000*%
%ADD12C,0.120000*%
%ADD13C,0.152400*%
%ADD14C,0.150000*%
%ADD15C,0.254000*%
G04 APERTURE END LIST*
D10*
X117931428Y-118210714D02*
X117860000Y-118353571D01*
X117788571Y-118425000D01*
X117645714Y-118496428D01*
X117574285Y-118496428D01*
X117431428Y-118425000D01*
X117360000Y-118353571D01*
X117288571Y-118210714D01*
X117288571Y-117925000D01*
X117360000Y-117782142D01*
X117431428Y-117710714D01*
X117574285Y-117639285D01*
X117645714Y-117639285D01*
X117788571Y-117710714D01*
X117860000Y-117782142D01*
X117931428Y-117925000D01*
X117931428Y-118210714D01*
X118002857Y-118353571D01*
X118074285Y-118425000D01*
X118217142Y-118496428D01*
X118502857Y-118496428D01*
X118645714Y-118425000D01*
X118717142Y-118353571D01*
X118788571Y-118210714D01*
X118788571Y-117925000D01*
X118717142Y-117782142D01*
X118645714Y-117710714D01*
X118502857Y-117639285D01*
X118217142Y-117639285D01*
X118074285Y-117710714D01*
X118002857Y-117782142D01*
X117931428Y-117925000D01*
X117288571Y-116710714D02*
X117288571Y-116567857D01*
X117360000Y-116425000D01*
X117431428Y-116353571D01*
X117574285Y-116282142D01*
X117860000Y-116210714D01*
X118217142Y-116210714D01*
X118502857Y-116282142D01*
X118645714Y-116353571D01*
X118717142Y-116425000D01*
X118788571Y-116567857D01*
X118788571Y-116710714D01*
X118717142Y-116853571D01*
X118645714Y-116925000D01*
X118502857Y-116996428D01*
X118217142Y-117067857D01*
X117860000Y-117067857D01*
X117574285Y-116996428D01*
X117431428Y-116925000D01*
X117360000Y-116853571D01*
X117288571Y-116710714D01*
X117931428Y-115353571D02*
X117860000Y-115496428D01*
X117788571Y-115567857D01*
X117645714Y-115639285D01*
X117574285Y-115639285D01*
X117431428Y-115567857D01*
X117360000Y-115496428D01*
X117288571Y-115353571D01*
X117288571Y-115067857D01*
X117360000Y-114925000D01*
X117431428Y-114853571D01*
X117574285Y-114782142D01*
X117645714Y-114782142D01*
X117788571Y-114853571D01*
X117860000Y-114925000D01*
X117931428Y-115067857D01*
X117931428Y-115353571D01*
X118002857Y-115496428D01*
X118074285Y-115567857D01*
X118217142Y-115639285D01*
X118502857Y-115639285D01*
X118645714Y-115567857D01*
X118717142Y-115496428D01*
X118788571Y-115353571D01*
X118788571Y-115067857D01*
X118717142Y-114925000D01*
X118645714Y-114853571D01*
X118502857Y-114782142D01*
X118217142Y-114782142D01*
X118074285Y-114853571D01*
X118002857Y-114925000D01*
X117931428Y-115067857D01*
X117288571Y-113425000D02*
X117288571Y-114139285D01*
X118002857Y-114210714D01*
X117931428Y-114139285D01*
X117860000Y-113996428D01*
X117860000Y-113639285D01*
X117931428Y-113496428D01*
X118002857Y-113425000D01*
X118145714Y-113353571D01*
X118502857Y-113353571D01*
X118645714Y-113425000D01*
X118717142Y-113496428D01*
X118788571Y-113639285D01*
X118788571Y-113996428D01*
X118717142Y-114139285D01*
X118645714Y-114210714D01*
X118645714Y-110710714D02*
X118717142Y-110782142D01*
X118788571Y-110996428D01*
X118788571Y-111139285D01*
X118717142Y-111353571D01*
X118574285Y-111496428D01*
X118431428Y-111567857D01*
X118145714Y-111639285D01*
X117931428Y-111639285D01*
X117645714Y-111567857D01*
X117502857Y-111496428D01*
X117360000Y-111353571D01*
X117288571Y-111139285D01*
X117288571Y-110996428D01*
X117360000Y-110782142D01*
X117431428Y-110710714D01*
X118788571Y-110067857D02*
X117288571Y-110067857D01*
X117288571Y-109496428D01*
X117360000Y-109353571D01*
X117431428Y-109282142D01*
X117574285Y-109210714D01*
X117788571Y-109210714D01*
X117931428Y-109282142D01*
X118002857Y-109353571D01*
X118074285Y-109496428D01*
X118074285Y-110067857D01*
X117288571Y-108567857D02*
X118502857Y-108567857D01*
X118645714Y-108496428D01*
X118717142Y-108425000D01*
X118788571Y-108282142D01*
X118788571Y-107996428D01*
X118717142Y-107853571D01*
X118645714Y-107782142D01*
X118502857Y-107710714D01*
X117288571Y-107710714D01*
X117788571Y-105996428D02*
X118788571Y-105710714D01*
X118074285Y-105425000D01*
X118788571Y-105139285D01*
X117788571Y-104853571D01*
X118788571Y-104282142D02*
X117788571Y-104282142D01*
X117288571Y-104282142D02*
X117360000Y-104353571D01*
X117431428Y-104282142D01*
X117360000Y-104210714D01*
X117288571Y-104282142D01*
X117431428Y-104282142D01*
X117788571Y-103782142D02*
X117788571Y-103210714D01*
X117288571Y-103567857D02*
X118574285Y-103567857D01*
X118717142Y-103496428D01*
X118788571Y-103353571D01*
X118788571Y-103210714D01*
X118788571Y-102710714D02*
X117288571Y-102710714D01*
X118788571Y-102067857D02*
X118002857Y-102067857D01*
X117860000Y-102139285D01*
X117788571Y-102282142D01*
X117788571Y-102496428D01*
X117860000Y-102639285D01*
X117931428Y-102710714D01*
X118788571Y-100210714D02*
X117288571Y-100210714D01*
X118360000Y-99710714D01*
X117288571Y-99210714D01*
X118788571Y-99210714D01*
X118788571Y-98496428D02*
X117288571Y-98496428D01*
X118360000Y-97996428D01*
X117288571Y-97496428D01*
X118788571Y-97496428D01*
X117288571Y-96782142D02*
X118502857Y-96782142D01*
X118645714Y-96710714D01*
X118717142Y-96639285D01*
X118788571Y-96496428D01*
X118788571Y-96210714D01*
X118717142Y-96067857D01*
X118645714Y-95996428D01*
X118502857Y-95925000D01*
X117288571Y-95925000D01*
X118217142Y-94067857D02*
X118217142Y-92925000D01*
X118360000Y-91139285D02*
X118360000Y-90425000D01*
X118788571Y-91282142D02*
X117288571Y-90782142D01*
X118788571Y-90282142D01*
X118002857Y-89282142D02*
X118074285Y-89067857D01*
X118145714Y-88996428D01*
X118288571Y-88925000D01*
X118502857Y-88925000D01*
X118645714Y-88996428D01*
X118717142Y-89067857D01*
X118788571Y-89210714D01*
X118788571Y-89782142D01*
X117288571Y-89782142D01*
X117288571Y-89282142D01*
X117360000Y-89139285D01*
X117431428Y-89067857D01*
X117574285Y-88996428D01*
X117717142Y-88996428D01*
X117860000Y-89067857D01*
X117931428Y-89139285D01*
X118002857Y-89282142D01*
X118002857Y-89782142D01*
X117288571Y-87996428D02*
X117288571Y-87853571D01*
X117360000Y-87710714D01*
X117431428Y-87639285D01*
X117574285Y-87567857D01*
X117860000Y-87496428D01*
X118217142Y-87496428D01*
X118502857Y-87567857D01*
X118645714Y-87639285D01*
X118717142Y-87710714D01*
X118788571Y-87853571D01*
X118788571Y-87996428D01*
X118717142Y-88139285D01*
X118645714Y-88210714D01*
X118502857Y-88282142D01*
X118217142Y-88353571D01*
X117860000Y-88353571D01*
X117574285Y-88282142D01*
X117431428Y-88210714D01*
X117360000Y-88139285D01*
X117288571Y-87996428D01*
X117288571Y-87067857D02*
X117288571Y-86210714D01*
X118788571Y-86639285D02*
X117288571Y-86639285D01*
X117288571Y-85282142D02*
X118360000Y-85282142D01*
X118574285Y-85353571D01*
X118717142Y-85496428D01*
X118788571Y-85710714D01*
X118788571Y-85853571D01*
X117431428Y-83496428D02*
X117360000Y-83425000D01*
X117288571Y-83282142D01*
X117288571Y-82925000D01*
X117360000Y-82782142D01*
X117431428Y-82710714D01*
X117574285Y-82639285D01*
X117717142Y-82639285D01*
X117931428Y-82710714D01*
X118788571Y-83567857D01*
X118788571Y-82639285D01*
X117288571Y-81710714D02*
X117288571Y-81567857D01*
X117360000Y-81425000D01*
X117431428Y-81353571D01*
X117574285Y-81282142D01*
X117860000Y-81210714D01*
X118217142Y-81210714D01*
X118502857Y-81282142D01*
X118645714Y-81353571D01*
X118717142Y-81425000D01*
X118788571Y-81567857D01*
X118788571Y-81710714D01*
X118717142Y-81853571D01*
X118645714Y-81925000D01*
X118502857Y-81996428D01*
X118217142Y-82067857D01*
X117860000Y-82067857D01*
X117574285Y-81996428D01*
X117431428Y-81925000D01*
X117360000Y-81853571D01*
X117288571Y-81710714D01*
X118788571Y-79782142D02*
X118788571Y-80639285D01*
X118788571Y-80210714D02*
X117288571Y-80210714D01*
X117502857Y-80353571D01*
X117645714Y-80496428D01*
X117717142Y-80639285D01*
X117931428Y-78925000D02*
X117860000Y-79067857D01*
X117788571Y-79139285D01*
X117645714Y-79210714D01*
X117574285Y-79210714D01*
X117431428Y-79139285D01*
X117360000Y-79067857D01*
X117288571Y-78925000D01*
X117288571Y-78639285D01*
X117360000Y-78496428D01*
X117431428Y-78425000D01*
X117574285Y-78353571D01*
X117645714Y-78353571D01*
X117788571Y-78425000D01*
X117860000Y-78496428D01*
X117931428Y-78639285D01*
X117931428Y-78925000D01*
X118002857Y-79067857D01*
X118074285Y-79139285D01*
X118217142Y-79210714D01*
X118502857Y-79210714D01*
X118645714Y-79139285D01*
X118717142Y-79067857D01*
X118788571Y-78925000D01*
X118788571Y-78639285D01*
X118717142Y-78496428D01*
X118645714Y-78425000D01*
X118502857Y-78353571D01*
X118217142Y-78353571D01*
X118074285Y-78425000D01*
X118002857Y-78496428D01*
X117931428Y-78639285D01*
X101393571Y-44493571D02*
X100536428Y-44493571D01*
X100965000Y-44493571D02*
X100965000Y-42993571D01*
X100822142Y-43207857D01*
X100679285Y-43350714D01*
X100536428Y-43422142D01*
D11*
G04 #@! TO.C,REF\002A\002A\002A*
G36*
X21729744Y-25414918D02*
X21785201Y-25442568D01*
X21834148Y-25493480D01*
X21847629Y-25512338D01*
X21862314Y-25537015D01*
X21871842Y-25563816D01*
X21877293Y-25599587D01*
X21879747Y-25651169D01*
X21880286Y-25719267D01*
X21877852Y-25812588D01*
X21869394Y-25882657D01*
X21853174Y-25934931D01*
X21827454Y-25974869D01*
X21790497Y-26007929D01*
X21787782Y-26009886D01*
X21751360Y-26029908D01*
X21707502Y-26039815D01*
X21651724Y-26042257D01*
X21561048Y-26042257D01*
X21561010Y-26130283D01*
X21560166Y-26179308D01*
X21555024Y-26208065D01*
X21541587Y-26225311D01*
X21515858Y-26239808D01*
X21509679Y-26242769D01*
X21480764Y-26256648D01*
X21458376Y-26265414D01*
X21441729Y-26266171D01*
X21430036Y-26256023D01*
X21422510Y-26232073D01*
X21418366Y-26191426D01*
X21416815Y-26131186D01*
X21417071Y-26048455D01*
X21418349Y-25940339D01*
X21418748Y-25908000D01*
X21420185Y-25796524D01*
X21421472Y-25723603D01*
X21560971Y-25723603D01*
X21561755Y-25785499D01*
X21565240Y-25825997D01*
X21573124Y-25852708D01*
X21587105Y-25873244D01*
X21596597Y-25883260D01*
X21635404Y-25912567D01*
X21669763Y-25914952D01*
X21705216Y-25890750D01*
X21706114Y-25889857D01*
X21720539Y-25871153D01*
X21729313Y-25845732D01*
X21733739Y-25806584D01*
X21735118Y-25746697D01*
X21735143Y-25733430D01*
X21731812Y-25650901D01*
X21720969Y-25593691D01*
X21701340Y-25558766D01*
X21671650Y-25543094D01*
X21654491Y-25541514D01*
X21613766Y-25548926D01*
X21585832Y-25573330D01*
X21569017Y-25617980D01*
X21561650Y-25686130D01*
X21560971Y-25723603D01*
X21421472Y-25723603D01*
X21421708Y-25710245D01*
X21423677Y-25645333D01*
X21426450Y-25597958D01*
X21430388Y-25564290D01*
X21435849Y-25540498D01*
X21443192Y-25522753D01*
X21452777Y-25507224D01*
X21456887Y-25501381D01*
X21511405Y-25446185D01*
X21580336Y-25414890D01*
X21660072Y-25406165D01*
X21729744Y-25414918D01*
X21729744Y-25414918D01*
G37*
X21729744Y-25414918D02*
X21785201Y-25442568D01*
X21834148Y-25493480D01*
X21847629Y-25512338D01*
X21862314Y-25537015D01*
X21871842Y-25563816D01*
X21877293Y-25599587D01*
X21879747Y-25651169D01*
X21880286Y-25719267D01*
X21877852Y-25812588D01*
X21869394Y-25882657D01*
X21853174Y-25934931D01*
X21827454Y-25974869D01*
X21790497Y-26007929D01*
X21787782Y-26009886D01*
X21751360Y-26029908D01*
X21707502Y-26039815D01*
X21651724Y-26042257D01*
X21561048Y-26042257D01*
X21561010Y-26130283D01*
X21560166Y-26179308D01*
X21555024Y-26208065D01*
X21541587Y-26225311D01*
X21515858Y-26239808D01*
X21509679Y-26242769D01*
X21480764Y-26256648D01*
X21458376Y-26265414D01*
X21441729Y-26266171D01*
X21430036Y-26256023D01*
X21422510Y-26232073D01*
X21418366Y-26191426D01*
X21416815Y-26131186D01*
X21417071Y-26048455D01*
X21418349Y-25940339D01*
X21418748Y-25908000D01*
X21420185Y-25796524D01*
X21421472Y-25723603D01*
X21560971Y-25723603D01*
X21561755Y-25785499D01*
X21565240Y-25825997D01*
X21573124Y-25852708D01*
X21587105Y-25873244D01*
X21596597Y-25883260D01*
X21635404Y-25912567D01*
X21669763Y-25914952D01*
X21705216Y-25890750D01*
X21706114Y-25889857D01*
X21720539Y-25871153D01*
X21729313Y-25845732D01*
X21733739Y-25806584D01*
X21735118Y-25746697D01*
X21735143Y-25733430D01*
X21731812Y-25650901D01*
X21720969Y-25593691D01*
X21701340Y-25558766D01*
X21671650Y-25543094D01*
X21654491Y-25541514D01*
X21613766Y-25548926D01*
X21585832Y-25573330D01*
X21569017Y-25617980D01*
X21561650Y-25686130D01*
X21560971Y-25723603D01*
X21421472Y-25723603D01*
X21421708Y-25710245D01*
X21423677Y-25645333D01*
X21426450Y-25597958D01*
X21430388Y-25564290D01*
X21435849Y-25540498D01*
X21443192Y-25522753D01*
X21452777Y-25507224D01*
X21456887Y-25501381D01*
X21511405Y-25446185D01*
X21580336Y-25414890D01*
X21660072Y-25406165D01*
X21729744Y-25414918D01*
G36*
X22846093Y-25422780D02*
X22892672Y-25449723D01*
X22925057Y-25476466D01*
X22948742Y-25504484D01*
X22965059Y-25538748D01*
X22975339Y-25584227D01*
X22980914Y-25645892D01*
X22983116Y-25728711D01*
X22983371Y-25788246D01*
X22983371Y-26007391D01*
X22921686Y-26035044D01*
X22860000Y-26062697D01*
X22852743Y-25822670D01*
X22849744Y-25733028D01*
X22846598Y-25667962D01*
X22842701Y-25623026D01*
X22837447Y-25593770D01*
X22830231Y-25575748D01*
X22820450Y-25564511D01*
X22817312Y-25562079D01*
X22769761Y-25543083D01*
X22721697Y-25550600D01*
X22693086Y-25570543D01*
X22681447Y-25584675D01*
X22673391Y-25603220D01*
X22668271Y-25631334D01*
X22665441Y-25674173D01*
X22664256Y-25736895D01*
X22664057Y-25802261D01*
X22664018Y-25884268D01*
X22662614Y-25942316D01*
X22657914Y-25981465D01*
X22647987Y-26006780D01*
X22630903Y-26023323D01*
X22604732Y-26036156D01*
X22569775Y-26049491D01*
X22531596Y-26064007D01*
X22536141Y-25806389D01*
X22537971Y-25713519D01*
X22540112Y-25644889D01*
X22543181Y-25595711D01*
X22547794Y-25561198D01*
X22554568Y-25536562D01*
X22564119Y-25517016D01*
X22575634Y-25499770D01*
X22631190Y-25444680D01*
X22698980Y-25412822D01*
X22772713Y-25405191D01*
X22846093Y-25422780D01*
X22846093Y-25422780D01*
G37*
X22846093Y-25422780D02*
X22892672Y-25449723D01*
X22925057Y-25476466D01*
X22948742Y-25504484D01*
X22965059Y-25538748D01*
X22975339Y-25584227D01*
X22980914Y-25645892D01*
X22983116Y-25728711D01*
X22983371Y-25788246D01*
X22983371Y-26007391D01*
X22921686Y-26035044D01*
X22860000Y-26062697D01*
X22852743Y-25822670D01*
X22849744Y-25733028D01*
X22846598Y-25667962D01*
X22842701Y-25623026D01*
X22837447Y-25593770D01*
X22830231Y-25575748D01*
X22820450Y-25564511D01*
X22817312Y-25562079D01*
X22769761Y-25543083D01*
X22721697Y-25550600D01*
X22693086Y-25570543D01*
X22681447Y-25584675D01*
X22673391Y-25603220D01*
X22668271Y-25631334D01*
X22665441Y-25674173D01*
X22664256Y-25736895D01*
X22664057Y-25802261D01*
X22664018Y-25884268D01*
X22662614Y-25942316D01*
X22657914Y-25981465D01*
X22647987Y-26006780D01*
X22630903Y-26023323D01*
X22604732Y-26036156D01*
X22569775Y-26049491D01*
X22531596Y-26064007D01*
X22536141Y-25806389D01*
X22537971Y-25713519D01*
X22540112Y-25644889D01*
X22543181Y-25595711D01*
X22547794Y-25561198D01*
X22554568Y-25536562D01*
X22564119Y-25517016D01*
X22575634Y-25499770D01*
X22631190Y-25444680D01*
X22698980Y-25412822D01*
X22772713Y-25405191D01*
X22846093Y-25422780D01*
G36*
X21171115Y-25416962D02*
X21239145Y-25452733D01*
X21289351Y-25510301D01*
X21307185Y-25547312D01*
X21321063Y-25602882D01*
X21328167Y-25673096D01*
X21328840Y-25749727D01*
X21323427Y-25824552D01*
X21312270Y-25889342D01*
X21295714Y-25935873D01*
X21290626Y-25943887D01*
X21230355Y-26003707D01*
X21158769Y-26039535D01*
X21081092Y-26050020D01*
X21002548Y-26033810D01*
X20980689Y-26024092D01*
X20938122Y-25994143D01*
X20900763Y-25954433D01*
X20897232Y-25949397D01*
X20882881Y-25925124D01*
X20873394Y-25899178D01*
X20867790Y-25865022D01*
X20865086Y-25816119D01*
X20864299Y-25745935D01*
X20864286Y-25730200D01*
X20864322Y-25725192D01*
X21009429Y-25725192D01*
X21010273Y-25791430D01*
X21013596Y-25835386D01*
X21020583Y-25863779D01*
X21032416Y-25883325D01*
X21038457Y-25889857D01*
X21073186Y-25914680D01*
X21106903Y-25913548D01*
X21140995Y-25892016D01*
X21161329Y-25869029D01*
X21173371Y-25835478D01*
X21180134Y-25782569D01*
X21180598Y-25776399D01*
X21181752Y-25680513D01*
X21169688Y-25609299D01*
X21144570Y-25563194D01*
X21106560Y-25542635D01*
X21092992Y-25541514D01*
X21057364Y-25547152D01*
X21032994Y-25566686D01*
X21018093Y-25604042D01*
X21010875Y-25663150D01*
X21009429Y-25725192D01*
X20864322Y-25725192D01*
X20864826Y-25655413D01*
X20867096Y-25603159D01*
X20872068Y-25566949D01*
X20880713Y-25540299D01*
X20894005Y-25516722D01*
X20896943Y-25512338D01*
X20946313Y-25453249D01*
X21000109Y-25418947D01*
X21065602Y-25405331D01*
X21087842Y-25404665D01*
X21171115Y-25416962D01*
X21171115Y-25416962D01*
G37*
X21171115Y-25416962D02*
X21239145Y-25452733D01*
X21289351Y-25510301D01*
X21307185Y-25547312D01*
X21321063Y-25602882D01*
X21328167Y-25673096D01*
X21328840Y-25749727D01*
X21323427Y-25824552D01*
X21312270Y-25889342D01*
X21295714Y-25935873D01*
X21290626Y-25943887D01*
X21230355Y-26003707D01*
X21158769Y-26039535D01*
X21081092Y-26050020D01*
X21002548Y-26033810D01*
X20980689Y-26024092D01*
X20938122Y-25994143D01*
X20900763Y-25954433D01*
X20897232Y-25949397D01*
X20882881Y-25925124D01*
X20873394Y-25899178D01*
X20867790Y-25865022D01*
X20865086Y-25816119D01*
X20864299Y-25745935D01*
X20864286Y-25730200D01*
X20864322Y-25725192D01*
X21009429Y-25725192D01*
X21010273Y-25791430D01*
X21013596Y-25835386D01*
X21020583Y-25863779D01*
X21032416Y-25883325D01*
X21038457Y-25889857D01*
X21073186Y-25914680D01*
X21106903Y-25913548D01*
X21140995Y-25892016D01*
X21161329Y-25869029D01*
X21173371Y-25835478D01*
X21180134Y-25782569D01*
X21180598Y-25776399D01*
X21181752Y-25680513D01*
X21169688Y-25609299D01*
X21144570Y-25563194D01*
X21106560Y-25542635D01*
X21092992Y-25541514D01*
X21057364Y-25547152D01*
X21032994Y-25566686D01*
X21018093Y-25604042D01*
X21010875Y-25663150D01*
X21009429Y-25725192D01*
X20864322Y-25725192D01*
X20864826Y-25655413D01*
X20867096Y-25603159D01*
X20872068Y-25566949D01*
X20880713Y-25540299D01*
X20894005Y-25516722D01*
X20896943Y-25512338D01*
X20946313Y-25453249D01*
X21000109Y-25418947D01*
X21065602Y-25405331D01*
X21087842Y-25404665D01*
X21171115Y-25416962D01*
G36*
X22298303Y-25426239D02*
X22355527Y-25464735D01*
X22399749Y-25520335D01*
X22426167Y-25591086D01*
X22431510Y-25643162D01*
X22430903Y-25664893D01*
X22425822Y-25681531D01*
X22411855Y-25696437D01*
X22384589Y-25712973D01*
X22339612Y-25734498D01*
X22272511Y-25764374D01*
X22272171Y-25764524D01*
X22210407Y-25792813D01*
X22159759Y-25817933D01*
X22125404Y-25837179D01*
X22112518Y-25847848D01*
X22112514Y-25847934D01*
X22123872Y-25871166D01*
X22150431Y-25896774D01*
X22180923Y-25915221D01*
X22196370Y-25918886D01*
X22238515Y-25906212D01*
X22274808Y-25874471D01*
X22292517Y-25839572D01*
X22309552Y-25813845D01*
X22342922Y-25784546D01*
X22382149Y-25759235D01*
X22416756Y-25745471D01*
X22423993Y-25744714D01*
X22432139Y-25757160D01*
X22432630Y-25788972D01*
X22426643Y-25831866D01*
X22415357Y-25877558D01*
X22399950Y-25917761D01*
X22399171Y-25919322D01*
X22352804Y-25984062D01*
X22292711Y-26028097D01*
X22224465Y-26049711D01*
X22153638Y-26047185D01*
X22085804Y-26018804D01*
X22082788Y-26016808D01*
X22029427Y-25968448D01*
X21994340Y-25905352D01*
X21974922Y-25822387D01*
X21972316Y-25799078D01*
X21967701Y-25689055D01*
X21973233Y-25637748D01*
X22112514Y-25637748D01*
X22114324Y-25669753D01*
X22124222Y-25679093D01*
X22148898Y-25672105D01*
X22187795Y-25655587D01*
X22231275Y-25634881D01*
X22232356Y-25634333D01*
X22269209Y-25614949D01*
X22284000Y-25602013D01*
X22280353Y-25588451D01*
X22264995Y-25570632D01*
X22225923Y-25544845D01*
X22183846Y-25542950D01*
X22146103Y-25561717D01*
X22120034Y-25597915D01*
X22112514Y-25637748D01*
X21973233Y-25637748D01*
X21977194Y-25601027D01*
X22001550Y-25531212D01*
X22035456Y-25482302D01*
X22096653Y-25432878D01*
X22164063Y-25408359D01*
X22232880Y-25406797D01*
X22298303Y-25426239D01*
X22298303Y-25426239D01*
G37*
X22298303Y-25426239D02*
X22355527Y-25464735D01*
X22399749Y-25520335D01*
X22426167Y-25591086D01*
X22431510Y-25643162D01*
X22430903Y-25664893D01*
X22425822Y-25681531D01*
X22411855Y-25696437D01*
X22384589Y-25712973D01*
X22339612Y-25734498D01*
X22272511Y-25764374D01*
X22272171Y-25764524D01*
X22210407Y-25792813D01*
X22159759Y-25817933D01*
X22125404Y-25837179D01*
X22112518Y-25847848D01*
X22112514Y-25847934D01*
X22123872Y-25871166D01*
X22150431Y-25896774D01*
X22180923Y-25915221D01*
X22196370Y-25918886D01*
X22238515Y-25906212D01*
X22274808Y-25874471D01*
X22292517Y-25839572D01*
X22309552Y-25813845D01*
X22342922Y-25784546D01*
X22382149Y-25759235D01*
X22416756Y-25745471D01*
X22423993Y-25744714D01*
X22432139Y-25757160D01*
X22432630Y-25788972D01*
X22426643Y-25831866D01*
X22415357Y-25877558D01*
X22399950Y-25917761D01*
X22399171Y-25919322D01*
X22352804Y-25984062D01*
X22292711Y-26028097D01*
X22224465Y-26049711D01*
X22153638Y-26047185D01*
X22085804Y-26018804D01*
X22082788Y-26016808D01*
X22029427Y-25968448D01*
X21994340Y-25905352D01*
X21974922Y-25822387D01*
X21972316Y-25799078D01*
X21967701Y-25689055D01*
X21973233Y-25637748D01*
X22112514Y-25637748D01*
X22114324Y-25669753D01*
X22124222Y-25679093D01*
X22148898Y-25672105D01*
X22187795Y-25655587D01*
X22231275Y-25634881D01*
X22232356Y-25634333D01*
X22269209Y-25614949D01*
X22284000Y-25602013D01*
X22280353Y-25588451D01*
X22264995Y-25570632D01*
X22225923Y-25544845D01*
X22183846Y-25542950D01*
X22146103Y-25561717D01*
X22120034Y-25597915D01*
X22112514Y-25637748D01*
X21973233Y-25637748D01*
X21977194Y-25601027D01*
X22001550Y-25531212D01*
X22035456Y-25482302D01*
X22096653Y-25432878D01*
X22164063Y-25408359D01*
X22232880Y-25406797D01*
X22298303Y-25426239D01*
G36*
X23505886Y-25346289D02*
X23510139Y-25405613D01*
X23515025Y-25440572D01*
X23521795Y-25455820D01*
X23531702Y-25456015D01*
X23534914Y-25454195D01*
X23577644Y-25441015D01*
X23633227Y-25441785D01*
X23689737Y-25455333D01*
X23725082Y-25472861D01*
X23761321Y-25500861D01*
X23787813Y-25532549D01*
X23805999Y-25572813D01*
X23817322Y-25626543D01*
X23823222Y-25698626D01*
X23825143Y-25793951D01*
X23825177Y-25812237D01*
X23825200Y-26017646D01*
X23779491Y-26033580D01*
X23747027Y-26044420D01*
X23729215Y-26049468D01*
X23728691Y-26049514D01*
X23726937Y-26035828D01*
X23725444Y-25998076D01*
X23724326Y-25941224D01*
X23723697Y-25870234D01*
X23723600Y-25827073D01*
X23723398Y-25741973D01*
X23722358Y-25680981D01*
X23719831Y-25639177D01*
X23715164Y-25611642D01*
X23707707Y-25593456D01*
X23696811Y-25579698D01*
X23690007Y-25573073D01*
X23643272Y-25546375D01*
X23592272Y-25544375D01*
X23546001Y-25566955D01*
X23537444Y-25575107D01*
X23524893Y-25590436D01*
X23516188Y-25608618D01*
X23510631Y-25634909D01*
X23507526Y-25674562D01*
X23506176Y-25732832D01*
X23505886Y-25813173D01*
X23505886Y-26017646D01*
X23460177Y-26033580D01*
X23427713Y-26044420D01*
X23409901Y-26049468D01*
X23409377Y-26049514D01*
X23408037Y-26035623D01*
X23406828Y-25996439D01*
X23405801Y-25935700D01*
X23405002Y-25857141D01*
X23404481Y-25764498D01*
X23404286Y-25661509D01*
X23404286Y-25264342D01*
X23451457Y-25244444D01*
X23498629Y-25224547D01*
X23505886Y-25346289D01*
X23505886Y-25346289D01*
G37*
X23505886Y-25346289D02*
X23510139Y-25405613D01*
X23515025Y-25440572D01*
X23521795Y-25455820D01*
X23531702Y-25456015D01*
X23534914Y-25454195D01*
X23577644Y-25441015D01*
X23633227Y-25441785D01*
X23689737Y-25455333D01*
X23725082Y-25472861D01*
X23761321Y-25500861D01*
X23787813Y-25532549D01*
X23805999Y-25572813D01*
X23817322Y-25626543D01*
X23823222Y-25698626D01*
X23825143Y-25793951D01*
X23825177Y-25812237D01*
X23825200Y-26017646D01*
X23779491Y-26033580D01*
X23747027Y-26044420D01*
X23729215Y-26049468D01*
X23728691Y-26049514D01*
X23726937Y-26035828D01*
X23725444Y-25998076D01*
X23724326Y-25941224D01*
X23723697Y-25870234D01*
X23723600Y-25827073D01*
X23723398Y-25741973D01*
X23722358Y-25680981D01*
X23719831Y-25639177D01*
X23715164Y-25611642D01*
X23707707Y-25593456D01*
X23696811Y-25579698D01*
X23690007Y-25573073D01*
X23643272Y-25546375D01*
X23592272Y-25544375D01*
X23546001Y-25566955D01*
X23537444Y-25575107D01*
X23524893Y-25590436D01*
X23516188Y-25608618D01*
X23510631Y-25634909D01*
X23507526Y-25674562D01*
X23506176Y-25732832D01*
X23505886Y-25813173D01*
X23505886Y-26017646D01*
X23460177Y-26033580D01*
X23427713Y-26044420D01*
X23409901Y-26049468D01*
X23409377Y-26049514D01*
X23408037Y-26035623D01*
X23406828Y-25996439D01*
X23405801Y-25935700D01*
X23405002Y-25857141D01*
X23404481Y-25764498D01*
X23404286Y-25661509D01*
X23404286Y-25264342D01*
X23451457Y-25244444D01*
X23498629Y-25224547D01*
X23505886Y-25346289D01*
G36*
X24169744Y-25445968D02*
X24226616Y-25467087D01*
X24227267Y-25467493D01*
X24262440Y-25493380D01*
X24288407Y-25523633D01*
X24306670Y-25563058D01*
X24318732Y-25616462D01*
X24326096Y-25688651D01*
X24330264Y-25784432D01*
X24330629Y-25798078D01*
X24335876Y-26003842D01*
X24291716Y-26026678D01*
X24259763Y-26042110D01*
X24240470Y-26049423D01*
X24239578Y-26049514D01*
X24236239Y-26036022D01*
X24233587Y-25999626D01*
X24231956Y-25946452D01*
X24231600Y-25903393D01*
X24231592Y-25833641D01*
X24228403Y-25789837D01*
X24217288Y-25768944D01*
X24193501Y-25767925D01*
X24152296Y-25783741D01*
X24090086Y-25812815D01*
X24044341Y-25836963D01*
X24020813Y-25857913D01*
X24013896Y-25880747D01*
X24013886Y-25881877D01*
X24025299Y-25921212D01*
X24059092Y-25942462D01*
X24110809Y-25945539D01*
X24148061Y-25945006D01*
X24167703Y-25955735D01*
X24179952Y-25981505D01*
X24187002Y-26014337D01*
X24176842Y-26032966D01*
X24173017Y-26035632D01*
X24137001Y-26046340D01*
X24086566Y-26047856D01*
X24034626Y-26040759D01*
X23997822Y-26027788D01*
X23946938Y-25984585D01*
X23918014Y-25924446D01*
X23912286Y-25877462D01*
X23916657Y-25835082D01*
X23932475Y-25800488D01*
X23963797Y-25769763D01*
X24014678Y-25738990D01*
X24089176Y-25704252D01*
X24093714Y-25702288D01*
X24160821Y-25671287D01*
X24202232Y-25645862D01*
X24219981Y-25623014D01*
X24216107Y-25599745D01*
X24192643Y-25573056D01*
X24185627Y-25566914D01*
X24138630Y-25543100D01*
X24089933Y-25544103D01*
X24047522Y-25567451D01*
X24019384Y-25610675D01*
X24016769Y-25619160D01*
X23991308Y-25660308D01*
X23959001Y-25680128D01*
X23912286Y-25699770D01*
X23912286Y-25648950D01*
X23926496Y-25575082D01*
X23968675Y-25507327D01*
X23990624Y-25484661D01*
X24040517Y-25455569D01*
X24103967Y-25442400D01*
X24169744Y-25445968D01*
X24169744Y-25445968D01*
G37*
X24169744Y-25445968D02*
X24226616Y-25467087D01*
X24227267Y-25467493D01*
X24262440Y-25493380D01*
X24288407Y-25523633D01*
X24306670Y-25563058D01*
X24318732Y-25616462D01*
X24326096Y-25688651D01*
X24330264Y-25784432D01*
X24330629Y-25798078D01*
X24335876Y-26003842D01*
X24291716Y-26026678D01*
X24259763Y-26042110D01*
X24240470Y-26049423D01*
X24239578Y-26049514D01*
X24236239Y-26036022D01*
X24233587Y-25999626D01*
X24231956Y-25946452D01*
X24231600Y-25903393D01*
X24231592Y-25833641D01*
X24228403Y-25789837D01*
X24217288Y-25768944D01*
X24193501Y-25767925D01*
X24152296Y-25783741D01*
X24090086Y-25812815D01*
X24044341Y-25836963D01*
X24020813Y-25857913D01*
X24013896Y-25880747D01*
X24013886Y-25881877D01*
X24025299Y-25921212D01*
X24059092Y-25942462D01*
X24110809Y-25945539D01*
X24148061Y-25945006D01*
X24167703Y-25955735D01*
X24179952Y-25981505D01*
X24187002Y-26014337D01*
X24176842Y-26032966D01*
X24173017Y-26035632D01*
X24137001Y-26046340D01*
X24086566Y-26047856D01*
X24034626Y-26040759D01*
X23997822Y-26027788D01*
X23946938Y-25984585D01*
X23918014Y-25924446D01*
X23912286Y-25877462D01*
X23916657Y-25835082D01*
X23932475Y-25800488D01*
X23963797Y-25769763D01*
X24014678Y-25738990D01*
X24089176Y-25704252D01*
X24093714Y-25702288D01*
X24160821Y-25671287D01*
X24202232Y-25645862D01*
X24219981Y-25623014D01*
X24216107Y-25599745D01*
X24192643Y-25573056D01*
X24185627Y-25566914D01*
X24138630Y-25543100D01*
X24089933Y-25544103D01*
X24047522Y-25567451D01*
X24019384Y-25610675D01*
X24016769Y-25619160D01*
X23991308Y-25660308D01*
X23959001Y-25680128D01*
X23912286Y-25699770D01*
X23912286Y-25648950D01*
X23926496Y-25575082D01*
X23968675Y-25507327D01*
X23990624Y-25484661D01*
X24040517Y-25455569D01*
X24103967Y-25442400D01*
X24169744Y-25445968D01*
G36*
X24659926Y-25444755D02*
X24725858Y-25469084D01*
X24779273Y-25512117D01*
X24800164Y-25542409D01*
X24822939Y-25597994D01*
X24822466Y-25638186D01*
X24798562Y-25665217D01*
X24789717Y-25669813D01*
X24751530Y-25684144D01*
X24732028Y-25680472D01*
X24725422Y-25656407D01*
X24725086Y-25643114D01*
X24712992Y-25594210D01*
X24681471Y-25559999D01*
X24637659Y-25543476D01*
X24588695Y-25547634D01*
X24548894Y-25569227D01*
X24535450Y-25581544D01*
X24525921Y-25596487D01*
X24519485Y-25619075D01*
X24515317Y-25654328D01*
X24512597Y-25707266D01*
X24510502Y-25782907D01*
X24509960Y-25806857D01*
X24507981Y-25888790D01*
X24505731Y-25946455D01*
X24502357Y-25984608D01*
X24497006Y-26008004D01*
X24488824Y-26021398D01*
X24476959Y-26029545D01*
X24469362Y-26033144D01*
X24437102Y-26045452D01*
X24418111Y-26049514D01*
X24411836Y-26035948D01*
X24408006Y-25994934D01*
X24406600Y-25925999D01*
X24407598Y-25828669D01*
X24407908Y-25813657D01*
X24410101Y-25724859D01*
X24412693Y-25660019D01*
X24416382Y-25614067D01*
X24421864Y-25581935D01*
X24429835Y-25558553D01*
X24440993Y-25538852D01*
X24446830Y-25530410D01*
X24480296Y-25493057D01*
X24517727Y-25464003D01*
X24522309Y-25461467D01*
X24589426Y-25441443D01*
X24659926Y-25444755D01*
X24659926Y-25444755D01*
G37*
X24659926Y-25444755D02*
X24725858Y-25469084D01*
X24779273Y-25512117D01*
X24800164Y-25542409D01*
X24822939Y-25597994D01*
X24822466Y-25638186D01*
X24798562Y-25665217D01*
X24789717Y-25669813D01*
X24751530Y-25684144D01*
X24732028Y-25680472D01*
X24725422Y-25656407D01*
X24725086Y-25643114D01*
X24712992Y-25594210D01*
X24681471Y-25559999D01*
X24637659Y-25543476D01*
X24588695Y-25547634D01*
X24548894Y-25569227D01*
X24535450Y-25581544D01*
X24525921Y-25596487D01*
X24519485Y-25619075D01*
X24515317Y-25654328D01*
X24512597Y-25707266D01*
X24510502Y-25782907D01*
X24509960Y-25806857D01*
X24507981Y-25888790D01*
X24505731Y-25946455D01*
X24502357Y-25984608D01*
X24497006Y-26008004D01*
X24488824Y-26021398D01*
X24476959Y-26029545D01*
X24469362Y-26033144D01*
X24437102Y-26045452D01*
X24418111Y-26049514D01*
X24411836Y-26035948D01*
X24408006Y-25994934D01*
X24406600Y-25925999D01*
X24407598Y-25828669D01*
X24407908Y-25813657D01*
X24410101Y-25724859D01*
X24412693Y-25660019D01*
X24416382Y-25614067D01*
X24421864Y-25581935D01*
X24429835Y-25558553D01*
X24440993Y-25538852D01*
X24446830Y-25530410D01*
X24480296Y-25493057D01*
X24517727Y-25464003D01*
X24522309Y-25461467D01*
X24589426Y-25441443D01*
X24659926Y-25444755D01*
G36*
X25320117Y-25560358D02*
X25319933Y-25668837D01*
X25319219Y-25752287D01*
X25317675Y-25814704D01*
X25315001Y-25860085D01*
X25310894Y-25892429D01*
X25305055Y-25915733D01*
X25297182Y-25933995D01*
X25291221Y-25944418D01*
X25241855Y-26000945D01*
X25179264Y-26036377D01*
X25110013Y-26049090D01*
X25040668Y-26037463D01*
X24999375Y-26016568D01*
X24956025Y-25980422D01*
X24926481Y-25936276D01*
X24908655Y-25878462D01*
X24900463Y-25801313D01*
X24899302Y-25744714D01*
X24899458Y-25740647D01*
X25000857Y-25740647D01*
X25001476Y-25805550D01*
X25004314Y-25848514D01*
X25010840Y-25876622D01*
X25022523Y-25896953D01*
X25036483Y-25912288D01*
X25083365Y-25941890D01*
X25133701Y-25944419D01*
X25181276Y-25919705D01*
X25184979Y-25916356D01*
X25200783Y-25898935D01*
X25210693Y-25878209D01*
X25216058Y-25847362D01*
X25218228Y-25799577D01*
X25218571Y-25746748D01*
X25217827Y-25680381D01*
X25214748Y-25636106D01*
X25208061Y-25607009D01*
X25196496Y-25586173D01*
X25187013Y-25575107D01*
X25142960Y-25547198D01*
X25092224Y-25543843D01*
X25043796Y-25565159D01*
X25034450Y-25573073D01*
X25018540Y-25590647D01*
X25008610Y-25611587D01*
X25003278Y-25642782D01*
X25001163Y-25691122D01*
X25000857Y-25740647D01*
X24899458Y-25740647D01*
X24902810Y-25653568D01*
X24914726Y-25585086D01*
X24937135Y-25533600D01*
X24972124Y-25493443D01*
X24999375Y-25472861D01*
X25048907Y-25450625D01*
X25106316Y-25440304D01*
X25159682Y-25443067D01*
X25189543Y-25454212D01*
X25201261Y-25457383D01*
X25209037Y-25445557D01*
X25214465Y-25413866D01*
X25218571Y-25365593D01*
X25223067Y-25311829D01*
X25229313Y-25279482D01*
X25240676Y-25260985D01*
X25260528Y-25248770D01*
X25273000Y-25243362D01*
X25320171Y-25223601D01*
X25320117Y-25560358D01*
X25320117Y-25560358D01*
G37*
X25320117Y-25560358D02*
X25319933Y-25668837D01*
X25319219Y-25752287D01*
X25317675Y-25814704D01*
X25315001Y-25860085D01*
X25310894Y-25892429D01*
X25305055Y-25915733D01*
X25297182Y-25933995D01*
X25291221Y-25944418D01*
X25241855Y-26000945D01*
X25179264Y-26036377D01*
X25110013Y-26049090D01*
X25040668Y-26037463D01*
X24999375Y-26016568D01*
X24956025Y-25980422D01*
X24926481Y-25936276D01*
X24908655Y-25878462D01*
X24900463Y-25801313D01*
X24899302Y-25744714D01*
X24899458Y-25740647D01*
X25000857Y-25740647D01*
X25001476Y-25805550D01*
X25004314Y-25848514D01*
X25010840Y-25876622D01*
X25022523Y-25896953D01*
X25036483Y-25912288D01*
X25083365Y-25941890D01*
X25133701Y-25944419D01*
X25181276Y-25919705D01*
X25184979Y-25916356D01*
X25200783Y-25898935D01*
X25210693Y-25878209D01*
X25216058Y-25847362D01*
X25218228Y-25799577D01*
X25218571Y-25746748D01*
X25217827Y-25680381D01*
X25214748Y-25636106D01*
X25208061Y-25607009D01*
X25196496Y-25586173D01*
X25187013Y-25575107D01*
X25142960Y-25547198D01*
X25092224Y-25543843D01*
X25043796Y-25565159D01*
X25034450Y-25573073D01*
X25018540Y-25590647D01*
X25008610Y-25611587D01*
X25003278Y-25642782D01*
X25001163Y-25691122D01*
X25000857Y-25740647D01*
X24899458Y-25740647D01*
X24902810Y-25653568D01*
X24914726Y-25585086D01*
X24937135Y-25533600D01*
X24972124Y-25493443D01*
X24999375Y-25472861D01*
X25048907Y-25450625D01*
X25106316Y-25440304D01*
X25159682Y-25443067D01*
X25189543Y-25454212D01*
X25201261Y-25457383D01*
X25209037Y-25445557D01*
X25214465Y-25413866D01*
X25218571Y-25365593D01*
X25223067Y-25311829D01*
X25229313Y-25279482D01*
X25240676Y-25260985D01*
X25260528Y-25248770D01*
X25273000Y-25243362D01*
X25320171Y-25223601D01*
X25320117Y-25560358D01*
G36*
X25909833Y-25453663D02*
X25912048Y-25491850D01*
X25913784Y-25549886D01*
X25914899Y-25623180D01*
X25915257Y-25700055D01*
X25915257Y-25960196D01*
X25869326Y-26006127D01*
X25837675Y-26034429D01*
X25809890Y-26045893D01*
X25771915Y-26045168D01*
X25756840Y-26043321D01*
X25709726Y-26037948D01*
X25670756Y-26034869D01*
X25661257Y-26034585D01*
X25629233Y-26036445D01*
X25583432Y-26041114D01*
X25565674Y-26043321D01*
X25522057Y-26046735D01*
X25492745Y-26039320D01*
X25463680Y-26016427D01*
X25453188Y-26006127D01*
X25407257Y-25960196D01*
X25407257Y-25473602D01*
X25444226Y-25456758D01*
X25476059Y-25444282D01*
X25494683Y-25439914D01*
X25499458Y-25453718D01*
X25503921Y-25492286D01*
X25507775Y-25551356D01*
X25510722Y-25626663D01*
X25512143Y-25690286D01*
X25516114Y-25940657D01*
X25550759Y-25945556D01*
X25582268Y-25942131D01*
X25597708Y-25931041D01*
X25602023Y-25910308D01*
X25605708Y-25866145D01*
X25608469Y-25804146D01*
X25610012Y-25729909D01*
X25610235Y-25691706D01*
X25610457Y-25471783D01*
X25656166Y-25455849D01*
X25688518Y-25445015D01*
X25706115Y-25439962D01*
X25706623Y-25439914D01*
X25708388Y-25453648D01*
X25710329Y-25491730D01*
X25712282Y-25549482D01*
X25714084Y-25622227D01*
X25715343Y-25690286D01*
X25719314Y-25940657D01*
X25806400Y-25940657D01*
X25810396Y-25712240D01*
X25814392Y-25483822D01*
X25856847Y-25461868D01*
X25888192Y-25446793D01*
X25906744Y-25439951D01*
X25907279Y-25439914D01*
X25909833Y-25453663D01*
X25909833Y-25453663D01*
G37*
X25909833Y-25453663D02*
X25912048Y-25491850D01*
X25913784Y-25549886D01*
X25914899Y-25623180D01*
X25915257Y-25700055D01*
X25915257Y-25960196D01*
X25869326Y-26006127D01*
X25837675Y-26034429D01*
X25809890Y-26045893D01*
X25771915Y-26045168D01*
X25756840Y-26043321D01*
X25709726Y-26037948D01*
X25670756Y-26034869D01*
X25661257Y-26034585D01*
X25629233Y-26036445D01*
X25583432Y-26041114D01*
X25565674Y-26043321D01*
X25522057Y-26046735D01*
X25492745Y-26039320D01*
X25463680Y-26016427D01*
X25453188Y-26006127D01*
X25407257Y-25960196D01*
X25407257Y-25473602D01*
X25444226Y-25456758D01*
X25476059Y-25444282D01*
X25494683Y-25439914D01*
X25499458Y-25453718D01*
X25503921Y-25492286D01*
X25507775Y-25551356D01*
X25510722Y-25626663D01*
X25512143Y-25690286D01*
X25516114Y-25940657D01*
X25550759Y-25945556D01*
X25582268Y-25942131D01*
X25597708Y-25931041D01*
X25602023Y-25910308D01*
X25605708Y-25866145D01*
X25608469Y-25804146D01*
X25610012Y-25729909D01*
X25610235Y-25691706D01*
X25610457Y-25471783D01*
X25656166Y-25455849D01*
X25688518Y-25445015D01*
X25706115Y-25439962D01*
X25706623Y-25439914D01*
X25708388Y-25453648D01*
X25710329Y-25491730D01*
X25712282Y-25549482D01*
X25714084Y-25622227D01*
X25715343Y-25690286D01*
X25719314Y-25940657D01*
X25806400Y-25940657D01*
X25810396Y-25712240D01*
X25814392Y-25483822D01*
X25856847Y-25461868D01*
X25888192Y-25446793D01*
X25906744Y-25439951D01*
X25907279Y-25439914D01*
X25909833Y-25453663D01*
G36*
X26274876Y-25451335D02*
X26316667Y-25470344D01*
X26349469Y-25493378D01*
X26373503Y-25519133D01*
X26390097Y-25552358D01*
X26400577Y-25597800D01*
X26406271Y-25660207D01*
X26408507Y-25744327D01*
X26408743Y-25799721D01*
X26408743Y-26015826D01*
X26371774Y-26032670D01*
X26342656Y-26044981D01*
X26328231Y-26049514D01*
X26325472Y-26036025D01*
X26323282Y-25999653D01*
X26321942Y-25946542D01*
X26321657Y-25904372D01*
X26320434Y-25843447D01*
X26317136Y-25795115D01*
X26312321Y-25765518D01*
X26308496Y-25759229D01*
X26282783Y-25765652D01*
X26242418Y-25782125D01*
X26195679Y-25804458D01*
X26150845Y-25828457D01*
X26116193Y-25849930D01*
X26100002Y-25864685D01*
X26099938Y-25864845D01*
X26101330Y-25892152D01*
X26113818Y-25918219D01*
X26135743Y-25939392D01*
X26167743Y-25946474D01*
X26195092Y-25945649D01*
X26233826Y-25945042D01*
X26254158Y-25954116D01*
X26266369Y-25978092D01*
X26267909Y-25982613D01*
X26273203Y-26016806D01*
X26259047Y-26037568D01*
X26222148Y-26047462D01*
X26182289Y-26049292D01*
X26110562Y-26035727D01*
X26073432Y-26016355D01*
X26027576Y-25970845D01*
X26003256Y-25914983D01*
X26001073Y-25855957D01*
X26021629Y-25800953D01*
X26052549Y-25766486D01*
X26083420Y-25747189D01*
X26131942Y-25722759D01*
X26188485Y-25697985D01*
X26197910Y-25694199D01*
X26260019Y-25666791D01*
X26295822Y-25642634D01*
X26307337Y-25618619D01*
X26296580Y-25591635D01*
X26278114Y-25570543D01*
X26234469Y-25544572D01*
X26186446Y-25542624D01*
X26142406Y-25562637D01*
X26110709Y-25602551D01*
X26106549Y-25612848D01*
X26082327Y-25650724D01*
X26046965Y-25678842D01*
X26002343Y-25701917D01*
X26002343Y-25636485D01*
X26004969Y-25596506D01*
X26016230Y-25564997D01*
X26041199Y-25531378D01*
X26065169Y-25505484D01*
X26102441Y-25468817D01*
X26131401Y-25449121D01*
X26162505Y-25441220D01*
X26197713Y-25439914D01*
X26274876Y-25451335D01*
X26274876Y-25451335D01*
G37*
X26274876Y-25451335D02*
X26316667Y-25470344D01*
X26349469Y-25493378D01*
X26373503Y-25519133D01*
X26390097Y-25552358D01*
X26400577Y-25597800D01*
X26406271Y-25660207D01*
X26408507Y-25744327D01*
X26408743Y-25799721D01*
X26408743Y-26015826D01*
X26371774Y-26032670D01*
X26342656Y-26044981D01*
X26328231Y-26049514D01*
X26325472Y-26036025D01*
X26323282Y-25999653D01*
X26321942Y-25946542D01*
X26321657Y-25904372D01*
X26320434Y-25843447D01*
X26317136Y-25795115D01*
X26312321Y-25765518D01*
X26308496Y-25759229D01*
X26282783Y-25765652D01*
X26242418Y-25782125D01*
X26195679Y-25804458D01*
X26150845Y-25828457D01*
X26116193Y-25849930D01*
X26100002Y-25864685D01*
X26099938Y-25864845D01*
X26101330Y-25892152D01*
X26113818Y-25918219D01*
X26135743Y-25939392D01*
X26167743Y-25946474D01*
X26195092Y-25945649D01*
X26233826Y-25945042D01*
X26254158Y-25954116D01*
X26266369Y-25978092D01*
X26267909Y-25982613D01*
X26273203Y-26016806D01*
X26259047Y-26037568D01*
X26222148Y-26047462D01*
X26182289Y-26049292D01*
X26110562Y-26035727D01*
X26073432Y-26016355D01*
X26027576Y-25970845D01*
X26003256Y-25914983D01*
X26001073Y-25855957D01*
X26021629Y-25800953D01*
X26052549Y-25766486D01*
X26083420Y-25747189D01*
X26131942Y-25722759D01*
X26188485Y-25697985D01*
X26197910Y-25694199D01*
X26260019Y-25666791D01*
X26295822Y-25642634D01*
X26307337Y-25618619D01*
X26296580Y-25591635D01*
X26278114Y-25570543D01*
X26234469Y-25544572D01*
X26186446Y-25542624D01*
X26142406Y-25562637D01*
X26110709Y-25602551D01*
X26106549Y-25612848D01*
X26082327Y-25650724D01*
X26046965Y-25678842D01*
X26002343Y-25701917D01*
X26002343Y-25636485D01*
X26004969Y-25596506D01*
X26016230Y-25564997D01*
X26041199Y-25531378D01*
X26065169Y-25505484D01*
X26102441Y-25468817D01*
X26131401Y-25449121D01*
X26162505Y-25441220D01*
X26197713Y-25439914D01*
X26274876Y-25451335D01*
G36*
X26782600Y-25453752D02*
X26799948Y-25461334D01*
X26841356Y-25494128D01*
X26876765Y-25541547D01*
X26898664Y-25592151D01*
X26902229Y-25617098D01*
X26890279Y-25651927D01*
X26864067Y-25670357D01*
X26835964Y-25681516D01*
X26823095Y-25683572D01*
X26816829Y-25668649D01*
X26804456Y-25636175D01*
X26799028Y-25621502D01*
X26768590Y-25570744D01*
X26724520Y-25545427D01*
X26668010Y-25546206D01*
X26663825Y-25547203D01*
X26633655Y-25561507D01*
X26611476Y-25589393D01*
X26596327Y-25634287D01*
X26587250Y-25699615D01*
X26583286Y-25788804D01*
X26582914Y-25836261D01*
X26582730Y-25911071D01*
X26581522Y-25962069D01*
X26578309Y-25994471D01*
X26572109Y-26013495D01*
X26561940Y-26024356D01*
X26546819Y-26032272D01*
X26545946Y-26032670D01*
X26516828Y-26044981D01*
X26502403Y-26049514D01*
X26500186Y-26035809D01*
X26498289Y-25997925D01*
X26496847Y-25940715D01*
X26495998Y-25869027D01*
X26495829Y-25816565D01*
X26496692Y-25715047D01*
X26500070Y-25638032D01*
X26507142Y-25581023D01*
X26519088Y-25539526D01*
X26537090Y-25509043D01*
X26562327Y-25485080D01*
X26587247Y-25468355D01*
X26647171Y-25446097D01*
X26716911Y-25441076D01*
X26782600Y-25453752D01*
X26782600Y-25453752D01*
G37*
X26782600Y-25453752D02*
X26799948Y-25461334D01*
X26841356Y-25494128D01*
X26876765Y-25541547D01*
X26898664Y-25592151D01*
X26902229Y-25617098D01*
X26890279Y-25651927D01*
X26864067Y-25670357D01*
X26835964Y-25681516D01*
X26823095Y-25683572D01*
X26816829Y-25668649D01*
X26804456Y-25636175D01*
X26799028Y-25621502D01*
X26768590Y-25570744D01*
X26724520Y-25545427D01*
X26668010Y-25546206D01*
X26663825Y-25547203D01*
X26633655Y-25561507D01*
X26611476Y-25589393D01*
X26596327Y-25634287D01*
X26587250Y-25699615D01*
X26583286Y-25788804D01*
X26582914Y-25836261D01*
X26582730Y-25911071D01*
X26581522Y-25962069D01*
X26578309Y-25994471D01*
X26572109Y-26013495D01*
X26561940Y-26024356D01*
X26546819Y-26032272D01*
X26545946Y-26032670D01*
X26516828Y-26044981D01*
X26502403Y-26049514D01*
X26500186Y-26035809D01*
X26498289Y-25997925D01*
X26496847Y-25940715D01*
X26495998Y-25869027D01*
X26495829Y-25816565D01*
X26496692Y-25715047D01*
X26500070Y-25638032D01*
X26507142Y-25581023D01*
X26519088Y-25539526D01*
X26537090Y-25509043D01*
X26562327Y-25485080D01*
X26587247Y-25468355D01*
X26647171Y-25446097D01*
X26716911Y-25441076D01*
X26782600Y-25453752D01*
G36*
X27283595Y-25461966D02*
X27341021Y-25499497D01*
X27368719Y-25533096D01*
X27390662Y-25594064D01*
X27392405Y-25642308D01*
X27388457Y-25706816D01*
X27239686Y-25771934D01*
X27167349Y-25805202D01*
X27120084Y-25831964D01*
X27095507Y-25855144D01*
X27091237Y-25877667D01*
X27104889Y-25902455D01*
X27119943Y-25918886D01*
X27163746Y-25945235D01*
X27211389Y-25947081D01*
X27255145Y-25926546D01*
X27287289Y-25885752D01*
X27293038Y-25871347D01*
X27320576Y-25826356D01*
X27352258Y-25807182D01*
X27395714Y-25790779D01*
X27395714Y-25852966D01*
X27391872Y-25895283D01*
X27376823Y-25930969D01*
X27345280Y-25971943D01*
X27340592Y-25977267D01*
X27305506Y-26013720D01*
X27275347Y-26033283D01*
X27237615Y-26042283D01*
X27206335Y-26045230D01*
X27150385Y-26045965D01*
X27110555Y-26036660D01*
X27085708Y-26022846D01*
X27046656Y-25992467D01*
X27019625Y-25959613D01*
X27002517Y-25918294D01*
X26993238Y-25862521D01*
X26989693Y-25786305D01*
X26989410Y-25747622D01*
X26990372Y-25701247D01*
X27078007Y-25701247D01*
X27079023Y-25726126D01*
X27081556Y-25730200D01*
X27098274Y-25724665D01*
X27134249Y-25710017D01*
X27182331Y-25689190D01*
X27192386Y-25684714D01*
X27253152Y-25653814D01*
X27286632Y-25626657D01*
X27293990Y-25601220D01*
X27276391Y-25575481D01*
X27261856Y-25564109D01*
X27209410Y-25541364D01*
X27160322Y-25545122D01*
X27119227Y-25572884D01*
X27090758Y-25622152D01*
X27081631Y-25661257D01*
X27078007Y-25701247D01*
X26990372Y-25701247D01*
X26991285Y-25657249D01*
X26998196Y-25590384D01*
X27011884Y-25541695D01*
X27034096Y-25505849D01*
X27066574Y-25477513D01*
X27080733Y-25468355D01*
X27145053Y-25444507D01*
X27215473Y-25443006D01*
X27283595Y-25461966D01*
X27283595Y-25461966D01*
G37*
X27283595Y-25461966D02*
X27341021Y-25499497D01*
X27368719Y-25533096D01*
X27390662Y-25594064D01*
X27392405Y-25642308D01*
X27388457Y-25706816D01*
X27239686Y-25771934D01*
X27167349Y-25805202D01*
X27120084Y-25831964D01*
X27095507Y-25855144D01*
X27091237Y-25877667D01*
X27104889Y-25902455D01*
X27119943Y-25918886D01*
X27163746Y-25945235D01*
X27211389Y-25947081D01*
X27255145Y-25926546D01*
X27287289Y-25885752D01*
X27293038Y-25871347D01*
X27320576Y-25826356D01*
X27352258Y-25807182D01*
X27395714Y-25790779D01*
X27395714Y-25852966D01*
X27391872Y-25895283D01*
X27376823Y-25930969D01*
X27345280Y-25971943D01*
X27340592Y-25977267D01*
X27305506Y-26013720D01*
X27275347Y-26033283D01*
X27237615Y-26042283D01*
X27206335Y-26045230D01*
X27150385Y-26045965D01*
X27110555Y-26036660D01*
X27085708Y-26022846D01*
X27046656Y-25992467D01*
X27019625Y-25959613D01*
X27002517Y-25918294D01*
X26993238Y-25862521D01*
X26989693Y-25786305D01*
X26989410Y-25747622D01*
X26990372Y-25701247D01*
X27078007Y-25701247D01*
X27079023Y-25726126D01*
X27081556Y-25730200D01*
X27098274Y-25724665D01*
X27134249Y-25710017D01*
X27182331Y-25689190D01*
X27192386Y-25684714D01*
X27253152Y-25653814D01*
X27286632Y-25626657D01*
X27293990Y-25601220D01*
X27276391Y-25575481D01*
X27261856Y-25564109D01*
X27209410Y-25541364D01*
X27160322Y-25545122D01*
X27119227Y-25572884D01*
X27090758Y-25622152D01*
X27081631Y-25661257D01*
X27078007Y-25701247D01*
X26990372Y-25701247D01*
X26991285Y-25657249D01*
X26998196Y-25590384D01*
X27011884Y-25541695D01*
X27034096Y-25505849D01*
X27066574Y-25477513D01*
X27080733Y-25468355D01*
X27145053Y-25444507D01*
X27215473Y-25443006D01*
X27283595Y-25461966D01*
G36*
X24233910Y-20737348D02*
X24312454Y-20737778D01*
X24369298Y-20738942D01*
X24408105Y-20741207D01*
X24432538Y-20744940D01*
X24446262Y-20750506D01*
X24452940Y-20758273D01*
X24456236Y-20768605D01*
X24456556Y-20769943D01*
X24461562Y-20794079D01*
X24470829Y-20841701D01*
X24483392Y-20907741D01*
X24498287Y-20987128D01*
X24514551Y-21074796D01*
X24515119Y-21077875D01*
X24531410Y-21163789D01*
X24546652Y-21239696D01*
X24559861Y-21301045D01*
X24570054Y-21343282D01*
X24576248Y-21361855D01*
X24576543Y-21362184D01*
X24594788Y-21371253D01*
X24632405Y-21386367D01*
X24681271Y-21404262D01*
X24681543Y-21404358D01*
X24743093Y-21427493D01*
X24815657Y-21456965D01*
X24884057Y-21486597D01*
X24887294Y-21488062D01*
X24998702Y-21538626D01*
X25245399Y-21370160D01*
X25321077Y-21318803D01*
X25389631Y-21272889D01*
X25447088Y-21235030D01*
X25489476Y-21207837D01*
X25512825Y-21193921D01*
X25515042Y-21192889D01*
X25532010Y-21197484D01*
X25563701Y-21219655D01*
X25611352Y-21260447D01*
X25676198Y-21320905D01*
X25742397Y-21385227D01*
X25806214Y-21448612D01*
X25863329Y-21506451D01*
X25910305Y-21555175D01*
X25943703Y-21591210D01*
X25960085Y-21610984D01*
X25960694Y-21612002D01*
X25962505Y-21625572D01*
X25955683Y-21647733D01*
X25938540Y-21681478D01*
X25909393Y-21729800D01*
X25866555Y-21795692D01*
X25809448Y-21880517D01*
X25758766Y-21955177D01*
X25713461Y-22022140D01*
X25676150Y-22077516D01*
X25649452Y-22117420D01*
X25635985Y-22137962D01*
X25635137Y-22139356D01*
X25636781Y-22159038D01*
X25649245Y-22197293D01*
X25670048Y-22246889D01*
X25677462Y-22262728D01*
X25709814Y-22333290D01*
X25744328Y-22413353D01*
X25772365Y-22482629D01*
X25792568Y-22534045D01*
X25808615Y-22573119D01*
X25817888Y-22593541D01*
X25819041Y-22595114D01*
X25836096Y-22597721D01*
X25876298Y-22604863D01*
X25934302Y-22615523D01*
X26004763Y-22628685D01*
X26082335Y-22643333D01*
X26161672Y-22658449D01*
X26237431Y-22673018D01*
X26304264Y-22686022D01*
X26356828Y-22696445D01*
X26389776Y-22703270D01*
X26397857Y-22705199D01*
X26406205Y-22709962D01*
X26412506Y-22720718D01*
X26417045Y-22741098D01*
X26420104Y-22774734D01*
X26421967Y-22825255D01*
X26422918Y-22896292D01*
X26423240Y-22991476D01*
X26423257Y-23030492D01*
X26423257Y-23347799D01*
X26347057Y-23362839D01*
X26304663Y-23370995D01*
X26241400Y-23382899D01*
X26164962Y-23397116D01*
X26083043Y-23412210D01*
X26060400Y-23416355D01*
X25984806Y-23431053D01*
X25918953Y-23445505D01*
X25868366Y-23458375D01*
X25838574Y-23468322D01*
X25833612Y-23471287D01*
X25821426Y-23492283D01*
X25803953Y-23532967D01*
X25784577Y-23585322D01*
X25780734Y-23596600D01*
X25755339Y-23666523D01*
X25723817Y-23745418D01*
X25692969Y-23816266D01*
X25692817Y-23816595D01*
X25641447Y-23927733D01*
X25810399Y-24176253D01*
X25979352Y-24424772D01*
X25762429Y-24642058D01*
X25696819Y-24706726D01*
X25636979Y-24763733D01*
X25586267Y-24810033D01*
X25548046Y-24842584D01*
X25525675Y-24858343D01*
X25522466Y-24859343D01*
X25503626Y-24851469D01*
X25465180Y-24829578D01*
X25411330Y-24796267D01*
X25346276Y-24754131D01*
X25275940Y-24706943D01*
X25204555Y-24658810D01*
X25140908Y-24616928D01*
X25089041Y-24583871D01*
X25052995Y-24562218D01*
X25036867Y-24554543D01*
X25017189Y-24561037D01*
X24979875Y-24578150D01*
X24932621Y-24602326D01*
X24927612Y-24605013D01*
X24863977Y-24636927D01*
X24820341Y-24652579D01*
X24793202Y-24652745D01*
X24779057Y-24638204D01*
X24778975Y-24638000D01*
X24771905Y-24620779D01*
X24755042Y-24579899D01*
X24729695Y-24518525D01*
X24697171Y-24439819D01*
X24658778Y-24346947D01*
X24615822Y-24243072D01*
X24574222Y-24142502D01*
X24528504Y-24031516D01*
X24486526Y-23928703D01*
X24449548Y-23837215D01*
X24418827Y-23760201D01*
X24395622Y-23700815D01*
X24381190Y-23662209D01*
X24376743Y-23647800D01*
X24387896Y-23631272D01*
X24417069Y-23604930D01*
X24455971Y-23575887D01*
X24566757Y-23484039D01*
X24653351Y-23378759D01*
X24714716Y-23262266D01*
X24749815Y-23136776D01*
X24757608Y-23004507D01*
X24751943Y-22943457D01*
X24721078Y-22816795D01*
X24667920Y-22704941D01*
X24595767Y-22609001D01*
X24507917Y-22530076D01*
X24407665Y-22469270D01*
X24298310Y-22427687D01*
X24183147Y-22406428D01*
X24065475Y-22406599D01*
X23948590Y-22429301D01*
X23835789Y-22475638D01*
X23730369Y-22546713D01*
X23686368Y-22586911D01*
X23601979Y-22690129D01*
X23543222Y-22802925D01*
X23509704Y-22922010D01*
X23501035Y-23044095D01*
X23516823Y-23165893D01*
X23556678Y-23284116D01*
X23620207Y-23395475D01*
X23707021Y-23496684D01*
X23804029Y-23575887D01*
X23844437Y-23606162D01*
X23872982Y-23632219D01*
X23883257Y-23647825D01*
X23877877Y-23664843D01*
X23862575Y-23705500D01*
X23838612Y-23766642D01*
X23807244Y-23845119D01*
X23769732Y-23937780D01*
X23727333Y-24041472D01*
X23685663Y-24142526D01*
X23639690Y-24253607D01*
X23597107Y-24356541D01*
X23559221Y-24448165D01*
X23527340Y-24525316D01*
X23502771Y-24584831D01*
X23486820Y-24623544D01*
X23480910Y-24638000D01*
X23466948Y-24652685D01*
X23439940Y-24652642D01*
X23396413Y-24637099D01*
X23332890Y-24605284D01*
X23332388Y-24605013D01*
X23284560Y-24580323D01*
X23245897Y-24562338D01*
X23224095Y-24554614D01*
X23223133Y-24554543D01*
X23206721Y-24562378D01*
X23170487Y-24584165D01*
X23118474Y-24617328D01*
X23054725Y-24659291D01*
X22984060Y-24706943D01*
X22912116Y-24755191D01*
X22847274Y-24797151D01*
X22793735Y-24830227D01*
X22755697Y-24851821D01*
X22737533Y-24859343D01*
X22720808Y-24849457D01*
X22687180Y-24821826D01*
X22640010Y-24779495D01*
X22582658Y-24725505D01*
X22518484Y-24662899D01*
X22497497Y-24641983D01*
X22280499Y-24424623D01*
X22445668Y-24182220D01*
X22495864Y-24107781D01*
X22539919Y-24040972D01*
X22575362Y-23985665D01*
X22599719Y-23945729D01*
X22610522Y-23925036D01*
X22610838Y-23923563D01*
X22605143Y-23904058D01*
X22589826Y-23864822D01*
X22567537Y-23812430D01*
X22551893Y-23777355D01*
X22522641Y-23710201D01*
X22495094Y-23642358D01*
X22473737Y-23585034D01*
X22467935Y-23567572D01*
X22451452Y-23520938D01*
X22435340Y-23484905D01*
X22426490Y-23471287D01*
X22406960Y-23462952D01*
X22364334Y-23451137D01*
X22304145Y-23437181D01*
X22231922Y-23422422D01*
X22199600Y-23416355D01*
X22117522Y-23401273D01*
X22038795Y-23386669D01*
X21971109Y-23373980D01*
X21922160Y-23364642D01*
X21912943Y-23362839D01*
X21836743Y-23347799D01*
X21836743Y-23030492D01*
X21836914Y-22926154D01*
X21837616Y-22847213D01*
X21839134Y-22790038D01*
X21841749Y-22750999D01*
X21845746Y-22726465D01*
X21851409Y-22712805D01*
X21859020Y-22706389D01*
X21862143Y-22705199D01*
X21880978Y-22700980D01*
X21922588Y-22692562D01*
X21981630Y-22680961D01*
X22052757Y-22667195D01*
X22130625Y-22652280D01*
X22209887Y-22637232D01*
X22285198Y-22623069D01*
X22351213Y-22610806D01*
X22402587Y-22601461D01*
X22433975Y-22596050D01*
X22440959Y-22595114D01*
X22447285Y-22582596D01*
X22461290Y-22549246D01*
X22480355Y-22501377D01*
X22487634Y-22482629D01*
X22516996Y-22410195D01*
X22551571Y-22330170D01*
X22582537Y-22262728D01*
X22605323Y-22211159D01*
X22620482Y-22168785D01*
X22625542Y-22142834D01*
X22624736Y-22139356D01*
X22614041Y-22122936D01*
X22589620Y-22086417D01*
X22554095Y-22033687D01*
X22510087Y-21968635D01*
X22460217Y-21895151D01*
X22450356Y-21880645D01*
X22392492Y-21794704D01*
X22349956Y-21729261D01*
X22321054Y-21681304D01*
X22304090Y-21647820D01*
X22297367Y-21625795D01*
X22299190Y-21612217D01*
X22299236Y-21612131D01*
X22313586Y-21594297D01*
X22345323Y-21559817D01*
X22391010Y-21512268D01*
X22447204Y-21455222D01*
X22510468Y-21392255D01*
X22517602Y-21385227D01*
X22597330Y-21308020D01*
X22658857Y-21251330D01*
X22703421Y-21214110D01*
X22732257Y-21195315D01*
X22744958Y-21192889D01*
X22763494Y-21203471D01*
X22801961Y-21227916D01*
X22856386Y-21263612D01*
X22922798Y-21307947D01*
X22997225Y-21358311D01*
X23014601Y-21370160D01*
X23261297Y-21538626D01*
X23372706Y-21488062D01*
X23440457Y-21458595D01*
X23513183Y-21428959D01*
X23575703Y-21405330D01*
X23578457Y-21404358D01*
X23627360Y-21386457D01*
X23665057Y-21371320D01*
X23683425Y-21362210D01*
X23683456Y-21362184D01*
X23689285Y-21345717D01*
X23699192Y-21305219D01*
X23712195Y-21245242D01*
X23727309Y-21170340D01*
X23743552Y-21085064D01*
X23744881Y-21077875D01*
X23761175Y-20990014D01*
X23776133Y-20910260D01*
X23788791Y-20843681D01*
X23798186Y-20795347D01*
X23803354Y-20770325D01*
X23803444Y-20769943D01*
X23806589Y-20759299D01*
X23812704Y-20751262D01*
X23825453Y-20745467D01*
X23848500Y-20741547D01*
X23885509Y-20739135D01*
X23940144Y-20737865D01*
X24016067Y-20737371D01*
X24116944Y-20737286D01*
X24130000Y-20737286D01*
X24233910Y-20737348D01*
X24233910Y-20737348D01*
G37*
X24233910Y-20737348D02*
X24312454Y-20737778D01*
X24369298Y-20738942D01*
X24408105Y-20741207D01*
X24432538Y-20744940D01*
X24446262Y-20750506D01*
X24452940Y-20758273D01*
X24456236Y-20768605D01*
X24456556Y-20769943D01*
X24461562Y-20794079D01*
X24470829Y-20841701D01*
X24483392Y-20907741D01*
X24498287Y-20987128D01*
X24514551Y-21074796D01*
X24515119Y-21077875D01*
X24531410Y-21163789D01*
X24546652Y-21239696D01*
X24559861Y-21301045D01*
X24570054Y-21343282D01*
X24576248Y-21361855D01*
X24576543Y-21362184D01*
X24594788Y-21371253D01*
X24632405Y-21386367D01*
X24681271Y-21404262D01*
X24681543Y-21404358D01*
X24743093Y-21427493D01*
X24815657Y-21456965D01*
X24884057Y-21486597D01*
X24887294Y-21488062D01*
X24998702Y-21538626D01*
X25245399Y-21370160D01*
X25321077Y-21318803D01*
X25389631Y-21272889D01*
X25447088Y-21235030D01*
X25489476Y-21207837D01*
X25512825Y-21193921D01*
X25515042Y-21192889D01*
X25532010Y-21197484D01*
X25563701Y-21219655D01*
X25611352Y-21260447D01*
X25676198Y-21320905D01*
X25742397Y-21385227D01*
X25806214Y-21448612D01*
X25863329Y-21506451D01*
X25910305Y-21555175D01*
X25943703Y-21591210D01*
X25960085Y-21610984D01*
X25960694Y-21612002D01*
X25962505Y-21625572D01*
X25955683Y-21647733D01*
X25938540Y-21681478D01*
X25909393Y-21729800D01*
X25866555Y-21795692D01*
X25809448Y-21880517D01*
X25758766Y-21955177D01*
X25713461Y-22022140D01*
X25676150Y-22077516D01*
X25649452Y-22117420D01*
X25635985Y-22137962D01*
X25635137Y-22139356D01*
X25636781Y-22159038D01*
X25649245Y-22197293D01*
X25670048Y-22246889D01*
X25677462Y-22262728D01*
X25709814Y-22333290D01*
X25744328Y-22413353D01*
X25772365Y-22482629D01*
X25792568Y-22534045D01*
X25808615Y-22573119D01*
X25817888Y-22593541D01*
X25819041Y-22595114D01*
X25836096Y-22597721D01*
X25876298Y-22604863D01*
X25934302Y-22615523D01*
X26004763Y-22628685D01*
X26082335Y-22643333D01*
X26161672Y-22658449D01*
X26237431Y-22673018D01*
X26304264Y-22686022D01*
X26356828Y-22696445D01*
X26389776Y-22703270D01*
X26397857Y-22705199D01*
X26406205Y-22709962D01*
X26412506Y-22720718D01*
X26417045Y-22741098D01*
X26420104Y-22774734D01*
X26421967Y-22825255D01*
X26422918Y-22896292D01*
X26423240Y-22991476D01*
X26423257Y-23030492D01*
X26423257Y-23347799D01*
X26347057Y-23362839D01*
X26304663Y-23370995D01*
X26241400Y-23382899D01*
X26164962Y-23397116D01*
X26083043Y-23412210D01*
X26060400Y-23416355D01*
X25984806Y-23431053D01*
X25918953Y-23445505D01*
X25868366Y-23458375D01*
X25838574Y-23468322D01*
X25833612Y-23471287D01*
X25821426Y-23492283D01*
X25803953Y-23532967D01*
X25784577Y-23585322D01*
X25780734Y-23596600D01*
X25755339Y-23666523D01*
X25723817Y-23745418D01*
X25692969Y-23816266D01*
X25692817Y-23816595D01*
X25641447Y-23927733D01*
X25810399Y-24176253D01*
X25979352Y-24424772D01*
X25762429Y-24642058D01*
X25696819Y-24706726D01*
X25636979Y-24763733D01*
X25586267Y-24810033D01*
X25548046Y-24842584D01*
X25525675Y-24858343D01*
X25522466Y-24859343D01*
X25503626Y-24851469D01*
X25465180Y-24829578D01*
X25411330Y-24796267D01*
X25346276Y-24754131D01*
X25275940Y-24706943D01*
X25204555Y-24658810D01*
X25140908Y-24616928D01*
X25089041Y-24583871D01*
X25052995Y-24562218D01*
X25036867Y-24554543D01*
X25017189Y-24561037D01*
X24979875Y-24578150D01*
X24932621Y-24602326D01*
X24927612Y-24605013D01*
X24863977Y-24636927D01*
X24820341Y-24652579D01*
X24793202Y-24652745D01*
X24779057Y-24638204D01*
X24778975Y-24638000D01*
X24771905Y-24620779D01*
X24755042Y-24579899D01*
X24729695Y-24518525D01*
X24697171Y-24439819D01*
X24658778Y-24346947D01*
X24615822Y-24243072D01*
X24574222Y-24142502D01*
X24528504Y-24031516D01*
X24486526Y-23928703D01*
X24449548Y-23837215D01*
X24418827Y-23760201D01*
X24395622Y-23700815D01*
X24381190Y-23662209D01*
X24376743Y-23647800D01*
X24387896Y-23631272D01*
X24417069Y-23604930D01*
X24455971Y-23575887D01*
X24566757Y-23484039D01*
X24653351Y-23378759D01*
X24714716Y-23262266D01*
X24749815Y-23136776D01*
X24757608Y-23004507D01*
X24751943Y-22943457D01*
X24721078Y-22816795D01*
X24667920Y-22704941D01*
X24595767Y-22609001D01*
X24507917Y-22530076D01*
X24407665Y-22469270D01*
X24298310Y-22427687D01*
X24183147Y-22406428D01*
X24065475Y-22406599D01*
X23948590Y-22429301D01*
X23835789Y-22475638D01*
X23730369Y-22546713D01*
X23686368Y-22586911D01*
X23601979Y-22690129D01*
X23543222Y-22802925D01*
X23509704Y-22922010D01*
X23501035Y-23044095D01*
X23516823Y-23165893D01*
X23556678Y-23284116D01*
X23620207Y-23395475D01*
X23707021Y-23496684D01*
X23804029Y-23575887D01*
X23844437Y-23606162D01*
X23872982Y-23632219D01*
X23883257Y-23647825D01*
X23877877Y-23664843D01*
X23862575Y-23705500D01*
X23838612Y-23766642D01*
X23807244Y-23845119D01*
X23769732Y-23937780D01*
X23727333Y-24041472D01*
X23685663Y-24142526D01*
X23639690Y-24253607D01*
X23597107Y-24356541D01*
X23559221Y-24448165D01*
X23527340Y-24525316D01*
X23502771Y-24584831D01*
X23486820Y-24623544D01*
X23480910Y-24638000D01*
X23466948Y-24652685D01*
X23439940Y-24652642D01*
X23396413Y-24637099D01*
X23332890Y-24605284D01*
X23332388Y-24605013D01*
X23284560Y-24580323D01*
X23245897Y-24562338D01*
X23224095Y-24554614D01*
X23223133Y-24554543D01*
X23206721Y-24562378D01*
X23170487Y-24584165D01*
X23118474Y-24617328D01*
X23054725Y-24659291D01*
X22984060Y-24706943D01*
X22912116Y-24755191D01*
X22847274Y-24797151D01*
X22793735Y-24830227D01*
X22755697Y-24851821D01*
X22737533Y-24859343D01*
X22720808Y-24849457D01*
X22687180Y-24821826D01*
X22640010Y-24779495D01*
X22582658Y-24725505D01*
X22518484Y-24662899D01*
X22497497Y-24641983D01*
X22280499Y-24424623D01*
X22445668Y-24182220D01*
X22495864Y-24107781D01*
X22539919Y-24040972D01*
X22575362Y-23985665D01*
X22599719Y-23945729D01*
X22610522Y-23925036D01*
X22610838Y-23923563D01*
X22605143Y-23904058D01*
X22589826Y-23864822D01*
X22567537Y-23812430D01*
X22551893Y-23777355D01*
X22522641Y-23710201D01*
X22495094Y-23642358D01*
X22473737Y-23585034D01*
X22467935Y-23567572D01*
X22451452Y-23520938D01*
X22435340Y-23484905D01*
X22426490Y-23471287D01*
X22406960Y-23462952D01*
X22364334Y-23451137D01*
X22304145Y-23437181D01*
X22231922Y-23422422D01*
X22199600Y-23416355D01*
X22117522Y-23401273D01*
X22038795Y-23386669D01*
X21971109Y-23373980D01*
X21922160Y-23364642D01*
X21912943Y-23362839D01*
X21836743Y-23347799D01*
X21836743Y-23030492D01*
X21836914Y-22926154D01*
X21837616Y-22847213D01*
X21839134Y-22790038D01*
X21841749Y-22750999D01*
X21845746Y-22726465D01*
X21851409Y-22712805D01*
X21859020Y-22706389D01*
X21862143Y-22705199D01*
X21880978Y-22700980D01*
X21922588Y-22692562D01*
X21981630Y-22680961D01*
X22052757Y-22667195D01*
X22130625Y-22652280D01*
X22209887Y-22637232D01*
X22285198Y-22623069D01*
X22351213Y-22610806D01*
X22402587Y-22601461D01*
X22433975Y-22596050D01*
X22440959Y-22595114D01*
X22447285Y-22582596D01*
X22461290Y-22549246D01*
X22480355Y-22501377D01*
X22487634Y-22482629D01*
X22516996Y-22410195D01*
X22551571Y-22330170D01*
X22582537Y-22262728D01*
X22605323Y-22211159D01*
X22620482Y-22168785D01*
X22625542Y-22142834D01*
X22624736Y-22139356D01*
X22614041Y-22122936D01*
X22589620Y-22086417D01*
X22554095Y-22033687D01*
X22510087Y-21968635D01*
X22460217Y-21895151D01*
X22450356Y-21880645D01*
X22392492Y-21794704D01*
X22349956Y-21729261D01*
X22321054Y-21681304D01*
X22304090Y-21647820D01*
X22297367Y-21625795D01*
X22299190Y-21612217D01*
X22299236Y-21612131D01*
X22313586Y-21594297D01*
X22345323Y-21559817D01*
X22391010Y-21512268D01*
X22447204Y-21455222D01*
X22510468Y-21392255D01*
X22517602Y-21385227D01*
X22597330Y-21308020D01*
X22658857Y-21251330D01*
X22703421Y-21214110D01*
X22732257Y-21195315D01*
X22744958Y-21192889D01*
X22763494Y-21203471D01*
X22801961Y-21227916D01*
X22856386Y-21263612D01*
X22922798Y-21307947D01*
X22997225Y-21358311D01*
X23014601Y-21370160D01*
X23261297Y-21538626D01*
X23372706Y-21488062D01*
X23440457Y-21458595D01*
X23513183Y-21428959D01*
X23575703Y-21405330D01*
X23578457Y-21404358D01*
X23627360Y-21386457D01*
X23665057Y-21371320D01*
X23683425Y-21362210D01*
X23683456Y-21362184D01*
X23689285Y-21345717D01*
X23699192Y-21305219D01*
X23712195Y-21245242D01*
X23727309Y-21170340D01*
X23743552Y-21085064D01*
X23744881Y-21077875D01*
X23761175Y-20990014D01*
X23776133Y-20910260D01*
X23788791Y-20843681D01*
X23798186Y-20795347D01*
X23803354Y-20770325D01*
X23803444Y-20769943D01*
X23806589Y-20759299D01*
X23812704Y-20751262D01*
X23825453Y-20745467D01*
X23848500Y-20741547D01*
X23885509Y-20739135D01*
X23940144Y-20737865D01*
X24016067Y-20737371D01*
X24116944Y-20737286D01*
X24130000Y-20737286D01*
X24233910Y-20737348D01*
D12*
G04 #@! TO.C,C2*
X91745000Y-88250000D02*
X91745000Y-89550000D01*
X91145000Y-88900000D02*
X92345000Y-88900000D01*
X97796000Y-88432000D02*
X97796000Y-89368000D01*
X97756000Y-88224000D02*
X97756000Y-89576000D01*
X97716000Y-88066000D02*
X97716000Y-89734000D01*
X97676000Y-87934000D02*
X97676000Y-89866000D01*
X97636000Y-87819000D02*
X97636000Y-89981000D01*
X97596000Y-87716000D02*
X97596000Y-90084000D01*
X97556000Y-87622000D02*
X97556000Y-90178000D01*
X97516000Y-87536000D02*
X97516000Y-90264000D01*
X97476000Y-87455000D02*
X97476000Y-90345000D01*
X97436000Y-87380000D02*
X97436000Y-90420000D01*
X97396000Y-87309000D02*
X97396000Y-90491000D01*
X97356000Y-87242000D02*
X97356000Y-90558000D01*
X97316000Y-87179000D02*
X97316000Y-90621000D01*
X97276000Y-87119000D02*
X97276000Y-90681000D01*
X97236000Y-87061000D02*
X97236000Y-90739000D01*
X97196000Y-87006000D02*
X97196000Y-90794000D01*
X97156000Y-86954000D02*
X97156000Y-90846000D01*
X97116000Y-86903000D02*
X97116000Y-90897000D01*
X97076000Y-86855000D02*
X97076000Y-90945000D01*
X97036000Y-86808000D02*
X97036000Y-90992000D01*
X96996000Y-86763000D02*
X96996000Y-91037000D01*
X96956000Y-86720000D02*
X96956000Y-91080000D01*
X96916000Y-86678000D02*
X96916000Y-91122000D01*
X96876000Y-86638000D02*
X96876000Y-91162000D01*
X96836000Y-86599000D02*
X96836000Y-91201000D01*
X96796000Y-89880000D02*
X96796000Y-91239000D01*
X96796000Y-86561000D02*
X96796000Y-87920000D01*
X96756000Y-89880000D02*
X96756000Y-91275000D01*
X96756000Y-86525000D02*
X96756000Y-87920000D01*
X96716000Y-89880000D02*
X96716000Y-91311000D01*
X96716000Y-86489000D02*
X96716000Y-87920000D01*
X96676000Y-89880000D02*
X96676000Y-91345000D01*
X96676000Y-86455000D02*
X96676000Y-87920000D01*
X96636000Y-89880000D02*
X96636000Y-91378000D01*
X96636000Y-86422000D02*
X96636000Y-87920000D01*
X96596000Y-89880000D02*
X96596000Y-91410000D01*
X96596000Y-86390000D02*
X96596000Y-87920000D01*
X96556000Y-89880000D02*
X96556000Y-91440000D01*
X96556000Y-86360000D02*
X96556000Y-87920000D01*
X96516000Y-89880000D02*
X96516000Y-91470000D01*
X96516000Y-86330000D02*
X96516000Y-87920000D01*
X96476000Y-89880000D02*
X96476000Y-91499000D01*
X96476000Y-86301000D02*
X96476000Y-87920000D01*
X96436000Y-89880000D02*
X96436000Y-91527000D01*
X96436000Y-86273000D02*
X96436000Y-87920000D01*
X96396000Y-89880000D02*
X96396000Y-91554000D01*
X96396000Y-86246000D02*
X96396000Y-87920000D01*
X96356000Y-89880000D02*
X96356000Y-91581000D01*
X96356000Y-86219000D02*
X96356000Y-87920000D01*
X96316000Y-89880000D02*
X96316000Y-91606000D01*
X96316000Y-86194000D02*
X96316000Y-87920000D01*
X96276000Y-89880000D02*
X96276000Y-91631000D01*
X96276000Y-86169000D02*
X96276000Y-87920000D01*
X96236000Y-89880000D02*
X96236000Y-91655000D01*
X96236000Y-86145000D02*
X96236000Y-87920000D01*
X96196000Y-89880000D02*
X96196000Y-91678000D01*
X96196000Y-86122000D02*
X96196000Y-87920000D01*
X96156000Y-89880000D02*
X96156000Y-91700000D01*
X96156000Y-86100000D02*
X96156000Y-87920000D01*
X96116000Y-89880000D02*
X96116000Y-91722000D01*
X96116000Y-86078000D02*
X96116000Y-87920000D01*
X96076000Y-89880000D02*
X96076000Y-91743000D01*
X96076000Y-86057000D02*
X96076000Y-87920000D01*
X96036000Y-89880000D02*
X96036000Y-91763000D01*
X96036000Y-86037000D02*
X96036000Y-87920000D01*
X95996000Y-89880000D02*
X95996000Y-91782000D01*
X95996000Y-86018000D02*
X95996000Y-87920000D01*
X95956000Y-89880000D02*
X95956000Y-91801000D01*
X95956000Y-85999000D02*
X95956000Y-87920000D01*
X95916000Y-89880000D02*
X95916000Y-91819000D01*
X95916000Y-85981000D02*
X95916000Y-87920000D01*
X95876000Y-89880000D02*
X95876000Y-91837000D01*
X95876000Y-85963000D02*
X95876000Y-87920000D01*
X95836000Y-89880000D02*
X95836000Y-91854000D01*
X95836000Y-85946000D02*
X95836000Y-87920000D01*
X95796000Y-89880000D02*
X95796000Y-91870000D01*
X95796000Y-85930000D02*
X95796000Y-87920000D01*
X95756000Y-89880000D02*
X95756000Y-91886000D01*
X95756000Y-85914000D02*
X95756000Y-87920000D01*
X95716000Y-89880000D02*
X95716000Y-91901000D01*
X95716000Y-85899000D02*
X95716000Y-87920000D01*
X95676000Y-89880000D02*
X95676000Y-91915000D01*
X95676000Y-85885000D02*
X95676000Y-87920000D01*
X95636000Y-89880000D02*
X95636000Y-91929000D01*
X95636000Y-85871000D02*
X95636000Y-87920000D01*
X95596000Y-89880000D02*
X95596000Y-91942000D01*
X95596000Y-85858000D02*
X95596000Y-87920000D01*
X95556000Y-89880000D02*
X95556000Y-91955000D01*
X95556000Y-85845000D02*
X95556000Y-87920000D01*
X95516000Y-89880000D02*
X95516000Y-91967000D01*
X95516000Y-85833000D02*
X95516000Y-87920000D01*
X95476000Y-89880000D02*
X95476000Y-91979000D01*
X95476000Y-85821000D02*
X95476000Y-87920000D01*
X95436000Y-89880000D02*
X95436000Y-91990000D01*
X95436000Y-85810000D02*
X95436000Y-87920000D01*
X95396000Y-89880000D02*
X95396000Y-92000000D01*
X95396000Y-85800000D02*
X95396000Y-87920000D01*
X95356000Y-89880000D02*
X95356000Y-92010000D01*
X95356000Y-85790000D02*
X95356000Y-87920000D01*
X95316000Y-89880000D02*
X95316000Y-92019000D01*
X95316000Y-85781000D02*
X95316000Y-87920000D01*
X95275000Y-89880000D02*
X95275000Y-92028000D01*
X95275000Y-85772000D02*
X95275000Y-87920000D01*
X95235000Y-89880000D02*
X95235000Y-92037000D01*
X95235000Y-85763000D02*
X95235000Y-87920000D01*
X95195000Y-89880000D02*
X95195000Y-92044000D01*
X95195000Y-85756000D02*
X95195000Y-87920000D01*
X95155000Y-89880000D02*
X95155000Y-92052000D01*
X95155000Y-85748000D02*
X95155000Y-87920000D01*
X95115000Y-89880000D02*
X95115000Y-92058000D01*
X95115000Y-85742000D02*
X95115000Y-87920000D01*
X95075000Y-89880000D02*
X95075000Y-92065000D01*
X95075000Y-85735000D02*
X95075000Y-87920000D01*
X95035000Y-89880000D02*
X95035000Y-92070000D01*
X95035000Y-85730000D02*
X95035000Y-87920000D01*
X94995000Y-89880000D02*
X94995000Y-92076000D01*
X94995000Y-85724000D02*
X94995000Y-87920000D01*
X94955000Y-89880000D02*
X94955000Y-92080000D01*
X94955000Y-85720000D02*
X94955000Y-87920000D01*
X94915000Y-89880000D02*
X94915000Y-92085000D01*
X94915000Y-85715000D02*
X94915000Y-87920000D01*
X94875000Y-89880000D02*
X94875000Y-92088000D01*
X94875000Y-85712000D02*
X94875000Y-87920000D01*
X94835000Y-85708000D02*
X94835000Y-92092000D01*
X94795000Y-85706000D02*
X94795000Y-92094000D01*
X94755000Y-85703000D02*
X94755000Y-92097000D01*
X94715000Y-85702000D02*
X94715000Y-92098000D01*
X94675000Y-85700000D02*
X94675000Y-92100000D01*
X94635000Y-85700000D02*
X94635000Y-92100000D01*
X94595000Y-85700000D02*
X94595000Y-92100000D01*
X97612820Y-90079136D02*
G75*
G03X97612482Y-87720000I-3017820J1179136D01*
G01*
X97612820Y-90079136D02*
G75*
G02X91577518Y-90080000I-3017820J1179136D01*
G01*
X97612820Y-87720864D02*
G75*
G03X91577518Y-87720000I-3017820J-1179136D01*
G01*
G04 #@! TO.C,C1*
X26602000Y-69624000D02*
X25428000Y-69624000D01*
X26602000Y-71346000D02*
X25428000Y-71346000D01*
G04 #@! TO.C,C3*
X42771000Y-31143000D02*
X42771000Y-32317000D01*
X41049000Y-31143000D02*
X41049000Y-32317000D01*
G04 #@! TO.C,C4*
X41049000Y-43883000D02*
X41049000Y-45057000D01*
X42771000Y-43883000D02*
X42771000Y-45057000D01*
G04 #@! TO.C,C5*
X45652000Y-53566000D02*
X44478000Y-53566000D01*
X45652000Y-51844000D02*
X44478000Y-51844000D01*
G04 #@! TO.C,C6*
X59027000Y-51844000D02*
X57853000Y-51844000D01*
X59027000Y-53566000D02*
X57853000Y-53566000D01*
G04 #@! TO.C,C7*
X71727000Y-53566000D02*
X70553000Y-53566000D01*
X71727000Y-51844000D02*
X70553000Y-51844000D01*
G04 #@! TO.C,C8*
X95278000Y-45946000D02*
X96452000Y-45946000D01*
X95278000Y-44224000D02*
X96452000Y-44224000D01*
G04 #@! TO.C,C9*
X117066000Y-64838000D02*
X117066000Y-66012000D01*
X115344000Y-64838000D02*
X115344000Y-66012000D01*
G04 #@! TO.C,C10*
X101532000Y-82324000D02*
X100358000Y-82324000D01*
X101532000Y-84046000D02*
X100358000Y-84046000D01*
G04 #@! TO.C,C11*
X77244000Y-66012000D02*
X77244000Y-64838000D01*
X78966000Y-66012000D02*
X78966000Y-64838000D01*
G04 #@! TO.C,C12*
X58987000Y-77244000D02*
X57813000Y-77244000D01*
X58987000Y-78966000D02*
X57813000Y-78966000D01*
G04 #@! TO.C,C13*
X71727000Y-78966000D02*
X70553000Y-78966000D01*
X71727000Y-77244000D02*
X70553000Y-77244000D01*
G04 #@! TO.C,C14*
X84387000Y-82324000D02*
X83213000Y-82324000D01*
X84387000Y-84046000D02*
X83213000Y-84046000D01*
G04 #@! TO.C,Y1*
X28560000Y-58570000D02*
G75*
G03X23510000Y-58570000I-2525000J0D01*
G01*
X28560000Y-64820000D02*
G75*
G02X23510000Y-64820000I-2525000J0D01*
G01*
X28560000Y-64820000D02*
X28560000Y-58570000D01*
X23510000Y-64820000D02*
X23510000Y-58570000D01*
G04 #@! TO.C,U1*
X59420000Y-55820000D02*
G75*
G02X57420000Y-55820000I-1000000J0D01*
G01*
X57420000Y-55820000D02*
X55770000Y-55820000D01*
X55770000Y-55820000D02*
X55770000Y-73720000D01*
X55770000Y-73720000D02*
X61070000Y-73720000D01*
X61070000Y-73720000D02*
X61070000Y-55820000D01*
X61070000Y-55820000D02*
X59420000Y-55820000D01*
G04 #@! TO.C,U2*
X73770000Y-55820000D02*
X72120000Y-55820000D01*
X73770000Y-73720000D02*
X73770000Y-55820000D01*
X68470000Y-73720000D02*
X73770000Y-73720000D01*
X68470000Y-55820000D02*
X68470000Y-73720000D01*
X70120000Y-55820000D02*
X68470000Y-55820000D01*
X72120000Y-55820000D02*
G75*
G02X70120000Y-55820000I-1000000J0D01*
G01*
G04 #@! TO.C,U5*
X86470000Y-86300000D02*
X84820000Y-86300000D01*
X86470000Y-106740000D02*
X86470000Y-86300000D01*
X81170000Y-106740000D02*
X86470000Y-106740000D01*
X81170000Y-86300000D02*
X81170000Y-106740000D01*
X82820000Y-86300000D02*
X81170000Y-86300000D01*
X84820000Y-86300000D02*
G75*
G02X82820000Y-86300000I-1000000J0D01*
G01*
G04 #@! TO.C,U3*
X59420000Y-81220000D02*
G75*
G02X57420000Y-81220000I-1000000J0D01*
G01*
X57420000Y-81220000D02*
X55770000Y-81220000D01*
X55770000Y-81220000D02*
X55770000Y-106740000D01*
X55770000Y-106740000D02*
X61070000Y-106740000D01*
X61070000Y-106740000D02*
X61070000Y-81220000D01*
X61070000Y-81220000D02*
X59420000Y-81220000D01*
G04 #@! TO.C,U7*
X73770000Y-81220000D02*
X72120000Y-81220000D01*
X73770000Y-106740000D02*
X73770000Y-81220000D01*
X68470000Y-106740000D02*
X73770000Y-106740000D01*
X68470000Y-81220000D02*
X68470000Y-106740000D01*
X70120000Y-81220000D02*
X68470000Y-81220000D01*
X72120000Y-81220000D02*
G75*
G02X70120000Y-81220000I-1000000J0D01*
G01*
G04 #@! TO.C,U9*
X45025000Y-30750000D02*
G75*
G02X45025000Y-32750000I0J-1000000D01*
G01*
X45025000Y-32750000D02*
X45025000Y-34400000D01*
X45025000Y-34400000D02*
X75625000Y-34400000D01*
X75625000Y-34400000D02*
X75625000Y-29100000D01*
X75625000Y-29100000D02*
X45025000Y-29100000D01*
X45025000Y-29100000D02*
X45025000Y-30750000D01*
G04 #@! TO.C,U10*
X45025000Y-41800000D02*
X45025000Y-43450000D01*
X75625000Y-41800000D02*
X45025000Y-41800000D01*
X75625000Y-47100000D02*
X75625000Y-41800000D01*
X45025000Y-47100000D02*
X75625000Y-47100000D01*
X45025000Y-45450000D02*
X45025000Y-47100000D01*
X45025000Y-43450000D02*
G75*
G02X45025000Y-45450000I0J-1000000D01*
G01*
G04 #@! TO.C,U4*
X45830000Y-55820000D02*
X40370000Y-55820000D01*
X45830000Y-106740000D02*
X45830000Y-55820000D01*
X32910000Y-106740000D02*
X45830000Y-106740000D01*
X32910000Y-55820000D02*
X32910000Y-106740000D01*
X38370000Y-55820000D02*
X32910000Y-55820000D01*
X40370000Y-55820000D02*
G75*
G02X38370000Y-55820000I-1000000J0D01*
G01*
G04 #@! TO.C,J2*
X99635000Y-41970000D02*
X99635000Y-40640000D01*
X100965000Y-41970000D02*
X99635000Y-41970000D01*
X99635000Y-39370000D02*
X99635000Y-36770000D01*
X102235000Y-39370000D02*
X99635000Y-39370000D01*
X102235000Y-41970000D02*
X102235000Y-39370000D01*
X99635000Y-36770000D02*
X112455000Y-36770000D01*
X102235000Y-41970000D02*
X112455000Y-41970000D01*
X112455000Y-41970000D02*
X112455000Y-36770000D01*
G04 #@! TO.C,R1*
X82550000Y-32730000D02*
X82550000Y-33620000D01*
X82550000Y-40930000D02*
X82550000Y-40040000D01*
X81240000Y-33620000D02*
X81240000Y-40040000D01*
X83860000Y-33620000D02*
X81240000Y-33620000D01*
X83860000Y-40040000D02*
X83860000Y-33620000D01*
X81240000Y-40040000D02*
X83860000Y-40040000D01*
G04 #@! TO.C,R2*
X84415000Y-40040000D02*
X87035000Y-40040000D01*
X87035000Y-40040000D02*
X87035000Y-33620000D01*
X87035000Y-33620000D02*
X84415000Y-33620000D01*
X84415000Y-33620000D02*
X84415000Y-40040000D01*
X85725000Y-40930000D02*
X85725000Y-40040000D01*
X85725000Y-32730000D02*
X85725000Y-33620000D01*
G04 #@! TO.C,R3*
X88900000Y-32730000D02*
X88900000Y-33620000D01*
X88900000Y-40930000D02*
X88900000Y-40040000D01*
X87590000Y-33620000D02*
X87590000Y-40040000D01*
X90210000Y-33620000D02*
X87590000Y-33620000D01*
X90210000Y-40040000D02*
X90210000Y-33620000D01*
X87590000Y-40040000D02*
X90210000Y-40040000D01*
D13*
G04 #@! TO.C,J1*
X113639600Y-118745000D02*
X114249200Y-118745000D01*
X114249200Y-110515400D02*
X25450800Y-110515400D01*
X25450800Y-110515400D02*
X25450800Y-118745000D01*
X25450800Y-118745000D02*
X26060400Y-118745000D01*
X114249200Y-118745000D02*
X114249200Y-110515400D01*
X111150400Y-118745000D02*
X28549600Y-118745000D01*
X27305000Y-119303800D02*
X27305000Y-126238000D01*
X27305000Y-126238000D02*
X112395000Y-126238000D01*
X112395000Y-126238000D02*
X112395000Y-119303800D01*
D14*
G04 #@! TO.C,U8*
X86995000Y-53975000D02*
X86995000Y-70485000D01*
X113665000Y-47625000D02*
X80645000Y-47625000D01*
X113665000Y-80645000D02*
X113665000Y-47625000D01*
X80645000Y-80645000D02*
X113665000Y-80645000D01*
X80645000Y-47625000D02*
X80645000Y-80645000D01*
X107315000Y-53975000D02*
X86995000Y-53975000D01*
X107315000Y-74295000D02*
X107315000Y-53975000D01*
X89535000Y-74295000D02*
X107315000Y-74295000D01*
X86995000Y-70485000D02*
X89535000Y-74295000D01*
G04 #@! TO.C,C2*
X94428333Y-84797142D02*
X94380714Y-84844761D01*
X94237857Y-84892380D01*
X94142619Y-84892380D01*
X93999761Y-84844761D01*
X93904523Y-84749523D01*
X93856904Y-84654285D01*
X93809285Y-84463809D01*
X93809285Y-84320952D01*
X93856904Y-84130476D01*
X93904523Y-84035238D01*
X93999761Y-83940000D01*
X94142619Y-83892380D01*
X94237857Y-83892380D01*
X94380714Y-83940000D01*
X94428333Y-83987619D01*
X94809285Y-83987619D02*
X94856904Y-83940000D01*
X94952142Y-83892380D01*
X95190238Y-83892380D01*
X95285476Y-83940000D01*
X95333095Y-83987619D01*
X95380714Y-84082857D01*
X95380714Y-84178095D01*
X95333095Y-84320952D01*
X94761666Y-84892380D01*
X95380714Y-84892380D01*
G04 #@! TO.C,C1*
X25848333Y-72952142D02*
X25800714Y-72999761D01*
X25657857Y-73047380D01*
X25562619Y-73047380D01*
X25419761Y-72999761D01*
X25324523Y-72904523D01*
X25276904Y-72809285D01*
X25229285Y-72618809D01*
X25229285Y-72475952D01*
X25276904Y-72285476D01*
X25324523Y-72190238D01*
X25419761Y-72095000D01*
X25562619Y-72047380D01*
X25657857Y-72047380D01*
X25800714Y-72095000D01*
X25848333Y-72142619D01*
X26800714Y-73047380D02*
X26229285Y-73047380D01*
X26515000Y-73047380D02*
X26515000Y-72047380D01*
X26419761Y-72190238D01*
X26324523Y-72285476D01*
X26229285Y-72333095D01*
G04 #@! TO.C,C3*
X40362142Y-31916666D02*
X40409761Y-31964285D01*
X40457380Y-32107142D01*
X40457380Y-32202380D01*
X40409761Y-32345238D01*
X40314523Y-32440476D01*
X40219285Y-32488095D01*
X40028809Y-32535714D01*
X39885952Y-32535714D01*
X39695476Y-32488095D01*
X39600238Y-32440476D01*
X39505000Y-32345238D01*
X39457380Y-32202380D01*
X39457380Y-32107142D01*
X39505000Y-31964285D01*
X39552619Y-31916666D01*
X39457380Y-31583333D02*
X39457380Y-30964285D01*
X39838333Y-31297619D01*
X39838333Y-31154761D01*
X39885952Y-31059523D01*
X39933571Y-31011904D01*
X40028809Y-30964285D01*
X40266904Y-30964285D01*
X40362142Y-31011904D01*
X40409761Y-31059523D01*
X40457380Y-31154761D01*
X40457380Y-31440476D01*
X40409761Y-31535714D01*
X40362142Y-31583333D01*
G04 #@! TO.C,C4*
X40362142Y-44616666D02*
X40409761Y-44664285D01*
X40457380Y-44807142D01*
X40457380Y-44902380D01*
X40409761Y-45045238D01*
X40314523Y-45140476D01*
X40219285Y-45188095D01*
X40028809Y-45235714D01*
X39885952Y-45235714D01*
X39695476Y-45188095D01*
X39600238Y-45140476D01*
X39505000Y-45045238D01*
X39457380Y-44902380D01*
X39457380Y-44807142D01*
X39505000Y-44664285D01*
X39552619Y-44616666D01*
X39790714Y-43759523D02*
X40457380Y-43759523D01*
X39409761Y-43997619D02*
X40124047Y-44235714D01*
X40124047Y-43616666D01*
G04 #@! TO.C,C5*
X44898333Y-51157142D02*
X44850714Y-51204761D01*
X44707857Y-51252380D01*
X44612619Y-51252380D01*
X44469761Y-51204761D01*
X44374523Y-51109523D01*
X44326904Y-51014285D01*
X44279285Y-50823809D01*
X44279285Y-50680952D01*
X44326904Y-50490476D01*
X44374523Y-50395238D01*
X44469761Y-50300000D01*
X44612619Y-50252380D01*
X44707857Y-50252380D01*
X44850714Y-50300000D01*
X44898333Y-50347619D01*
X45803095Y-50252380D02*
X45326904Y-50252380D01*
X45279285Y-50728571D01*
X45326904Y-50680952D01*
X45422142Y-50633333D01*
X45660238Y-50633333D01*
X45755476Y-50680952D01*
X45803095Y-50728571D01*
X45850714Y-50823809D01*
X45850714Y-51061904D01*
X45803095Y-51157142D01*
X45755476Y-51204761D01*
X45660238Y-51252380D01*
X45422142Y-51252380D01*
X45326904Y-51204761D01*
X45279285Y-51157142D01*
G04 #@! TO.C,C6*
X58273333Y-51157142D02*
X58225714Y-51204761D01*
X58082857Y-51252380D01*
X57987619Y-51252380D01*
X57844761Y-51204761D01*
X57749523Y-51109523D01*
X57701904Y-51014285D01*
X57654285Y-50823809D01*
X57654285Y-50680952D01*
X57701904Y-50490476D01*
X57749523Y-50395238D01*
X57844761Y-50300000D01*
X57987619Y-50252380D01*
X58082857Y-50252380D01*
X58225714Y-50300000D01*
X58273333Y-50347619D01*
X59130476Y-50252380D02*
X58940000Y-50252380D01*
X58844761Y-50300000D01*
X58797142Y-50347619D01*
X58701904Y-50490476D01*
X58654285Y-50680952D01*
X58654285Y-51061904D01*
X58701904Y-51157142D01*
X58749523Y-51204761D01*
X58844761Y-51252380D01*
X59035238Y-51252380D01*
X59130476Y-51204761D01*
X59178095Y-51157142D01*
X59225714Y-51061904D01*
X59225714Y-50823809D01*
X59178095Y-50728571D01*
X59130476Y-50680952D01*
X59035238Y-50633333D01*
X58844761Y-50633333D01*
X58749523Y-50680952D01*
X58701904Y-50728571D01*
X58654285Y-50823809D01*
G04 #@! TO.C,C7*
X70953333Y-51157142D02*
X70905714Y-51204761D01*
X70762857Y-51252380D01*
X70667619Y-51252380D01*
X70524761Y-51204761D01*
X70429523Y-51109523D01*
X70381904Y-51014285D01*
X70334285Y-50823809D01*
X70334285Y-50680952D01*
X70381904Y-50490476D01*
X70429523Y-50395238D01*
X70524761Y-50300000D01*
X70667619Y-50252380D01*
X70762857Y-50252380D01*
X70905714Y-50300000D01*
X70953333Y-50347619D01*
X71286666Y-50252380D02*
X71953333Y-50252380D01*
X71524761Y-51252380D01*
G04 #@! TO.C,C8*
X95698333Y-43332142D02*
X95650714Y-43379761D01*
X95507857Y-43427380D01*
X95412619Y-43427380D01*
X95269761Y-43379761D01*
X95174523Y-43284523D01*
X95126904Y-43189285D01*
X95079285Y-42998809D01*
X95079285Y-42855952D01*
X95126904Y-42665476D01*
X95174523Y-42570238D01*
X95269761Y-42475000D01*
X95412619Y-42427380D01*
X95507857Y-42427380D01*
X95650714Y-42475000D01*
X95698333Y-42522619D01*
X96269761Y-42855952D02*
X96174523Y-42808333D01*
X96126904Y-42760714D01*
X96079285Y-42665476D01*
X96079285Y-42617857D01*
X96126904Y-42522619D01*
X96174523Y-42475000D01*
X96269761Y-42427380D01*
X96460238Y-42427380D01*
X96555476Y-42475000D01*
X96603095Y-42522619D01*
X96650714Y-42617857D01*
X96650714Y-42665476D01*
X96603095Y-42760714D01*
X96555476Y-42808333D01*
X96460238Y-42855952D01*
X96269761Y-42855952D01*
X96174523Y-42903571D01*
X96126904Y-42951190D01*
X96079285Y-43046428D01*
X96079285Y-43236904D01*
X96126904Y-43332142D01*
X96174523Y-43379761D01*
X96269761Y-43427380D01*
X96460238Y-43427380D01*
X96555476Y-43379761D01*
X96603095Y-43332142D01*
X96650714Y-43236904D01*
X96650714Y-43046428D01*
X96603095Y-42951190D01*
X96555476Y-42903571D01*
X96460238Y-42855952D01*
G04 #@! TO.C,C9*
X118672142Y-65591666D02*
X118719761Y-65639285D01*
X118767380Y-65782142D01*
X118767380Y-65877380D01*
X118719761Y-66020238D01*
X118624523Y-66115476D01*
X118529285Y-66163095D01*
X118338809Y-66210714D01*
X118195952Y-66210714D01*
X118005476Y-66163095D01*
X117910238Y-66115476D01*
X117815000Y-66020238D01*
X117767380Y-65877380D01*
X117767380Y-65782142D01*
X117815000Y-65639285D01*
X117862619Y-65591666D01*
X118767380Y-65115476D02*
X118767380Y-64925000D01*
X118719761Y-64829761D01*
X118672142Y-64782142D01*
X118529285Y-64686904D01*
X118338809Y-64639285D01*
X117957857Y-64639285D01*
X117862619Y-64686904D01*
X117815000Y-64734523D01*
X117767380Y-64829761D01*
X117767380Y-65020238D01*
X117815000Y-65115476D01*
X117862619Y-65163095D01*
X117957857Y-65210714D01*
X118195952Y-65210714D01*
X118291190Y-65163095D01*
X118338809Y-65115476D01*
X118386428Y-65020238D01*
X118386428Y-64829761D01*
X118338809Y-64734523D01*
X118291190Y-64686904D01*
X118195952Y-64639285D01*
G04 #@! TO.C,C10*
X100302142Y-85652142D02*
X100254523Y-85699761D01*
X100111666Y-85747380D01*
X100016428Y-85747380D01*
X99873571Y-85699761D01*
X99778333Y-85604523D01*
X99730714Y-85509285D01*
X99683095Y-85318809D01*
X99683095Y-85175952D01*
X99730714Y-84985476D01*
X99778333Y-84890238D01*
X99873571Y-84795000D01*
X100016428Y-84747380D01*
X100111666Y-84747380D01*
X100254523Y-84795000D01*
X100302142Y-84842619D01*
X101254523Y-85747380D02*
X100683095Y-85747380D01*
X100968809Y-85747380D02*
X100968809Y-84747380D01*
X100873571Y-84890238D01*
X100778333Y-84985476D01*
X100683095Y-85033095D01*
X101873571Y-84747380D02*
X101968809Y-84747380D01*
X102064047Y-84795000D01*
X102111666Y-84842619D01*
X102159285Y-84937857D01*
X102206904Y-85128333D01*
X102206904Y-85366428D01*
X102159285Y-85556904D01*
X102111666Y-85652142D01*
X102064047Y-85699761D01*
X101968809Y-85747380D01*
X101873571Y-85747380D01*
X101778333Y-85699761D01*
X101730714Y-85652142D01*
X101683095Y-85556904D01*
X101635476Y-85366428D01*
X101635476Y-85128333D01*
X101683095Y-84937857D01*
X101730714Y-84842619D01*
X101778333Y-84795000D01*
X101873571Y-84747380D01*
G04 #@! TO.C,C11*
X78462142Y-62237857D02*
X78509761Y-62285476D01*
X78557380Y-62428333D01*
X78557380Y-62523571D01*
X78509761Y-62666428D01*
X78414523Y-62761666D01*
X78319285Y-62809285D01*
X78128809Y-62856904D01*
X77985952Y-62856904D01*
X77795476Y-62809285D01*
X77700238Y-62761666D01*
X77605000Y-62666428D01*
X77557380Y-62523571D01*
X77557380Y-62428333D01*
X77605000Y-62285476D01*
X77652619Y-62237857D01*
X78557380Y-61285476D02*
X78557380Y-61856904D01*
X78557380Y-61571190D02*
X77557380Y-61571190D01*
X77700238Y-61666428D01*
X77795476Y-61761666D01*
X77843095Y-61856904D01*
X78557380Y-60333095D02*
X78557380Y-60904523D01*
X78557380Y-60618809D02*
X77557380Y-60618809D01*
X77700238Y-60714047D01*
X77795476Y-60809285D01*
X77843095Y-60904523D01*
G04 #@! TO.C,C12*
X57777142Y-76557142D02*
X57729523Y-76604761D01*
X57586666Y-76652380D01*
X57491428Y-76652380D01*
X57348571Y-76604761D01*
X57253333Y-76509523D01*
X57205714Y-76414285D01*
X57158095Y-76223809D01*
X57158095Y-76080952D01*
X57205714Y-75890476D01*
X57253333Y-75795238D01*
X57348571Y-75700000D01*
X57491428Y-75652380D01*
X57586666Y-75652380D01*
X57729523Y-75700000D01*
X57777142Y-75747619D01*
X58729523Y-76652380D02*
X58158095Y-76652380D01*
X58443809Y-76652380D02*
X58443809Y-75652380D01*
X58348571Y-75795238D01*
X58253333Y-75890476D01*
X58158095Y-75938095D01*
X59110476Y-75747619D02*
X59158095Y-75700000D01*
X59253333Y-75652380D01*
X59491428Y-75652380D01*
X59586666Y-75700000D01*
X59634285Y-75747619D01*
X59681904Y-75842857D01*
X59681904Y-75938095D01*
X59634285Y-76080952D01*
X59062857Y-76652380D01*
X59681904Y-76652380D01*
G04 #@! TO.C,C13*
X70477142Y-76557142D02*
X70429523Y-76604761D01*
X70286666Y-76652380D01*
X70191428Y-76652380D01*
X70048571Y-76604761D01*
X69953333Y-76509523D01*
X69905714Y-76414285D01*
X69858095Y-76223809D01*
X69858095Y-76080952D01*
X69905714Y-75890476D01*
X69953333Y-75795238D01*
X70048571Y-75700000D01*
X70191428Y-75652380D01*
X70286666Y-75652380D01*
X70429523Y-75700000D01*
X70477142Y-75747619D01*
X71429523Y-76652380D02*
X70858095Y-76652380D01*
X71143809Y-76652380D02*
X71143809Y-75652380D01*
X71048571Y-75795238D01*
X70953333Y-75890476D01*
X70858095Y-75938095D01*
X71762857Y-75652380D02*
X72381904Y-75652380D01*
X72048571Y-76033333D01*
X72191428Y-76033333D01*
X72286666Y-76080952D01*
X72334285Y-76128571D01*
X72381904Y-76223809D01*
X72381904Y-76461904D01*
X72334285Y-76557142D01*
X72286666Y-76604761D01*
X72191428Y-76652380D01*
X71905714Y-76652380D01*
X71810476Y-76604761D01*
X71762857Y-76557142D01*
G04 #@! TO.C,C14*
X86987142Y-83542142D02*
X86939523Y-83589761D01*
X86796666Y-83637380D01*
X86701428Y-83637380D01*
X86558571Y-83589761D01*
X86463333Y-83494523D01*
X86415714Y-83399285D01*
X86368095Y-83208809D01*
X86368095Y-83065952D01*
X86415714Y-82875476D01*
X86463333Y-82780238D01*
X86558571Y-82685000D01*
X86701428Y-82637380D01*
X86796666Y-82637380D01*
X86939523Y-82685000D01*
X86987142Y-82732619D01*
X87939523Y-83637380D02*
X87368095Y-83637380D01*
X87653809Y-83637380D02*
X87653809Y-82637380D01*
X87558571Y-82780238D01*
X87463333Y-82875476D01*
X87368095Y-82923095D01*
X88796666Y-82970714D02*
X88796666Y-83637380D01*
X88558571Y-82589761D02*
X88320476Y-83304047D01*
X88939523Y-83304047D01*
G04 #@! TO.C,Y1*
X22486190Y-62171190D02*
X22962380Y-62171190D01*
X21962380Y-62504523D02*
X22486190Y-62171190D01*
X21962380Y-61837857D01*
X22962380Y-60980714D02*
X22962380Y-61552142D01*
X22962380Y-61266428D02*
X21962380Y-61266428D01*
X22105238Y-61361666D01*
X22200476Y-61456904D01*
X22248095Y-61552142D01*
X29012380Y-63004523D02*
X29012380Y-63195000D01*
X29060000Y-63290238D01*
X29107619Y-63337857D01*
X29250476Y-63433095D01*
X29440952Y-63480714D01*
X29821904Y-63480714D01*
X29917142Y-63433095D01*
X29964761Y-63385476D01*
X30012380Y-63290238D01*
X30012380Y-63099761D01*
X29964761Y-63004523D01*
X29917142Y-62956904D01*
X29821904Y-62909285D01*
X29583809Y-62909285D01*
X29488571Y-62956904D01*
X29440952Y-63004523D01*
X29393333Y-63099761D01*
X29393333Y-63290238D01*
X29440952Y-63385476D01*
X29488571Y-63433095D01*
X29583809Y-63480714D01*
X30012380Y-62480714D02*
X29012380Y-62480714D01*
X29726666Y-62147380D01*
X29012380Y-61814047D01*
X30012380Y-61814047D01*
X30012380Y-61337857D02*
X29012380Y-61337857D01*
X29488571Y-61337857D02*
X29488571Y-60766428D01*
X30012380Y-60766428D02*
X29012380Y-60766428D01*
X29345714Y-60385476D02*
X29345714Y-59861666D01*
X30012380Y-60385476D01*
X30012380Y-59861666D01*
G04 #@! TO.C,U1*
X57658095Y-54272380D02*
X57658095Y-55081904D01*
X57705714Y-55177142D01*
X57753333Y-55224761D01*
X57848571Y-55272380D01*
X58039047Y-55272380D01*
X58134285Y-55224761D01*
X58181904Y-55177142D01*
X58229523Y-55081904D01*
X58229523Y-54272380D01*
X59229523Y-55272380D02*
X58658095Y-55272380D01*
X58943809Y-55272380D02*
X58943809Y-54272380D01*
X58848571Y-54415238D01*
X58753333Y-54510476D01*
X58658095Y-54558095D01*
G04 #@! TO.C,U2*
X70358095Y-54272380D02*
X70358095Y-55081904D01*
X70405714Y-55177142D01*
X70453333Y-55224761D01*
X70548571Y-55272380D01*
X70739047Y-55272380D01*
X70834285Y-55224761D01*
X70881904Y-55177142D01*
X70929523Y-55081904D01*
X70929523Y-54272380D01*
X71358095Y-54367619D02*
X71405714Y-54320000D01*
X71500952Y-54272380D01*
X71739047Y-54272380D01*
X71834285Y-54320000D01*
X71881904Y-54367619D01*
X71929523Y-54462857D01*
X71929523Y-54558095D01*
X71881904Y-54700952D01*
X71310476Y-55272380D01*
X71929523Y-55272380D01*
G04 #@! TO.C,U5*
X83058095Y-84752380D02*
X83058095Y-85561904D01*
X83105714Y-85657142D01*
X83153333Y-85704761D01*
X83248571Y-85752380D01*
X83439047Y-85752380D01*
X83534285Y-85704761D01*
X83581904Y-85657142D01*
X83629523Y-85561904D01*
X83629523Y-84752380D01*
X84581904Y-84752380D02*
X84105714Y-84752380D01*
X84058095Y-85228571D01*
X84105714Y-85180952D01*
X84200952Y-85133333D01*
X84439047Y-85133333D01*
X84534285Y-85180952D01*
X84581904Y-85228571D01*
X84629523Y-85323809D01*
X84629523Y-85561904D01*
X84581904Y-85657142D01*
X84534285Y-85704761D01*
X84439047Y-85752380D01*
X84200952Y-85752380D01*
X84105714Y-85704761D01*
X84058095Y-85657142D01*
G04 #@! TO.C,U3*
X57658095Y-79672380D02*
X57658095Y-80481904D01*
X57705714Y-80577142D01*
X57753333Y-80624761D01*
X57848571Y-80672380D01*
X58039047Y-80672380D01*
X58134285Y-80624761D01*
X58181904Y-80577142D01*
X58229523Y-80481904D01*
X58229523Y-79672380D01*
X58610476Y-79672380D02*
X59229523Y-79672380D01*
X58896190Y-80053333D01*
X59039047Y-80053333D01*
X59134285Y-80100952D01*
X59181904Y-80148571D01*
X59229523Y-80243809D01*
X59229523Y-80481904D01*
X59181904Y-80577142D01*
X59134285Y-80624761D01*
X59039047Y-80672380D01*
X58753333Y-80672380D01*
X58658095Y-80624761D01*
X58610476Y-80577142D01*
G04 #@! TO.C,U7*
X70358095Y-79672380D02*
X70358095Y-80481904D01*
X70405714Y-80577142D01*
X70453333Y-80624761D01*
X70548571Y-80672380D01*
X70739047Y-80672380D01*
X70834285Y-80624761D01*
X70881904Y-80577142D01*
X70929523Y-80481904D01*
X70929523Y-79672380D01*
X71310476Y-79672380D02*
X71977142Y-79672380D01*
X71548571Y-80672380D01*
G04 #@! TO.C,U9*
X43477380Y-32511904D02*
X44286904Y-32511904D01*
X44382142Y-32464285D01*
X44429761Y-32416666D01*
X44477380Y-32321428D01*
X44477380Y-32130952D01*
X44429761Y-32035714D01*
X44382142Y-31988095D01*
X44286904Y-31940476D01*
X43477380Y-31940476D01*
X44477380Y-31416666D02*
X44477380Y-31226190D01*
X44429761Y-31130952D01*
X44382142Y-31083333D01*
X44239285Y-30988095D01*
X44048809Y-30940476D01*
X43667857Y-30940476D01*
X43572619Y-30988095D01*
X43525000Y-31035714D01*
X43477380Y-31130952D01*
X43477380Y-31321428D01*
X43525000Y-31416666D01*
X43572619Y-31464285D01*
X43667857Y-31511904D01*
X43905952Y-31511904D01*
X44001190Y-31464285D01*
X44048809Y-31416666D01*
X44096428Y-31321428D01*
X44096428Y-31130952D01*
X44048809Y-31035714D01*
X44001190Y-30988095D01*
X43905952Y-30940476D01*
G04 #@! TO.C,U10*
X43477380Y-45688095D02*
X44286904Y-45688095D01*
X44382142Y-45640476D01*
X44429761Y-45592857D01*
X44477380Y-45497619D01*
X44477380Y-45307142D01*
X44429761Y-45211904D01*
X44382142Y-45164285D01*
X44286904Y-45116666D01*
X43477380Y-45116666D01*
X44477380Y-44116666D02*
X44477380Y-44688095D01*
X44477380Y-44402380D02*
X43477380Y-44402380D01*
X43620238Y-44497619D01*
X43715476Y-44592857D01*
X43763095Y-44688095D01*
X43477380Y-43497619D02*
X43477380Y-43402380D01*
X43525000Y-43307142D01*
X43572619Y-43259523D01*
X43667857Y-43211904D01*
X43858333Y-43164285D01*
X44096428Y-43164285D01*
X44286904Y-43211904D01*
X44382142Y-43259523D01*
X44429761Y-43307142D01*
X44477380Y-43402380D01*
X44477380Y-43497619D01*
X44429761Y-43592857D01*
X44382142Y-43640476D01*
X44286904Y-43688095D01*
X44096428Y-43735714D01*
X43858333Y-43735714D01*
X43667857Y-43688095D01*
X43572619Y-43640476D01*
X43525000Y-43592857D01*
X43477380Y-43497619D01*
G04 #@! TO.C,U4*
X38608095Y-54272380D02*
X38608095Y-55081904D01*
X38655714Y-55177142D01*
X38703333Y-55224761D01*
X38798571Y-55272380D01*
X38989047Y-55272380D01*
X39084285Y-55224761D01*
X39131904Y-55177142D01*
X39179523Y-55081904D01*
X39179523Y-54272380D01*
X40084285Y-54605714D02*
X40084285Y-55272380D01*
X39846190Y-54224761D02*
X39608095Y-54939047D01*
X40227142Y-54939047D01*
G04 #@! TO.C,J2*
X98087380Y-39703333D02*
X98801666Y-39703333D01*
X98944523Y-39750952D01*
X99039761Y-39846190D01*
X99087380Y-39989047D01*
X99087380Y-40084285D01*
X98182619Y-39274761D02*
X98135000Y-39227142D01*
X98087380Y-39131904D01*
X98087380Y-38893809D01*
X98135000Y-38798571D01*
X98182619Y-38750952D01*
X98277857Y-38703333D01*
X98373095Y-38703333D01*
X98515952Y-38750952D01*
X99087380Y-39322380D01*
X99087380Y-38703333D01*
X112907380Y-40536666D02*
X113621666Y-40536666D01*
X113764523Y-40584285D01*
X113859761Y-40679523D01*
X113907380Y-40822380D01*
X113907380Y-40917619D01*
X112907380Y-40203333D02*
X112907380Y-39631904D01*
X113907380Y-39917619D02*
X112907380Y-39917619D01*
X113621666Y-39346190D02*
X113621666Y-38870000D01*
X113907380Y-39441428D02*
X112907380Y-39108095D01*
X113907380Y-38774761D01*
X112955000Y-37917619D02*
X112907380Y-38012857D01*
X112907380Y-38155714D01*
X112955000Y-38298571D01*
X113050238Y-38393809D01*
X113145476Y-38441428D01*
X113335952Y-38489047D01*
X113478809Y-38489047D01*
X113669285Y-38441428D01*
X113764523Y-38393809D01*
X113859761Y-38298571D01*
X113907380Y-38155714D01*
X113907380Y-38060476D01*
X113859761Y-37917619D01*
X113812142Y-37870000D01*
X113478809Y-37870000D01*
X113478809Y-38060476D01*
G04 #@! TO.C,R1*
X83002380Y-36996666D02*
X82526190Y-37330000D01*
X83002380Y-37568095D02*
X82002380Y-37568095D01*
X82002380Y-37187142D01*
X82050000Y-37091904D01*
X82097619Y-37044285D01*
X82192857Y-36996666D01*
X82335714Y-36996666D01*
X82430952Y-37044285D01*
X82478571Y-37091904D01*
X82526190Y-37187142D01*
X82526190Y-37568095D01*
X83002380Y-36044285D02*
X83002380Y-36615714D01*
X83002380Y-36330000D02*
X82002380Y-36330000D01*
X82145238Y-36425238D01*
X82240476Y-36520476D01*
X82288095Y-36615714D01*
G04 #@! TO.C,R2*
X86177380Y-36996666D02*
X85701190Y-37330000D01*
X86177380Y-37568095D02*
X85177380Y-37568095D01*
X85177380Y-37187142D01*
X85225000Y-37091904D01*
X85272619Y-37044285D01*
X85367857Y-36996666D01*
X85510714Y-36996666D01*
X85605952Y-37044285D01*
X85653571Y-37091904D01*
X85701190Y-37187142D01*
X85701190Y-37568095D01*
X85272619Y-36615714D02*
X85225000Y-36568095D01*
X85177380Y-36472857D01*
X85177380Y-36234761D01*
X85225000Y-36139523D01*
X85272619Y-36091904D01*
X85367857Y-36044285D01*
X85463095Y-36044285D01*
X85605952Y-36091904D01*
X86177380Y-36663333D01*
X86177380Y-36044285D01*
G04 #@! TO.C,R3*
X89352380Y-36996666D02*
X88876190Y-37330000D01*
X89352380Y-37568095D02*
X88352380Y-37568095D01*
X88352380Y-37187142D01*
X88400000Y-37091904D01*
X88447619Y-37044285D01*
X88542857Y-36996666D01*
X88685714Y-36996666D01*
X88780952Y-37044285D01*
X88828571Y-37091904D01*
X88876190Y-37187142D01*
X88876190Y-37568095D01*
X88352380Y-36663333D02*
X88352380Y-36044285D01*
X88733333Y-36377619D01*
X88733333Y-36234761D01*
X88780952Y-36139523D01*
X88828571Y-36091904D01*
X88923809Y-36044285D01*
X89161904Y-36044285D01*
X89257142Y-36091904D01*
X89304761Y-36139523D01*
X89352380Y-36234761D01*
X89352380Y-36520476D01*
X89304761Y-36615714D01*
X89257142Y-36663333D01*
G04 #@! TO.C,J1*
D15*
X74481266Y-127066523D02*
X74481266Y-127973666D01*
X74420790Y-128155095D01*
X74299838Y-128276047D01*
X74118409Y-128336523D01*
X73997457Y-128336523D01*
X75751266Y-128336523D02*
X75025552Y-128336523D01*
X75388409Y-128336523D02*
X75388409Y-127066523D01*
X75267457Y-127247952D01*
X75146504Y-127368904D01*
X75025552Y-127429380D01*
G04 #@! TO.C,U8*
D14*
X96393095Y-61047380D02*
X96393095Y-61856904D01*
X96440714Y-61952142D01*
X96488333Y-61999761D01*
X96583571Y-62047380D01*
X96774047Y-62047380D01*
X96869285Y-61999761D01*
X96916904Y-61952142D01*
X96964523Y-61856904D01*
X96964523Y-61047380D01*
X97583571Y-61475952D02*
X97488333Y-61428333D01*
X97440714Y-61380714D01*
X97393095Y-61285476D01*
X97393095Y-61237857D01*
X97440714Y-61142619D01*
X97488333Y-61095000D01*
X97583571Y-61047380D01*
X97774047Y-61047380D01*
X97869285Y-61095000D01*
X97916904Y-61142619D01*
X97964523Y-61237857D01*
X97964523Y-61285476D01*
X97916904Y-61380714D01*
X97869285Y-61428333D01*
X97774047Y-61475952D01*
X97583571Y-61475952D01*
X97488333Y-61523571D01*
X97440714Y-61571190D01*
X97393095Y-61666428D01*
X97393095Y-61856904D01*
X97440714Y-61952142D01*
X97488333Y-61999761D01*
X97583571Y-62047380D01*
X97774047Y-62047380D01*
X97869285Y-61999761D01*
X97916904Y-61952142D01*
X97964523Y-61856904D01*
X97964523Y-61666428D01*
X97916904Y-61571190D01*
X97869285Y-61523571D01*
X97774047Y-61475952D01*
G04 #@! TD*
M02*
