M48
;DRILL file {KiCad (5.0.2)-1} date 1/3/2019 8:31:30 AM
;FORMAT={-:-/ absolute / inch / decimal}
FMAT,2
INCH,TZ
T1C0.0157
T2C0.0315
T3C0.0320
T4C0.0394
T5C0.0870
%
G90
G05
T1
X1.05Y-1.05
X1.05Y-1.1
X1.1Y-1.05
X1.1Y-1.1
X1.5731Y-4.1311
X1.5739Y-4.0503
X1.5848Y-3.1174
X1.5848Y-3.4165
X1.5848Y-3.9
X1.625Y-3.5261
X1.6385Y-3.1342
X1.6389Y-3.2199
X1.675Y-4.175
X1.6772Y-3.8469
X1.6863Y-4.0907
X1.6928Y-4.475
X1.7448Y-3.1683
X1.7694Y-3.75
X1.7802Y-3.1438
X1.7901Y-2.9645
X1.8029Y-2.9086
X1.8141Y-3.9
X1.8223Y-3.8403
X1.8227Y-3.2209
X1.8286Y-3.1304
X1.8306Y-3.536
X1.8385Y-2.8927
X1.85Y-2.65
X1.8599Y-3.1683
X1.8871Y-2.9719
X1.9Y-3.375
X1.9142Y-3.6069
X1.9471Y-4.
X1.9623Y-4.0754
X1.9723Y-4.1105
X1.9752Y-4.0249
X1.9799Y-3.4
X1.9834Y-2.9345
X1.9925Y-3.9175
X1.9987Y-2.8282
X1.9996Y-4.1515
X2.0056Y-2.9618
X2.0063Y-3.8269
X2.0203Y-3.9441
X2.0307Y-3.7798
X2.0324Y-4.1348
X2.048Y-4.0314
X2.05Y-2.55
X2.0556Y-3.8875
X2.0579Y-2.7767
X2.0709Y-3.5683
X2.1087Y-3.1424
X2.116Y-2.7374
X2.1289Y-2.9225
X2.1355Y-2.3008
X2.1684Y-3.9258
X2.1786Y-4.0934
X2.1841Y-4.0443
X2.1876Y-3.8918
X2.2101Y-3.1058
X2.2168Y-3.9392
X2.2199Y-2.7867
X2.2208Y-2.355
X2.2332Y-3.6302
X2.2384Y-4.2451
X2.2423Y-3.2191
X2.25Y-4.325
X2.2524Y-2.2632
X2.2599Y-4.0449
X2.2735Y-4.1146
X2.2744Y-3.3432
X2.2755Y-2.0995
X2.2786Y-2.3331
X2.2813Y-3.7431
X2.301Y-3.1095
X2.3012Y-3.8659
X2.3055Y-2.3638
X2.3162Y-2.7648
X2.3213Y-3.2157
X2.3221Y-2.0564
X2.325Y-2.4929
X2.3403Y-3.4163
X2.3602Y-2.058
X2.3657Y-2.7643
X2.3699Y-3.3775
X2.3727Y-4.0651
X2.375Y-4.475
X2.3784Y-3.9278
X2.3859Y-2.7936
X2.3943Y-3.1231
X2.3971Y-3.8352
X2.4003Y-1.9607
X2.4205Y-2.09
X2.4248Y-3.103
X2.4295Y-2.2633
X2.4304Y-2.3017
X2.4304Y-2.7697
X2.4416Y-2.9117
X2.4479Y-1.9612
X2.4789Y-3.1762
X2.4946Y-2.1048
X2.5098Y-3.6013
X2.5221Y-1.9852
X2.523Y-1.9213
X2.5237Y-3.341
X2.536Y-3.2113
X2.5456Y-2.8831
X2.548Y-3.897
X2.5666Y-1.9874
X2.575Y-3.475
X2.5842Y-2.2945
X2.5862Y-2.1047
X2.5919Y-1.9108
X2.6207Y-2.3089
X2.6307Y-2.1049
X2.6432Y-2.2629
X2.6572Y-2.298
X2.6586Y-3.375
X2.6633Y-4.4589
X2.6652Y-3.225
X2.6763Y-2.3331
X2.6817Y-2.1053
X2.7018Y-2.2825
X2.709Y-2.9088
X2.7091Y-3.625
X2.717Y-2.1049
X2.7714Y-2.2734
X2.8011Y-4.1929
X2.8043Y-2.0612
X2.8472Y-2.1056
X2.8919Y-2.5712
X2.907Y-2.1035
X2.95Y-4.
X2.9555Y-2.2712
X2.9845Y-2.0612
X2.9962Y-2.6403
X3.Y-3.1
X3.Y-3.425
X3.Y-3.725
X3.025Y-2.925
X3.025Y-4.075
X3.0307Y-2.325
X3.1117Y-2.9359
X3.175Y-2.925
X3.175Y-3.55
X3.2Y-4.175
X3.2233Y-2.3164
X3.2478Y-2.3899
X3.2589Y-3.2237
X3.2998Y-1.9741
X3.3165Y-2.2765
X3.35Y-1.925
X3.4Y-1.95
X3.4Y-3.125
X3.4162Y-2.0536
X3.4296Y-2.1038
X3.4324Y-4.1978
X3.4749Y-2.0781
X3.4758Y-4.237
X3.4838Y-4.3516
X3.4995Y-2.103
X3.5Y-2.625
X3.5026Y-4.876
X3.519Y-3.7
X3.525Y-3.8264
X3.535Y-4.0448
X3.5498Y-4.0837
X3.55Y-3.175
X3.5561Y-2.1048
X3.5573Y-4.3616
X3.5821Y-4.0566
X3.6Y-2.6
X3.6Y-2.925
X3.6165Y-2.2708
X3.675Y-3.275
X3.675Y-3.75
X3.7804Y-3.075
X3.7804Y-3.325
X3.85Y-2.425
X3.875Y-2.55
X3.9683Y-4.3754
X3.975Y-2.7
X3.9824Y-4.5266
X4.225Y-2.3
X4.2992Y-3.123
X4.375Y-3.5
X4.375Y-3.875
X4.45Y-2.05
X4.475Y-2.225
X4.8Y-1.05
X4.8Y-1.1
X4.85Y-1.05
X4.85Y-1.1
T2
X4.325Y-2.7
X4.325Y-3.
X4.625Y-2.7
X4.625Y-3.
X4.325Y-3.4
X4.325Y-3.7
X4.625Y-3.4
X4.625Y-3.7
T3
X1.5Y-4.655
X1.5Y-4.805
X1.55Y-4.58
X1.55Y-4.73
X1.6Y-4.655
X1.6Y-4.805
X1.65Y-4.58
X1.65Y-4.73
X1.7Y-4.655
X1.7Y-4.805
X1.75Y-4.58
X1.75Y-4.73
X1.8Y-4.655
X1.8Y-4.805
X1.85Y-4.58
X1.85Y-4.73
X1.9Y-4.655
X1.9Y-4.805
X1.95Y-4.58
X1.95Y-4.73
X2.Y-4.655
X2.Y-4.805
X2.05Y-4.58
X2.05Y-4.73
X2.1Y-4.655
X2.1Y-4.805
X2.15Y-4.58
X2.15Y-4.73
X2.2Y-4.655
X2.2Y-4.805
X2.25Y-4.58
X2.25Y-4.73
X2.3Y-4.655
X2.3Y-4.805
X2.35Y-4.58
X2.35Y-4.73
X2.4Y-4.655
X2.4Y-4.805
X2.45Y-4.58
X2.45Y-4.73
X2.5Y-4.655
X2.5Y-4.805
X2.55Y-4.58
X2.55Y-4.73
X2.6Y-4.655
X2.6Y-4.805
X2.65Y-4.58
X2.65Y-4.73
X2.7Y-4.655
X2.7Y-4.805
X2.75Y-4.58
X2.75Y-4.73
X2.8Y-4.655
X2.8Y-4.805
X2.85Y-4.58
X2.85Y-4.73
X2.9Y-4.655
X2.9Y-4.805
X2.95Y-4.58
X2.95Y-4.73
X3.Y-4.655
X3.Y-4.805
X3.05Y-4.58
X3.05Y-4.73
X3.1Y-4.655
X3.1Y-4.805
X3.15Y-4.58
X3.15Y-4.73
X3.2Y-4.655
X3.2Y-4.805
X3.25Y-4.58
X3.25Y-4.73
X3.3Y-4.655
X3.3Y-4.805
X3.35Y-4.58
X3.35Y-4.73
X3.4Y-4.655
X3.4Y-4.805
X3.45Y-4.58
X3.45Y-4.73
X3.5Y-4.655
X3.5Y-4.805
X3.55Y-4.58
X3.55Y-4.73
X3.6Y-4.655
X3.6Y-4.805
X3.65Y-4.58
X3.65Y-4.73
X3.7Y-4.655
X3.7Y-4.805
X3.75Y-4.58
X3.75Y-4.73
X3.8Y-4.655
X3.8Y-4.805
X3.85Y-4.58
X3.85Y-4.73
X3.9Y-4.655
X3.9Y-4.805
X3.95Y-4.58
X3.95Y-4.73
X4.Y-4.655
X4.Y-4.805
X4.05Y-4.58
X4.05Y-4.73
X4.1Y-4.655
X4.1Y-4.805
X4.15Y-4.58
X4.15Y-4.73
X4.2Y-4.655
X4.2Y-4.805
X4.25Y-4.58
X4.25Y-4.73
X4.3Y-4.655
X4.3Y-4.805
X4.35Y-4.58
X4.35Y-4.73
X4.4Y-4.655
X4.4Y-4.805
X4.45Y-4.58
X4.45Y-4.73
X2.775Y-2.825
X2.775Y-2.925
X2.775Y-3.025
X2.775Y-3.125
X2.775Y-3.225
X2.775Y-3.325
X2.775Y-3.425
X2.775Y-3.525
X2.775Y-3.625
X2.775Y-3.725
X2.775Y-3.825
X2.875Y-2.725
X2.875Y-2.825
X2.875Y-2.925
X2.875Y-3.025
X2.875Y-3.125
X2.875Y-3.225
X2.875Y-3.325
X2.875Y-3.425
X2.875Y-3.525
X2.875Y-3.625
X2.875Y-3.725
X2.875Y-3.825
X2.875Y-3.925
X2.975Y-2.725
X2.975Y-2.825
X2.975Y-3.825
X2.975Y-3.925
X3.075Y-2.725
X3.075Y-2.825
X3.075Y-3.825
X3.075Y-3.925
X3.175Y-2.725
X3.175Y-2.825
X3.175Y-3.825
X3.175Y-3.925
X3.275Y-2.725
X3.275Y-2.825
X3.275Y-3.825
X3.275Y-3.925
X3.375Y-2.725
X3.375Y-2.825
X3.375Y-3.825
X3.375Y-3.925
X3.475Y-2.725
X3.475Y-2.825
X3.475Y-3.825
X3.475Y-3.925
X3.575Y-2.725
X3.575Y-2.825
X3.575Y-3.825
X3.575Y-3.925
X3.675Y-2.725
X3.675Y-2.825
X3.675Y-3.825
X3.675Y-3.925
X3.775Y-2.725
X3.775Y-2.825
X3.775Y-3.825
X3.775Y-3.925
X3.875Y-2.725
X3.875Y-2.825
X3.875Y-2.925
X3.875Y-3.025
X3.875Y-3.125
X3.875Y-3.225
X3.875Y-3.325
X3.875Y-3.425
X3.875Y-3.525
X3.875Y-3.625
X3.875Y-3.725
X3.875Y-3.825
X3.875Y-3.925
X3.975Y-2.825
X3.975Y-2.925
X3.975Y-3.025
X3.975Y-3.125
X3.975Y-3.225
X3.975Y-3.325
X3.975Y-3.425
X3.975Y-3.525
X3.975Y-3.625
X3.975Y-3.725
X3.975Y-3.825
T4
X4.35Y-3.975
X4.45Y-3.975
X4.55Y-3.975
X1.6Y-2.45
X1.6Y-2.55
X1.325Y-2.45
X1.325Y-2.55
X4.55Y-1.725
X4.55Y-1.825
X4.55Y-1.925
X4.55Y-2.025
X4.55Y-2.125
X4.65Y-1.725
X4.65Y-1.825
X4.65Y-1.925
X4.65Y-2.025
X4.65Y-2.125
T5
X1.275Y-4.805
X4.625Y-4.805
T0
M30
