G04 #@! TF.GenerationSoftware,KiCad,Pcbnew,(5.0.2)-1*
G04 #@! TF.CreationDate,2019-01-03T08:31:25-07:00*
G04 #@! TF.ProjectId,16MB DRAM,31364d42-2044-4524-914d-2e6b69636164,rev?*
G04 #@! TF.SameCoordinates,Original*
G04 #@! TF.FileFunction,Copper,L2,Bot*
G04 #@! TF.FilePolarity,Positive*
%FSLAX46Y46*%
G04 Gerber Fmt 4.6, Leading zero omitted, Abs format (unit mm)*
G04 Created by KiCad (PCBNEW (5.0.2)-1) date 1/3/2019 8:31:25 AM*
%MOMM*%
%LPD*%
G01*
G04 APERTURE LIST*
G04 #@! TA.AperFunction,ComponentPad*
%ADD10R,1.600000X1.600000*%
G04 #@! TD*
G04 #@! TA.AperFunction,ComponentPad*
%ADD11C,1.600000*%
G04 #@! TD*
G04 #@! TA.AperFunction,ComponentPad*
%ADD12R,1.700000X1.700000*%
G04 #@! TD*
G04 #@! TA.AperFunction,ComponentPad*
%ADD13O,1.700000X1.700000*%
G04 #@! TD*
G04 #@! TA.AperFunction,ComponentPad*
%ADD14C,1.219200*%
G04 #@! TD*
G04 #@! TA.AperFunction,ComponentPad*
%ADD15C,3.314700*%
G04 #@! TD*
G04 #@! TA.AperFunction,ComponentPad*
%ADD16C,1.397000*%
G04 #@! TD*
G04 #@! TA.AperFunction,ComponentPad*
%ADD17R,1.397000X1.397000*%
G04 #@! TD*
G04 #@! TA.AperFunction,ViaPad*
%ADD18C,1.000000*%
G04 #@! TD*
G04 #@! TA.AperFunction,ViaPad*
%ADD19C,0.800000*%
G04 #@! TD*
G04 #@! TA.AperFunction,Conductor*
%ADD20C,0.250000*%
G04 #@! TD*
G04 #@! TA.AperFunction,Conductor*
%ADD21C,0.750000*%
G04 #@! TD*
G04 #@! TA.AperFunction,Conductor*
%ADD22C,0.254000*%
G04 #@! TD*
G04 APERTURE END LIST*
D10*
G04 #@! TO.P,X1,1*
G04 #@! TO.N,Net-(X1-Pad1)*
X109855000Y-76200000D03*
D11*
G04 #@! TO.P,X1,8*
G04 #@! TO.N,+5V*
X109855000Y-68580000D03*
G04 #@! TO.P,X1,5*
G04 #@! TO.N,Net-(U7-Pad83)*
X117475000Y-68580000D03*
G04 #@! TO.P,X1,4*
G04 #@! TO.N,GND*
X117475000Y-76200000D03*
G04 #@! TD*
G04 #@! TO.P,X2,4*
G04 #@! TO.N,GND*
X117475000Y-93980000D03*
G04 #@! TO.P,X2,5*
G04 #@! TO.N,Net-(J3-Pad3)*
X117475000Y-86360000D03*
G04 #@! TO.P,X2,8*
G04 #@! TO.N,+5V*
X109855000Y-86360000D03*
D10*
G04 #@! TO.P,X2,1*
G04 #@! TO.N,Net-(X2-Pad1)*
X109855000Y-93980000D03*
G04 #@! TD*
D12*
G04 #@! TO.P,J5,1*
G04 #@! TO.N,+5V*
X33655000Y-62230000D03*
D13*
G04 #@! TO.P,J5,2*
X33655000Y-64770000D03*
G04 #@! TD*
G04 #@! TO.P,J6,2*
G04 #@! TO.N,GND*
X40640000Y-64770000D03*
D12*
G04 #@! TO.P,J6,1*
X40640000Y-62230000D03*
G04 #@! TD*
D13*
G04 #@! TO.P,J3,3*
G04 #@! TO.N,Net-(J3-Pad3)*
X115570000Y-100965000D03*
G04 #@! TO.P,J3,2*
G04 #@! TO.N,Net-(J3-Pad2)*
X113030000Y-100965000D03*
D12*
G04 #@! TO.P,J3,1*
G04 #@! TO.N,/CLK2*
X110490000Y-100965000D03*
G04 #@! TD*
D13*
G04 #@! TO.P,J4,10*
G04 #@! TO.N,GND*
X118110000Y-53975000D03*
G04 #@! TO.P,J4,9*
G04 #@! TO.N,Net-(J4-Pad9)*
X115570000Y-53975000D03*
G04 #@! TO.P,J4,8*
G04 #@! TO.N,Net-(J4-Pad8)*
X118110000Y-51435000D03*
G04 #@! TO.P,J4,7*
G04 #@! TO.N,Net-(J4-Pad7)*
X115570000Y-51435000D03*
G04 #@! TO.P,J4,6*
G04 #@! TO.N,Net-(J4-Pad6)*
X118110000Y-48895000D03*
G04 #@! TO.P,J4,5*
G04 #@! TO.N,Net-(J4-Pad5)*
X115570000Y-48895000D03*
G04 #@! TO.P,J4,4*
G04 #@! TO.N,+5V*
X118110000Y-46355000D03*
G04 #@! TO.P,J4,3*
G04 #@! TO.N,Net-(J4-Pad3)*
X115570000Y-46355000D03*
G04 #@! TO.P,J4,2*
G04 #@! TO.N,GND*
X118110000Y-43815000D03*
D12*
G04 #@! TO.P,J4,1*
G04 #@! TO.N,Net-(J4-Pad1)*
X115570000Y-43815000D03*
G04 #@! TD*
D14*
G04 #@! TO.P,J1,1*
G04 #@! TO.N,GND*
X113030000Y-116332000D03*
G04 #@! TO.P,J1,2*
X111760000Y-118237000D03*
G04 #@! TO.P,J1,3*
X110490000Y-116332000D03*
G04 #@! TO.P,J1,4*
X109220000Y-118237000D03*
G04 #@! TO.P,J1,5*
X107950000Y-116332000D03*
G04 #@! TO.P,J1,6*
G04 #@! TO.N,/A23*
X106680000Y-118237000D03*
G04 #@! TO.P,J1,7*
G04 #@! TO.N,/A22*
X105410000Y-116332000D03*
G04 #@! TO.P,J1,8*
G04 #@! TO.N,/A21*
X104140000Y-118237000D03*
G04 #@! TO.P,J1,9*
G04 #@! TO.N,/A20*
X102870000Y-116332000D03*
G04 #@! TO.P,J1,10*
G04 #@! TO.N,/A19*
X101600000Y-118237000D03*
G04 #@! TO.P,J1,11*
G04 #@! TO.N,/A18*
X100330000Y-116332000D03*
G04 #@! TO.P,J1,12*
G04 #@! TO.N,/A17*
X99060000Y-118237000D03*
G04 #@! TO.P,J1,13*
G04 #@! TO.N,/A16*
X97790000Y-116332000D03*
G04 #@! TO.P,J1,14*
G04 #@! TO.N,/A15*
X96520000Y-118237000D03*
G04 #@! TO.P,J1,15*
G04 #@! TO.N,/A14*
X95250000Y-116332000D03*
G04 #@! TO.P,J1,16*
G04 #@! TO.N,/A13*
X93980000Y-118237000D03*
G04 #@! TO.P,J1,17*
G04 #@! TO.N,/A12*
X92710000Y-116332000D03*
G04 #@! TO.P,J1,18*
G04 #@! TO.N,/A11*
X91440000Y-118237000D03*
G04 #@! TO.P,J1,19*
G04 #@! TO.N,/A10*
X90170000Y-116332000D03*
G04 #@! TO.P,J1,20*
G04 #@! TO.N,/A9*
X88900000Y-118237000D03*
G04 #@! TO.P,J1,21*
G04 #@! TO.N,/A8*
X87630000Y-116332000D03*
G04 #@! TO.P,J1,22*
G04 #@! TO.N,/A7*
X86360000Y-118237000D03*
G04 #@! TO.P,J1,23*
G04 #@! TO.N,/A6*
X85090000Y-116332000D03*
G04 #@! TO.P,J1,24*
G04 #@! TO.N,/A5*
X83820000Y-118237000D03*
G04 #@! TO.P,J1,25*
G04 #@! TO.N,/A4*
X82550000Y-116332000D03*
G04 #@! TO.P,J1,26*
G04 #@! TO.N,/A3*
X81280000Y-118237000D03*
G04 #@! TO.P,J1,27*
G04 #@! TO.N,/A2*
X80010000Y-116332000D03*
G04 #@! TO.P,J1,28*
G04 #@! TO.N,/A1*
X78740000Y-118237000D03*
G04 #@! TO.P,J1,29*
G04 #@! TO.N,/A0*
X77470000Y-116332000D03*
G04 #@! TO.P,J1,30*
G04 #@! TO.N,Net-(J1-Pad30)*
X76200000Y-118237000D03*
G04 #@! TO.P,J1,31*
G04 #@! TO.N,/~IOW*
X74930000Y-116332000D03*
G04 #@! TO.P,J1,32*
G04 #@! TO.N,/~MEMR*
X73660000Y-118237000D03*
G04 #@! TO.P,J1,33*
G04 #@! TO.N,/~MEMW*
X72390000Y-116332000D03*
G04 #@! TO.P,J1,34*
G04 #@! TO.N,/~MOVL*
X71120000Y-118237000D03*
G04 #@! TO.P,J1,35*
G04 #@! TO.N,Net-(J1-Pad35)*
X69850000Y-116332000D03*
G04 #@! TO.P,J1,36*
G04 #@! TO.N,/~M16*
X68580000Y-118237000D03*
G04 #@! TO.P,J1,37*
G04 #@! TO.N,/~BHE*
X67310000Y-116332000D03*
G04 #@! TO.P,J1,38*
G04 #@! TO.N,/CLK1*
X66040000Y-118237000D03*
G04 #@! TO.P,J1,39*
G04 #@! TO.N,/CLK2*
X64770000Y-116332000D03*
G04 #@! TO.P,J1,40*
G04 #@! TO.N,Net-(J1-Pad40)*
X63500000Y-118237000D03*
G04 #@! TO.P,J1,41*
G04 #@! TO.N,Net-(J1-Pad41)*
X62230000Y-116332000D03*
G04 #@! TO.P,J1,42*
G04 #@! TO.N,Net-(J1-Pad42)*
X60960000Y-118237000D03*
G04 #@! TO.P,J1,43*
G04 #@! TO.N,Net-(J1-Pad43)*
X59690000Y-116332000D03*
G04 #@! TO.P,J1,44*
G04 #@! TO.N,Net-(J1-Pad44)*
X58420000Y-118237000D03*
G04 #@! TO.P,J1,45*
G04 #@! TO.N,Net-(J1-Pad45)*
X57150000Y-116332000D03*
G04 #@! TO.P,J1,46*
G04 #@! TO.N,Net-(J1-Pad46)*
X55880000Y-118237000D03*
G04 #@! TO.P,J1,47*
G04 #@! TO.N,Net-(J1-Pad47)*
X54610000Y-116332000D03*
G04 #@! TO.P,J1,48*
G04 #@! TO.N,Net-(J1-Pad48)*
X53340000Y-118237000D03*
G04 #@! TO.P,J1,49*
G04 #@! TO.N,Net-(J1-Pad49)*
X52070000Y-116332000D03*
G04 #@! TO.P,J1,50*
G04 #@! TO.N,Net-(J1-Pad50)*
X50800000Y-118237000D03*
G04 #@! TO.P,J1,51*
G04 #@! TO.N,Net-(J1-Pad51)*
X49530000Y-116332000D03*
G04 #@! TO.P,J1,52*
G04 #@! TO.N,Net-(J1-Pad52)*
X48260000Y-118237000D03*
G04 #@! TO.P,J1,53*
G04 #@! TO.N,Net-(J1-Pad53)*
X46990000Y-116332000D03*
G04 #@! TO.P,J1,54*
G04 #@! TO.N,Net-(J1-Pad54)*
X45720000Y-118237000D03*
G04 #@! TO.P,J1,55*
G04 #@! TO.N,Net-(J1-Pad55)*
X44450000Y-116332000D03*
G04 #@! TO.P,J1,56*
G04 #@! TO.N,Net-(J1-Pad56)*
X43180000Y-118237000D03*
G04 #@! TO.P,J1,57*
G04 #@! TO.N,Net-(J1-Pad57)*
X41910000Y-116332000D03*
G04 #@! TO.P,J1,58*
G04 #@! TO.N,+5V*
X40640000Y-118237000D03*
G04 #@! TO.P,J1,59*
X39370000Y-116332000D03*
G04 #@! TO.P,J1,60*
X38100000Y-118237000D03*
G04 #@! TO.P,J1,61*
X113030000Y-120142000D03*
G04 #@! TO.P,J1,62*
X111760000Y-122047000D03*
G04 #@! TO.P,J1,63*
G04 #@! TO.N,Net-(J1-Pad63)*
X110490000Y-120142000D03*
G04 #@! TO.P,J1,64*
G04 #@! TO.N,Net-(J1-Pad64)*
X109220000Y-122047000D03*
G04 #@! TO.P,J1,65*
G04 #@! TO.N,Net-(J1-Pad65)*
X107950000Y-120142000D03*
G04 #@! TO.P,J1,66*
G04 #@! TO.N,/D15*
X106680000Y-122047000D03*
G04 #@! TO.P,J1,67*
G04 #@! TO.N,/D14*
X105410000Y-120142000D03*
G04 #@! TO.P,J1,68*
G04 #@! TO.N,/D13*
X104140000Y-122047000D03*
G04 #@! TO.P,J1,69*
G04 #@! TO.N,/D12*
X102870000Y-120142000D03*
G04 #@! TO.P,J1,70*
G04 #@! TO.N,/D11*
X101600000Y-122047000D03*
G04 #@! TO.P,J1,71*
G04 #@! TO.N,/D10*
X100330000Y-120142000D03*
G04 #@! TO.P,J1,72*
G04 #@! TO.N,/D9*
X99060000Y-122047000D03*
G04 #@! TO.P,J1,73*
G04 #@! TO.N,/D8*
X97790000Y-120142000D03*
G04 #@! TO.P,J1,74*
G04 #@! TO.N,/D7*
X96520000Y-122047000D03*
G04 #@! TO.P,J1,75*
G04 #@! TO.N,/D6*
X95250000Y-120142000D03*
G04 #@! TO.P,J1,76*
G04 #@! TO.N,/D5*
X93980000Y-122047000D03*
G04 #@! TO.P,J1,77*
G04 #@! TO.N,/D4*
X92710000Y-120142000D03*
G04 #@! TO.P,J1,78*
G04 #@! TO.N,/D3*
X91440000Y-122047000D03*
G04 #@! TO.P,J1,79*
G04 #@! TO.N,/D2*
X90170000Y-120142000D03*
G04 #@! TO.P,J1,80*
G04 #@! TO.N,/D1*
X88900000Y-122047000D03*
G04 #@! TO.P,J1,81*
G04 #@! TO.N,/D0*
X87630000Y-120142000D03*
G04 #@! TO.P,J1,82*
G04 #@! TO.N,Net-(J1-Pad82)*
X86360000Y-122047000D03*
G04 #@! TO.P,J1,83*
G04 #@! TO.N,Net-(J1-Pad83)*
X85090000Y-120142000D03*
G04 #@! TO.P,J1,84*
G04 #@! TO.N,Net-(J1-Pad84)*
X83820000Y-122047000D03*
G04 #@! TO.P,J1,85*
G04 #@! TO.N,/~RFSH*
X82550000Y-120142000D03*
G04 #@! TO.P,J1,86*
G04 #@! TO.N,Net-(J1-Pad86)*
X81280000Y-122047000D03*
G04 #@! TO.P,J1,87*
G04 #@! TO.N,/~WAIT*
X80010000Y-120142000D03*
G04 #@! TO.P,J1,88*
G04 #@! TO.N,Net-(J1-Pad88)*
X78740000Y-122047000D03*
G04 #@! TO.P,J1,89*
G04 #@! TO.N,Net-(J1-Pad89)*
X77470000Y-120142000D03*
G04 #@! TO.P,J1,90*
G04 #@! TO.N,/~AEN*
X76200000Y-122047000D03*
G04 #@! TO.P,J1,91*
G04 #@! TO.N,Net-(J1-Pad91)*
X74930000Y-120142000D03*
G04 #@! TO.P,J1,92*
G04 #@! TO.N,Net-(J1-Pad92)*
X73660000Y-122047000D03*
G04 #@! TO.P,J1,93*
G04 #@! TO.N,Net-(J1-Pad93)*
X72390000Y-120142000D03*
G04 #@! TO.P,J1,94*
G04 #@! TO.N,Net-(J1-Pad94)*
X71120000Y-122047000D03*
G04 #@! TO.P,J1,95*
G04 #@! TO.N,Net-(J1-Pad95)*
X69850000Y-120142000D03*
G04 #@! TO.P,J1,96*
G04 #@! TO.N,Net-(J1-Pad96)*
X68580000Y-122047000D03*
G04 #@! TO.P,J1,97*
G04 #@! TO.N,Net-(J1-Pad97)*
X67310000Y-120142000D03*
G04 #@! TO.P,J1,98*
G04 #@! TO.N,Net-(J1-Pad98)*
X66040000Y-122047000D03*
G04 #@! TO.P,J1,99*
G04 #@! TO.N,Net-(J1-Pad99)*
X64770000Y-120142000D03*
G04 #@! TO.P,J1,100*
G04 #@! TO.N,Net-(J1-Pad100)*
X63500000Y-122047000D03*
G04 #@! TO.P,J1,101*
G04 #@! TO.N,/~INTA*
X62230000Y-120142000D03*
G04 #@! TO.P,J1,102*
G04 #@! TO.N,Net-(J1-Pad102)*
X60960000Y-122047000D03*
G04 #@! TO.P,J1,103*
G04 #@! TO.N,Net-(J1-Pad103)*
X59690000Y-120142000D03*
G04 #@! TO.P,J1,104*
G04 #@! TO.N,Net-(J1-Pad104)*
X58420000Y-122047000D03*
G04 #@! TO.P,J1,105*
G04 #@! TO.N,Net-(J1-Pad105)*
X57150000Y-120142000D03*
G04 #@! TO.P,J1,106*
G04 #@! TO.N,Net-(J1-Pad106)*
X55880000Y-122047000D03*
G04 #@! TO.P,J1,107*
G04 #@! TO.N,Net-(J1-Pad107)*
X54610000Y-120142000D03*
G04 #@! TO.P,J1,108*
G04 #@! TO.N,Net-(J1-Pad108)*
X53340000Y-122047000D03*
G04 #@! TO.P,J1,109*
G04 #@! TO.N,Net-(J1-Pad109)*
X52070000Y-120142000D03*
G04 #@! TO.P,J1,110*
G04 #@! TO.N,Net-(J1-Pad110)*
X50800000Y-122047000D03*
G04 #@! TO.P,J1,111*
G04 #@! TO.N,Net-(J1-Pad111)*
X49530000Y-120142000D03*
G04 #@! TO.P,J1,112*
G04 #@! TO.N,Net-(J1-Pad112)*
X48260000Y-122047000D03*
G04 #@! TO.P,J1,113*
G04 #@! TO.N,Net-(J1-Pad113)*
X46990000Y-120142000D03*
G04 #@! TO.P,J1,114*
G04 #@! TO.N,Net-(J1-Pad114)*
X45720000Y-122047000D03*
G04 #@! TO.P,J1,115*
G04 #@! TO.N,/~RESET*
X44450000Y-120142000D03*
G04 #@! TO.P,J1,116*
G04 #@! TO.N,GND*
X43180000Y-122047000D03*
G04 #@! TO.P,J1,117*
X41910000Y-120142000D03*
G04 #@! TO.P,J1,118*
X40640000Y-122047000D03*
G04 #@! TO.P,J1,119*
X39370000Y-120142000D03*
G04 #@! TO.P,J1,120*
X38100000Y-122047000D03*
D15*
G04 #@! TO.P,J1,121*
X117475000Y-122047000D03*
G04 #@! TO.P,J1,122*
X32385000Y-122047000D03*
G04 #@! TD*
D16*
G04 #@! TO.P,U7,84*
G04 #@! TO.N,/~AEN*
X88265000Y-71755000D03*
G04 #@! TO.P,U7,83*
G04 #@! TO.N,Net-(U7-Pad83)*
X88265000Y-69215000D03*
G04 #@! TO.P,U7,82*
G04 #@! TO.N,GND*
X90805000Y-71755000D03*
G04 #@! TO.P,U7,81*
G04 #@! TO.N,Net-(J3-Pad2)*
X90805000Y-69215000D03*
G04 #@! TO.P,U7,80*
G04 #@! TO.N,/~M16*
X93345000Y-71755000D03*
G04 #@! TO.P,U7,79*
G04 #@! TO.N,/MA12*
X93345000Y-69215000D03*
G04 #@! TO.P,U7,78*
G04 #@! TO.N,+5V*
X95885000Y-71755000D03*
G04 #@! TO.P,U7,77*
G04 #@! TO.N,/MA11*
X95885000Y-69215000D03*
G04 #@! TO.P,U7,76*
G04 #@! TO.N,/D0*
X98425000Y-71755000D03*
G04 #@! TO.P,U7,75*
G04 #@! TO.N,/D1*
X98425000Y-69215000D03*
G04 #@! TO.P,U7,74*
G04 #@! TO.N,/A22*
X100965000Y-71755000D03*
G04 #@! TO.P,U7,73*
G04 #@! TO.N,/A11*
X98425000Y-74295000D03*
G04 #@! TO.P,U7,72*
G04 #@! TO.N,GND*
X100965000Y-74295000D03*
G04 #@! TO.P,U7,71*
G04 #@! TO.N,Net-(J4-Pad3)*
X98425000Y-76835000D03*
G04 #@! TO.P,U7,70*
G04 #@! TO.N,/A21*
X100965000Y-76835000D03*
G04 #@! TO.P,U7,69*
G04 #@! TO.N,/A10*
X98425000Y-79375000D03*
G04 #@! TO.P,U7,68*
G04 #@! TO.N,/A20*
X100965000Y-79375000D03*
G04 #@! TO.P,U7,67*
G04 #@! TO.N,/A9*
X98425000Y-81915000D03*
G04 #@! TO.P,U7,66*
G04 #@! TO.N,+5V*
X100965000Y-81915000D03*
G04 #@! TO.P,U7,65*
G04 #@! TO.N,/A19*
X98425000Y-84455000D03*
G04 #@! TO.P,U7,64*
G04 #@! TO.N,/A8*
X100965000Y-84455000D03*
G04 #@! TO.P,U7,63*
G04 #@! TO.N,/A17*
X98425000Y-86995000D03*
G04 #@! TO.P,U7,62*
G04 #@! TO.N,Net-(J4-Pad1)*
X100965000Y-86995000D03*
G04 #@! TO.P,U7,61*
G04 #@! TO.N,/A6*
X98425000Y-89535000D03*
G04 #@! TO.P,U7,60*
G04 #@! TO.N,/A18*
X100965000Y-89535000D03*
G04 #@! TO.P,U7,59*
G04 #@! TO.N,GND*
X98425000Y-92075000D03*
G04 #@! TO.P,U7,58*
G04 #@! TO.N,/A7*
X100965000Y-92075000D03*
G04 #@! TO.P,U7,57*
G04 #@! TO.N,/A16*
X98425000Y-94615000D03*
G04 #@! TO.P,U7,56*
G04 #@! TO.N,/A5*
X100965000Y-94615000D03*
G04 #@! TO.P,U7,55*
G04 #@! TO.N,/A15*
X98425000Y-97155000D03*
G04 #@! TO.P,U7,54*
G04 #@! TO.N,/A4*
X100965000Y-97155000D03*
G04 #@! TO.P,U7,53*
G04 #@! TO.N,+5V*
X98425000Y-99695000D03*
G04 #@! TO.P,U7,52*
G04 #@! TO.N,/A14*
X95885000Y-97155000D03*
G04 #@! TO.P,U7,51*
G04 #@! TO.N,/A3*
X95885000Y-99695000D03*
G04 #@! TO.P,U7,50*
G04 #@! TO.N,/A13*
X93345000Y-97155000D03*
G04 #@! TO.P,U7,49*
G04 #@! TO.N,/A2*
X93345000Y-99695000D03*
G04 #@! TO.P,U7,48*
G04 #@! TO.N,/~RFSH*
X90805000Y-97155000D03*
G04 #@! TO.P,U7,47*
G04 #@! TO.N,GND*
X90805000Y-99695000D03*
G04 #@! TO.P,U7,46*
G04 #@! TO.N,/~RESET*
X88265000Y-97155000D03*
G04 #@! TO.P,U7,45*
G04 #@! TO.N,/~INTA*
X88265000Y-99695000D03*
G04 #@! TO.P,U7,44*
G04 #@! TO.N,/~MOVL*
X85725000Y-97155000D03*
G04 #@! TO.P,U7,43*
G04 #@! TO.N,+5V*
X85725000Y-99695000D03*
G04 #@! TO.P,U7,42*
G04 #@! TO.N,GND*
X83185000Y-97155000D03*
G04 #@! TO.P,U7,41*
G04 #@! TO.N,/A0*
X83185000Y-99695000D03*
G04 #@! TO.P,U7,40*
G04 #@! TO.N,/~MEMW*
X80645000Y-97155000D03*
G04 #@! TO.P,U7,39*
G04 #@! TO.N,/~MEMR*
X80645000Y-99695000D03*
G04 #@! TO.P,U7,38*
G04 #@! TO.N,+5V*
X78105000Y-97155000D03*
G04 #@! TO.P,U7,37*
G04 #@! TO.N,/~BHE*
X78105000Y-99695000D03*
G04 #@! TO.P,U7,36*
G04 #@! TO.N,/A23*
X75565000Y-97155000D03*
G04 #@! TO.P,U7,35*
G04 #@! TO.N,/A1*
X75565000Y-99695000D03*
G04 #@! TO.P,U7,34*
G04 #@! TO.N,/A12*
X73025000Y-97155000D03*
G04 #@! TO.P,U7,33*
G04 #@! TO.N,/~RAS3*
X73025000Y-99695000D03*
G04 #@! TO.P,U7,32*
G04 #@! TO.N,GND*
X70485000Y-97155000D03*
G04 #@! TO.P,U7,31*
G04 #@! TO.N,/~RAS1*
X73025000Y-94615000D03*
G04 #@! TO.P,U7,30*
G04 #@! TO.N,/~CAS2*
X70485000Y-94615000D03*
G04 #@! TO.P,U7,29*
G04 #@! TO.N,/~CAS3*
X73025000Y-92075000D03*
G04 #@! TO.P,U7,28*
G04 #@! TO.N,/BA0*
X70485000Y-92075000D03*
G04 #@! TO.P,U7,27*
G04 #@! TO.N,/MA10*
X73025000Y-89535000D03*
G04 #@! TO.P,U7,26*
G04 #@! TO.N,+5V*
X70485000Y-89535000D03*
G04 #@! TO.P,U7,25*
G04 #@! TO.N,/MA9*
X73025000Y-86995000D03*
G04 #@! TO.P,U7,24*
G04 #@! TO.N,/MA8*
X70485000Y-86995000D03*
G04 #@! TO.P,U7,23*
G04 #@! TO.N,Net-(J4-Pad5)*
X73025000Y-84455000D03*
G04 #@! TO.P,U7,22*
G04 #@! TO.N,/MA7*
X70485000Y-84455000D03*
G04 #@! TO.P,U7,21*
G04 #@! TO.N,/MA5*
X73025000Y-81915000D03*
G04 #@! TO.P,U7,20*
G04 #@! TO.N,/MA6*
X70485000Y-81915000D03*
G04 #@! TO.P,U7,19*
G04 #@! TO.N,GND*
X73025000Y-79375000D03*
G04 #@! TO.P,U7,18*
G04 #@! TO.N,/MA4*
X70485000Y-79375000D03*
G04 #@! TO.P,U7,17*
G04 #@! TO.N,/MA3*
X73025000Y-76835000D03*
G04 #@! TO.P,U7,16*
G04 #@! TO.N,/MA2*
X70485000Y-76835000D03*
G04 #@! TO.P,U7,15*
G04 #@! TO.N,/MA1*
X73025000Y-74295000D03*
G04 #@! TO.P,U7,14*
G04 #@! TO.N,Net-(J4-Pad9)*
X70485000Y-74295000D03*
G04 #@! TO.P,U7,13*
G04 #@! TO.N,+5V*
X73025000Y-71755000D03*
G04 #@! TO.P,U7,12*
G04 #@! TO.N,/~WE*
X70485000Y-71755000D03*
G04 #@! TO.P,U7,11*
G04 #@! TO.N,/~OE*
X73025000Y-69215000D03*
G04 #@! TO.P,U7,10*
G04 #@! TO.N,/~WAIT*
X75565000Y-71755000D03*
G04 #@! TO.P,U7,9*
G04 #@! TO.N,/MA0*
X75565000Y-69215000D03*
G04 #@! TO.P,U7,8*
G04 #@! TO.N,/~RAS2*
X78105000Y-71755000D03*
G04 #@! TO.P,U7,7*
G04 #@! TO.N,GND*
X78105000Y-69215000D03*
G04 #@! TO.P,U7,6*
G04 #@! TO.N,/~RAS0*
X80645000Y-71755000D03*
G04 #@! TO.P,U7,5*
G04 #@! TO.N,/~CAS1*
X80645000Y-69215000D03*
G04 #@! TO.P,U7,4*
G04 #@! TO.N,/~CAS0*
X83185000Y-71755000D03*
G04 #@! TO.P,U7,3*
G04 #@! TO.N,+5V*
X83185000Y-69215000D03*
G04 #@! TO.P,U7,2*
G04 #@! TO.N,/CLK1*
X85725000Y-71755000D03*
D17*
G04 #@! TO.P,U7,1*
G04 #@! TO.N,/~IOW*
X85725000Y-69215000D03*
G04 #@! TD*
D18*
G04 #@! TO.N,GND*
X56854500Y-107824700D03*
D19*
X123190000Y-26670000D03*
X121920000Y-26670000D03*
X123190000Y-27940000D03*
X121920000Y-27940000D03*
X26670000Y-26670000D03*
X27940000Y-26670000D03*
X27940000Y-27940000D03*
X26670000Y-27940000D03*
X76200000Y-86995000D03*
X76200000Y-78740000D03*
X76835000Y-74295000D03*
X80645000Y-74295000D03*
X85090000Y-48895000D03*
X86360000Y-49530000D03*
X111125000Y-88900000D03*
X111125000Y-98425000D03*
X113030000Y-52070000D03*
X107315000Y-58420000D03*
X113665000Y-56515000D03*
X98425000Y-64770000D03*
X97790000Y-61595000D03*
X100965000Y-68580000D03*
X88900000Y-66675000D03*
X91440000Y-66040000D03*
X52070000Y-64770000D03*
X46990000Y-67310000D03*
X67695200Y-81915000D03*
X67527566Y-85725000D03*
X42545000Y-106045000D03*
X42996600Y-113665000D03*
X57150000Y-109855000D03*
X60325000Y-113665000D03*
X76835000Y-103505000D03*
X76200000Y-94615000D03*
X80645000Y-90170000D03*
X89383600Y-93980000D03*
X90170000Y-80645000D03*
X86360000Y-79375000D03*
X91440000Y-74295000D03*
X96020900Y-84455000D03*
X93345000Y-95250000D03*
X71148500Y-106500400D03*
X74930000Y-101600000D03*
X81280000Y-106045000D03*
X65405000Y-88265000D03*
X68811800Y-92075000D03*
X76980000Y-59055000D03*
X96020900Y-78105000D03*
X93345000Y-83185000D03*
X48260000Y-85725000D03*
X50290000Y-86360000D03*
X59055000Y-63320400D03*
G04 #@! TO.N,Net-(J3-Pad2)*
X109200900Y-79324800D03*
G04 #@! TO.N,/MA12*
X82492900Y-60704700D03*
D18*
G04 #@! TO.N,+5V*
X76103900Y-67064300D03*
D19*
G04 #@! TO.N,/MA11*
X70392300Y-57743600D03*
X84239800Y-57822400D03*
G04 #@! TO.N,/D0*
X88488100Y-110531700D03*
G04 #@! TO.N,/D1*
X40254500Y-86778600D03*
X40254500Y-99060000D03*
G04 #@! TO.N,/A8*
X90984900Y-103037300D03*
G04 #@! TO.N,/A17*
X100795200Y-111135500D03*
G04 #@! TO.N,/A6*
X89789700Y-102737400D03*
G04 #@! TO.N,/A7*
X90165500Y-103725600D03*
G04 #@! TO.N,/A4*
X88286300Y-107620600D03*
G04 #@! TO.N,/A3*
X87183400Y-106625300D03*
G04 #@! TO.N,/A2*
X89535000Y-97190500D03*
G04 #@! TO.N,/A12*
X90355700Y-110783900D03*
G04 #@! TO.N,/~RAS3*
X79037500Y-74570700D03*
G04 #@! TO.N,/BA0*
X41275000Y-89562700D03*
X40254500Y-79182400D03*
G04 #@! TO.N,/MA10*
X65637800Y-58281000D03*
G04 #@! TO.N,/MA7*
X68625800Y-57974800D03*
G04 #@! TO.N,/MA5*
X63362000Y-53461300D03*
X60088300Y-70213300D03*
G04 #@! TO.N,/MA6*
X66565800Y-58645900D03*
G04 #@! TO.N,/MA4*
X67977800Y-59261800D03*
G04 #@! TO.N,/MA3*
X61708800Y-57488000D03*
X62017300Y-73956100D03*
G04 #@! TO.N,/MA2*
X72318700Y-53483000D03*
G04 #@! TO.N,/MA1*
X61733300Y-58463300D03*
X61733300Y-70350200D03*
G04 #@! TO.N,/~WE*
X44941900Y-95250000D03*
X81871100Y-58837600D03*
X53747100Y-69529800D03*
X45217700Y-79851500D03*
G04 #@! TO.N,/~OE*
X57944800Y-95074800D03*
X58830800Y-70226200D03*
X57770300Y-84917800D03*
G04 #@! TO.N,/~WAIT*
X82775300Y-81883100D03*
G04 #@! TO.N,/MA0*
X73838500Y-53429000D03*
X73454000Y-65309700D03*
G04 #@! TO.N,/D15*
X45792900Y-73877500D03*
X50095400Y-104405500D03*
G04 #@! TO.N,/D14*
X47931300Y-75486100D03*
X52018700Y-102398600D03*
G04 #@! TO.N,/D13*
X47241500Y-80474000D03*
X52213200Y-98743100D03*
G04 #@! TO.N,/D12*
X41617900Y-79607900D03*
X42601700Y-97710100D03*
G04 #@! TO.N,/D11*
X46296600Y-81809600D03*
X56306600Y-100055700D03*
G04 #@! TO.N,/D10*
X41626900Y-81785400D03*
X60266700Y-103252300D03*
G04 #@! TO.N,/D9*
X46497900Y-89814700D03*
X50959100Y-97204500D03*
G04 #@! TO.N,/D8*
X101153800Y-114975600D03*
X48621300Y-91615800D03*
X51579900Y-96005800D03*
G04 #@! TO.N,/D7*
X88966900Y-123851400D03*
X46697500Y-73473400D03*
X64657200Y-73230000D03*
X50789400Y-105448600D03*
G04 #@! TO.N,/D6*
X50766100Y-71836600D03*
X45468800Y-75298900D03*
X57402400Y-102741600D03*
X49842000Y-103516300D03*
G04 #@! TO.N,/D5*
X46446000Y-79512300D03*
X49456000Y-101600000D03*
G04 #@! TO.N,/D4*
X44317700Y-80475900D03*
X58445700Y-78981000D03*
X46079400Y-99060000D03*
G04 #@! TO.N,/D3*
X67649000Y-113256000D03*
X64101600Y-84861800D03*
X42832700Y-103903500D03*
G04 #@! TO.N,/D2*
X58961000Y-81678700D03*
X55477000Y-102725700D03*
G04 #@! TO.N,/MD0*
X52601300Y-90635000D03*
X59948400Y-52273700D03*
X54241500Y-58440100D03*
G04 #@! TO.N,/MD1*
X56724500Y-92206200D03*
X56408800Y-59817400D03*
X51316400Y-100181100D03*
G04 #@! TO.N,/MD2*
X65190500Y-50479900D03*
X58559300Y-60041000D03*
X56954300Y-81765900D03*
X50170700Y-102231200D03*
G04 #@! TO.N,/MD3*
X71229900Y-52355100D03*
X75805400Y-52355100D03*
X51623300Y-105025000D03*
X62964600Y-80674900D03*
G04 #@! TO.N,/MD4*
X46286600Y-97542900D03*
X64060300Y-50424800D03*
X56136400Y-78886400D03*
X57876000Y-59260200D03*
G04 #@! TO.N,/MD5*
X53560800Y-79818200D03*
X50608600Y-99503400D03*
X62177400Y-49813600D03*
X57210500Y-57484200D03*
G04 #@! TO.N,/MD6*
X39977600Y-102877500D03*
X60967100Y-49801900D03*
X52269500Y-70527900D03*
X58982600Y-52232100D03*
G04 #@! TO.N,/MD7*
X39956800Y-104929500D03*
X65834800Y-48535000D03*
X57797700Y-53327800D03*
X60602500Y-70956400D03*
G04 #@! TO.N,/MD8*
X87111000Y-53437000D03*
X64720400Y-98983900D03*
X63748400Y-91472200D03*
X67494100Y-58369400D03*
G04 #@! TO.N,/MD9*
X83816100Y-50141200D03*
X65690000Y-53458500D03*
X58449500Y-98194800D03*
X59443900Y-86774500D03*
G04 #@! TO.N,/MD10*
X88888000Y-53416400D03*
X64415300Y-81566300D03*
X57747500Y-104509600D03*
X67136200Y-57478800D03*
G04 #@! TO.N,/MD11*
X90325200Y-53461000D03*
X66820000Y-53464600D03*
X55336300Y-103971600D03*
X60195400Y-85789000D03*
G04 #@! TO.N,/MD12*
X88263600Y-52783300D03*
X60886400Y-97415200D03*
X60816300Y-79327300D03*
X68115000Y-53475400D03*
G04 #@! TO.N,/MD13*
X86770600Y-52162400D03*
X69010800Y-53465400D03*
X60411100Y-99766700D03*
X61589000Y-78816400D03*
G04 #@! TO.N,/MD14*
X64084500Y-48799900D03*
X56386500Y-70783200D03*
X61480800Y-53085000D03*
X50941000Y-75230500D03*
X55564000Y-98851400D03*
G04 #@! TO.N,/MD15*
X54074100Y-74231700D03*
X68807400Y-73882400D03*
X50377100Y-74537000D03*
X75070400Y-57689300D03*
X55078300Y-99714400D03*
X91858900Y-57678400D03*
G04 #@! TD*
D20*
G04 #@! TO.N,/~AEN*
X88265000Y-71755000D02*
X79724300Y-80295700D01*
X79724300Y-80295700D02*
X79724300Y-97870300D01*
X79724300Y-97870300D02*
X79054100Y-98540500D01*
X79054100Y-98540500D02*
X79054100Y-105753000D01*
X79054100Y-105753000D02*
X67740100Y-117067000D01*
X67740100Y-117067000D02*
X67740100Y-118578300D01*
X67740100Y-118578300D02*
X68222600Y-119060800D01*
X68222600Y-119060800D02*
X69945700Y-119060800D01*
X69945700Y-119060800D02*
X71850700Y-120965800D01*
X71850700Y-120965800D02*
X75118800Y-120965800D01*
X75118800Y-120965800D02*
X76200000Y-122047000D01*
D21*
G04 #@! TO.N,GND*
X70485000Y-97155000D02*
X59815300Y-107824700D01*
X59815300Y-107824700D02*
X56854500Y-107824700D01*
X41910000Y-120777000D02*
X43180000Y-122047000D01*
X40640000Y-121412000D02*
X41275000Y-120777000D01*
X41275000Y-120777000D02*
X41910000Y-120777000D01*
X41910000Y-120142000D02*
X41910000Y-120777000D01*
X40640000Y-121412000D02*
X40640000Y-122047000D01*
X39370000Y-120142000D02*
X40640000Y-121412000D01*
X117475000Y-76200000D02*
X118783500Y-77508500D01*
X118783500Y-77508500D02*
X118783500Y-92671500D01*
X118783500Y-92671500D02*
X117475000Y-93980000D01*
X117475000Y-76200000D02*
X118797500Y-74877500D01*
X118797500Y-74877500D02*
X118797500Y-56012500D01*
X118797500Y-56012500D02*
X118110000Y-55325000D01*
X40640000Y-62230000D02*
X40640000Y-64770000D01*
X73025000Y-79375000D02*
X76835000Y-75565000D01*
X76835000Y-75565000D02*
X76835000Y-74295000D01*
X76835000Y-70807500D02*
X78105000Y-69537500D01*
X78105000Y-69537500D02*
X78105000Y-69215000D01*
X111760000Y-117602000D02*
X111760000Y-118237000D01*
X113030000Y-116332000D02*
X111760000Y-117602000D01*
X110490000Y-116332000D02*
X111760000Y-117602000D01*
X118110000Y-53975000D02*
X118110000Y-55325000D01*
X118110000Y-43815000D02*
X119473900Y-45178900D01*
X119473900Y-45178900D02*
X119473900Y-52611100D01*
X119473900Y-52611100D02*
X118110000Y-53975000D01*
X76835000Y-74295000D02*
X76835000Y-70807500D01*
D20*
G04 #@! TO.N,Net-(J3-Pad2)*
X109200900Y-79324800D02*
X113030000Y-83153900D01*
X113030000Y-83153900D02*
X113030000Y-100965000D01*
G04 #@! TO.N,/~M16*
X93345000Y-71755000D02*
X94271600Y-70828400D01*
X94271600Y-70828400D02*
X96326300Y-70828400D01*
X96326300Y-70828400D02*
X96824800Y-71326900D01*
X96824800Y-71326900D02*
X96824800Y-72121900D01*
X96824800Y-72121900D02*
X87847300Y-81099400D01*
X87847300Y-81099400D02*
X82690400Y-81099400D01*
X82690400Y-81099400D02*
X81989300Y-81800500D01*
X81989300Y-81800500D02*
X81989300Y-109526500D01*
X81989300Y-109526500D02*
X76646000Y-114869800D01*
X76646000Y-114869800D02*
X76646000Y-116429900D01*
X76646000Y-116429900D02*
X73980800Y-119095100D01*
X73980800Y-119095100D02*
X73294700Y-119095100D01*
X73294700Y-119095100D02*
X71558100Y-117358500D01*
X71558100Y-117358500D02*
X69458500Y-117358500D01*
X69458500Y-117358500D02*
X68580000Y-118237000D01*
G04 #@! TO.N,/MA12*
X93345000Y-69215000D02*
X84834700Y-60704700D01*
X84834700Y-60704700D02*
X82492900Y-60704700D01*
D21*
G04 #@! TO.N,+5V*
X33655000Y-64770000D02*
X33655000Y-110617000D01*
X33655000Y-110617000D02*
X39370000Y-116332000D01*
X33655000Y-62230000D02*
X33655000Y-64770000D01*
X78105000Y-97155000D02*
X78105000Y-92941500D01*
X78105000Y-92941500D02*
X73523500Y-88360000D01*
X73523500Y-88360000D02*
X71660000Y-88360000D01*
X71660000Y-88360000D02*
X70485000Y-89535000D01*
X109855000Y-68580000D02*
X108325600Y-70109400D01*
X108325600Y-70109400D02*
X108325600Y-84830600D01*
X108325600Y-84830600D02*
X109855000Y-86360000D01*
X77157400Y-68117800D02*
X76103900Y-67064300D01*
X77157400Y-68117800D02*
X76738800Y-68536400D01*
X76738800Y-68536400D02*
X76738800Y-69701300D01*
X76738800Y-69701300D02*
X76051300Y-70388800D01*
X76051300Y-70388800D02*
X74391200Y-70388800D01*
X74391200Y-70388800D02*
X73025000Y-71755000D01*
X83185000Y-69215000D02*
X81969700Y-67999700D01*
X81969700Y-67999700D02*
X77275500Y-67999700D01*
X77275500Y-67999700D02*
X77157400Y-68117800D01*
X95885000Y-71755000D02*
X94700600Y-72939400D01*
X94700600Y-72939400D02*
X92843200Y-72939400D01*
X92843200Y-72939400D02*
X91978900Y-72075100D01*
X91978900Y-72075100D02*
X91978900Y-71246300D01*
X91978900Y-71246300D02*
X91121500Y-70388900D01*
X91121500Y-70388900D02*
X90296400Y-70388900D01*
X90296400Y-70388900D02*
X89535000Y-69627500D01*
X89535000Y-69627500D02*
X89535000Y-68735100D01*
X89535000Y-68735100D02*
X88841000Y-68041100D01*
X88841000Y-68041100D02*
X84358900Y-68041100D01*
X84358900Y-68041100D02*
X83185000Y-69215000D01*
X100965000Y-81915000D02*
X99628100Y-83251900D01*
X99628100Y-83251900D02*
X99628100Y-98491900D01*
X99628100Y-98491900D02*
X98425000Y-99695000D01*
X113030000Y-120142000D02*
X114118100Y-119053900D01*
X114118100Y-119053900D02*
X114118100Y-109717900D01*
X114118100Y-109717900D02*
X108579600Y-104179400D01*
X108579600Y-104179400D02*
X108579600Y-87635400D01*
X108579600Y-87635400D02*
X109855000Y-86360000D01*
X111760000Y-122047000D02*
X113030000Y-120777000D01*
X113030000Y-120777000D02*
X113030000Y-120142000D01*
D20*
G04 #@! TO.N,/MA11*
X70392300Y-57743600D02*
X71060700Y-57075200D01*
X71060700Y-57075200D02*
X83492600Y-57075200D01*
X83492600Y-57075200D02*
X84239800Y-57822400D01*
G04 #@! TO.N,/D0*
X98425000Y-71755000D02*
X91753900Y-78426100D01*
X91753900Y-78426100D02*
X91753900Y-107265900D01*
X91753900Y-107265900D02*
X88488100Y-110531700D01*
X87630000Y-120142000D02*
X87630000Y-118132100D01*
X87630000Y-118132100D02*
X88488100Y-117274000D01*
X88488100Y-117274000D02*
X88488100Y-110531700D01*
G04 #@! TO.N,/D1*
X40254500Y-99060000D02*
X40254500Y-86778600D01*
X88900000Y-122047000D02*
X86932100Y-124014900D01*
X86932100Y-124014900D02*
X46519400Y-124014900D01*
X46519400Y-124014900D02*
X43617500Y-121113000D01*
X43617500Y-121113000D02*
X43617500Y-119174500D01*
X43617500Y-119174500D02*
X44030100Y-118761900D01*
X44030100Y-118761900D02*
X44030100Y-117287000D01*
X44030100Y-117287000D02*
X41394800Y-114651700D01*
X41394800Y-114651700D02*
X41394800Y-100200300D01*
X41394800Y-100200300D02*
X40254500Y-99060000D01*
X98425000Y-69215000D02*
X99350700Y-70140700D01*
X99350700Y-70140700D02*
X99350700Y-74660100D01*
X99350700Y-74660100D02*
X98108300Y-75902500D01*
X98108300Y-75902500D02*
X98033800Y-75902500D01*
X98033800Y-75902500D02*
X97470500Y-76465800D01*
X97470500Y-76465800D02*
X97470500Y-77237400D01*
X97470500Y-77237400D02*
X98460500Y-78227400D01*
X98460500Y-78227400D02*
X101123900Y-78227400D01*
X101123900Y-78227400D02*
X103740200Y-80843700D01*
X103740200Y-80843700D02*
X103740200Y-117261900D01*
X103740200Y-117261900D02*
X101924200Y-119077900D01*
X101924200Y-119077900D02*
X100209100Y-119077900D01*
X100209100Y-119077900D02*
X98117400Y-121169600D01*
X98117400Y-121169600D02*
X96161500Y-121169600D01*
X96161500Y-121169600D02*
X94451800Y-122879300D01*
X94451800Y-122879300D02*
X89732300Y-122879300D01*
X89732300Y-122879300D02*
X88900000Y-122047000D01*
G04 #@! TO.N,/A22*
X105410000Y-116332000D02*
X105410000Y-76200000D01*
X105410000Y-76200000D02*
X100965000Y-71755000D01*
G04 #@! TO.N,/A11*
X98425000Y-74295000D02*
X92093100Y-80626900D01*
X92093100Y-80626900D02*
X92093100Y-107698500D01*
X92093100Y-107698500D02*
X89346200Y-110445400D01*
X89346200Y-110445400D02*
X89346200Y-116698800D01*
X89346200Y-116698800D02*
X90884400Y-118237000D01*
X90884400Y-118237000D02*
X91440000Y-118237000D01*
G04 #@! TO.N,Net-(J4-Pad3)*
X115570000Y-46355000D02*
X115570000Y-47455000D01*
X98425000Y-76835000D02*
X99749100Y-75510900D01*
X99749100Y-75510900D02*
X99749100Y-71671400D01*
X99749100Y-71671400D02*
X116669900Y-54750600D01*
X116669900Y-54750600D02*
X116669900Y-48417100D01*
X116669900Y-48417100D02*
X115707800Y-47455000D01*
X115707800Y-47455000D02*
X115570000Y-47455000D01*
G04 #@! TO.N,/A21*
X100965000Y-76835000D02*
X104140000Y-80010000D01*
X104140000Y-80010000D02*
X104140000Y-118237000D01*
G04 #@! TO.N,/A10*
X98425000Y-79375000D02*
X92432300Y-85367700D01*
X92432300Y-85367700D02*
X92432300Y-107838900D01*
X92432300Y-107838900D02*
X89741600Y-110529600D01*
X89741600Y-110529600D02*
X89741600Y-115903600D01*
X89741600Y-115903600D02*
X90170000Y-116332000D01*
G04 #@! TO.N,/A20*
X100965000Y-79375000D02*
X102920400Y-81330400D01*
X102920400Y-81330400D02*
X102920400Y-116281600D01*
X102920400Y-116281600D02*
X102870000Y-116332000D01*
G04 #@! TO.N,/A9*
X88900000Y-118237000D02*
X89723800Y-119060800D01*
X89723800Y-119060800D02*
X94321300Y-119060800D01*
X94321300Y-119060800D02*
X96808800Y-116573300D01*
X96808800Y-116573300D02*
X96808800Y-83531200D01*
X96808800Y-83531200D02*
X98425000Y-81915000D01*
G04 #@! TO.N,/A19*
X98425000Y-84455000D02*
X98425000Y-83605900D01*
X98425000Y-83605900D02*
X99692100Y-82338800D01*
X99692100Y-82338800D02*
X99692100Y-81857200D01*
X99692100Y-81857200D02*
X100596000Y-80953300D01*
X100596000Y-80953300D02*
X101364800Y-80953300D01*
X101364800Y-80953300D02*
X102565900Y-82154400D01*
X102565900Y-82154400D02*
X102565900Y-115463900D01*
X102565900Y-115463900D02*
X101600000Y-116429800D01*
X101600000Y-116429800D02*
X101600000Y-118237000D01*
G04 #@! TO.N,/A8*
X90984900Y-103037300D02*
X90984900Y-107229200D01*
X90984900Y-107229200D02*
X88296500Y-109917600D01*
X88296500Y-109917600D02*
X88233800Y-109917600D01*
X88233800Y-109917600D02*
X87630000Y-110521400D01*
X87630000Y-110521400D02*
X87630000Y-116332000D01*
G04 #@! TO.N,/A17*
X100795200Y-111135500D02*
X99478600Y-112452100D01*
X99478600Y-112452100D02*
X99478600Y-117818400D01*
X99478600Y-117818400D02*
X99060000Y-118237000D01*
G04 #@! TO.N,/A6*
X89789700Y-102737400D02*
X89239500Y-103287600D01*
X89239500Y-103287600D02*
X89239500Y-108015500D01*
X89239500Y-108015500D02*
X88015600Y-109239400D01*
X88015600Y-109239400D02*
X87952800Y-109239400D01*
X87952800Y-109239400D02*
X85090000Y-112102200D01*
X85090000Y-112102200D02*
X85090000Y-116332000D01*
G04 #@! TO.N,/A18*
X100965000Y-89535000D02*
X102226700Y-90796700D01*
X102226700Y-90796700D02*
X102226700Y-112581000D01*
X102226700Y-112581000D02*
X100330000Y-114477700D01*
X100330000Y-114477700D02*
X100330000Y-116332000D01*
G04 #@! TO.N,/A7*
X90165500Y-103725600D02*
X90165500Y-107569100D01*
X90165500Y-107569100D02*
X88156100Y-109578500D01*
X88156100Y-109578500D02*
X88093300Y-109578500D01*
X88093300Y-109578500D02*
X86360000Y-111311800D01*
X86360000Y-111311800D02*
X86360000Y-118237000D01*
G04 #@! TO.N,/A16*
X98425000Y-94615000D02*
X97148000Y-95892000D01*
X97148000Y-95892000D02*
X97148000Y-115690000D01*
X97148000Y-115690000D02*
X97790000Y-116332000D01*
G04 #@! TO.N,/A5*
X100965000Y-94615000D02*
X101877700Y-95527700D01*
X101877700Y-95527700D02*
X101877700Y-104174900D01*
X101877700Y-104174900D02*
X99111500Y-106941100D01*
X99111500Y-106941100D02*
X99111500Y-116680100D01*
X99111500Y-116680100D02*
X97448900Y-118342700D01*
X97448900Y-118342700D02*
X97448900Y-119123400D01*
X97448900Y-119123400D02*
X95606500Y-120965800D01*
X95606500Y-120965800D02*
X87183800Y-120965800D01*
X87183800Y-120965800D02*
X84455000Y-118237000D01*
X84455000Y-118237000D02*
X83820000Y-118237000D01*
G04 #@! TO.N,/A15*
X98425000Y-97155000D02*
X97487200Y-98092800D01*
X97487200Y-98092800D02*
X97487200Y-110804900D01*
X97487200Y-110804900D02*
X98618900Y-111936600D01*
X98618900Y-111936600D02*
X98618900Y-116693000D01*
X98618900Y-116693000D02*
X97074900Y-118237000D01*
X97074900Y-118237000D02*
X96520000Y-118237000D01*
G04 #@! TO.N,/A4*
X88286300Y-107620600D02*
X88286300Y-107629700D01*
X88286300Y-107629700D02*
X82550000Y-113366000D01*
X82550000Y-113366000D02*
X82550000Y-116332000D01*
G04 #@! TO.N,/A14*
X95250000Y-116332000D02*
X94963600Y-116045600D01*
X94963600Y-116045600D02*
X94963600Y-98076400D01*
X94963600Y-98076400D02*
X95885000Y-97155000D01*
G04 #@! TO.N,/A3*
X81280000Y-118237000D02*
X81280000Y-113676800D01*
X81280000Y-113676800D02*
X87183400Y-107773400D01*
X87183400Y-107773400D02*
X87183400Y-106625300D01*
G04 #@! TO.N,/A13*
X93345000Y-97155000D02*
X94258900Y-98068900D01*
X94258900Y-98068900D02*
X94258900Y-117958100D01*
X94258900Y-117958100D02*
X93980000Y-118237000D01*
G04 #@! TO.N,/A2*
X80010000Y-116332000D02*
X80010000Y-113777200D01*
X80010000Y-113777200D02*
X85453200Y-108334000D01*
X85453200Y-108334000D02*
X85453200Y-104609600D01*
X85453200Y-104609600D02*
X87007600Y-103055200D01*
X87007600Y-103055200D02*
X87007600Y-97113100D01*
X87007600Y-97113100D02*
X87884700Y-96236000D01*
X87884700Y-96236000D02*
X88654800Y-96236000D01*
X88654800Y-96236000D02*
X89535000Y-97116200D01*
X89535000Y-97116200D02*
X89535000Y-97190500D01*
G04 #@! TO.N,/~RFSH*
X90805000Y-97155000D02*
X89859300Y-98100700D01*
X89859300Y-98100700D02*
X89859300Y-101270100D01*
X89859300Y-101270100D02*
X88900400Y-102229000D01*
X88900400Y-102229000D02*
X88900400Y-107875000D01*
X88900400Y-107875000D02*
X87875100Y-108900300D01*
X87875100Y-108900300D02*
X87812300Y-108900300D01*
X87812300Y-108900300D02*
X84266200Y-112446400D01*
X84266200Y-112446400D02*
X84266200Y-116555600D01*
X84266200Y-116555600D02*
X82550000Y-118271800D01*
X82550000Y-118271800D02*
X82550000Y-120142000D01*
G04 #@! TO.N,/~RESET*
X44450000Y-120142000D02*
X45085000Y-120142000D01*
X45085000Y-120142000D02*
X48609500Y-123666500D01*
X48609500Y-123666500D02*
X78772700Y-123666500D01*
X78772700Y-123666500D02*
X80308800Y-122130400D01*
X80308800Y-122130400D02*
X80308800Y-121488000D01*
X80308800Y-121488000D02*
X81590500Y-120206300D01*
X81590500Y-120206300D02*
X81590500Y-119681100D01*
X81590500Y-119681100D02*
X82144400Y-119127200D01*
X82144400Y-119127200D02*
X82144400Y-117196400D01*
X82144400Y-117196400D02*
X81720800Y-116772800D01*
X81720800Y-116772800D02*
X81720800Y-113715600D01*
X81720800Y-113715600D02*
X87672200Y-107764200D01*
X87672200Y-107764200D02*
X87672200Y-107366300D01*
X87672200Y-107366300D02*
X87797500Y-107241000D01*
X87797500Y-107241000D02*
X87797500Y-102059400D01*
X87797500Y-102059400D02*
X89193600Y-100663300D01*
X89193600Y-100663300D02*
X89193600Y-98083600D01*
X89193600Y-98083600D02*
X88265000Y-97155000D01*
G04 #@! TO.N,/~INTA*
X62230000Y-120142000D02*
X62784900Y-120142000D01*
X62784900Y-120142000D02*
X65944900Y-123302000D01*
X65944900Y-123302000D02*
X78650700Y-123302000D01*
X78650700Y-123302000D02*
X79582100Y-122370600D01*
X79582100Y-122370600D02*
X79582100Y-121735000D01*
X79582100Y-121735000D02*
X80875400Y-120441700D01*
X80875400Y-120441700D02*
X80875400Y-119737400D01*
X80875400Y-119737400D02*
X80409800Y-119271800D01*
X80409800Y-119271800D02*
X80409800Y-117837200D01*
X80409800Y-117837200D02*
X80866700Y-117380300D01*
X80866700Y-117380300D02*
X80866700Y-113610500D01*
X80866700Y-113610500D02*
X85792300Y-108684900D01*
X85792300Y-108684900D02*
X85792300Y-106058000D01*
X85792300Y-106058000D02*
X87387700Y-104462600D01*
X87387700Y-104462600D02*
X87387700Y-100572300D01*
X87387700Y-100572300D02*
X88265000Y-99695000D01*
G04 #@! TO.N,/~MOVL*
X71120000Y-118237000D02*
X71650000Y-118237000D01*
X71650000Y-118237000D02*
X72851900Y-119438900D01*
X72851900Y-119438900D02*
X74319300Y-119438900D01*
X74319300Y-119438900D02*
X74493600Y-119264600D01*
X74493600Y-119264600D02*
X76372900Y-119264600D01*
X76372900Y-119264600D02*
X78754400Y-116883100D01*
X78754400Y-116883100D02*
X78754400Y-113833900D01*
X78754400Y-113833900D02*
X84107300Y-108481000D01*
X84107300Y-108481000D02*
X84107300Y-98772700D01*
X84107300Y-98772700D02*
X85725000Y-97155000D01*
G04 #@! TO.N,/A0*
X83185000Y-99695000D02*
X83185000Y-108810600D01*
X83185000Y-108810600D02*
X77470000Y-114525600D01*
X77470000Y-114525600D02*
X77470000Y-116332000D01*
G04 #@! TO.N,/~MEMW*
X80645000Y-97155000D02*
X80645000Y-97444700D01*
X80645000Y-97444700D02*
X79393300Y-98696400D01*
X79393300Y-98696400D02*
X79393300Y-109328700D01*
X79393300Y-109328700D02*
X72390000Y-116332000D01*
G04 #@! TO.N,/~MEMR*
X80645000Y-99695000D02*
X80645000Y-109036200D01*
X80645000Y-109036200D02*
X76150300Y-113530900D01*
X76150300Y-113530900D02*
X76150300Y-116282000D01*
X76150300Y-116282000D02*
X74195300Y-118237000D01*
X74195300Y-118237000D02*
X73660000Y-118237000D01*
G04 #@! TO.N,/~BHE*
X78105000Y-99695000D02*
X78105000Y-105537000D01*
X78105000Y-105537000D02*
X67310000Y-116332000D01*
G04 #@! TO.N,/A1*
X75565000Y-99695000D02*
X75565000Y-106872300D01*
X75565000Y-106872300D02*
X66439800Y-115997500D01*
X66439800Y-115997500D02*
X66439800Y-116731800D01*
X66439800Y-116731800D02*
X66863800Y-117155800D01*
X66863800Y-117155800D02*
X66863800Y-119290100D01*
X66863800Y-119290100D02*
X66459400Y-119694500D01*
X66459400Y-119694500D02*
X66459400Y-121158100D01*
X66459400Y-121158100D02*
X68222700Y-122921400D01*
X68222700Y-122921400D02*
X76515000Y-122921400D01*
X76515000Y-122921400D02*
X78740000Y-120696400D01*
X78740000Y-120696400D02*
X78740000Y-118237000D01*
G04 #@! TO.N,/A12*
X92710000Y-116332000D02*
X92710000Y-113138200D01*
X92710000Y-113138200D02*
X90355700Y-110783900D01*
G04 #@! TO.N,/~RAS3*
X73025000Y-99695000D02*
X74637500Y-98082500D01*
X74637500Y-98082500D02*
X78552600Y-98082500D01*
X78552600Y-98082500D02*
X79037500Y-97597600D01*
X79037500Y-97597600D02*
X79037500Y-74570700D01*
G04 #@! TO.N,/BA0*
X41275000Y-89562700D02*
X41275000Y-97731400D01*
X41275000Y-97731400D02*
X50010600Y-106467000D01*
X50010600Y-106467000D02*
X58144200Y-106467000D01*
X58144200Y-106467000D02*
X65644500Y-98966700D01*
X65644500Y-98966700D02*
X65644500Y-96915500D01*
X65644500Y-96915500D02*
X70485000Y-92075000D01*
X41275000Y-89562700D02*
X41275000Y-85882200D01*
X41275000Y-85882200D02*
X40254500Y-84861700D01*
X40254500Y-84861700D02*
X40254500Y-79182400D01*
G04 #@! TO.N,/MA10*
X73025000Y-89535000D02*
X72051400Y-90508600D01*
X72051400Y-90508600D02*
X70148800Y-90508600D01*
X70148800Y-90508600D02*
X66153500Y-86513300D01*
X66153500Y-86513300D02*
X66153500Y-70227900D01*
X66153500Y-70227900D02*
X65637800Y-69712200D01*
X65637800Y-69712200D02*
X65637800Y-58281000D01*
G04 #@! TO.N,Net-(J4-Pad5)*
X115570000Y-48895000D02*
X114470000Y-48895000D01*
X73025000Y-84455000D02*
X72060500Y-83490500D01*
X72060500Y-83490500D02*
X72060500Y-77042900D01*
X72060500Y-77042900D02*
X70384900Y-75367300D01*
X70384900Y-75367300D02*
X70162800Y-75367300D01*
X70162800Y-75367300D02*
X69551900Y-74756400D01*
X69551900Y-74756400D02*
X69551900Y-73907700D01*
X69551900Y-73907700D02*
X70748100Y-72711500D01*
X70748100Y-72711500D02*
X70853300Y-72711500D01*
X70853300Y-72711500D02*
X71408200Y-72156600D01*
X71408200Y-72156600D02*
X71408200Y-69505200D01*
X71408200Y-69505200D02*
X81442800Y-59470600D01*
X81442800Y-59470600D02*
X82106700Y-59470600D01*
X82106700Y-59470600D02*
X82276400Y-59300900D01*
X82276400Y-59300900D02*
X104064100Y-59300900D01*
X104064100Y-59300900D02*
X114470000Y-48895000D01*
G04 #@! TO.N,/MA7*
X70485000Y-84455000D02*
X71415900Y-83524100D01*
X71415900Y-83524100D02*
X71415900Y-78982300D01*
X71415900Y-78982300D02*
X70416200Y-77982600D01*
X70416200Y-77982600D02*
X70304600Y-77982600D01*
X70304600Y-77982600D02*
X67854100Y-75532100D01*
X67854100Y-75532100D02*
X67854100Y-66260900D01*
X67854100Y-66260900D02*
X68625800Y-65489200D01*
X68625800Y-65489200D02*
X68625800Y-57974800D01*
G04 #@! TO.N,/MA5*
X63362000Y-53461300D02*
X60088300Y-56735000D01*
X60088300Y-56735000D02*
X60088300Y-70213300D01*
G04 #@! TO.N,/MA6*
X70485000Y-81915000D02*
X66565800Y-77995800D01*
X66565800Y-77995800D02*
X66565800Y-58645900D01*
G04 #@! TO.N,/MA4*
X67977800Y-59261800D02*
X67476700Y-59762900D01*
X67476700Y-59762900D02*
X67476700Y-76366700D01*
X67476700Y-76366700D02*
X70485000Y-79375000D01*
G04 #@! TO.N,/MA3*
X62017300Y-73956100D02*
X62347400Y-73626000D01*
X62347400Y-73626000D02*
X62347400Y-58126600D01*
X62347400Y-58126600D02*
X61708800Y-57488000D01*
G04 #@! TO.N,/MA2*
X70485000Y-76835000D02*
X68193300Y-74543300D01*
X68193300Y-74543300D02*
X68193300Y-70396700D01*
X68193300Y-70396700D02*
X69239900Y-69350100D01*
X69239900Y-69350100D02*
X69239900Y-56561800D01*
X69239900Y-56561800D02*
X72318700Y-53483000D01*
G04 #@! TO.N,/MA1*
X61733300Y-70350200D02*
X61733300Y-58463300D01*
G04 #@! TO.N,Net-(J4-Pad9)*
X70485000Y-74295000D02*
X72085500Y-72694500D01*
X72085500Y-72694500D02*
X72085500Y-71311000D01*
X72085500Y-71311000D02*
X72565400Y-70831100D01*
X72565400Y-70831100D02*
X72776600Y-70831100D01*
X72776600Y-70831100D02*
X74609300Y-68998400D01*
X74609300Y-68998400D02*
X74609300Y-67504400D01*
X74609300Y-67504400D02*
X82473600Y-59640100D01*
X82473600Y-59640100D02*
X108804900Y-59640100D01*
X108804900Y-59640100D02*
X114470000Y-53975000D01*
X115570000Y-53975000D02*
X114470000Y-53975000D01*
G04 #@! TO.N,/~WE*
X44941900Y-95250000D02*
X44866500Y-95174600D01*
X44866500Y-95174600D02*
X44866500Y-80795600D01*
X44866500Y-80795600D02*
X45217700Y-80444400D01*
X45217700Y-80444400D02*
X45217700Y-79851500D01*
X53747100Y-69529800D02*
X53747100Y-69964200D01*
X53747100Y-69964200D02*
X50858600Y-72852700D01*
X50858600Y-72852700D02*
X49654400Y-72852700D01*
X49654400Y-72852700D02*
X45217700Y-77289400D01*
X45217700Y-77289400D02*
X45217700Y-79851500D01*
X70485000Y-71755000D02*
X70485000Y-69948700D01*
X70485000Y-69948700D02*
X81596100Y-58837600D01*
X81596100Y-58837600D02*
X81871100Y-58837600D01*
G04 #@! TO.N,/~OE*
X57770300Y-84917800D02*
X57770300Y-78783000D01*
X57770300Y-78783000D02*
X58830800Y-77722500D01*
X58830800Y-77722500D02*
X58830800Y-70226200D01*
X57770300Y-84917800D02*
X58127400Y-85274900D01*
X58127400Y-85274900D02*
X58127400Y-94892200D01*
X58127400Y-94892200D02*
X57944800Y-95074800D01*
G04 #@! TO.N,/~WAIT*
X80010000Y-120142000D02*
X80010000Y-118132000D01*
X80010000Y-118132000D02*
X79155500Y-117277500D01*
X79155500Y-117277500D02*
X79155500Y-113912400D01*
X79155500Y-113912400D02*
X84503800Y-108564100D01*
X84503800Y-108564100D02*
X84503800Y-99583300D01*
X84503800Y-99583300D02*
X85528500Y-98558600D01*
X85528500Y-98558600D02*
X85632600Y-98558600D01*
X85632600Y-98558600D02*
X86668400Y-97522800D01*
X86668400Y-97522800D02*
X86668400Y-85776200D01*
X86668400Y-85776200D02*
X82775300Y-81883100D01*
G04 #@! TO.N,/MA0*
X73454000Y-65309700D02*
X69778100Y-61633800D01*
X69778100Y-61633800D02*
X69778100Y-57489400D01*
X69778100Y-57489400D02*
X73838500Y-53429000D01*
G04 #@! TO.N,/CLK1*
X66040000Y-118237000D02*
X66040000Y-115917700D01*
X66040000Y-115917700D02*
X73956100Y-108001600D01*
X73956100Y-108001600D02*
X73956100Y-99953300D01*
X73956100Y-99953300D02*
X75148600Y-98760800D01*
X75148600Y-98760800D02*
X78354100Y-98760800D01*
X78354100Y-98760800D02*
X79376800Y-97738100D01*
X79376800Y-97738100D02*
X79376800Y-78103200D01*
X79376800Y-78103200D02*
X85725000Y-71755000D01*
G04 #@! TO.N,/~IOW*
X86673500Y-69215000D02*
X87622000Y-70163500D01*
X87622000Y-70163500D02*
X88029600Y-70163500D01*
X88029600Y-70163500D02*
X89225000Y-71358900D01*
X89225000Y-71358900D02*
X89225000Y-73804000D01*
X89225000Y-73804000D02*
X81606100Y-81422900D01*
X81606100Y-81422900D02*
X81606100Y-97573600D01*
X81606100Y-97573600D02*
X81112000Y-98067700D01*
X81112000Y-98067700D02*
X80981200Y-98067700D01*
X80981200Y-98067700D02*
X79732400Y-99316500D01*
X79732400Y-99316500D02*
X79732400Y-109469100D01*
X79732400Y-109469100D02*
X74930000Y-114271500D01*
X74930000Y-114271500D02*
X74930000Y-116332000D01*
X85725000Y-69215000D02*
X86673500Y-69215000D01*
G04 #@! TO.N,/D15*
X45792900Y-73877500D02*
X43310500Y-76359900D01*
X43310500Y-76359900D02*
X43310500Y-96885900D01*
X43310500Y-96885900D02*
X43649600Y-97225000D01*
X43649600Y-97225000D02*
X43649600Y-98218100D01*
X43649600Y-98218100D02*
X49837000Y-104405500D01*
X49837000Y-104405500D02*
X50095400Y-104405500D01*
G04 #@! TO.N,/D14*
X47931300Y-75486100D02*
X47931300Y-78895500D01*
X47931300Y-78895500D02*
X45544700Y-81282100D01*
X45544700Y-81282100D02*
X45544700Y-94014600D01*
X45544700Y-94014600D02*
X46031300Y-94501200D01*
X46031300Y-94501200D02*
X46031300Y-96411200D01*
X46031300Y-96411200D02*
X52018700Y-102398600D01*
G04 #@! TO.N,/D13*
X52213200Y-98743100D02*
X52213200Y-93486000D01*
X52213200Y-93486000D02*
X47241500Y-88514300D01*
X47241500Y-88514300D02*
X47241500Y-80474000D01*
G04 #@! TO.N,/D12*
X41617900Y-79607900D02*
X42583000Y-80573000D01*
X42583000Y-80573000D02*
X42583000Y-97691400D01*
X42583000Y-97691400D02*
X42601700Y-97710100D01*
G04 #@! TO.N,/D11*
X46296600Y-81809600D02*
X45883800Y-82222400D01*
X45883800Y-82222400D02*
X45883800Y-93874100D01*
X45883800Y-93874100D02*
X46370400Y-94360700D01*
X46370400Y-94360700D02*
X46370400Y-96144300D01*
X46370400Y-96144300D02*
X51021500Y-100795400D01*
X51021500Y-100795400D02*
X55566900Y-100795400D01*
X55566900Y-100795400D02*
X56306600Y-100055700D01*
G04 #@! TO.N,/D10*
X41626900Y-81785400D02*
X41987600Y-82146100D01*
X41987600Y-82146100D02*
X41987600Y-97964400D01*
X41987600Y-97964400D02*
X50131900Y-106108700D01*
X50131900Y-106108700D02*
X57410300Y-106108700D01*
X57410300Y-106108700D02*
X60266700Y-103252300D01*
G04 #@! TO.N,/D9*
X50959100Y-97204500D02*
X46497900Y-92743300D01*
X46497900Y-92743300D02*
X46497900Y-89814700D01*
G04 #@! TO.N,/D8*
X51579900Y-96005800D02*
X51579900Y-94574400D01*
X51579900Y-94574400D02*
X48621300Y-91615800D01*
X97790000Y-120142000D02*
X98345600Y-120142000D01*
X98345600Y-120142000D02*
X101153800Y-117333800D01*
X101153800Y-117333800D02*
X101153800Y-114975600D01*
G04 #@! TO.N,/D7*
X46697500Y-73473400D02*
X46483700Y-73259600D01*
X46483700Y-73259600D02*
X45542400Y-73259600D01*
X45542400Y-73259600D02*
X42928200Y-75873800D01*
X42928200Y-75873800D02*
X42928200Y-96983200D01*
X42928200Y-96983200D02*
X43215800Y-97270800D01*
X43215800Y-97270800D02*
X43215800Y-98394300D01*
X43215800Y-98394300D02*
X50270100Y-105448600D01*
X50270100Y-105448600D02*
X50789400Y-105448600D01*
X64657200Y-73230000D02*
X64657200Y-80335300D01*
X64657200Y-80335300D02*
X62787500Y-82205000D01*
X62787500Y-82205000D02*
X62787500Y-98738400D01*
X62787500Y-98738400D02*
X57637100Y-103888800D01*
X57637100Y-103888800D02*
X57264400Y-103888800D01*
X57264400Y-103888800D02*
X55514000Y-105639200D01*
X55514000Y-105639200D02*
X50980000Y-105639200D01*
X50980000Y-105639200D02*
X50789400Y-105448600D01*
X96520000Y-122047000D02*
X94715600Y-123851400D01*
X94715600Y-123851400D02*
X88966900Y-123851400D01*
G04 #@! TO.N,/D6*
X45468800Y-75298900D02*
X43685400Y-77082300D01*
X43685400Y-77082300D02*
X43685400Y-81637400D01*
X43685400Y-81637400D02*
X43988700Y-81940700D01*
X43988700Y-81940700D02*
X43988700Y-97874800D01*
X43988700Y-97874800D02*
X49630200Y-103516300D01*
X49630200Y-103516300D02*
X49842000Y-103516300D01*
X57402400Y-102741600D02*
X57402400Y-102791700D01*
X57402400Y-102791700D02*
X55608300Y-104585800D01*
X55608300Y-104585800D02*
X52052600Y-104585800D01*
X52052600Y-104585800D02*
X51515600Y-104048800D01*
X51515600Y-104048800D02*
X51093200Y-104048800D01*
X51093200Y-104048800D02*
X50560700Y-103516300D01*
X50560700Y-103516300D02*
X49842000Y-103516300D01*
X45468800Y-75298900D02*
X46143700Y-75298900D01*
X46143700Y-75298900D02*
X49605900Y-71836700D01*
X49605900Y-71836700D02*
X50766100Y-71836700D01*
X50766100Y-71836700D02*
X50766100Y-71836600D01*
G04 #@! TO.N,/D5*
X49456000Y-101600000D02*
X49456000Y-101568100D01*
X49456000Y-101568100D02*
X46333800Y-98445900D01*
X46333800Y-98445900D02*
X46255500Y-98445900D01*
X46255500Y-98445900D02*
X45556000Y-97746400D01*
X45556000Y-97746400D02*
X45556000Y-94505500D01*
X45556000Y-94505500D02*
X45205600Y-94155100D01*
X45205600Y-94155100D02*
X45205600Y-80936100D01*
X45205600Y-80936100D02*
X46446000Y-79695700D01*
X46446000Y-79695700D02*
X46446000Y-79512300D01*
G04 #@! TO.N,/D4*
X46079400Y-99060000D02*
X44327800Y-97308400D01*
X44327800Y-97308400D02*
X44327800Y-80486000D01*
X44327800Y-80486000D02*
X44317700Y-80475900D01*
X46079400Y-99060000D02*
X46079400Y-99146200D01*
X46079400Y-99146200D02*
X49778500Y-102845300D01*
X49778500Y-102845300D02*
X50369300Y-102845300D01*
X50369300Y-102845300D02*
X51233700Y-103709700D01*
X51233700Y-103709700D02*
X53595700Y-103709700D01*
X53595700Y-103709700D02*
X55193900Y-102111500D01*
X55193900Y-102111500D02*
X56138700Y-102111500D01*
X56138700Y-102111500D02*
X57632200Y-100618000D01*
X57632200Y-100618000D02*
X57632200Y-98949500D01*
X57632200Y-98949500D02*
X57496200Y-98813500D01*
X57496200Y-98813500D02*
X57496200Y-96391900D01*
X57496200Y-96391900D02*
X58558900Y-95329200D01*
X58558900Y-95329200D02*
X58558900Y-90136300D01*
X58558900Y-90136300D02*
X58466500Y-90043900D01*
X58466500Y-90043900D02*
X58466500Y-84292000D01*
X58466500Y-84292000D02*
X58308100Y-84133600D01*
X58308100Y-84133600D02*
X58308100Y-79118600D01*
X58308100Y-79118600D02*
X58445700Y-78981000D01*
G04 #@! TO.N,/D3*
X67649000Y-108689400D02*
X67649000Y-113256000D01*
X67649000Y-108689400D02*
X47618600Y-108689400D01*
X47618600Y-108689400D02*
X42832700Y-103903500D01*
X64101600Y-84861800D02*
X64101600Y-84995700D01*
X64101600Y-84995700D02*
X69963900Y-90858000D01*
X69963900Y-90858000D02*
X70631200Y-90858000D01*
X70631200Y-90858000D02*
X71424700Y-91651500D01*
X71424700Y-91651500D02*
X71424700Y-104913700D01*
X71424700Y-104913700D02*
X67649000Y-108689400D01*
G04 #@! TO.N,/D2*
X55477000Y-102725700D02*
X56004100Y-102725700D01*
X56004100Y-102725700D02*
X57971300Y-100758500D01*
X57971300Y-100758500D02*
X57971300Y-98809000D01*
X57971300Y-98809000D02*
X57835300Y-98673000D01*
X57835300Y-98673000D02*
X57835300Y-97601500D01*
X57835300Y-97601500D02*
X58899100Y-96537700D01*
X58899100Y-96537700D02*
X58899100Y-89996800D01*
X58899100Y-89996800D02*
X58817300Y-89915000D01*
X58817300Y-89915000D02*
X58817300Y-81822400D01*
X58817300Y-81822400D02*
X58961000Y-81678700D01*
G04 #@! TO.N,/MD0*
X54241500Y-58440100D02*
X54391900Y-58590500D01*
X54391900Y-58590500D02*
X54391900Y-69809000D01*
X54391900Y-69809000D02*
X50670200Y-73530700D01*
X50670200Y-73530700D02*
X49994800Y-73530700D01*
X49994800Y-73530700D02*
X49423700Y-74101800D01*
X49423700Y-74101800D02*
X49423700Y-87457400D01*
X49423700Y-87457400D02*
X52601300Y-90635000D01*
X59948400Y-52273700D02*
X59948400Y-52733200D01*
X59948400Y-52733200D02*
X54241500Y-58440100D01*
G04 #@! TO.N,/MD1*
X56408800Y-59817400D02*
X57070600Y-60479200D01*
X57070600Y-60479200D02*
X57070600Y-75053700D01*
X57070600Y-75053700D02*
X55474400Y-76649900D01*
X55474400Y-76649900D02*
X55474400Y-90956100D01*
X55474400Y-90956100D02*
X56724500Y-92206200D01*
X51316400Y-100181100D02*
X51466900Y-100331600D01*
X51466900Y-100331600D02*
X55345900Y-100331600D01*
X55345900Y-100331600D02*
X55692500Y-99985000D01*
X55692500Y-99985000D02*
X55692500Y-99591400D01*
X55692500Y-99591400D02*
X56178100Y-99105800D01*
X56178100Y-99105800D02*
X56178100Y-92752600D01*
X56178100Y-92752600D02*
X56724500Y-92206200D01*
G04 #@! TO.N,/MD2*
X58559300Y-60041000D02*
X59346500Y-59253800D01*
X59346500Y-59253800D02*
X59346500Y-56567600D01*
X59346500Y-56567600D02*
X65190500Y-50723600D01*
X65190500Y-50723600D02*
X65190500Y-50479900D01*
X56954300Y-81765900D02*
X56954300Y-79003400D01*
X56954300Y-79003400D02*
X58018100Y-77939600D01*
X58018100Y-77939600D02*
X58018100Y-60582200D01*
X58018100Y-60582200D02*
X58559300Y-60041000D01*
X50170700Y-102231200D02*
X50234800Y-102231200D01*
X50234800Y-102231200D02*
X51374200Y-103370600D01*
X51374200Y-103370600D02*
X52603900Y-103370600D01*
X52603900Y-103370600D02*
X54202100Y-101772400D01*
X54202100Y-101772400D02*
X55998200Y-101772400D01*
X55998200Y-101772400D02*
X57293100Y-100477500D01*
X57293100Y-100477500D02*
X57293100Y-99090000D01*
X57293100Y-99090000D02*
X57157100Y-98954000D01*
X57157100Y-98954000D02*
X57157100Y-93574900D01*
X57157100Y-93574900D02*
X57709400Y-93022600D01*
X57709400Y-93022600D02*
X57709400Y-91843100D01*
X57709400Y-91843100D02*
X56954300Y-91088000D01*
X56954300Y-91088000D02*
X56954300Y-81765900D01*
G04 #@! TO.N,/MD3*
X71229900Y-52355100D02*
X71505000Y-52080000D01*
X71505000Y-52080000D02*
X75530300Y-52080000D01*
X75530300Y-52080000D02*
X75805400Y-52355100D01*
X62964600Y-80674900D02*
X64043000Y-79596500D01*
X64043000Y-79596500D02*
X64043000Y-57880300D01*
X64043000Y-57880300D02*
X65505500Y-56417800D01*
X65505500Y-56417800D02*
X67167200Y-56417800D01*
X67167200Y-56417800D02*
X71229900Y-52355100D01*
X62964600Y-80674900D02*
X62368600Y-81270900D01*
X62368600Y-81270900D02*
X62368600Y-98677700D01*
X62368600Y-98677700D02*
X57496600Y-103549700D01*
X57496600Y-103549700D02*
X57123900Y-103549700D01*
X57123900Y-103549700D02*
X55648600Y-105025000D01*
X55648600Y-105025000D02*
X51623300Y-105025000D01*
G04 #@! TO.N,/MD4*
X56136400Y-78886400D02*
X56136400Y-90749700D01*
X56136400Y-90749700D02*
X57370300Y-91983600D01*
X57370300Y-91983600D02*
X57370300Y-92882100D01*
X57370300Y-92882100D02*
X56818000Y-93434400D01*
X56818000Y-93434400D02*
X56818000Y-99094500D01*
X56818000Y-99094500D02*
X56954000Y-99230500D01*
X56954000Y-99230500D02*
X56954000Y-100337000D01*
X56954000Y-100337000D02*
X55857700Y-101433300D01*
X55857700Y-101433300D02*
X53891900Y-101433300D01*
X53891900Y-101433300D02*
X52293700Y-103031500D01*
X52293700Y-103031500D02*
X51754500Y-103031500D01*
X51754500Y-103031500D02*
X50784900Y-102061900D01*
X50784900Y-102061900D02*
X50784900Y-101975700D01*
X50784900Y-101975700D02*
X46352100Y-97542900D01*
X46352100Y-97542900D02*
X46286600Y-97542900D01*
X64060300Y-50424800D02*
X64060300Y-51374100D01*
X64060300Y-51374100D02*
X58887600Y-56546800D01*
X58887600Y-56546800D02*
X58887600Y-58248600D01*
X58887600Y-58248600D02*
X57876000Y-59260200D01*
X57876000Y-59260200D02*
X57678900Y-59457300D01*
X57678900Y-59457300D02*
X57678900Y-77343900D01*
X57678900Y-77343900D02*
X56136400Y-78886400D01*
G04 #@! TO.N,/MD5*
X57210500Y-57484200D02*
X57210500Y-56165900D01*
X57210500Y-56165900D02*
X62177400Y-51199000D01*
X62177400Y-51199000D02*
X62177400Y-49813600D01*
X53560800Y-79818200D02*
X49763000Y-76020400D01*
X49763000Y-76020400D02*
X49763000Y-74282500D01*
X49763000Y-74282500D02*
X50175600Y-73869900D01*
X50175600Y-73869900D02*
X50866000Y-73869900D01*
X50866000Y-73869900D02*
X55121700Y-69614200D01*
X55121700Y-69614200D02*
X55121700Y-59573000D01*
X55121700Y-59573000D02*
X57210500Y-57484200D01*
X50608600Y-99503400D02*
X52321400Y-99503400D01*
X52321400Y-99503400D02*
X53560800Y-98264000D01*
X53560800Y-98264000D02*
X53560800Y-79818200D01*
G04 #@! TO.N,/MD6*
X50096700Y-68355100D02*
X50096700Y-61657100D01*
X50096700Y-61657100D02*
X57811900Y-53941900D01*
X57811900Y-53941900D02*
X58087400Y-53941900D01*
X58087400Y-53941900D02*
X58982600Y-53046700D01*
X58982600Y-53046700D02*
X58982600Y-52232100D01*
X52269500Y-70527900D02*
X50096700Y-68355100D01*
X50096700Y-68355100D02*
X49932000Y-68355100D01*
X49932000Y-68355100D02*
X39625700Y-78661400D01*
X39625700Y-78661400D02*
X39625700Y-102525600D01*
X39625700Y-102525600D02*
X39977600Y-102877500D01*
X58982600Y-52232100D02*
X58982600Y-51786400D01*
X58982600Y-51786400D02*
X60967100Y-49801900D01*
G04 #@! TO.N,/MD7*
X65834800Y-48535000D02*
X65485600Y-48185800D01*
X65485600Y-48185800D02*
X61714800Y-48185800D01*
X61714800Y-48185800D02*
X57797700Y-52102900D01*
X57797700Y-52102900D02*
X57797700Y-53327800D01*
X57797700Y-53327800D02*
X39261900Y-71863600D01*
X39261900Y-71863600D02*
X39261900Y-104234600D01*
X39261900Y-104234600D02*
X39956800Y-104929500D01*
X65834800Y-48535000D02*
X65834800Y-52300400D01*
X65834800Y-52300400D02*
X60779300Y-57355900D01*
X60779300Y-57355900D02*
X60779300Y-70779600D01*
X60779300Y-70779600D02*
X60602500Y-70956400D01*
G04 #@! TO.N,/MD8*
X67494100Y-58369400D02*
X68011700Y-57851800D01*
X68011700Y-57851800D02*
X68011700Y-56921400D01*
X68011700Y-56921400D02*
X72118200Y-52814900D01*
X72118200Y-52814900D02*
X74113500Y-52814900D01*
X74113500Y-52814900D02*
X74735600Y-53437000D01*
X74735600Y-53437000D02*
X87111000Y-53437000D01*
X67494100Y-58369400D02*
X67157900Y-58369400D01*
X67157900Y-58369400D02*
X66433400Y-57644900D01*
X66433400Y-57644900D02*
X65385900Y-57644900D01*
X65385900Y-57644900D02*
X65023600Y-58007200D01*
X65023600Y-58007200D02*
X65023600Y-69577600D01*
X65023600Y-69577600D02*
X65610400Y-70164400D01*
X65610400Y-70164400D02*
X65610400Y-82484600D01*
X65610400Y-82484600D02*
X63487500Y-84607500D01*
X63487500Y-84607500D02*
X63487500Y-91211300D01*
X63487500Y-91211300D02*
X63748400Y-91472200D01*
X63748400Y-91472200D02*
X63748400Y-98011900D01*
X63748400Y-98011900D02*
X64720400Y-98983900D01*
G04 #@! TO.N,/MD9*
X83816100Y-50141200D02*
X69007300Y-50141200D01*
X69007300Y-50141200D02*
X65690000Y-53458500D01*
X59443900Y-86774500D02*
X59575100Y-86643300D01*
X59575100Y-86643300D02*
X59575100Y-77266800D01*
X59575100Y-77266800D02*
X62686500Y-74155400D01*
X62686500Y-74155400D02*
X62686500Y-56462000D01*
X62686500Y-56462000D02*
X65690000Y-53458500D01*
X58449500Y-98194800D02*
X59443900Y-97200400D01*
X59443900Y-97200400D02*
X59443900Y-86774500D01*
G04 #@! TO.N,/MD10*
X67136200Y-57305800D02*
X67147600Y-57305800D01*
X67147600Y-57305800D02*
X71977600Y-52475800D01*
X71977600Y-52475800D02*
X75057700Y-52475800D01*
X75057700Y-52475800D02*
X75551100Y-52969200D01*
X75551100Y-52969200D02*
X76059800Y-52969200D01*
X76059800Y-52969200D02*
X76214100Y-52814900D01*
X76214100Y-52814900D02*
X87426800Y-52814900D01*
X87426800Y-52814900D02*
X88028300Y-53416400D01*
X88028300Y-53416400D02*
X88888000Y-53416400D01*
X67136200Y-57305800D02*
X65145700Y-57305800D01*
X65145700Y-57305800D02*
X64684500Y-57767000D01*
X64684500Y-57767000D02*
X64684500Y-69718100D01*
X64684500Y-69718100D02*
X65271300Y-70304900D01*
X65271300Y-70304900D02*
X65271300Y-80710300D01*
X65271300Y-80710300D02*
X64415300Y-81566300D01*
X67136200Y-57478800D02*
X67136200Y-57305800D01*
X57747500Y-104509600D02*
X63126700Y-99130400D01*
X63126700Y-99130400D02*
X63126700Y-82854900D01*
X63126700Y-82854900D02*
X64415300Y-81566300D01*
G04 #@! TO.N,/MD11*
X66820000Y-53464600D02*
X69277600Y-51007000D01*
X69277600Y-51007000D02*
X87871200Y-51007000D01*
X87871200Y-51007000D02*
X90325200Y-53461000D01*
X60195400Y-85789000D02*
X60195400Y-77126100D01*
X60195400Y-77126100D02*
X63025700Y-74295800D01*
X63025700Y-74295800D02*
X63025700Y-57258900D01*
X63025700Y-57258900D02*
X66820000Y-53464600D01*
X55336300Y-103971600D02*
X55336300Y-103873100D01*
X55336300Y-103873100D02*
X60195400Y-99014000D01*
X60195400Y-99014000D02*
X60195400Y-85789000D01*
G04 #@! TO.N,/MD12*
X68115000Y-53475400D02*
X70210500Y-51379900D01*
X70210500Y-51379900D02*
X86860200Y-51379900D01*
X86860200Y-51379900D02*
X88263600Y-52783300D01*
X60816300Y-79327300D02*
X60816300Y-78481300D01*
X60816300Y-78481300D02*
X63364800Y-75932800D01*
X63364800Y-75932800D02*
X63364800Y-57523200D01*
X63364800Y-57523200D02*
X65960000Y-54928000D01*
X65960000Y-54928000D02*
X66662400Y-54928000D01*
X66662400Y-54928000D02*
X68115000Y-53475400D01*
X60886400Y-97415200D02*
X60886400Y-79397400D01*
X60886400Y-79397400D02*
X60816300Y-79327300D01*
G04 #@! TO.N,/MD13*
X69010800Y-53465400D02*
X70735300Y-51740900D01*
X70735300Y-51740900D02*
X86349100Y-51740900D01*
X86349100Y-51740900D02*
X86770600Y-52162400D01*
X61589000Y-78816400D02*
X63703900Y-76701500D01*
X63703900Y-76701500D02*
X63703900Y-57735600D01*
X63703900Y-57735600D02*
X66002900Y-55436600D01*
X66002900Y-55436600D02*
X67039600Y-55436600D01*
X67039600Y-55436600D02*
X69010800Y-53465400D01*
X60411100Y-99766700D02*
X61589000Y-98588800D01*
X61589000Y-98588800D02*
X61589000Y-78816400D01*
G04 #@! TO.N,/MD14*
X61480800Y-53085000D02*
X63073800Y-51492000D01*
X63073800Y-51492000D02*
X63073800Y-49810600D01*
X63073800Y-49810600D02*
X64084500Y-48799900D01*
X55762600Y-70783200D02*
X55762600Y-59571300D01*
X55762600Y-59571300D02*
X56233600Y-59100300D01*
X56233600Y-59100300D02*
X56495400Y-59100300D01*
X56495400Y-59100300D02*
X58548500Y-57047200D01*
X58548500Y-57047200D02*
X58548500Y-56017300D01*
X58548500Y-56017300D02*
X61480800Y-53085000D01*
X54663100Y-75230500D02*
X50941000Y-75230500D01*
X55762600Y-70783200D02*
X55762600Y-74131000D01*
X55762600Y-74131000D02*
X54663100Y-75230500D01*
X54663100Y-75230500D02*
X54663100Y-97950500D01*
X54663100Y-97950500D02*
X55564000Y-98851400D01*
X55762600Y-70783200D02*
X56386500Y-70783200D01*
G04 #@! TO.N,/MD15*
X50381300Y-74541200D02*
X50690800Y-74231700D01*
X50690800Y-74231700D02*
X54074100Y-74231700D01*
X91858900Y-57678400D02*
X91097100Y-58440200D01*
X91097100Y-58440200D02*
X82342200Y-58440200D01*
X82342200Y-58440200D02*
X82125500Y-58223500D01*
X82125500Y-58223500D02*
X75070400Y-58223500D01*
X68807400Y-73882400D02*
X68807400Y-71146600D01*
X68807400Y-71146600D02*
X75070400Y-64883600D01*
X75070400Y-64883600D02*
X75070400Y-58223500D01*
X50381300Y-74541200D02*
X50294400Y-74628100D01*
X50294400Y-74628100D02*
X50294400Y-75452400D01*
X50294400Y-75452400D02*
X54207400Y-79365400D01*
X54207400Y-79365400D02*
X54207400Y-98843500D01*
X54207400Y-98843500D02*
X55078300Y-99714400D01*
X50377100Y-74537000D02*
X50381300Y-74541200D01*
X75070400Y-58223500D02*
X75070400Y-57689300D01*
G04 #@! TO.N,Net-(J3-Pad3)*
X115570000Y-100965000D02*
X115570000Y-88265000D01*
X115570000Y-88265000D02*
X117475000Y-86360000D01*
G04 #@! TD*
D22*
G04 #@! TO.N,GND*
G36*
X124265001Y-124265000D02*
X95376801Y-124265000D01*
X96350202Y-123291600D01*
X96767566Y-123291600D01*
X97225009Y-123102121D01*
X97575121Y-122752009D01*
X97764600Y-122294566D01*
X97764600Y-121929600D01*
X97815400Y-121929600D01*
X97815400Y-122294566D01*
X98004879Y-122752009D01*
X98354991Y-123102121D01*
X98812434Y-123291600D01*
X99307566Y-123291600D01*
X99765009Y-123102121D01*
X100115121Y-122752009D01*
X100304600Y-122294566D01*
X100304600Y-121799434D01*
X100133599Y-121386600D01*
X100526401Y-121386600D01*
X100355400Y-121799434D01*
X100355400Y-122294566D01*
X100544879Y-122752009D01*
X100894991Y-123102121D01*
X101352434Y-123291600D01*
X101847566Y-123291600D01*
X102305009Y-123102121D01*
X102655121Y-122752009D01*
X102844600Y-122294566D01*
X102844600Y-121799434D01*
X102673599Y-121386600D01*
X103066401Y-121386600D01*
X102895400Y-121799434D01*
X102895400Y-122294566D01*
X103084879Y-122752009D01*
X103434991Y-123102121D01*
X103892434Y-123291600D01*
X104387566Y-123291600D01*
X104845009Y-123102121D01*
X105195121Y-122752009D01*
X105384600Y-122294566D01*
X105384600Y-121799434D01*
X105213599Y-121386600D01*
X105606401Y-121386600D01*
X105435400Y-121799434D01*
X105435400Y-122294566D01*
X105624879Y-122752009D01*
X105974991Y-123102121D01*
X106432434Y-123291600D01*
X106927566Y-123291600D01*
X107385009Y-123102121D01*
X107735121Y-122752009D01*
X107924600Y-122294566D01*
X107924600Y-121799434D01*
X107753599Y-121386600D01*
X108146401Y-121386600D01*
X107975400Y-121799434D01*
X107975400Y-122294566D01*
X108164879Y-122752009D01*
X108514991Y-123102121D01*
X108972434Y-123291600D01*
X109467566Y-123291600D01*
X109925009Y-123102121D01*
X110275121Y-122752009D01*
X110464600Y-122294566D01*
X110464600Y-121799434D01*
X110293599Y-121386600D01*
X110686401Y-121386600D01*
X110515400Y-121799434D01*
X110515400Y-122294566D01*
X110704879Y-122752009D01*
X111054991Y-123102121D01*
X111512434Y-123291600D01*
X112007566Y-123291600D01*
X112465009Y-123102121D01*
X112815121Y-122752009D01*
X113004600Y-122294566D01*
X113004600Y-122230755D01*
X113673838Y-121561517D01*
X113758169Y-121505169D01*
X113981399Y-121171082D01*
X114036113Y-120896017D01*
X114085121Y-120847009D01*
X114274600Y-120389566D01*
X114274600Y-120325755D01*
X114761941Y-119838415D01*
X114846269Y-119782069D01*
X114902616Y-119697740D01*
X114902618Y-119697738D01*
X115047036Y-119481600D01*
X115069499Y-119447982D01*
X115128100Y-119153376D01*
X115128100Y-119153371D01*
X115147886Y-119053900D01*
X115128100Y-118954427D01*
X115128100Y-109817371D01*
X115147886Y-109717900D01*
X115128100Y-109618429D01*
X115128100Y-109618424D01*
X115069499Y-109323818D01*
X114948488Y-109142712D01*
X114902618Y-109074062D01*
X114902616Y-109074060D01*
X114846269Y-108989731D01*
X114761940Y-108933384D01*
X109589600Y-103761045D01*
X109589600Y-102452415D01*
X109640000Y-102462440D01*
X111340000Y-102462440D01*
X111587765Y-102413157D01*
X111797809Y-102272809D01*
X111938157Y-102062765D01*
X111947184Y-102017381D01*
X111959375Y-102035625D01*
X112450582Y-102363839D01*
X112883744Y-102450000D01*
X113176256Y-102450000D01*
X113609418Y-102363839D01*
X114100625Y-102035625D01*
X114300000Y-101737239D01*
X114499375Y-102035625D01*
X114990582Y-102363839D01*
X115423744Y-102450000D01*
X115716256Y-102450000D01*
X116149418Y-102363839D01*
X116640625Y-102035625D01*
X116968839Y-101544418D01*
X117084092Y-100965000D01*
X116968839Y-100385582D01*
X116640625Y-99894375D01*
X116330000Y-99686822D01*
X116330000Y-94987745D01*
X116646861Y-94987745D01*
X116720995Y-95233864D01*
X117258223Y-95426965D01*
X117828454Y-95399778D01*
X118229005Y-95233864D01*
X118303139Y-94987745D01*
X117475000Y-94159605D01*
X116646861Y-94987745D01*
X116330000Y-94987745D01*
X116330000Y-94766796D01*
X116467255Y-94808139D01*
X117295395Y-93980000D01*
X117654605Y-93980000D01*
X118482745Y-94808139D01*
X118728864Y-94734005D01*
X118921965Y-94196777D01*
X118894778Y-93626546D01*
X118728864Y-93225995D01*
X118482745Y-93151861D01*
X117654605Y-93980000D01*
X117295395Y-93980000D01*
X116467255Y-93151861D01*
X116330000Y-93193204D01*
X116330000Y-92972255D01*
X116646861Y-92972255D01*
X117475000Y-93800395D01*
X118303139Y-92972255D01*
X118229005Y-92726136D01*
X117691777Y-92533035D01*
X117121546Y-92560222D01*
X116720995Y-92726136D01*
X116646861Y-92972255D01*
X116330000Y-92972255D01*
X116330000Y-88579801D01*
X117136698Y-87773103D01*
X117189561Y-87795000D01*
X117760439Y-87795000D01*
X118287862Y-87576534D01*
X118691534Y-87172862D01*
X118910000Y-86645439D01*
X118910000Y-86074561D01*
X118691534Y-85547138D01*
X118287862Y-85143466D01*
X117760439Y-84925000D01*
X117189561Y-84925000D01*
X116662138Y-85143466D01*
X116258466Y-85547138D01*
X116040000Y-86074561D01*
X116040000Y-86645439D01*
X116061897Y-86698302D01*
X115085528Y-87674671D01*
X115022072Y-87717071D01*
X114979672Y-87780527D01*
X114979671Y-87780528D01*
X114960313Y-87809500D01*
X114854097Y-87968463D01*
X114813352Y-88173304D01*
X114795112Y-88265000D01*
X114810001Y-88339852D01*
X114810000Y-99686822D01*
X114499375Y-99894375D01*
X114300000Y-100192761D01*
X114100625Y-99894375D01*
X113790000Y-99686822D01*
X113790000Y-83228746D01*
X113804888Y-83153899D01*
X113790000Y-83079052D01*
X113790000Y-83079048D01*
X113745904Y-82857363D01*
X113577929Y-82605971D01*
X113514473Y-82563571D01*
X110235900Y-79284999D01*
X110235900Y-79118926D01*
X110078331Y-78738520D01*
X109787180Y-78447369D01*
X109406774Y-78289800D01*
X109335600Y-78289800D01*
X109335600Y-77647440D01*
X110655000Y-77647440D01*
X110902765Y-77598157D01*
X111112809Y-77457809D01*
X111253157Y-77247765D01*
X111261117Y-77207745D01*
X116646861Y-77207745D01*
X116720995Y-77453864D01*
X117258223Y-77646965D01*
X117828454Y-77619778D01*
X118229005Y-77453864D01*
X118303139Y-77207745D01*
X117475000Y-76379605D01*
X116646861Y-77207745D01*
X111261117Y-77207745D01*
X111302440Y-77000000D01*
X111302440Y-75983223D01*
X116028035Y-75983223D01*
X116055222Y-76553454D01*
X116221136Y-76954005D01*
X116467255Y-77028139D01*
X117295395Y-76200000D01*
X117654605Y-76200000D01*
X118482745Y-77028139D01*
X118728864Y-76954005D01*
X118921965Y-76416777D01*
X118894778Y-75846546D01*
X118728864Y-75445995D01*
X118482745Y-75371861D01*
X117654605Y-76200000D01*
X117295395Y-76200000D01*
X116467255Y-75371861D01*
X116221136Y-75445995D01*
X116028035Y-75983223D01*
X111302440Y-75983223D01*
X111302440Y-75400000D01*
X111261118Y-75192255D01*
X116646861Y-75192255D01*
X117475000Y-76020395D01*
X118303139Y-75192255D01*
X118229005Y-74946136D01*
X117691777Y-74753035D01*
X117121546Y-74780222D01*
X116720995Y-74946136D01*
X116646861Y-75192255D01*
X111261118Y-75192255D01*
X111253157Y-75152235D01*
X111112809Y-74942191D01*
X110902765Y-74801843D01*
X110655000Y-74752560D01*
X109335600Y-74752560D01*
X109335600Y-70527755D01*
X109848355Y-70015000D01*
X110140439Y-70015000D01*
X110667862Y-69796534D01*
X111071534Y-69392862D01*
X111290000Y-68865439D01*
X111290000Y-68294561D01*
X116040000Y-68294561D01*
X116040000Y-68865439D01*
X116258466Y-69392862D01*
X116662138Y-69796534D01*
X117189561Y-70015000D01*
X117760439Y-70015000D01*
X118287862Y-69796534D01*
X118691534Y-69392862D01*
X118910000Y-68865439D01*
X118910000Y-68294561D01*
X118691534Y-67767138D01*
X118287862Y-67363466D01*
X117760439Y-67145000D01*
X117189561Y-67145000D01*
X116662138Y-67363466D01*
X116258466Y-67767138D01*
X116040000Y-68294561D01*
X111290000Y-68294561D01*
X111071534Y-67767138D01*
X110667862Y-67363466D01*
X110140439Y-67145000D01*
X109569561Y-67145000D01*
X109042138Y-67363466D01*
X108638466Y-67767138D01*
X108420000Y-68294561D01*
X108420000Y-68586645D01*
X107681763Y-69324882D01*
X107597431Y-69381231D01*
X107541083Y-69465562D01*
X107541082Y-69465563D01*
X107487116Y-69546329D01*
X107374201Y-69715319D01*
X107315600Y-70009925D01*
X107315600Y-70009929D01*
X107295814Y-70109400D01*
X107315600Y-70208871D01*
X107315601Y-84731124D01*
X107295814Y-84830600D01*
X107315601Y-84930076D01*
X107342815Y-85066888D01*
X107374202Y-85224682D01*
X107541082Y-85474437D01*
X107541085Y-85474440D01*
X107597432Y-85558769D01*
X107681761Y-85615116D01*
X108420000Y-86353355D01*
X108420000Y-86366645D01*
X107935760Y-86850885D01*
X107851432Y-86907231D01*
X107795085Y-86991560D01*
X107795082Y-86991563D01*
X107628202Y-87241318D01*
X107549814Y-87635400D01*
X107569601Y-87734876D01*
X107569600Y-104079929D01*
X107549814Y-104179400D01*
X107569600Y-104278871D01*
X107569600Y-104278875D01*
X107628201Y-104573481D01*
X107685592Y-104659373D01*
X107734586Y-104732697D01*
X107851431Y-104907569D01*
X107935763Y-104963918D01*
X113108101Y-110136257D01*
X113108100Y-115080314D01*
X112707048Y-115104800D01*
X112390600Y-115235877D01*
X112339903Y-115462298D01*
X113030000Y-116152395D01*
X113044143Y-116138253D01*
X113108100Y-116202210D01*
X113108100Y-116461790D01*
X113044143Y-116525748D01*
X113030000Y-116511605D01*
X113015858Y-116525748D01*
X112836253Y-116346143D01*
X112850395Y-116332000D01*
X112160298Y-115641903D01*
X111933877Y-115692600D01*
X111772626Y-116160739D01*
X111802800Y-116654952D01*
X111933877Y-116971400D01*
X112160296Y-117022096D01*
X112133206Y-117049186D01*
X111931261Y-116979626D01*
X111437048Y-117009800D01*
X111373663Y-117036055D01*
X111359704Y-117022096D01*
X111586123Y-116971400D01*
X111747374Y-116503261D01*
X111717200Y-116009048D01*
X111586123Y-115692600D01*
X111359702Y-115641903D01*
X110669605Y-116332000D01*
X110683748Y-116346143D01*
X110504143Y-116525748D01*
X110490000Y-116511605D01*
X110475858Y-116525748D01*
X110296253Y-116346143D01*
X110310395Y-116332000D01*
X109620298Y-115641903D01*
X109393877Y-115692600D01*
X109232626Y-116160739D01*
X109262800Y-116654952D01*
X109393877Y-116971400D01*
X109620296Y-117022096D01*
X109593206Y-117049186D01*
X109391261Y-116979626D01*
X108897048Y-117009800D01*
X108833663Y-117036055D01*
X108819704Y-117022096D01*
X109046123Y-116971400D01*
X109207374Y-116503261D01*
X109177200Y-116009048D01*
X109046123Y-115692600D01*
X108819702Y-115641903D01*
X108129605Y-116332000D01*
X108143748Y-116346143D01*
X107964143Y-116525748D01*
X107950000Y-116511605D01*
X107935858Y-116525748D01*
X107756253Y-116346143D01*
X107770395Y-116332000D01*
X107080298Y-115641903D01*
X106853877Y-115692600D01*
X106692626Y-116160739D01*
X106722800Y-116654952D01*
X106853877Y-116971400D01*
X107080296Y-117022096D01*
X107056561Y-117045831D01*
X106927566Y-116992400D01*
X106483599Y-116992400D01*
X106654600Y-116579566D01*
X106654600Y-116084434D01*
X106465121Y-115626991D01*
X106300428Y-115462298D01*
X107259903Y-115462298D01*
X107950000Y-116152395D01*
X108640097Y-115462298D01*
X109799903Y-115462298D01*
X110490000Y-116152395D01*
X111180097Y-115462298D01*
X111129400Y-115235877D01*
X110661261Y-115074626D01*
X110167048Y-115104800D01*
X109850600Y-115235877D01*
X109799903Y-115462298D01*
X108640097Y-115462298D01*
X108589400Y-115235877D01*
X108121261Y-115074626D01*
X107627048Y-115104800D01*
X107310600Y-115235877D01*
X107259903Y-115462298D01*
X106300428Y-115462298D01*
X106170000Y-115331870D01*
X106170000Y-76274846D01*
X106184888Y-76199999D01*
X106170000Y-76125152D01*
X106170000Y-76125148D01*
X106125904Y-75903463D01*
X105957929Y-75652071D01*
X105894473Y-75609671D01*
X102298500Y-72013699D01*
X102298500Y-71489750D01*
X102095487Y-70999633D01*
X101795578Y-70699724D01*
X117154373Y-55340929D01*
X117217829Y-55298529D01*
X117285687Y-55196973D01*
X117753108Y-55416486D01*
X117983000Y-55295819D01*
X117983000Y-54102000D01*
X118237000Y-54102000D01*
X118237000Y-55295819D01*
X118466892Y-55416486D01*
X118991358Y-55170183D01*
X119381645Y-54741924D01*
X119551476Y-54331890D01*
X119430155Y-54102000D01*
X118237000Y-54102000D01*
X117983000Y-54102000D01*
X117963000Y-54102000D01*
X117963000Y-53848000D01*
X117983000Y-53848000D01*
X117983000Y-53828000D01*
X118237000Y-53828000D01*
X118237000Y-53848000D01*
X119430155Y-53848000D01*
X119551476Y-53618110D01*
X119381645Y-53208076D01*
X118991358Y-52779817D01*
X118861522Y-52718843D01*
X119180625Y-52505625D01*
X119508839Y-52014418D01*
X119624092Y-51435000D01*
X119508839Y-50855582D01*
X119180625Y-50364375D01*
X118882239Y-50165000D01*
X119180625Y-49965625D01*
X119508839Y-49474418D01*
X119624092Y-48895000D01*
X119508839Y-48315582D01*
X119180625Y-47824375D01*
X118882239Y-47625000D01*
X119180625Y-47425625D01*
X119508839Y-46934418D01*
X119624092Y-46355000D01*
X119508839Y-45775582D01*
X119180625Y-45284375D01*
X118861522Y-45071157D01*
X118991358Y-45010183D01*
X119381645Y-44581924D01*
X119551476Y-44171890D01*
X119430155Y-43942000D01*
X118237000Y-43942000D01*
X118237000Y-43962000D01*
X117983000Y-43962000D01*
X117983000Y-43942000D01*
X117963000Y-43942000D01*
X117963000Y-43688000D01*
X117983000Y-43688000D01*
X117983000Y-42494181D01*
X118237000Y-42494181D01*
X118237000Y-43688000D01*
X119430155Y-43688000D01*
X119551476Y-43458110D01*
X119381645Y-43048076D01*
X118991358Y-42619817D01*
X118466892Y-42373514D01*
X118237000Y-42494181D01*
X117983000Y-42494181D01*
X117753108Y-42373514D01*
X117228642Y-42619817D01*
X117039961Y-42826855D01*
X117018157Y-42717235D01*
X116877809Y-42507191D01*
X116667765Y-42366843D01*
X116420000Y-42317560D01*
X114720000Y-42317560D01*
X114472235Y-42366843D01*
X114262191Y-42507191D01*
X114121843Y-42717235D01*
X114072560Y-42965000D01*
X114072560Y-44665000D01*
X114121843Y-44912765D01*
X114262191Y-45122809D01*
X114472235Y-45263157D01*
X114517619Y-45272184D01*
X114499375Y-45284375D01*
X114171161Y-45775582D01*
X114055908Y-46355000D01*
X114171161Y-46934418D01*
X114499375Y-47425625D01*
X114797761Y-47625000D01*
X114499375Y-47824375D01*
X114275984Y-48158703D01*
X114173463Y-48179096D01*
X113922071Y-48347071D01*
X113879671Y-48410527D01*
X103749299Y-58540900D01*
X92460111Y-58540900D01*
X92736331Y-58264680D01*
X92893900Y-57884274D01*
X92893900Y-57472526D01*
X92736331Y-57092120D01*
X92445180Y-56800969D01*
X92064774Y-56643400D01*
X91653026Y-56643400D01*
X91272620Y-56800969D01*
X90981469Y-57092120D01*
X90823900Y-57472526D01*
X90823900Y-57638599D01*
X90782299Y-57680200D01*
X85274800Y-57680200D01*
X85274800Y-57616526D01*
X85117231Y-57236120D01*
X84826080Y-56944969D01*
X84445674Y-56787400D01*
X84279602Y-56787400D01*
X84082931Y-56590729D01*
X84040529Y-56527271D01*
X83789137Y-56359296D01*
X83567452Y-56315200D01*
X83567447Y-56315200D01*
X83492600Y-56300312D01*
X83417753Y-56315200D01*
X72027101Y-56315200D01*
X73878302Y-54464000D01*
X74044374Y-54464000D01*
X74424780Y-54306431D01*
X74555205Y-54176006D01*
X74660748Y-54197000D01*
X74660752Y-54197000D01*
X74735599Y-54211888D01*
X74810446Y-54197000D01*
X86407289Y-54197000D01*
X86524720Y-54314431D01*
X86905126Y-54472000D01*
X87316874Y-54472000D01*
X87697280Y-54314431D01*
X87854911Y-54156800D01*
X87953448Y-54176400D01*
X87953452Y-54176400D01*
X88028299Y-54191288D01*
X88103146Y-54176400D01*
X88184289Y-54176400D01*
X88301720Y-54293831D01*
X88682126Y-54451400D01*
X89093874Y-54451400D01*
X89474280Y-54293831D01*
X89584300Y-54183811D01*
X89738920Y-54338431D01*
X90119326Y-54496000D01*
X90531074Y-54496000D01*
X90911480Y-54338431D01*
X91202631Y-54047280D01*
X91326085Y-53749234D01*
X104910000Y-53749234D01*
X104910000Y-54200766D01*
X105082793Y-54617926D01*
X105402074Y-54937207D01*
X105819234Y-55110000D01*
X106270766Y-55110000D01*
X106687926Y-54937207D01*
X107007207Y-54617926D01*
X107180000Y-54200766D01*
X107180000Y-53749234D01*
X107007207Y-53332074D01*
X106687926Y-53012793D01*
X106270766Y-52840000D01*
X105819234Y-52840000D01*
X105402074Y-53012793D01*
X105082793Y-53332074D01*
X104910000Y-53749234D01*
X91326085Y-53749234D01*
X91360200Y-53666874D01*
X91360200Y-53255126D01*
X91202631Y-52874720D01*
X90911480Y-52583569D01*
X90531074Y-52426000D01*
X90365002Y-52426000D01*
X88461531Y-50522530D01*
X88419129Y-50459071D01*
X88167737Y-50291096D01*
X87946052Y-50247000D01*
X87946047Y-50247000D01*
X87871200Y-50232112D01*
X87796353Y-50247000D01*
X84851100Y-50247000D01*
X84851100Y-49935326D01*
X84693531Y-49554920D01*
X84402380Y-49263769D01*
X84021974Y-49106200D01*
X83610226Y-49106200D01*
X83229820Y-49263769D01*
X83112389Y-49381200D01*
X69082148Y-49381200D01*
X69007300Y-49366312D01*
X68932452Y-49381200D01*
X68932448Y-49381200D01*
X68775440Y-49412431D01*
X68710762Y-49425296D01*
X68590934Y-49505363D01*
X68459371Y-49593271D01*
X68416971Y-49656727D01*
X66594800Y-51478899D01*
X66594800Y-49238711D01*
X66712231Y-49121280D01*
X66869800Y-48740874D01*
X66869800Y-48329126D01*
X66712231Y-47948720D01*
X66421080Y-47657569D01*
X66040674Y-47500000D01*
X65827191Y-47500000D01*
X65782137Y-47469896D01*
X65560452Y-47425800D01*
X65560447Y-47425800D01*
X65485600Y-47410912D01*
X65410753Y-47425800D01*
X61789647Y-47425800D01*
X61714800Y-47410912D01*
X61639953Y-47425800D01*
X61639948Y-47425800D01*
X61418263Y-47469896D01*
X61166871Y-47637871D01*
X61124471Y-47701327D01*
X57313230Y-51512569D01*
X57249771Y-51554971D01*
X57081796Y-51806364D01*
X57037700Y-52028049D01*
X57037700Y-52028053D01*
X57022812Y-52102900D01*
X57037700Y-52177747D01*
X57037700Y-52624089D01*
X56920269Y-52741520D01*
X56762700Y-53121926D01*
X56762700Y-53287998D01*
X38777430Y-71273269D01*
X38713971Y-71315671D01*
X38545996Y-71567064D01*
X38501900Y-71788749D01*
X38501900Y-71788753D01*
X38487012Y-71863600D01*
X38501900Y-71938447D01*
X38501901Y-104159748D01*
X38487012Y-104234600D01*
X38545997Y-104531137D01*
X38651211Y-104688600D01*
X38713972Y-104782529D01*
X38777428Y-104824929D01*
X38921800Y-104969301D01*
X38921800Y-105135374D01*
X39079369Y-105515780D01*
X39370520Y-105806931D01*
X39750926Y-105964500D01*
X40162674Y-105964500D01*
X40543080Y-105806931D01*
X40634801Y-105715210D01*
X40634800Y-114576853D01*
X40619912Y-114651700D01*
X40634800Y-114726547D01*
X40634800Y-114726551D01*
X40678896Y-114948236D01*
X40846871Y-115199629D01*
X40910330Y-115242031D01*
X41075084Y-115406786D01*
X40854879Y-115626991D01*
X40665400Y-116084434D01*
X40665400Y-116579566D01*
X40836401Y-116992400D01*
X40443599Y-116992400D01*
X40614600Y-116579566D01*
X40614600Y-116084434D01*
X40425121Y-115626991D01*
X40075009Y-115276879D01*
X39617566Y-115087400D01*
X39553756Y-115087400D01*
X34665000Y-110198645D01*
X34665000Y-65881133D01*
X34725625Y-65840625D01*
X35053839Y-65349418D01*
X35098102Y-65126890D01*
X39198524Y-65126890D01*
X39368355Y-65536924D01*
X39758642Y-65965183D01*
X40283108Y-66211486D01*
X40513000Y-66090819D01*
X40513000Y-64897000D01*
X40767000Y-64897000D01*
X40767000Y-66090819D01*
X40996892Y-66211486D01*
X41521358Y-65965183D01*
X41911645Y-65536924D01*
X42081476Y-65126890D01*
X41960155Y-64897000D01*
X40767000Y-64897000D01*
X40513000Y-64897000D01*
X39319845Y-64897000D01*
X39198524Y-65126890D01*
X35098102Y-65126890D01*
X35169092Y-64770000D01*
X35053839Y-64190582D01*
X34725625Y-63699375D01*
X34707381Y-63687184D01*
X34752765Y-63678157D01*
X34962809Y-63537809D01*
X35103157Y-63327765D01*
X35152440Y-63080000D01*
X35152440Y-62515750D01*
X39155000Y-62515750D01*
X39155000Y-63206310D01*
X39251673Y-63439699D01*
X39430302Y-63618327D01*
X39639878Y-63705136D01*
X39368355Y-64003076D01*
X39198524Y-64413110D01*
X39319845Y-64643000D01*
X40513000Y-64643000D01*
X40513000Y-62357000D01*
X40767000Y-62357000D01*
X40767000Y-64643000D01*
X41960155Y-64643000D01*
X42081476Y-64413110D01*
X41911645Y-64003076D01*
X41640122Y-63705136D01*
X41849698Y-63618327D01*
X42028327Y-63439699D01*
X42125000Y-63206310D01*
X42125000Y-62515750D01*
X41966250Y-62357000D01*
X40767000Y-62357000D01*
X40513000Y-62357000D01*
X39313750Y-62357000D01*
X39155000Y-62515750D01*
X35152440Y-62515750D01*
X35152440Y-61380000D01*
X35127316Y-61253690D01*
X39155000Y-61253690D01*
X39155000Y-61944250D01*
X39313750Y-62103000D01*
X40513000Y-62103000D01*
X40513000Y-60903750D01*
X40767000Y-60903750D01*
X40767000Y-62103000D01*
X41966250Y-62103000D01*
X42125000Y-61944250D01*
X42125000Y-61253690D01*
X42028327Y-61020301D01*
X41849698Y-60841673D01*
X41616309Y-60745000D01*
X40925750Y-60745000D01*
X40767000Y-60903750D01*
X40513000Y-60903750D01*
X40354250Y-60745000D01*
X39663691Y-60745000D01*
X39430302Y-60841673D01*
X39251673Y-61020301D01*
X39155000Y-61253690D01*
X35127316Y-61253690D01*
X35103157Y-61132235D01*
X34962809Y-60922191D01*
X34752765Y-60781843D01*
X34505000Y-60732560D01*
X32805000Y-60732560D01*
X32557235Y-60781843D01*
X32347191Y-60922191D01*
X32206843Y-61132235D01*
X32157560Y-61380000D01*
X32157560Y-63080000D01*
X32206843Y-63327765D01*
X32347191Y-63537809D01*
X32557235Y-63678157D01*
X32602619Y-63687184D01*
X32584375Y-63699375D01*
X32256161Y-64190582D01*
X32140908Y-64770000D01*
X32256161Y-65349418D01*
X32584375Y-65840625D01*
X32645000Y-65881133D01*
X32645001Y-110517524D01*
X32625214Y-110617000D01*
X32645001Y-110716476D01*
X32658413Y-110783900D01*
X32703602Y-111011082D01*
X32870482Y-111260837D01*
X32870485Y-111260840D01*
X32926832Y-111345169D01*
X33011161Y-111401516D01*
X38125400Y-116515756D01*
X38125400Y-116579566D01*
X38296401Y-116992400D01*
X37852434Y-116992400D01*
X37394991Y-117181879D01*
X37044879Y-117531991D01*
X36855400Y-117989434D01*
X36855400Y-118484566D01*
X37044879Y-118942009D01*
X37394991Y-119292121D01*
X37852434Y-119481600D01*
X38347566Y-119481600D01*
X38476561Y-119428169D01*
X38500296Y-119451904D01*
X38273877Y-119502600D01*
X38112626Y-119970739D01*
X38142800Y-120464952D01*
X38273877Y-120781400D01*
X38500296Y-120832096D01*
X38473206Y-120859186D01*
X38271261Y-120789626D01*
X37777048Y-120819800D01*
X37460600Y-120950877D01*
X37409903Y-121177298D01*
X38100000Y-121867395D01*
X38114143Y-121853253D01*
X38293748Y-122032858D01*
X38279605Y-122047000D01*
X38969702Y-122737097D01*
X39196123Y-122686400D01*
X39357374Y-122218261D01*
X39327200Y-121724048D01*
X39196123Y-121407600D01*
X38969704Y-121356904D01*
X38996794Y-121329814D01*
X39198739Y-121399374D01*
X39692952Y-121369200D01*
X39756337Y-121342945D01*
X39770296Y-121356904D01*
X39543877Y-121407600D01*
X39382626Y-121875739D01*
X39412800Y-122369952D01*
X39543877Y-122686400D01*
X39770298Y-122737097D01*
X40460395Y-122047000D01*
X40446253Y-122032858D01*
X40625858Y-121853253D01*
X40640000Y-121867395D01*
X40654143Y-121853253D01*
X40833748Y-122032858D01*
X40819605Y-122047000D01*
X41509702Y-122737097D01*
X41736123Y-122686400D01*
X41897374Y-122218261D01*
X41867200Y-121724048D01*
X41736123Y-121407600D01*
X41509704Y-121356904D01*
X41536794Y-121329814D01*
X41738739Y-121399374D01*
X42232952Y-121369200D01*
X42296337Y-121342945D01*
X42310296Y-121356904D01*
X42083877Y-121407600D01*
X41922626Y-121875739D01*
X41952800Y-122369952D01*
X42083877Y-122686400D01*
X42310298Y-122737097D01*
X43000395Y-122047000D01*
X42986253Y-122032858D01*
X43165858Y-121853253D01*
X43180000Y-121867395D01*
X43194143Y-121853253D01*
X43373748Y-122032858D01*
X43359605Y-122047000D01*
X44049702Y-122737097D01*
X44145374Y-122715676D01*
X45694697Y-124265000D01*
X25735000Y-124265000D01*
X25735000Y-122916702D01*
X37409903Y-122916702D01*
X37460600Y-123143123D01*
X37928739Y-123304374D01*
X38422952Y-123274200D01*
X38739400Y-123143123D01*
X38790097Y-122916702D01*
X39949903Y-122916702D01*
X40000600Y-123143123D01*
X40468739Y-123304374D01*
X40962952Y-123274200D01*
X41279400Y-123143123D01*
X41330097Y-122916702D01*
X42489903Y-122916702D01*
X42540600Y-123143123D01*
X43008739Y-123304374D01*
X43502952Y-123274200D01*
X43819400Y-123143123D01*
X43870097Y-122916702D01*
X43180000Y-122226605D01*
X42489903Y-122916702D01*
X41330097Y-122916702D01*
X40640000Y-122226605D01*
X39949903Y-122916702D01*
X38790097Y-122916702D01*
X38100000Y-122226605D01*
X37409903Y-122916702D01*
X25735000Y-122916702D01*
X25735000Y-121875739D01*
X36842626Y-121875739D01*
X36872800Y-122369952D01*
X37003877Y-122686400D01*
X37230298Y-122737097D01*
X37920395Y-122047000D01*
X37230298Y-121356903D01*
X37003877Y-121407600D01*
X36842626Y-121875739D01*
X25735000Y-121875739D01*
X25735000Y-53749234D01*
X43020000Y-53749234D01*
X43020000Y-54200766D01*
X43192793Y-54617926D01*
X43512074Y-54937207D01*
X43929234Y-55110000D01*
X44380766Y-55110000D01*
X44797926Y-54937207D01*
X45117207Y-54617926D01*
X45290000Y-54200766D01*
X45290000Y-53749234D01*
X45117207Y-53332074D01*
X44797926Y-53012793D01*
X44380766Y-52840000D01*
X43929234Y-52840000D01*
X43512074Y-53012793D01*
X43192793Y-53332074D01*
X43020000Y-53749234D01*
X25735000Y-53749234D01*
X25735000Y-25735000D01*
X124265000Y-25735000D01*
X124265001Y-124265000D01*
X124265001Y-124265000D01*
G37*
X124265001Y-124265000D02*
X95376801Y-124265000D01*
X96350202Y-123291600D01*
X96767566Y-123291600D01*
X97225009Y-123102121D01*
X97575121Y-122752009D01*
X97764600Y-122294566D01*
X97764600Y-121929600D01*
X97815400Y-121929600D01*
X97815400Y-122294566D01*
X98004879Y-122752009D01*
X98354991Y-123102121D01*
X98812434Y-123291600D01*
X99307566Y-123291600D01*
X99765009Y-123102121D01*
X100115121Y-122752009D01*
X100304600Y-122294566D01*
X100304600Y-121799434D01*
X100133599Y-121386600D01*
X100526401Y-121386600D01*
X100355400Y-121799434D01*
X100355400Y-122294566D01*
X100544879Y-122752009D01*
X100894991Y-123102121D01*
X101352434Y-123291600D01*
X101847566Y-123291600D01*
X102305009Y-123102121D01*
X102655121Y-122752009D01*
X102844600Y-122294566D01*
X102844600Y-121799434D01*
X102673599Y-121386600D01*
X103066401Y-121386600D01*
X102895400Y-121799434D01*
X102895400Y-122294566D01*
X103084879Y-122752009D01*
X103434991Y-123102121D01*
X103892434Y-123291600D01*
X104387566Y-123291600D01*
X104845009Y-123102121D01*
X105195121Y-122752009D01*
X105384600Y-122294566D01*
X105384600Y-121799434D01*
X105213599Y-121386600D01*
X105606401Y-121386600D01*
X105435400Y-121799434D01*
X105435400Y-122294566D01*
X105624879Y-122752009D01*
X105974991Y-123102121D01*
X106432434Y-123291600D01*
X106927566Y-123291600D01*
X107385009Y-123102121D01*
X107735121Y-122752009D01*
X107924600Y-122294566D01*
X107924600Y-121799434D01*
X107753599Y-121386600D01*
X108146401Y-121386600D01*
X107975400Y-121799434D01*
X107975400Y-122294566D01*
X108164879Y-122752009D01*
X108514991Y-123102121D01*
X108972434Y-123291600D01*
X109467566Y-123291600D01*
X109925009Y-123102121D01*
X110275121Y-122752009D01*
X110464600Y-122294566D01*
X110464600Y-121799434D01*
X110293599Y-121386600D01*
X110686401Y-121386600D01*
X110515400Y-121799434D01*
X110515400Y-122294566D01*
X110704879Y-122752009D01*
X111054991Y-123102121D01*
X111512434Y-123291600D01*
X112007566Y-123291600D01*
X112465009Y-123102121D01*
X112815121Y-122752009D01*
X113004600Y-122294566D01*
X113004600Y-122230755D01*
X113673838Y-121561517D01*
X113758169Y-121505169D01*
X113981399Y-121171082D01*
X114036113Y-120896017D01*
X114085121Y-120847009D01*
X114274600Y-120389566D01*
X114274600Y-120325755D01*
X114761941Y-119838415D01*
X114846269Y-119782069D01*
X114902616Y-119697740D01*
X114902618Y-119697738D01*
X115047036Y-119481600D01*
X115069499Y-119447982D01*
X115128100Y-119153376D01*
X115128100Y-119153371D01*
X115147886Y-119053900D01*
X115128100Y-118954427D01*
X115128100Y-109817371D01*
X115147886Y-109717900D01*
X115128100Y-109618429D01*
X115128100Y-109618424D01*
X115069499Y-109323818D01*
X114948488Y-109142712D01*
X114902618Y-109074062D01*
X114902616Y-109074060D01*
X114846269Y-108989731D01*
X114761940Y-108933384D01*
X109589600Y-103761045D01*
X109589600Y-102452415D01*
X109640000Y-102462440D01*
X111340000Y-102462440D01*
X111587765Y-102413157D01*
X111797809Y-102272809D01*
X111938157Y-102062765D01*
X111947184Y-102017381D01*
X111959375Y-102035625D01*
X112450582Y-102363839D01*
X112883744Y-102450000D01*
X113176256Y-102450000D01*
X113609418Y-102363839D01*
X114100625Y-102035625D01*
X114300000Y-101737239D01*
X114499375Y-102035625D01*
X114990582Y-102363839D01*
X115423744Y-102450000D01*
X115716256Y-102450000D01*
X116149418Y-102363839D01*
X116640625Y-102035625D01*
X116968839Y-101544418D01*
X117084092Y-100965000D01*
X116968839Y-100385582D01*
X116640625Y-99894375D01*
X116330000Y-99686822D01*
X116330000Y-94987745D01*
X116646861Y-94987745D01*
X116720995Y-95233864D01*
X117258223Y-95426965D01*
X117828454Y-95399778D01*
X118229005Y-95233864D01*
X118303139Y-94987745D01*
X117475000Y-94159605D01*
X116646861Y-94987745D01*
X116330000Y-94987745D01*
X116330000Y-94766796D01*
X116467255Y-94808139D01*
X117295395Y-93980000D01*
X117654605Y-93980000D01*
X118482745Y-94808139D01*
X118728864Y-94734005D01*
X118921965Y-94196777D01*
X118894778Y-93626546D01*
X118728864Y-93225995D01*
X118482745Y-93151861D01*
X117654605Y-93980000D01*
X117295395Y-93980000D01*
X116467255Y-93151861D01*
X116330000Y-93193204D01*
X116330000Y-92972255D01*
X116646861Y-92972255D01*
X117475000Y-93800395D01*
X118303139Y-92972255D01*
X118229005Y-92726136D01*
X117691777Y-92533035D01*
X117121546Y-92560222D01*
X116720995Y-92726136D01*
X116646861Y-92972255D01*
X116330000Y-92972255D01*
X116330000Y-88579801D01*
X117136698Y-87773103D01*
X117189561Y-87795000D01*
X117760439Y-87795000D01*
X118287862Y-87576534D01*
X118691534Y-87172862D01*
X118910000Y-86645439D01*
X118910000Y-86074561D01*
X118691534Y-85547138D01*
X118287862Y-85143466D01*
X117760439Y-84925000D01*
X117189561Y-84925000D01*
X116662138Y-85143466D01*
X116258466Y-85547138D01*
X116040000Y-86074561D01*
X116040000Y-86645439D01*
X116061897Y-86698302D01*
X115085528Y-87674671D01*
X115022072Y-87717071D01*
X114979672Y-87780527D01*
X114979671Y-87780528D01*
X114960313Y-87809500D01*
X114854097Y-87968463D01*
X114813352Y-88173304D01*
X114795112Y-88265000D01*
X114810001Y-88339852D01*
X114810000Y-99686822D01*
X114499375Y-99894375D01*
X114300000Y-100192761D01*
X114100625Y-99894375D01*
X113790000Y-99686822D01*
X113790000Y-83228746D01*
X113804888Y-83153899D01*
X113790000Y-83079052D01*
X113790000Y-83079048D01*
X113745904Y-82857363D01*
X113577929Y-82605971D01*
X113514473Y-82563571D01*
X110235900Y-79284999D01*
X110235900Y-79118926D01*
X110078331Y-78738520D01*
X109787180Y-78447369D01*
X109406774Y-78289800D01*
X109335600Y-78289800D01*
X109335600Y-77647440D01*
X110655000Y-77647440D01*
X110902765Y-77598157D01*
X111112809Y-77457809D01*
X111253157Y-77247765D01*
X111261117Y-77207745D01*
X116646861Y-77207745D01*
X116720995Y-77453864D01*
X117258223Y-77646965D01*
X117828454Y-77619778D01*
X118229005Y-77453864D01*
X118303139Y-77207745D01*
X117475000Y-76379605D01*
X116646861Y-77207745D01*
X111261117Y-77207745D01*
X111302440Y-77000000D01*
X111302440Y-75983223D01*
X116028035Y-75983223D01*
X116055222Y-76553454D01*
X116221136Y-76954005D01*
X116467255Y-77028139D01*
X117295395Y-76200000D01*
X117654605Y-76200000D01*
X118482745Y-77028139D01*
X118728864Y-76954005D01*
X118921965Y-76416777D01*
X118894778Y-75846546D01*
X118728864Y-75445995D01*
X118482745Y-75371861D01*
X117654605Y-76200000D01*
X117295395Y-76200000D01*
X116467255Y-75371861D01*
X116221136Y-75445995D01*
X116028035Y-75983223D01*
X111302440Y-75983223D01*
X111302440Y-75400000D01*
X111261118Y-75192255D01*
X116646861Y-75192255D01*
X117475000Y-76020395D01*
X118303139Y-75192255D01*
X118229005Y-74946136D01*
X117691777Y-74753035D01*
X117121546Y-74780222D01*
X116720995Y-74946136D01*
X116646861Y-75192255D01*
X111261118Y-75192255D01*
X111253157Y-75152235D01*
X111112809Y-74942191D01*
X110902765Y-74801843D01*
X110655000Y-74752560D01*
X109335600Y-74752560D01*
X109335600Y-70527755D01*
X109848355Y-70015000D01*
X110140439Y-70015000D01*
X110667862Y-69796534D01*
X111071534Y-69392862D01*
X111290000Y-68865439D01*
X111290000Y-68294561D01*
X116040000Y-68294561D01*
X116040000Y-68865439D01*
X116258466Y-69392862D01*
X116662138Y-69796534D01*
X117189561Y-70015000D01*
X117760439Y-70015000D01*
X118287862Y-69796534D01*
X118691534Y-69392862D01*
X118910000Y-68865439D01*
X118910000Y-68294561D01*
X118691534Y-67767138D01*
X118287862Y-67363466D01*
X117760439Y-67145000D01*
X117189561Y-67145000D01*
X116662138Y-67363466D01*
X116258466Y-67767138D01*
X116040000Y-68294561D01*
X111290000Y-68294561D01*
X111071534Y-67767138D01*
X110667862Y-67363466D01*
X110140439Y-67145000D01*
X109569561Y-67145000D01*
X109042138Y-67363466D01*
X108638466Y-67767138D01*
X108420000Y-68294561D01*
X108420000Y-68586645D01*
X107681763Y-69324882D01*
X107597431Y-69381231D01*
X107541083Y-69465562D01*
X107541082Y-69465563D01*
X107487116Y-69546329D01*
X107374201Y-69715319D01*
X107315600Y-70009925D01*
X107315600Y-70009929D01*
X107295814Y-70109400D01*
X107315600Y-70208871D01*
X107315601Y-84731124D01*
X107295814Y-84830600D01*
X107315601Y-84930076D01*
X107342815Y-85066888D01*
X107374202Y-85224682D01*
X107541082Y-85474437D01*
X107541085Y-85474440D01*
X107597432Y-85558769D01*
X107681761Y-85615116D01*
X108420000Y-86353355D01*
X108420000Y-86366645D01*
X107935760Y-86850885D01*
X107851432Y-86907231D01*
X107795085Y-86991560D01*
X107795082Y-86991563D01*
X107628202Y-87241318D01*
X107549814Y-87635400D01*
X107569601Y-87734876D01*
X107569600Y-104079929D01*
X107549814Y-104179400D01*
X107569600Y-104278871D01*
X107569600Y-104278875D01*
X107628201Y-104573481D01*
X107685592Y-104659373D01*
X107734586Y-104732697D01*
X107851431Y-104907569D01*
X107935763Y-104963918D01*
X113108101Y-110136257D01*
X113108100Y-115080314D01*
X112707048Y-115104800D01*
X112390600Y-115235877D01*
X112339903Y-115462298D01*
X113030000Y-116152395D01*
X113044143Y-116138253D01*
X113108100Y-116202210D01*
X113108100Y-116461790D01*
X113044143Y-116525748D01*
X113030000Y-116511605D01*
X113015858Y-116525748D01*
X112836253Y-116346143D01*
X112850395Y-116332000D01*
X112160298Y-115641903D01*
X111933877Y-115692600D01*
X111772626Y-116160739D01*
X111802800Y-116654952D01*
X111933877Y-116971400D01*
X112160296Y-117022096D01*
X112133206Y-117049186D01*
X111931261Y-116979626D01*
X111437048Y-117009800D01*
X111373663Y-117036055D01*
X111359704Y-117022096D01*
X111586123Y-116971400D01*
X111747374Y-116503261D01*
X111717200Y-116009048D01*
X111586123Y-115692600D01*
X111359702Y-115641903D01*
X110669605Y-116332000D01*
X110683748Y-116346143D01*
X110504143Y-116525748D01*
X110490000Y-116511605D01*
X110475858Y-116525748D01*
X110296253Y-116346143D01*
X110310395Y-116332000D01*
X109620298Y-115641903D01*
X109393877Y-115692600D01*
X109232626Y-116160739D01*
X109262800Y-116654952D01*
X109393877Y-116971400D01*
X109620296Y-117022096D01*
X109593206Y-117049186D01*
X109391261Y-116979626D01*
X108897048Y-117009800D01*
X108833663Y-117036055D01*
X108819704Y-117022096D01*
X109046123Y-116971400D01*
X109207374Y-116503261D01*
X109177200Y-116009048D01*
X109046123Y-115692600D01*
X108819702Y-115641903D01*
X108129605Y-116332000D01*
X108143748Y-116346143D01*
X107964143Y-116525748D01*
X107950000Y-116511605D01*
X107935858Y-116525748D01*
X107756253Y-116346143D01*
X107770395Y-116332000D01*
X107080298Y-115641903D01*
X106853877Y-115692600D01*
X106692626Y-116160739D01*
X106722800Y-116654952D01*
X106853877Y-116971400D01*
X107080296Y-117022096D01*
X107056561Y-117045831D01*
X106927566Y-116992400D01*
X106483599Y-116992400D01*
X106654600Y-116579566D01*
X106654600Y-116084434D01*
X106465121Y-115626991D01*
X106300428Y-115462298D01*
X107259903Y-115462298D01*
X107950000Y-116152395D01*
X108640097Y-115462298D01*
X109799903Y-115462298D01*
X110490000Y-116152395D01*
X111180097Y-115462298D01*
X111129400Y-115235877D01*
X110661261Y-115074626D01*
X110167048Y-115104800D01*
X109850600Y-115235877D01*
X109799903Y-115462298D01*
X108640097Y-115462298D01*
X108589400Y-115235877D01*
X108121261Y-115074626D01*
X107627048Y-115104800D01*
X107310600Y-115235877D01*
X107259903Y-115462298D01*
X106300428Y-115462298D01*
X106170000Y-115331870D01*
X106170000Y-76274846D01*
X106184888Y-76199999D01*
X106170000Y-76125152D01*
X106170000Y-76125148D01*
X106125904Y-75903463D01*
X105957929Y-75652071D01*
X105894473Y-75609671D01*
X102298500Y-72013699D01*
X102298500Y-71489750D01*
X102095487Y-70999633D01*
X101795578Y-70699724D01*
X117154373Y-55340929D01*
X117217829Y-55298529D01*
X117285687Y-55196973D01*
X117753108Y-55416486D01*
X117983000Y-55295819D01*
X117983000Y-54102000D01*
X118237000Y-54102000D01*
X118237000Y-55295819D01*
X118466892Y-55416486D01*
X118991358Y-55170183D01*
X119381645Y-54741924D01*
X119551476Y-54331890D01*
X119430155Y-54102000D01*
X118237000Y-54102000D01*
X117983000Y-54102000D01*
X117963000Y-54102000D01*
X117963000Y-53848000D01*
X117983000Y-53848000D01*
X117983000Y-53828000D01*
X118237000Y-53828000D01*
X118237000Y-53848000D01*
X119430155Y-53848000D01*
X119551476Y-53618110D01*
X119381645Y-53208076D01*
X118991358Y-52779817D01*
X118861522Y-52718843D01*
X119180625Y-52505625D01*
X119508839Y-52014418D01*
X119624092Y-51435000D01*
X119508839Y-50855582D01*
X119180625Y-50364375D01*
X118882239Y-50165000D01*
X119180625Y-49965625D01*
X119508839Y-49474418D01*
X119624092Y-48895000D01*
X119508839Y-48315582D01*
X119180625Y-47824375D01*
X118882239Y-47625000D01*
X119180625Y-47425625D01*
X119508839Y-46934418D01*
X119624092Y-46355000D01*
X119508839Y-45775582D01*
X119180625Y-45284375D01*
X118861522Y-45071157D01*
X118991358Y-45010183D01*
X119381645Y-44581924D01*
X119551476Y-44171890D01*
X119430155Y-43942000D01*
X118237000Y-43942000D01*
X118237000Y-43962000D01*
X117983000Y-43962000D01*
X117983000Y-43942000D01*
X117963000Y-43942000D01*
X117963000Y-43688000D01*
X117983000Y-43688000D01*
X117983000Y-42494181D01*
X118237000Y-42494181D01*
X118237000Y-43688000D01*
X119430155Y-43688000D01*
X119551476Y-43458110D01*
X119381645Y-43048076D01*
X118991358Y-42619817D01*
X118466892Y-42373514D01*
X118237000Y-42494181D01*
X117983000Y-42494181D01*
X117753108Y-42373514D01*
X117228642Y-42619817D01*
X117039961Y-42826855D01*
X117018157Y-42717235D01*
X116877809Y-42507191D01*
X116667765Y-42366843D01*
X116420000Y-42317560D01*
X114720000Y-42317560D01*
X114472235Y-42366843D01*
X114262191Y-42507191D01*
X114121843Y-42717235D01*
X114072560Y-42965000D01*
X114072560Y-44665000D01*
X114121843Y-44912765D01*
X114262191Y-45122809D01*
X114472235Y-45263157D01*
X114517619Y-45272184D01*
X114499375Y-45284375D01*
X114171161Y-45775582D01*
X114055908Y-46355000D01*
X114171161Y-46934418D01*
X114499375Y-47425625D01*
X114797761Y-47625000D01*
X114499375Y-47824375D01*
X114275984Y-48158703D01*
X114173463Y-48179096D01*
X113922071Y-48347071D01*
X113879671Y-48410527D01*
X103749299Y-58540900D01*
X92460111Y-58540900D01*
X92736331Y-58264680D01*
X92893900Y-57884274D01*
X92893900Y-57472526D01*
X92736331Y-57092120D01*
X92445180Y-56800969D01*
X92064774Y-56643400D01*
X91653026Y-56643400D01*
X91272620Y-56800969D01*
X90981469Y-57092120D01*
X90823900Y-57472526D01*
X90823900Y-57638599D01*
X90782299Y-57680200D01*
X85274800Y-57680200D01*
X85274800Y-57616526D01*
X85117231Y-57236120D01*
X84826080Y-56944969D01*
X84445674Y-56787400D01*
X84279602Y-56787400D01*
X84082931Y-56590729D01*
X84040529Y-56527271D01*
X83789137Y-56359296D01*
X83567452Y-56315200D01*
X83567447Y-56315200D01*
X83492600Y-56300312D01*
X83417753Y-56315200D01*
X72027101Y-56315200D01*
X73878302Y-54464000D01*
X74044374Y-54464000D01*
X74424780Y-54306431D01*
X74555205Y-54176006D01*
X74660748Y-54197000D01*
X74660752Y-54197000D01*
X74735599Y-54211888D01*
X74810446Y-54197000D01*
X86407289Y-54197000D01*
X86524720Y-54314431D01*
X86905126Y-54472000D01*
X87316874Y-54472000D01*
X87697280Y-54314431D01*
X87854911Y-54156800D01*
X87953448Y-54176400D01*
X87953452Y-54176400D01*
X88028299Y-54191288D01*
X88103146Y-54176400D01*
X88184289Y-54176400D01*
X88301720Y-54293831D01*
X88682126Y-54451400D01*
X89093874Y-54451400D01*
X89474280Y-54293831D01*
X89584300Y-54183811D01*
X89738920Y-54338431D01*
X90119326Y-54496000D01*
X90531074Y-54496000D01*
X90911480Y-54338431D01*
X91202631Y-54047280D01*
X91326085Y-53749234D01*
X104910000Y-53749234D01*
X104910000Y-54200766D01*
X105082793Y-54617926D01*
X105402074Y-54937207D01*
X105819234Y-55110000D01*
X106270766Y-55110000D01*
X106687926Y-54937207D01*
X107007207Y-54617926D01*
X107180000Y-54200766D01*
X107180000Y-53749234D01*
X107007207Y-53332074D01*
X106687926Y-53012793D01*
X106270766Y-52840000D01*
X105819234Y-52840000D01*
X105402074Y-53012793D01*
X105082793Y-53332074D01*
X104910000Y-53749234D01*
X91326085Y-53749234D01*
X91360200Y-53666874D01*
X91360200Y-53255126D01*
X91202631Y-52874720D01*
X90911480Y-52583569D01*
X90531074Y-52426000D01*
X90365002Y-52426000D01*
X88461531Y-50522530D01*
X88419129Y-50459071D01*
X88167737Y-50291096D01*
X87946052Y-50247000D01*
X87946047Y-50247000D01*
X87871200Y-50232112D01*
X87796353Y-50247000D01*
X84851100Y-50247000D01*
X84851100Y-49935326D01*
X84693531Y-49554920D01*
X84402380Y-49263769D01*
X84021974Y-49106200D01*
X83610226Y-49106200D01*
X83229820Y-49263769D01*
X83112389Y-49381200D01*
X69082148Y-49381200D01*
X69007300Y-49366312D01*
X68932452Y-49381200D01*
X68932448Y-49381200D01*
X68775440Y-49412431D01*
X68710762Y-49425296D01*
X68590934Y-49505363D01*
X68459371Y-49593271D01*
X68416971Y-49656727D01*
X66594800Y-51478899D01*
X66594800Y-49238711D01*
X66712231Y-49121280D01*
X66869800Y-48740874D01*
X66869800Y-48329126D01*
X66712231Y-47948720D01*
X66421080Y-47657569D01*
X66040674Y-47500000D01*
X65827191Y-47500000D01*
X65782137Y-47469896D01*
X65560452Y-47425800D01*
X65560447Y-47425800D01*
X65485600Y-47410912D01*
X65410753Y-47425800D01*
X61789647Y-47425800D01*
X61714800Y-47410912D01*
X61639953Y-47425800D01*
X61639948Y-47425800D01*
X61418263Y-47469896D01*
X61166871Y-47637871D01*
X61124471Y-47701327D01*
X57313230Y-51512569D01*
X57249771Y-51554971D01*
X57081796Y-51806364D01*
X57037700Y-52028049D01*
X57037700Y-52028053D01*
X57022812Y-52102900D01*
X57037700Y-52177747D01*
X57037700Y-52624089D01*
X56920269Y-52741520D01*
X56762700Y-53121926D01*
X56762700Y-53287998D01*
X38777430Y-71273269D01*
X38713971Y-71315671D01*
X38545996Y-71567064D01*
X38501900Y-71788749D01*
X38501900Y-71788753D01*
X38487012Y-71863600D01*
X38501900Y-71938447D01*
X38501901Y-104159748D01*
X38487012Y-104234600D01*
X38545997Y-104531137D01*
X38651211Y-104688600D01*
X38713972Y-104782529D01*
X38777428Y-104824929D01*
X38921800Y-104969301D01*
X38921800Y-105135374D01*
X39079369Y-105515780D01*
X39370520Y-105806931D01*
X39750926Y-105964500D01*
X40162674Y-105964500D01*
X40543080Y-105806931D01*
X40634801Y-105715210D01*
X40634800Y-114576853D01*
X40619912Y-114651700D01*
X40634800Y-114726547D01*
X40634800Y-114726551D01*
X40678896Y-114948236D01*
X40846871Y-115199629D01*
X40910330Y-115242031D01*
X41075084Y-115406786D01*
X40854879Y-115626991D01*
X40665400Y-116084434D01*
X40665400Y-116579566D01*
X40836401Y-116992400D01*
X40443599Y-116992400D01*
X40614600Y-116579566D01*
X40614600Y-116084434D01*
X40425121Y-115626991D01*
X40075009Y-115276879D01*
X39617566Y-115087400D01*
X39553756Y-115087400D01*
X34665000Y-110198645D01*
X34665000Y-65881133D01*
X34725625Y-65840625D01*
X35053839Y-65349418D01*
X35098102Y-65126890D01*
X39198524Y-65126890D01*
X39368355Y-65536924D01*
X39758642Y-65965183D01*
X40283108Y-66211486D01*
X40513000Y-66090819D01*
X40513000Y-64897000D01*
X40767000Y-64897000D01*
X40767000Y-66090819D01*
X40996892Y-66211486D01*
X41521358Y-65965183D01*
X41911645Y-65536924D01*
X42081476Y-65126890D01*
X41960155Y-64897000D01*
X40767000Y-64897000D01*
X40513000Y-64897000D01*
X39319845Y-64897000D01*
X39198524Y-65126890D01*
X35098102Y-65126890D01*
X35169092Y-64770000D01*
X35053839Y-64190582D01*
X34725625Y-63699375D01*
X34707381Y-63687184D01*
X34752765Y-63678157D01*
X34962809Y-63537809D01*
X35103157Y-63327765D01*
X35152440Y-63080000D01*
X35152440Y-62515750D01*
X39155000Y-62515750D01*
X39155000Y-63206310D01*
X39251673Y-63439699D01*
X39430302Y-63618327D01*
X39639878Y-63705136D01*
X39368355Y-64003076D01*
X39198524Y-64413110D01*
X39319845Y-64643000D01*
X40513000Y-64643000D01*
X40513000Y-62357000D01*
X40767000Y-62357000D01*
X40767000Y-64643000D01*
X41960155Y-64643000D01*
X42081476Y-64413110D01*
X41911645Y-64003076D01*
X41640122Y-63705136D01*
X41849698Y-63618327D01*
X42028327Y-63439699D01*
X42125000Y-63206310D01*
X42125000Y-62515750D01*
X41966250Y-62357000D01*
X40767000Y-62357000D01*
X40513000Y-62357000D01*
X39313750Y-62357000D01*
X39155000Y-62515750D01*
X35152440Y-62515750D01*
X35152440Y-61380000D01*
X35127316Y-61253690D01*
X39155000Y-61253690D01*
X39155000Y-61944250D01*
X39313750Y-62103000D01*
X40513000Y-62103000D01*
X40513000Y-60903750D01*
X40767000Y-60903750D01*
X40767000Y-62103000D01*
X41966250Y-62103000D01*
X42125000Y-61944250D01*
X42125000Y-61253690D01*
X42028327Y-61020301D01*
X41849698Y-60841673D01*
X41616309Y-60745000D01*
X40925750Y-60745000D01*
X40767000Y-60903750D01*
X40513000Y-60903750D01*
X40354250Y-60745000D01*
X39663691Y-60745000D01*
X39430302Y-60841673D01*
X39251673Y-61020301D01*
X39155000Y-61253690D01*
X35127316Y-61253690D01*
X35103157Y-61132235D01*
X34962809Y-60922191D01*
X34752765Y-60781843D01*
X34505000Y-60732560D01*
X32805000Y-60732560D01*
X32557235Y-60781843D01*
X32347191Y-60922191D01*
X32206843Y-61132235D01*
X32157560Y-61380000D01*
X32157560Y-63080000D01*
X32206843Y-63327765D01*
X32347191Y-63537809D01*
X32557235Y-63678157D01*
X32602619Y-63687184D01*
X32584375Y-63699375D01*
X32256161Y-64190582D01*
X32140908Y-64770000D01*
X32256161Y-65349418D01*
X32584375Y-65840625D01*
X32645000Y-65881133D01*
X32645001Y-110517524D01*
X32625214Y-110617000D01*
X32645001Y-110716476D01*
X32658413Y-110783900D01*
X32703602Y-111011082D01*
X32870482Y-111260837D01*
X32870485Y-111260840D01*
X32926832Y-111345169D01*
X33011161Y-111401516D01*
X38125400Y-116515756D01*
X38125400Y-116579566D01*
X38296401Y-116992400D01*
X37852434Y-116992400D01*
X37394991Y-117181879D01*
X37044879Y-117531991D01*
X36855400Y-117989434D01*
X36855400Y-118484566D01*
X37044879Y-118942009D01*
X37394991Y-119292121D01*
X37852434Y-119481600D01*
X38347566Y-119481600D01*
X38476561Y-119428169D01*
X38500296Y-119451904D01*
X38273877Y-119502600D01*
X38112626Y-119970739D01*
X38142800Y-120464952D01*
X38273877Y-120781400D01*
X38500296Y-120832096D01*
X38473206Y-120859186D01*
X38271261Y-120789626D01*
X37777048Y-120819800D01*
X37460600Y-120950877D01*
X37409903Y-121177298D01*
X38100000Y-121867395D01*
X38114143Y-121853253D01*
X38293748Y-122032858D01*
X38279605Y-122047000D01*
X38969702Y-122737097D01*
X39196123Y-122686400D01*
X39357374Y-122218261D01*
X39327200Y-121724048D01*
X39196123Y-121407600D01*
X38969704Y-121356904D01*
X38996794Y-121329814D01*
X39198739Y-121399374D01*
X39692952Y-121369200D01*
X39756337Y-121342945D01*
X39770296Y-121356904D01*
X39543877Y-121407600D01*
X39382626Y-121875739D01*
X39412800Y-122369952D01*
X39543877Y-122686400D01*
X39770298Y-122737097D01*
X40460395Y-122047000D01*
X40446253Y-122032858D01*
X40625858Y-121853253D01*
X40640000Y-121867395D01*
X40654143Y-121853253D01*
X40833748Y-122032858D01*
X40819605Y-122047000D01*
X41509702Y-122737097D01*
X41736123Y-122686400D01*
X41897374Y-122218261D01*
X41867200Y-121724048D01*
X41736123Y-121407600D01*
X41509704Y-121356904D01*
X41536794Y-121329814D01*
X41738739Y-121399374D01*
X42232952Y-121369200D01*
X42296337Y-121342945D01*
X42310296Y-121356904D01*
X42083877Y-121407600D01*
X41922626Y-121875739D01*
X41952800Y-122369952D01*
X42083877Y-122686400D01*
X42310298Y-122737097D01*
X43000395Y-122047000D01*
X42986253Y-122032858D01*
X43165858Y-121853253D01*
X43180000Y-121867395D01*
X43194143Y-121853253D01*
X43373748Y-122032858D01*
X43359605Y-122047000D01*
X44049702Y-122737097D01*
X44145374Y-122715676D01*
X45694697Y-124265000D01*
X25735000Y-124265000D01*
X25735000Y-122916702D01*
X37409903Y-122916702D01*
X37460600Y-123143123D01*
X37928739Y-123304374D01*
X38422952Y-123274200D01*
X38739400Y-123143123D01*
X38790097Y-122916702D01*
X39949903Y-122916702D01*
X40000600Y-123143123D01*
X40468739Y-123304374D01*
X40962952Y-123274200D01*
X41279400Y-123143123D01*
X41330097Y-122916702D01*
X42489903Y-122916702D01*
X42540600Y-123143123D01*
X43008739Y-123304374D01*
X43502952Y-123274200D01*
X43819400Y-123143123D01*
X43870097Y-122916702D01*
X43180000Y-122226605D01*
X42489903Y-122916702D01*
X41330097Y-122916702D01*
X40640000Y-122226605D01*
X39949903Y-122916702D01*
X38790097Y-122916702D01*
X38100000Y-122226605D01*
X37409903Y-122916702D01*
X25735000Y-122916702D01*
X25735000Y-121875739D01*
X36842626Y-121875739D01*
X36872800Y-122369952D01*
X37003877Y-122686400D01*
X37230298Y-122737097D01*
X37920395Y-122047000D01*
X37230298Y-121356903D01*
X37003877Y-121407600D01*
X36842626Y-121875739D01*
X25735000Y-121875739D01*
X25735000Y-53749234D01*
X43020000Y-53749234D01*
X43020000Y-54200766D01*
X43192793Y-54617926D01*
X43512074Y-54937207D01*
X43929234Y-55110000D01*
X44380766Y-55110000D01*
X44797926Y-54937207D01*
X45117207Y-54617926D01*
X45290000Y-54200766D01*
X45290000Y-53749234D01*
X45117207Y-53332074D01*
X44797926Y-53012793D01*
X44380766Y-52840000D01*
X43929234Y-52840000D01*
X43512074Y-53012793D01*
X43192793Y-53332074D01*
X43020000Y-53749234D01*
X25735000Y-53749234D01*
X25735000Y-25735000D01*
X124265000Y-25735000D01*
X124265001Y-124265000D01*
G36*
X41040296Y-119451904D02*
X40813877Y-119502600D01*
X40652626Y-119970739D01*
X40682800Y-120464952D01*
X40813877Y-120781400D01*
X41040296Y-120832096D01*
X41013206Y-120859186D01*
X40811261Y-120789626D01*
X40317048Y-120819800D01*
X40253663Y-120846055D01*
X40239704Y-120832096D01*
X40466123Y-120781400D01*
X40627374Y-120313261D01*
X40597200Y-119819048D01*
X40466123Y-119502600D01*
X40239704Y-119451904D01*
X40263439Y-119428169D01*
X40392434Y-119481600D01*
X40887566Y-119481600D01*
X41016561Y-119428169D01*
X41040296Y-119451904D01*
X41040296Y-119451904D01*
G37*
X41040296Y-119451904D02*
X40813877Y-119502600D01*
X40652626Y-119970739D01*
X40682800Y-120464952D01*
X40813877Y-120781400D01*
X41040296Y-120832096D01*
X41013206Y-120859186D01*
X40811261Y-120789626D01*
X40317048Y-120819800D01*
X40253663Y-120846055D01*
X40239704Y-120832096D01*
X40466123Y-120781400D01*
X40627374Y-120313261D01*
X40597200Y-119819048D01*
X40466123Y-119502600D01*
X40239704Y-119451904D01*
X40263439Y-119428169D01*
X40392434Y-119481600D01*
X40887566Y-119481600D01*
X41016561Y-119428169D01*
X41040296Y-119451904D01*
G36*
X39563748Y-120127858D02*
X39549605Y-120142000D01*
X39563748Y-120156143D01*
X39384143Y-120335748D01*
X39370000Y-120321605D01*
X39355858Y-120335748D01*
X39176253Y-120156143D01*
X39190395Y-120142000D01*
X39176253Y-120127858D01*
X39355858Y-119948253D01*
X39370000Y-119962395D01*
X39384143Y-119948253D01*
X39563748Y-120127858D01*
X39563748Y-120127858D01*
G37*
X39563748Y-120127858D02*
X39549605Y-120142000D01*
X39563748Y-120156143D01*
X39384143Y-120335748D01*
X39370000Y-120321605D01*
X39355858Y-120335748D01*
X39176253Y-120156143D01*
X39190395Y-120142000D01*
X39176253Y-120127858D01*
X39355858Y-119948253D01*
X39370000Y-119962395D01*
X39384143Y-119948253D01*
X39563748Y-120127858D01*
G36*
X42103748Y-120127858D02*
X42089605Y-120142000D01*
X42103748Y-120156143D01*
X41924143Y-120335748D01*
X41910000Y-120321605D01*
X41895858Y-120335748D01*
X41716253Y-120156143D01*
X41730395Y-120142000D01*
X41716253Y-120127858D01*
X41895858Y-119948253D01*
X41910000Y-119962395D01*
X41924143Y-119948253D01*
X42103748Y-120127858D01*
X42103748Y-120127858D01*
G37*
X42103748Y-120127858D02*
X42089605Y-120142000D01*
X42103748Y-120156143D01*
X41924143Y-120335748D01*
X41910000Y-120321605D01*
X41895858Y-120335748D01*
X41716253Y-120156143D01*
X41730395Y-120142000D01*
X41716253Y-120127858D01*
X41895858Y-119948253D01*
X41910000Y-119962395D01*
X41924143Y-119948253D01*
X42103748Y-120127858D01*
G36*
X109413748Y-118222858D02*
X109399605Y-118237000D01*
X109413748Y-118251143D01*
X109234143Y-118430748D01*
X109220000Y-118416605D01*
X109205858Y-118430748D01*
X109026253Y-118251143D01*
X109040395Y-118237000D01*
X109026253Y-118222858D01*
X109205858Y-118043253D01*
X109220000Y-118057395D01*
X109234143Y-118043253D01*
X109413748Y-118222858D01*
X109413748Y-118222858D01*
G37*
X109413748Y-118222858D02*
X109399605Y-118237000D01*
X109413748Y-118251143D01*
X109234143Y-118430748D01*
X109220000Y-118416605D01*
X109205858Y-118430748D01*
X109026253Y-118251143D01*
X109040395Y-118237000D01*
X109026253Y-118222858D01*
X109205858Y-118043253D01*
X109220000Y-118057395D01*
X109234143Y-118043253D01*
X109413748Y-118222858D01*
G36*
X111953748Y-118222858D02*
X111939605Y-118237000D01*
X111953748Y-118251143D01*
X111774143Y-118430748D01*
X111760000Y-118416605D01*
X111745858Y-118430748D01*
X111566253Y-118251143D01*
X111580395Y-118237000D01*
X111566253Y-118222858D01*
X111745858Y-118043253D01*
X111760000Y-118057395D01*
X111774143Y-118043253D01*
X111953748Y-118222858D01*
X111953748Y-118222858D01*
G37*
X111953748Y-118222858D02*
X111939605Y-118237000D01*
X111953748Y-118251143D01*
X111774143Y-118430748D01*
X111760000Y-118416605D01*
X111745858Y-118430748D01*
X111566253Y-118251143D01*
X111580395Y-118237000D01*
X111566253Y-118222858D01*
X111745858Y-118043253D01*
X111760000Y-118057395D01*
X111774143Y-118043253D01*
X111953748Y-118222858D01*
G36*
X42246420Y-104780931D02*
X42626826Y-104938500D01*
X42792899Y-104938500D01*
X47028271Y-109173873D01*
X47070671Y-109237329D01*
X47134127Y-109279729D01*
X47322062Y-109405304D01*
X47370205Y-109414880D01*
X47543748Y-109449400D01*
X47543752Y-109449400D01*
X47618600Y-109464288D01*
X47693448Y-109449400D01*
X66889000Y-109449400D01*
X66889001Y-112552288D01*
X66771569Y-112669720D01*
X66614000Y-113050126D01*
X66614000Y-113461874D01*
X66771569Y-113842280D01*
X66906094Y-113976805D01*
X65555528Y-115327371D01*
X65537528Y-115339398D01*
X65475009Y-115276879D01*
X65017566Y-115087400D01*
X64522434Y-115087400D01*
X64064991Y-115276879D01*
X63714879Y-115626991D01*
X63525400Y-116084434D01*
X63525400Y-116579566D01*
X63696401Y-116992400D01*
X63303599Y-116992400D01*
X63474600Y-116579566D01*
X63474600Y-116084434D01*
X63285121Y-115626991D01*
X62935009Y-115276879D01*
X62477566Y-115087400D01*
X61982434Y-115087400D01*
X61524991Y-115276879D01*
X61174879Y-115626991D01*
X60985400Y-116084434D01*
X60985400Y-116579566D01*
X61156401Y-116992400D01*
X60763599Y-116992400D01*
X60934600Y-116579566D01*
X60934600Y-116084434D01*
X60745121Y-115626991D01*
X60395009Y-115276879D01*
X59937566Y-115087400D01*
X59442434Y-115087400D01*
X58984991Y-115276879D01*
X58634879Y-115626991D01*
X58445400Y-116084434D01*
X58445400Y-116579566D01*
X58616401Y-116992400D01*
X58223599Y-116992400D01*
X58394600Y-116579566D01*
X58394600Y-116084434D01*
X58205121Y-115626991D01*
X57855009Y-115276879D01*
X57397566Y-115087400D01*
X56902434Y-115087400D01*
X56444991Y-115276879D01*
X56094879Y-115626991D01*
X55905400Y-116084434D01*
X55905400Y-116579566D01*
X56076401Y-116992400D01*
X55683599Y-116992400D01*
X55854600Y-116579566D01*
X55854600Y-116084434D01*
X55665121Y-115626991D01*
X55315009Y-115276879D01*
X54857566Y-115087400D01*
X54362434Y-115087400D01*
X53904991Y-115276879D01*
X53554879Y-115626991D01*
X53365400Y-116084434D01*
X53365400Y-116579566D01*
X53536401Y-116992400D01*
X53143599Y-116992400D01*
X53314600Y-116579566D01*
X53314600Y-116084434D01*
X53125121Y-115626991D01*
X52775009Y-115276879D01*
X52317566Y-115087400D01*
X51822434Y-115087400D01*
X51364991Y-115276879D01*
X51014879Y-115626991D01*
X50825400Y-116084434D01*
X50825400Y-116579566D01*
X50996401Y-116992400D01*
X50603599Y-116992400D01*
X50774600Y-116579566D01*
X50774600Y-116084434D01*
X50585121Y-115626991D01*
X50235009Y-115276879D01*
X49777566Y-115087400D01*
X49282434Y-115087400D01*
X48824991Y-115276879D01*
X48474879Y-115626991D01*
X48285400Y-116084434D01*
X48285400Y-116579566D01*
X48456401Y-116992400D01*
X48063599Y-116992400D01*
X48234600Y-116579566D01*
X48234600Y-116084434D01*
X48045121Y-115626991D01*
X47695009Y-115276879D01*
X47237566Y-115087400D01*
X46742434Y-115087400D01*
X46284991Y-115276879D01*
X45934879Y-115626991D01*
X45745400Y-116084434D01*
X45745400Y-116579566D01*
X45916401Y-116992400D01*
X45523599Y-116992400D01*
X45694600Y-116579566D01*
X45694600Y-116084434D01*
X45505121Y-115626991D01*
X45155009Y-115276879D01*
X44697566Y-115087400D01*
X44202434Y-115087400D01*
X43744991Y-115276879D01*
X43419886Y-115601984D01*
X42154800Y-114336899D01*
X42154800Y-104689311D01*
X42246420Y-104780931D01*
X42246420Y-104780931D01*
G37*
X42246420Y-104780931D02*
X42626826Y-104938500D01*
X42792899Y-104938500D01*
X47028271Y-109173873D01*
X47070671Y-109237329D01*
X47134127Y-109279729D01*
X47322062Y-109405304D01*
X47370205Y-109414880D01*
X47543748Y-109449400D01*
X47543752Y-109449400D01*
X47618600Y-109464288D01*
X47693448Y-109449400D01*
X66889000Y-109449400D01*
X66889001Y-112552288D01*
X66771569Y-112669720D01*
X66614000Y-113050126D01*
X66614000Y-113461874D01*
X66771569Y-113842280D01*
X66906094Y-113976805D01*
X65555528Y-115327371D01*
X65537528Y-115339398D01*
X65475009Y-115276879D01*
X65017566Y-115087400D01*
X64522434Y-115087400D01*
X64064991Y-115276879D01*
X63714879Y-115626991D01*
X63525400Y-116084434D01*
X63525400Y-116579566D01*
X63696401Y-116992400D01*
X63303599Y-116992400D01*
X63474600Y-116579566D01*
X63474600Y-116084434D01*
X63285121Y-115626991D01*
X62935009Y-115276879D01*
X62477566Y-115087400D01*
X61982434Y-115087400D01*
X61524991Y-115276879D01*
X61174879Y-115626991D01*
X60985400Y-116084434D01*
X60985400Y-116579566D01*
X61156401Y-116992400D01*
X60763599Y-116992400D01*
X60934600Y-116579566D01*
X60934600Y-116084434D01*
X60745121Y-115626991D01*
X60395009Y-115276879D01*
X59937566Y-115087400D01*
X59442434Y-115087400D01*
X58984991Y-115276879D01*
X58634879Y-115626991D01*
X58445400Y-116084434D01*
X58445400Y-116579566D01*
X58616401Y-116992400D01*
X58223599Y-116992400D01*
X58394600Y-116579566D01*
X58394600Y-116084434D01*
X58205121Y-115626991D01*
X57855009Y-115276879D01*
X57397566Y-115087400D01*
X56902434Y-115087400D01*
X56444991Y-115276879D01*
X56094879Y-115626991D01*
X55905400Y-116084434D01*
X55905400Y-116579566D01*
X56076401Y-116992400D01*
X55683599Y-116992400D01*
X55854600Y-116579566D01*
X55854600Y-116084434D01*
X55665121Y-115626991D01*
X55315009Y-115276879D01*
X54857566Y-115087400D01*
X54362434Y-115087400D01*
X53904991Y-115276879D01*
X53554879Y-115626991D01*
X53365400Y-116084434D01*
X53365400Y-116579566D01*
X53536401Y-116992400D01*
X53143599Y-116992400D01*
X53314600Y-116579566D01*
X53314600Y-116084434D01*
X53125121Y-115626991D01*
X52775009Y-115276879D01*
X52317566Y-115087400D01*
X51822434Y-115087400D01*
X51364991Y-115276879D01*
X51014879Y-115626991D01*
X50825400Y-116084434D01*
X50825400Y-116579566D01*
X50996401Y-116992400D01*
X50603599Y-116992400D01*
X50774600Y-116579566D01*
X50774600Y-116084434D01*
X50585121Y-115626991D01*
X50235009Y-115276879D01*
X49777566Y-115087400D01*
X49282434Y-115087400D01*
X48824991Y-115276879D01*
X48474879Y-115626991D01*
X48285400Y-116084434D01*
X48285400Y-116579566D01*
X48456401Y-116992400D01*
X48063599Y-116992400D01*
X48234600Y-116579566D01*
X48234600Y-116084434D01*
X48045121Y-115626991D01*
X47695009Y-115276879D01*
X47237566Y-115087400D01*
X46742434Y-115087400D01*
X46284991Y-115276879D01*
X45934879Y-115626991D01*
X45745400Y-116084434D01*
X45745400Y-116579566D01*
X45916401Y-116992400D01*
X45523599Y-116992400D01*
X45694600Y-116579566D01*
X45694600Y-116084434D01*
X45505121Y-115626991D01*
X45155009Y-115276879D01*
X44697566Y-115087400D01*
X44202434Y-115087400D01*
X43744991Y-115276879D01*
X43419886Y-115601984D01*
X42154800Y-114336899D01*
X42154800Y-104689311D01*
X42246420Y-104780931D01*
G36*
X72269633Y-100825487D02*
X72759750Y-101028500D01*
X73196101Y-101028500D01*
X73196100Y-107686798D01*
X68409000Y-112473899D01*
X68409000Y-109004201D01*
X71909173Y-105504029D01*
X71972629Y-105461629D01*
X72140604Y-105210237D01*
X72184700Y-104988552D01*
X72184700Y-104988548D01*
X72199588Y-104913701D01*
X72184700Y-104838854D01*
X72184700Y-100740554D01*
X72269633Y-100825487D01*
X72269633Y-100825487D01*
G37*
X72269633Y-100825487D02*
X72759750Y-101028500D01*
X73196101Y-101028500D01*
X73196100Y-107686798D01*
X68409000Y-112473899D01*
X68409000Y-109004201D01*
X71909173Y-105504029D01*
X71972629Y-105461629D01*
X72140604Y-105210237D01*
X72184700Y-104988552D01*
X72184700Y-104988548D01*
X72199588Y-104913701D01*
X72184700Y-104838854D01*
X72184700Y-100740554D01*
X72269633Y-100825487D01*
G36*
X69151500Y-94880250D02*
X69354513Y-95370367D01*
X69729633Y-95745487D01*
X70050211Y-95878275D01*
X69792071Y-95985200D01*
X69730417Y-96220812D01*
X70485000Y-96975395D01*
X70499143Y-96961253D01*
X70664700Y-97126810D01*
X70664700Y-97154905D01*
X70664605Y-97155000D01*
X70664700Y-97155095D01*
X70664700Y-97183190D01*
X70499143Y-97348748D01*
X70485000Y-97334605D01*
X69730417Y-98089188D01*
X69792071Y-98324800D01*
X70292480Y-98500927D01*
X70664701Y-98480705D01*
X70664701Y-104598897D01*
X67334199Y-107929400D01*
X47933402Y-107929400D01*
X43867700Y-103863699D01*
X43867700Y-103697626D01*
X43710131Y-103317220D01*
X43418980Y-103026069D01*
X43038574Y-102868500D01*
X42626826Y-102868500D01*
X42246420Y-103026069D01*
X42154800Y-103117689D01*
X42154800Y-100275148D01*
X42169688Y-100200300D01*
X42154800Y-100125452D01*
X42154800Y-100125448D01*
X42110704Y-99903763D01*
X42110704Y-99903762D01*
X41985129Y-99715827D01*
X41942729Y-99652371D01*
X41879273Y-99609971D01*
X41289500Y-99020199D01*
X41289500Y-98854126D01*
X41265865Y-98797066D01*
X49420271Y-106951473D01*
X49462671Y-107014929D01*
X49714063Y-107182904D01*
X49935748Y-107227000D01*
X49935753Y-107227000D01*
X50010600Y-107241888D01*
X50085447Y-107227000D01*
X58069353Y-107227000D01*
X58144200Y-107241888D01*
X58219047Y-107227000D01*
X58219052Y-107227000D01*
X58440737Y-107182904D01*
X58692129Y-107014929D01*
X58734531Y-106951470D01*
X66128973Y-99557029D01*
X66192429Y-99514629D01*
X66360404Y-99263237D01*
X66404500Y-99041552D01*
X66404500Y-99041547D01*
X66419388Y-98966700D01*
X66404500Y-98891853D01*
X66404500Y-97230301D01*
X66672321Y-96962480D01*
X69139073Y-96962480D01*
X69167852Y-97492199D01*
X69315200Y-97847929D01*
X69550812Y-97909583D01*
X70305395Y-97155000D01*
X69550812Y-96400417D01*
X69315200Y-96462071D01*
X69139073Y-96962480D01*
X66672321Y-96962480D01*
X69151500Y-94483302D01*
X69151500Y-94880250D01*
X69151500Y-94880250D01*
G37*
X69151500Y-94880250D02*
X69354513Y-95370367D01*
X69729633Y-95745487D01*
X70050211Y-95878275D01*
X69792071Y-95985200D01*
X69730417Y-96220812D01*
X70485000Y-96975395D01*
X70499143Y-96961253D01*
X70664700Y-97126810D01*
X70664700Y-97154905D01*
X70664605Y-97155000D01*
X70664700Y-97155095D01*
X70664700Y-97183190D01*
X70499143Y-97348748D01*
X70485000Y-97334605D01*
X69730417Y-98089188D01*
X69792071Y-98324800D01*
X70292480Y-98500927D01*
X70664701Y-98480705D01*
X70664701Y-104598897D01*
X67334199Y-107929400D01*
X47933402Y-107929400D01*
X43867700Y-103863699D01*
X43867700Y-103697626D01*
X43710131Y-103317220D01*
X43418980Y-103026069D01*
X43038574Y-102868500D01*
X42626826Y-102868500D01*
X42246420Y-103026069D01*
X42154800Y-103117689D01*
X42154800Y-100275148D01*
X42169688Y-100200300D01*
X42154800Y-100125452D01*
X42154800Y-100125448D01*
X42110704Y-99903763D01*
X42110704Y-99903762D01*
X41985129Y-99715827D01*
X41942729Y-99652371D01*
X41879273Y-99609971D01*
X41289500Y-99020199D01*
X41289500Y-98854126D01*
X41265865Y-98797066D01*
X49420271Y-106951473D01*
X49462671Y-107014929D01*
X49714063Y-107182904D01*
X49935748Y-107227000D01*
X49935753Y-107227000D01*
X50010600Y-107241888D01*
X50085447Y-107227000D01*
X58069353Y-107227000D01*
X58144200Y-107241888D01*
X58219047Y-107227000D01*
X58219052Y-107227000D01*
X58440737Y-107182904D01*
X58692129Y-107014929D01*
X58734531Y-106951470D01*
X66128973Y-99557029D01*
X66192429Y-99514629D01*
X66360404Y-99263237D01*
X66404500Y-99041552D01*
X66404500Y-99041547D01*
X66419388Y-98966700D01*
X66404500Y-98891853D01*
X66404500Y-97230301D01*
X66672321Y-96962480D01*
X69139073Y-96962480D01*
X69167852Y-97492199D01*
X69315200Y-97847929D01*
X69550812Y-97909583D01*
X70305395Y-97155000D01*
X69550812Y-96400417D01*
X69315200Y-96462071D01*
X69139073Y-96962480D01*
X66672321Y-96962480D01*
X69151500Y-94483302D01*
X69151500Y-94880250D01*
G36*
X74805000Y-100820854D02*
X74805001Y-106557497D01*
X74716100Y-106646398D01*
X74716100Y-100731954D01*
X74805000Y-100820854D01*
X74805000Y-100820854D01*
G37*
X74805000Y-100820854D02*
X74805001Y-106557497D01*
X74716100Y-106646398D01*
X74716100Y-100731954D01*
X74805000Y-100820854D01*
G36*
X76974513Y-100450367D02*
X77345000Y-100820854D01*
X77345001Y-105222196D01*
X76325000Y-106242197D01*
X76325000Y-100820854D01*
X76695487Y-100450367D01*
X76835000Y-100113553D01*
X76974513Y-100450367D01*
X76974513Y-100450367D01*
G37*
X76974513Y-100450367D02*
X77345000Y-100820854D01*
X77345001Y-105222196D01*
X76325000Y-106242197D01*
X76325000Y-100820854D01*
X76695487Y-100450367D01*
X76835000Y-100113553D01*
X76974513Y-100450367D01*
G36*
X112270000Y-83468702D02*
X112270001Y-99686821D01*
X111959375Y-99894375D01*
X111947184Y-99912619D01*
X111938157Y-99867235D01*
X111797809Y-99657191D01*
X111587765Y-99516843D01*
X111340000Y-99467560D01*
X109640000Y-99467560D01*
X109589600Y-99477585D01*
X109589600Y-95427440D01*
X110655000Y-95427440D01*
X110902765Y-95378157D01*
X111112809Y-95237809D01*
X111253157Y-95027765D01*
X111302440Y-94780000D01*
X111302440Y-93180000D01*
X111253157Y-92932235D01*
X111112809Y-92722191D01*
X110902765Y-92581843D01*
X110655000Y-92532560D01*
X109589600Y-92532560D01*
X109589600Y-88053755D01*
X109848355Y-87795000D01*
X110140439Y-87795000D01*
X110667862Y-87576534D01*
X111071534Y-87172862D01*
X111290000Y-86645439D01*
X111290000Y-86074561D01*
X111071534Y-85547138D01*
X110667862Y-85143466D01*
X110140439Y-84925000D01*
X109848355Y-84925000D01*
X109335600Y-84412245D01*
X109335600Y-80534301D01*
X112270000Y-83468702D01*
X112270000Y-83468702D01*
G37*
X112270000Y-83468702D02*
X112270001Y-99686821D01*
X111959375Y-99894375D01*
X111947184Y-99912619D01*
X111938157Y-99867235D01*
X111797809Y-99657191D01*
X111587765Y-99516843D01*
X111340000Y-99467560D01*
X109640000Y-99467560D01*
X109589600Y-99477585D01*
X109589600Y-95427440D01*
X110655000Y-95427440D01*
X110902765Y-95378157D01*
X111112809Y-95237809D01*
X111253157Y-95027765D01*
X111302440Y-94780000D01*
X111302440Y-93180000D01*
X111253157Y-92932235D01*
X111112809Y-92722191D01*
X110902765Y-92581843D01*
X110655000Y-92532560D01*
X109589600Y-92532560D01*
X109589600Y-88053755D01*
X109848355Y-87795000D01*
X110140439Y-87795000D01*
X110667862Y-87576534D01*
X111071534Y-87172862D01*
X111290000Y-86645439D01*
X111290000Y-86074561D01*
X111071534Y-85547138D01*
X110667862Y-85143466D01*
X110140439Y-84925000D01*
X109848355Y-84925000D01*
X109335600Y-84412245D01*
X109335600Y-80534301D01*
X112270000Y-83468702D01*
G36*
X90993901Y-99676011D02*
X90993901Y-99685704D01*
X90984605Y-99695000D01*
X90993901Y-99704296D01*
X90993901Y-99713989D01*
X90819143Y-99888748D01*
X90805000Y-99874605D01*
X90790858Y-99888748D01*
X90619300Y-99717190D01*
X90619300Y-99701095D01*
X90625395Y-99695000D01*
X90619300Y-99688905D01*
X90619300Y-99672810D01*
X90790858Y-99501253D01*
X90805000Y-99515395D01*
X90819143Y-99501253D01*
X90993901Y-99676011D01*
X90993901Y-99676011D01*
G37*
X90993901Y-99676011D02*
X90993901Y-99685704D01*
X90984605Y-99695000D01*
X90993901Y-99704296D01*
X90993901Y-99713989D01*
X90819143Y-99888748D01*
X90805000Y-99874605D01*
X90790858Y-99888748D01*
X90619300Y-99717190D01*
X90619300Y-99701095D01*
X90625395Y-99695000D01*
X90619300Y-99688905D01*
X90619300Y-99672810D01*
X90790858Y-99501253D01*
X90805000Y-99515395D01*
X90819143Y-99501253D01*
X90993901Y-99676011D01*
G36*
X69353405Y-91322307D02*
X69151500Y-91809750D01*
X69151500Y-92333698D01*
X65160028Y-96325171D01*
X65096572Y-96367571D01*
X65054172Y-96431027D01*
X65054171Y-96431028D01*
X64982849Y-96537769D01*
X64928597Y-96618963D01*
X64908161Y-96721704D01*
X64869612Y-96915500D01*
X64884501Y-96990352D01*
X64884500Y-97948900D01*
X64760201Y-97948900D01*
X64508400Y-97697099D01*
X64508400Y-92175911D01*
X64625831Y-92058480D01*
X64783400Y-91678074D01*
X64783400Y-91266326D01*
X64625831Y-90885920D01*
X64334680Y-90594769D01*
X64247500Y-90558658D01*
X64247500Y-86216401D01*
X69353405Y-91322307D01*
X69353405Y-91322307D01*
G37*
X69353405Y-91322307D02*
X69151500Y-91809750D01*
X69151500Y-92333698D01*
X65160028Y-96325171D01*
X65096572Y-96367571D01*
X65054172Y-96431027D01*
X65054171Y-96431028D01*
X64982849Y-96537769D01*
X64928597Y-96618963D01*
X64908161Y-96721704D01*
X64869612Y-96915500D01*
X64884501Y-96990352D01*
X64884500Y-97948900D01*
X64760201Y-97948900D01*
X64508400Y-97697099D01*
X64508400Y-92175911D01*
X64625831Y-92058480D01*
X64783400Y-91678074D01*
X64783400Y-91266326D01*
X64625831Y-90885920D01*
X64334680Y-90594769D01*
X64247500Y-90558658D01*
X64247500Y-86216401D01*
X69353405Y-91322307D01*
G36*
X85908401Y-86091003D02*
X85908400Y-95821500D01*
X85459750Y-95821500D01*
X84969633Y-96024513D01*
X84594513Y-96399633D01*
X84461725Y-96720211D01*
X84354800Y-96462071D01*
X84119188Y-96400417D01*
X83364605Y-97155000D01*
X83378748Y-97169143D01*
X83199143Y-97348748D01*
X83185000Y-97334605D01*
X83170858Y-97348748D01*
X82991253Y-97169143D01*
X83005395Y-97155000D01*
X82991253Y-97140858D01*
X83170858Y-96961253D01*
X83185000Y-96975395D01*
X83939583Y-96220812D01*
X83877929Y-95985200D01*
X83377520Y-95809073D01*
X82847801Y-95837852D01*
X82749300Y-95878652D01*
X82749300Y-82931901D01*
X85908401Y-86091003D01*
X85908401Y-86091003D01*
G37*
X85908401Y-86091003D02*
X85908400Y-95821500D01*
X85459750Y-95821500D01*
X84969633Y-96024513D01*
X84594513Y-96399633D01*
X84461725Y-96720211D01*
X84354800Y-96462071D01*
X84119188Y-96400417D01*
X83364605Y-97155000D01*
X83378748Y-97169143D01*
X83199143Y-97348748D01*
X83185000Y-97334605D01*
X83170858Y-97348748D01*
X82991253Y-97169143D01*
X83005395Y-97155000D01*
X82991253Y-97140858D01*
X83170858Y-96961253D01*
X83185000Y-96975395D01*
X83939583Y-96220812D01*
X83877929Y-95985200D01*
X83377520Y-95809073D01*
X82847801Y-95837852D01*
X82749300Y-95878652D01*
X82749300Y-82931901D01*
X85908401Y-86091003D01*
G36*
X77095001Y-93359857D02*
X77095000Y-96279146D01*
X76974513Y-96399633D01*
X76835000Y-96736447D01*
X76695487Y-96399633D01*
X76320367Y-96024513D01*
X75830250Y-95821500D01*
X75299750Y-95821500D01*
X74809633Y-96024513D01*
X74434513Y-96399633D01*
X74295000Y-96736447D01*
X74155487Y-96399633D01*
X73780367Y-96024513D01*
X73443553Y-95885000D01*
X73780367Y-95745487D01*
X74155487Y-95370367D01*
X74358500Y-94880250D01*
X74358500Y-94349750D01*
X74155487Y-93859633D01*
X73780367Y-93484513D01*
X73443553Y-93345000D01*
X73780367Y-93205487D01*
X74155487Y-92830367D01*
X74358500Y-92340250D01*
X74358500Y-91809750D01*
X74155487Y-91319633D01*
X73780367Y-90944513D01*
X73443553Y-90805000D01*
X73780367Y-90665487D01*
X74090499Y-90355355D01*
X77095001Y-93359857D01*
X77095001Y-93359857D01*
G37*
X77095001Y-93359857D02*
X77095000Y-96279146D01*
X76974513Y-96399633D01*
X76835000Y-96736447D01*
X76695487Y-96399633D01*
X76320367Y-96024513D01*
X75830250Y-95821500D01*
X75299750Y-95821500D01*
X74809633Y-96024513D01*
X74434513Y-96399633D01*
X74295000Y-96736447D01*
X74155487Y-96399633D01*
X73780367Y-96024513D01*
X73443553Y-95885000D01*
X73780367Y-95745487D01*
X74155487Y-95370367D01*
X74358500Y-94880250D01*
X74358500Y-94349750D01*
X74155487Y-93859633D01*
X73780367Y-93484513D01*
X73443553Y-93345000D01*
X73780367Y-93205487D01*
X74155487Y-92830367D01*
X74358500Y-92340250D01*
X74358500Y-91809750D01*
X74155487Y-91319633D01*
X73780367Y-90944513D01*
X73443553Y-90805000D01*
X73780367Y-90665487D01*
X74090499Y-90355355D01*
X77095001Y-93359857D01*
G36*
X97091500Y-82173698D02*
X96324328Y-82940871D01*
X96260872Y-82983271D01*
X96218472Y-83046727D01*
X96218471Y-83046728D01*
X96092897Y-83234663D01*
X96033912Y-83531200D01*
X96048801Y-83606052D01*
X96048801Y-95821500D01*
X95619750Y-95821500D01*
X95129633Y-96024513D01*
X94754513Y-96399633D01*
X94615000Y-96736447D01*
X94475487Y-96399633D01*
X94100367Y-96024513D01*
X93610250Y-95821500D01*
X93192300Y-95821500D01*
X93192300Y-85682501D01*
X97091500Y-81783302D01*
X97091500Y-82173698D01*
X97091500Y-82173698D01*
G37*
X97091500Y-82173698D02*
X96324328Y-82940871D01*
X96260872Y-82983271D01*
X96218472Y-83046727D01*
X96218471Y-83046728D01*
X96092897Y-83234663D01*
X96033912Y-83531200D01*
X96048801Y-83606052D01*
X96048801Y-95821500D01*
X95619750Y-95821500D01*
X95129633Y-96024513D01*
X94754513Y-96399633D01*
X94615000Y-96736447D01*
X94475487Y-96399633D01*
X94100367Y-96024513D01*
X93610250Y-95821500D01*
X93192300Y-95821500D01*
X93192300Y-85682501D01*
X97091500Y-81783302D01*
X97091500Y-82173698D01*
G36*
X90993901Y-95821500D02*
X90539750Y-95821500D01*
X90049633Y-96024513D01*
X89866578Y-96207568D01*
X89740874Y-96155500D01*
X89649102Y-96155500D01*
X89245131Y-95751530D01*
X89202729Y-95688071D01*
X88951337Y-95520096D01*
X88729652Y-95476000D01*
X88729647Y-95476000D01*
X88654800Y-95461112D01*
X88579953Y-95476000D01*
X87959548Y-95476000D01*
X87884700Y-95461112D01*
X87809852Y-95476000D01*
X87809848Y-95476000D01*
X87636305Y-95510520D01*
X87588162Y-95520096D01*
X87434562Y-95622729D01*
X87428400Y-95626846D01*
X87428400Y-85851048D01*
X87443288Y-85776200D01*
X87428400Y-85701352D01*
X87428400Y-85701348D01*
X87384304Y-85479663D01*
X87384304Y-85479662D01*
X87258729Y-85291727D01*
X87216329Y-85228271D01*
X87152873Y-85185871D01*
X83826401Y-81859400D01*
X87772453Y-81859400D01*
X87847300Y-81874288D01*
X87922147Y-81859400D01*
X87922152Y-81859400D01*
X88143837Y-81815304D01*
X88395229Y-81647329D01*
X88437631Y-81583870D01*
X90993900Y-79027601D01*
X90993901Y-95821500D01*
X90993901Y-95821500D01*
G37*
X90993901Y-95821500D02*
X90539750Y-95821500D01*
X90049633Y-96024513D01*
X89866578Y-96207568D01*
X89740874Y-96155500D01*
X89649102Y-96155500D01*
X89245131Y-95751530D01*
X89202729Y-95688071D01*
X88951337Y-95520096D01*
X88729652Y-95476000D01*
X88729647Y-95476000D01*
X88654800Y-95461112D01*
X88579953Y-95476000D01*
X87959548Y-95476000D01*
X87884700Y-95461112D01*
X87809852Y-95476000D01*
X87809848Y-95476000D01*
X87636305Y-95510520D01*
X87588162Y-95520096D01*
X87434562Y-95622729D01*
X87428400Y-95626846D01*
X87428400Y-85851048D01*
X87443288Y-85776200D01*
X87428400Y-85701352D01*
X87428400Y-85701348D01*
X87384304Y-85479663D01*
X87384304Y-85479662D01*
X87258729Y-85291727D01*
X87216329Y-85228271D01*
X87152873Y-85185871D01*
X83826401Y-81859400D01*
X87772453Y-81859400D01*
X87847300Y-81874288D01*
X87922147Y-81859400D01*
X87922152Y-81859400D01*
X88143837Y-81815304D01*
X88395229Y-81647329D01*
X88437631Y-81583870D01*
X90993900Y-79027601D01*
X90993901Y-95821500D01*
G36*
X88465001Y-73489197D02*
X81121630Y-80832569D01*
X81058171Y-80874971D01*
X80890196Y-81126364D01*
X80846100Y-81348049D01*
X80846100Y-81348053D01*
X80831212Y-81422900D01*
X80846100Y-81497747D01*
X80846101Y-95821500D01*
X80484300Y-95821500D01*
X80484300Y-80610501D01*
X88006302Y-73088500D01*
X88465001Y-73088500D01*
X88465001Y-73489197D01*
X88465001Y-73489197D01*
G37*
X88465001Y-73489197D02*
X81121630Y-80832569D01*
X81058171Y-80874971D01*
X80890196Y-81126364D01*
X80846100Y-81348049D01*
X80846100Y-81348053D01*
X80831212Y-81422900D01*
X80846100Y-81497747D01*
X80846101Y-95821500D01*
X80484300Y-95821500D01*
X80484300Y-80610501D01*
X88006302Y-73088500D01*
X88465001Y-73088500D01*
X88465001Y-73489197D01*
G36*
X48663701Y-87382548D02*
X48648812Y-87457400D01*
X48663701Y-87532252D01*
X48667110Y-87549388D01*
X48707797Y-87753937D01*
X48747663Y-87813600D01*
X48875772Y-88005329D01*
X48939228Y-88047729D01*
X51566300Y-90674802D01*
X51566300Y-90840874D01*
X51723869Y-91221280D01*
X52015020Y-91512431D01*
X52395426Y-91670000D01*
X52800800Y-91670000D01*
X52800800Y-92997443D01*
X52761129Y-92938071D01*
X52697673Y-92895671D01*
X48001500Y-88199499D01*
X48001500Y-81177711D01*
X48118931Y-81060280D01*
X48276500Y-80679874D01*
X48276500Y-80268126D01*
X48118931Y-79887720D01*
X48066406Y-79835195D01*
X48415773Y-79485829D01*
X48479229Y-79443429D01*
X48647204Y-79192037D01*
X48663700Y-79109104D01*
X48663701Y-87382548D01*
X48663701Y-87382548D01*
G37*
X48663701Y-87382548D02*
X48648812Y-87457400D01*
X48663701Y-87532252D01*
X48667110Y-87549388D01*
X48707797Y-87753937D01*
X48747663Y-87813600D01*
X48875772Y-88005329D01*
X48939228Y-88047729D01*
X51566300Y-90674802D01*
X51566300Y-90840874D01*
X51723869Y-91221280D01*
X52015020Y-91512431D01*
X52395426Y-91670000D01*
X52800800Y-91670000D01*
X52800800Y-92997443D01*
X52761129Y-92938071D01*
X52697673Y-92895671D01*
X48001500Y-88199499D01*
X48001500Y-81177711D01*
X48118931Y-81060280D01*
X48276500Y-80679874D01*
X48276500Y-80268126D01*
X48118931Y-79887720D01*
X48066406Y-79835195D01*
X48415773Y-79485829D01*
X48479229Y-79443429D01*
X48647204Y-79192037D01*
X48663700Y-79109104D01*
X48663701Y-87382548D01*
G36*
X98618101Y-92060211D02*
X98618101Y-92061504D01*
X98604605Y-92075000D01*
X98618101Y-92088496D01*
X98618101Y-92089789D01*
X98439143Y-92268748D01*
X98425000Y-92254605D01*
X98410858Y-92268748D01*
X98231253Y-92089143D01*
X98245395Y-92075000D01*
X98231253Y-92060858D01*
X98410858Y-91881253D01*
X98425000Y-91895395D01*
X98439143Y-91881253D01*
X98618101Y-92060211D01*
X98618101Y-92060211D01*
G37*
X98618101Y-92060211D02*
X98618101Y-92061504D01*
X98604605Y-92075000D01*
X98618101Y-92088496D01*
X98618101Y-92089789D01*
X98439143Y-92268748D01*
X98425000Y-92254605D01*
X98410858Y-92268748D01*
X98231253Y-92089143D01*
X98245395Y-92075000D01*
X98231253Y-92060858D01*
X98410858Y-91881253D01*
X98425000Y-91895395D01*
X98439143Y-91881253D01*
X98618101Y-92060211D01*
G36*
X82054513Y-72510367D02*
X82429633Y-72885487D01*
X82919750Y-73088500D01*
X83316698Y-73088500D01*
X79797500Y-76607699D01*
X79797500Y-75274411D01*
X79914931Y-75156980D01*
X80072500Y-74776574D01*
X80072500Y-74364826D01*
X79914931Y-73984420D01*
X79623780Y-73693269D01*
X79243374Y-73535700D01*
X78831626Y-73535700D01*
X78451220Y-73693269D01*
X78160069Y-73984420D01*
X78002500Y-74364826D01*
X78002500Y-74776574D01*
X78160069Y-75156980D01*
X78277501Y-75274412D01*
X78277500Y-91685644D01*
X74308018Y-87716163D01*
X74251669Y-87631831D01*
X74214792Y-87607191D01*
X74358500Y-87260250D01*
X74358500Y-86729750D01*
X74155487Y-86239633D01*
X73780367Y-85864513D01*
X73443553Y-85725000D01*
X73780367Y-85585487D01*
X74155487Y-85210367D01*
X74358500Y-84720250D01*
X74358500Y-84189750D01*
X74155487Y-83699633D01*
X73780367Y-83324513D01*
X73443553Y-83185000D01*
X73780367Y-83045487D01*
X74155487Y-82670367D01*
X74358500Y-82180250D01*
X74358500Y-81649750D01*
X74155487Y-81159633D01*
X73780367Y-80784513D01*
X73459789Y-80651725D01*
X73717929Y-80544800D01*
X73779583Y-80309188D01*
X73025000Y-79554605D01*
X73010858Y-79568748D01*
X72831253Y-79389143D01*
X72845395Y-79375000D01*
X73204605Y-79375000D01*
X73959188Y-80129583D01*
X74194800Y-80067929D01*
X74370927Y-79567520D01*
X74342148Y-79037801D01*
X74194800Y-78682071D01*
X73959188Y-78620417D01*
X73204605Y-79375000D01*
X72845395Y-79375000D01*
X72831253Y-79360858D01*
X73010858Y-79181253D01*
X73025000Y-79195395D01*
X73779583Y-78440812D01*
X73717929Y-78205200D01*
X73438816Y-78106962D01*
X73780367Y-77965487D01*
X74155487Y-77590367D01*
X74358500Y-77100250D01*
X74358500Y-76569750D01*
X74155487Y-76079633D01*
X73780367Y-75704513D01*
X73443553Y-75565000D01*
X73780367Y-75425487D01*
X74155487Y-75050367D01*
X74358500Y-74560250D01*
X74358500Y-74029750D01*
X74155487Y-73539633D01*
X73780367Y-73164513D01*
X73443553Y-73025000D01*
X73780367Y-72885487D01*
X74155487Y-72510367D01*
X74295000Y-72173553D01*
X74434513Y-72510367D01*
X74809633Y-72885487D01*
X75299750Y-73088500D01*
X75830250Y-73088500D01*
X76320367Y-72885487D01*
X76695487Y-72510367D01*
X76835000Y-72173553D01*
X76974513Y-72510367D01*
X77349633Y-72885487D01*
X77839750Y-73088500D01*
X78370250Y-73088500D01*
X78860367Y-72885487D01*
X79235487Y-72510367D01*
X79375000Y-72173553D01*
X79514513Y-72510367D01*
X79889633Y-72885487D01*
X80379750Y-73088500D01*
X80910250Y-73088500D01*
X81400367Y-72885487D01*
X81775487Y-72510367D01*
X81915000Y-72173553D01*
X82054513Y-72510367D01*
X82054513Y-72510367D01*
G37*
X82054513Y-72510367D02*
X82429633Y-72885487D01*
X82919750Y-73088500D01*
X83316698Y-73088500D01*
X79797500Y-76607699D01*
X79797500Y-75274411D01*
X79914931Y-75156980D01*
X80072500Y-74776574D01*
X80072500Y-74364826D01*
X79914931Y-73984420D01*
X79623780Y-73693269D01*
X79243374Y-73535700D01*
X78831626Y-73535700D01*
X78451220Y-73693269D01*
X78160069Y-73984420D01*
X78002500Y-74364826D01*
X78002500Y-74776574D01*
X78160069Y-75156980D01*
X78277501Y-75274412D01*
X78277500Y-91685644D01*
X74308018Y-87716163D01*
X74251669Y-87631831D01*
X74214792Y-87607191D01*
X74358500Y-87260250D01*
X74358500Y-86729750D01*
X74155487Y-86239633D01*
X73780367Y-85864513D01*
X73443553Y-85725000D01*
X73780367Y-85585487D01*
X74155487Y-85210367D01*
X74358500Y-84720250D01*
X74358500Y-84189750D01*
X74155487Y-83699633D01*
X73780367Y-83324513D01*
X73443553Y-83185000D01*
X73780367Y-83045487D01*
X74155487Y-82670367D01*
X74358500Y-82180250D01*
X74358500Y-81649750D01*
X74155487Y-81159633D01*
X73780367Y-80784513D01*
X73459789Y-80651725D01*
X73717929Y-80544800D01*
X73779583Y-80309188D01*
X73025000Y-79554605D01*
X73010858Y-79568748D01*
X72831253Y-79389143D01*
X72845395Y-79375000D01*
X73204605Y-79375000D01*
X73959188Y-80129583D01*
X74194800Y-80067929D01*
X74370927Y-79567520D01*
X74342148Y-79037801D01*
X74194800Y-78682071D01*
X73959188Y-78620417D01*
X73204605Y-79375000D01*
X72845395Y-79375000D01*
X72831253Y-79360858D01*
X73010858Y-79181253D01*
X73025000Y-79195395D01*
X73779583Y-78440812D01*
X73717929Y-78205200D01*
X73438816Y-78106962D01*
X73780367Y-77965487D01*
X74155487Y-77590367D01*
X74358500Y-77100250D01*
X74358500Y-76569750D01*
X74155487Y-76079633D01*
X73780367Y-75704513D01*
X73443553Y-75565000D01*
X73780367Y-75425487D01*
X74155487Y-75050367D01*
X74358500Y-74560250D01*
X74358500Y-74029750D01*
X74155487Y-73539633D01*
X73780367Y-73164513D01*
X73443553Y-73025000D01*
X73780367Y-72885487D01*
X74155487Y-72510367D01*
X74295000Y-72173553D01*
X74434513Y-72510367D01*
X74809633Y-72885487D01*
X75299750Y-73088500D01*
X75830250Y-73088500D01*
X76320367Y-72885487D01*
X76695487Y-72510367D01*
X76835000Y-72173553D01*
X76974513Y-72510367D01*
X77349633Y-72885487D01*
X77839750Y-73088500D01*
X78370250Y-73088500D01*
X78860367Y-72885487D01*
X79235487Y-72510367D01*
X79375000Y-72173553D01*
X79514513Y-72510367D01*
X79889633Y-72885487D01*
X80379750Y-73088500D01*
X80910250Y-73088500D01*
X81400367Y-72885487D01*
X81775487Y-72510367D01*
X81915000Y-72173553D01*
X82054513Y-72510367D01*
G36*
X52525800Y-79858002D02*
X52525800Y-80024074D01*
X52683369Y-80404480D01*
X52800801Y-80521912D01*
X52800800Y-89600000D01*
X52641102Y-89600000D01*
X50183700Y-87142599D01*
X50183700Y-77515901D01*
X52525800Y-79858002D01*
X52525800Y-79858002D01*
G37*
X52525800Y-79858002D02*
X52525800Y-80024074D01*
X52683369Y-80404480D01*
X52800801Y-80521912D01*
X52800800Y-89600000D01*
X52641102Y-89600000D01*
X50183700Y-87142599D01*
X50183700Y-77515901D01*
X52525800Y-79858002D01*
G36*
X69151500Y-81656302D02*
X69151500Y-82180250D01*
X69354513Y-82670367D01*
X69729633Y-83045487D01*
X70066447Y-83185000D01*
X69729633Y-83324513D01*
X69354513Y-83699633D01*
X69151500Y-84189750D01*
X69151500Y-84720250D01*
X69354513Y-85210367D01*
X69729633Y-85585487D01*
X70066447Y-85725000D01*
X69729633Y-85864513D01*
X69354513Y-86239633D01*
X69151500Y-86729750D01*
X69151500Y-87260250D01*
X69354513Y-87750367D01*
X69729633Y-88125487D01*
X70066447Y-88265000D01*
X69729633Y-88404513D01*
X69424574Y-88709572D01*
X66913500Y-86198499D01*
X66913500Y-79418301D01*
X69151500Y-81656302D01*
X69151500Y-81656302D01*
G37*
X69151500Y-81656302D02*
X69151500Y-82180250D01*
X69354513Y-82670367D01*
X69729633Y-83045487D01*
X70066447Y-83185000D01*
X69729633Y-83324513D01*
X69354513Y-83699633D01*
X69151500Y-84189750D01*
X69151500Y-84720250D01*
X69354513Y-85210367D01*
X69729633Y-85585487D01*
X70066447Y-85725000D01*
X69729633Y-85864513D01*
X69354513Y-86239633D01*
X69151500Y-86729750D01*
X69151500Y-87260250D01*
X69354513Y-87750367D01*
X69729633Y-88125487D01*
X70066447Y-88265000D01*
X69729633Y-88404513D01*
X69424574Y-88709572D01*
X66913500Y-86198499D01*
X66913500Y-79418301D01*
X69151500Y-81656302D01*
G36*
X96710500Y-77162553D02*
X96695612Y-77237400D01*
X96710500Y-77312247D01*
X96710500Y-77312252D01*
X96738669Y-77453864D01*
X96754597Y-77533937D01*
X96872370Y-77710196D01*
X96922572Y-77785329D01*
X96986027Y-77827729D01*
X97536222Y-78377924D01*
X97294513Y-78619633D01*
X97091500Y-79109750D01*
X97091500Y-79633698D01*
X92853100Y-83872099D01*
X92853100Y-80941701D01*
X96710500Y-77084302D01*
X96710500Y-77162553D01*
X96710500Y-77162553D01*
G37*
X96710500Y-77162553D02*
X96695612Y-77237400D01*
X96710500Y-77312247D01*
X96710500Y-77312252D01*
X96738669Y-77453864D01*
X96754597Y-77533937D01*
X96872370Y-77710196D01*
X96922572Y-77785329D01*
X96986027Y-77827729D01*
X97536222Y-78377924D01*
X97294513Y-78619633D01*
X97091500Y-79109750D01*
X97091500Y-79633698D01*
X92853100Y-83872099D01*
X92853100Y-80941701D01*
X96710500Y-77084302D01*
X96710500Y-77162553D01*
G36*
X90112071Y-72924800D02*
X90612480Y-73100927D01*
X91142199Y-73072148D01*
X91428856Y-72953411D01*
X92058684Y-73583240D01*
X92115031Y-73667569D01*
X92199360Y-73723916D01*
X92199362Y-73723918D01*
X92351087Y-73825297D01*
X92449118Y-73890799D01*
X92743724Y-73949400D01*
X92743729Y-73949400D01*
X92843200Y-73969186D01*
X92942671Y-73949400D01*
X93922498Y-73949400D01*
X87532499Y-80339400D01*
X83764401Y-80339400D01*
X89709473Y-74394329D01*
X89772929Y-74351929D01*
X89877452Y-74195500D01*
X89940904Y-74100538D01*
X89954984Y-74029750D01*
X89985000Y-73878852D01*
X89985000Y-73878848D01*
X89999888Y-73804000D01*
X89985000Y-73729152D01*
X89985000Y-72754608D01*
X90050418Y-72689190D01*
X90112071Y-72924800D01*
X90112071Y-72924800D01*
G37*
X90112071Y-72924800D02*
X90612480Y-73100927D01*
X91142199Y-73072148D01*
X91428856Y-72953411D01*
X92058684Y-73583240D01*
X92115031Y-73667569D01*
X92199360Y-73723916D01*
X92199362Y-73723918D01*
X92351087Y-73825297D01*
X92449118Y-73890799D01*
X92743724Y-73949400D01*
X92743729Y-73949400D01*
X92843200Y-73969186D01*
X92942671Y-73949400D01*
X93922498Y-73949400D01*
X87532499Y-80339400D01*
X83764401Y-80339400D01*
X89709473Y-74394329D01*
X89772929Y-74351929D01*
X89877452Y-74195500D01*
X89940904Y-74100538D01*
X89954984Y-74029750D01*
X89985000Y-73878852D01*
X89985000Y-73878848D01*
X89999888Y-73804000D01*
X89985000Y-73729152D01*
X89985000Y-72754608D01*
X90050418Y-72689190D01*
X90112071Y-72924800D01*
G36*
X101158748Y-74280858D02*
X101144605Y-74295000D01*
X101899188Y-75049583D01*
X102134800Y-74987929D01*
X102310927Y-74487520D01*
X102293015Y-74157816D01*
X104650001Y-76514803D01*
X104650001Y-79436728D01*
X104624473Y-79419671D01*
X102298500Y-77093699D01*
X102298500Y-76569750D01*
X102095487Y-76079633D01*
X101720367Y-75704513D01*
X101399789Y-75571725D01*
X101657929Y-75464800D01*
X101719583Y-75229188D01*
X100965000Y-74474605D01*
X100950858Y-74488748D01*
X100771253Y-74309143D01*
X100785395Y-74295000D01*
X100771253Y-74280858D01*
X100950858Y-74101253D01*
X100965000Y-74115395D01*
X100979143Y-74101253D01*
X101158748Y-74280858D01*
X101158748Y-74280858D01*
G37*
X101158748Y-74280858D02*
X101144605Y-74295000D01*
X101899188Y-75049583D01*
X102134800Y-74987929D01*
X102310927Y-74487520D01*
X102293015Y-74157816D01*
X104650001Y-76514803D01*
X104650001Y-79436728D01*
X104624473Y-79419671D01*
X102298500Y-77093699D01*
X102298500Y-76569750D01*
X102095487Y-76079633D01*
X101720367Y-75704513D01*
X101399789Y-75571725D01*
X101657929Y-75464800D01*
X101719583Y-75229188D01*
X100965000Y-74474605D01*
X100950858Y-74488748D01*
X100771253Y-74309143D01*
X100785395Y-74295000D01*
X100771253Y-74280858D01*
X100950858Y-74101253D01*
X100965000Y-74115395D01*
X100979143Y-74101253D01*
X101158748Y-74280858D01*
G36*
X49336700Y-67875598D02*
X40021900Y-77190399D01*
X40021900Y-72178401D01*
X49336701Y-62863601D01*
X49336700Y-67875598D01*
X49336700Y-67875598D01*
G37*
X49336700Y-67875598D02*
X40021900Y-77190399D01*
X40021900Y-72178401D01*
X49336701Y-62863601D01*
X49336700Y-67875598D01*
G36*
X90968900Y-71711010D02*
X90968900Y-71798990D01*
X90819143Y-71948748D01*
X90805000Y-71934605D01*
X90790858Y-71948748D01*
X90611253Y-71769143D01*
X90625395Y-71755000D01*
X90611253Y-71740858D01*
X90790858Y-71561253D01*
X90805000Y-71575395D01*
X90819143Y-71561253D01*
X90968900Y-71711010D01*
X90968900Y-71711010D01*
G37*
X90968900Y-71711010D02*
X90968900Y-71798990D01*
X90819143Y-71948748D01*
X90805000Y-71934605D01*
X90790858Y-71948748D01*
X90611253Y-71769143D01*
X90625395Y-71755000D01*
X90611253Y-71740858D01*
X90790858Y-71561253D01*
X90805000Y-71575395D01*
X90819143Y-71561253D01*
X90968900Y-71711010D01*
G36*
X77691184Y-70483038D02*
X77349633Y-70624513D01*
X76974513Y-70999633D01*
X76835000Y-71336447D01*
X76751759Y-71135485D01*
X76779469Y-71116969D01*
X76835817Y-71032638D01*
X77382640Y-70485816D01*
X77466969Y-70429469D01*
X77480681Y-70408948D01*
X77691184Y-70483038D01*
X77691184Y-70483038D01*
G37*
X77691184Y-70483038D02*
X77349633Y-70624513D01*
X76974513Y-70999633D01*
X76835000Y-71336447D01*
X76751759Y-71135485D01*
X76779469Y-71116969D01*
X76835817Y-71032638D01*
X77382640Y-70485816D01*
X77466969Y-70429469D01*
X77480681Y-70408948D01*
X77691184Y-70483038D01*
G36*
X78298748Y-69200858D02*
X78284605Y-69215000D01*
X79039188Y-69969583D01*
X79274800Y-69907929D01*
X79373038Y-69628816D01*
X79514513Y-69970367D01*
X79889633Y-70345487D01*
X80226447Y-70485000D01*
X79889633Y-70624513D01*
X79514513Y-70999633D01*
X79375000Y-71336447D01*
X79235487Y-70999633D01*
X78860367Y-70624513D01*
X78539789Y-70491725D01*
X78797929Y-70384800D01*
X78859583Y-70149188D01*
X78105000Y-69394605D01*
X78090858Y-69408748D01*
X77911253Y-69229143D01*
X77925395Y-69215000D01*
X77911253Y-69200858D01*
X78090858Y-69021253D01*
X78105000Y-69035395D01*
X78119143Y-69021253D01*
X78298748Y-69200858D01*
X78298748Y-69200858D01*
G37*
X78298748Y-69200858D02*
X78284605Y-69215000D01*
X79039188Y-69969583D01*
X79274800Y-69907929D01*
X79373038Y-69628816D01*
X79514513Y-69970367D01*
X79889633Y-70345487D01*
X80226447Y-70485000D01*
X79889633Y-70624513D01*
X79514513Y-70999633D01*
X79375000Y-71336447D01*
X79235487Y-70999633D01*
X78860367Y-70624513D01*
X78539789Y-70491725D01*
X78797929Y-70384800D01*
X78859583Y-70149188D01*
X78105000Y-69394605D01*
X78090858Y-69408748D01*
X77911253Y-69229143D01*
X77925395Y-69215000D01*
X77911253Y-69200858D01*
X78090858Y-69021253D01*
X78105000Y-69035395D01*
X78119143Y-69021253D01*
X78298748Y-69200858D01*
G36*
X114499375Y-55045625D02*
X114979358Y-55366340D01*
X100110700Y-70234999D01*
X100110700Y-70215546D01*
X100125588Y-70140699D01*
X100110700Y-70065852D01*
X100110700Y-70065848D01*
X100066604Y-69844163D01*
X100008344Y-69756971D01*
X99941029Y-69656226D01*
X99941027Y-69656224D01*
X99898629Y-69592771D01*
X99835176Y-69550373D01*
X99758500Y-69473697D01*
X99758500Y-68949750D01*
X99555487Y-68459633D01*
X99180367Y-68084513D01*
X98690250Y-67881500D01*
X98159750Y-67881500D01*
X97669633Y-68084513D01*
X97294513Y-68459633D01*
X97155000Y-68796447D01*
X97015487Y-68459633D01*
X96640367Y-68084513D01*
X96150250Y-67881500D01*
X95619750Y-67881500D01*
X95129633Y-68084513D01*
X94754513Y-68459633D01*
X94615000Y-68796447D01*
X94475487Y-68459633D01*
X94100367Y-68084513D01*
X93610250Y-67881500D01*
X93086302Y-67881500D01*
X85604901Y-60400100D01*
X108730053Y-60400100D01*
X108804900Y-60414988D01*
X108879747Y-60400100D01*
X108879752Y-60400100D01*
X109101437Y-60356004D01*
X109352829Y-60188029D01*
X109395231Y-60124570D01*
X114489282Y-55030520D01*
X114499375Y-55045625D01*
X114499375Y-55045625D01*
G37*
X114499375Y-55045625D02*
X114979358Y-55366340D01*
X100110700Y-70234999D01*
X100110700Y-70215546D01*
X100125588Y-70140699D01*
X100110700Y-70065852D01*
X100110700Y-70065848D01*
X100066604Y-69844163D01*
X100008344Y-69756971D01*
X99941029Y-69656226D01*
X99941027Y-69656224D01*
X99898629Y-69592771D01*
X99835176Y-69550373D01*
X99758500Y-69473697D01*
X99758500Y-68949750D01*
X99555487Y-68459633D01*
X99180367Y-68084513D01*
X98690250Y-67881500D01*
X98159750Y-67881500D01*
X97669633Y-68084513D01*
X97294513Y-68459633D01*
X97155000Y-68796447D01*
X97015487Y-68459633D01*
X96640367Y-68084513D01*
X96150250Y-67881500D01*
X95619750Y-67881500D01*
X95129633Y-68084513D01*
X94754513Y-68459633D01*
X94615000Y-68796447D01*
X94475487Y-68459633D01*
X94100367Y-68084513D01*
X93610250Y-67881500D01*
X93086302Y-67881500D01*
X85604901Y-60400100D01*
X108730053Y-60400100D01*
X108804900Y-60414988D01*
X108879747Y-60400100D01*
X108879752Y-60400100D01*
X109101437Y-60356004D01*
X109352829Y-60188029D01*
X109395231Y-60124570D01*
X114489282Y-55030520D01*
X114499375Y-55045625D01*
G36*
X53631900Y-59294211D02*
X53631901Y-68494800D01*
X53541226Y-68494800D01*
X53160820Y-68652369D01*
X52869669Y-68943520D01*
X52712100Y-69323926D01*
X52712100Y-69590955D01*
X52475374Y-69492900D01*
X52309302Y-69492900D01*
X50856700Y-68040299D01*
X50856700Y-61971901D01*
X53583145Y-59245456D01*
X53631900Y-59294211D01*
X53631900Y-59294211D01*
G37*
X53631900Y-59294211D02*
X53631901Y-68494800D01*
X53541226Y-68494800D01*
X53160820Y-68652369D01*
X52869669Y-68943520D01*
X52712100Y-69323926D01*
X52712100Y-69590955D01*
X52475374Y-69492900D01*
X52309302Y-69492900D01*
X50856700Y-68040299D01*
X50856700Y-61971901D01*
X53583145Y-59245456D01*
X53631900Y-59294211D01*
G36*
X59328301Y-69311996D02*
X59036674Y-69191200D01*
X58778100Y-69191200D01*
X58778100Y-61070646D01*
X59145580Y-60918431D01*
X59328300Y-60735711D01*
X59328301Y-69311996D01*
X59328301Y-69311996D01*
G37*
X59328301Y-69311996D02*
X59036674Y-69191200D01*
X58778100Y-69191200D01*
X58778100Y-61070646D01*
X59145580Y-60918431D01*
X59328300Y-60735711D01*
X59328301Y-69311996D01*
G36*
X81906620Y-61582131D02*
X82287026Y-61739700D01*
X82698774Y-61739700D01*
X83079180Y-61582131D01*
X83196611Y-61464700D01*
X84519899Y-61464700D01*
X90936698Y-67881500D01*
X90539750Y-67881500D01*
X90253129Y-68000222D01*
X90178837Y-67950582D01*
X89625518Y-67397263D01*
X89569169Y-67312931D01*
X89235082Y-67089701D01*
X88940476Y-67031100D01*
X88940471Y-67031100D01*
X88841000Y-67011314D01*
X88741529Y-67031100D01*
X84458370Y-67031100D01*
X84358899Y-67011314D01*
X84259428Y-67031100D01*
X84259424Y-67031100D01*
X83964818Y-67089701D01*
X83630731Y-67312931D01*
X83574382Y-67397263D01*
X83185000Y-67786645D01*
X82754217Y-67355862D01*
X82697869Y-67271531D01*
X82363782Y-67048301D01*
X82069176Y-66989700D01*
X82069171Y-66989700D01*
X81969700Y-66969914D01*
X81870229Y-66989700D01*
X77457656Y-66989700D01*
X77191107Y-66723152D01*
X77066107Y-66421374D01*
X76916617Y-66271884D01*
X81756495Y-61432006D01*
X81906620Y-61582131D01*
X81906620Y-61582131D01*
G37*
X81906620Y-61582131D02*
X82287026Y-61739700D01*
X82698774Y-61739700D01*
X83079180Y-61582131D01*
X83196611Y-61464700D01*
X84519899Y-61464700D01*
X90936698Y-67881500D01*
X90539750Y-67881500D01*
X90253129Y-68000222D01*
X90178837Y-67950582D01*
X89625518Y-67397263D01*
X89569169Y-67312931D01*
X89235082Y-67089701D01*
X88940476Y-67031100D01*
X88940471Y-67031100D01*
X88841000Y-67011314D01*
X88741529Y-67031100D01*
X84458370Y-67031100D01*
X84358899Y-67011314D01*
X84259428Y-67031100D01*
X84259424Y-67031100D01*
X83964818Y-67089701D01*
X83630731Y-67312931D01*
X83574382Y-67397263D01*
X83185000Y-67786645D01*
X82754217Y-67355862D01*
X82697869Y-67271531D01*
X82363782Y-67048301D01*
X82069176Y-66989700D01*
X82069171Y-66989700D01*
X81969700Y-66969914D01*
X81870229Y-66989700D01*
X77457656Y-66989700D01*
X77191107Y-66723152D01*
X77066107Y-66421374D01*
X76916617Y-66271884D01*
X81756495Y-61432006D01*
X81906620Y-61582131D01*
G36*
X75830400Y-63528498D02*
X75830400Y-58983500D01*
X80375397Y-58983500D01*
X75830400Y-63528498D01*
X75830400Y-63528498D01*
G37*
X75830400Y-63528498D02*
X75830400Y-58983500D01*
X80375397Y-58983500D01*
X75830400Y-63528498D01*
G36*
X114499375Y-49965625D02*
X114797761Y-50165000D01*
X114499375Y-50364375D01*
X114171161Y-50855582D01*
X114055908Y-51435000D01*
X114171161Y-52014418D01*
X114499375Y-52505625D01*
X114797761Y-52705000D01*
X114499375Y-52904375D01*
X114275984Y-53238703D01*
X114173463Y-53259096D01*
X113922071Y-53427071D01*
X113879671Y-53490527D01*
X108490099Y-58880100D01*
X105559701Y-58880100D01*
X114489282Y-49950520D01*
X114499375Y-49965625D01*
X114499375Y-49965625D01*
G37*
X114499375Y-49965625D02*
X114797761Y-50165000D01*
X114499375Y-50364375D01*
X114171161Y-50855582D01*
X114055908Y-51435000D01*
X114171161Y-52014418D01*
X114499375Y-52505625D01*
X114797761Y-52705000D01*
X114499375Y-52904375D01*
X114275984Y-53238703D01*
X114173463Y-53259096D01*
X113922071Y-53427071D01*
X113879671Y-53490527D01*
X108490099Y-58880100D01*
X105559701Y-58880100D01*
X114489282Y-49950520D01*
X114499375Y-49965625D01*
G04 #@! TD*
M02*
