G04 #@! TF.GenerationSoftware,KiCad,Pcbnew,(5.0.2)-1*
G04 #@! TF.CreationDate,2019-01-03T08:37:26-07:00*
G04 #@! TF.ProjectId,Ethernet,45746865-726e-4657-942e-6b696361645f,rev?*
G04 #@! TF.SameCoordinates,Original*
G04 #@! TF.FileFunction,Legend,Top*
G04 #@! TF.FilePolarity,Positive*
%FSLAX46Y46*%
G04 Gerber Fmt 4.6, Leading zero omitted, Abs format (unit mm)*
G04 Created by KiCad (PCBNEW (5.0.2)-1) date 1/3/2019 8:37:26 AM*
%MOMM*%
%LPD*%
G01*
G04 APERTURE LIST*
%ADD10C,0.300000*%
%ADD11C,0.150000*%
%ADD12C,0.200000*%
%ADD13C,0.120000*%
%ADD14C,0.152400*%
%ADD15C,0.010000*%
%ADD16C,0.254000*%
G04 APERTURE END LIST*
D10*
X118645714Y-116282142D02*
X118717142Y-116353571D01*
X118788571Y-116567857D01*
X118788571Y-116710714D01*
X118717142Y-116925000D01*
X118574285Y-117067857D01*
X118431428Y-117139285D01*
X118145714Y-117210714D01*
X117931428Y-117210714D01*
X117645714Y-117139285D01*
X117502857Y-117067857D01*
X117360000Y-116925000D01*
X117288571Y-116710714D01*
X117288571Y-116567857D01*
X117360000Y-116353571D01*
X117431428Y-116282142D01*
X118788571Y-115639285D02*
X117288571Y-115639285D01*
X118788571Y-114996428D02*
X118002857Y-114996428D01*
X117860000Y-115067857D01*
X117788571Y-115210714D01*
X117788571Y-115425000D01*
X117860000Y-115567857D01*
X117931428Y-115639285D01*
X118717142Y-113710714D02*
X118788571Y-113853571D01*
X118788571Y-114139285D01*
X118717142Y-114282142D01*
X118574285Y-114353571D01*
X118002857Y-114353571D01*
X117860000Y-114282142D01*
X117788571Y-114139285D01*
X117788571Y-113853571D01*
X117860000Y-113710714D01*
X118002857Y-113639285D01*
X118145714Y-113639285D01*
X118288571Y-114353571D01*
X118788571Y-112353571D02*
X118002857Y-112353571D01*
X117860000Y-112425000D01*
X117788571Y-112567857D01*
X117788571Y-112853571D01*
X117860000Y-112996428D01*
X118717142Y-112353571D02*
X118788571Y-112496428D01*
X118788571Y-112853571D01*
X118717142Y-112996428D01*
X118574285Y-113067857D01*
X118431428Y-113067857D01*
X118288571Y-112996428D01*
X118217142Y-112853571D01*
X118217142Y-112496428D01*
X118145714Y-112353571D01*
X117788571Y-111639285D02*
X119288571Y-111639285D01*
X117860000Y-111639285D02*
X117788571Y-111496428D01*
X117788571Y-111210714D01*
X117860000Y-111067857D01*
X117931428Y-110996428D01*
X118074285Y-110925000D01*
X118502857Y-110925000D01*
X118645714Y-110996428D01*
X118717142Y-111067857D01*
X118788571Y-111210714D01*
X118788571Y-111496428D01*
X118717142Y-111639285D01*
X118002857Y-109782142D02*
X118074285Y-109567857D01*
X118145714Y-109496428D01*
X118288571Y-109425000D01*
X118502857Y-109425000D01*
X118645714Y-109496428D01*
X118717142Y-109567857D01*
X118788571Y-109710714D01*
X118788571Y-110282142D01*
X117288571Y-110282142D01*
X117288571Y-109782142D01*
X117360000Y-109639285D01*
X117431428Y-109567857D01*
X117574285Y-109496428D01*
X117717142Y-109496428D01*
X117860000Y-109567857D01*
X117931428Y-109639285D01*
X118002857Y-109782142D01*
X118002857Y-110282142D01*
X117788571Y-108139285D02*
X118788571Y-108139285D01*
X117788571Y-108782142D02*
X118574285Y-108782142D01*
X118717142Y-108710714D01*
X118788571Y-108567857D01*
X118788571Y-108353571D01*
X118717142Y-108210714D01*
X118645714Y-108139285D01*
X118717142Y-107496428D02*
X118788571Y-107353571D01*
X118788571Y-107067857D01*
X118717142Y-106925000D01*
X118574285Y-106853571D01*
X118502857Y-106853571D01*
X118360000Y-106925000D01*
X118288571Y-107067857D01*
X118288571Y-107282142D01*
X118217142Y-107425000D01*
X118074285Y-107496428D01*
X118002857Y-107496428D01*
X117860000Y-107425000D01*
X117788571Y-107282142D01*
X117788571Y-107067857D01*
X117860000Y-106925000D01*
X118002857Y-105067857D02*
X118002857Y-104567857D01*
X118788571Y-104353571D02*
X118788571Y-105067857D01*
X117288571Y-105067857D01*
X117288571Y-104353571D01*
X117788571Y-103925000D02*
X117788571Y-103353571D01*
X117288571Y-103710714D02*
X118574285Y-103710714D01*
X118717142Y-103639285D01*
X118788571Y-103496428D01*
X118788571Y-103353571D01*
X118788571Y-102853571D02*
X117288571Y-102853571D01*
X118788571Y-102210714D02*
X118002857Y-102210714D01*
X117860000Y-102282142D01*
X117788571Y-102425000D01*
X117788571Y-102639285D01*
X117860000Y-102782142D01*
X117931428Y-102853571D01*
X118717142Y-100925000D02*
X118788571Y-101067857D01*
X118788571Y-101353571D01*
X118717142Y-101496428D01*
X118574285Y-101567857D01*
X118002857Y-101567857D01*
X117860000Y-101496428D01*
X117788571Y-101353571D01*
X117788571Y-101067857D01*
X117860000Y-100925000D01*
X118002857Y-100853571D01*
X118145714Y-100853571D01*
X118288571Y-101567857D01*
X118788571Y-100210714D02*
X117788571Y-100210714D01*
X118074285Y-100210714D02*
X117931428Y-100139285D01*
X117860000Y-100067857D01*
X117788571Y-99925000D01*
X117788571Y-99782142D01*
X117788571Y-99282142D02*
X118788571Y-99282142D01*
X117931428Y-99282142D02*
X117860000Y-99210714D01*
X117788571Y-99067857D01*
X117788571Y-98853571D01*
X117860000Y-98710714D01*
X118002857Y-98639285D01*
X118788571Y-98639285D01*
X118717142Y-97353571D02*
X118788571Y-97496428D01*
X118788571Y-97782142D01*
X118717142Y-97925000D01*
X118574285Y-97996428D01*
X118002857Y-97996428D01*
X117860000Y-97925000D01*
X117788571Y-97782142D01*
X117788571Y-97496428D01*
X117860000Y-97353571D01*
X118002857Y-97282142D01*
X118145714Y-97282142D01*
X118288571Y-97996428D01*
X117788571Y-96853571D02*
X117788571Y-96282142D01*
X117288571Y-96639285D02*
X118574285Y-96639285D01*
X118717142Y-96567857D01*
X118788571Y-96425000D01*
X118788571Y-96282142D01*
X117431428Y-92425000D02*
X117360000Y-92353571D01*
X117288571Y-92210714D01*
X117288571Y-91853571D01*
X117360000Y-91710714D01*
X117431428Y-91639285D01*
X117574285Y-91567857D01*
X117717142Y-91567857D01*
X117931428Y-91639285D01*
X118788571Y-92496428D01*
X118788571Y-91567857D01*
X117288571Y-90639285D02*
X117288571Y-90496428D01*
X117360000Y-90353571D01*
X117431428Y-90282142D01*
X117574285Y-90210714D01*
X117860000Y-90139285D01*
X118217142Y-90139285D01*
X118502857Y-90210714D01*
X118645714Y-90282142D01*
X118717142Y-90353571D01*
X118788571Y-90496428D01*
X118788571Y-90639285D01*
X118717142Y-90782142D01*
X118645714Y-90853571D01*
X118502857Y-90925000D01*
X118217142Y-90996428D01*
X117860000Y-90996428D01*
X117574285Y-90925000D01*
X117431428Y-90853571D01*
X117360000Y-90782142D01*
X117288571Y-90639285D01*
X118788571Y-88710714D02*
X118788571Y-89567857D01*
X118788571Y-89139285D02*
X117288571Y-89139285D01*
X117502857Y-89282142D01*
X117645714Y-89425000D01*
X117717142Y-89567857D01*
X117931428Y-87853571D02*
X117860000Y-87996428D01*
X117788571Y-88067857D01*
X117645714Y-88139285D01*
X117574285Y-88139285D01*
X117431428Y-88067857D01*
X117360000Y-87996428D01*
X117288571Y-87853571D01*
X117288571Y-87567857D01*
X117360000Y-87425000D01*
X117431428Y-87353571D01*
X117574285Y-87282142D01*
X117645714Y-87282142D01*
X117788571Y-87353571D01*
X117860000Y-87425000D01*
X117931428Y-87567857D01*
X117931428Y-87853571D01*
X118002857Y-87996428D01*
X118074285Y-88067857D01*
X118217142Y-88139285D01*
X118502857Y-88139285D01*
X118645714Y-88067857D01*
X118717142Y-87996428D01*
X118788571Y-87853571D01*
X118788571Y-87567857D01*
X118717142Y-87425000D01*
X118645714Y-87353571D01*
X118502857Y-87282142D01*
X118217142Y-87282142D01*
X118074285Y-87353571D01*
X118002857Y-87425000D01*
X117931428Y-87567857D01*
X118360000Y-85567857D02*
X118360000Y-84853571D01*
X118788571Y-85710714D02*
X117288571Y-85210714D01*
X118788571Y-84710714D01*
X118002857Y-83710714D02*
X118074285Y-83496428D01*
X118145714Y-83425000D01*
X118288571Y-83353571D01*
X118502857Y-83353571D01*
X118645714Y-83425000D01*
X118717142Y-83496428D01*
X118788571Y-83639285D01*
X118788571Y-84210714D01*
X117288571Y-84210714D01*
X117288571Y-83710714D01*
X117360000Y-83567857D01*
X117431428Y-83496428D01*
X117574285Y-83425000D01*
X117717142Y-83425000D01*
X117860000Y-83496428D01*
X117931428Y-83567857D01*
X118002857Y-83710714D01*
X118002857Y-84210714D01*
X117288571Y-82425000D02*
X117288571Y-82282142D01*
X117360000Y-82139285D01*
X117431428Y-82067857D01*
X117574285Y-81996428D01*
X117860000Y-81925000D01*
X118217142Y-81925000D01*
X118502857Y-81996428D01*
X118645714Y-82067857D01*
X118717142Y-82139285D01*
X118788571Y-82282142D01*
X118788571Y-82425000D01*
X118717142Y-82567857D01*
X118645714Y-82639285D01*
X118502857Y-82710714D01*
X118217142Y-82782142D01*
X117860000Y-82782142D01*
X117574285Y-82710714D01*
X117431428Y-82639285D01*
X117360000Y-82567857D01*
X117288571Y-82425000D01*
X117288571Y-81496428D02*
X117288571Y-80639285D01*
X118788571Y-81067857D02*
X117288571Y-81067857D01*
X117288571Y-79710714D02*
X118360000Y-79710714D01*
X118574285Y-79782142D01*
X118717142Y-79925000D01*
X118788571Y-80139285D01*
X118788571Y-80282142D01*
D11*
X25987380Y-87717380D02*
X26082619Y-87717380D01*
X26177857Y-87765000D01*
X26225476Y-87812619D01*
X26273095Y-87907857D01*
X26320714Y-88098333D01*
X26320714Y-88336428D01*
X26273095Y-88526904D01*
X26225476Y-88622142D01*
X26177857Y-88669761D01*
X26082619Y-88717380D01*
X25987380Y-88717380D01*
X25892142Y-88669761D01*
X25844523Y-88622142D01*
X25796904Y-88526904D01*
X25749285Y-88336428D01*
X25749285Y-88098333D01*
X25796904Y-87907857D01*
X25844523Y-87812619D01*
X25892142Y-87765000D01*
X25987380Y-87717380D01*
X26320714Y-86177380D02*
X25749285Y-86177380D01*
X26035000Y-86177380D02*
X26035000Y-85177380D01*
X25939761Y-85320238D01*
X25844523Y-85415476D01*
X25749285Y-85463095D01*
X25749285Y-82732619D02*
X25796904Y-82685000D01*
X25892142Y-82637380D01*
X26130238Y-82637380D01*
X26225476Y-82685000D01*
X26273095Y-82732619D01*
X26320714Y-82827857D01*
X26320714Y-82923095D01*
X26273095Y-83065952D01*
X25701666Y-83637380D01*
X26320714Y-83637380D01*
X25701666Y-80097380D02*
X26320714Y-80097380D01*
X25987380Y-80478333D01*
X26130238Y-80478333D01*
X26225476Y-80525952D01*
X26273095Y-80573571D01*
X26320714Y-80668809D01*
X26320714Y-80906904D01*
X26273095Y-81002142D01*
X26225476Y-81049761D01*
X26130238Y-81097380D01*
X25844523Y-81097380D01*
X25749285Y-81049761D01*
X25701666Y-81002142D01*
X26225476Y-77890714D02*
X26225476Y-78557380D01*
X25987380Y-77509761D02*
X25749285Y-78224047D01*
X26368333Y-78224047D01*
X26273095Y-75017380D02*
X25796904Y-75017380D01*
X25749285Y-75493571D01*
X25796904Y-75445952D01*
X25892142Y-75398333D01*
X26130238Y-75398333D01*
X26225476Y-75445952D01*
X26273095Y-75493571D01*
X26320714Y-75588809D01*
X26320714Y-75826904D01*
X26273095Y-75922142D01*
X26225476Y-75969761D01*
X26130238Y-76017380D01*
X25892142Y-76017380D01*
X25796904Y-75969761D01*
X25749285Y-75922142D01*
X26225476Y-72477380D02*
X26035000Y-72477380D01*
X25939761Y-72525000D01*
X25892142Y-72572619D01*
X25796904Y-72715476D01*
X25749285Y-72905952D01*
X25749285Y-73286904D01*
X25796904Y-73382142D01*
X25844523Y-73429761D01*
X25939761Y-73477380D01*
X26130238Y-73477380D01*
X26225476Y-73429761D01*
X26273095Y-73382142D01*
X26320714Y-73286904D01*
X26320714Y-73048809D01*
X26273095Y-72953571D01*
X26225476Y-72905952D01*
X26130238Y-72858333D01*
X25939761Y-72858333D01*
X25844523Y-72905952D01*
X25796904Y-72953571D01*
X25749285Y-73048809D01*
X25701666Y-69937380D02*
X26368333Y-69937380D01*
X25939761Y-70937380D01*
D12*
X48895000Y-57150000D02*
X61595000Y-57150000D01*
X28575000Y-57150000D02*
X37465000Y-57150000D01*
D11*
X62150714Y-57316666D02*
X62626904Y-57316666D01*
X62055476Y-57602380D02*
X62388809Y-56602380D01*
X62722142Y-57602380D01*
X62960238Y-56602380D02*
X63579285Y-56602380D01*
X63245952Y-56983333D01*
X63388809Y-56983333D01*
X63484047Y-57030952D01*
X63531666Y-57078571D01*
X63579285Y-57173809D01*
X63579285Y-57411904D01*
X63531666Y-57507142D01*
X63484047Y-57554761D01*
X63388809Y-57602380D01*
X63103095Y-57602380D01*
X63007857Y-57554761D01*
X62960238Y-57507142D01*
X46910714Y-57316666D02*
X47386904Y-57316666D01*
X46815476Y-57602380D02*
X47148809Y-56602380D01*
X47482142Y-57602380D01*
X47863095Y-57602380D02*
X48053571Y-57602380D01*
X48148809Y-57554761D01*
X48196428Y-57507142D01*
X48291666Y-57364285D01*
X48339285Y-57173809D01*
X48339285Y-56792857D01*
X48291666Y-56697619D01*
X48244047Y-56650000D01*
X48148809Y-56602380D01*
X47958333Y-56602380D01*
X47863095Y-56650000D01*
X47815476Y-56697619D01*
X47767857Y-56792857D01*
X47767857Y-57030952D01*
X47815476Y-57126190D01*
X47863095Y-57173809D01*
X47958333Y-57221428D01*
X48148809Y-57221428D01*
X48244047Y-57173809D01*
X48291666Y-57126190D01*
X48339285Y-57030952D01*
X38179523Y-57316666D02*
X38655714Y-57316666D01*
X38084285Y-57602380D02*
X38417619Y-56602380D01*
X38750952Y-57602380D01*
X39608095Y-57602380D02*
X39036666Y-57602380D01*
X39322380Y-57602380D02*
X39322380Y-56602380D01*
X39227142Y-56745238D01*
X39131904Y-56840476D01*
X39036666Y-56888095D01*
X40227142Y-56602380D02*
X40322380Y-56602380D01*
X40417619Y-56650000D01*
X40465238Y-56697619D01*
X40512857Y-56792857D01*
X40560476Y-56983333D01*
X40560476Y-57221428D01*
X40512857Y-57411904D01*
X40465238Y-57507142D01*
X40417619Y-57554761D01*
X40322380Y-57602380D01*
X40227142Y-57602380D01*
X40131904Y-57554761D01*
X40084285Y-57507142D01*
X40036666Y-57411904D01*
X39989047Y-57221428D01*
X39989047Y-56983333D01*
X40036666Y-56792857D01*
X40084285Y-56697619D01*
X40131904Y-56650000D01*
X40227142Y-56602380D01*
X25479523Y-57316666D02*
X25955714Y-57316666D01*
X25384285Y-57602380D02*
X25717619Y-56602380D01*
X26050952Y-57602380D01*
X26908095Y-57602380D02*
X26336666Y-57602380D01*
X26622380Y-57602380D02*
X26622380Y-56602380D01*
X26527142Y-56745238D01*
X26431904Y-56840476D01*
X26336666Y-56888095D01*
X27812857Y-56602380D02*
X27336666Y-56602380D01*
X27289047Y-57078571D01*
X27336666Y-57030952D01*
X27431904Y-56983333D01*
X27670000Y-56983333D01*
X27765238Y-57030952D01*
X27812857Y-57078571D01*
X27860476Y-57173809D01*
X27860476Y-57411904D01*
X27812857Y-57507142D01*
X27765238Y-57554761D01*
X27670000Y-57602380D01*
X27431904Y-57602380D01*
X27336666Y-57554761D01*
X27289047Y-57507142D01*
D10*
X89964285Y-41088571D02*
X90321428Y-42588571D01*
X90607142Y-41517142D01*
X90892857Y-42588571D01*
X91250000Y-41088571D01*
X91821428Y-42588571D02*
X91821428Y-41088571D01*
X92392857Y-41088571D02*
X93392857Y-41088571D01*
X92392857Y-42588571D01*
X93392857Y-42588571D01*
X94178571Y-41731428D02*
X94035714Y-41660000D01*
X93964285Y-41588571D01*
X93892857Y-41445714D01*
X93892857Y-41374285D01*
X93964285Y-41231428D01*
X94035714Y-41160000D01*
X94178571Y-41088571D01*
X94464285Y-41088571D01*
X94607142Y-41160000D01*
X94678571Y-41231428D01*
X94750000Y-41374285D01*
X94750000Y-41445714D01*
X94678571Y-41588571D01*
X94607142Y-41660000D01*
X94464285Y-41731428D01*
X94178571Y-41731428D01*
X94035714Y-41802857D01*
X93964285Y-41874285D01*
X93892857Y-42017142D01*
X93892857Y-42302857D01*
X93964285Y-42445714D01*
X94035714Y-42517142D01*
X94178571Y-42588571D01*
X94464285Y-42588571D01*
X94607142Y-42517142D01*
X94678571Y-42445714D01*
X94750000Y-42302857D01*
X94750000Y-42017142D01*
X94678571Y-41874285D01*
X94607142Y-41802857D01*
X94464285Y-41731428D01*
X95250000Y-41088571D02*
X96178571Y-41088571D01*
X95678571Y-41660000D01*
X95892857Y-41660000D01*
X96035714Y-41731428D01*
X96107142Y-41802857D01*
X96178571Y-41945714D01*
X96178571Y-42302857D01*
X96107142Y-42445714D01*
X96035714Y-42517142D01*
X95892857Y-42588571D01*
X95464285Y-42588571D01*
X95321428Y-42517142D01*
X95250000Y-42445714D01*
X97107142Y-41088571D02*
X97250000Y-41088571D01*
X97392857Y-41160000D01*
X97464285Y-41231428D01*
X97535714Y-41374285D01*
X97607142Y-41660000D01*
X97607142Y-42017142D01*
X97535714Y-42302857D01*
X97464285Y-42445714D01*
X97392857Y-42517142D01*
X97250000Y-42588571D01*
X97107142Y-42588571D01*
X96964285Y-42517142D01*
X96892857Y-42445714D01*
X96821428Y-42302857D01*
X96750000Y-42017142D01*
X96750000Y-41660000D01*
X96821428Y-41374285D01*
X96892857Y-41231428D01*
X96964285Y-41160000D01*
X97107142Y-41088571D01*
X98250000Y-42588571D02*
X98250000Y-41088571D01*
X98750000Y-42160000D01*
X99250000Y-41088571D01*
X99250000Y-42588571D01*
X100392857Y-41088571D02*
X100392857Y-42160000D01*
X100321428Y-42374285D01*
X100178571Y-42517142D01*
X99964285Y-42588571D01*
X99821428Y-42588571D01*
D13*
G04 #@! TO.C,U4*
X41215000Y-68470000D02*
X41215000Y-70120000D01*
X66735000Y-68470000D02*
X41215000Y-68470000D01*
X66735000Y-73770000D02*
X66735000Y-68470000D01*
X41215000Y-73770000D02*
X66735000Y-73770000D01*
X41215000Y-72120000D02*
X41215000Y-73770000D01*
X41215000Y-70120000D02*
G75*
G02X41215000Y-72120000I0J-1000000D01*
G01*
G04 #@! TO.C,SW2*
X38735000Y-50800000D02*
X40005000Y-50800000D01*
X38735000Y-48770000D02*
X38735000Y-52830000D01*
X40005000Y-48770000D02*
X38735000Y-48770000D01*
X40005000Y-52830000D02*
X40005000Y-48770000D01*
X38735000Y-52830000D02*
X40005000Y-52830000D01*
X36195000Y-50800000D02*
X37465000Y-50800000D01*
X36195000Y-48770000D02*
X36195000Y-52830000D01*
X37465000Y-48770000D02*
X36195000Y-48770000D01*
X37465000Y-52830000D02*
X37465000Y-48770000D01*
X36195000Y-52830000D02*
X37465000Y-52830000D01*
X33655000Y-50800000D02*
X34925000Y-50800000D01*
X33655000Y-48770000D02*
X33655000Y-52830000D01*
X34925000Y-48770000D02*
X33655000Y-48770000D01*
X34925000Y-52830000D02*
X34925000Y-48770000D01*
X33655000Y-52830000D02*
X34925000Y-52830000D01*
X31115000Y-50800000D02*
X32385000Y-50800000D01*
X31115000Y-48770000D02*
X31115000Y-52830000D01*
X32385000Y-48770000D02*
X31115000Y-48770000D01*
X32385000Y-52830000D02*
X32385000Y-48770000D01*
X31115000Y-52830000D02*
X32385000Y-52830000D01*
X28575000Y-50800000D02*
X29845000Y-50800000D01*
X28575000Y-48770000D02*
X28575000Y-52830000D01*
X29845000Y-48770000D02*
X28575000Y-48770000D01*
X29845000Y-52830000D02*
X29845000Y-48770000D01*
X28575000Y-52830000D02*
X29845000Y-52830000D01*
X26035000Y-50800000D02*
X27305000Y-50800000D01*
X26035000Y-48770000D02*
X26035000Y-52830000D01*
X27305000Y-48770000D02*
X26035000Y-48770000D01*
X27305000Y-52830000D02*
X27305000Y-48770000D01*
X26035000Y-52830000D02*
X27305000Y-52830000D01*
X41850000Y-55810000D02*
X24190000Y-55810000D01*
X41850000Y-45790000D02*
X41850000Y-55810000D01*
X24190000Y-45790000D02*
X41850000Y-45790000D01*
X24190000Y-55810000D02*
X24190000Y-45790000D01*
X23990000Y-56010000D02*
X23990000Y-53470000D01*
X23990000Y-56010000D02*
X25260000Y-56010000D01*
G04 #@! TO.C,SW1*
X62230000Y-50800000D02*
X63500000Y-50800000D01*
X62230000Y-48770000D02*
X62230000Y-52830000D01*
X63500000Y-48770000D02*
X62230000Y-48770000D01*
X63500000Y-52830000D02*
X63500000Y-48770000D01*
X62230000Y-52830000D02*
X63500000Y-52830000D01*
X59690000Y-50800000D02*
X60960000Y-50800000D01*
X59690000Y-48770000D02*
X59690000Y-52830000D01*
X60960000Y-48770000D02*
X59690000Y-48770000D01*
X60960000Y-52830000D02*
X60960000Y-48770000D01*
X59690000Y-52830000D02*
X60960000Y-52830000D01*
X57150000Y-50800000D02*
X58420000Y-50800000D01*
X57150000Y-48770000D02*
X57150000Y-52830000D01*
X58420000Y-48770000D02*
X57150000Y-48770000D01*
X58420000Y-52830000D02*
X58420000Y-48770000D01*
X57150000Y-52830000D02*
X58420000Y-52830000D01*
X54610000Y-50800000D02*
X55880000Y-50800000D01*
X54610000Y-48770000D02*
X54610000Y-52830000D01*
X55880000Y-48770000D02*
X54610000Y-48770000D01*
X55880000Y-52830000D02*
X55880000Y-48770000D01*
X54610000Y-52830000D02*
X55880000Y-52830000D01*
X52070000Y-50800000D02*
X53340000Y-50800000D01*
X52070000Y-48770000D02*
X52070000Y-52830000D01*
X53340000Y-48770000D02*
X52070000Y-48770000D01*
X53340000Y-52830000D02*
X53340000Y-48770000D01*
X52070000Y-52830000D02*
X53340000Y-52830000D01*
X49530000Y-50800000D02*
X50800000Y-50800000D01*
X49530000Y-48770000D02*
X49530000Y-52830000D01*
X50800000Y-48770000D02*
X49530000Y-48770000D01*
X50800000Y-52830000D02*
X50800000Y-48770000D01*
X49530000Y-52830000D02*
X50800000Y-52830000D01*
X46990000Y-50800000D02*
X48260000Y-50800000D01*
X46990000Y-48770000D02*
X46990000Y-52830000D01*
X48260000Y-48770000D02*
X46990000Y-48770000D01*
X48260000Y-52830000D02*
X48260000Y-48770000D01*
X46990000Y-52830000D02*
X48260000Y-52830000D01*
X65345000Y-55810000D02*
X45145000Y-55810000D01*
X65345000Y-45790000D02*
X65345000Y-55810000D01*
X45145000Y-45790000D02*
X65345000Y-45790000D01*
X45145000Y-55810000D02*
X45145000Y-45790000D01*
X44945000Y-56010000D02*
X44945000Y-53470000D01*
X44945000Y-56010000D02*
X46215000Y-56010000D01*
G04 #@! TO.C,C1*
X111148269Y-101690033D02*
G75*
G03X105981746Y-101690000I-2583269J-1179967D01*
G01*
X111148269Y-104049967D02*
G75*
G02X105981746Y-104050000I-2583269J1179967D01*
G01*
X111148269Y-104049967D02*
G75*
G03X111148254Y-101690000I-2583269J1179967D01*
G01*
X105115000Y-102870000D02*
X106315000Y-102870000D01*
X105715000Y-102220000D02*
X105715000Y-103520000D01*
G04 #@! TO.C,C7*
X33945000Y-103520000D02*
X33945000Y-102220000D01*
X34545000Y-102870000D02*
X33345000Y-102870000D01*
X28511731Y-101690033D02*
G75*
G03X28511746Y-104050000I2583269J-1179967D01*
G01*
X28511731Y-101690033D02*
G75*
G02X33678254Y-101690000I2583269J-1179967D01*
G01*
X28511731Y-104049967D02*
G75*
G03X33678254Y-104050000I2583269J1179967D01*
G01*
G04 #@! TO.C,C9*
X73251000Y-80713000D02*
X73251000Y-81887000D01*
X71529000Y-80713000D02*
X71529000Y-81887000D01*
G04 #@! TO.C,C3*
X112463000Y-23721000D02*
X113637000Y-23721000D01*
X112463000Y-21999000D02*
X113637000Y-21999000D01*
G04 #@! TO.C,C4*
X39596000Y-93373000D02*
X39596000Y-94547000D01*
X37874000Y-93373000D02*
X37874000Y-94547000D01*
G04 #@! TO.C,C5*
X37874000Y-67973000D02*
X37874000Y-69147000D01*
X39596000Y-67973000D02*
X39596000Y-69147000D01*
G04 #@! TO.C,C6*
X39596000Y-80673000D02*
X39596000Y-81847000D01*
X37874000Y-80673000D02*
X37874000Y-81847000D01*
G04 #@! TO.C,C8*
X71529000Y-67973000D02*
X71529000Y-69147000D01*
X73251000Y-67973000D02*
X73251000Y-69147000D01*
G04 #@! TO.C,C10*
X73251000Y-93373000D02*
X73251000Y-94547000D01*
X71529000Y-93373000D02*
X71529000Y-94547000D01*
G04 #@! TO.C,C2*
X112463000Y-63091000D02*
X113637000Y-63091000D01*
X112463000Y-61369000D02*
X113637000Y-61369000D01*
G04 #@! TO.C,U5*
X74870000Y-81170000D02*
X74870000Y-82820000D01*
X100390000Y-81170000D02*
X74870000Y-81170000D01*
X100390000Y-86470000D02*
X100390000Y-81170000D01*
X74870000Y-86470000D02*
X100390000Y-86470000D01*
X74870000Y-84820000D02*
X74870000Y-86470000D01*
X74870000Y-82820000D02*
G75*
G02X74870000Y-84820000I0J-1000000D01*
G01*
G04 #@! TO.C,U3*
X74870000Y-95520000D02*
G75*
G02X74870000Y-97520000I0J-1000000D01*
G01*
X74870000Y-97520000D02*
X74870000Y-99170000D01*
X74870000Y-99170000D02*
X100390000Y-99170000D01*
X100390000Y-99170000D02*
X100390000Y-93870000D01*
X100390000Y-93870000D02*
X74870000Y-93870000D01*
X74870000Y-93870000D02*
X74870000Y-95520000D01*
G04 #@! TO.C,U2*
X41215000Y-93870000D02*
X41215000Y-95520000D01*
X66735000Y-93870000D02*
X41215000Y-93870000D01*
X66735000Y-99170000D02*
X66735000Y-93870000D01*
X41215000Y-99170000D02*
X66735000Y-99170000D01*
X41215000Y-97520000D02*
X41215000Y-99170000D01*
X41215000Y-95520000D02*
G75*
G02X41215000Y-97520000I0J-1000000D01*
G01*
G04 #@! TO.C,U1*
X41215000Y-82820000D02*
G75*
G02X41215000Y-84820000I0J-1000000D01*
G01*
X41215000Y-84820000D02*
X41215000Y-86470000D01*
X41215000Y-86470000D02*
X66735000Y-86470000D01*
X66735000Y-86470000D02*
X66735000Y-81170000D01*
X66735000Y-81170000D02*
X41215000Y-81170000D01*
X41215000Y-81170000D02*
X41215000Y-82820000D01*
G04 #@! TO.C,U6*
X74870000Y-68470000D02*
X74870000Y-70120000D01*
X100390000Y-68470000D02*
X74870000Y-68470000D01*
X100390000Y-73770000D02*
X100390000Y-68470000D01*
X74870000Y-73770000D02*
X100390000Y-73770000D01*
X74870000Y-72120000D02*
X74870000Y-73770000D01*
X74870000Y-70120000D02*
G75*
G02X74870000Y-72120000I0J-1000000D01*
G01*
G04 #@! TO.C,D5*
X52415000Y-25210000D02*
X52415000Y-25366000D01*
X52415000Y-22894000D02*
X52415000Y-23050000D01*
X55016130Y-25209837D02*
G75*
G02X52934039Y-25210000I-1041130J1079837D01*
G01*
X55016130Y-23050163D02*
G75*
G03X52934039Y-23050000I-1041130J-1079837D01*
G01*
X55647335Y-25208608D02*
G75*
G02X52415000Y-25365516I-1672335J1078608D01*
G01*
X55647335Y-23051392D02*
G75*
G03X52415000Y-22894484I-1672335J-1078608D01*
G01*
G04 #@! TO.C,D1*
X32787335Y-23051392D02*
G75*
G03X29555000Y-22894484I-1672335J-1078608D01*
G01*
X32787335Y-25208608D02*
G75*
G02X29555000Y-25365516I-1672335J1078608D01*
G01*
X32156130Y-23050163D02*
G75*
G03X30074039Y-23050000I-1041130J-1079837D01*
G01*
X32156130Y-25209837D02*
G75*
G02X30074039Y-25210000I-1041130J1079837D01*
G01*
X29555000Y-22894000D02*
X29555000Y-23050000D01*
X29555000Y-25210000D02*
X29555000Y-25366000D01*
G04 #@! TO.C,D2*
X35270000Y-25210000D02*
X35270000Y-25366000D01*
X35270000Y-22894000D02*
X35270000Y-23050000D01*
X37871130Y-25209837D02*
G75*
G02X35789039Y-25210000I-1041130J1079837D01*
G01*
X37871130Y-23050163D02*
G75*
G03X35789039Y-23050000I-1041130J-1079837D01*
G01*
X38502335Y-25208608D02*
G75*
G02X35270000Y-25365516I-1672335J1078608D01*
G01*
X38502335Y-23051392D02*
G75*
G03X35270000Y-22894484I-1672335J-1078608D01*
G01*
G04 #@! TO.C,D3*
X44217335Y-23051392D02*
G75*
G03X40985000Y-22894484I-1672335J-1078608D01*
G01*
X44217335Y-25208608D02*
G75*
G02X40985000Y-25365516I-1672335J1078608D01*
G01*
X43586130Y-23050163D02*
G75*
G03X41504039Y-23050000I-1041130J-1079837D01*
G01*
X43586130Y-25209837D02*
G75*
G02X41504039Y-25210000I-1041130J1079837D01*
G01*
X40985000Y-22894000D02*
X40985000Y-23050000D01*
X40985000Y-25210000D02*
X40985000Y-25366000D01*
G04 #@! TO.C,D4*
X46700000Y-25210000D02*
X46700000Y-25366000D01*
X46700000Y-22894000D02*
X46700000Y-23050000D01*
X49301130Y-25209837D02*
G75*
G02X47219039Y-25210000I-1041130J1079837D01*
G01*
X49301130Y-23050163D02*
G75*
G03X47219039Y-23050000I-1041130J-1079837D01*
G01*
X49932335Y-25208608D02*
G75*
G02X46700000Y-25365516I-1672335J1078608D01*
G01*
X49932335Y-23051392D02*
G75*
G03X46700000Y-22894484I-1672335J-1078608D01*
G01*
G04 #@! TO.C,JP1*
X109795000Y-93405000D02*
X112455000Y-93405000D01*
X109795000Y-90805000D02*
X109795000Y-93405000D01*
X112455000Y-90805000D02*
X112455000Y-93405000D01*
X109795000Y-90805000D02*
X112455000Y-90805000D01*
X109795000Y-89535000D02*
X109795000Y-88205000D01*
X109795000Y-88205000D02*
X111125000Y-88205000D01*
G04 #@! TO.C,JP2*
X105350000Y-88205000D02*
X106680000Y-88205000D01*
X105350000Y-89535000D02*
X105350000Y-88205000D01*
X105350000Y-90805000D02*
X108010000Y-90805000D01*
X108010000Y-90805000D02*
X108010000Y-93405000D01*
X105350000Y-90805000D02*
X105350000Y-93405000D01*
X105350000Y-93405000D02*
X108010000Y-93405000D01*
G04 #@! TO.C,J4*
X27245000Y-69155000D02*
X28575000Y-69155000D01*
X27245000Y-70485000D02*
X27245000Y-69155000D01*
X29845000Y-69155000D02*
X32445000Y-69155000D01*
X29845000Y-71755000D02*
X29845000Y-69155000D01*
X27245000Y-71755000D02*
X29845000Y-71755000D01*
X32445000Y-69155000D02*
X32445000Y-89595000D01*
X27245000Y-71755000D02*
X27245000Y-89595000D01*
X27245000Y-89595000D02*
X32445000Y-89595000D01*
G04 #@! TO.C,J2*
X77410000Y-25975000D02*
X77410000Y-31175000D01*
X110490000Y-25975000D02*
X77410000Y-25975000D01*
X113090000Y-31175000D02*
X77410000Y-31175000D01*
X110490000Y-25975000D02*
X110490000Y-28575000D01*
X110490000Y-28575000D02*
X113090000Y-28575000D01*
X113090000Y-28575000D02*
X113090000Y-31175000D01*
X111760000Y-25975000D02*
X113090000Y-25975000D01*
X113090000Y-25975000D02*
X113090000Y-27305000D01*
G04 #@! TO.C,J3*
X113090000Y-53915000D02*
X113090000Y-55245000D01*
X111760000Y-53915000D02*
X113090000Y-53915000D01*
X113090000Y-56515000D02*
X113090000Y-59115000D01*
X110490000Y-56515000D02*
X113090000Y-56515000D01*
X110490000Y-53915000D02*
X110490000Y-56515000D01*
X113090000Y-59115000D02*
X77410000Y-59115000D01*
X110490000Y-53915000D02*
X77410000Y-53915000D01*
X77410000Y-53915000D02*
X77410000Y-59115000D01*
G04 #@! TO.C,R4*
X40605000Y-31710000D02*
X40605000Y-34330000D01*
X40605000Y-34330000D02*
X47025000Y-34330000D01*
X47025000Y-34330000D02*
X47025000Y-31710000D01*
X47025000Y-31710000D02*
X40605000Y-31710000D01*
X39715000Y-33020000D02*
X40605000Y-33020000D01*
X47915000Y-33020000D02*
X47025000Y-33020000D01*
G04 #@! TO.C,R5*
X47915000Y-36830000D02*
X47025000Y-36830000D01*
X39715000Y-36830000D02*
X40605000Y-36830000D01*
X47025000Y-35520000D02*
X40605000Y-35520000D01*
X47025000Y-38140000D02*
X47025000Y-35520000D01*
X40605000Y-38140000D02*
X47025000Y-38140000D01*
X40605000Y-35520000D02*
X40605000Y-38140000D01*
G04 #@! TO.C,R6*
X53940000Y-31710000D02*
X53940000Y-34330000D01*
X53940000Y-34330000D02*
X60360000Y-34330000D01*
X60360000Y-34330000D02*
X60360000Y-31710000D01*
X60360000Y-31710000D02*
X53940000Y-31710000D01*
X53050000Y-33020000D02*
X53940000Y-33020000D01*
X61250000Y-33020000D02*
X60360000Y-33020000D01*
G04 #@! TO.C,R1*
X81570000Y-104775000D02*
X80680000Y-104775000D01*
X73370000Y-104775000D02*
X74260000Y-104775000D01*
X80680000Y-103465000D02*
X74260000Y-103465000D01*
X80680000Y-106085000D02*
X80680000Y-103465000D01*
X74260000Y-106085000D02*
X80680000Y-106085000D01*
X74260000Y-103465000D02*
X74260000Y-106085000D01*
G04 #@! TO.C,R2*
X27270000Y-31710000D02*
X27270000Y-34330000D01*
X27270000Y-34330000D02*
X33690000Y-34330000D01*
X33690000Y-34330000D02*
X33690000Y-31710000D01*
X33690000Y-31710000D02*
X27270000Y-31710000D01*
X26380000Y-33020000D02*
X27270000Y-33020000D01*
X34580000Y-33020000D02*
X33690000Y-33020000D01*
G04 #@! TO.C,R3*
X34580000Y-36830000D02*
X33690000Y-36830000D01*
X26380000Y-36830000D02*
X27270000Y-36830000D01*
X33690000Y-35520000D02*
X27270000Y-35520000D01*
X33690000Y-38140000D02*
X33690000Y-35520000D01*
X27270000Y-38140000D02*
X33690000Y-38140000D01*
X27270000Y-35520000D02*
X27270000Y-38140000D01*
D14*
G04 #@! TO.C,J1*
X112395000Y-126111000D02*
X112395000Y-119176800D01*
X27305000Y-126111000D02*
X112395000Y-126111000D01*
X27305000Y-119176800D02*
X27305000Y-126111000D01*
X111150400Y-118618000D02*
X28549600Y-118618000D01*
X114249200Y-118618000D02*
X114249200Y-110388400D01*
X25450800Y-118618000D02*
X26060400Y-118618000D01*
X25450800Y-110388400D02*
X25450800Y-118618000D01*
X114249200Y-110388400D02*
X25450800Y-110388400D01*
X113639600Y-118618000D02*
X114249200Y-118618000D01*
D15*
G04 #@! TO.C,REF\002A\002A\002A*
G36*
X21729744Y-25414918D02*
X21785201Y-25442568D01*
X21834148Y-25493480D01*
X21847629Y-25512338D01*
X21862314Y-25537015D01*
X21871842Y-25563816D01*
X21877293Y-25599587D01*
X21879747Y-25651169D01*
X21880286Y-25719267D01*
X21877852Y-25812588D01*
X21869394Y-25882657D01*
X21853174Y-25934931D01*
X21827454Y-25974869D01*
X21790497Y-26007929D01*
X21787782Y-26009886D01*
X21751360Y-26029908D01*
X21707502Y-26039815D01*
X21651724Y-26042257D01*
X21561048Y-26042257D01*
X21561010Y-26130283D01*
X21560166Y-26179308D01*
X21555024Y-26208065D01*
X21541587Y-26225311D01*
X21515858Y-26239808D01*
X21509679Y-26242769D01*
X21480764Y-26256648D01*
X21458376Y-26265414D01*
X21441729Y-26266171D01*
X21430036Y-26256023D01*
X21422510Y-26232073D01*
X21418366Y-26191426D01*
X21416815Y-26131186D01*
X21417071Y-26048455D01*
X21418349Y-25940339D01*
X21418748Y-25908000D01*
X21420185Y-25796524D01*
X21421472Y-25723603D01*
X21560971Y-25723603D01*
X21561755Y-25785499D01*
X21565240Y-25825997D01*
X21573124Y-25852708D01*
X21587105Y-25873244D01*
X21596597Y-25883260D01*
X21635404Y-25912567D01*
X21669763Y-25914952D01*
X21705216Y-25890750D01*
X21706114Y-25889857D01*
X21720539Y-25871153D01*
X21729313Y-25845732D01*
X21733739Y-25806584D01*
X21735118Y-25746697D01*
X21735143Y-25733430D01*
X21731812Y-25650901D01*
X21720969Y-25593691D01*
X21701340Y-25558766D01*
X21671650Y-25543094D01*
X21654491Y-25541514D01*
X21613766Y-25548926D01*
X21585832Y-25573330D01*
X21569017Y-25617980D01*
X21561650Y-25686130D01*
X21560971Y-25723603D01*
X21421472Y-25723603D01*
X21421708Y-25710245D01*
X21423677Y-25645333D01*
X21426450Y-25597958D01*
X21430388Y-25564290D01*
X21435849Y-25540498D01*
X21443192Y-25522753D01*
X21452777Y-25507224D01*
X21456887Y-25501381D01*
X21511405Y-25446185D01*
X21580336Y-25414890D01*
X21660072Y-25406165D01*
X21729744Y-25414918D01*
X21729744Y-25414918D01*
G37*
X21729744Y-25414918D02*
X21785201Y-25442568D01*
X21834148Y-25493480D01*
X21847629Y-25512338D01*
X21862314Y-25537015D01*
X21871842Y-25563816D01*
X21877293Y-25599587D01*
X21879747Y-25651169D01*
X21880286Y-25719267D01*
X21877852Y-25812588D01*
X21869394Y-25882657D01*
X21853174Y-25934931D01*
X21827454Y-25974869D01*
X21790497Y-26007929D01*
X21787782Y-26009886D01*
X21751360Y-26029908D01*
X21707502Y-26039815D01*
X21651724Y-26042257D01*
X21561048Y-26042257D01*
X21561010Y-26130283D01*
X21560166Y-26179308D01*
X21555024Y-26208065D01*
X21541587Y-26225311D01*
X21515858Y-26239808D01*
X21509679Y-26242769D01*
X21480764Y-26256648D01*
X21458376Y-26265414D01*
X21441729Y-26266171D01*
X21430036Y-26256023D01*
X21422510Y-26232073D01*
X21418366Y-26191426D01*
X21416815Y-26131186D01*
X21417071Y-26048455D01*
X21418349Y-25940339D01*
X21418748Y-25908000D01*
X21420185Y-25796524D01*
X21421472Y-25723603D01*
X21560971Y-25723603D01*
X21561755Y-25785499D01*
X21565240Y-25825997D01*
X21573124Y-25852708D01*
X21587105Y-25873244D01*
X21596597Y-25883260D01*
X21635404Y-25912567D01*
X21669763Y-25914952D01*
X21705216Y-25890750D01*
X21706114Y-25889857D01*
X21720539Y-25871153D01*
X21729313Y-25845732D01*
X21733739Y-25806584D01*
X21735118Y-25746697D01*
X21735143Y-25733430D01*
X21731812Y-25650901D01*
X21720969Y-25593691D01*
X21701340Y-25558766D01*
X21671650Y-25543094D01*
X21654491Y-25541514D01*
X21613766Y-25548926D01*
X21585832Y-25573330D01*
X21569017Y-25617980D01*
X21561650Y-25686130D01*
X21560971Y-25723603D01*
X21421472Y-25723603D01*
X21421708Y-25710245D01*
X21423677Y-25645333D01*
X21426450Y-25597958D01*
X21430388Y-25564290D01*
X21435849Y-25540498D01*
X21443192Y-25522753D01*
X21452777Y-25507224D01*
X21456887Y-25501381D01*
X21511405Y-25446185D01*
X21580336Y-25414890D01*
X21660072Y-25406165D01*
X21729744Y-25414918D01*
G36*
X22846093Y-25422780D02*
X22892672Y-25449723D01*
X22925057Y-25476466D01*
X22948742Y-25504484D01*
X22965059Y-25538748D01*
X22975339Y-25584227D01*
X22980914Y-25645892D01*
X22983116Y-25728711D01*
X22983371Y-25788246D01*
X22983371Y-26007391D01*
X22921686Y-26035044D01*
X22860000Y-26062697D01*
X22852743Y-25822670D01*
X22849744Y-25733028D01*
X22846598Y-25667962D01*
X22842701Y-25623026D01*
X22837447Y-25593770D01*
X22830231Y-25575748D01*
X22820450Y-25564511D01*
X22817312Y-25562079D01*
X22769761Y-25543083D01*
X22721697Y-25550600D01*
X22693086Y-25570543D01*
X22681447Y-25584675D01*
X22673391Y-25603220D01*
X22668271Y-25631334D01*
X22665441Y-25674173D01*
X22664256Y-25736895D01*
X22664057Y-25802261D01*
X22664018Y-25884268D01*
X22662614Y-25942316D01*
X22657914Y-25981465D01*
X22647987Y-26006780D01*
X22630903Y-26023323D01*
X22604732Y-26036156D01*
X22569775Y-26049491D01*
X22531596Y-26064007D01*
X22536141Y-25806389D01*
X22537971Y-25713519D01*
X22540112Y-25644889D01*
X22543181Y-25595711D01*
X22547794Y-25561198D01*
X22554568Y-25536562D01*
X22564119Y-25517016D01*
X22575634Y-25499770D01*
X22631190Y-25444680D01*
X22698980Y-25412822D01*
X22772713Y-25405191D01*
X22846093Y-25422780D01*
X22846093Y-25422780D01*
G37*
X22846093Y-25422780D02*
X22892672Y-25449723D01*
X22925057Y-25476466D01*
X22948742Y-25504484D01*
X22965059Y-25538748D01*
X22975339Y-25584227D01*
X22980914Y-25645892D01*
X22983116Y-25728711D01*
X22983371Y-25788246D01*
X22983371Y-26007391D01*
X22921686Y-26035044D01*
X22860000Y-26062697D01*
X22852743Y-25822670D01*
X22849744Y-25733028D01*
X22846598Y-25667962D01*
X22842701Y-25623026D01*
X22837447Y-25593770D01*
X22830231Y-25575748D01*
X22820450Y-25564511D01*
X22817312Y-25562079D01*
X22769761Y-25543083D01*
X22721697Y-25550600D01*
X22693086Y-25570543D01*
X22681447Y-25584675D01*
X22673391Y-25603220D01*
X22668271Y-25631334D01*
X22665441Y-25674173D01*
X22664256Y-25736895D01*
X22664057Y-25802261D01*
X22664018Y-25884268D01*
X22662614Y-25942316D01*
X22657914Y-25981465D01*
X22647987Y-26006780D01*
X22630903Y-26023323D01*
X22604732Y-26036156D01*
X22569775Y-26049491D01*
X22531596Y-26064007D01*
X22536141Y-25806389D01*
X22537971Y-25713519D01*
X22540112Y-25644889D01*
X22543181Y-25595711D01*
X22547794Y-25561198D01*
X22554568Y-25536562D01*
X22564119Y-25517016D01*
X22575634Y-25499770D01*
X22631190Y-25444680D01*
X22698980Y-25412822D01*
X22772713Y-25405191D01*
X22846093Y-25422780D01*
G36*
X21171115Y-25416962D02*
X21239145Y-25452733D01*
X21289351Y-25510301D01*
X21307185Y-25547312D01*
X21321063Y-25602882D01*
X21328167Y-25673096D01*
X21328840Y-25749727D01*
X21323427Y-25824552D01*
X21312270Y-25889342D01*
X21295714Y-25935873D01*
X21290626Y-25943887D01*
X21230355Y-26003707D01*
X21158769Y-26039535D01*
X21081092Y-26050020D01*
X21002548Y-26033810D01*
X20980689Y-26024092D01*
X20938122Y-25994143D01*
X20900763Y-25954433D01*
X20897232Y-25949397D01*
X20882881Y-25925124D01*
X20873394Y-25899178D01*
X20867790Y-25865022D01*
X20865086Y-25816119D01*
X20864299Y-25745935D01*
X20864286Y-25730200D01*
X20864322Y-25725192D01*
X21009429Y-25725192D01*
X21010273Y-25791430D01*
X21013596Y-25835386D01*
X21020583Y-25863779D01*
X21032416Y-25883325D01*
X21038457Y-25889857D01*
X21073186Y-25914680D01*
X21106903Y-25913548D01*
X21140995Y-25892016D01*
X21161329Y-25869029D01*
X21173371Y-25835478D01*
X21180134Y-25782569D01*
X21180598Y-25776399D01*
X21181752Y-25680513D01*
X21169688Y-25609299D01*
X21144570Y-25563194D01*
X21106560Y-25542635D01*
X21092992Y-25541514D01*
X21057364Y-25547152D01*
X21032994Y-25566686D01*
X21018093Y-25604042D01*
X21010875Y-25663150D01*
X21009429Y-25725192D01*
X20864322Y-25725192D01*
X20864826Y-25655413D01*
X20867096Y-25603159D01*
X20872068Y-25566949D01*
X20880713Y-25540299D01*
X20894005Y-25516722D01*
X20896943Y-25512338D01*
X20946313Y-25453249D01*
X21000109Y-25418947D01*
X21065602Y-25405331D01*
X21087842Y-25404665D01*
X21171115Y-25416962D01*
X21171115Y-25416962D01*
G37*
X21171115Y-25416962D02*
X21239145Y-25452733D01*
X21289351Y-25510301D01*
X21307185Y-25547312D01*
X21321063Y-25602882D01*
X21328167Y-25673096D01*
X21328840Y-25749727D01*
X21323427Y-25824552D01*
X21312270Y-25889342D01*
X21295714Y-25935873D01*
X21290626Y-25943887D01*
X21230355Y-26003707D01*
X21158769Y-26039535D01*
X21081092Y-26050020D01*
X21002548Y-26033810D01*
X20980689Y-26024092D01*
X20938122Y-25994143D01*
X20900763Y-25954433D01*
X20897232Y-25949397D01*
X20882881Y-25925124D01*
X20873394Y-25899178D01*
X20867790Y-25865022D01*
X20865086Y-25816119D01*
X20864299Y-25745935D01*
X20864286Y-25730200D01*
X20864322Y-25725192D01*
X21009429Y-25725192D01*
X21010273Y-25791430D01*
X21013596Y-25835386D01*
X21020583Y-25863779D01*
X21032416Y-25883325D01*
X21038457Y-25889857D01*
X21073186Y-25914680D01*
X21106903Y-25913548D01*
X21140995Y-25892016D01*
X21161329Y-25869029D01*
X21173371Y-25835478D01*
X21180134Y-25782569D01*
X21180598Y-25776399D01*
X21181752Y-25680513D01*
X21169688Y-25609299D01*
X21144570Y-25563194D01*
X21106560Y-25542635D01*
X21092992Y-25541514D01*
X21057364Y-25547152D01*
X21032994Y-25566686D01*
X21018093Y-25604042D01*
X21010875Y-25663150D01*
X21009429Y-25725192D01*
X20864322Y-25725192D01*
X20864826Y-25655413D01*
X20867096Y-25603159D01*
X20872068Y-25566949D01*
X20880713Y-25540299D01*
X20894005Y-25516722D01*
X20896943Y-25512338D01*
X20946313Y-25453249D01*
X21000109Y-25418947D01*
X21065602Y-25405331D01*
X21087842Y-25404665D01*
X21171115Y-25416962D01*
G36*
X22298303Y-25426239D02*
X22355527Y-25464735D01*
X22399749Y-25520335D01*
X22426167Y-25591086D01*
X22431510Y-25643162D01*
X22430903Y-25664893D01*
X22425822Y-25681531D01*
X22411855Y-25696437D01*
X22384589Y-25712973D01*
X22339612Y-25734498D01*
X22272511Y-25764374D01*
X22272171Y-25764524D01*
X22210407Y-25792813D01*
X22159759Y-25817933D01*
X22125404Y-25837179D01*
X22112518Y-25847848D01*
X22112514Y-25847934D01*
X22123872Y-25871166D01*
X22150431Y-25896774D01*
X22180923Y-25915221D01*
X22196370Y-25918886D01*
X22238515Y-25906212D01*
X22274808Y-25874471D01*
X22292517Y-25839572D01*
X22309552Y-25813845D01*
X22342922Y-25784546D01*
X22382149Y-25759235D01*
X22416756Y-25745471D01*
X22423993Y-25744714D01*
X22432139Y-25757160D01*
X22432630Y-25788972D01*
X22426643Y-25831866D01*
X22415357Y-25877558D01*
X22399950Y-25917761D01*
X22399171Y-25919322D01*
X22352804Y-25984062D01*
X22292711Y-26028097D01*
X22224465Y-26049711D01*
X22153638Y-26047185D01*
X22085804Y-26018804D01*
X22082788Y-26016808D01*
X22029427Y-25968448D01*
X21994340Y-25905352D01*
X21974922Y-25822387D01*
X21972316Y-25799078D01*
X21967701Y-25689055D01*
X21973233Y-25637748D01*
X22112514Y-25637748D01*
X22114324Y-25669753D01*
X22124222Y-25679093D01*
X22148898Y-25672105D01*
X22187795Y-25655587D01*
X22231275Y-25634881D01*
X22232356Y-25634333D01*
X22269209Y-25614949D01*
X22284000Y-25602013D01*
X22280353Y-25588451D01*
X22264995Y-25570632D01*
X22225923Y-25544845D01*
X22183846Y-25542950D01*
X22146103Y-25561717D01*
X22120034Y-25597915D01*
X22112514Y-25637748D01*
X21973233Y-25637748D01*
X21977194Y-25601027D01*
X22001550Y-25531212D01*
X22035456Y-25482302D01*
X22096653Y-25432878D01*
X22164063Y-25408359D01*
X22232880Y-25406797D01*
X22298303Y-25426239D01*
X22298303Y-25426239D01*
G37*
X22298303Y-25426239D02*
X22355527Y-25464735D01*
X22399749Y-25520335D01*
X22426167Y-25591086D01*
X22431510Y-25643162D01*
X22430903Y-25664893D01*
X22425822Y-25681531D01*
X22411855Y-25696437D01*
X22384589Y-25712973D01*
X22339612Y-25734498D01*
X22272511Y-25764374D01*
X22272171Y-25764524D01*
X22210407Y-25792813D01*
X22159759Y-25817933D01*
X22125404Y-25837179D01*
X22112518Y-25847848D01*
X22112514Y-25847934D01*
X22123872Y-25871166D01*
X22150431Y-25896774D01*
X22180923Y-25915221D01*
X22196370Y-25918886D01*
X22238515Y-25906212D01*
X22274808Y-25874471D01*
X22292517Y-25839572D01*
X22309552Y-25813845D01*
X22342922Y-25784546D01*
X22382149Y-25759235D01*
X22416756Y-25745471D01*
X22423993Y-25744714D01*
X22432139Y-25757160D01*
X22432630Y-25788972D01*
X22426643Y-25831866D01*
X22415357Y-25877558D01*
X22399950Y-25917761D01*
X22399171Y-25919322D01*
X22352804Y-25984062D01*
X22292711Y-26028097D01*
X22224465Y-26049711D01*
X22153638Y-26047185D01*
X22085804Y-26018804D01*
X22082788Y-26016808D01*
X22029427Y-25968448D01*
X21994340Y-25905352D01*
X21974922Y-25822387D01*
X21972316Y-25799078D01*
X21967701Y-25689055D01*
X21973233Y-25637748D01*
X22112514Y-25637748D01*
X22114324Y-25669753D01*
X22124222Y-25679093D01*
X22148898Y-25672105D01*
X22187795Y-25655587D01*
X22231275Y-25634881D01*
X22232356Y-25634333D01*
X22269209Y-25614949D01*
X22284000Y-25602013D01*
X22280353Y-25588451D01*
X22264995Y-25570632D01*
X22225923Y-25544845D01*
X22183846Y-25542950D01*
X22146103Y-25561717D01*
X22120034Y-25597915D01*
X22112514Y-25637748D01*
X21973233Y-25637748D01*
X21977194Y-25601027D01*
X22001550Y-25531212D01*
X22035456Y-25482302D01*
X22096653Y-25432878D01*
X22164063Y-25408359D01*
X22232880Y-25406797D01*
X22298303Y-25426239D01*
G36*
X23505886Y-25346289D02*
X23510139Y-25405613D01*
X23515025Y-25440572D01*
X23521795Y-25455820D01*
X23531702Y-25456015D01*
X23534914Y-25454195D01*
X23577644Y-25441015D01*
X23633227Y-25441785D01*
X23689737Y-25455333D01*
X23725082Y-25472861D01*
X23761321Y-25500861D01*
X23787813Y-25532549D01*
X23805999Y-25572813D01*
X23817322Y-25626543D01*
X23823222Y-25698626D01*
X23825143Y-25793951D01*
X23825177Y-25812237D01*
X23825200Y-26017646D01*
X23779491Y-26033580D01*
X23747027Y-26044420D01*
X23729215Y-26049468D01*
X23728691Y-26049514D01*
X23726937Y-26035828D01*
X23725444Y-25998076D01*
X23724326Y-25941224D01*
X23723697Y-25870234D01*
X23723600Y-25827073D01*
X23723398Y-25741973D01*
X23722358Y-25680981D01*
X23719831Y-25639177D01*
X23715164Y-25611642D01*
X23707707Y-25593456D01*
X23696811Y-25579698D01*
X23690007Y-25573073D01*
X23643272Y-25546375D01*
X23592272Y-25544375D01*
X23546001Y-25566955D01*
X23537444Y-25575107D01*
X23524893Y-25590436D01*
X23516188Y-25608618D01*
X23510631Y-25634909D01*
X23507526Y-25674562D01*
X23506176Y-25732832D01*
X23505886Y-25813173D01*
X23505886Y-26017646D01*
X23460177Y-26033580D01*
X23427713Y-26044420D01*
X23409901Y-26049468D01*
X23409377Y-26049514D01*
X23408037Y-26035623D01*
X23406828Y-25996439D01*
X23405801Y-25935700D01*
X23405002Y-25857141D01*
X23404481Y-25764498D01*
X23404286Y-25661509D01*
X23404286Y-25264342D01*
X23451457Y-25244444D01*
X23498629Y-25224547D01*
X23505886Y-25346289D01*
X23505886Y-25346289D01*
G37*
X23505886Y-25346289D02*
X23510139Y-25405613D01*
X23515025Y-25440572D01*
X23521795Y-25455820D01*
X23531702Y-25456015D01*
X23534914Y-25454195D01*
X23577644Y-25441015D01*
X23633227Y-25441785D01*
X23689737Y-25455333D01*
X23725082Y-25472861D01*
X23761321Y-25500861D01*
X23787813Y-25532549D01*
X23805999Y-25572813D01*
X23817322Y-25626543D01*
X23823222Y-25698626D01*
X23825143Y-25793951D01*
X23825177Y-25812237D01*
X23825200Y-26017646D01*
X23779491Y-26033580D01*
X23747027Y-26044420D01*
X23729215Y-26049468D01*
X23728691Y-26049514D01*
X23726937Y-26035828D01*
X23725444Y-25998076D01*
X23724326Y-25941224D01*
X23723697Y-25870234D01*
X23723600Y-25827073D01*
X23723398Y-25741973D01*
X23722358Y-25680981D01*
X23719831Y-25639177D01*
X23715164Y-25611642D01*
X23707707Y-25593456D01*
X23696811Y-25579698D01*
X23690007Y-25573073D01*
X23643272Y-25546375D01*
X23592272Y-25544375D01*
X23546001Y-25566955D01*
X23537444Y-25575107D01*
X23524893Y-25590436D01*
X23516188Y-25608618D01*
X23510631Y-25634909D01*
X23507526Y-25674562D01*
X23506176Y-25732832D01*
X23505886Y-25813173D01*
X23505886Y-26017646D01*
X23460177Y-26033580D01*
X23427713Y-26044420D01*
X23409901Y-26049468D01*
X23409377Y-26049514D01*
X23408037Y-26035623D01*
X23406828Y-25996439D01*
X23405801Y-25935700D01*
X23405002Y-25857141D01*
X23404481Y-25764498D01*
X23404286Y-25661509D01*
X23404286Y-25264342D01*
X23451457Y-25244444D01*
X23498629Y-25224547D01*
X23505886Y-25346289D01*
G36*
X24169744Y-25445968D02*
X24226616Y-25467087D01*
X24227267Y-25467493D01*
X24262440Y-25493380D01*
X24288407Y-25523633D01*
X24306670Y-25563058D01*
X24318732Y-25616462D01*
X24326096Y-25688651D01*
X24330264Y-25784432D01*
X24330629Y-25798078D01*
X24335876Y-26003842D01*
X24291716Y-26026678D01*
X24259763Y-26042110D01*
X24240470Y-26049423D01*
X24239578Y-26049514D01*
X24236239Y-26036022D01*
X24233587Y-25999626D01*
X24231956Y-25946452D01*
X24231600Y-25903393D01*
X24231592Y-25833641D01*
X24228403Y-25789837D01*
X24217288Y-25768944D01*
X24193501Y-25767925D01*
X24152296Y-25783741D01*
X24090086Y-25812815D01*
X24044341Y-25836963D01*
X24020813Y-25857913D01*
X24013896Y-25880747D01*
X24013886Y-25881877D01*
X24025299Y-25921212D01*
X24059092Y-25942462D01*
X24110809Y-25945539D01*
X24148061Y-25945006D01*
X24167703Y-25955735D01*
X24179952Y-25981505D01*
X24187002Y-26014337D01*
X24176842Y-26032966D01*
X24173017Y-26035632D01*
X24137001Y-26046340D01*
X24086566Y-26047856D01*
X24034626Y-26040759D01*
X23997822Y-26027788D01*
X23946938Y-25984585D01*
X23918014Y-25924446D01*
X23912286Y-25877462D01*
X23916657Y-25835082D01*
X23932475Y-25800488D01*
X23963797Y-25769763D01*
X24014678Y-25738990D01*
X24089176Y-25704252D01*
X24093714Y-25702288D01*
X24160821Y-25671287D01*
X24202232Y-25645862D01*
X24219981Y-25623014D01*
X24216107Y-25599745D01*
X24192643Y-25573056D01*
X24185627Y-25566914D01*
X24138630Y-25543100D01*
X24089933Y-25544103D01*
X24047522Y-25567451D01*
X24019384Y-25610675D01*
X24016769Y-25619160D01*
X23991308Y-25660308D01*
X23959001Y-25680128D01*
X23912286Y-25699770D01*
X23912286Y-25648950D01*
X23926496Y-25575082D01*
X23968675Y-25507327D01*
X23990624Y-25484661D01*
X24040517Y-25455569D01*
X24103967Y-25442400D01*
X24169744Y-25445968D01*
X24169744Y-25445968D01*
G37*
X24169744Y-25445968D02*
X24226616Y-25467087D01*
X24227267Y-25467493D01*
X24262440Y-25493380D01*
X24288407Y-25523633D01*
X24306670Y-25563058D01*
X24318732Y-25616462D01*
X24326096Y-25688651D01*
X24330264Y-25784432D01*
X24330629Y-25798078D01*
X24335876Y-26003842D01*
X24291716Y-26026678D01*
X24259763Y-26042110D01*
X24240470Y-26049423D01*
X24239578Y-26049514D01*
X24236239Y-26036022D01*
X24233587Y-25999626D01*
X24231956Y-25946452D01*
X24231600Y-25903393D01*
X24231592Y-25833641D01*
X24228403Y-25789837D01*
X24217288Y-25768944D01*
X24193501Y-25767925D01*
X24152296Y-25783741D01*
X24090086Y-25812815D01*
X24044341Y-25836963D01*
X24020813Y-25857913D01*
X24013896Y-25880747D01*
X24013886Y-25881877D01*
X24025299Y-25921212D01*
X24059092Y-25942462D01*
X24110809Y-25945539D01*
X24148061Y-25945006D01*
X24167703Y-25955735D01*
X24179952Y-25981505D01*
X24187002Y-26014337D01*
X24176842Y-26032966D01*
X24173017Y-26035632D01*
X24137001Y-26046340D01*
X24086566Y-26047856D01*
X24034626Y-26040759D01*
X23997822Y-26027788D01*
X23946938Y-25984585D01*
X23918014Y-25924446D01*
X23912286Y-25877462D01*
X23916657Y-25835082D01*
X23932475Y-25800488D01*
X23963797Y-25769763D01*
X24014678Y-25738990D01*
X24089176Y-25704252D01*
X24093714Y-25702288D01*
X24160821Y-25671287D01*
X24202232Y-25645862D01*
X24219981Y-25623014D01*
X24216107Y-25599745D01*
X24192643Y-25573056D01*
X24185627Y-25566914D01*
X24138630Y-25543100D01*
X24089933Y-25544103D01*
X24047522Y-25567451D01*
X24019384Y-25610675D01*
X24016769Y-25619160D01*
X23991308Y-25660308D01*
X23959001Y-25680128D01*
X23912286Y-25699770D01*
X23912286Y-25648950D01*
X23926496Y-25575082D01*
X23968675Y-25507327D01*
X23990624Y-25484661D01*
X24040517Y-25455569D01*
X24103967Y-25442400D01*
X24169744Y-25445968D01*
G36*
X24659926Y-25444755D02*
X24725858Y-25469084D01*
X24779273Y-25512117D01*
X24800164Y-25542409D01*
X24822939Y-25597994D01*
X24822466Y-25638186D01*
X24798562Y-25665217D01*
X24789717Y-25669813D01*
X24751530Y-25684144D01*
X24732028Y-25680472D01*
X24725422Y-25656407D01*
X24725086Y-25643114D01*
X24712992Y-25594210D01*
X24681471Y-25559999D01*
X24637659Y-25543476D01*
X24588695Y-25547634D01*
X24548894Y-25569227D01*
X24535450Y-25581544D01*
X24525921Y-25596487D01*
X24519485Y-25619075D01*
X24515317Y-25654328D01*
X24512597Y-25707266D01*
X24510502Y-25782907D01*
X24509960Y-25806857D01*
X24507981Y-25888790D01*
X24505731Y-25946455D01*
X24502357Y-25984608D01*
X24497006Y-26008004D01*
X24488824Y-26021398D01*
X24476959Y-26029545D01*
X24469362Y-26033144D01*
X24437102Y-26045452D01*
X24418111Y-26049514D01*
X24411836Y-26035948D01*
X24408006Y-25994934D01*
X24406600Y-25925999D01*
X24407598Y-25828669D01*
X24407908Y-25813657D01*
X24410101Y-25724859D01*
X24412693Y-25660019D01*
X24416382Y-25614067D01*
X24421864Y-25581935D01*
X24429835Y-25558553D01*
X24440993Y-25538852D01*
X24446830Y-25530410D01*
X24480296Y-25493057D01*
X24517727Y-25464003D01*
X24522309Y-25461467D01*
X24589426Y-25441443D01*
X24659926Y-25444755D01*
X24659926Y-25444755D01*
G37*
X24659926Y-25444755D02*
X24725858Y-25469084D01*
X24779273Y-25512117D01*
X24800164Y-25542409D01*
X24822939Y-25597994D01*
X24822466Y-25638186D01*
X24798562Y-25665217D01*
X24789717Y-25669813D01*
X24751530Y-25684144D01*
X24732028Y-25680472D01*
X24725422Y-25656407D01*
X24725086Y-25643114D01*
X24712992Y-25594210D01*
X24681471Y-25559999D01*
X24637659Y-25543476D01*
X24588695Y-25547634D01*
X24548894Y-25569227D01*
X24535450Y-25581544D01*
X24525921Y-25596487D01*
X24519485Y-25619075D01*
X24515317Y-25654328D01*
X24512597Y-25707266D01*
X24510502Y-25782907D01*
X24509960Y-25806857D01*
X24507981Y-25888790D01*
X24505731Y-25946455D01*
X24502357Y-25984608D01*
X24497006Y-26008004D01*
X24488824Y-26021398D01*
X24476959Y-26029545D01*
X24469362Y-26033144D01*
X24437102Y-26045452D01*
X24418111Y-26049514D01*
X24411836Y-26035948D01*
X24408006Y-25994934D01*
X24406600Y-25925999D01*
X24407598Y-25828669D01*
X24407908Y-25813657D01*
X24410101Y-25724859D01*
X24412693Y-25660019D01*
X24416382Y-25614067D01*
X24421864Y-25581935D01*
X24429835Y-25558553D01*
X24440993Y-25538852D01*
X24446830Y-25530410D01*
X24480296Y-25493057D01*
X24517727Y-25464003D01*
X24522309Y-25461467D01*
X24589426Y-25441443D01*
X24659926Y-25444755D01*
G36*
X25320117Y-25560358D02*
X25319933Y-25668837D01*
X25319219Y-25752287D01*
X25317675Y-25814704D01*
X25315001Y-25860085D01*
X25310894Y-25892429D01*
X25305055Y-25915733D01*
X25297182Y-25933995D01*
X25291221Y-25944418D01*
X25241855Y-26000945D01*
X25179264Y-26036377D01*
X25110013Y-26049090D01*
X25040668Y-26037463D01*
X24999375Y-26016568D01*
X24956025Y-25980422D01*
X24926481Y-25936276D01*
X24908655Y-25878462D01*
X24900463Y-25801313D01*
X24899302Y-25744714D01*
X24899458Y-25740647D01*
X25000857Y-25740647D01*
X25001476Y-25805550D01*
X25004314Y-25848514D01*
X25010840Y-25876622D01*
X25022523Y-25896953D01*
X25036483Y-25912288D01*
X25083365Y-25941890D01*
X25133701Y-25944419D01*
X25181276Y-25919705D01*
X25184979Y-25916356D01*
X25200783Y-25898935D01*
X25210693Y-25878209D01*
X25216058Y-25847362D01*
X25218228Y-25799577D01*
X25218571Y-25746748D01*
X25217827Y-25680381D01*
X25214748Y-25636106D01*
X25208061Y-25607009D01*
X25196496Y-25586173D01*
X25187013Y-25575107D01*
X25142960Y-25547198D01*
X25092224Y-25543843D01*
X25043796Y-25565159D01*
X25034450Y-25573073D01*
X25018540Y-25590647D01*
X25008610Y-25611587D01*
X25003278Y-25642782D01*
X25001163Y-25691122D01*
X25000857Y-25740647D01*
X24899458Y-25740647D01*
X24902810Y-25653568D01*
X24914726Y-25585086D01*
X24937135Y-25533600D01*
X24972124Y-25493443D01*
X24999375Y-25472861D01*
X25048907Y-25450625D01*
X25106316Y-25440304D01*
X25159682Y-25443067D01*
X25189543Y-25454212D01*
X25201261Y-25457383D01*
X25209037Y-25445557D01*
X25214465Y-25413866D01*
X25218571Y-25365593D01*
X25223067Y-25311829D01*
X25229313Y-25279482D01*
X25240676Y-25260985D01*
X25260528Y-25248770D01*
X25273000Y-25243362D01*
X25320171Y-25223601D01*
X25320117Y-25560358D01*
X25320117Y-25560358D01*
G37*
X25320117Y-25560358D02*
X25319933Y-25668837D01*
X25319219Y-25752287D01*
X25317675Y-25814704D01*
X25315001Y-25860085D01*
X25310894Y-25892429D01*
X25305055Y-25915733D01*
X25297182Y-25933995D01*
X25291221Y-25944418D01*
X25241855Y-26000945D01*
X25179264Y-26036377D01*
X25110013Y-26049090D01*
X25040668Y-26037463D01*
X24999375Y-26016568D01*
X24956025Y-25980422D01*
X24926481Y-25936276D01*
X24908655Y-25878462D01*
X24900463Y-25801313D01*
X24899302Y-25744714D01*
X24899458Y-25740647D01*
X25000857Y-25740647D01*
X25001476Y-25805550D01*
X25004314Y-25848514D01*
X25010840Y-25876622D01*
X25022523Y-25896953D01*
X25036483Y-25912288D01*
X25083365Y-25941890D01*
X25133701Y-25944419D01*
X25181276Y-25919705D01*
X25184979Y-25916356D01*
X25200783Y-25898935D01*
X25210693Y-25878209D01*
X25216058Y-25847362D01*
X25218228Y-25799577D01*
X25218571Y-25746748D01*
X25217827Y-25680381D01*
X25214748Y-25636106D01*
X25208061Y-25607009D01*
X25196496Y-25586173D01*
X25187013Y-25575107D01*
X25142960Y-25547198D01*
X25092224Y-25543843D01*
X25043796Y-25565159D01*
X25034450Y-25573073D01*
X25018540Y-25590647D01*
X25008610Y-25611587D01*
X25003278Y-25642782D01*
X25001163Y-25691122D01*
X25000857Y-25740647D01*
X24899458Y-25740647D01*
X24902810Y-25653568D01*
X24914726Y-25585086D01*
X24937135Y-25533600D01*
X24972124Y-25493443D01*
X24999375Y-25472861D01*
X25048907Y-25450625D01*
X25106316Y-25440304D01*
X25159682Y-25443067D01*
X25189543Y-25454212D01*
X25201261Y-25457383D01*
X25209037Y-25445557D01*
X25214465Y-25413866D01*
X25218571Y-25365593D01*
X25223067Y-25311829D01*
X25229313Y-25279482D01*
X25240676Y-25260985D01*
X25260528Y-25248770D01*
X25273000Y-25243362D01*
X25320171Y-25223601D01*
X25320117Y-25560358D01*
G36*
X25909833Y-25453663D02*
X25912048Y-25491850D01*
X25913784Y-25549886D01*
X25914899Y-25623180D01*
X25915257Y-25700055D01*
X25915257Y-25960196D01*
X25869326Y-26006127D01*
X25837675Y-26034429D01*
X25809890Y-26045893D01*
X25771915Y-26045168D01*
X25756840Y-26043321D01*
X25709726Y-26037948D01*
X25670756Y-26034869D01*
X25661257Y-26034585D01*
X25629233Y-26036445D01*
X25583432Y-26041114D01*
X25565674Y-26043321D01*
X25522057Y-26046735D01*
X25492745Y-26039320D01*
X25463680Y-26016427D01*
X25453188Y-26006127D01*
X25407257Y-25960196D01*
X25407257Y-25473602D01*
X25444226Y-25456758D01*
X25476059Y-25444282D01*
X25494683Y-25439914D01*
X25499458Y-25453718D01*
X25503921Y-25492286D01*
X25507775Y-25551356D01*
X25510722Y-25626663D01*
X25512143Y-25690286D01*
X25516114Y-25940657D01*
X25550759Y-25945556D01*
X25582268Y-25942131D01*
X25597708Y-25931041D01*
X25602023Y-25910308D01*
X25605708Y-25866145D01*
X25608469Y-25804146D01*
X25610012Y-25729909D01*
X25610235Y-25691706D01*
X25610457Y-25471783D01*
X25656166Y-25455849D01*
X25688518Y-25445015D01*
X25706115Y-25439962D01*
X25706623Y-25439914D01*
X25708388Y-25453648D01*
X25710329Y-25491730D01*
X25712282Y-25549482D01*
X25714084Y-25622227D01*
X25715343Y-25690286D01*
X25719314Y-25940657D01*
X25806400Y-25940657D01*
X25810396Y-25712240D01*
X25814392Y-25483822D01*
X25856847Y-25461868D01*
X25888192Y-25446793D01*
X25906744Y-25439951D01*
X25907279Y-25439914D01*
X25909833Y-25453663D01*
X25909833Y-25453663D01*
G37*
X25909833Y-25453663D02*
X25912048Y-25491850D01*
X25913784Y-25549886D01*
X25914899Y-25623180D01*
X25915257Y-25700055D01*
X25915257Y-25960196D01*
X25869326Y-26006127D01*
X25837675Y-26034429D01*
X25809890Y-26045893D01*
X25771915Y-26045168D01*
X25756840Y-26043321D01*
X25709726Y-26037948D01*
X25670756Y-26034869D01*
X25661257Y-26034585D01*
X25629233Y-26036445D01*
X25583432Y-26041114D01*
X25565674Y-26043321D01*
X25522057Y-26046735D01*
X25492745Y-26039320D01*
X25463680Y-26016427D01*
X25453188Y-26006127D01*
X25407257Y-25960196D01*
X25407257Y-25473602D01*
X25444226Y-25456758D01*
X25476059Y-25444282D01*
X25494683Y-25439914D01*
X25499458Y-25453718D01*
X25503921Y-25492286D01*
X25507775Y-25551356D01*
X25510722Y-25626663D01*
X25512143Y-25690286D01*
X25516114Y-25940657D01*
X25550759Y-25945556D01*
X25582268Y-25942131D01*
X25597708Y-25931041D01*
X25602023Y-25910308D01*
X25605708Y-25866145D01*
X25608469Y-25804146D01*
X25610012Y-25729909D01*
X25610235Y-25691706D01*
X25610457Y-25471783D01*
X25656166Y-25455849D01*
X25688518Y-25445015D01*
X25706115Y-25439962D01*
X25706623Y-25439914D01*
X25708388Y-25453648D01*
X25710329Y-25491730D01*
X25712282Y-25549482D01*
X25714084Y-25622227D01*
X25715343Y-25690286D01*
X25719314Y-25940657D01*
X25806400Y-25940657D01*
X25810396Y-25712240D01*
X25814392Y-25483822D01*
X25856847Y-25461868D01*
X25888192Y-25446793D01*
X25906744Y-25439951D01*
X25907279Y-25439914D01*
X25909833Y-25453663D01*
G36*
X26274876Y-25451335D02*
X26316667Y-25470344D01*
X26349469Y-25493378D01*
X26373503Y-25519133D01*
X26390097Y-25552358D01*
X26400577Y-25597800D01*
X26406271Y-25660207D01*
X26408507Y-25744327D01*
X26408743Y-25799721D01*
X26408743Y-26015826D01*
X26371774Y-26032670D01*
X26342656Y-26044981D01*
X26328231Y-26049514D01*
X26325472Y-26036025D01*
X26323282Y-25999653D01*
X26321942Y-25946542D01*
X26321657Y-25904372D01*
X26320434Y-25843447D01*
X26317136Y-25795115D01*
X26312321Y-25765518D01*
X26308496Y-25759229D01*
X26282783Y-25765652D01*
X26242418Y-25782125D01*
X26195679Y-25804458D01*
X26150845Y-25828457D01*
X26116193Y-25849930D01*
X26100002Y-25864685D01*
X26099938Y-25864845D01*
X26101330Y-25892152D01*
X26113818Y-25918219D01*
X26135743Y-25939392D01*
X26167743Y-25946474D01*
X26195092Y-25945649D01*
X26233826Y-25945042D01*
X26254158Y-25954116D01*
X26266369Y-25978092D01*
X26267909Y-25982613D01*
X26273203Y-26016806D01*
X26259047Y-26037568D01*
X26222148Y-26047462D01*
X26182289Y-26049292D01*
X26110562Y-26035727D01*
X26073432Y-26016355D01*
X26027576Y-25970845D01*
X26003256Y-25914983D01*
X26001073Y-25855957D01*
X26021629Y-25800953D01*
X26052549Y-25766486D01*
X26083420Y-25747189D01*
X26131942Y-25722759D01*
X26188485Y-25697985D01*
X26197910Y-25694199D01*
X26260019Y-25666791D01*
X26295822Y-25642634D01*
X26307337Y-25618619D01*
X26296580Y-25591635D01*
X26278114Y-25570543D01*
X26234469Y-25544572D01*
X26186446Y-25542624D01*
X26142406Y-25562637D01*
X26110709Y-25602551D01*
X26106549Y-25612848D01*
X26082327Y-25650724D01*
X26046965Y-25678842D01*
X26002343Y-25701917D01*
X26002343Y-25636485D01*
X26004969Y-25596506D01*
X26016230Y-25564997D01*
X26041199Y-25531378D01*
X26065169Y-25505484D01*
X26102441Y-25468817D01*
X26131401Y-25449121D01*
X26162505Y-25441220D01*
X26197713Y-25439914D01*
X26274876Y-25451335D01*
X26274876Y-25451335D01*
G37*
X26274876Y-25451335D02*
X26316667Y-25470344D01*
X26349469Y-25493378D01*
X26373503Y-25519133D01*
X26390097Y-25552358D01*
X26400577Y-25597800D01*
X26406271Y-25660207D01*
X26408507Y-25744327D01*
X26408743Y-25799721D01*
X26408743Y-26015826D01*
X26371774Y-26032670D01*
X26342656Y-26044981D01*
X26328231Y-26049514D01*
X26325472Y-26036025D01*
X26323282Y-25999653D01*
X26321942Y-25946542D01*
X26321657Y-25904372D01*
X26320434Y-25843447D01*
X26317136Y-25795115D01*
X26312321Y-25765518D01*
X26308496Y-25759229D01*
X26282783Y-25765652D01*
X26242418Y-25782125D01*
X26195679Y-25804458D01*
X26150845Y-25828457D01*
X26116193Y-25849930D01*
X26100002Y-25864685D01*
X26099938Y-25864845D01*
X26101330Y-25892152D01*
X26113818Y-25918219D01*
X26135743Y-25939392D01*
X26167743Y-25946474D01*
X26195092Y-25945649D01*
X26233826Y-25945042D01*
X26254158Y-25954116D01*
X26266369Y-25978092D01*
X26267909Y-25982613D01*
X26273203Y-26016806D01*
X26259047Y-26037568D01*
X26222148Y-26047462D01*
X26182289Y-26049292D01*
X26110562Y-26035727D01*
X26073432Y-26016355D01*
X26027576Y-25970845D01*
X26003256Y-25914983D01*
X26001073Y-25855957D01*
X26021629Y-25800953D01*
X26052549Y-25766486D01*
X26083420Y-25747189D01*
X26131942Y-25722759D01*
X26188485Y-25697985D01*
X26197910Y-25694199D01*
X26260019Y-25666791D01*
X26295822Y-25642634D01*
X26307337Y-25618619D01*
X26296580Y-25591635D01*
X26278114Y-25570543D01*
X26234469Y-25544572D01*
X26186446Y-25542624D01*
X26142406Y-25562637D01*
X26110709Y-25602551D01*
X26106549Y-25612848D01*
X26082327Y-25650724D01*
X26046965Y-25678842D01*
X26002343Y-25701917D01*
X26002343Y-25636485D01*
X26004969Y-25596506D01*
X26016230Y-25564997D01*
X26041199Y-25531378D01*
X26065169Y-25505484D01*
X26102441Y-25468817D01*
X26131401Y-25449121D01*
X26162505Y-25441220D01*
X26197713Y-25439914D01*
X26274876Y-25451335D01*
G36*
X26782600Y-25453752D02*
X26799948Y-25461334D01*
X26841356Y-25494128D01*
X26876765Y-25541547D01*
X26898664Y-25592151D01*
X26902229Y-25617098D01*
X26890279Y-25651927D01*
X26864067Y-25670357D01*
X26835964Y-25681516D01*
X26823095Y-25683572D01*
X26816829Y-25668649D01*
X26804456Y-25636175D01*
X26799028Y-25621502D01*
X26768590Y-25570744D01*
X26724520Y-25545427D01*
X26668010Y-25546206D01*
X26663825Y-25547203D01*
X26633655Y-25561507D01*
X26611476Y-25589393D01*
X26596327Y-25634287D01*
X26587250Y-25699615D01*
X26583286Y-25788804D01*
X26582914Y-25836261D01*
X26582730Y-25911071D01*
X26581522Y-25962069D01*
X26578309Y-25994471D01*
X26572109Y-26013495D01*
X26561940Y-26024356D01*
X26546819Y-26032272D01*
X26545946Y-26032670D01*
X26516828Y-26044981D01*
X26502403Y-26049514D01*
X26500186Y-26035809D01*
X26498289Y-25997925D01*
X26496847Y-25940715D01*
X26495998Y-25869027D01*
X26495829Y-25816565D01*
X26496692Y-25715047D01*
X26500070Y-25638032D01*
X26507142Y-25581023D01*
X26519088Y-25539526D01*
X26537090Y-25509043D01*
X26562327Y-25485080D01*
X26587247Y-25468355D01*
X26647171Y-25446097D01*
X26716911Y-25441076D01*
X26782600Y-25453752D01*
X26782600Y-25453752D01*
G37*
X26782600Y-25453752D02*
X26799948Y-25461334D01*
X26841356Y-25494128D01*
X26876765Y-25541547D01*
X26898664Y-25592151D01*
X26902229Y-25617098D01*
X26890279Y-25651927D01*
X26864067Y-25670357D01*
X26835964Y-25681516D01*
X26823095Y-25683572D01*
X26816829Y-25668649D01*
X26804456Y-25636175D01*
X26799028Y-25621502D01*
X26768590Y-25570744D01*
X26724520Y-25545427D01*
X26668010Y-25546206D01*
X26663825Y-25547203D01*
X26633655Y-25561507D01*
X26611476Y-25589393D01*
X26596327Y-25634287D01*
X26587250Y-25699615D01*
X26583286Y-25788804D01*
X26582914Y-25836261D01*
X26582730Y-25911071D01*
X26581522Y-25962069D01*
X26578309Y-25994471D01*
X26572109Y-26013495D01*
X26561940Y-26024356D01*
X26546819Y-26032272D01*
X26545946Y-26032670D01*
X26516828Y-26044981D01*
X26502403Y-26049514D01*
X26500186Y-26035809D01*
X26498289Y-25997925D01*
X26496847Y-25940715D01*
X26495998Y-25869027D01*
X26495829Y-25816565D01*
X26496692Y-25715047D01*
X26500070Y-25638032D01*
X26507142Y-25581023D01*
X26519088Y-25539526D01*
X26537090Y-25509043D01*
X26562327Y-25485080D01*
X26587247Y-25468355D01*
X26647171Y-25446097D01*
X26716911Y-25441076D01*
X26782600Y-25453752D01*
G36*
X27283595Y-25461966D02*
X27341021Y-25499497D01*
X27368719Y-25533096D01*
X27390662Y-25594064D01*
X27392405Y-25642308D01*
X27388457Y-25706816D01*
X27239686Y-25771934D01*
X27167349Y-25805202D01*
X27120084Y-25831964D01*
X27095507Y-25855144D01*
X27091237Y-25877667D01*
X27104889Y-25902455D01*
X27119943Y-25918886D01*
X27163746Y-25945235D01*
X27211389Y-25947081D01*
X27255145Y-25926546D01*
X27287289Y-25885752D01*
X27293038Y-25871347D01*
X27320576Y-25826356D01*
X27352258Y-25807182D01*
X27395714Y-25790779D01*
X27395714Y-25852966D01*
X27391872Y-25895283D01*
X27376823Y-25930969D01*
X27345280Y-25971943D01*
X27340592Y-25977267D01*
X27305506Y-26013720D01*
X27275347Y-26033283D01*
X27237615Y-26042283D01*
X27206335Y-26045230D01*
X27150385Y-26045965D01*
X27110555Y-26036660D01*
X27085708Y-26022846D01*
X27046656Y-25992467D01*
X27019625Y-25959613D01*
X27002517Y-25918294D01*
X26993238Y-25862521D01*
X26989693Y-25786305D01*
X26989410Y-25747622D01*
X26990372Y-25701247D01*
X27078007Y-25701247D01*
X27079023Y-25726126D01*
X27081556Y-25730200D01*
X27098274Y-25724665D01*
X27134249Y-25710017D01*
X27182331Y-25689190D01*
X27192386Y-25684714D01*
X27253152Y-25653814D01*
X27286632Y-25626657D01*
X27293990Y-25601220D01*
X27276391Y-25575481D01*
X27261856Y-25564109D01*
X27209410Y-25541364D01*
X27160322Y-25545122D01*
X27119227Y-25572884D01*
X27090758Y-25622152D01*
X27081631Y-25661257D01*
X27078007Y-25701247D01*
X26990372Y-25701247D01*
X26991285Y-25657249D01*
X26998196Y-25590384D01*
X27011884Y-25541695D01*
X27034096Y-25505849D01*
X27066574Y-25477513D01*
X27080733Y-25468355D01*
X27145053Y-25444507D01*
X27215473Y-25443006D01*
X27283595Y-25461966D01*
X27283595Y-25461966D01*
G37*
X27283595Y-25461966D02*
X27341021Y-25499497D01*
X27368719Y-25533096D01*
X27390662Y-25594064D01*
X27392405Y-25642308D01*
X27388457Y-25706816D01*
X27239686Y-25771934D01*
X27167349Y-25805202D01*
X27120084Y-25831964D01*
X27095507Y-25855144D01*
X27091237Y-25877667D01*
X27104889Y-25902455D01*
X27119943Y-25918886D01*
X27163746Y-25945235D01*
X27211389Y-25947081D01*
X27255145Y-25926546D01*
X27287289Y-25885752D01*
X27293038Y-25871347D01*
X27320576Y-25826356D01*
X27352258Y-25807182D01*
X27395714Y-25790779D01*
X27395714Y-25852966D01*
X27391872Y-25895283D01*
X27376823Y-25930969D01*
X27345280Y-25971943D01*
X27340592Y-25977267D01*
X27305506Y-26013720D01*
X27275347Y-26033283D01*
X27237615Y-26042283D01*
X27206335Y-26045230D01*
X27150385Y-26045965D01*
X27110555Y-26036660D01*
X27085708Y-26022846D01*
X27046656Y-25992467D01*
X27019625Y-25959613D01*
X27002517Y-25918294D01*
X26993238Y-25862521D01*
X26989693Y-25786305D01*
X26989410Y-25747622D01*
X26990372Y-25701247D01*
X27078007Y-25701247D01*
X27079023Y-25726126D01*
X27081556Y-25730200D01*
X27098274Y-25724665D01*
X27134249Y-25710017D01*
X27182331Y-25689190D01*
X27192386Y-25684714D01*
X27253152Y-25653814D01*
X27286632Y-25626657D01*
X27293990Y-25601220D01*
X27276391Y-25575481D01*
X27261856Y-25564109D01*
X27209410Y-25541364D01*
X27160322Y-25545122D01*
X27119227Y-25572884D01*
X27090758Y-25622152D01*
X27081631Y-25661257D01*
X27078007Y-25701247D01*
X26990372Y-25701247D01*
X26991285Y-25657249D01*
X26998196Y-25590384D01*
X27011884Y-25541695D01*
X27034096Y-25505849D01*
X27066574Y-25477513D01*
X27080733Y-25468355D01*
X27145053Y-25444507D01*
X27215473Y-25443006D01*
X27283595Y-25461966D01*
G36*
X24233910Y-20737348D02*
X24312454Y-20737778D01*
X24369298Y-20738942D01*
X24408105Y-20741207D01*
X24432538Y-20744940D01*
X24446262Y-20750506D01*
X24452940Y-20758273D01*
X24456236Y-20768605D01*
X24456556Y-20769943D01*
X24461562Y-20794079D01*
X24470829Y-20841701D01*
X24483392Y-20907741D01*
X24498287Y-20987128D01*
X24514551Y-21074796D01*
X24515119Y-21077875D01*
X24531410Y-21163789D01*
X24546652Y-21239696D01*
X24559861Y-21301045D01*
X24570054Y-21343282D01*
X24576248Y-21361855D01*
X24576543Y-21362184D01*
X24594788Y-21371253D01*
X24632405Y-21386367D01*
X24681271Y-21404262D01*
X24681543Y-21404358D01*
X24743093Y-21427493D01*
X24815657Y-21456965D01*
X24884057Y-21486597D01*
X24887294Y-21488062D01*
X24998702Y-21538626D01*
X25245399Y-21370160D01*
X25321077Y-21318803D01*
X25389631Y-21272889D01*
X25447088Y-21235030D01*
X25489476Y-21207837D01*
X25512825Y-21193921D01*
X25515042Y-21192889D01*
X25532010Y-21197484D01*
X25563701Y-21219655D01*
X25611352Y-21260447D01*
X25676198Y-21320905D01*
X25742397Y-21385227D01*
X25806214Y-21448612D01*
X25863329Y-21506451D01*
X25910305Y-21555175D01*
X25943703Y-21591210D01*
X25960085Y-21610984D01*
X25960694Y-21612002D01*
X25962505Y-21625572D01*
X25955683Y-21647733D01*
X25938540Y-21681478D01*
X25909393Y-21729800D01*
X25866555Y-21795692D01*
X25809448Y-21880517D01*
X25758766Y-21955177D01*
X25713461Y-22022140D01*
X25676150Y-22077516D01*
X25649452Y-22117420D01*
X25635985Y-22137962D01*
X25635137Y-22139356D01*
X25636781Y-22159038D01*
X25649245Y-22197293D01*
X25670048Y-22246889D01*
X25677462Y-22262728D01*
X25709814Y-22333290D01*
X25744328Y-22413353D01*
X25772365Y-22482629D01*
X25792568Y-22534045D01*
X25808615Y-22573119D01*
X25817888Y-22593541D01*
X25819041Y-22595114D01*
X25836096Y-22597721D01*
X25876298Y-22604863D01*
X25934302Y-22615523D01*
X26004763Y-22628685D01*
X26082335Y-22643333D01*
X26161672Y-22658449D01*
X26237431Y-22673018D01*
X26304264Y-22686022D01*
X26356828Y-22696445D01*
X26389776Y-22703270D01*
X26397857Y-22705199D01*
X26406205Y-22709962D01*
X26412506Y-22720718D01*
X26417045Y-22741098D01*
X26420104Y-22774734D01*
X26421967Y-22825255D01*
X26422918Y-22896292D01*
X26423240Y-22991476D01*
X26423257Y-23030492D01*
X26423257Y-23347799D01*
X26347057Y-23362839D01*
X26304663Y-23370995D01*
X26241400Y-23382899D01*
X26164962Y-23397116D01*
X26083043Y-23412210D01*
X26060400Y-23416355D01*
X25984806Y-23431053D01*
X25918953Y-23445505D01*
X25868366Y-23458375D01*
X25838574Y-23468322D01*
X25833612Y-23471287D01*
X25821426Y-23492283D01*
X25803953Y-23532967D01*
X25784577Y-23585322D01*
X25780734Y-23596600D01*
X25755339Y-23666523D01*
X25723817Y-23745418D01*
X25692969Y-23816266D01*
X25692817Y-23816595D01*
X25641447Y-23927733D01*
X25810399Y-24176253D01*
X25979352Y-24424772D01*
X25762429Y-24642058D01*
X25696819Y-24706726D01*
X25636979Y-24763733D01*
X25586267Y-24810033D01*
X25548046Y-24842584D01*
X25525675Y-24858343D01*
X25522466Y-24859343D01*
X25503626Y-24851469D01*
X25465180Y-24829578D01*
X25411330Y-24796267D01*
X25346276Y-24754131D01*
X25275940Y-24706943D01*
X25204555Y-24658810D01*
X25140908Y-24616928D01*
X25089041Y-24583871D01*
X25052995Y-24562218D01*
X25036867Y-24554543D01*
X25017189Y-24561037D01*
X24979875Y-24578150D01*
X24932621Y-24602326D01*
X24927612Y-24605013D01*
X24863977Y-24636927D01*
X24820341Y-24652579D01*
X24793202Y-24652745D01*
X24779057Y-24638204D01*
X24778975Y-24638000D01*
X24771905Y-24620779D01*
X24755042Y-24579899D01*
X24729695Y-24518525D01*
X24697171Y-24439819D01*
X24658778Y-24346947D01*
X24615822Y-24243072D01*
X24574222Y-24142502D01*
X24528504Y-24031516D01*
X24486526Y-23928703D01*
X24449548Y-23837215D01*
X24418827Y-23760201D01*
X24395622Y-23700815D01*
X24381190Y-23662209D01*
X24376743Y-23647800D01*
X24387896Y-23631272D01*
X24417069Y-23604930D01*
X24455971Y-23575887D01*
X24566757Y-23484039D01*
X24653351Y-23378759D01*
X24714716Y-23262266D01*
X24749815Y-23136776D01*
X24757608Y-23004507D01*
X24751943Y-22943457D01*
X24721078Y-22816795D01*
X24667920Y-22704941D01*
X24595767Y-22609001D01*
X24507917Y-22530076D01*
X24407665Y-22469270D01*
X24298310Y-22427687D01*
X24183147Y-22406428D01*
X24065475Y-22406599D01*
X23948590Y-22429301D01*
X23835789Y-22475638D01*
X23730369Y-22546713D01*
X23686368Y-22586911D01*
X23601979Y-22690129D01*
X23543222Y-22802925D01*
X23509704Y-22922010D01*
X23501035Y-23044095D01*
X23516823Y-23165893D01*
X23556678Y-23284116D01*
X23620207Y-23395475D01*
X23707021Y-23496684D01*
X23804029Y-23575887D01*
X23844437Y-23606162D01*
X23872982Y-23632219D01*
X23883257Y-23647825D01*
X23877877Y-23664843D01*
X23862575Y-23705500D01*
X23838612Y-23766642D01*
X23807244Y-23845119D01*
X23769732Y-23937780D01*
X23727333Y-24041472D01*
X23685663Y-24142526D01*
X23639690Y-24253607D01*
X23597107Y-24356541D01*
X23559221Y-24448165D01*
X23527340Y-24525316D01*
X23502771Y-24584831D01*
X23486820Y-24623544D01*
X23480910Y-24638000D01*
X23466948Y-24652685D01*
X23439940Y-24652642D01*
X23396413Y-24637099D01*
X23332890Y-24605284D01*
X23332388Y-24605013D01*
X23284560Y-24580323D01*
X23245897Y-24562338D01*
X23224095Y-24554614D01*
X23223133Y-24554543D01*
X23206721Y-24562378D01*
X23170487Y-24584165D01*
X23118474Y-24617328D01*
X23054725Y-24659291D01*
X22984060Y-24706943D01*
X22912116Y-24755191D01*
X22847274Y-24797151D01*
X22793735Y-24830227D01*
X22755697Y-24851821D01*
X22737533Y-24859343D01*
X22720808Y-24849457D01*
X22687180Y-24821826D01*
X22640010Y-24779495D01*
X22582658Y-24725505D01*
X22518484Y-24662899D01*
X22497497Y-24641983D01*
X22280499Y-24424623D01*
X22445668Y-24182220D01*
X22495864Y-24107781D01*
X22539919Y-24040972D01*
X22575362Y-23985665D01*
X22599719Y-23945729D01*
X22610522Y-23925036D01*
X22610838Y-23923563D01*
X22605143Y-23904058D01*
X22589826Y-23864822D01*
X22567537Y-23812430D01*
X22551893Y-23777355D01*
X22522641Y-23710201D01*
X22495094Y-23642358D01*
X22473737Y-23585034D01*
X22467935Y-23567572D01*
X22451452Y-23520938D01*
X22435340Y-23484905D01*
X22426490Y-23471287D01*
X22406960Y-23462952D01*
X22364334Y-23451137D01*
X22304145Y-23437181D01*
X22231922Y-23422422D01*
X22199600Y-23416355D01*
X22117522Y-23401273D01*
X22038795Y-23386669D01*
X21971109Y-23373980D01*
X21922160Y-23364642D01*
X21912943Y-23362839D01*
X21836743Y-23347799D01*
X21836743Y-23030492D01*
X21836914Y-22926154D01*
X21837616Y-22847213D01*
X21839134Y-22790038D01*
X21841749Y-22750999D01*
X21845746Y-22726465D01*
X21851409Y-22712805D01*
X21859020Y-22706389D01*
X21862143Y-22705199D01*
X21880978Y-22700980D01*
X21922588Y-22692562D01*
X21981630Y-22680961D01*
X22052757Y-22667195D01*
X22130625Y-22652280D01*
X22209887Y-22637232D01*
X22285198Y-22623069D01*
X22351213Y-22610806D01*
X22402587Y-22601461D01*
X22433975Y-22596050D01*
X22440959Y-22595114D01*
X22447285Y-22582596D01*
X22461290Y-22549246D01*
X22480355Y-22501377D01*
X22487634Y-22482629D01*
X22516996Y-22410195D01*
X22551571Y-22330170D01*
X22582537Y-22262728D01*
X22605323Y-22211159D01*
X22620482Y-22168785D01*
X22625542Y-22142834D01*
X22624736Y-22139356D01*
X22614041Y-22122936D01*
X22589620Y-22086417D01*
X22554095Y-22033687D01*
X22510087Y-21968635D01*
X22460217Y-21895151D01*
X22450356Y-21880645D01*
X22392492Y-21794704D01*
X22349956Y-21729261D01*
X22321054Y-21681304D01*
X22304090Y-21647820D01*
X22297367Y-21625795D01*
X22299190Y-21612217D01*
X22299236Y-21612131D01*
X22313586Y-21594297D01*
X22345323Y-21559817D01*
X22391010Y-21512268D01*
X22447204Y-21455222D01*
X22510468Y-21392255D01*
X22517602Y-21385227D01*
X22597330Y-21308020D01*
X22658857Y-21251330D01*
X22703421Y-21214110D01*
X22732257Y-21195315D01*
X22744958Y-21192889D01*
X22763494Y-21203471D01*
X22801961Y-21227916D01*
X22856386Y-21263612D01*
X22922798Y-21307947D01*
X22997225Y-21358311D01*
X23014601Y-21370160D01*
X23261297Y-21538626D01*
X23372706Y-21488062D01*
X23440457Y-21458595D01*
X23513183Y-21428959D01*
X23575703Y-21405330D01*
X23578457Y-21404358D01*
X23627360Y-21386457D01*
X23665057Y-21371320D01*
X23683425Y-21362210D01*
X23683456Y-21362184D01*
X23689285Y-21345717D01*
X23699192Y-21305219D01*
X23712195Y-21245242D01*
X23727309Y-21170340D01*
X23743552Y-21085064D01*
X23744881Y-21077875D01*
X23761175Y-20990014D01*
X23776133Y-20910260D01*
X23788791Y-20843681D01*
X23798186Y-20795347D01*
X23803354Y-20770325D01*
X23803444Y-20769943D01*
X23806589Y-20759299D01*
X23812704Y-20751262D01*
X23825453Y-20745467D01*
X23848500Y-20741547D01*
X23885509Y-20739135D01*
X23940144Y-20737865D01*
X24016067Y-20737371D01*
X24116944Y-20737286D01*
X24130000Y-20737286D01*
X24233910Y-20737348D01*
X24233910Y-20737348D01*
G37*
X24233910Y-20737348D02*
X24312454Y-20737778D01*
X24369298Y-20738942D01*
X24408105Y-20741207D01*
X24432538Y-20744940D01*
X24446262Y-20750506D01*
X24452940Y-20758273D01*
X24456236Y-20768605D01*
X24456556Y-20769943D01*
X24461562Y-20794079D01*
X24470829Y-20841701D01*
X24483392Y-20907741D01*
X24498287Y-20987128D01*
X24514551Y-21074796D01*
X24515119Y-21077875D01*
X24531410Y-21163789D01*
X24546652Y-21239696D01*
X24559861Y-21301045D01*
X24570054Y-21343282D01*
X24576248Y-21361855D01*
X24576543Y-21362184D01*
X24594788Y-21371253D01*
X24632405Y-21386367D01*
X24681271Y-21404262D01*
X24681543Y-21404358D01*
X24743093Y-21427493D01*
X24815657Y-21456965D01*
X24884057Y-21486597D01*
X24887294Y-21488062D01*
X24998702Y-21538626D01*
X25245399Y-21370160D01*
X25321077Y-21318803D01*
X25389631Y-21272889D01*
X25447088Y-21235030D01*
X25489476Y-21207837D01*
X25512825Y-21193921D01*
X25515042Y-21192889D01*
X25532010Y-21197484D01*
X25563701Y-21219655D01*
X25611352Y-21260447D01*
X25676198Y-21320905D01*
X25742397Y-21385227D01*
X25806214Y-21448612D01*
X25863329Y-21506451D01*
X25910305Y-21555175D01*
X25943703Y-21591210D01*
X25960085Y-21610984D01*
X25960694Y-21612002D01*
X25962505Y-21625572D01*
X25955683Y-21647733D01*
X25938540Y-21681478D01*
X25909393Y-21729800D01*
X25866555Y-21795692D01*
X25809448Y-21880517D01*
X25758766Y-21955177D01*
X25713461Y-22022140D01*
X25676150Y-22077516D01*
X25649452Y-22117420D01*
X25635985Y-22137962D01*
X25635137Y-22139356D01*
X25636781Y-22159038D01*
X25649245Y-22197293D01*
X25670048Y-22246889D01*
X25677462Y-22262728D01*
X25709814Y-22333290D01*
X25744328Y-22413353D01*
X25772365Y-22482629D01*
X25792568Y-22534045D01*
X25808615Y-22573119D01*
X25817888Y-22593541D01*
X25819041Y-22595114D01*
X25836096Y-22597721D01*
X25876298Y-22604863D01*
X25934302Y-22615523D01*
X26004763Y-22628685D01*
X26082335Y-22643333D01*
X26161672Y-22658449D01*
X26237431Y-22673018D01*
X26304264Y-22686022D01*
X26356828Y-22696445D01*
X26389776Y-22703270D01*
X26397857Y-22705199D01*
X26406205Y-22709962D01*
X26412506Y-22720718D01*
X26417045Y-22741098D01*
X26420104Y-22774734D01*
X26421967Y-22825255D01*
X26422918Y-22896292D01*
X26423240Y-22991476D01*
X26423257Y-23030492D01*
X26423257Y-23347799D01*
X26347057Y-23362839D01*
X26304663Y-23370995D01*
X26241400Y-23382899D01*
X26164962Y-23397116D01*
X26083043Y-23412210D01*
X26060400Y-23416355D01*
X25984806Y-23431053D01*
X25918953Y-23445505D01*
X25868366Y-23458375D01*
X25838574Y-23468322D01*
X25833612Y-23471287D01*
X25821426Y-23492283D01*
X25803953Y-23532967D01*
X25784577Y-23585322D01*
X25780734Y-23596600D01*
X25755339Y-23666523D01*
X25723817Y-23745418D01*
X25692969Y-23816266D01*
X25692817Y-23816595D01*
X25641447Y-23927733D01*
X25810399Y-24176253D01*
X25979352Y-24424772D01*
X25762429Y-24642058D01*
X25696819Y-24706726D01*
X25636979Y-24763733D01*
X25586267Y-24810033D01*
X25548046Y-24842584D01*
X25525675Y-24858343D01*
X25522466Y-24859343D01*
X25503626Y-24851469D01*
X25465180Y-24829578D01*
X25411330Y-24796267D01*
X25346276Y-24754131D01*
X25275940Y-24706943D01*
X25204555Y-24658810D01*
X25140908Y-24616928D01*
X25089041Y-24583871D01*
X25052995Y-24562218D01*
X25036867Y-24554543D01*
X25017189Y-24561037D01*
X24979875Y-24578150D01*
X24932621Y-24602326D01*
X24927612Y-24605013D01*
X24863977Y-24636927D01*
X24820341Y-24652579D01*
X24793202Y-24652745D01*
X24779057Y-24638204D01*
X24778975Y-24638000D01*
X24771905Y-24620779D01*
X24755042Y-24579899D01*
X24729695Y-24518525D01*
X24697171Y-24439819D01*
X24658778Y-24346947D01*
X24615822Y-24243072D01*
X24574222Y-24142502D01*
X24528504Y-24031516D01*
X24486526Y-23928703D01*
X24449548Y-23837215D01*
X24418827Y-23760201D01*
X24395622Y-23700815D01*
X24381190Y-23662209D01*
X24376743Y-23647800D01*
X24387896Y-23631272D01*
X24417069Y-23604930D01*
X24455971Y-23575887D01*
X24566757Y-23484039D01*
X24653351Y-23378759D01*
X24714716Y-23262266D01*
X24749815Y-23136776D01*
X24757608Y-23004507D01*
X24751943Y-22943457D01*
X24721078Y-22816795D01*
X24667920Y-22704941D01*
X24595767Y-22609001D01*
X24507917Y-22530076D01*
X24407665Y-22469270D01*
X24298310Y-22427687D01*
X24183147Y-22406428D01*
X24065475Y-22406599D01*
X23948590Y-22429301D01*
X23835789Y-22475638D01*
X23730369Y-22546713D01*
X23686368Y-22586911D01*
X23601979Y-22690129D01*
X23543222Y-22802925D01*
X23509704Y-22922010D01*
X23501035Y-23044095D01*
X23516823Y-23165893D01*
X23556678Y-23284116D01*
X23620207Y-23395475D01*
X23707021Y-23496684D01*
X23804029Y-23575887D01*
X23844437Y-23606162D01*
X23872982Y-23632219D01*
X23883257Y-23647825D01*
X23877877Y-23664843D01*
X23862575Y-23705500D01*
X23838612Y-23766642D01*
X23807244Y-23845119D01*
X23769732Y-23937780D01*
X23727333Y-24041472D01*
X23685663Y-24142526D01*
X23639690Y-24253607D01*
X23597107Y-24356541D01*
X23559221Y-24448165D01*
X23527340Y-24525316D01*
X23502771Y-24584831D01*
X23486820Y-24623544D01*
X23480910Y-24638000D01*
X23466948Y-24652685D01*
X23439940Y-24652642D01*
X23396413Y-24637099D01*
X23332890Y-24605284D01*
X23332388Y-24605013D01*
X23284560Y-24580323D01*
X23245897Y-24562338D01*
X23224095Y-24554614D01*
X23223133Y-24554543D01*
X23206721Y-24562378D01*
X23170487Y-24584165D01*
X23118474Y-24617328D01*
X23054725Y-24659291D01*
X22984060Y-24706943D01*
X22912116Y-24755191D01*
X22847274Y-24797151D01*
X22793735Y-24830227D01*
X22755697Y-24851821D01*
X22737533Y-24859343D01*
X22720808Y-24849457D01*
X22687180Y-24821826D01*
X22640010Y-24779495D01*
X22582658Y-24725505D01*
X22518484Y-24662899D01*
X22497497Y-24641983D01*
X22280499Y-24424623D01*
X22445668Y-24182220D01*
X22495864Y-24107781D01*
X22539919Y-24040972D01*
X22575362Y-23985665D01*
X22599719Y-23945729D01*
X22610522Y-23925036D01*
X22610838Y-23923563D01*
X22605143Y-23904058D01*
X22589826Y-23864822D01*
X22567537Y-23812430D01*
X22551893Y-23777355D01*
X22522641Y-23710201D01*
X22495094Y-23642358D01*
X22473737Y-23585034D01*
X22467935Y-23567572D01*
X22451452Y-23520938D01*
X22435340Y-23484905D01*
X22426490Y-23471287D01*
X22406960Y-23462952D01*
X22364334Y-23451137D01*
X22304145Y-23437181D01*
X22231922Y-23422422D01*
X22199600Y-23416355D01*
X22117522Y-23401273D01*
X22038795Y-23386669D01*
X21971109Y-23373980D01*
X21922160Y-23364642D01*
X21912943Y-23362839D01*
X21836743Y-23347799D01*
X21836743Y-23030492D01*
X21836914Y-22926154D01*
X21837616Y-22847213D01*
X21839134Y-22790038D01*
X21841749Y-22750999D01*
X21845746Y-22726465D01*
X21851409Y-22712805D01*
X21859020Y-22706389D01*
X21862143Y-22705199D01*
X21880978Y-22700980D01*
X21922588Y-22692562D01*
X21981630Y-22680961D01*
X22052757Y-22667195D01*
X22130625Y-22652280D01*
X22209887Y-22637232D01*
X22285198Y-22623069D01*
X22351213Y-22610806D01*
X22402587Y-22601461D01*
X22433975Y-22596050D01*
X22440959Y-22595114D01*
X22447285Y-22582596D01*
X22461290Y-22549246D01*
X22480355Y-22501377D01*
X22487634Y-22482629D01*
X22516996Y-22410195D01*
X22551571Y-22330170D01*
X22582537Y-22262728D01*
X22605323Y-22211159D01*
X22620482Y-22168785D01*
X22625542Y-22142834D01*
X22624736Y-22139356D01*
X22614041Y-22122936D01*
X22589620Y-22086417D01*
X22554095Y-22033687D01*
X22510087Y-21968635D01*
X22460217Y-21895151D01*
X22450356Y-21880645D01*
X22392492Y-21794704D01*
X22349956Y-21729261D01*
X22321054Y-21681304D01*
X22304090Y-21647820D01*
X22297367Y-21625795D01*
X22299190Y-21612217D01*
X22299236Y-21612131D01*
X22313586Y-21594297D01*
X22345323Y-21559817D01*
X22391010Y-21512268D01*
X22447204Y-21455222D01*
X22510468Y-21392255D01*
X22517602Y-21385227D01*
X22597330Y-21308020D01*
X22658857Y-21251330D01*
X22703421Y-21214110D01*
X22732257Y-21195315D01*
X22744958Y-21192889D01*
X22763494Y-21203471D01*
X22801961Y-21227916D01*
X22856386Y-21263612D01*
X22922798Y-21307947D01*
X22997225Y-21358311D01*
X23014601Y-21370160D01*
X23261297Y-21538626D01*
X23372706Y-21488062D01*
X23440457Y-21458595D01*
X23513183Y-21428959D01*
X23575703Y-21405330D01*
X23578457Y-21404358D01*
X23627360Y-21386457D01*
X23665057Y-21371320D01*
X23683425Y-21362210D01*
X23683456Y-21362184D01*
X23689285Y-21345717D01*
X23699192Y-21305219D01*
X23712195Y-21245242D01*
X23727309Y-21170340D01*
X23743552Y-21085064D01*
X23744881Y-21077875D01*
X23761175Y-20990014D01*
X23776133Y-20910260D01*
X23788791Y-20843681D01*
X23798186Y-20795347D01*
X23803354Y-20770325D01*
X23803444Y-20769943D01*
X23806589Y-20759299D01*
X23812704Y-20751262D01*
X23825453Y-20745467D01*
X23848500Y-20741547D01*
X23885509Y-20739135D01*
X23940144Y-20737865D01*
X24016067Y-20737371D01*
X24116944Y-20737286D01*
X24130000Y-20737286D01*
X24233910Y-20737348D01*
G04 #@! TO.C,U4*
D11*
X39457380Y-73151904D02*
X40266904Y-73151904D01*
X40362142Y-73104285D01*
X40409761Y-73056666D01*
X40457380Y-72961428D01*
X40457380Y-72770952D01*
X40409761Y-72675714D01*
X40362142Y-72628095D01*
X40266904Y-72580476D01*
X39457380Y-72580476D01*
X39790714Y-71675714D02*
X40457380Y-71675714D01*
X39409761Y-71913809D02*
X40124047Y-72151904D01*
X40124047Y-71532857D01*
X67235000Y-73548571D02*
X67187380Y-73643809D01*
X67187380Y-73786666D01*
X67235000Y-73929523D01*
X67330238Y-74024761D01*
X67425476Y-74072380D01*
X67615952Y-74120000D01*
X67758809Y-74120000D01*
X67949285Y-74072380D01*
X68044523Y-74024761D01*
X68139761Y-73929523D01*
X68187380Y-73786666D01*
X68187380Y-73691428D01*
X68139761Y-73548571D01*
X68092142Y-73500952D01*
X67758809Y-73500952D01*
X67758809Y-73691428D01*
X67901666Y-73120000D02*
X67901666Y-72643809D01*
X68187380Y-73215238D02*
X67187380Y-72881904D01*
X68187380Y-72548571D01*
X68187380Y-71739047D02*
X68187380Y-72215238D01*
X67187380Y-72215238D01*
X68187380Y-70881904D02*
X68187380Y-71453333D01*
X68187380Y-71167619D02*
X67187380Y-71167619D01*
X67330238Y-71262857D01*
X67425476Y-71358095D01*
X67473095Y-71453333D01*
X67187380Y-70024761D02*
X67187380Y-70215238D01*
X67235000Y-70310476D01*
X67282619Y-70358095D01*
X67425476Y-70453333D01*
X67615952Y-70500952D01*
X67996904Y-70500952D01*
X68092142Y-70453333D01*
X68139761Y-70405714D01*
X68187380Y-70310476D01*
X68187380Y-70120000D01*
X68139761Y-70024761D01*
X68092142Y-69977142D01*
X67996904Y-69929523D01*
X67758809Y-69929523D01*
X67663571Y-69977142D01*
X67615952Y-70024761D01*
X67568333Y-70120000D01*
X67568333Y-70310476D01*
X67615952Y-70405714D01*
X67663571Y-70453333D01*
X67758809Y-70500952D01*
X67187380Y-69643809D02*
X68187380Y-69310476D01*
X67187380Y-68977142D01*
X67615952Y-68500952D02*
X67568333Y-68596190D01*
X67520714Y-68643809D01*
X67425476Y-68691428D01*
X67377857Y-68691428D01*
X67282619Y-68643809D01*
X67235000Y-68596190D01*
X67187380Y-68500952D01*
X67187380Y-68310476D01*
X67235000Y-68215238D01*
X67282619Y-68167619D01*
X67377857Y-68120000D01*
X67425476Y-68120000D01*
X67520714Y-68167619D01*
X67568333Y-68215238D01*
X67615952Y-68310476D01*
X67615952Y-68500952D01*
X67663571Y-68596190D01*
X67711190Y-68643809D01*
X67806428Y-68691428D01*
X67996904Y-68691428D01*
X68092142Y-68643809D01*
X68139761Y-68596190D01*
X68187380Y-68500952D01*
X68187380Y-68310476D01*
X68139761Y-68215238D01*
X68092142Y-68167619D01*
X67996904Y-68120000D01*
X67806428Y-68120000D01*
X67711190Y-68167619D01*
X67663571Y-68215238D01*
X67615952Y-68310476D01*
G04 #@! TO.C,SW2*
X23594761Y-52133333D02*
X23642380Y-51990476D01*
X23642380Y-51752380D01*
X23594761Y-51657142D01*
X23547142Y-51609523D01*
X23451904Y-51561904D01*
X23356666Y-51561904D01*
X23261428Y-51609523D01*
X23213809Y-51657142D01*
X23166190Y-51752380D01*
X23118571Y-51942857D01*
X23070952Y-52038095D01*
X23023333Y-52085714D01*
X22928095Y-52133333D01*
X22832857Y-52133333D01*
X22737619Y-52085714D01*
X22690000Y-52038095D01*
X22642380Y-51942857D01*
X22642380Y-51704761D01*
X22690000Y-51561904D01*
X22642380Y-51228571D02*
X23642380Y-50990476D01*
X22928095Y-50800000D01*
X23642380Y-50609523D01*
X22642380Y-50371428D01*
X22737619Y-50038095D02*
X22690000Y-49990476D01*
X22642380Y-49895238D01*
X22642380Y-49657142D01*
X22690000Y-49561904D01*
X22737619Y-49514285D01*
X22832857Y-49466666D01*
X22928095Y-49466666D01*
X23070952Y-49514285D01*
X23642380Y-50085714D01*
X23642380Y-49466666D01*
X30186666Y-44902380D02*
X30186666Y-43902380D01*
X30186666Y-44378571D02*
X30758095Y-44378571D01*
X30758095Y-44902380D02*
X30758095Y-43902380D01*
X31234285Y-44902380D02*
X31234285Y-43902380D01*
X32424761Y-44616666D02*
X32900952Y-44616666D01*
X32329523Y-44902380D02*
X32662857Y-43902380D01*
X32996190Y-44902380D01*
X33329523Y-44902380D02*
X33329523Y-43902380D01*
X33567619Y-43902380D01*
X33710476Y-43950000D01*
X33805714Y-44045238D01*
X33853333Y-44140476D01*
X33900952Y-44330952D01*
X33900952Y-44473809D01*
X33853333Y-44664285D01*
X33805714Y-44759523D01*
X33710476Y-44854761D01*
X33567619Y-44902380D01*
X33329523Y-44902380D01*
X34329523Y-44902380D02*
X34329523Y-43902380D01*
X34567619Y-43902380D01*
X34710476Y-43950000D01*
X34805714Y-44045238D01*
X34853333Y-44140476D01*
X34900952Y-44330952D01*
X34900952Y-44473809D01*
X34853333Y-44664285D01*
X34805714Y-44759523D01*
X34710476Y-44854761D01*
X34567619Y-44902380D01*
X34329523Y-44902380D01*
X35900952Y-44902380D02*
X35567619Y-44426190D01*
X35329523Y-44902380D02*
X35329523Y-43902380D01*
X35710476Y-43902380D01*
X35805714Y-43950000D01*
X35853333Y-43997619D01*
X35900952Y-44092857D01*
X35900952Y-44235714D01*
X35853333Y-44330952D01*
X35805714Y-44378571D01*
X35710476Y-44426190D01*
X35329523Y-44426190D01*
G04 #@! TO.C,SW1*
X44549761Y-52133333D02*
X44597380Y-51990476D01*
X44597380Y-51752380D01*
X44549761Y-51657142D01*
X44502142Y-51609523D01*
X44406904Y-51561904D01*
X44311666Y-51561904D01*
X44216428Y-51609523D01*
X44168809Y-51657142D01*
X44121190Y-51752380D01*
X44073571Y-51942857D01*
X44025952Y-52038095D01*
X43978333Y-52085714D01*
X43883095Y-52133333D01*
X43787857Y-52133333D01*
X43692619Y-52085714D01*
X43645000Y-52038095D01*
X43597380Y-51942857D01*
X43597380Y-51704761D01*
X43645000Y-51561904D01*
X43597380Y-51228571D02*
X44597380Y-50990476D01*
X43883095Y-50800000D01*
X44597380Y-50609523D01*
X43597380Y-50371428D01*
X44597380Y-49466666D02*
X44597380Y-50038095D01*
X44597380Y-49752380D02*
X43597380Y-49752380D01*
X43740238Y-49847619D01*
X43835476Y-49942857D01*
X43883095Y-50038095D01*
X52149761Y-44902380D02*
X51673571Y-44902380D01*
X51673571Y-43902380D01*
X52673571Y-43902380D02*
X52864047Y-43902380D01*
X52959285Y-43950000D01*
X53054523Y-44045238D01*
X53102142Y-44235714D01*
X53102142Y-44569047D01*
X53054523Y-44759523D01*
X52959285Y-44854761D01*
X52864047Y-44902380D01*
X52673571Y-44902380D01*
X52578333Y-44854761D01*
X52483095Y-44759523D01*
X52435476Y-44569047D01*
X52435476Y-44235714D01*
X52483095Y-44045238D01*
X52578333Y-43950000D01*
X52673571Y-43902380D01*
X53435476Y-43902380D02*
X53673571Y-44902380D01*
X53864047Y-44188095D01*
X54054523Y-44902380D01*
X54292619Y-43902380D01*
X55387857Y-44616666D02*
X55864047Y-44616666D01*
X55292619Y-44902380D02*
X55625952Y-43902380D01*
X55959285Y-44902380D01*
X56292619Y-44902380D02*
X56292619Y-43902380D01*
X56530714Y-43902380D01*
X56673571Y-43950000D01*
X56768809Y-44045238D01*
X56816428Y-44140476D01*
X56864047Y-44330952D01*
X56864047Y-44473809D01*
X56816428Y-44664285D01*
X56768809Y-44759523D01*
X56673571Y-44854761D01*
X56530714Y-44902380D01*
X56292619Y-44902380D01*
X57292619Y-44902380D02*
X57292619Y-43902380D01*
X57530714Y-43902380D01*
X57673571Y-43950000D01*
X57768809Y-44045238D01*
X57816428Y-44140476D01*
X57864047Y-44330952D01*
X57864047Y-44473809D01*
X57816428Y-44664285D01*
X57768809Y-44759523D01*
X57673571Y-44854761D01*
X57530714Y-44902380D01*
X57292619Y-44902380D01*
X58864047Y-44902380D02*
X58530714Y-44426190D01*
X58292619Y-44902380D02*
X58292619Y-43902380D01*
X58673571Y-43902380D01*
X58768809Y-43950000D01*
X58816428Y-43997619D01*
X58864047Y-44092857D01*
X58864047Y-44235714D01*
X58816428Y-44330952D01*
X58768809Y-44378571D01*
X58673571Y-44426190D01*
X58292619Y-44426190D01*
G04 #@! TO.C,C1*
X108398333Y-107037142D02*
X108350714Y-107084761D01*
X108207857Y-107132380D01*
X108112619Y-107132380D01*
X107969761Y-107084761D01*
X107874523Y-106989523D01*
X107826904Y-106894285D01*
X107779285Y-106703809D01*
X107779285Y-106560952D01*
X107826904Y-106370476D01*
X107874523Y-106275238D01*
X107969761Y-106180000D01*
X108112619Y-106132380D01*
X108207857Y-106132380D01*
X108350714Y-106180000D01*
X108398333Y-106227619D01*
X109350714Y-107132380D02*
X108779285Y-107132380D01*
X109065000Y-107132380D02*
X109065000Y-106132380D01*
X108969761Y-106275238D01*
X108874523Y-106370476D01*
X108779285Y-106418095D01*
G04 #@! TO.C,C7*
X30928333Y-107287142D02*
X30880714Y-107334761D01*
X30737857Y-107382380D01*
X30642619Y-107382380D01*
X30499761Y-107334761D01*
X30404523Y-107239523D01*
X30356904Y-107144285D01*
X30309285Y-106953809D01*
X30309285Y-106810952D01*
X30356904Y-106620476D01*
X30404523Y-106525238D01*
X30499761Y-106430000D01*
X30642619Y-106382380D01*
X30737857Y-106382380D01*
X30880714Y-106430000D01*
X30928333Y-106477619D01*
X31261666Y-106382380D02*
X31928333Y-106382380D01*
X31499761Y-107382380D01*
G04 #@! TO.C,C9*
X70842142Y-81466666D02*
X70889761Y-81514285D01*
X70937380Y-81657142D01*
X70937380Y-81752380D01*
X70889761Y-81895238D01*
X70794523Y-81990476D01*
X70699285Y-82038095D01*
X70508809Y-82085714D01*
X70365952Y-82085714D01*
X70175476Y-82038095D01*
X70080238Y-81990476D01*
X69985000Y-81895238D01*
X69937380Y-81752380D01*
X69937380Y-81657142D01*
X69985000Y-81514285D01*
X70032619Y-81466666D01*
X70937380Y-80990476D02*
X70937380Y-80800000D01*
X70889761Y-80704761D01*
X70842142Y-80657142D01*
X70699285Y-80561904D01*
X70508809Y-80514285D01*
X70127857Y-80514285D01*
X70032619Y-80561904D01*
X69985000Y-80609523D01*
X69937380Y-80704761D01*
X69937380Y-80895238D01*
X69985000Y-80990476D01*
X70032619Y-81038095D01*
X70127857Y-81085714D01*
X70365952Y-81085714D01*
X70461190Y-81038095D01*
X70508809Y-80990476D01*
X70556428Y-80895238D01*
X70556428Y-80704761D01*
X70508809Y-80609523D01*
X70461190Y-80561904D01*
X70365952Y-80514285D01*
G04 #@! TO.C,C3*
X112883333Y-25122142D02*
X112835714Y-25169761D01*
X112692857Y-25217380D01*
X112597619Y-25217380D01*
X112454761Y-25169761D01*
X112359523Y-25074523D01*
X112311904Y-24979285D01*
X112264285Y-24788809D01*
X112264285Y-24645952D01*
X112311904Y-24455476D01*
X112359523Y-24360238D01*
X112454761Y-24265000D01*
X112597619Y-24217380D01*
X112692857Y-24217380D01*
X112835714Y-24265000D01*
X112883333Y-24312619D01*
X113216666Y-24217380D02*
X113835714Y-24217380D01*
X113502380Y-24598333D01*
X113645238Y-24598333D01*
X113740476Y-24645952D01*
X113788095Y-24693571D01*
X113835714Y-24788809D01*
X113835714Y-25026904D01*
X113788095Y-25122142D01*
X113740476Y-25169761D01*
X113645238Y-25217380D01*
X113359523Y-25217380D01*
X113264285Y-25169761D01*
X113216666Y-25122142D01*
G04 #@! TO.C,C4*
X37187142Y-94146666D02*
X37234761Y-94194285D01*
X37282380Y-94337142D01*
X37282380Y-94432380D01*
X37234761Y-94575238D01*
X37139523Y-94670476D01*
X37044285Y-94718095D01*
X36853809Y-94765714D01*
X36710952Y-94765714D01*
X36520476Y-94718095D01*
X36425238Y-94670476D01*
X36330000Y-94575238D01*
X36282380Y-94432380D01*
X36282380Y-94337142D01*
X36330000Y-94194285D01*
X36377619Y-94146666D01*
X36615714Y-93289523D02*
X37282380Y-93289523D01*
X36234761Y-93527619D02*
X36949047Y-93765714D01*
X36949047Y-93146666D01*
G04 #@! TO.C,C5*
X37187142Y-68726666D02*
X37234761Y-68774285D01*
X37282380Y-68917142D01*
X37282380Y-69012380D01*
X37234761Y-69155238D01*
X37139523Y-69250476D01*
X37044285Y-69298095D01*
X36853809Y-69345714D01*
X36710952Y-69345714D01*
X36520476Y-69298095D01*
X36425238Y-69250476D01*
X36330000Y-69155238D01*
X36282380Y-69012380D01*
X36282380Y-68917142D01*
X36330000Y-68774285D01*
X36377619Y-68726666D01*
X36282380Y-67821904D02*
X36282380Y-68298095D01*
X36758571Y-68345714D01*
X36710952Y-68298095D01*
X36663333Y-68202857D01*
X36663333Y-67964761D01*
X36710952Y-67869523D01*
X36758571Y-67821904D01*
X36853809Y-67774285D01*
X37091904Y-67774285D01*
X37187142Y-67821904D01*
X37234761Y-67869523D01*
X37282380Y-67964761D01*
X37282380Y-68202857D01*
X37234761Y-68298095D01*
X37187142Y-68345714D01*
G04 #@! TO.C,C6*
X37187142Y-81446666D02*
X37234761Y-81494285D01*
X37282380Y-81637142D01*
X37282380Y-81732380D01*
X37234761Y-81875238D01*
X37139523Y-81970476D01*
X37044285Y-82018095D01*
X36853809Y-82065714D01*
X36710952Y-82065714D01*
X36520476Y-82018095D01*
X36425238Y-81970476D01*
X36330000Y-81875238D01*
X36282380Y-81732380D01*
X36282380Y-81637142D01*
X36330000Y-81494285D01*
X36377619Y-81446666D01*
X36282380Y-80589523D02*
X36282380Y-80780000D01*
X36330000Y-80875238D01*
X36377619Y-80922857D01*
X36520476Y-81018095D01*
X36710952Y-81065714D01*
X37091904Y-81065714D01*
X37187142Y-81018095D01*
X37234761Y-80970476D01*
X37282380Y-80875238D01*
X37282380Y-80684761D01*
X37234761Y-80589523D01*
X37187142Y-80541904D01*
X37091904Y-80494285D01*
X36853809Y-80494285D01*
X36758571Y-80541904D01*
X36710952Y-80589523D01*
X36663333Y-80684761D01*
X36663333Y-80875238D01*
X36710952Y-80970476D01*
X36758571Y-81018095D01*
X36853809Y-81065714D01*
G04 #@! TO.C,C8*
X70842142Y-68746666D02*
X70889761Y-68794285D01*
X70937380Y-68937142D01*
X70937380Y-69032380D01*
X70889761Y-69175238D01*
X70794523Y-69270476D01*
X70699285Y-69318095D01*
X70508809Y-69365714D01*
X70365952Y-69365714D01*
X70175476Y-69318095D01*
X70080238Y-69270476D01*
X69985000Y-69175238D01*
X69937380Y-69032380D01*
X69937380Y-68937142D01*
X69985000Y-68794285D01*
X70032619Y-68746666D01*
X70365952Y-68175238D02*
X70318333Y-68270476D01*
X70270714Y-68318095D01*
X70175476Y-68365714D01*
X70127857Y-68365714D01*
X70032619Y-68318095D01*
X69985000Y-68270476D01*
X69937380Y-68175238D01*
X69937380Y-67984761D01*
X69985000Y-67889523D01*
X70032619Y-67841904D01*
X70127857Y-67794285D01*
X70175476Y-67794285D01*
X70270714Y-67841904D01*
X70318333Y-67889523D01*
X70365952Y-67984761D01*
X70365952Y-68175238D01*
X70413571Y-68270476D01*
X70461190Y-68318095D01*
X70556428Y-68365714D01*
X70746904Y-68365714D01*
X70842142Y-68318095D01*
X70889761Y-68270476D01*
X70937380Y-68175238D01*
X70937380Y-67984761D01*
X70889761Y-67889523D01*
X70842142Y-67841904D01*
X70746904Y-67794285D01*
X70556428Y-67794285D01*
X70461190Y-67841904D01*
X70413571Y-67889523D01*
X70365952Y-67984761D01*
G04 #@! TO.C,C10*
X70842142Y-94602857D02*
X70889761Y-94650476D01*
X70937380Y-94793333D01*
X70937380Y-94888571D01*
X70889761Y-95031428D01*
X70794523Y-95126666D01*
X70699285Y-95174285D01*
X70508809Y-95221904D01*
X70365952Y-95221904D01*
X70175476Y-95174285D01*
X70080238Y-95126666D01*
X69985000Y-95031428D01*
X69937380Y-94888571D01*
X69937380Y-94793333D01*
X69985000Y-94650476D01*
X70032619Y-94602857D01*
X70937380Y-93650476D02*
X70937380Y-94221904D01*
X70937380Y-93936190D02*
X69937380Y-93936190D01*
X70080238Y-94031428D01*
X70175476Y-94126666D01*
X70223095Y-94221904D01*
X69937380Y-93031428D02*
X69937380Y-92936190D01*
X69985000Y-92840952D01*
X70032619Y-92793333D01*
X70127857Y-92745714D01*
X70318333Y-92698095D01*
X70556428Y-92698095D01*
X70746904Y-92745714D01*
X70842142Y-92793333D01*
X70889761Y-92840952D01*
X70937380Y-92936190D01*
X70937380Y-93031428D01*
X70889761Y-93126666D01*
X70842142Y-93174285D01*
X70746904Y-93221904D01*
X70556428Y-93269523D01*
X70318333Y-93269523D01*
X70127857Y-93221904D01*
X70032619Y-93174285D01*
X69985000Y-93126666D01*
X69937380Y-93031428D01*
G04 #@! TO.C,C2*
X112883333Y-60477142D02*
X112835714Y-60524761D01*
X112692857Y-60572380D01*
X112597619Y-60572380D01*
X112454761Y-60524761D01*
X112359523Y-60429523D01*
X112311904Y-60334285D01*
X112264285Y-60143809D01*
X112264285Y-60000952D01*
X112311904Y-59810476D01*
X112359523Y-59715238D01*
X112454761Y-59620000D01*
X112597619Y-59572380D01*
X112692857Y-59572380D01*
X112835714Y-59620000D01*
X112883333Y-59667619D01*
X113264285Y-59667619D02*
X113311904Y-59620000D01*
X113407142Y-59572380D01*
X113645238Y-59572380D01*
X113740476Y-59620000D01*
X113788095Y-59667619D01*
X113835714Y-59762857D01*
X113835714Y-59858095D01*
X113788095Y-60000952D01*
X113216666Y-60572380D01*
X113835714Y-60572380D01*
G04 #@! TO.C,U5*
X73112380Y-85851904D02*
X73921904Y-85851904D01*
X74017142Y-85804285D01*
X74064761Y-85756666D01*
X74112380Y-85661428D01*
X74112380Y-85470952D01*
X74064761Y-85375714D01*
X74017142Y-85328095D01*
X73921904Y-85280476D01*
X73112380Y-85280476D01*
X73112380Y-84328095D02*
X73112380Y-84804285D01*
X73588571Y-84851904D01*
X73540952Y-84804285D01*
X73493333Y-84709047D01*
X73493333Y-84470952D01*
X73540952Y-84375714D01*
X73588571Y-84328095D01*
X73683809Y-84280476D01*
X73921904Y-84280476D01*
X74017142Y-84328095D01*
X74064761Y-84375714D01*
X74112380Y-84470952D01*
X74112380Y-84709047D01*
X74064761Y-84804285D01*
X74017142Y-84851904D01*
X100842380Y-87462857D02*
X100842380Y-86796190D01*
X101842380Y-87224761D01*
X101175714Y-85986666D02*
X101842380Y-85986666D01*
X100794761Y-86224761D02*
X101509047Y-86462857D01*
X101509047Y-85843809D01*
X101842380Y-85462857D02*
X100842380Y-85462857D01*
X101318571Y-85462857D02*
X101318571Y-84891428D01*
X101842380Y-84891428D02*
X100842380Y-84891428D01*
X101747142Y-83843809D02*
X101794761Y-83891428D01*
X101842380Y-84034285D01*
X101842380Y-84129523D01*
X101794761Y-84272380D01*
X101699523Y-84367619D01*
X101604285Y-84415238D01*
X101413809Y-84462857D01*
X101270952Y-84462857D01*
X101080476Y-84415238D01*
X100985238Y-84367619D01*
X100890000Y-84272380D01*
X100842380Y-84129523D01*
X100842380Y-84034285D01*
X100890000Y-83891428D01*
X100937619Y-83843809D01*
X100842380Y-83558095D02*
X100842380Y-82986666D01*
X101842380Y-83272380D02*
X100842380Y-83272380D01*
X100937619Y-82700952D02*
X100890000Y-82653333D01*
X100842380Y-82558095D01*
X100842380Y-82320000D01*
X100890000Y-82224761D01*
X100937619Y-82177142D01*
X101032857Y-82129523D01*
X101128095Y-82129523D01*
X101270952Y-82177142D01*
X101842380Y-82748571D01*
X101842380Y-82129523D01*
X101175714Y-81272380D02*
X101842380Y-81272380D01*
X100794761Y-81510476D02*
X101509047Y-81748571D01*
X101509047Y-81129523D01*
X101175714Y-80320000D02*
X101842380Y-80320000D01*
X100794761Y-80558095D02*
X101509047Y-80796190D01*
X101509047Y-80177142D01*
G04 #@! TO.C,U3*
X73112380Y-98551904D02*
X73921904Y-98551904D01*
X74017142Y-98504285D01*
X74064761Y-98456666D01*
X74112380Y-98361428D01*
X74112380Y-98170952D01*
X74064761Y-98075714D01*
X74017142Y-98028095D01*
X73921904Y-97980476D01*
X73112380Y-97980476D01*
X73112380Y-97599523D02*
X73112380Y-96980476D01*
X73493333Y-97313809D01*
X73493333Y-97170952D01*
X73540952Y-97075714D01*
X73588571Y-97028095D01*
X73683809Y-96980476D01*
X73921904Y-96980476D01*
X74017142Y-97028095D01*
X74064761Y-97075714D01*
X74112380Y-97170952D01*
X74112380Y-97456666D01*
X74064761Y-97551904D01*
X74017142Y-97599523D01*
X100890000Y-98948571D02*
X100842380Y-99043809D01*
X100842380Y-99186666D01*
X100890000Y-99329523D01*
X100985238Y-99424761D01*
X101080476Y-99472380D01*
X101270952Y-99520000D01*
X101413809Y-99520000D01*
X101604285Y-99472380D01*
X101699523Y-99424761D01*
X101794761Y-99329523D01*
X101842380Y-99186666D01*
X101842380Y-99091428D01*
X101794761Y-98948571D01*
X101747142Y-98900952D01*
X101413809Y-98900952D01*
X101413809Y-99091428D01*
X101556666Y-98520000D02*
X101556666Y-98043809D01*
X101842380Y-98615238D02*
X100842380Y-98281904D01*
X101842380Y-97948571D01*
X101842380Y-97139047D02*
X101842380Y-97615238D01*
X100842380Y-97615238D01*
X101842380Y-96281904D02*
X101842380Y-96853333D01*
X101842380Y-96567619D02*
X100842380Y-96567619D01*
X100985238Y-96662857D01*
X101080476Y-96758095D01*
X101128095Y-96853333D01*
X100842380Y-95424761D02*
X100842380Y-95615238D01*
X100890000Y-95710476D01*
X100937619Y-95758095D01*
X101080476Y-95853333D01*
X101270952Y-95900952D01*
X101651904Y-95900952D01*
X101747142Y-95853333D01*
X101794761Y-95805714D01*
X101842380Y-95710476D01*
X101842380Y-95520000D01*
X101794761Y-95424761D01*
X101747142Y-95377142D01*
X101651904Y-95329523D01*
X101413809Y-95329523D01*
X101318571Y-95377142D01*
X101270952Y-95424761D01*
X101223333Y-95520000D01*
X101223333Y-95710476D01*
X101270952Y-95805714D01*
X101318571Y-95853333D01*
X101413809Y-95900952D01*
X100842380Y-95043809D02*
X101842380Y-94710476D01*
X100842380Y-94377142D01*
X101270952Y-93900952D02*
X101223333Y-93996190D01*
X101175714Y-94043809D01*
X101080476Y-94091428D01*
X101032857Y-94091428D01*
X100937619Y-94043809D01*
X100890000Y-93996190D01*
X100842380Y-93900952D01*
X100842380Y-93710476D01*
X100890000Y-93615238D01*
X100937619Y-93567619D01*
X101032857Y-93520000D01*
X101080476Y-93520000D01*
X101175714Y-93567619D01*
X101223333Y-93615238D01*
X101270952Y-93710476D01*
X101270952Y-93900952D01*
X101318571Y-93996190D01*
X101366190Y-94043809D01*
X101461428Y-94091428D01*
X101651904Y-94091428D01*
X101747142Y-94043809D01*
X101794761Y-93996190D01*
X101842380Y-93900952D01*
X101842380Y-93710476D01*
X101794761Y-93615238D01*
X101747142Y-93567619D01*
X101651904Y-93520000D01*
X101461428Y-93520000D01*
X101366190Y-93567619D01*
X101318571Y-93615238D01*
X101270952Y-93710476D01*
G04 #@! TO.C,U2*
X39457380Y-98551904D02*
X40266904Y-98551904D01*
X40362142Y-98504285D01*
X40409761Y-98456666D01*
X40457380Y-98361428D01*
X40457380Y-98170952D01*
X40409761Y-98075714D01*
X40362142Y-98028095D01*
X40266904Y-97980476D01*
X39457380Y-97980476D01*
X39552619Y-97551904D02*
X39505000Y-97504285D01*
X39457380Y-97409047D01*
X39457380Y-97170952D01*
X39505000Y-97075714D01*
X39552619Y-97028095D01*
X39647857Y-96980476D01*
X39743095Y-96980476D01*
X39885952Y-97028095D01*
X40457380Y-97599523D01*
X40457380Y-96980476D01*
X67235000Y-98948571D02*
X67187380Y-99043809D01*
X67187380Y-99186666D01*
X67235000Y-99329523D01*
X67330238Y-99424761D01*
X67425476Y-99472380D01*
X67615952Y-99520000D01*
X67758809Y-99520000D01*
X67949285Y-99472380D01*
X68044523Y-99424761D01*
X68139761Y-99329523D01*
X68187380Y-99186666D01*
X68187380Y-99091428D01*
X68139761Y-98948571D01*
X68092142Y-98900952D01*
X67758809Y-98900952D01*
X67758809Y-99091428D01*
X67901666Y-98520000D02*
X67901666Y-98043809D01*
X68187380Y-98615238D02*
X67187380Y-98281904D01*
X68187380Y-97948571D01*
X68187380Y-97139047D02*
X68187380Y-97615238D01*
X67187380Y-97615238D01*
X68187380Y-96281904D02*
X68187380Y-96853333D01*
X68187380Y-96567619D02*
X67187380Y-96567619D01*
X67330238Y-96662857D01*
X67425476Y-96758095D01*
X67473095Y-96853333D01*
X67187380Y-95424761D02*
X67187380Y-95615238D01*
X67235000Y-95710476D01*
X67282619Y-95758095D01*
X67425476Y-95853333D01*
X67615952Y-95900952D01*
X67996904Y-95900952D01*
X68092142Y-95853333D01*
X68139761Y-95805714D01*
X68187380Y-95710476D01*
X68187380Y-95520000D01*
X68139761Y-95424761D01*
X68092142Y-95377142D01*
X67996904Y-95329523D01*
X67758809Y-95329523D01*
X67663571Y-95377142D01*
X67615952Y-95424761D01*
X67568333Y-95520000D01*
X67568333Y-95710476D01*
X67615952Y-95805714D01*
X67663571Y-95853333D01*
X67758809Y-95900952D01*
X67187380Y-95043809D02*
X68187380Y-94710476D01*
X67187380Y-94377142D01*
X67615952Y-93900952D02*
X67568333Y-93996190D01*
X67520714Y-94043809D01*
X67425476Y-94091428D01*
X67377857Y-94091428D01*
X67282619Y-94043809D01*
X67235000Y-93996190D01*
X67187380Y-93900952D01*
X67187380Y-93710476D01*
X67235000Y-93615238D01*
X67282619Y-93567619D01*
X67377857Y-93520000D01*
X67425476Y-93520000D01*
X67520714Y-93567619D01*
X67568333Y-93615238D01*
X67615952Y-93710476D01*
X67615952Y-93900952D01*
X67663571Y-93996190D01*
X67711190Y-94043809D01*
X67806428Y-94091428D01*
X67996904Y-94091428D01*
X68092142Y-94043809D01*
X68139761Y-93996190D01*
X68187380Y-93900952D01*
X68187380Y-93710476D01*
X68139761Y-93615238D01*
X68092142Y-93567619D01*
X67996904Y-93520000D01*
X67806428Y-93520000D01*
X67711190Y-93567619D01*
X67663571Y-93615238D01*
X67615952Y-93710476D01*
G04 #@! TO.C,U1*
X39457380Y-85851904D02*
X40266904Y-85851904D01*
X40362142Y-85804285D01*
X40409761Y-85756666D01*
X40457380Y-85661428D01*
X40457380Y-85470952D01*
X40409761Y-85375714D01*
X40362142Y-85328095D01*
X40266904Y-85280476D01*
X39457380Y-85280476D01*
X40457380Y-84280476D02*
X40457380Y-84851904D01*
X40457380Y-84566190D02*
X39457380Y-84566190D01*
X39600238Y-84661428D01*
X39695476Y-84756666D01*
X39743095Y-84851904D01*
X67235000Y-86248571D02*
X67187380Y-86343809D01*
X67187380Y-86486666D01*
X67235000Y-86629523D01*
X67330238Y-86724761D01*
X67425476Y-86772380D01*
X67615952Y-86820000D01*
X67758809Y-86820000D01*
X67949285Y-86772380D01*
X68044523Y-86724761D01*
X68139761Y-86629523D01*
X68187380Y-86486666D01*
X68187380Y-86391428D01*
X68139761Y-86248571D01*
X68092142Y-86200952D01*
X67758809Y-86200952D01*
X67758809Y-86391428D01*
X67901666Y-85820000D02*
X67901666Y-85343809D01*
X68187380Y-85915238D02*
X67187380Y-85581904D01*
X68187380Y-85248571D01*
X68187380Y-84439047D02*
X68187380Y-84915238D01*
X67187380Y-84915238D01*
X68187380Y-83581904D02*
X68187380Y-84153333D01*
X68187380Y-83867619D02*
X67187380Y-83867619D01*
X67330238Y-83962857D01*
X67425476Y-84058095D01*
X67473095Y-84153333D01*
X67187380Y-82724761D02*
X67187380Y-82915238D01*
X67235000Y-83010476D01*
X67282619Y-83058095D01*
X67425476Y-83153333D01*
X67615952Y-83200952D01*
X67996904Y-83200952D01*
X68092142Y-83153333D01*
X68139761Y-83105714D01*
X68187380Y-83010476D01*
X68187380Y-82820000D01*
X68139761Y-82724761D01*
X68092142Y-82677142D01*
X67996904Y-82629523D01*
X67758809Y-82629523D01*
X67663571Y-82677142D01*
X67615952Y-82724761D01*
X67568333Y-82820000D01*
X67568333Y-83010476D01*
X67615952Y-83105714D01*
X67663571Y-83153333D01*
X67758809Y-83200952D01*
X67187380Y-82343809D02*
X68187380Y-82010476D01*
X67187380Y-81677142D01*
X67615952Y-81200952D02*
X67568333Y-81296190D01*
X67520714Y-81343809D01*
X67425476Y-81391428D01*
X67377857Y-81391428D01*
X67282619Y-81343809D01*
X67235000Y-81296190D01*
X67187380Y-81200952D01*
X67187380Y-81010476D01*
X67235000Y-80915238D01*
X67282619Y-80867619D01*
X67377857Y-80820000D01*
X67425476Y-80820000D01*
X67520714Y-80867619D01*
X67568333Y-80915238D01*
X67615952Y-81010476D01*
X67615952Y-81200952D01*
X67663571Y-81296190D01*
X67711190Y-81343809D01*
X67806428Y-81391428D01*
X67996904Y-81391428D01*
X68092142Y-81343809D01*
X68139761Y-81296190D01*
X68187380Y-81200952D01*
X68187380Y-81010476D01*
X68139761Y-80915238D01*
X68092142Y-80867619D01*
X67996904Y-80820000D01*
X67806428Y-80820000D01*
X67711190Y-80867619D01*
X67663571Y-80915238D01*
X67615952Y-81010476D01*
G04 #@! TO.C,U6*
X73112380Y-73151904D02*
X73921904Y-73151904D01*
X74017142Y-73104285D01*
X74064761Y-73056666D01*
X74112380Y-72961428D01*
X74112380Y-72770952D01*
X74064761Y-72675714D01*
X74017142Y-72628095D01*
X73921904Y-72580476D01*
X73112380Y-72580476D01*
X73112380Y-71675714D02*
X73112380Y-71866190D01*
X73160000Y-71961428D01*
X73207619Y-72009047D01*
X73350476Y-72104285D01*
X73540952Y-72151904D01*
X73921904Y-72151904D01*
X74017142Y-72104285D01*
X74064761Y-72056666D01*
X74112380Y-71961428D01*
X74112380Y-71770952D01*
X74064761Y-71675714D01*
X74017142Y-71628095D01*
X73921904Y-71580476D01*
X73683809Y-71580476D01*
X73588571Y-71628095D01*
X73540952Y-71675714D01*
X73493333Y-71770952D01*
X73493333Y-71961428D01*
X73540952Y-72056666D01*
X73588571Y-72104285D01*
X73683809Y-72151904D01*
X100842380Y-74762857D02*
X100842380Y-74096190D01*
X101842380Y-74524761D01*
X101175714Y-73286666D02*
X101842380Y-73286666D01*
X100794761Y-73524761D02*
X101509047Y-73762857D01*
X101509047Y-73143809D01*
X101842380Y-72762857D02*
X100842380Y-72762857D01*
X101318571Y-72762857D02*
X101318571Y-72191428D01*
X101842380Y-72191428D02*
X100842380Y-72191428D01*
X101747142Y-71143809D02*
X101794761Y-71191428D01*
X101842380Y-71334285D01*
X101842380Y-71429523D01*
X101794761Y-71572380D01*
X101699523Y-71667619D01*
X101604285Y-71715238D01*
X101413809Y-71762857D01*
X101270952Y-71762857D01*
X101080476Y-71715238D01*
X100985238Y-71667619D01*
X100890000Y-71572380D01*
X100842380Y-71429523D01*
X100842380Y-71334285D01*
X100890000Y-71191428D01*
X100937619Y-71143809D01*
X100842380Y-70858095D02*
X100842380Y-70286666D01*
X101842380Y-70572380D02*
X100842380Y-70572380D01*
X100937619Y-70000952D02*
X100890000Y-69953333D01*
X100842380Y-69858095D01*
X100842380Y-69620000D01*
X100890000Y-69524761D01*
X100937619Y-69477142D01*
X101032857Y-69429523D01*
X101128095Y-69429523D01*
X101270952Y-69477142D01*
X101842380Y-70048571D01*
X101842380Y-69429523D01*
X101175714Y-68572380D02*
X101842380Y-68572380D01*
X100794761Y-68810476D02*
X101509047Y-69048571D01*
X101509047Y-68429523D01*
X101175714Y-67620000D02*
X101842380Y-67620000D01*
X100794761Y-67858095D02*
X101509047Y-68096190D01*
X101509047Y-67477142D01*
G04 #@! TO.C,D5*
X53236904Y-27757380D02*
X53236904Y-26757380D01*
X53475000Y-26757380D01*
X53617857Y-26805000D01*
X53713095Y-26900238D01*
X53760714Y-26995476D01*
X53808333Y-27185952D01*
X53808333Y-27328809D01*
X53760714Y-27519285D01*
X53713095Y-27614523D01*
X53617857Y-27709761D01*
X53475000Y-27757380D01*
X53236904Y-27757380D01*
X54713095Y-26757380D02*
X54236904Y-26757380D01*
X54189285Y-27233571D01*
X54236904Y-27185952D01*
X54332142Y-27138333D01*
X54570238Y-27138333D01*
X54665476Y-27185952D01*
X54713095Y-27233571D01*
X54760714Y-27328809D01*
X54760714Y-27566904D01*
X54713095Y-27662142D01*
X54665476Y-27709761D01*
X54570238Y-27757380D01*
X54332142Y-27757380D01*
X54236904Y-27709761D01*
X54189285Y-27662142D01*
X53355952Y-21312142D02*
X53308333Y-21359761D01*
X53165476Y-21407380D01*
X53070238Y-21407380D01*
X52927380Y-21359761D01*
X52832142Y-21264523D01*
X52784523Y-21169285D01*
X52736904Y-20978809D01*
X52736904Y-20835952D01*
X52784523Y-20645476D01*
X52832142Y-20550238D01*
X52927380Y-20455000D01*
X53070238Y-20407380D01*
X53165476Y-20407380D01*
X53308333Y-20455000D01*
X53355952Y-20502619D01*
X53975000Y-20407380D02*
X54165476Y-20407380D01*
X54260714Y-20455000D01*
X54355952Y-20550238D01*
X54403571Y-20740714D01*
X54403571Y-21074047D01*
X54355952Y-21264523D01*
X54260714Y-21359761D01*
X54165476Y-21407380D01*
X53975000Y-21407380D01*
X53879761Y-21359761D01*
X53784523Y-21264523D01*
X53736904Y-21074047D01*
X53736904Y-20740714D01*
X53784523Y-20550238D01*
X53879761Y-20455000D01*
X53975000Y-20407380D01*
X55308333Y-21407380D02*
X54832142Y-21407380D01*
X54832142Y-20407380D01*
G04 #@! TO.C,D1*
X30376904Y-27757380D02*
X30376904Y-26757380D01*
X30615000Y-26757380D01*
X30757857Y-26805000D01*
X30853095Y-26900238D01*
X30900714Y-26995476D01*
X30948333Y-27185952D01*
X30948333Y-27328809D01*
X30900714Y-27519285D01*
X30853095Y-27614523D01*
X30757857Y-27709761D01*
X30615000Y-27757380D01*
X30376904Y-27757380D01*
X31900714Y-27757380D02*
X31329285Y-27757380D01*
X31615000Y-27757380D02*
X31615000Y-26757380D01*
X31519761Y-26900238D01*
X31424523Y-26995476D01*
X31329285Y-27043095D01*
X30948333Y-21407380D02*
X30615000Y-20931190D01*
X30376904Y-21407380D02*
X30376904Y-20407380D01*
X30757857Y-20407380D01*
X30853095Y-20455000D01*
X30900714Y-20502619D01*
X30948333Y-20597857D01*
X30948333Y-20740714D01*
X30900714Y-20835952D01*
X30853095Y-20883571D01*
X30757857Y-20931190D01*
X30376904Y-20931190D01*
X31281666Y-20407380D02*
X31948333Y-21407380D01*
X31948333Y-20407380D02*
X31281666Y-21407380D01*
G04 #@! TO.C,D2*
X36091904Y-27757380D02*
X36091904Y-26757380D01*
X36330000Y-26757380D01*
X36472857Y-26805000D01*
X36568095Y-26900238D01*
X36615714Y-26995476D01*
X36663333Y-27185952D01*
X36663333Y-27328809D01*
X36615714Y-27519285D01*
X36568095Y-27614523D01*
X36472857Y-27709761D01*
X36330000Y-27757380D01*
X36091904Y-27757380D01*
X37044285Y-26852619D02*
X37091904Y-26805000D01*
X37187142Y-26757380D01*
X37425238Y-26757380D01*
X37520476Y-26805000D01*
X37568095Y-26852619D01*
X37615714Y-26947857D01*
X37615714Y-27043095D01*
X37568095Y-27185952D01*
X36996666Y-27757380D01*
X37615714Y-27757380D01*
X36068095Y-20407380D02*
X36639523Y-20407380D01*
X36353809Y-21407380D02*
X36353809Y-20407380D01*
X36877619Y-20407380D02*
X37544285Y-21407380D01*
X37544285Y-20407380D02*
X36877619Y-21407380D01*
G04 #@! TO.C,D3*
X41806904Y-27757380D02*
X41806904Y-26757380D01*
X42045000Y-26757380D01*
X42187857Y-26805000D01*
X42283095Y-26900238D01*
X42330714Y-26995476D01*
X42378333Y-27185952D01*
X42378333Y-27328809D01*
X42330714Y-27519285D01*
X42283095Y-27614523D01*
X42187857Y-27709761D01*
X42045000Y-27757380D01*
X41806904Y-27757380D01*
X42711666Y-26757380D02*
X43330714Y-26757380D01*
X42997380Y-27138333D01*
X43140238Y-27138333D01*
X43235476Y-27185952D01*
X43283095Y-27233571D01*
X43330714Y-27328809D01*
X43330714Y-27566904D01*
X43283095Y-27662142D01*
X43235476Y-27709761D01*
X43140238Y-27757380D01*
X42854523Y-27757380D01*
X42759285Y-27709761D01*
X42711666Y-27662142D01*
X41878333Y-21407380D02*
X41306904Y-21407380D01*
X41592619Y-21407380D02*
X41592619Y-20407380D01*
X41497380Y-20550238D01*
X41402142Y-20645476D01*
X41306904Y-20693095D01*
X42497380Y-20407380D02*
X42592619Y-20407380D01*
X42687857Y-20455000D01*
X42735476Y-20502619D01*
X42783095Y-20597857D01*
X42830714Y-20788333D01*
X42830714Y-21026428D01*
X42783095Y-21216904D01*
X42735476Y-21312142D01*
X42687857Y-21359761D01*
X42592619Y-21407380D01*
X42497380Y-21407380D01*
X42402142Y-21359761D01*
X42354523Y-21312142D01*
X42306904Y-21216904D01*
X42259285Y-21026428D01*
X42259285Y-20788333D01*
X42306904Y-20597857D01*
X42354523Y-20502619D01*
X42402142Y-20455000D01*
X42497380Y-20407380D01*
X43449761Y-20407380D02*
X43545000Y-20407380D01*
X43640238Y-20455000D01*
X43687857Y-20502619D01*
X43735476Y-20597857D01*
X43783095Y-20788333D01*
X43783095Y-21026428D01*
X43735476Y-21216904D01*
X43687857Y-21312142D01*
X43640238Y-21359761D01*
X43545000Y-21407380D01*
X43449761Y-21407380D01*
X43354523Y-21359761D01*
X43306904Y-21312142D01*
X43259285Y-21216904D01*
X43211666Y-21026428D01*
X43211666Y-20788333D01*
X43259285Y-20597857D01*
X43306904Y-20502619D01*
X43354523Y-20455000D01*
X43449761Y-20407380D01*
G04 #@! TO.C,D4*
X47521904Y-27757380D02*
X47521904Y-26757380D01*
X47760000Y-26757380D01*
X47902857Y-26805000D01*
X47998095Y-26900238D01*
X48045714Y-26995476D01*
X48093333Y-27185952D01*
X48093333Y-27328809D01*
X48045714Y-27519285D01*
X47998095Y-27614523D01*
X47902857Y-27709761D01*
X47760000Y-27757380D01*
X47521904Y-27757380D01*
X48950476Y-27090714D02*
X48950476Y-27757380D01*
X48712380Y-26709761D02*
X48474285Y-27424047D01*
X49093333Y-27424047D01*
X47426666Y-20883571D02*
X47093333Y-20883571D01*
X47093333Y-21407380D02*
X47093333Y-20407380D01*
X47569523Y-20407380D01*
X47950476Y-21407380D02*
X47950476Y-20407380D01*
X48188571Y-20407380D01*
X48331428Y-20455000D01*
X48426666Y-20550238D01*
X48474285Y-20645476D01*
X48521904Y-20835952D01*
X48521904Y-20978809D01*
X48474285Y-21169285D01*
X48426666Y-21264523D01*
X48331428Y-21359761D01*
X48188571Y-21407380D01*
X47950476Y-21407380D01*
X48855238Y-20407380D02*
X49521904Y-21407380D01*
X49521904Y-20407380D02*
X48855238Y-21407380D01*
G04 #@! TO.C,JP1*
X110291666Y-86657380D02*
X110291666Y-87371666D01*
X110244047Y-87514523D01*
X110148809Y-87609761D01*
X110005952Y-87657380D01*
X109910714Y-87657380D01*
X110767857Y-87657380D02*
X110767857Y-86657380D01*
X111148809Y-86657380D01*
X111244047Y-86705000D01*
X111291666Y-86752619D01*
X111339285Y-86847857D01*
X111339285Y-86990714D01*
X111291666Y-87085952D01*
X111244047Y-87133571D01*
X111148809Y-87181190D01*
X110767857Y-87181190D01*
X112291666Y-87657380D02*
X111720238Y-87657380D01*
X112005952Y-87657380D02*
X112005952Y-86657380D01*
X111910714Y-86800238D01*
X111815476Y-86895476D01*
X111720238Y-86943095D01*
X109910714Y-94285952D02*
X109815476Y-94238333D01*
X109767857Y-94190714D01*
X109720238Y-94095476D01*
X109720238Y-94047857D01*
X109767857Y-93952619D01*
X109815476Y-93905000D01*
X109910714Y-93857380D01*
X110101190Y-93857380D01*
X110196428Y-93905000D01*
X110244047Y-93952619D01*
X110291666Y-94047857D01*
X110291666Y-94095476D01*
X110244047Y-94190714D01*
X110196428Y-94238333D01*
X110101190Y-94285952D01*
X109910714Y-94285952D01*
X109815476Y-94333571D01*
X109767857Y-94381190D01*
X109720238Y-94476428D01*
X109720238Y-94666904D01*
X109767857Y-94762142D01*
X109815476Y-94809761D01*
X109910714Y-94857380D01*
X110101190Y-94857380D01*
X110196428Y-94809761D01*
X110244047Y-94762142D01*
X110291666Y-94666904D01*
X110291666Y-94476428D01*
X110244047Y-94381190D01*
X110196428Y-94333571D01*
X110101190Y-94285952D01*
X111053571Y-94333571D02*
X111196428Y-94381190D01*
X111244047Y-94428809D01*
X111291666Y-94524047D01*
X111291666Y-94666904D01*
X111244047Y-94762142D01*
X111196428Y-94809761D01*
X111101190Y-94857380D01*
X110720238Y-94857380D01*
X110720238Y-93857380D01*
X111053571Y-93857380D01*
X111148809Y-93905000D01*
X111196428Y-93952619D01*
X111244047Y-94047857D01*
X111244047Y-94143095D01*
X111196428Y-94238333D01*
X111148809Y-94285952D01*
X111053571Y-94333571D01*
X110720238Y-94333571D01*
X111720238Y-94857380D02*
X111720238Y-93857380D01*
X112053571Y-93857380D02*
X112625000Y-93857380D01*
X112339285Y-94857380D02*
X112339285Y-93857380D01*
G04 #@! TO.C,JP2*
X105846666Y-86657380D02*
X105846666Y-87371666D01*
X105799047Y-87514523D01*
X105703809Y-87609761D01*
X105560952Y-87657380D01*
X105465714Y-87657380D01*
X106322857Y-87657380D02*
X106322857Y-86657380D01*
X106703809Y-86657380D01*
X106799047Y-86705000D01*
X106846666Y-86752619D01*
X106894285Y-86847857D01*
X106894285Y-86990714D01*
X106846666Y-87085952D01*
X106799047Y-87133571D01*
X106703809Y-87181190D01*
X106322857Y-87181190D01*
X107275238Y-86752619D02*
X107322857Y-86705000D01*
X107418095Y-86657380D01*
X107656190Y-86657380D01*
X107751428Y-86705000D01*
X107799047Y-86752619D01*
X107846666Y-86847857D01*
X107846666Y-86943095D01*
X107799047Y-87085952D01*
X107227619Y-87657380D01*
X107846666Y-87657380D01*
X105156190Y-94857380D02*
X105156190Y-93857380D01*
X105632380Y-94857380D02*
X105632380Y-93857380D01*
X106203809Y-94857380D01*
X106203809Y-93857380D01*
X106680000Y-94857380D02*
X106680000Y-93857380D01*
X106918095Y-93857380D01*
X107060952Y-93905000D01*
X107156190Y-94000238D01*
X107203809Y-94095476D01*
X107251428Y-94285952D01*
X107251428Y-94428809D01*
X107203809Y-94619285D01*
X107156190Y-94714523D01*
X107060952Y-94809761D01*
X106918095Y-94857380D01*
X106680000Y-94857380D01*
X108251428Y-94857380D02*
X107918095Y-94381190D01*
X107680000Y-94857380D02*
X107680000Y-93857380D01*
X108060952Y-93857380D01*
X108156190Y-93905000D01*
X108203809Y-93952619D01*
X108251428Y-94047857D01*
X108251428Y-94190714D01*
X108203809Y-94285952D01*
X108156190Y-94333571D01*
X108060952Y-94381190D01*
X107680000Y-94381190D01*
G04 #@! TO.C,J4*
X29511666Y-67607380D02*
X29511666Y-68321666D01*
X29464047Y-68464523D01*
X29368809Y-68559761D01*
X29225952Y-68607380D01*
X29130714Y-68607380D01*
X30416428Y-67940714D02*
X30416428Y-68607380D01*
X30178333Y-67559761D02*
X29940238Y-68274047D01*
X30559285Y-68274047D01*
X28940238Y-91047380D02*
X28940238Y-90047380D01*
X29416428Y-91047380D02*
X29416428Y-90047380D01*
X29987857Y-91047380D01*
X29987857Y-90047380D01*
X30321190Y-90047380D02*
X30892619Y-90047380D01*
X30606904Y-91047380D02*
X30606904Y-90047380D01*
G04 #@! TO.C,J2*
X113542380Y-28908333D02*
X114256666Y-28908333D01*
X114399523Y-28955952D01*
X114494761Y-29051190D01*
X114542380Y-29194047D01*
X114542380Y-29289285D01*
X113637619Y-28479761D02*
X113590000Y-28432142D01*
X113542380Y-28336904D01*
X113542380Y-28098809D01*
X113590000Y-28003571D01*
X113637619Y-27955952D01*
X113732857Y-27908333D01*
X113828095Y-27908333D01*
X113970952Y-27955952D01*
X114542380Y-28527380D01*
X114542380Y-27908333D01*
G04 #@! TO.C,J3*
X113542380Y-56848333D02*
X114256666Y-56848333D01*
X114399523Y-56895952D01*
X114494761Y-56991190D01*
X114542380Y-57134047D01*
X114542380Y-57229285D01*
X113542380Y-56467380D02*
X113542380Y-55848333D01*
X113923333Y-56181666D01*
X113923333Y-56038809D01*
X113970952Y-55943571D01*
X114018571Y-55895952D01*
X114113809Y-55848333D01*
X114351904Y-55848333D01*
X114447142Y-55895952D01*
X114494761Y-55943571D01*
X114542380Y-56038809D01*
X114542380Y-56324523D01*
X114494761Y-56419761D01*
X114447142Y-56467380D01*
G04 #@! TO.C,R4*
X43648333Y-33472380D02*
X43315000Y-32996190D01*
X43076904Y-33472380D02*
X43076904Y-32472380D01*
X43457857Y-32472380D01*
X43553095Y-32520000D01*
X43600714Y-32567619D01*
X43648333Y-32662857D01*
X43648333Y-32805714D01*
X43600714Y-32900952D01*
X43553095Y-32948571D01*
X43457857Y-32996190D01*
X43076904Y-32996190D01*
X44505476Y-32805714D02*
X44505476Y-33472380D01*
X44267380Y-32424761D02*
X44029285Y-33139047D01*
X44648333Y-33139047D01*
G04 #@! TO.C,R5*
X43648333Y-37282380D02*
X43315000Y-36806190D01*
X43076904Y-37282380D02*
X43076904Y-36282380D01*
X43457857Y-36282380D01*
X43553095Y-36330000D01*
X43600714Y-36377619D01*
X43648333Y-36472857D01*
X43648333Y-36615714D01*
X43600714Y-36710952D01*
X43553095Y-36758571D01*
X43457857Y-36806190D01*
X43076904Y-36806190D01*
X44553095Y-36282380D02*
X44076904Y-36282380D01*
X44029285Y-36758571D01*
X44076904Y-36710952D01*
X44172142Y-36663333D01*
X44410238Y-36663333D01*
X44505476Y-36710952D01*
X44553095Y-36758571D01*
X44600714Y-36853809D01*
X44600714Y-37091904D01*
X44553095Y-37187142D01*
X44505476Y-37234761D01*
X44410238Y-37282380D01*
X44172142Y-37282380D01*
X44076904Y-37234761D01*
X44029285Y-37187142D01*
G04 #@! TO.C,R6*
X56983333Y-33472380D02*
X56650000Y-32996190D01*
X56411904Y-33472380D02*
X56411904Y-32472380D01*
X56792857Y-32472380D01*
X56888095Y-32520000D01*
X56935714Y-32567619D01*
X56983333Y-32662857D01*
X56983333Y-32805714D01*
X56935714Y-32900952D01*
X56888095Y-32948571D01*
X56792857Y-32996190D01*
X56411904Y-32996190D01*
X57840476Y-32472380D02*
X57650000Y-32472380D01*
X57554761Y-32520000D01*
X57507142Y-32567619D01*
X57411904Y-32710476D01*
X57364285Y-32900952D01*
X57364285Y-33281904D01*
X57411904Y-33377142D01*
X57459523Y-33424761D01*
X57554761Y-33472380D01*
X57745238Y-33472380D01*
X57840476Y-33424761D01*
X57888095Y-33377142D01*
X57935714Y-33281904D01*
X57935714Y-33043809D01*
X57888095Y-32948571D01*
X57840476Y-32900952D01*
X57745238Y-32853333D01*
X57554761Y-32853333D01*
X57459523Y-32900952D01*
X57411904Y-32948571D01*
X57364285Y-33043809D01*
G04 #@! TO.C,R1*
X77303333Y-107132380D02*
X76970000Y-106656190D01*
X76731904Y-107132380D02*
X76731904Y-106132380D01*
X77112857Y-106132380D01*
X77208095Y-106180000D01*
X77255714Y-106227619D01*
X77303333Y-106322857D01*
X77303333Y-106465714D01*
X77255714Y-106560952D01*
X77208095Y-106608571D01*
X77112857Y-106656190D01*
X76731904Y-106656190D01*
X78255714Y-107132380D02*
X77684285Y-107132380D01*
X77970000Y-107132380D02*
X77970000Y-106132380D01*
X77874761Y-106275238D01*
X77779523Y-106370476D01*
X77684285Y-106418095D01*
X76779523Y-104560714D02*
X76779523Y-105227380D01*
X76541428Y-104179761D02*
X76303333Y-104894047D01*
X76922380Y-104894047D01*
X77303333Y-105227380D02*
X77303333Y-104227380D01*
X77398571Y-104846428D02*
X77684285Y-105227380D01*
X77684285Y-104560714D02*
X77303333Y-104941666D01*
X78017619Y-104227380D02*
X78684285Y-104227380D01*
X78255714Y-105227380D01*
G04 #@! TO.C,R2*
X30313333Y-33472380D02*
X29980000Y-32996190D01*
X29741904Y-33472380D02*
X29741904Y-32472380D01*
X30122857Y-32472380D01*
X30218095Y-32520000D01*
X30265714Y-32567619D01*
X30313333Y-32662857D01*
X30313333Y-32805714D01*
X30265714Y-32900952D01*
X30218095Y-32948571D01*
X30122857Y-32996190D01*
X29741904Y-32996190D01*
X30694285Y-32567619D02*
X30741904Y-32520000D01*
X30837142Y-32472380D01*
X31075238Y-32472380D01*
X31170476Y-32520000D01*
X31218095Y-32567619D01*
X31265714Y-32662857D01*
X31265714Y-32758095D01*
X31218095Y-32900952D01*
X30646666Y-33472380D01*
X31265714Y-33472380D01*
G04 #@! TO.C,R3*
X30313333Y-37282380D02*
X29980000Y-36806190D01*
X29741904Y-37282380D02*
X29741904Y-36282380D01*
X30122857Y-36282380D01*
X30218095Y-36330000D01*
X30265714Y-36377619D01*
X30313333Y-36472857D01*
X30313333Y-36615714D01*
X30265714Y-36710952D01*
X30218095Y-36758571D01*
X30122857Y-36806190D01*
X29741904Y-36806190D01*
X30646666Y-36282380D02*
X31265714Y-36282380D01*
X30932380Y-36663333D01*
X31075238Y-36663333D01*
X31170476Y-36710952D01*
X31218095Y-36758571D01*
X31265714Y-36853809D01*
X31265714Y-37091904D01*
X31218095Y-37187142D01*
X31170476Y-37234761D01*
X31075238Y-37282380D01*
X30789523Y-37282380D01*
X30694285Y-37234761D01*
X30646666Y-37187142D01*
G04 #@! TO.C,J1*
D16*
X74481266Y-126939523D02*
X74481266Y-127846666D01*
X74420790Y-128028095D01*
X74299838Y-128149047D01*
X74118409Y-128209523D01*
X73997457Y-128209523D01*
X75751266Y-128209523D02*
X75025552Y-128209523D01*
X75388409Y-128209523D02*
X75388409Y-126939523D01*
X75267457Y-127120952D01*
X75146504Y-127241904D01*
X75025552Y-127302380D01*
G04 #@! TD*
M02*
