M48
;DRILL file {KiCad (5.0.2)-1} date 1/3/2019 8:37:29 AM
;FORMAT={-:-/ absolute / inch / decimal}
FMAT,2
INCH,TZ
T1C0.0157
T2C0.0315
T3C0.0320
T4C0.0354
T5C0.0394
T6C0.0870
%
G90
G05
T1
X0.85Y-0.85
X0.85Y-0.9
X0.9Y-0.85
X0.9Y-0.9
X1.4222Y-3.5813
X1.7817Y-3.0563
X1.9405Y-2.5199
X2.0751Y-3.3339
X2.2466Y-1.8969
X2.3048Y-3.8788
X2.3725Y-3.3007
X2.6786Y-4.1934
X2.6931Y-3.538
X2.947Y-2.319
X2.9743Y-4.0348
X2.9888Y-4.0804
X2.9956Y-3.0889
X3.084Y-4.3346
X3.1787Y-3.3226
X3.2819Y-4.1716
X3.2933Y-3.2712
X3.3997Y-3.8444
X3.4978Y-4.1007
X3.5039Y-1.4168
X3.6849Y-3.0378
X3.689Y-2.4271
X3.71Y-4.1045
X3.8289Y-4.2291
X3.9Y-3.25
X3.9745Y-2.5518
X3.9774Y-2.3676
X3.9998Y-2.9007
X4.0022Y-2.7461
X4.0427Y-4.0901
X4.175Y-2.925
X4.2129Y-1.5843
X4.2409Y-3.4272
X4.35Y-2.775
X4.5Y-2.625
X4.675Y-0.85
X4.675Y-0.85
X4.675Y-0.85
X4.675Y-0.85
X4.675Y-0.85
X4.675Y-0.9
T2
X1.05Y-1.85
X1.05Y-2.15
X1.15Y-1.85
X1.15Y-2.15
X1.25Y-1.85
X1.25Y-2.15
X1.35Y-1.85
X1.35Y-2.15
X1.45Y-1.85
X1.45Y-2.15
X1.55Y-1.85
X1.55Y-2.15
X1.875Y-1.85
X1.875Y-2.15
X1.975Y-1.85
X1.975Y-2.15
X2.075Y-1.85
X2.075Y-2.15
X2.175Y-1.85
X2.175Y-2.15
X2.275Y-1.85
X2.275Y-2.15
X2.375Y-1.85
X2.375Y-2.15
X2.475Y-1.85
X2.475Y-2.15
X3.Y-3.65
X3.Y-3.95
X3.1Y-3.65
X3.1Y-3.95
X3.2Y-3.65
X3.2Y-3.95
X3.3Y-3.65
X3.3Y-3.95
X3.4Y-3.65
X3.4Y-3.95
X3.5Y-3.65
X3.5Y-3.95
X3.6Y-3.65
X3.6Y-3.95
X3.7Y-3.65
X3.7Y-3.95
X3.8Y-3.65
X3.8Y-3.95
X3.9Y-3.65
X3.9Y-3.95
X1.Y-1.3
X1.4Y-1.3
X1.525Y-1.3
X1.925Y-1.3
X1.525Y-2.65
X1.525Y-2.7484
X1.675Y-2.65
X1.675Y-2.95
X1.775Y-2.65
X1.775Y-2.95
X1.875Y-2.65
X1.875Y-2.95
X1.975Y-2.65
X1.975Y-2.95
X2.075Y-2.65
X2.075Y-2.95
X2.175Y-2.65
X2.175Y-2.95
X2.275Y-2.65
X2.275Y-2.95
X2.375Y-2.65
X2.375Y-2.95
X2.475Y-2.65
X2.475Y-2.95
X2.575Y-2.65
X2.575Y-2.95
X2.85Y-3.65
X2.85Y-3.7484
X2.85Y-4.125
X3.25Y-4.125
X1.Y-1.45
X1.4Y-1.45
X1.175Y-4.05
X1.2734Y-4.05
X4.4016Y-0.9
X4.5Y-0.9
X1.525Y-3.65
X1.525Y-3.7484
X2.85Y-3.1516
X2.85Y-3.25
X3.Y-3.15
X3.Y-3.45
X3.1Y-3.15
X3.1Y-3.45
X3.2Y-3.15
X3.2Y-3.45
X3.3Y-3.15
X3.3Y-3.45
X3.4Y-3.15
X3.4Y-3.45
X3.5Y-3.15
X3.5Y-3.45
X3.6Y-3.15
X3.6Y-3.45
X3.7Y-3.15
X3.7Y-3.45
X3.8Y-3.15
X3.8Y-3.45
X3.9Y-3.15
X3.9Y-3.45
X1.675Y-3.15
X1.675Y-3.45
X1.775Y-3.15
X1.775Y-3.45
X1.875Y-3.15
X1.875Y-3.45
X1.975Y-3.15
X1.975Y-3.45
X2.075Y-3.15
X2.075Y-3.45
X2.175Y-3.15
X2.175Y-3.45
X2.275Y-3.15
X2.275Y-3.45
X2.375Y-3.15
X2.375Y-3.45
X2.475Y-3.15
X2.475Y-3.45
X2.575Y-3.15
X2.575Y-3.45
X4.225Y-4.05
X4.3234Y-4.05
X1.675Y-3.65
X1.675Y-3.95
X1.775Y-3.65
X1.775Y-3.95
X1.875Y-3.65
X1.875Y-3.95
X1.975Y-3.65
X1.975Y-3.95
X2.075Y-3.65
X2.075Y-3.95
X2.175Y-3.65
X2.175Y-3.95
X2.275Y-3.65
X2.275Y-3.95
X2.375Y-3.65
X2.375Y-3.95
X2.475Y-3.65
X2.475Y-3.95
X2.575Y-3.65
X2.575Y-3.95
X2.85Y-2.65
X2.85Y-2.7484
X1.525Y-1.45
X1.925Y-1.45
X2.05Y-1.3
X2.45Y-1.3
X3.Y-2.65
X3.Y-2.95
X3.1Y-2.65
X3.1Y-2.95
X3.2Y-2.65
X3.2Y-2.95
X3.3Y-2.65
X3.3Y-2.95
X3.4Y-2.65
X3.4Y-2.95
X3.5Y-2.65
X3.5Y-2.95
X3.6Y-2.65
X3.6Y-2.95
X3.7Y-2.65
X3.7Y-2.95
X3.8Y-2.65
X3.8Y-2.95
X3.9Y-2.65
X3.9Y-2.95
X1.525Y-3.15
X1.525Y-3.2484
X4.4016Y-2.45
X4.5Y-2.45
T3
X1.3Y-4.475
X1.3Y-4.625
X1.35Y-4.4
X1.35Y-4.55
X1.4Y-4.475
X1.4Y-4.625
X1.45Y-4.4
X1.45Y-4.55
X1.5Y-4.475
X1.5Y-4.625
X1.55Y-4.4
X1.55Y-4.55
X1.6Y-4.475
X1.6Y-4.625
X1.65Y-4.4
X1.65Y-4.55
X1.7Y-4.475
X1.7Y-4.625
X1.75Y-4.4
X1.75Y-4.55
X1.8Y-4.475
X1.8Y-4.625
X1.85Y-4.4
X1.85Y-4.55
X1.9Y-4.475
X1.9Y-4.625
X1.95Y-4.4
X1.95Y-4.55
X2.Y-4.475
X2.Y-4.625
X2.05Y-4.4
X2.05Y-4.55
X2.1Y-4.475
X2.1Y-4.625
X2.15Y-4.4
X2.15Y-4.55
X2.2Y-4.475
X2.2Y-4.625
X2.25Y-4.4
X2.25Y-4.55
X2.3Y-4.475
X2.3Y-4.625
X2.35Y-4.4
X2.35Y-4.55
X2.4Y-4.475
X2.4Y-4.625
X2.45Y-4.4
X2.45Y-4.55
X2.5Y-4.475
X2.5Y-4.625
X2.55Y-4.4
X2.55Y-4.55
X2.6Y-4.475
X2.6Y-4.625
X2.65Y-4.4
X2.65Y-4.55
X2.7Y-4.475
X2.7Y-4.625
X2.75Y-4.4
X2.75Y-4.55
X2.8Y-4.475
X2.8Y-4.625
X2.85Y-4.4
X2.85Y-4.55
X2.9Y-4.475
X2.9Y-4.625
X2.95Y-4.4
X2.95Y-4.55
X3.Y-4.475
X3.Y-4.625
X3.05Y-4.4
X3.05Y-4.55
X3.1Y-4.475
X3.1Y-4.625
X3.15Y-4.4
X3.15Y-4.55
X3.2Y-4.475
X3.2Y-4.625
X3.25Y-4.4
X3.25Y-4.55
X3.3Y-4.475
X3.3Y-4.625
X3.35Y-4.4
X3.35Y-4.55
X3.4Y-4.475
X3.4Y-4.625
X3.45Y-4.4
X3.45Y-4.55
X3.5Y-4.475
X3.5Y-4.625
X3.55Y-4.4
X3.55Y-4.55
X3.6Y-4.475
X3.6Y-4.625
X3.65Y-4.4
X3.65Y-4.55
X3.7Y-4.475
X3.7Y-4.625
X3.75Y-4.4
X3.75Y-4.55
X3.8Y-4.475
X3.8Y-4.625
X3.85Y-4.4
X3.85Y-4.55
X3.9Y-4.475
X3.9Y-4.625
X3.95Y-4.4
X3.95Y-4.55
X4.Y-4.475
X4.Y-4.625
X4.05Y-4.4
X4.05Y-4.55
X4.1Y-4.475
X4.1Y-4.625
X4.15Y-4.4
X4.15Y-4.55
X4.2Y-4.475
X4.2Y-4.625
X4.25Y-4.4
X4.25Y-4.55
T4
X1.85Y-0.95
X1.95Y-0.95
X1.4Y-0.95
X1.5Y-0.95
X2.075Y-0.95
X2.175Y-0.95
X1.175Y-0.95
X1.275Y-0.95
X1.625Y-0.95
X1.725Y-0.95
T5
X4.375Y-3.525
X4.375Y-3.625
X4.2Y-3.525
X4.2Y-3.625
X3.1Y-2.175
X3.1Y-2.275
X3.2Y-2.175
X3.2Y-2.275
X3.3Y-2.175
X3.3Y-2.275
X3.4Y-2.175
X3.4Y-2.275
X3.5Y-2.175
X3.5Y-2.275
X3.6Y-2.175
X3.6Y-2.275
X3.7Y-2.175
X3.7Y-2.275
X3.8Y-2.175
X3.8Y-2.275
X3.9Y-2.175
X3.9Y-2.275
X4.Y-2.175
X4.Y-2.275
X4.1Y-2.175
X4.1Y-2.275
X4.2Y-2.175
X4.2Y-2.275
X4.3Y-2.175
X4.3Y-2.275
X4.4Y-2.175
X4.4Y-2.275
X3.1Y-1.075
X3.1Y-1.175
X3.2Y-1.075
X3.2Y-1.175
X3.3Y-1.075
X3.3Y-1.175
X3.4Y-1.075
X3.4Y-1.175
X3.5Y-1.075
X3.5Y-1.175
X3.6Y-1.075
X3.6Y-1.175
X3.7Y-1.075
X3.7Y-1.175
X3.8Y-1.075
X3.8Y-1.175
X3.9Y-1.075
X3.9Y-1.175
X4.Y-1.075
X4.Y-1.175
X4.1Y-1.075
X4.1Y-1.175
X4.2Y-1.075
X4.2Y-1.175
X4.3Y-1.075
X4.3Y-1.175
X4.4Y-1.075
X4.4Y-1.175
X1.125Y-2.775
X1.125Y-2.875
X1.125Y-2.975
X1.125Y-3.075
X1.125Y-3.175
X1.125Y-3.275
X1.125Y-3.375
X1.125Y-3.475
X1.225Y-2.775
X1.225Y-2.875
X1.225Y-2.975
X1.225Y-3.075
X1.225Y-3.175
X1.225Y-3.275
X1.225Y-3.375
X1.225Y-3.475
T6
X1.075Y-4.625
X4.425Y-4.625
T0
M30
