G04 #@! TF.GenerationSoftware,KiCad,Pcbnew,(5.0.2)-1*
G04 #@! TF.CreationDate,2019-01-03T08:37:26-07:00*
G04 #@! TF.ProjectId,Ethernet,45746865-726e-4657-942e-6b696361645f,rev?*
G04 #@! TF.SameCoordinates,Original*
G04 #@! TF.FileFunction,Copper,L2,Bot*
G04 #@! TF.FilePolarity,Positive*
%FSLAX46Y46*%
G04 Gerber Fmt 4.6, Leading zero omitted, Abs format (unit mm)*
G04 Created by KiCad (PCBNEW (5.0.2)-1) date 1/3/2019 8:37:26 AM*
%MOMM*%
%LPD*%
G01*
G04 APERTURE LIST*
G04 #@! TA.AperFunction,ComponentPad*
%ADD10O,1.600000X1.600000*%
G04 #@! TD*
G04 #@! TA.AperFunction,ComponentPad*
%ADD11R,1.600000X1.600000*%
G04 #@! TD*
G04 #@! TA.AperFunction,ComponentPad*
%ADD12C,1.600000*%
G04 #@! TD*
G04 #@! TA.AperFunction,ComponentPad*
%ADD13C,1.800000*%
G04 #@! TD*
G04 #@! TA.AperFunction,ComponentPad*
%ADD14R,1.800000X1.800000*%
G04 #@! TD*
G04 #@! TA.AperFunction,ComponentPad*
%ADD15R,1.700000X1.700000*%
G04 #@! TD*
G04 #@! TA.AperFunction,ComponentPad*
%ADD16O,1.700000X1.700000*%
G04 #@! TD*
G04 #@! TA.AperFunction,ComponentPad*
%ADD17C,3.314700*%
G04 #@! TD*
G04 #@! TA.AperFunction,ComponentPad*
%ADD18C,1.219200*%
G04 #@! TD*
G04 #@! TA.AperFunction,ViaPad*
%ADD19C,0.800000*%
G04 #@! TD*
G04 #@! TA.AperFunction,Conductor*
%ADD20C,0.750000*%
G04 #@! TD*
G04 #@! TA.AperFunction,Conductor*
%ADD21C,0.250000*%
G04 #@! TD*
G04 #@! TA.AperFunction,Conductor*
%ADD22C,0.254000*%
G04 #@! TD*
G04 APERTURE END LIST*
D10*
G04 #@! TO.P,U4,20*
G04 #@! TO.N,+5V*
X42545000Y-67310000D03*
G04 #@! TO.P,U4,10*
G04 #@! TO.N,GND*
X65405000Y-74930000D03*
G04 #@! TO.P,U4,19*
G04 #@! TO.N,/eA3*
X45085000Y-67310000D03*
G04 #@! TO.P,U4,9*
G04 #@! TO.N,Net-(U4-Pad9)*
X62865000Y-74930000D03*
G04 #@! TO.P,U4,18*
G04 #@! TO.N,/eA4*
X47625000Y-67310000D03*
G04 #@! TO.P,U4,8*
G04 #@! TO.N,/A9*
X60325000Y-74930000D03*
G04 #@! TO.P,U4,17*
G04 #@! TO.N,/eA5*
X50165000Y-67310000D03*
G04 #@! TO.P,U4,7*
G04 #@! TO.N,/A8*
X57785000Y-74930000D03*
G04 #@! TO.P,U4,16*
G04 #@! TO.N,/eA6*
X52705000Y-67310000D03*
G04 #@! TO.P,U4,6*
G04 #@! TO.N,/A7*
X55245000Y-74930000D03*
G04 #@! TO.P,U4,15*
G04 #@! TO.N,/eA7*
X55245000Y-67310000D03*
G04 #@! TO.P,U4,5*
G04 #@! TO.N,/A6*
X52705000Y-74930000D03*
G04 #@! TO.P,U4,14*
G04 #@! TO.N,/eA8*
X57785000Y-67310000D03*
G04 #@! TO.P,U4,4*
G04 #@! TO.N,/A5*
X50165000Y-74930000D03*
G04 #@! TO.P,U4,13*
G04 #@! TO.N,/eA9*
X60325000Y-67310000D03*
G04 #@! TO.P,U4,3*
G04 #@! TO.N,/A4*
X47625000Y-74930000D03*
G04 #@! TO.P,U4,12*
G04 #@! TO.N,Net-(J4-Pad1)*
X62865000Y-67310000D03*
G04 #@! TO.P,U4,2*
G04 #@! TO.N,/A3*
X45085000Y-74930000D03*
G04 #@! TO.P,U4,11*
G04 #@! TO.N,/~INT*
X65405000Y-67310000D03*
D11*
G04 #@! TO.P,U4,1*
G04 #@! TO.N,/ASEL*
X42545000Y-74930000D03*
G04 #@! TD*
D10*
G04 #@! TO.P,SW2,12*
G04 #@! TO.N,GND*
X26670000Y-46990000D03*
G04 #@! TO.P,SW2,6*
G04 #@! TO.N,Net-(SW2-Pad6)*
X39370000Y-54610000D03*
G04 #@! TO.P,SW2,11*
G04 #@! TO.N,GND*
X29210000Y-46990000D03*
G04 #@! TO.P,SW2,5*
G04 #@! TO.N,Net-(SW2-Pad5)*
X36830000Y-54610000D03*
G04 #@! TO.P,SW2,10*
G04 #@! TO.N,GND*
X31750000Y-46990000D03*
G04 #@! TO.P,SW2,4*
G04 #@! TO.N,Net-(SW2-Pad4)*
X34290000Y-54610000D03*
G04 #@! TO.P,SW2,9*
G04 #@! TO.N,GND*
X34290000Y-46990000D03*
G04 #@! TO.P,SW2,3*
G04 #@! TO.N,Net-(SW2-Pad3)*
X31750000Y-54610000D03*
G04 #@! TO.P,SW2,8*
G04 #@! TO.N,GND*
X36830000Y-46990000D03*
G04 #@! TO.P,SW2,2*
G04 #@! TO.N,Net-(SW2-Pad2)*
X29210000Y-54610000D03*
G04 #@! TO.P,SW2,7*
G04 #@! TO.N,GND*
X39370000Y-46990000D03*
D11*
G04 #@! TO.P,SW2,1*
G04 #@! TO.N,Net-(SW2-Pad1)*
X26670000Y-54610000D03*
G04 #@! TD*
D10*
G04 #@! TO.P,SW1,14*
G04 #@! TO.N,GND*
X47625000Y-46990000D03*
G04 #@! TO.P,SW1,7*
G04 #@! TO.N,Net-(SW1-Pad7)*
X62865000Y-54610000D03*
G04 #@! TO.P,SW1,13*
G04 #@! TO.N,GND*
X50165000Y-46990000D03*
G04 #@! TO.P,SW1,6*
G04 #@! TO.N,Net-(SW1-Pad6)*
X60325000Y-54610000D03*
G04 #@! TO.P,SW1,12*
G04 #@! TO.N,GND*
X52705000Y-46990000D03*
G04 #@! TO.P,SW1,5*
G04 #@! TO.N,Net-(SW1-Pad5)*
X57785000Y-54610000D03*
G04 #@! TO.P,SW1,11*
G04 #@! TO.N,GND*
X55245000Y-46990000D03*
G04 #@! TO.P,SW1,4*
G04 #@! TO.N,Net-(SW1-Pad4)*
X55245000Y-54610000D03*
G04 #@! TO.P,SW1,10*
G04 #@! TO.N,GND*
X57785000Y-46990000D03*
G04 #@! TO.P,SW1,3*
G04 #@! TO.N,Net-(SW1-Pad3)*
X52705000Y-54610000D03*
G04 #@! TO.P,SW1,9*
G04 #@! TO.N,GND*
X60325000Y-46990000D03*
G04 #@! TO.P,SW1,2*
G04 #@! TO.N,Net-(SW1-Pad2)*
X50165000Y-54610000D03*
G04 #@! TO.P,SW1,8*
G04 #@! TO.N,GND*
X62865000Y-46990000D03*
D11*
G04 #@! TO.P,SW1,1*
G04 #@! TO.N,Net-(SW1-Pad1)*
X47625000Y-54610000D03*
G04 #@! TD*
G04 #@! TO.P,C1,1*
G04 #@! TO.N,+3V3*
X107315000Y-102870000D03*
D12*
G04 #@! TO.P,C1,2*
G04 #@! TO.N,GND*
X109815000Y-102870000D03*
G04 #@! TD*
G04 #@! TO.P,C7,2*
G04 #@! TO.N,GND*
X29845000Y-102870000D03*
D11*
G04 #@! TO.P,C7,1*
G04 #@! TO.N,+5V*
X32345000Y-102870000D03*
G04 #@! TD*
D12*
G04 #@! TO.P,C9,1*
G04 #@! TO.N,+5V*
X72390000Y-80050000D03*
G04 #@! TO.P,C9,2*
G04 #@! TO.N,GND*
X72390000Y-82550000D03*
G04 #@! TD*
G04 #@! TO.P,C3,2*
G04 #@! TO.N,GND*
X114300000Y-22860000D03*
G04 #@! TO.P,C3,1*
G04 #@! TO.N,+3V3*
X111800000Y-22860000D03*
G04 #@! TD*
G04 #@! TO.P,C4,1*
G04 #@! TO.N,+5V*
X38735000Y-92710000D03*
G04 #@! TO.P,C4,2*
G04 #@! TO.N,GND*
X38735000Y-95210000D03*
G04 #@! TD*
G04 #@! TO.P,C5,2*
G04 #@! TO.N,GND*
X38735000Y-69810000D03*
G04 #@! TO.P,C5,1*
G04 #@! TO.N,+5V*
X38735000Y-67310000D03*
G04 #@! TD*
G04 #@! TO.P,C6,1*
G04 #@! TO.N,+5V*
X38735000Y-80010000D03*
G04 #@! TO.P,C6,2*
G04 #@! TO.N,GND*
X38735000Y-82510000D03*
G04 #@! TD*
G04 #@! TO.P,C8,2*
G04 #@! TO.N,GND*
X72390000Y-69810000D03*
G04 #@! TO.P,C8,1*
G04 #@! TO.N,+5V*
X72390000Y-67310000D03*
G04 #@! TD*
G04 #@! TO.P,C10,1*
G04 #@! TO.N,+5V*
X72390000Y-92710000D03*
G04 #@! TO.P,C10,2*
G04 #@! TO.N,GND*
X72390000Y-95210000D03*
G04 #@! TD*
G04 #@! TO.P,C2,2*
G04 #@! TO.N,GND*
X114300000Y-62230000D03*
G04 #@! TO.P,C2,1*
G04 #@! TO.N,+3V3*
X111800000Y-62230000D03*
G04 #@! TD*
D10*
G04 #@! TO.P,U5,20*
G04 #@! TO.N,+5V*
X76200000Y-80010000D03*
G04 #@! TO.P,U5,10*
G04 #@! TO.N,GND*
X99060000Y-87630000D03*
G04 #@! TO.P,U5,19*
X78740000Y-80010000D03*
G04 #@! TO.P,U5,9*
G04 #@! TO.N,Net-(D1-Pad1)*
X96520000Y-87630000D03*
G04 #@! TO.P,U5,18*
G04 #@! TO.N,/A3*
X81280000Y-80010000D03*
G04 #@! TO.P,U5,8*
G04 #@! TO.N,/bA6*
X93980000Y-87630000D03*
G04 #@! TO.P,U5,17*
G04 #@! TO.N,/bA7*
X83820000Y-80010000D03*
G04 #@! TO.P,U5,7*
G04 #@! TO.N,/A9*
X91440000Y-87630000D03*
G04 #@! TO.P,U5,16*
G04 #@! TO.N,/A4*
X86360000Y-80010000D03*
G04 #@! TO.P,U5,6*
G04 #@! TO.N,/bA5*
X88900000Y-87630000D03*
G04 #@! TO.P,U5,15*
G04 #@! TO.N,/bA8*
X88900000Y-80010000D03*
G04 #@! TO.P,U5,5*
G04 #@! TO.N,/A8*
X86360000Y-87630000D03*
G04 #@! TO.P,U5,14*
G04 #@! TO.N,/A5*
X91440000Y-80010000D03*
G04 #@! TO.P,U5,4*
G04 #@! TO.N,/bA4*
X83820000Y-87630000D03*
G04 #@! TO.P,U5,13*
G04 #@! TO.N,/bA9*
X93980000Y-80010000D03*
G04 #@! TO.P,U5,3*
G04 #@! TO.N,/A7*
X81280000Y-87630000D03*
G04 #@! TO.P,U5,12*
G04 #@! TO.N,/A6*
X96520000Y-80010000D03*
G04 #@! TO.P,U5,2*
G04 #@! TO.N,/bA3*
X78740000Y-87630000D03*
G04 #@! TO.P,U5,11*
G04 #@! TO.N,/~RX*
X99060000Y-80010000D03*
D11*
G04 #@! TO.P,U5,1*
G04 #@! TO.N,GND*
X76200000Y-87630000D03*
G04 #@! TD*
G04 #@! TO.P,U3,1*
G04 #@! TO.N,Net-(U1-Pad16)*
X76200000Y-100330000D03*
D10*
G04 #@! TO.P,U3,11*
G04 #@! TO.N,Net-(U3-Pad11)*
X99060000Y-92710000D03*
G04 #@! TO.P,U3,2*
G04 #@! TO.N,/~HI_ADDR*
X78740000Y-100330000D03*
G04 #@! TO.P,U3,12*
G04 #@! TO.N,/A2*
X96520000Y-92710000D03*
G04 #@! TO.P,U3,3*
G04 #@! TO.N,Net-(JP2-Pad2)*
X81280000Y-100330000D03*
G04 #@! TO.P,U3,13*
G04 #@! TO.N,/A1*
X93980000Y-92710000D03*
G04 #@! TO.P,U3,4*
G04 #@! TO.N,/~8BIT*
X83820000Y-100330000D03*
G04 #@! TO.P,U3,14*
G04 #@! TO.N,/A0*
X91440000Y-92710000D03*
G04 #@! TO.P,U3,5*
G04 #@! TO.N,/bA2*
X86360000Y-100330000D03*
G04 #@! TO.P,U3,15*
G04 #@! TO.N,/ASEL*
X88900000Y-92710000D03*
G04 #@! TO.P,U3,6*
G04 #@! TO.N,/bA1*
X88900000Y-100330000D03*
G04 #@! TO.P,U3,16*
G04 #@! TO.N,/~RD*
X86360000Y-92710000D03*
G04 #@! TO.P,U3,7*
G04 #@! TO.N,/bA0*
X91440000Y-100330000D03*
G04 #@! TO.P,U3,17*
G04 #@! TO.N,/~IO16*
X83820000Y-92710000D03*
G04 #@! TO.P,U3,8*
G04 #@! TO.N,/~IOR*
X93980000Y-100330000D03*
G04 #@! TO.P,U3,18*
G04 #@! TO.N,/~STS*
X81280000Y-92710000D03*
G04 #@! TO.P,U3,9*
G04 #@! TO.N,/~AEN*
X96520000Y-100330000D03*
G04 #@! TO.P,U3,19*
G04 #@! TO.N,/~CS*
X78740000Y-92710000D03*
G04 #@! TO.P,U3,10*
G04 #@! TO.N,GND*
X99060000Y-100330000D03*
G04 #@! TO.P,U3,20*
G04 #@! TO.N,+5V*
X76200000Y-92710000D03*
G04 #@! TD*
G04 #@! TO.P,U2,20*
G04 #@! TO.N,+5V*
X42545000Y-92710000D03*
G04 #@! TO.P,U2,10*
G04 #@! TO.N,GND*
X65405000Y-100330000D03*
G04 #@! TO.P,U2,19*
G04 #@! TO.N,Net-(U2-Pad19)*
X45085000Y-92710000D03*
G04 #@! TO.P,U2,9*
G04 #@! TO.N,/A15*
X62865000Y-100330000D03*
G04 #@! TO.P,U2,18*
G04 #@! TO.N,Net-(U2-Pad18)*
X47625000Y-92710000D03*
G04 #@! TO.P,U2,8*
G04 #@! TO.N,Net-(U2-Pad8)*
X60325000Y-100330000D03*
G04 #@! TO.P,U2,17*
G04 #@! TO.N,/A10*
X50165000Y-92710000D03*
G04 #@! TO.P,U2,7*
G04 #@! TO.N,Net-(U2-Pad7)*
X57785000Y-100330000D03*
G04 #@! TO.P,U2,16*
G04 #@! TO.N,/~HI_ADDR*
X52705000Y-92710000D03*
G04 #@! TO.P,U2,6*
G04 #@! TO.N,Net-(SW2-Pad6)*
X55245000Y-100330000D03*
G04 #@! TO.P,U2,15*
G04 #@! TO.N,Net-(U2-Pad15)*
X55245000Y-92710000D03*
G04 #@! TO.P,U2,5*
G04 #@! TO.N,Net-(SW2-Pad5)*
X52705000Y-100330000D03*
G04 #@! TO.P,U2,14*
G04 #@! TO.N,/A11*
X57785000Y-92710000D03*
G04 #@! TO.P,U2,4*
G04 #@! TO.N,Net-(SW2-Pad4)*
X50165000Y-100330000D03*
G04 #@! TO.P,U2,13*
G04 #@! TO.N,/A12*
X60325000Y-92710000D03*
G04 #@! TO.P,U2,3*
G04 #@! TO.N,Net-(SW2-Pad3)*
X47625000Y-100330000D03*
G04 #@! TO.P,U2,12*
G04 #@! TO.N,/A13*
X62865000Y-92710000D03*
G04 #@! TO.P,U2,2*
G04 #@! TO.N,Net-(SW2-Pad2)*
X45085000Y-100330000D03*
G04 #@! TO.P,U2,11*
G04 #@! TO.N,/A14*
X65405000Y-92710000D03*
D11*
G04 #@! TO.P,U2,1*
G04 #@! TO.N,Net-(SW2-Pad1)*
X42545000Y-100330000D03*
G04 #@! TD*
G04 #@! TO.P,U1,1*
G04 #@! TO.N,Net-(SW1-Pad1)*
X42545000Y-87630000D03*
D10*
G04 #@! TO.P,U1,11*
G04 #@! TO.N,/A8*
X65405000Y-80010000D03*
G04 #@! TO.P,U1,2*
G04 #@! TO.N,Net-(SW1-Pad2)*
X45085000Y-87630000D03*
G04 #@! TO.P,U1,12*
G04 #@! TO.N,/A7*
X62865000Y-80010000D03*
G04 #@! TO.P,U1,3*
G04 #@! TO.N,Net-(SW1-Pad3)*
X47625000Y-87630000D03*
G04 #@! TO.P,U1,13*
G04 #@! TO.N,/A6*
X60325000Y-80010000D03*
G04 #@! TO.P,U1,4*
G04 #@! TO.N,Net-(SW1-Pad4)*
X50165000Y-87630000D03*
G04 #@! TO.P,U1,14*
G04 #@! TO.N,/A5*
X57785000Y-80010000D03*
G04 #@! TO.P,U1,5*
G04 #@! TO.N,Net-(SW1-Pad5)*
X52705000Y-87630000D03*
G04 #@! TO.P,U1,15*
G04 #@! TO.N,Net-(U1-Pad15)*
X55245000Y-80010000D03*
G04 #@! TO.P,U1,6*
G04 #@! TO.N,Net-(SW1-Pad6)*
X55245000Y-87630000D03*
G04 #@! TO.P,U1,16*
G04 #@! TO.N,Net-(U1-Pad16)*
X52705000Y-80010000D03*
G04 #@! TO.P,U1,7*
G04 #@! TO.N,Net-(SW1-Pad7)*
X57785000Y-87630000D03*
G04 #@! TO.P,U1,17*
G04 #@! TO.N,/A4*
X50165000Y-80010000D03*
G04 #@! TO.P,U1,8*
G04 #@! TO.N,Net-(U1-Pad8)*
X60325000Y-87630000D03*
G04 #@! TO.P,U1,18*
G04 #@! TO.N,/A3*
X47625000Y-80010000D03*
G04 #@! TO.P,U1,9*
G04 #@! TO.N,/A9*
X62865000Y-87630000D03*
G04 #@! TO.P,U1,19*
G04 #@! TO.N,Net-(U1-Pad19)*
X45085000Y-80010000D03*
G04 #@! TO.P,U1,10*
G04 #@! TO.N,GND*
X65405000Y-87630000D03*
G04 #@! TO.P,U1,20*
G04 #@! TO.N,+5V*
X42545000Y-80010000D03*
G04 #@! TD*
G04 #@! TO.P,U6,20*
G04 #@! TO.N,+5V*
X76200000Y-67310000D03*
G04 #@! TO.P,U6,10*
G04 #@! TO.N,GND*
X99060000Y-74930000D03*
G04 #@! TO.P,U6,19*
G04 #@! TO.N,/~STS*
X78740000Y-67310000D03*
G04 #@! TO.P,U6,9*
G04 #@! TO.N,/D3*
X96520000Y-74930000D03*
G04 #@! TO.P,U6,18*
G04 #@! TO.N,Net-(D2-Pad1)*
X81280000Y-67310000D03*
G04 #@! TO.P,U6,8*
G04 #@! TO.N,/~COL*
X93980000Y-74930000D03*
G04 #@! TO.P,U6,17*
G04 #@! TO.N,/BRDY0*
X83820000Y-67310000D03*
G04 #@! TO.P,U6,7*
G04 #@! TO.N,/D2*
X91440000Y-74930000D03*
G04 #@! TO.P,U6,16*
G04 #@! TO.N,Net-(D3-Pad1)*
X86360000Y-67310000D03*
G04 #@! TO.P,U6,6*
G04 #@! TO.N,/~FDX*
X88900000Y-74930000D03*
G04 #@! TO.P,U6,15*
G04 #@! TO.N,/BRDY1*
X88900000Y-67310000D03*
G04 #@! TO.P,U6,5*
G04 #@! TO.N,/D1*
X86360000Y-74930000D03*
G04 #@! TO.P,U6,14*
G04 #@! TO.N,Net-(D4-Pad1)*
X91440000Y-67310000D03*
G04 #@! TO.P,U6,4*
G04 #@! TO.N,/~SPD*
X83820000Y-74930000D03*
G04 #@! TO.P,U6,13*
G04 #@! TO.N,/BRDY2*
X93980000Y-67310000D03*
G04 #@! TO.P,U6,3*
G04 #@! TO.N,/D0*
X81280000Y-74930000D03*
G04 #@! TO.P,U6,12*
G04 #@! TO.N,Net-(D5-Pad1)*
X96520000Y-67310000D03*
G04 #@! TO.P,U6,2*
G04 #@! TO.N,/~TX*
X78740000Y-74930000D03*
G04 #@! TO.P,U6,11*
G04 #@! TO.N,/BRDY3*
X99060000Y-67310000D03*
D11*
G04 #@! TO.P,U6,1*
G04 #@! TO.N,GND*
X76200000Y-74930000D03*
G04 #@! TD*
D13*
G04 #@! TO.P,D5,2*
G04 #@! TO.N,Net-(D5-Pad2)*
X55245000Y-24130000D03*
D14*
G04 #@! TO.P,D5,1*
G04 #@! TO.N,Net-(D5-Pad1)*
X52705000Y-24130000D03*
G04 #@! TD*
G04 #@! TO.P,D1,1*
G04 #@! TO.N,Net-(D1-Pad1)*
X29845000Y-24130000D03*
D13*
G04 #@! TO.P,D1,2*
G04 #@! TO.N,Net-(D1-Pad2)*
X32385000Y-24130000D03*
G04 #@! TD*
G04 #@! TO.P,D2,2*
G04 #@! TO.N,Net-(D2-Pad2)*
X38100000Y-24130000D03*
D14*
G04 #@! TO.P,D2,1*
G04 #@! TO.N,Net-(D2-Pad1)*
X35560000Y-24130000D03*
G04 #@! TD*
G04 #@! TO.P,D3,1*
G04 #@! TO.N,Net-(D3-Pad1)*
X41275000Y-24130000D03*
D13*
G04 #@! TO.P,D3,2*
G04 #@! TO.N,Net-(D3-Pad2)*
X43815000Y-24130000D03*
G04 #@! TD*
G04 #@! TO.P,D4,2*
G04 #@! TO.N,Net-(D4-Pad2)*
X49530000Y-24130000D03*
D14*
G04 #@! TO.P,D4,1*
G04 #@! TO.N,Net-(D4-Pad1)*
X46990000Y-24130000D03*
G04 #@! TD*
D15*
G04 #@! TO.P,JP1,1*
G04 #@! TO.N,/~8BIT*
X111125000Y-89535000D03*
D16*
G04 #@! TO.P,JP1,2*
G04 #@! TO.N,GND*
X111125000Y-92075000D03*
G04 #@! TD*
G04 #@! TO.P,JP2,2*
G04 #@! TO.N,Net-(JP2-Pad2)*
X106680000Y-92075000D03*
D15*
G04 #@! TO.P,JP2,1*
G04 #@! TO.N,GND*
X106680000Y-89535000D03*
G04 #@! TD*
D16*
G04 #@! TO.P,J4,16*
G04 #@! TO.N,/~IRQ0*
X31115000Y-88265000D03*
G04 #@! TO.P,J4,15*
G04 #@! TO.N,Net-(J4-Pad1)*
X28575000Y-88265000D03*
G04 #@! TO.P,J4,14*
G04 #@! TO.N,/~IRQ1*
X31115000Y-85725000D03*
G04 #@! TO.P,J4,13*
G04 #@! TO.N,Net-(J4-Pad1)*
X28575000Y-85725000D03*
G04 #@! TO.P,J4,12*
G04 #@! TO.N,/~IRQ2*
X31115000Y-83185000D03*
G04 #@! TO.P,J4,11*
G04 #@! TO.N,Net-(J4-Pad1)*
X28575000Y-83185000D03*
G04 #@! TO.P,J4,10*
G04 #@! TO.N,/~IRQ3*
X31115000Y-80645000D03*
G04 #@! TO.P,J4,9*
G04 #@! TO.N,Net-(J4-Pad1)*
X28575000Y-80645000D03*
G04 #@! TO.P,J4,8*
G04 #@! TO.N,/~IRQ4*
X31115000Y-78105000D03*
G04 #@! TO.P,J4,7*
G04 #@! TO.N,Net-(J4-Pad1)*
X28575000Y-78105000D03*
G04 #@! TO.P,J4,6*
G04 #@! TO.N,/~IRQ5*
X31115000Y-75565000D03*
G04 #@! TO.P,J4,5*
G04 #@! TO.N,Net-(J4-Pad1)*
X28575000Y-75565000D03*
G04 #@! TO.P,J4,4*
G04 #@! TO.N,/~IRQ6*
X31115000Y-73025000D03*
G04 #@! TO.P,J4,3*
G04 #@! TO.N,Net-(J4-Pad1)*
X28575000Y-73025000D03*
G04 #@! TO.P,J4,2*
G04 #@! TO.N,/~IRQ7*
X31115000Y-70485000D03*
D15*
G04 #@! TO.P,J4,1*
G04 #@! TO.N,Net-(J4-Pad1)*
X28575000Y-70485000D03*
G04 #@! TD*
G04 #@! TO.P,J2,1*
G04 #@! TO.N,+3V3*
X111760000Y-27305000D03*
D16*
G04 #@! TO.P,J2,2*
G04 #@! TO.N,/D15*
X111760000Y-29845000D03*
G04 #@! TO.P,J2,3*
G04 #@! TO.N,/D14*
X109220000Y-27305000D03*
G04 #@! TO.P,J2,4*
G04 #@! TO.N,/D13*
X109220000Y-29845000D03*
G04 #@! TO.P,J2,5*
G04 #@! TO.N,/D12*
X106680000Y-27305000D03*
G04 #@! TO.P,J2,6*
G04 #@! TO.N,/D11*
X106680000Y-29845000D03*
G04 #@! TO.P,J2,7*
G04 #@! TO.N,/D10*
X104140000Y-27305000D03*
G04 #@! TO.P,J2,8*
G04 #@! TO.N,/D9*
X104140000Y-29845000D03*
G04 #@! TO.P,J2,9*
G04 #@! TO.N,/D8*
X101600000Y-27305000D03*
G04 #@! TO.P,J2,10*
G04 #@! TO.N,/D7*
X101600000Y-29845000D03*
G04 #@! TO.P,J2,11*
G04 #@! TO.N,/D6*
X99060000Y-27305000D03*
G04 #@! TO.P,J2,12*
G04 #@! TO.N,/D5*
X99060000Y-29845000D03*
G04 #@! TO.P,J2,13*
G04 #@! TO.N,/D4*
X96520000Y-27305000D03*
G04 #@! TO.P,J2,14*
G04 #@! TO.N,/D3*
X96520000Y-29845000D03*
G04 #@! TO.P,J2,15*
G04 #@! TO.N,/D2*
X93980000Y-27305000D03*
G04 #@! TO.P,J2,16*
G04 #@! TO.N,/D1*
X93980000Y-29845000D03*
G04 #@! TO.P,J2,17*
G04 #@! TO.N,/D0*
X91440000Y-27305000D03*
G04 #@! TO.P,J2,18*
G04 #@! TO.N,GND*
X91440000Y-29845000D03*
G04 #@! TO.P,J2,19*
G04 #@! TO.N,/eA9*
X88900000Y-27305000D03*
G04 #@! TO.P,J2,20*
G04 #@! TO.N,/eA8*
X88900000Y-29845000D03*
G04 #@! TO.P,J2,21*
G04 #@! TO.N,/eA7*
X86360000Y-27305000D03*
G04 #@! TO.P,J2,22*
G04 #@! TO.N,/eA6*
X86360000Y-29845000D03*
G04 #@! TO.P,J2,23*
G04 #@! TO.N,/eA5*
X83820000Y-27305000D03*
G04 #@! TO.P,J2,24*
G04 #@! TO.N,/eA4*
X83820000Y-29845000D03*
G04 #@! TO.P,J2,25*
G04 #@! TO.N,/eA3*
X81280000Y-27305000D03*
G04 #@! TO.P,J2,26*
G04 #@! TO.N,/A2*
X81280000Y-29845000D03*
G04 #@! TO.P,J2,27*
G04 #@! TO.N,/A1*
X78740000Y-27305000D03*
G04 #@! TO.P,J2,28*
G04 #@! TO.N,/A0*
X78740000Y-29845000D03*
G04 #@! TD*
G04 #@! TO.P,J3,28*
G04 #@! TO.N,Net-(J3-Pad28)*
X78740000Y-57785000D03*
G04 #@! TO.P,J3,27*
G04 #@! TO.N,Net-(J3-Pad27)*
X78740000Y-55245000D03*
G04 #@! TO.P,J3,26*
G04 #@! TO.N,Net-(J3-Pad26)*
X81280000Y-57785000D03*
G04 #@! TO.P,J3,25*
G04 #@! TO.N,Net-(J3-Pad25)*
X81280000Y-55245000D03*
G04 #@! TO.P,J3,24*
G04 #@! TO.N,GND*
X83820000Y-57785000D03*
G04 #@! TO.P,J3,23*
X83820000Y-55245000D03*
G04 #@! TO.P,J3,22*
G04 #@! TO.N,Net-(J3-Pad22)*
X86360000Y-57785000D03*
G04 #@! TO.P,J3,21*
G04 #@! TO.N,/~IOW*
X86360000Y-55245000D03*
G04 #@! TO.P,J3,20*
G04 #@! TO.N,/~RD*
X88900000Y-57785000D03*
G04 #@! TO.P,J3,19*
G04 #@! TO.N,/~CS*
X88900000Y-55245000D03*
G04 #@! TO.P,J3,18*
G04 #@! TO.N,/~INT*
X91440000Y-57785000D03*
G04 #@! TO.P,J3,17*
G04 #@! TO.N,/~RESET*
X91440000Y-55245000D03*
G04 #@! TO.P,J3,16*
G04 #@! TO.N,GND*
X93980000Y-57785000D03*
G04 #@! TO.P,J3,15*
X93980000Y-55245000D03*
G04 #@! TO.P,J3,14*
G04 #@! TO.N,/BRDY0*
X96520000Y-57785000D03*
G04 #@! TO.P,J3,13*
G04 #@! TO.N,/BRDY1*
X96520000Y-55245000D03*
G04 #@! TO.P,J3,12*
G04 #@! TO.N,/BRDY2*
X99060000Y-57785000D03*
G04 #@! TO.P,J3,11*
G04 #@! TO.N,/BRDY3*
X99060000Y-55245000D03*
G04 #@! TO.P,J3,10*
G04 #@! TO.N,GND*
X101600000Y-57785000D03*
G04 #@! TO.P,J3,9*
G04 #@! TO.N,/~ACT*
X101600000Y-55245000D03*
G04 #@! TO.P,J3,8*
G04 #@! TO.N,/~SPD*
X104140000Y-57785000D03*
G04 #@! TO.P,J3,7*
G04 #@! TO.N,/~FDX*
X104140000Y-55245000D03*
G04 #@! TO.P,J3,6*
G04 #@! TO.N,/~COL*
X106680000Y-57785000D03*
G04 #@! TO.P,J3,5*
G04 #@! TO.N,/~RX*
X106680000Y-55245000D03*
G04 #@! TO.P,J3,4*
G04 #@! TO.N,/~TX*
X109220000Y-57785000D03*
G04 #@! TO.P,J3,3*
G04 #@! TO.N,/~LINK*
X109220000Y-55245000D03*
G04 #@! TO.P,J3,2*
G04 #@! TO.N,/~8BIT*
X111760000Y-57785000D03*
D15*
G04 #@! TO.P,J3,1*
G04 #@! TO.N,+3V3*
X111760000Y-55245000D03*
G04 #@! TD*
D12*
G04 #@! TO.P,R4,1*
G04 #@! TO.N,+5V*
X38735000Y-33020000D03*
D10*
G04 #@! TO.P,R4,2*
G04 #@! TO.N,Net-(D3-Pad2)*
X48895000Y-33020000D03*
G04 #@! TD*
G04 #@! TO.P,R5,2*
G04 #@! TO.N,Net-(D4-Pad2)*
X48895000Y-36830000D03*
D12*
G04 #@! TO.P,R5,1*
G04 #@! TO.N,+5V*
X38735000Y-36830000D03*
G04 #@! TD*
G04 #@! TO.P,R6,1*
G04 #@! TO.N,+5V*
X52070000Y-33020000D03*
D10*
G04 #@! TO.P,R6,2*
G04 #@! TO.N,Net-(D5-Pad2)*
X62230000Y-33020000D03*
G04 #@! TD*
G04 #@! TO.P,R1,2*
G04 #@! TO.N,/~8BIT*
X82550000Y-104775000D03*
D12*
G04 #@! TO.P,R1,1*
G04 #@! TO.N,+5V*
X72390000Y-104775000D03*
G04 #@! TD*
G04 #@! TO.P,R2,1*
G04 #@! TO.N,+5V*
X25400000Y-33020000D03*
D10*
G04 #@! TO.P,R2,2*
G04 #@! TO.N,Net-(D1-Pad2)*
X35560000Y-33020000D03*
G04 #@! TD*
G04 #@! TO.P,R3,2*
G04 #@! TO.N,Net-(D2-Pad2)*
X35560000Y-36830000D03*
D12*
G04 #@! TO.P,R3,1*
G04 #@! TO.N,+5V*
X25400000Y-36830000D03*
G04 #@! TD*
D17*
G04 #@! TO.P,J1,122*
G04 #@! TO.N,GND*
X27305000Y-117475000D03*
G04 #@! TO.P,J1,121*
X112395000Y-117475000D03*
D18*
G04 #@! TO.P,J1,120*
X33020000Y-117475000D03*
G04 #@! TO.P,J1,119*
X34290000Y-115570000D03*
G04 #@! TO.P,J1,118*
X35560000Y-117475000D03*
G04 #@! TO.P,J1,117*
X36830000Y-115570000D03*
G04 #@! TO.P,J1,116*
X38100000Y-117475000D03*
G04 #@! TO.P,J1,115*
G04 #@! TO.N,/~RESET*
X39370000Y-115570000D03*
G04 #@! TO.P,J1,114*
G04 #@! TO.N,Net-(J1-Pad114)*
X40640000Y-117475000D03*
G04 #@! TO.P,J1,113*
G04 #@! TO.N,Net-(J1-Pad113)*
X41910000Y-115570000D03*
G04 #@! TO.P,J1,112*
G04 #@! TO.N,Net-(J1-Pad112)*
X43180000Y-117475000D03*
G04 #@! TO.P,J1,111*
G04 #@! TO.N,Net-(J1-Pad111)*
X44450000Y-115570000D03*
G04 #@! TO.P,J1,110*
G04 #@! TO.N,Net-(J1-Pad110)*
X45720000Y-117475000D03*
G04 #@! TO.P,J1,109*
G04 #@! TO.N,/~IRQ0*
X46990000Y-115570000D03*
G04 #@! TO.P,J1,108*
G04 #@! TO.N,/~IRQ1*
X48260000Y-117475000D03*
G04 #@! TO.P,J1,107*
G04 #@! TO.N,/~IRQ2*
X49530000Y-115570000D03*
G04 #@! TO.P,J1,106*
G04 #@! TO.N,/~IRQ3*
X50800000Y-117475000D03*
G04 #@! TO.P,J1,105*
G04 #@! TO.N,/~IRQ4*
X52070000Y-115570000D03*
G04 #@! TO.P,J1,104*
G04 #@! TO.N,/~IRQ5*
X53340000Y-117475000D03*
G04 #@! TO.P,J1,103*
G04 #@! TO.N,/~IRQ6*
X54610000Y-115570000D03*
G04 #@! TO.P,J1,102*
G04 #@! TO.N,/~IRQ7*
X55880000Y-117475000D03*
G04 #@! TO.P,J1,101*
G04 #@! TO.N,Net-(J1-Pad101)*
X57150000Y-115570000D03*
G04 #@! TO.P,J1,100*
G04 #@! TO.N,Net-(J1-Pad100)*
X58420000Y-117475000D03*
G04 #@! TO.P,J1,99*
G04 #@! TO.N,Net-(J1-Pad99)*
X59690000Y-115570000D03*
G04 #@! TO.P,J1,98*
G04 #@! TO.N,Net-(J1-Pad98)*
X60960000Y-117475000D03*
G04 #@! TO.P,J1,97*
G04 #@! TO.N,Net-(J1-Pad97)*
X62230000Y-115570000D03*
G04 #@! TO.P,J1,96*
G04 #@! TO.N,Net-(J1-Pad96)*
X63500000Y-117475000D03*
G04 #@! TO.P,J1,95*
G04 #@! TO.N,Net-(J1-Pad95)*
X64770000Y-115570000D03*
G04 #@! TO.P,J1,94*
G04 #@! TO.N,Net-(J1-Pad94)*
X66040000Y-117475000D03*
G04 #@! TO.P,J1,93*
G04 #@! TO.N,Net-(J1-Pad93)*
X67310000Y-115570000D03*
G04 #@! TO.P,J1,92*
G04 #@! TO.N,Net-(J1-Pad92)*
X68580000Y-117475000D03*
G04 #@! TO.P,J1,91*
G04 #@! TO.N,Net-(J1-Pad91)*
X69850000Y-115570000D03*
G04 #@! TO.P,J1,90*
G04 #@! TO.N,/~AEN*
X71120000Y-117475000D03*
G04 #@! TO.P,J1,89*
G04 #@! TO.N,Net-(J1-Pad89)*
X72390000Y-115570000D03*
G04 #@! TO.P,J1,88*
G04 #@! TO.N,Net-(J1-Pad88)*
X73660000Y-117475000D03*
G04 #@! TO.P,J1,87*
G04 #@! TO.N,Net-(J1-Pad87)*
X74930000Y-115570000D03*
G04 #@! TO.P,J1,86*
G04 #@! TO.N,Net-(J1-Pad86)*
X76200000Y-117475000D03*
G04 #@! TO.P,J1,85*
G04 #@! TO.N,Net-(J1-Pad85)*
X77470000Y-115570000D03*
G04 #@! TO.P,J1,84*
G04 #@! TO.N,Net-(J1-Pad84)*
X78740000Y-117475000D03*
G04 #@! TO.P,J1,83*
G04 #@! TO.N,Net-(J1-Pad83)*
X80010000Y-115570000D03*
G04 #@! TO.P,J1,82*
G04 #@! TO.N,Net-(J1-Pad82)*
X81280000Y-117475000D03*
G04 #@! TO.P,J1,81*
G04 #@! TO.N,/D0*
X82550000Y-115570000D03*
G04 #@! TO.P,J1,80*
G04 #@! TO.N,/D1*
X83820000Y-117475000D03*
G04 #@! TO.P,J1,79*
G04 #@! TO.N,/D2*
X85090000Y-115570000D03*
G04 #@! TO.P,J1,78*
G04 #@! TO.N,/D3*
X86360000Y-117475000D03*
G04 #@! TO.P,J1,77*
G04 #@! TO.N,/D4*
X87630000Y-115570000D03*
G04 #@! TO.P,J1,76*
G04 #@! TO.N,/D5*
X88900000Y-117475000D03*
G04 #@! TO.P,J1,75*
G04 #@! TO.N,/D6*
X90170000Y-115570000D03*
G04 #@! TO.P,J1,74*
G04 #@! TO.N,/D7*
X91440000Y-117475000D03*
G04 #@! TO.P,J1,73*
G04 #@! TO.N,/D8*
X92710000Y-115570000D03*
G04 #@! TO.P,J1,72*
G04 #@! TO.N,/D9*
X93980000Y-117475000D03*
G04 #@! TO.P,J1,71*
G04 #@! TO.N,/D10*
X95250000Y-115570000D03*
G04 #@! TO.P,J1,70*
G04 #@! TO.N,/D11*
X96520000Y-117475000D03*
G04 #@! TO.P,J1,69*
G04 #@! TO.N,/D12*
X97790000Y-115570000D03*
G04 #@! TO.P,J1,68*
G04 #@! TO.N,/D13*
X99060000Y-117475000D03*
G04 #@! TO.P,J1,67*
G04 #@! TO.N,/D14*
X100330000Y-115570000D03*
G04 #@! TO.P,J1,66*
G04 #@! TO.N,/D15*
X101600000Y-117475000D03*
G04 #@! TO.P,J1,65*
G04 #@! TO.N,/+12V*
X102870000Y-115570000D03*
G04 #@! TO.P,J1,64*
G04 #@! TO.N,+3V3*
X104140000Y-117475000D03*
G04 #@! TO.P,J1,63*
G04 #@! TO.N,/+5VSB*
X105410000Y-115570000D03*
G04 #@! TO.P,J1,62*
G04 #@! TO.N,+5V*
X106680000Y-117475000D03*
G04 #@! TO.P,J1,61*
X107950000Y-115570000D03*
G04 #@! TO.P,J1,60*
X33020000Y-113665000D03*
G04 #@! TO.P,J1,59*
X34290000Y-111760000D03*
G04 #@! TO.P,J1,58*
X35560000Y-113665000D03*
G04 #@! TO.P,J1,57*
G04 #@! TO.N,+3V3*
X36830000Y-111760000D03*
G04 #@! TO.P,J1,56*
G04 #@! TO.N,/-12V*
X38100000Y-113665000D03*
G04 #@! TO.P,J1,55*
G04 #@! TO.N,Net-(J1-Pad55)*
X39370000Y-111760000D03*
G04 #@! TO.P,J1,54*
G04 #@! TO.N,Net-(J1-Pad54)*
X40640000Y-113665000D03*
G04 #@! TO.P,J1,53*
G04 #@! TO.N,Net-(J1-Pad53)*
X41910000Y-111760000D03*
G04 #@! TO.P,J1,52*
G04 #@! TO.N,Net-(J1-Pad52)*
X43180000Y-113665000D03*
G04 #@! TO.P,J1,51*
G04 #@! TO.N,Net-(J1-Pad51)*
X44450000Y-111760000D03*
G04 #@! TO.P,J1,50*
G04 #@! TO.N,Net-(J1-Pad50)*
X45720000Y-113665000D03*
G04 #@! TO.P,J1,49*
G04 #@! TO.N,Net-(J1-Pad49)*
X46990000Y-111760000D03*
G04 #@! TO.P,J1,48*
G04 #@! TO.N,Net-(J1-Pad48)*
X48260000Y-113665000D03*
G04 #@! TO.P,J1,47*
G04 #@! TO.N,Net-(J1-Pad47)*
X49530000Y-111760000D03*
G04 #@! TO.P,J1,46*
G04 #@! TO.N,Net-(J1-Pad46)*
X50800000Y-113665000D03*
G04 #@! TO.P,J1,45*
G04 #@! TO.N,Net-(J1-Pad45)*
X52070000Y-111760000D03*
G04 #@! TO.P,J1,44*
G04 #@! TO.N,Net-(J1-Pad44)*
X53340000Y-113665000D03*
G04 #@! TO.P,J1,43*
G04 #@! TO.N,Net-(J1-Pad43)*
X54610000Y-111760000D03*
G04 #@! TO.P,J1,42*
G04 #@! TO.N,Net-(J1-Pad42)*
X55880000Y-113665000D03*
G04 #@! TO.P,J1,41*
G04 #@! TO.N,Net-(J1-Pad41)*
X57150000Y-111760000D03*
G04 #@! TO.P,J1,40*
G04 #@! TO.N,Net-(J1-Pad40)*
X58420000Y-113665000D03*
G04 #@! TO.P,J1,39*
G04 #@! TO.N,Net-(J1-Pad39)*
X59690000Y-111760000D03*
G04 #@! TO.P,J1,38*
G04 #@! TO.N,Net-(J1-Pad38)*
X60960000Y-113665000D03*
G04 #@! TO.P,J1,37*
G04 #@! TO.N,Net-(J1-Pad37)*
X62230000Y-111760000D03*
G04 #@! TO.P,J1,36*
G04 #@! TO.N,Net-(J1-Pad36)*
X63500000Y-113665000D03*
G04 #@! TO.P,J1,35*
G04 #@! TO.N,/~IO16*
X64770000Y-111760000D03*
G04 #@! TO.P,J1,34*
G04 #@! TO.N,Net-(J1-Pad34)*
X66040000Y-113665000D03*
G04 #@! TO.P,J1,33*
G04 #@! TO.N,Net-(J1-Pad33)*
X67310000Y-111760000D03*
G04 #@! TO.P,J1,32*
G04 #@! TO.N,Net-(J1-Pad32)*
X68580000Y-113665000D03*
G04 #@! TO.P,J1,31*
G04 #@! TO.N,/~IOW*
X69850000Y-111760000D03*
G04 #@! TO.P,J1,30*
G04 #@! TO.N,/~IOR*
X71120000Y-113665000D03*
G04 #@! TO.P,J1,29*
G04 #@! TO.N,/bA0*
X72390000Y-111760000D03*
G04 #@! TO.P,J1,28*
G04 #@! TO.N,/bA1*
X73660000Y-113665000D03*
G04 #@! TO.P,J1,27*
G04 #@! TO.N,/bA2*
X74930000Y-111760000D03*
G04 #@! TO.P,J1,26*
G04 #@! TO.N,/bA3*
X76200000Y-113665000D03*
G04 #@! TO.P,J1,25*
G04 #@! TO.N,/bA4*
X77470000Y-111760000D03*
G04 #@! TO.P,J1,24*
G04 #@! TO.N,/bA5*
X78740000Y-113665000D03*
G04 #@! TO.P,J1,23*
G04 #@! TO.N,/bA6*
X80010000Y-111760000D03*
G04 #@! TO.P,J1,22*
G04 #@! TO.N,/bA7*
X81280000Y-113665000D03*
G04 #@! TO.P,J1,21*
G04 #@! TO.N,/bA8*
X82550000Y-111760000D03*
G04 #@! TO.P,J1,20*
G04 #@! TO.N,/bA9*
X83820000Y-113665000D03*
G04 #@! TO.P,J1,19*
G04 #@! TO.N,/A10*
X85090000Y-111760000D03*
G04 #@! TO.P,J1,18*
G04 #@! TO.N,/A11*
X86360000Y-113665000D03*
G04 #@! TO.P,J1,17*
G04 #@! TO.N,/A12*
X87630000Y-111760000D03*
G04 #@! TO.P,J1,16*
G04 #@! TO.N,/A13*
X88900000Y-113665000D03*
G04 #@! TO.P,J1,15*
G04 #@! TO.N,/A14*
X90170000Y-111760000D03*
G04 #@! TO.P,J1,14*
G04 #@! TO.N,/A15*
X91440000Y-113665000D03*
G04 #@! TO.P,J1,13*
G04 #@! TO.N,Net-(J1-Pad13)*
X92710000Y-111760000D03*
G04 #@! TO.P,J1,12*
G04 #@! TO.N,Net-(J1-Pad12)*
X93980000Y-113665000D03*
G04 #@! TO.P,J1,11*
G04 #@! TO.N,Net-(J1-Pad11)*
X95250000Y-111760000D03*
G04 #@! TO.P,J1,10*
G04 #@! TO.N,Net-(J1-Pad10)*
X96520000Y-113665000D03*
G04 #@! TO.P,J1,9*
G04 #@! TO.N,Net-(J1-Pad9)*
X97790000Y-111760000D03*
G04 #@! TO.P,J1,8*
G04 #@! TO.N,Net-(J1-Pad8)*
X99060000Y-113665000D03*
G04 #@! TO.P,J1,7*
G04 #@! TO.N,Net-(J1-Pad7)*
X100330000Y-111760000D03*
G04 #@! TO.P,J1,6*
G04 #@! TO.N,Net-(J1-Pad6)*
X101600000Y-113665000D03*
G04 #@! TO.P,J1,5*
G04 #@! TO.N,GND*
X102870000Y-111760000D03*
G04 #@! TO.P,J1,4*
X104140000Y-113665000D03*
G04 #@! TO.P,J1,3*
X105410000Y-111760000D03*
G04 #@! TO.P,J1,2*
X106680000Y-113665000D03*
G04 #@! TO.P,J1,1*
X107950000Y-111760000D03*
G04 #@! TD*
D19*
G04 #@! TO.N,GND*
X118745000Y-21590000D03*
X118745000Y-22860000D03*
X21590000Y-21590000D03*
X21590000Y-22860000D03*
X22860000Y-22860000D03*
X22860000Y-21590000D03*
X118745000Y-21590000D03*
X118745000Y-21590000D03*
X118745000Y-21590000D03*
X118745000Y-21590000D03*
X114300000Y-66675000D03*
X110490000Y-70485000D03*
X106045000Y-74295000D03*
X99060000Y-82550000D03*
G04 #@! TO.N,/A13*
X68035200Y-106512100D03*
G04 #@! TO.N,/A11*
X58541500Y-98521600D03*
G04 #@! TO.N,/bA6*
X86353300Y-97646700D03*
G04 #@! TO.N,/bA5*
X83361000Y-105959900D03*
X88844100Y-104157200D03*
G04 #@! TO.N,/bA0*
X75546200Y-102484200D03*
G04 #@! TO.N,/~IOR*
X94233400Y-104254800D03*
G04 #@! TO.N,/~IO16*
X78333900Y-110097800D03*
G04 #@! TO.N,/D8*
X102685700Y-103888400D03*
G04 #@! TO.N,/D7*
X101594900Y-73677000D03*
X97254300Y-107418300D03*
G04 #@! TO.N,/D2*
X76089000Y-78458500D03*
G04 #@! TO.N,/~AEN*
X75915300Y-103642100D03*
G04 #@! TO.N,/~IRQ3*
X36123900Y-90964900D03*
G04 #@! TO.N,/~8BIT*
X107718700Y-87049900D03*
G04 #@! TO.N,/~CS*
X68405500Y-89866300D03*
G04 #@! TO.N,/~INT*
X74852800Y-58903700D03*
G04 #@! TO.N,/BRDY0*
X93701800Y-61648600D03*
G04 #@! TO.N,/BRDY3*
X101027000Y-60135800D03*
G04 #@! TO.N,/~COL*
X100951900Y-64815600D03*
G04 #@! TO.N,/~RX*
X107008100Y-40241700D03*
G04 #@! TO.N,/A8*
X83650200Y-83087700D03*
G04 #@! TO.N,/A7*
X80739900Y-84394400D03*
G04 #@! TO.N,/A6*
X60262700Y-83838600D03*
G04 #@! TO.N,/A3*
X45255400Y-77630700D03*
G04 #@! TO.N,/A2*
X101655700Y-69751300D03*
G04 #@! TO.N,/A0*
X93596000Y-77160500D03*
G04 #@! TO.N,Net-(D4-Pad1)*
X57064600Y-48180500D03*
G04 #@! TO.N,/eA9*
X88999100Y-35987900D03*
G04 #@! TO.N,Net-(U1-Pad16)*
X52707700Y-84679900D03*
G04 #@! TO.N,Net-(SW2-Pad6)*
X49287600Y-64004900D03*
G04 #@! TD*
D20*
G04 #@! TO.N,GND*
X65405000Y-100330000D02*
X65405000Y-99027700D01*
X65405000Y-87630000D02*
X65405000Y-88932300D01*
X65405000Y-88932300D02*
X66711000Y-90238300D01*
X66711000Y-90238300D02*
X66711000Y-97721700D01*
X66711000Y-97721700D02*
X65405000Y-99027700D01*
X99060000Y-87630000D02*
X99060000Y-86327700D01*
X78740000Y-78707700D02*
X76264600Y-76232300D01*
X76264600Y-76232300D02*
X76200000Y-76232300D01*
X99060000Y-74930000D02*
X99060000Y-76232300D01*
X99060000Y-86327700D02*
X100377200Y-85010500D01*
X100377200Y-85010500D02*
X100377200Y-77549500D01*
X100377200Y-77549500D02*
X99060000Y-76232300D01*
X35560000Y-116840000D02*
X36195000Y-116840000D01*
X36195000Y-116840000D02*
X36830000Y-116205000D01*
X34290000Y-115570000D02*
X35560000Y-116840000D01*
X35560000Y-116840000D02*
X35560000Y-117475000D01*
X36830000Y-116205000D02*
X36830000Y-115570000D01*
X38100000Y-117475000D02*
X36830000Y-116205000D01*
X33020000Y-115570000D02*
X34290000Y-115570000D01*
X33020000Y-115570000D02*
X33020000Y-117475000D01*
X29845000Y-102870000D02*
X29845000Y-112395000D01*
X29845000Y-112395000D02*
X33020000Y-115570000D01*
X114300000Y-62230000D02*
X114300000Y-22860000D01*
X39370000Y-48292300D02*
X40694200Y-49616500D01*
X40694200Y-49616500D02*
X40694200Y-67850800D01*
X40694200Y-67850800D02*
X38735000Y-69810000D01*
X39370000Y-46990000D02*
X39370000Y-48292300D01*
X38735000Y-69810000D02*
X40040000Y-71115000D01*
X40040000Y-71115000D02*
X40040000Y-81205000D01*
X40040000Y-81205000D02*
X38735000Y-82510000D01*
X76200000Y-83852300D02*
X76200000Y-86978800D01*
X78740000Y-81312300D02*
X76200000Y-83852300D01*
X72390000Y-82550000D02*
X73692300Y-83852300D01*
X73692300Y-83852300D02*
X76200000Y-83852300D01*
X78740000Y-80010000D02*
X78740000Y-81312300D01*
X93980000Y-53892700D02*
X93980000Y-33737300D01*
X93980000Y-33737300D02*
X91440000Y-31197300D01*
X93980000Y-55245000D02*
X93980000Y-53892700D01*
X76200000Y-87630000D02*
X76200000Y-86978800D01*
X78740000Y-80010000D02*
X78740000Y-78707700D01*
X76200000Y-74930000D02*
X76200000Y-76232300D01*
X76200000Y-74278800D02*
X76200000Y-74930000D01*
X76200000Y-74278800D02*
X76200000Y-73627700D01*
X83820000Y-57785000D02*
X83820000Y-59137300D01*
X72743700Y-69810000D02*
X72743700Y-70171400D01*
X72743700Y-70171400D02*
X76200000Y-73627700D01*
X83820000Y-59137300D02*
X82467700Y-59137300D01*
X82467700Y-59137300D02*
X72743700Y-68861300D01*
X72743700Y-68861300D02*
X72743700Y-69810000D01*
X72390000Y-69810000D02*
X72743700Y-69810000D01*
X62865000Y-46990000D02*
X60325000Y-46990000D01*
X109815000Y-102870000D02*
X109815000Y-94737300D01*
X109815000Y-94737300D02*
X111125000Y-93427300D01*
X107950000Y-111760000D02*
X109815000Y-109895000D01*
X109815000Y-109895000D02*
X109815000Y-102870000D01*
X111125000Y-92075000D02*
X111125000Y-93427300D01*
X76200000Y-87630000D02*
X76200000Y-88932300D01*
X72390000Y-95210000D02*
X74066100Y-93533900D01*
X74066100Y-93533900D02*
X74066100Y-91066200D01*
X74066100Y-91066200D02*
X76200000Y-88932300D01*
X91440000Y-29845000D02*
X91440000Y-31197300D01*
X93980000Y-55245000D02*
X93980000Y-57785000D01*
D21*
G04 #@! TO.N,/A13*
X62865000Y-92710000D02*
X62865000Y-93762300D01*
X68035200Y-106512100D02*
X64135000Y-102611900D01*
X64135000Y-102611900D02*
X64135000Y-95032300D01*
X64135000Y-95032300D02*
X62865000Y-93762300D01*
G04 #@! TO.N,/A11*
X58541500Y-98521600D02*
X58541500Y-94518800D01*
X58541500Y-94518800D02*
X57785000Y-93762300D01*
X57785000Y-92710000D02*
X57785000Y-93762300D01*
G04 #@! TO.N,/bA9*
X93980000Y-80010000D02*
X93980000Y-81062300D01*
X83820000Y-113665000D02*
X83222000Y-113665000D01*
X83222000Y-113665000D02*
X81671800Y-115215200D01*
X81671800Y-115215200D02*
X81671800Y-115912200D01*
X81671800Y-115912200D02*
X82241300Y-116481700D01*
X82241300Y-116481700D02*
X82857700Y-116481700D01*
X82857700Y-116481700D02*
X85145200Y-114194200D01*
X85145200Y-114194200D02*
X85145200Y-113639100D01*
X85145200Y-113639100D02*
X86018400Y-112765900D01*
X86018400Y-112765900D02*
X87871500Y-112765900D01*
X87871500Y-112765900D02*
X88608500Y-112028900D01*
X88608500Y-112028900D02*
X88608500Y-110996600D01*
X88608500Y-110996600D02*
X92927700Y-106677400D01*
X92927700Y-106677400D02*
X92927700Y-82114600D01*
X92927700Y-82114600D02*
X93980000Y-81062300D01*
G04 #@! TO.N,/bA8*
X88900000Y-80010000D02*
X88900000Y-81062300D01*
X82550000Y-111760000D02*
X87792600Y-106517400D01*
X87792600Y-106517400D02*
X87792600Y-82169700D01*
X87792600Y-82169700D02*
X88900000Y-81062300D01*
G04 #@! TO.N,/bA7*
X83820000Y-81062300D02*
X87415200Y-84657500D01*
X87415200Y-84657500D02*
X87415200Y-105470100D01*
X87415200Y-105470100D02*
X81280000Y-111605300D01*
X81280000Y-111605300D02*
X81280000Y-113665000D01*
X83820000Y-80010000D02*
X83820000Y-81062300D01*
G04 #@! TO.N,/bA6*
X80010000Y-111760000D02*
X80010000Y-110233400D01*
X80010000Y-110233400D02*
X84872400Y-105371000D01*
X84872400Y-105371000D02*
X84872400Y-99127600D01*
X84872400Y-99127600D02*
X86353300Y-97646700D01*
G04 #@! TO.N,/bA5*
X88900000Y-87630000D02*
X88900000Y-88682300D01*
X88900000Y-88682300D02*
X89956900Y-89739200D01*
X89956900Y-89739200D02*
X89956900Y-103044400D01*
X89956900Y-103044400D02*
X88844100Y-104157200D01*
X78740000Y-113665000D02*
X78740000Y-110687000D01*
X78740000Y-110687000D02*
X83361000Y-106066000D01*
X83361000Y-106066000D02*
X83361000Y-105959900D01*
G04 #@! TO.N,/bA4*
X83820000Y-88682300D02*
X82767700Y-89734600D01*
X82767700Y-89734600D02*
X82767700Y-95371900D01*
X82767700Y-95371900D02*
X80010000Y-98129600D01*
X80010000Y-98129600D02*
X80010000Y-102260000D01*
X80010000Y-102260000D02*
X77470000Y-104800000D01*
X77470000Y-104800000D02*
X77470000Y-111760000D01*
X83820000Y-87630000D02*
X83820000Y-88682300D01*
G04 #@! TO.N,/bA3*
X76200000Y-113665000D02*
X76575000Y-113290000D01*
X76575000Y-113290000D02*
X76575000Y-102590500D01*
X76575000Y-102590500D02*
X75485100Y-101500600D01*
X75485100Y-101500600D02*
X75400600Y-101500600D01*
X75400600Y-101500600D02*
X75147600Y-101247600D01*
X75147600Y-101247600D02*
X75147600Y-99414900D01*
X75147600Y-99414900D02*
X77470000Y-97092500D01*
X77470000Y-97092500D02*
X77470000Y-89952300D01*
X77470000Y-89952300D02*
X78740000Y-88682300D01*
X78740000Y-87630000D02*
X78740000Y-88682300D01*
G04 #@! TO.N,/bA2*
X74930000Y-111760000D02*
X74930000Y-113663400D01*
X74930000Y-113663400D02*
X75793500Y-114526900D01*
X75793500Y-114526900D02*
X79107000Y-114526900D01*
X79107000Y-114526900D02*
X80872000Y-112761900D01*
X80872000Y-112761900D02*
X80872000Y-110881100D01*
X80872000Y-110881100D02*
X86360000Y-105393100D01*
X86360000Y-105393100D02*
X86360000Y-100330000D01*
G04 #@! TO.N,/bA1*
X88900000Y-100330000D02*
X88900000Y-101382300D01*
X73660000Y-113665000D02*
X73660000Y-115575300D01*
X73660000Y-115575300D02*
X74516700Y-116432000D01*
X74516700Y-116432000D02*
X77857900Y-116432000D01*
X77857900Y-116432000D02*
X79619000Y-114670900D01*
X79619000Y-114670900D02*
X81503000Y-114670900D01*
X81503000Y-114670900D02*
X83945700Y-112228200D01*
X83945700Y-112228200D02*
X83945700Y-111646300D01*
X83945700Y-111646300D02*
X88170000Y-107422000D01*
X88170000Y-107422000D02*
X88170000Y-102112300D01*
X88170000Y-102112300D02*
X88900000Y-101382300D01*
G04 #@! TO.N,/bA0*
X72390000Y-111760000D02*
X74770200Y-109379800D01*
X74770200Y-109379800D02*
X74770200Y-103260200D01*
X74770200Y-103260200D02*
X75546200Y-102484200D01*
G04 #@! TO.N,/~IOR*
X94233400Y-104254800D02*
X93980000Y-104001400D01*
X93980000Y-104001400D02*
X93980000Y-100330000D01*
G04 #@! TO.N,/~IOW*
X86360000Y-55245000D02*
X85257700Y-55245000D01*
X69850000Y-111760000D02*
X69850000Y-68334200D01*
X69850000Y-68334200D02*
X78056100Y-60128100D01*
X78056100Y-60128100D02*
X80542700Y-60128100D01*
X80542700Y-60128100D02*
X82717600Y-57953200D01*
X82717600Y-57953200D02*
X82717600Y-57297800D01*
X82717600Y-57297800D02*
X83500400Y-56515000D01*
X83500400Y-56515000D02*
X84216100Y-56515000D01*
X84216100Y-56515000D02*
X85257700Y-55473400D01*
X85257700Y-55473400D02*
X85257700Y-55245000D01*
G04 #@! TO.N,/~IO16*
X78333900Y-110097800D02*
X78333900Y-107405100D01*
X78333900Y-107405100D02*
X82416500Y-103322500D01*
X82416500Y-103322500D02*
X82416500Y-100006200D01*
X82416500Y-100006200D02*
X83820000Y-98602700D01*
X83820000Y-98602700D02*
X83820000Y-92710000D01*
D20*
G04 #@! TO.N,+3V3*
X111800000Y-62230000D02*
X113112400Y-60917600D01*
X113112400Y-60917600D02*
X113112400Y-56597400D01*
X113112400Y-56597400D02*
X111760000Y-55245000D01*
X107315000Y-101567700D02*
X108621000Y-100261700D01*
X108621000Y-100261700D02*
X108621000Y-71755000D01*
X108621000Y-65409000D02*
X111800000Y-62230000D01*
X107315000Y-102870000D02*
X107315000Y-104172300D01*
X104140000Y-117475000D02*
X104140000Y-115267400D01*
X104140000Y-115267400D02*
X105252000Y-114155400D01*
X105252000Y-114155400D02*
X105252000Y-113505600D01*
X105252000Y-113505600D02*
X106773100Y-111984500D01*
X106773100Y-111984500D02*
X106773100Y-104714200D01*
X106773100Y-104714200D02*
X107315000Y-104172300D01*
X111760000Y-27305000D02*
X111760000Y-25952700D01*
X111800000Y-22860000D02*
X111800000Y-25912700D01*
X111800000Y-25912700D02*
X111760000Y-25952700D01*
X111760000Y-27305000D02*
X113112300Y-28657300D01*
X113112300Y-28657300D02*
X113112300Y-52540400D01*
X113112300Y-52540400D02*
X111760000Y-53892700D01*
X111760000Y-55245000D02*
X111760000Y-53892700D01*
X107315000Y-102870000D02*
X107315000Y-101567700D01*
X108621000Y-71755000D02*
X108621000Y-65409000D01*
G04 #@! TO.N,+5V*
X34290000Y-113030000D02*
X33655000Y-113030000D01*
X33655000Y-113030000D02*
X33020000Y-113665000D01*
X35560000Y-113665000D02*
X34925000Y-113030000D01*
X34925000Y-113030000D02*
X34290000Y-113030000D01*
X34290000Y-113030000D02*
X34290000Y-111760000D01*
X72390000Y-80050000D02*
X71035000Y-81405000D01*
X71035000Y-81405000D02*
X71035000Y-91355000D01*
X71035000Y-91355000D02*
X72390000Y-92710000D01*
X76200000Y-92710000D02*
X76200000Y-94012300D01*
X76200000Y-94012300D02*
X72390000Y-97822300D01*
X72390000Y-97822300D02*
X72390000Y-104775000D01*
X42545000Y-40640000D02*
X38735000Y-36830000D01*
X42545000Y-67310000D02*
X42545000Y-40640000D01*
X42545000Y-40640000D02*
X46951600Y-40640000D01*
X46951600Y-40640000D02*
X52070000Y-35521600D01*
X52070000Y-35521600D02*
X52070000Y-33020000D01*
X42545000Y-67310000D02*
X42545000Y-68612300D01*
X42545000Y-80010000D02*
X42545000Y-78707700D01*
X42545000Y-78707700D02*
X41242600Y-77405300D01*
X41242600Y-77405300D02*
X41242600Y-69914700D01*
X41242600Y-69914700D02*
X42545000Y-68612300D01*
X107950000Y-115570000D02*
X107950000Y-116205000D01*
X107950000Y-116205000D02*
X106680000Y-117475000D01*
X32345000Y-102870000D02*
X32345000Y-104172300D01*
X34290000Y-111760000D02*
X34290000Y-106117300D01*
X34290000Y-106117300D02*
X32345000Y-104172300D01*
D21*
G04 #@! TO.N,/D15*
X111760000Y-30947300D02*
X110322400Y-32384900D01*
X110322400Y-32384900D02*
X110322400Y-59205200D01*
X110322400Y-59205200D02*
X104665700Y-64861900D01*
X104665700Y-64861900D02*
X104665700Y-111036800D01*
X104665700Y-111036800D02*
X103732000Y-111970500D01*
X103732000Y-111970500D02*
X103732000Y-112854000D01*
X103732000Y-112854000D02*
X101600000Y-114986000D01*
X101600000Y-114986000D02*
X101600000Y-117475000D01*
X111760000Y-29845000D02*
X111760000Y-30947300D01*
G04 #@! TO.N,/D14*
X100330000Y-115570000D02*
X100330000Y-117472200D01*
X100330000Y-117472200D02*
X101218400Y-118360600D01*
X101218400Y-118360600D02*
X104483300Y-118360600D01*
X104483300Y-118360600D02*
X106856100Y-115987800D01*
X106856100Y-115987800D02*
X106856100Y-115332000D01*
X106856100Y-115332000D02*
X115392100Y-106796000D01*
X115392100Y-106796000D02*
X115392100Y-22408800D01*
X115392100Y-22408800D02*
X114749200Y-21765900D01*
X114749200Y-21765900D02*
X111315600Y-21765900D01*
X111315600Y-21765900D02*
X109220000Y-23861500D01*
X109220000Y-23861500D02*
X109220000Y-27305000D01*
G04 #@! TO.N,/D13*
X109220000Y-29845000D02*
X109220000Y-30947300D01*
X99060000Y-117475000D02*
X99060000Y-115217400D01*
X99060000Y-115217400D02*
X100330000Y-113947400D01*
X100330000Y-113947400D02*
X100330000Y-113076200D01*
X100330000Y-113076200D02*
X104288400Y-109117800D01*
X104288400Y-109117800D02*
X104288400Y-62657100D01*
X104288400Y-62657100D02*
X107950000Y-58995500D01*
X107950000Y-58995500D02*
X107950000Y-32217300D01*
X107950000Y-32217300D02*
X109220000Y-30947300D01*
G04 #@! TO.N,/D11*
X106680000Y-29845000D02*
X106680000Y-30947300D01*
X96520000Y-117475000D02*
X96520000Y-115442700D01*
X96520000Y-115442700D02*
X97857200Y-114105500D01*
X97857200Y-114105500D02*
X97857200Y-113013800D01*
X97857200Y-113013800D02*
X103725000Y-107146000D01*
X103725000Y-107146000D02*
X103725000Y-61411700D01*
X103725000Y-61411700D02*
X105242400Y-59894300D01*
X105242400Y-59894300D02*
X105242400Y-32384900D01*
X105242400Y-32384900D02*
X106680000Y-30947300D01*
G04 #@! TO.N,/D10*
X104140000Y-27305000D02*
X105242300Y-27305000D01*
X95250000Y-115570000D02*
X95250000Y-117468900D01*
X95250000Y-117468900D02*
X96519100Y-118738000D01*
X96519100Y-118738000D02*
X106677300Y-118738000D01*
X106677300Y-118738000D02*
X115769500Y-109645800D01*
X115769500Y-109645800D02*
X115769500Y-22151900D01*
X115769500Y-22151900D02*
X115006100Y-21388500D01*
X115006100Y-21388500D02*
X110930400Y-21388500D01*
X110930400Y-21388500D02*
X105242300Y-27076600D01*
X105242300Y-27076600D02*
X105242300Y-27305000D01*
G04 #@! TO.N,/D9*
X93980000Y-117475000D02*
X93980000Y-115612600D01*
X93980000Y-115612600D02*
X94921700Y-114670900D01*
X94921700Y-114670900D02*
X96758100Y-114670900D01*
X96758100Y-114670900D02*
X97406100Y-114022900D01*
X97406100Y-114022900D02*
X97406100Y-113033200D01*
X97406100Y-113033200D02*
X96915400Y-112542500D01*
X96915400Y-112542500D02*
X96915400Y-110581200D01*
X96915400Y-110581200D02*
X103338000Y-104158600D01*
X103338000Y-104158600D02*
X103338000Y-103618300D01*
X103338000Y-103618300D02*
X103033200Y-103313500D01*
X103033200Y-103313500D02*
X103033200Y-32054100D01*
X103033200Y-32054100D02*
X104140000Y-30947300D01*
X104140000Y-29845000D02*
X104140000Y-30947300D01*
G04 #@! TO.N,/D8*
X92710000Y-115570000D02*
X93303900Y-115570000D01*
X93303900Y-115570000D02*
X96242700Y-112631200D01*
X96242700Y-112631200D02*
X96242700Y-110331400D01*
X96242700Y-110331400D02*
X102685700Y-103888400D01*
G04 #@! TO.N,/D7*
X97254300Y-107418300D02*
X101594900Y-103077700D01*
X101594900Y-103077700D02*
X101594900Y-73677000D01*
G04 #@! TO.N,/D6*
X99060000Y-27305000D02*
X100162300Y-27305000D01*
X90170000Y-115570000D02*
X89569900Y-115570000D01*
X89569900Y-115570000D02*
X87992000Y-117147900D01*
X87992000Y-117147900D02*
X87992000Y-117871700D01*
X87992000Y-117871700D02*
X89267500Y-119147200D01*
X89267500Y-119147200D02*
X106912800Y-119147200D01*
X106912800Y-119147200D02*
X116173000Y-109887000D01*
X116173000Y-109887000D02*
X116173000Y-21991500D01*
X116173000Y-21991500D02*
X115173000Y-20991500D01*
X115173000Y-20991500D02*
X106247400Y-20991500D01*
X106247400Y-20991500D02*
X100162300Y-27076600D01*
X100162300Y-27076600D02*
X100162300Y-27305000D01*
G04 #@! TO.N,/D5*
X88900000Y-117475000D02*
X89506600Y-117475000D01*
X89506600Y-117475000D02*
X92302000Y-114679600D01*
X92302000Y-114679600D02*
X92302000Y-113489100D01*
X92302000Y-113489100D02*
X102033400Y-103757700D01*
X102033400Y-103757700D02*
X102033400Y-103618300D01*
X102033400Y-103618300D02*
X102359100Y-103292600D01*
X102359100Y-103292600D02*
X102359100Y-60545500D01*
X102359100Y-60545500D02*
X100292700Y-58479100D01*
X100292700Y-58479100D02*
X100292700Y-32180000D01*
X100292700Y-32180000D02*
X99060000Y-30947300D01*
X99060000Y-29845000D02*
X99060000Y-30947300D01*
G04 #@! TO.N,/D4*
X96520000Y-27305000D02*
X97622300Y-27305000D01*
X87630000Y-115570000D02*
X87029800Y-115570000D01*
X87029800Y-115570000D02*
X85485700Y-117114100D01*
X85485700Y-117114100D02*
X85485700Y-117846600D01*
X85485700Y-117846600D02*
X87199400Y-119560300D01*
X87199400Y-119560300D02*
X107054500Y-119560300D01*
X107054500Y-119560300D02*
X116590600Y-110024200D01*
X116590600Y-110024200D02*
X116590600Y-21835500D01*
X116590600Y-21835500D02*
X115369200Y-20614100D01*
X115369200Y-20614100D02*
X104084800Y-20614100D01*
X104084800Y-20614100D02*
X97622300Y-27076600D01*
X97622300Y-27076600D02*
X97622300Y-27305000D01*
G04 #@! TO.N,/D3*
X96520000Y-75982300D02*
X97630400Y-77092700D01*
X97630400Y-77092700D02*
X97630400Y-105620700D01*
X97630400Y-105620700D02*
X89762000Y-113489100D01*
X89762000Y-113489100D02*
X89762000Y-114679600D01*
X89762000Y-114679600D02*
X86966600Y-117475000D01*
X86966600Y-117475000D02*
X86360000Y-117475000D01*
X96520000Y-74930000D02*
X96520000Y-75982300D01*
G04 #@! TO.N,/D2*
X85090000Y-115570000D02*
X84489900Y-115570000D01*
X84489900Y-115570000D02*
X81678900Y-118381000D01*
X81678900Y-118381000D02*
X70767100Y-118381000D01*
X70767100Y-118381000D02*
X70257500Y-117871400D01*
X70257500Y-117871400D02*
X70257500Y-116819600D01*
X70257500Y-116819600D02*
X70727300Y-116349800D01*
X70727300Y-116349800D02*
X70727300Y-114770000D01*
X70727300Y-114770000D02*
X70243000Y-114285700D01*
X70243000Y-114285700D02*
X70243000Y-112823600D01*
X70243000Y-112823600D02*
X70737800Y-112328800D01*
X70737800Y-112328800D02*
X70737800Y-111228200D01*
X70737800Y-111228200D02*
X70355000Y-110845400D01*
X70355000Y-110845400D02*
X70355000Y-80596500D01*
X70355000Y-80596500D02*
X72493000Y-78458500D01*
X72493000Y-78458500D02*
X76089000Y-78458500D01*
X93980000Y-28407300D02*
X93842200Y-28407300D01*
X93842200Y-28407300D02*
X92876300Y-29373200D01*
X92876300Y-29373200D02*
X92876300Y-30873000D01*
X92876300Y-30873000D02*
X95095600Y-33092300D01*
X95095600Y-33092300D02*
X95095600Y-59332400D01*
X95095600Y-59332400D02*
X92521300Y-61906700D01*
X92521300Y-61906700D02*
X92521300Y-72796400D01*
X92521300Y-72796400D02*
X91440000Y-73877700D01*
X91440000Y-74930000D02*
X91440000Y-73877700D01*
X93980000Y-27305000D02*
X93980000Y-28407300D01*
G04 #@! TO.N,/D1*
X83820000Y-117475000D02*
X84426600Y-117475000D01*
X84426600Y-117475000D02*
X87222000Y-114679600D01*
X87222000Y-114679600D02*
X87222000Y-113949100D01*
X87222000Y-113949100D02*
X89032600Y-112138500D01*
X89032600Y-112138500D02*
X89032600Y-111629000D01*
X89032600Y-111629000D02*
X95033300Y-105628300D01*
X95033300Y-105628300D02*
X95033300Y-77675300D01*
X95033300Y-77675300D02*
X93358700Y-76000700D01*
X93358700Y-76000700D02*
X92927600Y-76000700D01*
X93980000Y-30947300D02*
X97670900Y-34638200D01*
X97670900Y-34638200D02*
X97670900Y-58932400D01*
X97670900Y-58932400D02*
X92927600Y-63675700D01*
X92927600Y-63675700D02*
X92927600Y-76000700D01*
X92927600Y-76000700D02*
X88374000Y-76000700D01*
X88374000Y-76000700D02*
X87412300Y-75039000D01*
X87412300Y-75039000D02*
X87412300Y-74930000D01*
X93980000Y-29845000D02*
X93980000Y-30947300D01*
X86360000Y-74930000D02*
X87412300Y-74930000D01*
G04 #@! TO.N,/D0*
X85298600Y-75982400D02*
X83275700Y-75982400D01*
X83275700Y-75982400D02*
X82332300Y-75039000D01*
X82332300Y-75039000D02*
X82332300Y-74930000D01*
X82550000Y-115570000D02*
X83134100Y-115570000D01*
X83134100Y-115570000D02*
X84682000Y-114022100D01*
X84682000Y-114022100D02*
X84682000Y-113489000D01*
X84682000Y-113489000D02*
X90334300Y-107836700D01*
X90334300Y-107836700D02*
X90334300Y-79955500D01*
X90334300Y-79955500D02*
X86361200Y-75982400D01*
X86361200Y-75982400D02*
X85298600Y-75982400D01*
X85298600Y-75982400D02*
X85298600Y-71602000D01*
X85298600Y-71602000D02*
X87433900Y-69466700D01*
X87433900Y-69466700D02*
X87433900Y-65094000D01*
X87433900Y-65094000D02*
X92556800Y-59971100D01*
X92556800Y-59971100D02*
X92556800Y-33783100D01*
X92556800Y-33783100D02*
X90284400Y-31510700D01*
X90284400Y-31510700D02*
X90284400Y-29334500D01*
X90284400Y-29334500D02*
X91211600Y-28407300D01*
X91211600Y-28407300D02*
X91440000Y-28407300D01*
X91440000Y-27305000D02*
X91440000Y-28407300D01*
X81280000Y-74930000D02*
X82332300Y-74930000D01*
G04 #@! TO.N,/~AEN*
X71120000Y-117475000D02*
X71120000Y-114986000D01*
X71120000Y-114986000D02*
X73785700Y-112320300D01*
X73785700Y-112320300D02*
X73785700Y-111631200D01*
X73785700Y-111631200D02*
X75915300Y-109501600D01*
X75915300Y-109501600D02*
X75915300Y-103642100D01*
G04 #@! TO.N,/~IRQ7*
X31115000Y-70485000D02*
X30012700Y-70485000D01*
X55880000Y-117475000D02*
X55015700Y-118339300D01*
X55015700Y-118339300D02*
X47904400Y-118339300D01*
X47904400Y-118339300D02*
X46141000Y-116575900D01*
X46141000Y-116575900D02*
X44213300Y-116575900D01*
X44213300Y-116575900D02*
X42318000Y-114680600D01*
X42318000Y-114680600D02*
X42318000Y-113488900D01*
X42318000Y-113488900D02*
X36088300Y-107259200D01*
X36088300Y-107259200D02*
X36088300Y-103776800D01*
X36088300Y-103776800D02*
X27428500Y-95117000D01*
X27428500Y-95117000D02*
X27428500Y-69570700D01*
X27428500Y-69570700D02*
X27616600Y-69382600D01*
X27616600Y-69382600D02*
X29609200Y-69382600D01*
X29609200Y-69382600D02*
X30012700Y-69786100D01*
X30012700Y-69786100D02*
X30012700Y-70485000D01*
G04 #@! TO.N,/~IRQ4*
X31115000Y-78105000D02*
X31115000Y-79207300D01*
X52070000Y-115570000D02*
X52070000Y-113081000D01*
X52070000Y-113081000D02*
X32742800Y-93753800D01*
X32742800Y-93753800D02*
X32742800Y-80606700D01*
X32742800Y-80606700D02*
X31343400Y-79207300D01*
X31343400Y-79207300D02*
X31115000Y-79207300D01*
G04 #@! TO.N,/~IRQ3*
X50800000Y-117475000D02*
X51437600Y-117475000D01*
X51437600Y-117475000D02*
X52941500Y-115971100D01*
X52941500Y-115971100D02*
X52941500Y-114923600D01*
X52941500Y-114923600D02*
X52478000Y-114460100D01*
X52478000Y-114460100D02*
X52478000Y-112673000D01*
X52478000Y-112673000D02*
X52933200Y-112217800D01*
X52933200Y-112217800D02*
X52933200Y-111397700D01*
X52933200Y-111397700D02*
X43345100Y-101809600D01*
X43345100Y-101809600D02*
X42040900Y-101809600D01*
X42040900Y-101809600D02*
X36123900Y-95892600D01*
X36123900Y-95892600D02*
X36123900Y-90964900D01*
G04 #@! TO.N,/~IRQ2*
X31115000Y-83185000D02*
X31115000Y-84287300D01*
X49530000Y-115570000D02*
X49530000Y-113081000D01*
X49530000Y-113081000D02*
X32364000Y-95915000D01*
X32364000Y-95915000D02*
X32364000Y-85307900D01*
X32364000Y-85307900D02*
X31343400Y-84287300D01*
X31343400Y-84287300D02*
X31115000Y-84287300D01*
G04 #@! TO.N,/~IRQ1*
X31115000Y-85725000D02*
X31115000Y-86827300D01*
X48260000Y-117475000D02*
X47652400Y-117475000D01*
X47652400Y-117475000D02*
X44858000Y-114680600D01*
X44858000Y-114680600D02*
X44858000Y-113488900D01*
X44858000Y-113488900D02*
X36465700Y-105096600D01*
X36465700Y-105096600D02*
X36465700Y-101512300D01*
X36465700Y-101512300D02*
X30003700Y-95050300D01*
X30003700Y-95050300D02*
X30003700Y-87710200D01*
X30003700Y-87710200D02*
X30886600Y-86827300D01*
X30886600Y-86827300D02*
X31115000Y-86827300D01*
G04 #@! TO.N,/~IRQ0*
X46990000Y-115570000D02*
X46990000Y-113080900D01*
X46990000Y-113080900D02*
X38119800Y-104210700D01*
X38119800Y-104210700D02*
X38119800Y-102607400D01*
X38119800Y-102607400D02*
X31115000Y-95602600D01*
X31115000Y-95602600D02*
X31115000Y-88265000D01*
G04 #@! TO.N,/~RESET*
X91440000Y-55245000D02*
X90337700Y-55245000D01*
X39370000Y-115570000D02*
X39970100Y-115570000D01*
X39970100Y-115570000D02*
X43140200Y-118740100D01*
X43140200Y-118740100D02*
X55878700Y-118740100D01*
X55878700Y-118740100D02*
X56750500Y-117868300D01*
X56750500Y-117868300D02*
X56750500Y-116491400D01*
X56750500Y-116491400D02*
X56280100Y-116021000D01*
X56280100Y-116021000D02*
X56280100Y-114585900D01*
X56280100Y-114585900D02*
X58012000Y-112854000D01*
X58012000Y-112854000D02*
X58012000Y-111723400D01*
X58012000Y-111723400D02*
X61595000Y-108140400D01*
X61595000Y-108140400D02*
X61595000Y-91827900D01*
X61595000Y-91827900D02*
X63917400Y-89505500D01*
X63917400Y-89505500D02*
X63917400Y-71046000D01*
X63917400Y-71046000D02*
X78616000Y-56347400D01*
X78616000Y-56347400D02*
X79227200Y-56347400D01*
X79227200Y-56347400D02*
X80010000Y-55564600D01*
X80010000Y-55564600D02*
X80010000Y-54943500D01*
X80010000Y-54943500D02*
X81211500Y-53742000D01*
X81211500Y-53742000D02*
X89063100Y-53742000D01*
X89063100Y-53742000D02*
X90337700Y-55016600D01*
X90337700Y-55016600D02*
X90337700Y-55245000D01*
G04 #@! TO.N,Net-(D2-Pad2)*
X35560000Y-36830000D02*
X35560000Y-35777700D01*
X35560000Y-35777700D02*
X36612300Y-34725400D01*
X36612300Y-34725400D02*
X36612300Y-25617700D01*
X36612300Y-25617700D02*
X38100000Y-24130000D01*
G04 #@! TO.N,Net-(D1-Pad2)*
X35560000Y-33020000D02*
X35560000Y-31967700D01*
X35560000Y-31967700D02*
X32385000Y-28792700D01*
X32385000Y-28792700D02*
X32385000Y-24130000D01*
G04 #@! TO.N,/~8BIT*
X107718700Y-87049900D02*
X107718700Y-62928600D01*
X107718700Y-62928600D02*
X111760000Y-58887300D01*
X111760000Y-57785000D02*
X111760000Y-58887300D01*
X82550000Y-104775000D02*
X82550000Y-103722700D01*
X82550000Y-103722700D02*
X83820000Y-102452700D01*
X83820000Y-102452700D02*
X83820000Y-100330000D01*
G04 #@! TO.N,Net-(D5-Pad2)*
X62230000Y-33020000D02*
X62230000Y-31967700D01*
X62230000Y-31967700D02*
X55245000Y-24982700D01*
X55245000Y-24982700D02*
X55245000Y-24130000D01*
G04 #@! TO.N,Net-(D4-Pad2)*
X48895000Y-36830000D02*
X48895000Y-35777700D01*
X48895000Y-35777700D02*
X49949900Y-34722800D01*
X49949900Y-34722800D02*
X49949900Y-24549900D01*
X49949900Y-24549900D02*
X49530000Y-24130000D01*
G04 #@! TO.N,Net-(D3-Pad2)*
X48895000Y-33020000D02*
X48895000Y-31967700D01*
X48895000Y-31967700D02*
X43815000Y-26887700D01*
X43815000Y-26887700D02*
X43815000Y-24130000D01*
G04 #@! TO.N,/~RD*
X88900000Y-58887300D02*
X84878800Y-62908500D01*
X84878800Y-62908500D02*
X84878800Y-67791700D01*
X84878800Y-67791700D02*
X80169700Y-72500800D01*
X80169700Y-72500800D02*
X80169700Y-81159100D01*
X80169700Y-81159100D02*
X85090000Y-86079400D01*
X85090000Y-86079400D02*
X85090000Y-90387700D01*
X85090000Y-90387700D02*
X86360000Y-91657700D01*
X86360000Y-92710000D02*
X86360000Y-91657700D01*
X88900000Y-57785000D02*
X88900000Y-58887300D01*
G04 #@! TO.N,/~CS*
X88900000Y-55245000D02*
X87797700Y-55245000D01*
X87797700Y-55245000D02*
X87797700Y-55107200D01*
X87797700Y-55107200D02*
X86832200Y-54141700D01*
X86832200Y-54141700D02*
X83305000Y-54141700D01*
X83305000Y-54141700D02*
X82382400Y-55064300D01*
X82382400Y-55064300D02*
X82382400Y-55732200D01*
X82382400Y-55732200D02*
X81432000Y-56682600D01*
X81432000Y-56682600D02*
X80818100Y-56682600D01*
X80818100Y-56682600D02*
X80143500Y-57357200D01*
X80143500Y-57357200D02*
X80143500Y-57943000D01*
X80143500Y-57943000D02*
X79199100Y-58887400D01*
X79199100Y-58887400D02*
X78741400Y-58887400D01*
X78741400Y-58887400D02*
X68405500Y-69223300D01*
X68405500Y-69223300D02*
X68405500Y-89866300D01*
G04 #@! TO.N,/~INT*
X65405000Y-67310000D02*
X66457300Y-67310000D01*
X74852800Y-58903700D02*
X66457300Y-67299200D01*
X66457300Y-67299200D02*
X66457300Y-67310000D01*
G04 #@! TO.N,/BRDY0*
X96520000Y-57785000D02*
X96520000Y-58887300D01*
X96520000Y-58887300D02*
X96463100Y-58887300D01*
X96463100Y-58887300D02*
X93701800Y-61648600D01*
G04 #@! TO.N,/BRDY2*
X99060000Y-57785000D02*
X99060000Y-58887300D01*
X99060000Y-58887300D02*
X93980000Y-63967300D01*
X93980000Y-63967300D02*
X93980000Y-66257700D01*
X93980000Y-67310000D02*
X93980000Y-66257700D01*
G04 #@! TO.N,/BRDY3*
X101027000Y-60135800D02*
X99060000Y-62102800D01*
X99060000Y-62102800D02*
X99060000Y-66257700D01*
X99060000Y-67310000D02*
X99060000Y-66257700D01*
G04 #@! TO.N,/~COL*
X93980000Y-74930000D02*
X93980000Y-73877700D01*
X100951900Y-64815600D02*
X100951900Y-67014800D01*
X100951900Y-67014800D02*
X94089000Y-73877700D01*
X94089000Y-73877700D02*
X93980000Y-73877700D01*
G04 #@! TO.N,/~RX*
X106680000Y-55245000D02*
X106680000Y-54142700D01*
X106680000Y-54142700D02*
X107008100Y-53814600D01*
X107008100Y-53814600D02*
X107008100Y-40241700D01*
G04 #@! TO.N,/A9*
X60325000Y-74930000D02*
X60325000Y-75982300D01*
X62865000Y-87630000D02*
X62865000Y-86577700D01*
X62865000Y-86577700D02*
X61812700Y-85525400D01*
X61812700Y-85525400D02*
X61812700Y-77470000D01*
X61812700Y-77470000D02*
X60325000Y-75982300D01*
G04 #@! TO.N,/A8*
X83650200Y-83087700D02*
X86360000Y-85797500D01*
X86360000Y-85797500D02*
X86360000Y-87630000D01*
G04 #@! TO.N,/A7*
X81280000Y-86577700D02*
X80739900Y-86037600D01*
X80739900Y-86037600D02*
X80739900Y-84394400D01*
X81280000Y-87630000D02*
X81280000Y-86577700D01*
G04 #@! TO.N,/A6*
X60325000Y-80010000D02*
X60325000Y-81062300D01*
X60325000Y-81062300D02*
X60262700Y-81124600D01*
X60262700Y-81124600D02*
X60262700Y-83838600D01*
G04 #@! TO.N,/A4*
X50165000Y-80010000D02*
X50165000Y-78957700D01*
X50165000Y-78957700D02*
X47625000Y-76417700D01*
X47625000Y-76417700D02*
X47625000Y-74930000D01*
G04 #@! TO.N,/A3*
X45255400Y-77630700D02*
X45085000Y-77460300D01*
X45085000Y-77460300D02*
X45085000Y-74930000D01*
G04 #@! TO.N,/A2*
X101655700Y-69751300D02*
X100143900Y-69751300D01*
X100143900Y-69751300D02*
X95410700Y-74484500D01*
X95410700Y-74484500D02*
X95410700Y-90548400D01*
X95410700Y-90548400D02*
X96520000Y-91657700D01*
X96520000Y-92710000D02*
X96520000Y-91657700D01*
G04 #@! TO.N,/A0*
X91440000Y-92710000D02*
X91440000Y-91657700D01*
X93596000Y-77160500D02*
X92550300Y-78206200D01*
X92550300Y-78206200D02*
X92550300Y-90547400D01*
X92550300Y-90547400D02*
X91440000Y-91657700D01*
G04 #@! TO.N,Net-(D4-Pad1)*
X46990000Y-24130000D02*
X48142300Y-24130000D01*
X48142300Y-24130000D02*
X48142300Y-23841900D01*
X48142300Y-23841900D02*
X49010500Y-22973700D01*
X49010500Y-22973700D02*
X50054100Y-22973700D01*
X50054100Y-22973700D02*
X51251000Y-24170600D01*
X51251000Y-24170600D02*
X51251000Y-30271600D01*
X51251000Y-30271600D02*
X56648500Y-35669100D01*
X56648500Y-35669100D02*
X56648500Y-47764400D01*
X56648500Y-47764400D02*
X57064600Y-48180500D01*
G04 #@! TO.N,/~STS*
X78740000Y-67310000D02*
X78740000Y-68362300D01*
X81280000Y-92710000D02*
X81280000Y-91657700D01*
X81280000Y-91657700D02*
X79792300Y-90170000D01*
X79792300Y-90170000D02*
X79792300Y-69414600D01*
X79792300Y-69414600D02*
X78740000Y-68362300D01*
G04 #@! TO.N,Net-(J4-Pad1)*
X28575000Y-85725000D02*
X28575000Y-88265000D01*
X28575000Y-83185000D02*
X28575000Y-85725000D01*
X28575000Y-80645000D02*
X28575000Y-83185000D01*
X28575000Y-78105000D02*
X28575000Y-80645000D01*
X28575000Y-75565000D02*
X28575000Y-78105000D01*
X28575000Y-73025000D02*
X28575000Y-75565000D01*
X28575000Y-70485000D02*
X28575000Y-73025000D01*
G04 #@! TO.N,/eA9*
X60325000Y-67310000D02*
X60325000Y-66257700D01*
X88999100Y-35987900D02*
X88999100Y-37583600D01*
X88999100Y-37583600D02*
X60325000Y-66257700D01*
G04 #@! TO.N,/eA8*
X88900000Y-29845000D02*
X88900000Y-35142700D01*
X88900000Y-35142700D02*
X57785000Y-66257700D01*
X57785000Y-67310000D02*
X57785000Y-66257700D01*
G04 #@! TO.N,/eA7*
X86360000Y-27305000D02*
X86360000Y-28407300D01*
X86360000Y-28407300D02*
X86497800Y-28407300D01*
X86497800Y-28407300D02*
X87465100Y-29374600D01*
X87465100Y-29374600D02*
X87465100Y-30313900D01*
X87465100Y-30313900D02*
X85968300Y-31810700D01*
X85968300Y-31810700D02*
X84176000Y-31810700D01*
X84176000Y-31810700D02*
X61777400Y-54209300D01*
X61777400Y-54209300D02*
X61777400Y-55291100D01*
X61777400Y-55291100D02*
X55245000Y-61823500D01*
X55245000Y-61823500D02*
X55245000Y-67310000D01*
G04 #@! TO.N,/eA6*
X86360000Y-29845000D02*
X85257700Y-29845000D01*
X85257700Y-29845000D02*
X85257700Y-29982900D01*
X85257700Y-29982900D02*
X62092000Y-53148600D01*
X62092000Y-53148600D02*
X57758100Y-53148600D01*
X57758100Y-53148600D02*
X56697400Y-54209300D01*
X56697400Y-54209300D02*
X56697400Y-55291100D01*
X56697400Y-55291100D02*
X52705000Y-59283500D01*
X52705000Y-59283500D02*
X52705000Y-67310000D01*
G04 #@! TO.N,/eA5*
X50165000Y-67310000D02*
X49112700Y-67310000D01*
X83820000Y-27305000D02*
X82717700Y-27305000D01*
X82717700Y-27305000D02*
X82717700Y-27167200D01*
X82717700Y-27167200D02*
X81726900Y-26176400D01*
X81726900Y-26176400D02*
X80784800Y-26176400D01*
X80784800Y-26176400D02*
X80143500Y-26817700D01*
X80143500Y-26817700D02*
X80143500Y-27461100D01*
X80143500Y-27461100D02*
X78874100Y-28730500D01*
X78874100Y-28730500D02*
X78239000Y-28730500D01*
X78239000Y-28730500D02*
X64761600Y-42207900D01*
X64761600Y-42207900D02*
X64761600Y-46672300D01*
X64761600Y-46672300D02*
X60693800Y-50740100D01*
X60693800Y-50740100D02*
X57092900Y-50740100D01*
X57092900Y-50740100D02*
X53780000Y-54053000D01*
X53780000Y-54053000D02*
X53780000Y-55023300D01*
X53780000Y-55023300D02*
X46568200Y-62235100D01*
X46568200Y-62235100D02*
X46568200Y-67749000D01*
X46568200Y-67749000D02*
X47209700Y-68390500D01*
X47209700Y-68390500D02*
X48141200Y-68390500D01*
X48141200Y-68390500D02*
X49112700Y-67419000D01*
X49112700Y-67419000D02*
X49112700Y-67310000D01*
G04 #@! TO.N,/eA4*
X83820000Y-29845000D02*
X82717700Y-29845000D01*
X82717700Y-29845000D02*
X82717700Y-29982800D01*
X82717700Y-29982800D02*
X60071300Y-52629200D01*
X60071300Y-52629200D02*
X55737500Y-52629200D01*
X55737500Y-52629200D02*
X54192600Y-54174100D01*
X54192600Y-54174100D02*
X54192600Y-56047900D01*
X54192600Y-56047900D02*
X47625000Y-62615500D01*
X47625000Y-62615500D02*
X47625000Y-67310000D01*
G04 #@! TO.N,/eA3*
X81280000Y-27305000D02*
X82402900Y-28427900D01*
X82402900Y-28427900D02*
X84259300Y-28427900D01*
X84259300Y-28427900D02*
X84940800Y-27746400D01*
X84940800Y-27746400D02*
X84940800Y-26828100D01*
X84940800Y-26828100D02*
X83872500Y-25759800D01*
X83872500Y-25759800D02*
X78693300Y-25759800D01*
X78693300Y-25759800D02*
X59188600Y-45264500D01*
X59188600Y-45264500D02*
X59188600Y-47086100D01*
X59188600Y-47086100D02*
X57413600Y-48861100D01*
X57413600Y-48861100D02*
X56965600Y-48861100D01*
X56965600Y-48861100D02*
X51617400Y-54209300D01*
X51617400Y-54209300D02*
X51617400Y-55184300D01*
X51617400Y-55184300D02*
X45085000Y-61716700D01*
X45085000Y-61716700D02*
X45085000Y-67310000D01*
G04 #@! TO.N,Net-(SW1-Pad1)*
X47625000Y-54610000D02*
X47625000Y-55662300D01*
X42545000Y-87630000D02*
X42545000Y-86577700D01*
X42545000Y-86577700D02*
X43597300Y-85525400D01*
X43597300Y-85525400D02*
X43597300Y-59690000D01*
X43597300Y-59690000D02*
X47625000Y-55662300D01*
G04 #@! TO.N,Net-(SW1-Pad2)*
X45085000Y-86577700D02*
X44026400Y-85519100D01*
X44026400Y-85519100D02*
X44026400Y-61800900D01*
X44026400Y-61800900D02*
X50165000Y-55662300D01*
X50165000Y-54610000D02*
X50165000Y-55662300D01*
X45085000Y-87630000D02*
X45085000Y-86577700D01*
G04 #@! TO.N,Net-(SW1-Pad3)*
X47625000Y-86577700D02*
X46190800Y-85143500D01*
X46190800Y-85143500D02*
X46190800Y-61962900D01*
X46190800Y-61962900D02*
X52705000Y-55448700D01*
X52705000Y-55448700D02*
X52705000Y-54610000D01*
X47625000Y-87630000D02*
X47625000Y-86577700D01*
G04 #@! TO.N,Net-(SW1-Pad4)*
X50165000Y-87630000D02*
X50165000Y-86577700D01*
X55245000Y-54610000D02*
X55245000Y-55662300D01*
X55245000Y-55662300D02*
X51625800Y-59281500D01*
X51625800Y-59281500D02*
X51625800Y-85116900D01*
X51625800Y-85116900D02*
X50165000Y-86577700D01*
G04 #@! TO.N,Net-(SW1-Pad5)*
X52705000Y-87630000D02*
X52705000Y-86577700D01*
X57785000Y-54610000D02*
X57785000Y-55662300D01*
X57785000Y-55662300D02*
X53789600Y-59657700D01*
X53789600Y-59657700D02*
X53789600Y-85493100D01*
X53789600Y-85493100D02*
X52705000Y-86577700D01*
G04 #@! TO.N,Net-(SW1-Pad6)*
X60325000Y-54610000D02*
X60325000Y-55662300D01*
X55245000Y-87630000D02*
X55245000Y-86577700D01*
X55245000Y-86577700D02*
X54167000Y-85499700D01*
X54167000Y-85499700D02*
X54167000Y-61820300D01*
X54167000Y-61820300D02*
X60325000Y-55662300D01*
G04 #@! TO.N,Net-(U1-Pad16)*
X52705000Y-80010000D02*
X52705000Y-81062300D01*
X52705000Y-81062300D02*
X52707700Y-81065000D01*
X52707700Y-81065000D02*
X52707700Y-84679900D01*
G04 #@! TO.N,Net-(SW1-Pad7)*
X57785000Y-87630000D02*
X57785000Y-86577700D01*
X62865000Y-54610000D02*
X62865000Y-55662300D01*
X62865000Y-55662300D02*
X56728200Y-61799100D01*
X56728200Y-61799100D02*
X56728200Y-85520900D01*
X56728200Y-85520900D02*
X57785000Y-86577700D01*
G04 #@! TO.N,Net-(SW2-Pad6)*
X55245000Y-100330000D02*
X55245000Y-99277700D01*
X49287600Y-64004900D02*
X51217400Y-65934700D01*
X51217400Y-65934700D02*
X51217400Y-81062400D01*
X51217400Y-81062400D02*
X49080900Y-83198900D01*
X49080900Y-83198900D02*
X49080900Y-88074100D01*
X49080900Y-88074100D02*
X52058900Y-91052100D01*
X52058900Y-91052100D02*
X52539600Y-91052100D01*
X52539600Y-91052100D02*
X53975000Y-92487500D01*
X53975000Y-92487500D02*
X53975000Y-98007700D01*
X53975000Y-98007700D02*
X55245000Y-99277700D01*
G04 #@! TO.N,Net-(SW2-Pad5)*
X52705000Y-100330000D02*
X52705000Y-99277700D01*
X36830000Y-54610000D02*
X36830000Y-83951500D01*
X36830000Y-83951500D02*
X44233600Y-91355100D01*
X44233600Y-91355100D02*
X45247500Y-91355100D01*
X45247500Y-91355100D02*
X46355000Y-92462600D01*
X46355000Y-92462600D02*
X46355000Y-93036700D01*
X46355000Y-93036700D02*
X52596000Y-99277700D01*
X52596000Y-99277700D02*
X52705000Y-99277700D01*
G04 #@! TO.N,Net-(SW2-Pad4)*
X50165000Y-100330000D02*
X50165000Y-99277700D01*
X34290000Y-54610000D02*
X34290000Y-55662300D01*
X34290000Y-55662300D02*
X34726200Y-56098500D01*
X34726200Y-56098500D02*
X34726200Y-82483900D01*
X34726200Y-82483900D02*
X43974800Y-91732500D01*
X43974800Y-91732500D02*
X43974800Y-93196500D01*
X43974800Y-93196500D02*
X50056000Y-99277700D01*
X50056000Y-99277700D02*
X50165000Y-99277700D01*
G04 #@! TO.N,Net-(SW2-Pad3)*
X31750000Y-54610000D02*
X31750000Y-55662300D01*
X31750000Y-55662300D02*
X34290000Y-58202300D01*
X34290000Y-58202300D02*
X34290000Y-82918700D01*
X34290000Y-82918700D02*
X43597400Y-92226100D01*
X43597400Y-92226100D02*
X43597400Y-94471700D01*
X43597400Y-94471700D02*
X47625000Y-98499300D01*
X47625000Y-98499300D02*
X47625000Y-100330000D01*
G04 #@! TO.N,Net-(SW2-Pad2)*
X29210000Y-54610000D02*
X29210000Y-55662300D01*
X29210000Y-55662300D02*
X33571600Y-60023900D01*
X33571600Y-60023900D02*
X33571600Y-85249800D01*
X33571600Y-85249800D02*
X45085000Y-96763200D01*
X45085000Y-96763200D02*
X45085000Y-100330000D01*
G04 #@! TO.N,Net-(SW2-Pad1)*
X26670000Y-54610000D02*
X26670000Y-55662300D01*
X26670000Y-55662300D02*
X33120200Y-62112500D01*
X33120200Y-62112500D02*
X33120200Y-85598800D01*
X33120200Y-85598800D02*
X42545000Y-95023600D01*
X42545000Y-95023600D02*
X42545000Y-100330000D01*
G04 #@! TD*
D22*
G04 #@! TO.N,GND*
G36*
X97470194Y-26153905D02*
X97099418Y-25906161D01*
X96666256Y-25820000D01*
X96373744Y-25820000D01*
X95940582Y-25906161D01*
X95449375Y-26234375D01*
X95250000Y-26532761D01*
X95050625Y-26234375D01*
X94559418Y-25906161D01*
X94126256Y-25820000D01*
X93833744Y-25820000D01*
X93400582Y-25906161D01*
X92909375Y-26234375D01*
X92710000Y-26532761D01*
X92510625Y-26234375D01*
X92019418Y-25906161D01*
X91586256Y-25820000D01*
X91293744Y-25820000D01*
X90860582Y-25906161D01*
X90369375Y-26234375D01*
X90170000Y-26532761D01*
X89970625Y-26234375D01*
X89479418Y-25906161D01*
X89046256Y-25820000D01*
X88753744Y-25820000D01*
X88320582Y-25906161D01*
X87829375Y-26234375D01*
X87630000Y-26532761D01*
X87430625Y-26234375D01*
X86939418Y-25906161D01*
X86506256Y-25820000D01*
X86213744Y-25820000D01*
X85780582Y-25906161D01*
X85368805Y-26181302D01*
X84462831Y-25275329D01*
X84420429Y-25211871D01*
X84169037Y-25043896D01*
X83947352Y-24999800D01*
X83947347Y-24999800D01*
X83872500Y-24984912D01*
X83797653Y-24999800D01*
X78768146Y-24999800D01*
X78693299Y-24984912D01*
X78618452Y-24999800D01*
X78618448Y-24999800D01*
X78396763Y-25043896D01*
X78145371Y-25211871D01*
X78102971Y-25275327D01*
X58704130Y-44674169D01*
X58640671Y-44716571D01*
X58472696Y-44967964D01*
X58428600Y-45189649D01*
X58428600Y-45189653D01*
X58413712Y-45264500D01*
X58428600Y-45339347D01*
X58428600Y-45720099D01*
X58134039Y-45598096D01*
X57912000Y-45720085D01*
X57912000Y-46863000D01*
X57932000Y-46863000D01*
X57932000Y-47117000D01*
X57912000Y-47117000D01*
X57912000Y-47137000D01*
X57658000Y-47137000D01*
X57658000Y-47117000D01*
X57638000Y-47117000D01*
X57638000Y-46863000D01*
X57658000Y-46863000D01*
X57658000Y-45720085D01*
X57435961Y-45598096D01*
X57408500Y-45609470D01*
X57408500Y-35743948D01*
X57423388Y-35669100D01*
X57408500Y-35594252D01*
X57408500Y-35594248D01*
X57364404Y-35372563D01*
X57364404Y-35372562D01*
X57238829Y-35184627D01*
X57196429Y-35121171D01*
X57132973Y-35078771D01*
X52011000Y-29956799D01*
X52011000Y-25677440D01*
X53605000Y-25677440D01*
X53852765Y-25628157D01*
X54062809Y-25487809D01*
X54203157Y-25277765D01*
X54206275Y-25262092D01*
X54375493Y-25431310D01*
X54790860Y-25603361D01*
X61186410Y-31998912D01*
X60878260Y-32460091D01*
X60766887Y-33020000D01*
X60878260Y-33579909D01*
X61195423Y-34054577D01*
X61670091Y-34371740D01*
X62088667Y-34455000D01*
X62371333Y-34455000D01*
X62789909Y-34371740D01*
X63264577Y-34054577D01*
X63581740Y-33579909D01*
X63693113Y-33020000D01*
X63581740Y-32460091D01*
X63264577Y-31985423D01*
X62969149Y-31788025D01*
X62945904Y-31671163D01*
X62945904Y-31671162D01*
X62820329Y-31483227D01*
X62777929Y-31419771D01*
X62714473Y-31377371D01*
X56441459Y-25104358D01*
X56546310Y-24999507D01*
X56780000Y-24435330D01*
X56780000Y-23824670D01*
X56546310Y-23260493D01*
X56114507Y-22828690D01*
X55550330Y-22595000D01*
X54939670Y-22595000D01*
X54375493Y-22828690D01*
X54206275Y-22997908D01*
X54203157Y-22982235D01*
X54062809Y-22772191D01*
X53852765Y-22631843D01*
X53605000Y-22582560D01*
X51805000Y-22582560D01*
X51557235Y-22631843D01*
X51347191Y-22772191D01*
X51206843Y-22982235D01*
X51195328Y-23040126D01*
X50644431Y-22489230D01*
X50602029Y-22425771D01*
X50350637Y-22257796D01*
X50128952Y-22213700D01*
X50128947Y-22213700D01*
X50054100Y-22198812D01*
X49979253Y-22213700D01*
X49085346Y-22213700D01*
X49010499Y-22198812D01*
X48935652Y-22213700D01*
X48935648Y-22213700D01*
X48713963Y-22257796D01*
X48462571Y-22425771D01*
X48420171Y-22489227D01*
X48221563Y-22687835D01*
X48137765Y-22631843D01*
X47890000Y-22582560D01*
X46090000Y-22582560D01*
X45842235Y-22631843D01*
X45632191Y-22772191D01*
X45491843Y-22982235D01*
X45442560Y-23230000D01*
X45442560Y-25030000D01*
X45491843Y-25277765D01*
X45632191Y-25487809D01*
X45842235Y-25628157D01*
X46090000Y-25677440D01*
X47890000Y-25677440D01*
X48137765Y-25628157D01*
X48347809Y-25487809D01*
X48488157Y-25277765D01*
X48491275Y-25262092D01*
X48660493Y-25431310D01*
X49189901Y-25650598D01*
X49189900Y-31187798D01*
X44575000Y-26572899D01*
X44575000Y-25476669D01*
X44684507Y-25431310D01*
X45116310Y-24999507D01*
X45350000Y-24435330D01*
X45350000Y-23824670D01*
X45116310Y-23260493D01*
X44684507Y-22828690D01*
X44120330Y-22595000D01*
X43509670Y-22595000D01*
X42945493Y-22828690D01*
X42776275Y-22997908D01*
X42773157Y-22982235D01*
X42632809Y-22772191D01*
X42422765Y-22631843D01*
X42175000Y-22582560D01*
X40375000Y-22582560D01*
X40127235Y-22631843D01*
X39917191Y-22772191D01*
X39776843Y-22982235D01*
X39727560Y-23230000D01*
X39727560Y-25030000D01*
X39776843Y-25277765D01*
X39917191Y-25487809D01*
X40127235Y-25628157D01*
X40375000Y-25677440D01*
X42175000Y-25677440D01*
X42422765Y-25628157D01*
X42632809Y-25487809D01*
X42773157Y-25277765D01*
X42776275Y-25262092D01*
X42945493Y-25431310D01*
X43055001Y-25476670D01*
X43055000Y-26812853D01*
X43040112Y-26887700D01*
X43055000Y-26962547D01*
X43055000Y-26962551D01*
X43099096Y-27184236D01*
X43267071Y-27435629D01*
X43330530Y-27478031D01*
X47851410Y-31998912D01*
X47543260Y-32460091D01*
X47431887Y-33020000D01*
X47543260Y-33579909D01*
X47860423Y-34054577D01*
X48335091Y-34371740D01*
X48753667Y-34455000D01*
X49036333Y-34455000D01*
X49169359Y-34428540D01*
X48410528Y-35187371D01*
X48347072Y-35229771D01*
X48304672Y-35293227D01*
X48304671Y-35293228D01*
X48179097Y-35481163D01*
X48155852Y-35598024D01*
X47860423Y-35795423D01*
X47543260Y-36270091D01*
X47431887Y-36830000D01*
X47543260Y-37389909D01*
X47860423Y-37864577D01*
X48123131Y-38040113D01*
X46533245Y-39630000D01*
X42963356Y-39630000D01*
X40170000Y-36836645D01*
X40170000Y-36544561D01*
X39951534Y-36017138D01*
X39547862Y-35613466D01*
X39020439Y-35395000D01*
X38449561Y-35395000D01*
X37922138Y-35613466D01*
X37518466Y-36017138D01*
X37300000Y-36544561D01*
X37300000Y-37115439D01*
X37518466Y-37642862D01*
X37922138Y-38046534D01*
X38449561Y-38265000D01*
X38741645Y-38265000D01*
X41535001Y-41058357D01*
X41535000Y-66259001D01*
X41510423Y-66275423D01*
X41193260Y-66750091D01*
X41081887Y-67310000D01*
X41193260Y-67869909D01*
X41459932Y-68269012D01*
X40598760Y-69130185D01*
X40514432Y-69186531D01*
X40458085Y-69270860D01*
X40458082Y-69270863D01*
X40327228Y-69466701D01*
X40291202Y-69520618D01*
X40241777Y-69769096D01*
X40212814Y-69914700D01*
X40232601Y-70014176D01*
X40232600Y-77305829D01*
X40212814Y-77405300D01*
X40232600Y-77504771D01*
X40232600Y-77504775D01*
X40291201Y-77799381D01*
X40364889Y-77909663D01*
X40450595Y-78037931D01*
X40514431Y-78133469D01*
X40598762Y-78189817D01*
X41459932Y-79050988D01*
X41193260Y-79450091D01*
X41081887Y-80010000D01*
X41193260Y-80569909D01*
X41510423Y-81044577D01*
X41985091Y-81361740D01*
X42403667Y-81445000D01*
X42686333Y-81445000D01*
X42837300Y-81414971D01*
X42837300Y-85210598D01*
X42060528Y-85987371D01*
X41997072Y-86029771D01*
X41954673Y-86093226D01*
X41954671Y-86093228D01*
X41894981Y-86182560D01*
X41745000Y-86182560D01*
X41497235Y-86231843D01*
X41287191Y-86372191D01*
X41146843Y-86582235D01*
X41097560Y-86830000D01*
X41097560Y-87144258D01*
X37590000Y-83636699D01*
X37590000Y-83517745D01*
X37906861Y-83517745D01*
X37980995Y-83763864D01*
X38518223Y-83956965D01*
X39088454Y-83929778D01*
X39489005Y-83763864D01*
X39563139Y-83517745D01*
X38735000Y-82689605D01*
X37906861Y-83517745D01*
X37590000Y-83517745D01*
X37590000Y-83296796D01*
X37727255Y-83338139D01*
X38555395Y-82510000D01*
X38914605Y-82510000D01*
X39742745Y-83338139D01*
X39988864Y-83264005D01*
X40181965Y-82726777D01*
X40154778Y-82156546D01*
X39988864Y-81755995D01*
X39742745Y-81681861D01*
X38914605Y-82510000D01*
X38555395Y-82510000D01*
X37727255Y-81681861D01*
X37590000Y-81723204D01*
X37590000Y-80894396D01*
X37922138Y-81226534D01*
X37987299Y-81253525D01*
X37980995Y-81256136D01*
X37906861Y-81502255D01*
X38735000Y-82330395D01*
X39563139Y-81502255D01*
X39489005Y-81256136D01*
X39482254Y-81253710D01*
X39547862Y-81226534D01*
X39951534Y-80822862D01*
X40170000Y-80295439D01*
X40170000Y-79724561D01*
X39951534Y-79197138D01*
X39547862Y-78793466D01*
X39020439Y-78575000D01*
X38449561Y-78575000D01*
X37922138Y-78793466D01*
X37590000Y-79125604D01*
X37590000Y-70817745D01*
X37906861Y-70817745D01*
X37980995Y-71063864D01*
X38518223Y-71256965D01*
X39088454Y-71229778D01*
X39489005Y-71063864D01*
X39563139Y-70817745D01*
X38735000Y-69989605D01*
X37906861Y-70817745D01*
X37590000Y-70817745D01*
X37590000Y-70596796D01*
X37727255Y-70638139D01*
X38555395Y-69810000D01*
X38914605Y-69810000D01*
X39742745Y-70638139D01*
X39988864Y-70564005D01*
X40181965Y-70026777D01*
X40154778Y-69456546D01*
X39988864Y-69055995D01*
X39742745Y-68981861D01*
X38914605Y-69810000D01*
X38555395Y-69810000D01*
X37727255Y-68981861D01*
X37590000Y-69023204D01*
X37590000Y-68194396D01*
X37922138Y-68526534D01*
X37987299Y-68553525D01*
X37980995Y-68556136D01*
X37906861Y-68802255D01*
X38735000Y-69630395D01*
X39563139Y-68802255D01*
X39489005Y-68556136D01*
X39482254Y-68553710D01*
X39547862Y-68526534D01*
X39951534Y-68122862D01*
X40170000Y-67595439D01*
X40170000Y-67024561D01*
X39951534Y-66497138D01*
X39547862Y-66093466D01*
X39020439Y-65875000D01*
X38449561Y-65875000D01*
X37922138Y-66093466D01*
X37590000Y-66425604D01*
X37590000Y-55828043D01*
X37864577Y-55644577D01*
X38100000Y-55292242D01*
X38335423Y-55644577D01*
X38810091Y-55961740D01*
X39228667Y-56045000D01*
X39511333Y-56045000D01*
X39929909Y-55961740D01*
X40404577Y-55644577D01*
X40721740Y-55169909D01*
X40833113Y-54610000D01*
X40721740Y-54050091D01*
X40404577Y-53575423D01*
X39929909Y-53258260D01*
X39511333Y-53175000D01*
X39228667Y-53175000D01*
X38810091Y-53258260D01*
X38335423Y-53575423D01*
X38100000Y-53927758D01*
X37864577Y-53575423D01*
X37389909Y-53258260D01*
X36971333Y-53175000D01*
X36688667Y-53175000D01*
X36270091Y-53258260D01*
X35795423Y-53575423D01*
X35560000Y-53927758D01*
X35324577Y-53575423D01*
X34849909Y-53258260D01*
X34431333Y-53175000D01*
X34148667Y-53175000D01*
X33730091Y-53258260D01*
X33255423Y-53575423D01*
X33020000Y-53927758D01*
X32784577Y-53575423D01*
X32309909Y-53258260D01*
X31891333Y-53175000D01*
X31608667Y-53175000D01*
X31190091Y-53258260D01*
X30715423Y-53575423D01*
X30480000Y-53927758D01*
X30244577Y-53575423D01*
X29769909Y-53258260D01*
X29351333Y-53175000D01*
X29068667Y-53175000D01*
X28650091Y-53258260D01*
X28175423Y-53575423D01*
X28094785Y-53696106D01*
X28068157Y-53562235D01*
X27927809Y-53352191D01*
X27717765Y-53211843D01*
X27470000Y-53162560D01*
X25870000Y-53162560D01*
X25622235Y-53211843D01*
X25412191Y-53352191D01*
X25271843Y-53562235D01*
X25222560Y-53810000D01*
X25222560Y-55410000D01*
X25271843Y-55657765D01*
X25412191Y-55867809D01*
X25622235Y-56008157D01*
X25870000Y-56057440D01*
X26019981Y-56057440D01*
X26071586Y-56134671D01*
X26122072Y-56210229D01*
X26185528Y-56252629D01*
X32360200Y-62427303D01*
X32360200Y-69675645D01*
X32185625Y-69414375D01*
X31694418Y-69086161D01*
X31261256Y-69000000D01*
X30968744Y-69000000D01*
X30535582Y-69086161D01*
X30446850Y-69145449D01*
X30199531Y-68898130D01*
X30157129Y-68834671D01*
X29905737Y-68666696D01*
X29684052Y-68622600D01*
X29684047Y-68622600D01*
X29609200Y-68607712D01*
X29534353Y-68622600D01*
X27691448Y-68622600D01*
X27616600Y-68607712D01*
X27541752Y-68622600D01*
X27541748Y-68622600D01*
X27320063Y-68666696D01*
X27068671Y-68834671D01*
X27026269Y-68898130D01*
X26944028Y-68980371D01*
X26880572Y-69022771D01*
X26838172Y-69086227D01*
X26838171Y-69086228D01*
X26712597Y-69274163D01*
X26653612Y-69570700D01*
X26668501Y-69645552D01*
X26668500Y-95042153D01*
X26653612Y-95117000D01*
X26668500Y-95191847D01*
X26668500Y-95191851D01*
X26712596Y-95413536D01*
X26880571Y-95664929D01*
X26944030Y-95707331D01*
X32659258Y-101422560D01*
X31545000Y-101422560D01*
X31297235Y-101471843D01*
X31087191Y-101612191D01*
X30946843Y-101822235D01*
X30900307Y-102056187D01*
X30852745Y-102041861D01*
X30024605Y-102870000D01*
X30852745Y-103698139D01*
X30900307Y-103683813D01*
X30946843Y-103917765D01*
X31087191Y-104127809D01*
X31297235Y-104268157D01*
X31335807Y-104275829D01*
X31393602Y-104566382D01*
X31560482Y-104816137D01*
X31560485Y-104816140D01*
X31616832Y-104900469D01*
X31701161Y-104956816D01*
X33280001Y-106535656D01*
X33280000Y-111009870D01*
X33234879Y-111054991D01*
X33045400Y-111512434D01*
X33045400Y-112007566D01*
X33115164Y-112175991D01*
X33020997Y-112238911D01*
X32926831Y-112301831D01*
X32870482Y-112386163D01*
X32836245Y-112420400D01*
X32772434Y-112420400D01*
X32314991Y-112609879D01*
X31964879Y-112959991D01*
X31775400Y-113417434D01*
X31775400Y-113912566D01*
X31964879Y-114370009D01*
X32314991Y-114720121D01*
X32772434Y-114909600D01*
X33267566Y-114909600D01*
X33396561Y-114856169D01*
X33420296Y-114879904D01*
X33193877Y-114930600D01*
X33032626Y-115398739D01*
X33062800Y-115892952D01*
X33193877Y-116209400D01*
X33420296Y-116260096D01*
X33393206Y-116287186D01*
X33191261Y-116217626D01*
X32697048Y-116247800D01*
X32380600Y-116378877D01*
X32329903Y-116605298D01*
X33020000Y-117295395D01*
X33034143Y-117281253D01*
X33213748Y-117460858D01*
X33199605Y-117475000D01*
X33889702Y-118165097D01*
X34116123Y-118114400D01*
X34277374Y-117646261D01*
X34247200Y-117152048D01*
X34116123Y-116835600D01*
X33889704Y-116784904D01*
X33916794Y-116757814D01*
X34118739Y-116827374D01*
X34612952Y-116797200D01*
X34676337Y-116770945D01*
X34690296Y-116784904D01*
X34463877Y-116835600D01*
X34302626Y-117303739D01*
X34332800Y-117797952D01*
X34463877Y-118114400D01*
X34690298Y-118165097D01*
X35380395Y-117475000D01*
X35366253Y-117460858D01*
X35545858Y-117281253D01*
X35560000Y-117295395D01*
X35574143Y-117281253D01*
X35753748Y-117460858D01*
X35739605Y-117475000D01*
X36429702Y-118165097D01*
X36656123Y-118114400D01*
X36817374Y-117646261D01*
X36787200Y-117152048D01*
X36656123Y-116835600D01*
X36429704Y-116784904D01*
X36456794Y-116757814D01*
X36658739Y-116827374D01*
X37152952Y-116797200D01*
X37216337Y-116770945D01*
X37230296Y-116784904D01*
X37003877Y-116835600D01*
X36842626Y-117303739D01*
X36872800Y-117797952D01*
X37003877Y-118114400D01*
X37230298Y-118165097D01*
X37920395Y-117475000D01*
X37906253Y-117460858D01*
X38085858Y-117281253D01*
X38100000Y-117295395D01*
X38114143Y-117281253D01*
X38293748Y-117460858D01*
X38279605Y-117475000D01*
X38969702Y-118165097D01*
X39196123Y-118114400D01*
X39357374Y-117646261D01*
X39327200Y-117152048D01*
X39196123Y-116835600D01*
X38969704Y-116784904D01*
X38993439Y-116761169D01*
X39122434Y-116814600D01*
X39566401Y-116814600D01*
X39395400Y-117227434D01*
X39395400Y-117722566D01*
X39584879Y-118180009D01*
X39934991Y-118530121D01*
X40392434Y-118719600D01*
X40887566Y-118719600D01*
X41345009Y-118530121D01*
X41600214Y-118274916D01*
X42549873Y-119224576D01*
X42592271Y-119288029D01*
X42595221Y-119290000D01*
X28652939Y-119290000D01*
X28753017Y-119102622D01*
X27305000Y-117654605D01*
X25856983Y-119102622D01*
X25957061Y-119290000D01*
X20710000Y-119290000D01*
X20710000Y-117053674D01*
X25006028Y-117053674D01*
X25019793Y-117965524D01*
X25342262Y-118744033D01*
X25677378Y-118923017D01*
X27125395Y-117475000D01*
X27484605Y-117475000D01*
X28932622Y-118923017D01*
X29267738Y-118744033D01*
X29426128Y-118344702D01*
X32329903Y-118344702D01*
X32380600Y-118571123D01*
X32848739Y-118732374D01*
X33342952Y-118702200D01*
X33659400Y-118571123D01*
X33710097Y-118344702D01*
X34869903Y-118344702D01*
X34920600Y-118571123D01*
X35388739Y-118732374D01*
X35882952Y-118702200D01*
X36199400Y-118571123D01*
X36250097Y-118344702D01*
X37409903Y-118344702D01*
X37460600Y-118571123D01*
X37928739Y-118732374D01*
X38422952Y-118702200D01*
X38739400Y-118571123D01*
X38790097Y-118344702D01*
X38100000Y-117654605D01*
X37409903Y-118344702D01*
X36250097Y-118344702D01*
X35560000Y-117654605D01*
X34869903Y-118344702D01*
X33710097Y-118344702D01*
X33020000Y-117654605D01*
X32329903Y-118344702D01*
X29426128Y-118344702D01*
X29603972Y-117896326D01*
X29595027Y-117303739D01*
X31762626Y-117303739D01*
X31792800Y-117797952D01*
X31923877Y-118114400D01*
X32150298Y-118165097D01*
X32840395Y-117475000D01*
X32150298Y-116784903D01*
X31923877Y-116835600D01*
X31762626Y-117303739D01*
X29595027Y-117303739D01*
X29590207Y-116984476D01*
X29267738Y-116205967D01*
X28932622Y-116026983D01*
X27484605Y-117475000D01*
X27125395Y-117475000D01*
X25677378Y-116026983D01*
X25342262Y-116205967D01*
X25006028Y-117053674D01*
X20710000Y-117053674D01*
X20710000Y-115847378D01*
X25856983Y-115847378D01*
X27305000Y-117295395D01*
X28753017Y-115847378D01*
X28574033Y-115512262D01*
X27726326Y-115176028D01*
X26814476Y-115189793D01*
X26035967Y-115512262D01*
X25856983Y-115847378D01*
X20710000Y-115847378D01*
X20710000Y-103877745D01*
X29016861Y-103877745D01*
X29090995Y-104123864D01*
X29628223Y-104316965D01*
X30198454Y-104289778D01*
X30599005Y-104123864D01*
X30673139Y-103877745D01*
X29845000Y-103049605D01*
X29016861Y-103877745D01*
X20710000Y-103877745D01*
X20710000Y-102653223D01*
X28398035Y-102653223D01*
X28425222Y-103223454D01*
X28591136Y-103624005D01*
X28837255Y-103698139D01*
X29665395Y-102870000D01*
X28837255Y-102041861D01*
X28591136Y-102115995D01*
X28398035Y-102653223D01*
X20710000Y-102653223D01*
X20710000Y-101862255D01*
X29016861Y-101862255D01*
X29845000Y-102690395D01*
X30673139Y-101862255D01*
X30599005Y-101616136D01*
X30061777Y-101423035D01*
X29491546Y-101450222D01*
X29090995Y-101616136D01*
X29016861Y-101862255D01*
X20710000Y-101862255D01*
X20710000Y-47339041D01*
X25278086Y-47339041D01*
X25517611Y-47845134D01*
X25932577Y-48221041D01*
X26320961Y-48381904D01*
X26543000Y-48259915D01*
X26543000Y-47117000D01*
X26797000Y-47117000D01*
X26797000Y-48259915D01*
X27019039Y-48381904D01*
X27407423Y-48221041D01*
X27822389Y-47845134D01*
X27940000Y-47596633D01*
X28057611Y-47845134D01*
X28472577Y-48221041D01*
X28860961Y-48381904D01*
X29083000Y-48259915D01*
X29083000Y-47117000D01*
X29337000Y-47117000D01*
X29337000Y-48259915D01*
X29559039Y-48381904D01*
X29947423Y-48221041D01*
X30362389Y-47845134D01*
X30480000Y-47596633D01*
X30597611Y-47845134D01*
X31012577Y-48221041D01*
X31400961Y-48381904D01*
X31623000Y-48259915D01*
X31623000Y-47117000D01*
X31877000Y-47117000D01*
X31877000Y-48259915D01*
X32099039Y-48381904D01*
X32487423Y-48221041D01*
X32902389Y-47845134D01*
X33020000Y-47596633D01*
X33137611Y-47845134D01*
X33552577Y-48221041D01*
X33940961Y-48381904D01*
X34163000Y-48259915D01*
X34163000Y-47117000D01*
X34417000Y-47117000D01*
X34417000Y-48259915D01*
X34639039Y-48381904D01*
X35027423Y-48221041D01*
X35442389Y-47845134D01*
X35560000Y-47596633D01*
X35677611Y-47845134D01*
X36092577Y-48221041D01*
X36480961Y-48381904D01*
X36703000Y-48259915D01*
X36703000Y-47117000D01*
X36957000Y-47117000D01*
X36957000Y-48259915D01*
X37179039Y-48381904D01*
X37567423Y-48221041D01*
X37982389Y-47845134D01*
X38100000Y-47596633D01*
X38217611Y-47845134D01*
X38632577Y-48221041D01*
X39020961Y-48381904D01*
X39243000Y-48259915D01*
X39243000Y-47117000D01*
X39497000Y-47117000D01*
X39497000Y-48259915D01*
X39719039Y-48381904D01*
X40107423Y-48221041D01*
X40522389Y-47845134D01*
X40761914Y-47339041D01*
X40640629Y-47117000D01*
X39497000Y-47117000D01*
X39243000Y-47117000D01*
X36957000Y-47117000D01*
X36703000Y-47117000D01*
X34417000Y-47117000D01*
X34163000Y-47117000D01*
X31877000Y-47117000D01*
X31623000Y-47117000D01*
X29337000Y-47117000D01*
X29083000Y-47117000D01*
X26797000Y-47117000D01*
X26543000Y-47117000D01*
X25399371Y-47117000D01*
X25278086Y-47339041D01*
X20710000Y-47339041D01*
X20710000Y-46640959D01*
X25278086Y-46640959D01*
X25399371Y-46863000D01*
X26543000Y-46863000D01*
X26543000Y-45720085D01*
X26797000Y-45720085D01*
X26797000Y-46863000D01*
X29083000Y-46863000D01*
X29083000Y-45720085D01*
X29337000Y-45720085D01*
X29337000Y-46863000D01*
X31623000Y-46863000D01*
X31623000Y-45720085D01*
X31877000Y-45720085D01*
X31877000Y-46863000D01*
X34163000Y-46863000D01*
X34163000Y-45720085D01*
X34417000Y-45720085D01*
X34417000Y-46863000D01*
X36703000Y-46863000D01*
X36703000Y-45720085D01*
X36957000Y-45720085D01*
X36957000Y-46863000D01*
X39243000Y-46863000D01*
X39243000Y-45720085D01*
X39497000Y-45720085D01*
X39497000Y-46863000D01*
X40640629Y-46863000D01*
X40761914Y-46640959D01*
X40522389Y-46134866D01*
X40107423Y-45758959D01*
X39719039Y-45598096D01*
X39497000Y-45720085D01*
X39243000Y-45720085D01*
X39020961Y-45598096D01*
X38632577Y-45758959D01*
X38217611Y-46134866D01*
X38100000Y-46383367D01*
X37982389Y-46134866D01*
X37567423Y-45758959D01*
X37179039Y-45598096D01*
X36957000Y-45720085D01*
X36703000Y-45720085D01*
X36480961Y-45598096D01*
X36092577Y-45758959D01*
X35677611Y-46134866D01*
X35560000Y-46383367D01*
X35442389Y-46134866D01*
X35027423Y-45758959D01*
X34639039Y-45598096D01*
X34417000Y-45720085D01*
X34163000Y-45720085D01*
X33940961Y-45598096D01*
X33552577Y-45758959D01*
X33137611Y-46134866D01*
X33020000Y-46383367D01*
X32902389Y-46134866D01*
X32487423Y-45758959D01*
X32099039Y-45598096D01*
X31877000Y-45720085D01*
X31623000Y-45720085D01*
X31400961Y-45598096D01*
X31012577Y-45758959D01*
X30597611Y-46134866D01*
X30480000Y-46383367D01*
X30362389Y-46134866D01*
X29947423Y-45758959D01*
X29559039Y-45598096D01*
X29337000Y-45720085D01*
X29083000Y-45720085D01*
X28860961Y-45598096D01*
X28472577Y-45758959D01*
X28057611Y-46134866D01*
X27940000Y-46383367D01*
X27822389Y-46134866D01*
X27407423Y-45758959D01*
X27019039Y-45598096D01*
X26797000Y-45720085D01*
X26543000Y-45720085D01*
X26320961Y-45598096D01*
X25932577Y-45758959D01*
X25517611Y-46134866D01*
X25278086Y-46640959D01*
X20710000Y-46640959D01*
X20710000Y-36544561D01*
X23965000Y-36544561D01*
X23965000Y-37115439D01*
X24183466Y-37642862D01*
X24587138Y-38046534D01*
X25114561Y-38265000D01*
X25685439Y-38265000D01*
X26212862Y-38046534D01*
X26616534Y-37642862D01*
X26835000Y-37115439D01*
X26835000Y-36544561D01*
X26616534Y-36017138D01*
X26212862Y-35613466D01*
X25685439Y-35395000D01*
X25114561Y-35395000D01*
X24587138Y-35613466D01*
X24183466Y-36017138D01*
X23965000Y-36544561D01*
X20710000Y-36544561D01*
X20710000Y-32734561D01*
X23965000Y-32734561D01*
X23965000Y-33305439D01*
X24183466Y-33832862D01*
X24587138Y-34236534D01*
X25114561Y-34455000D01*
X25685439Y-34455000D01*
X26212862Y-34236534D01*
X26616534Y-33832862D01*
X26835000Y-33305439D01*
X26835000Y-32734561D01*
X26616534Y-32207138D01*
X26212862Y-31803466D01*
X25685439Y-31585000D01*
X25114561Y-31585000D01*
X24587138Y-31803466D01*
X24183466Y-32207138D01*
X23965000Y-32734561D01*
X20710000Y-32734561D01*
X20710000Y-23230000D01*
X28297560Y-23230000D01*
X28297560Y-25030000D01*
X28346843Y-25277765D01*
X28487191Y-25487809D01*
X28697235Y-25628157D01*
X28945000Y-25677440D01*
X30745000Y-25677440D01*
X30992765Y-25628157D01*
X31202809Y-25487809D01*
X31343157Y-25277765D01*
X31346275Y-25262092D01*
X31515493Y-25431310D01*
X31625001Y-25476670D01*
X31625000Y-28717853D01*
X31610112Y-28792700D01*
X31625000Y-28867547D01*
X31625000Y-28867551D01*
X31669096Y-29089236D01*
X31837071Y-29340629D01*
X31900530Y-29383031D01*
X34516410Y-31998912D01*
X34208260Y-32460091D01*
X34096887Y-33020000D01*
X34208260Y-33579909D01*
X34525423Y-34054577D01*
X35000091Y-34371740D01*
X35418667Y-34455000D01*
X35701333Y-34455000D01*
X35834359Y-34428540D01*
X35075528Y-35187371D01*
X35012072Y-35229771D01*
X34969672Y-35293227D01*
X34969671Y-35293228D01*
X34844097Y-35481163D01*
X34820852Y-35598024D01*
X34525423Y-35795423D01*
X34208260Y-36270091D01*
X34096887Y-36830000D01*
X34208260Y-37389909D01*
X34525423Y-37864577D01*
X35000091Y-38181740D01*
X35418667Y-38265000D01*
X35701333Y-38265000D01*
X36119909Y-38181740D01*
X36594577Y-37864577D01*
X36911740Y-37389909D01*
X37023113Y-36830000D01*
X36911740Y-36270091D01*
X36603590Y-35808912D01*
X37096773Y-35315729D01*
X37160229Y-35273329D01*
X37328204Y-35021937D01*
X37372300Y-34800252D01*
X37372300Y-34800247D01*
X37387188Y-34725400D01*
X37372300Y-34650553D01*
X37372300Y-33479986D01*
X37518466Y-33832862D01*
X37922138Y-34236534D01*
X38449561Y-34455000D01*
X39020439Y-34455000D01*
X39547862Y-34236534D01*
X39951534Y-33832862D01*
X40170000Y-33305439D01*
X40170000Y-32734561D01*
X39951534Y-32207138D01*
X39547862Y-31803466D01*
X39020439Y-31585000D01*
X38449561Y-31585000D01*
X37922138Y-31803466D01*
X37518466Y-32207138D01*
X37372300Y-32560014D01*
X37372300Y-25932501D01*
X37685161Y-25619640D01*
X37794670Y-25665000D01*
X38405330Y-25665000D01*
X38969507Y-25431310D01*
X39401310Y-24999507D01*
X39635000Y-24435330D01*
X39635000Y-23824670D01*
X39401310Y-23260493D01*
X38969507Y-22828690D01*
X38405330Y-22595000D01*
X37794670Y-22595000D01*
X37230493Y-22828690D01*
X37061275Y-22997908D01*
X37058157Y-22982235D01*
X36917809Y-22772191D01*
X36707765Y-22631843D01*
X36460000Y-22582560D01*
X34660000Y-22582560D01*
X34412235Y-22631843D01*
X34202191Y-22772191D01*
X34061843Y-22982235D01*
X34012560Y-23230000D01*
X34012560Y-25030000D01*
X34061843Y-25277765D01*
X34202191Y-25487809D01*
X34412235Y-25628157D01*
X34660000Y-25677440D01*
X35849295Y-25677440D01*
X35852301Y-25692552D01*
X35852300Y-31185198D01*
X33145000Y-28477899D01*
X33145000Y-25476669D01*
X33254507Y-25431310D01*
X33686310Y-24999507D01*
X33920000Y-24435330D01*
X33920000Y-23824670D01*
X33686310Y-23260493D01*
X33254507Y-22828690D01*
X32690330Y-22595000D01*
X32079670Y-22595000D01*
X31515493Y-22828690D01*
X31346275Y-22997908D01*
X31343157Y-22982235D01*
X31202809Y-22772191D01*
X30992765Y-22631843D01*
X30745000Y-22582560D01*
X28945000Y-22582560D01*
X28697235Y-22631843D01*
X28487191Y-22772191D01*
X28346843Y-22982235D01*
X28297560Y-23230000D01*
X20710000Y-23230000D01*
X20710000Y-20710000D01*
X102914098Y-20710000D01*
X97470194Y-26153905D01*
X97470194Y-26153905D01*
G37*
X97470194Y-26153905D02*
X97099418Y-25906161D01*
X96666256Y-25820000D01*
X96373744Y-25820000D01*
X95940582Y-25906161D01*
X95449375Y-26234375D01*
X95250000Y-26532761D01*
X95050625Y-26234375D01*
X94559418Y-25906161D01*
X94126256Y-25820000D01*
X93833744Y-25820000D01*
X93400582Y-25906161D01*
X92909375Y-26234375D01*
X92710000Y-26532761D01*
X92510625Y-26234375D01*
X92019418Y-25906161D01*
X91586256Y-25820000D01*
X91293744Y-25820000D01*
X90860582Y-25906161D01*
X90369375Y-26234375D01*
X90170000Y-26532761D01*
X89970625Y-26234375D01*
X89479418Y-25906161D01*
X89046256Y-25820000D01*
X88753744Y-25820000D01*
X88320582Y-25906161D01*
X87829375Y-26234375D01*
X87630000Y-26532761D01*
X87430625Y-26234375D01*
X86939418Y-25906161D01*
X86506256Y-25820000D01*
X86213744Y-25820000D01*
X85780582Y-25906161D01*
X85368805Y-26181302D01*
X84462831Y-25275329D01*
X84420429Y-25211871D01*
X84169037Y-25043896D01*
X83947352Y-24999800D01*
X83947347Y-24999800D01*
X83872500Y-24984912D01*
X83797653Y-24999800D01*
X78768146Y-24999800D01*
X78693299Y-24984912D01*
X78618452Y-24999800D01*
X78618448Y-24999800D01*
X78396763Y-25043896D01*
X78145371Y-25211871D01*
X78102971Y-25275327D01*
X58704130Y-44674169D01*
X58640671Y-44716571D01*
X58472696Y-44967964D01*
X58428600Y-45189649D01*
X58428600Y-45189653D01*
X58413712Y-45264500D01*
X58428600Y-45339347D01*
X58428600Y-45720099D01*
X58134039Y-45598096D01*
X57912000Y-45720085D01*
X57912000Y-46863000D01*
X57932000Y-46863000D01*
X57932000Y-47117000D01*
X57912000Y-47117000D01*
X57912000Y-47137000D01*
X57658000Y-47137000D01*
X57658000Y-47117000D01*
X57638000Y-47117000D01*
X57638000Y-46863000D01*
X57658000Y-46863000D01*
X57658000Y-45720085D01*
X57435961Y-45598096D01*
X57408500Y-45609470D01*
X57408500Y-35743948D01*
X57423388Y-35669100D01*
X57408500Y-35594252D01*
X57408500Y-35594248D01*
X57364404Y-35372563D01*
X57364404Y-35372562D01*
X57238829Y-35184627D01*
X57196429Y-35121171D01*
X57132973Y-35078771D01*
X52011000Y-29956799D01*
X52011000Y-25677440D01*
X53605000Y-25677440D01*
X53852765Y-25628157D01*
X54062809Y-25487809D01*
X54203157Y-25277765D01*
X54206275Y-25262092D01*
X54375493Y-25431310D01*
X54790860Y-25603361D01*
X61186410Y-31998912D01*
X60878260Y-32460091D01*
X60766887Y-33020000D01*
X60878260Y-33579909D01*
X61195423Y-34054577D01*
X61670091Y-34371740D01*
X62088667Y-34455000D01*
X62371333Y-34455000D01*
X62789909Y-34371740D01*
X63264577Y-34054577D01*
X63581740Y-33579909D01*
X63693113Y-33020000D01*
X63581740Y-32460091D01*
X63264577Y-31985423D01*
X62969149Y-31788025D01*
X62945904Y-31671163D01*
X62945904Y-31671162D01*
X62820329Y-31483227D01*
X62777929Y-31419771D01*
X62714473Y-31377371D01*
X56441459Y-25104358D01*
X56546310Y-24999507D01*
X56780000Y-24435330D01*
X56780000Y-23824670D01*
X56546310Y-23260493D01*
X56114507Y-22828690D01*
X55550330Y-22595000D01*
X54939670Y-22595000D01*
X54375493Y-22828690D01*
X54206275Y-22997908D01*
X54203157Y-22982235D01*
X54062809Y-22772191D01*
X53852765Y-22631843D01*
X53605000Y-22582560D01*
X51805000Y-22582560D01*
X51557235Y-22631843D01*
X51347191Y-22772191D01*
X51206843Y-22982235D01*
X51195328Y-23040126D01*
X50644431Y-22489230D01*
X50602029Y-22425771D01*
X50350637Y-22257796D01*
X50128952Y-22213700D01*
X50128947Y-22213700D01*
X50054100Y-22198812D01*
X49979253Y-22213700D01*
X49085346Y-22213700D01*
X49010499Y-22198812D01*
X48935652Y-22213700D01*
X48935648Y-22213700D01*
X48713963Y-22257796D01*
X48462571Y-22425771D01*
X48420171Y-22489227D01*
X48221563Y-22687835D01*
X48137765Y-22631843D01*
X47890000Y-22582560D01*
X46090000Y-22582560D01*
X45842235Y-22631843D01*
X45632191Y-22772191D01*
X45491843Y-22982235D01*
X45442560Y-23230000D01*
X45442560Y-25030000D01*
X45491843Y-25277765D01*
X45632191Y-25487809D01*
X45842235Y-25628157D01*
X46090000Y-25677440D01*
X47890000Y-25677440D01*
X48137765Y-25628157D01*
X48347809Y-25487809D01*
X48488157Y-25277765D01*
X48491275Y-25262092D01*
X48660493Y-25431310D01*
X49189901Y-25650598D01*
X49189900Y-31187798D01*
X44575000Y-26572899D01*
X44575000Y-25476669D01*
X44684507Y-25431310D01*
X45116310Y-24999507D01*
X45350000Y-24435330D01*
X45350000Y-23824670D01*
X45116310Y-23260493D01*
X44684507Y-22828690D01*
X44120330Y-22595000D01*
X43509670Y-22595000D01*
X42945493Y-22828690D01*
X42776275Y-22997908D01*
X42773157Y-22982235D01*
X42632809Y-22772191D01*
X42422765Y-22631843D01*
X42175000Y-22582560D01*
X40375000Y-22582560D01*
X40127235Y-22631843D01*
X39917191Y-22772191D01*
X39776843Y-22982235D01*
X39727560Y-23230000D01*
X39727560Y-25030000D01*
X39776843Y-25277765D01*
X39917191Y-25487809D01*
X40127235Y-25628157D01*
X40375000Y-25677440D01*
X42175000Y-25677440D01*
X42422765Y-25628157D01*
X42632809Y-25487809D01*
X42773157Y-25277765D01*
X42776275Y-25262092D01*
X42945493Y-25431310D01*
X43055001Y-25476670D01*
X43055000Y-26812853D01*
X43040112Y-26887700D01*
X43055000Y-26962547D01*
X43055000Y-26962551D01*
X43099096Y-27184236D01*
X43267071Y-27435629D01*
X43330530Y-27478031D01*
X47851410Y-31998912D01*
X47543260Y-32460091D01*
X47431887Y-33020000D01*
X47543260Y-33579909D01*
X47860423Y-34054577D01*
X48335091Y-34371740D01*
X48753667Y-34455000D01*
X49036333Y-34455000D01*
X49169359Y-34428540D01*
X48410528Y-35187371D01*
X48347072Y-35229771D01*
X48304672Y-35293227D01*
X48304671Y-35293228D01*
X48179097Y-35481163D01*
X48155852Y-35598024D01*
X47860423Y-35795423D01*
X47543260Y-36270091D01*
X47431887Y-36830000D01*
X47543260Y-37389909D01*
X47860423Y-37864577D01*
X48123131Y-38040113D01*
X46533245Y-39630000D01*
X42963356Y-39630000D01*
X40170000Y-36836645D01*
X40170000Y-36544561D01*
X39951534Y-36017138D01*
X39547862Y-35613466D01*
X39020439Y-35395000D01*
X38449561Y-35395000D01*
X37922138Y-35613466D01*
X37518466Y-36017138D01*
X37300000Y-36544561D01*
X37300000Y-37115439D01*
X37518466Y-37642862D01*
X37922138Y-38046534D01*
X38449561Y-38265000D01*
X38741645Y-38265000D01*
X41535001Y-41058357D01*
X41535000Y-66259001D01*
X41510423Y-66275423D01*
X41193260Y-66750091D01*
X41081887Y-67310000D01*
X41193260Y-67869909D01*
X41459932Y-68269012D01*
X40598760Y-69130185D01*
X40514432Y-69186531D01*
X40458085Y-69270860D01*
X40458082Y-69270863D01*
X40327228Y-69466701D01*
X40291202Y-69520618D01*
X40241777Y-69769096D01*
X40212814Y-69914700D01*
X40232601Y-70014176D01*
X40232600Y-77305829D01*
X40212814Y-77405300D01*
X40232600Y-77504771D01*
X40232600Y-77504775D01*
X40291201Y-77799381D01*
X40364889Y-77909663D01*
X40450595Y-78037931D01*
X40514431Y-78133469D01*
X40598762Y-78189817D01*
X41459932Y-79050988D01*
X41193260Y-79450091D01*
X41081887Y-80010000D01*
X41193260Y-80569909D01*
X41510423Y-81044577D01*
X41985091Y-81361740D01*
X42403667Y-81445000D01*
X42686333Y-81445000D01*
X42837300Y-81414971D01*
X42837300Y-85210598D01*
X42060528Y-85987371D01*
X41997072Y-86029771D01*
X41954673Y-86093226D01*
X41954671Y-86093228D01*
X41894981Y-86182560D01*
X41745000Y-86182560D01*
X41497235Y-86231843D01*
X41287191Y-86372191D01*
X41146843Y-86582235D01*
X41097560Y-86830000D01*
X41097560Y-87144258D01*
X37590000Y-83636699D01*
X37590000Y-83517745D01*
X37906861Y-83517745D01*
X37980995Y-83763864D01*
X38518223Y-83956965D01*
X39088454Y-83929778D01*
X39489005Y-83763864D01*
X39563139Y-83517745D01*
X38735000Y-82689605D01*
X37906861Y-83517745D01*
X37590000Y-83517745D01*
X37590000Y-83296796D01*
X37727255Y-83338139D01*
X38555395Y-82510000D01*
X38914605Y-82510000D01*
X39742745Y-83338139D01*
X39988864Y-83264005D01*
X40181965Y-82726777D01*
X40154778Y-82156546D01*
X39988864Y-81755995D01*
X39742745Y-81681861D01*
X38914605Y-82510000D01*
X38555395Y-82510000D01*
X37727255Y-81681861D01*
X37590000Y-81723204D01*
X37590000Y-80894396D01*
X37922138Y-81226534D01*
X37987299Y-81253525D01*
X37980995Y-81256136D01*
X37906861Y-81502255D01*
X38735000Y-82330395D01*
X39563139Y-81502255D01*
X39489005Y-81256136D01*
X39482254Y-81253710D01*
X39547862Y-81226534D01*
X39951534Y-80822862D01*
X40170000Y-80295439D01*
X40170000Y-79724561D01*
X39951534Y-79197138D01*
X39547862Y-78793466D01*
X39020439Y-78575000D01*
X38449561Y-78575000D01*
X37922138Y-78793466D01*
X37590000Y-79125604D01*
X37590000Y-70817745D01*
X37906861Y-70817745D01*
X37980995Y-71063864D01*
X38518223Y-71256965D01*
X39088454Y-71229778D01*
X39489005Y-71063864D01*
X39563139Y-70817745D01*
X38735000Y-69989605D01*
X37906861Y-70817745D01*
X37590000Y-70817745D01*
X37590000Y-70596796D01*
X37727255Y-70638139D01*
X38555395Y-69810000D01*
X38914605Y-69810000D01*
X39742745Y-70638139D01*
X39988864Y-70564005D01*
X40181965Y-70026777D01*
X40154778Y-69456546D01*
X39988864Y-69055995D01*
X39742745Y-68981861D01*
X38914605Y-69810000D01*
X38555395Y-69810000D01*
X37727255Y-68981861D01*
X37590000Y-69023204D01*
X37590000Y-68194396D01*
X37922138Y-68526534D01*
X37987299Y-68553525D01*
X37980995Y-68556136D01*
X37906861Y-68802255D01*
X38735000Y-69630395D01*
X39563139Y-68802255D01*
X39489005Y-68556136D01*
X39482254Y-68553710D01*
X39547862Y-68526534D01*
X39951534Y-68122862D01*
X40170000Y-67595439D01*
X40170000Y-67024561D01*
X39951534Y-66497138D01*
X39547862Y-66093466D01*
X39020439Y-65875000D01*
X38449561Y-65875000D01*
X37922138Y-66093466D01*
X37590000Y-66425604D01*
X37590000Y-55828043D01*
X37864577Y-55644577D01*
X38100000Y-55292242D01*
X38335423Y-55644577D01*
X38810091Y-55961740D01*
X39228667Y-56045000D01*
X39511333Y-56045000D01*
X39929909Y-55961740D01*
X40404577Y-55644577D01*
X40721740Y-55169909D01*
X40833113Y-54610000D01*
X40721740Y-54050091D01*
X40404577Y-53575423D01*
X39929909Y-53258260D01*
X39511333Y-53175000D01*
X39228667Y-53175000D01*
X38810091Y-53258260D01*
X38335423Y-53575423D01*
X38100000Y-53927758D01*
X37864577Y-53575423D01*
X37389909Y-53258260D01*
X36971333Y-53175000D01*
X36688667Y-53175000D01*
X36270091Y-53258260D01*
X35795423Y-53575423D01*
X35560000Y-53927758D01*
X35324577Y-53575423D01*
X34849909Y-53258260D01*
X34431333Y-53175000D01*
X34148667Y-53175000D01*
X33730091Y-53258260D01*
X33255423Y-53575423D01*
X33020000Y-53927758D01*
X32784577Y-53575423D01*
X32309909Y-53258260D01*
X31891333Y-53175000D01*
X31608667Y-53175000D01*
X31190091Y-53258260D01*
X30715423Y-53575423D01*
X30480000Y-53927758D01*
X30244577Y-53575423D01*
X29769909Y-53258260D01*
X29351333Y-53175000D01*
X29068667Y-53175000D01*
X28650091Y-53258260D01*
X28175423Y-53575423D01*
X28094785Y-53696106D01*
X28068157Y-53562235D01*
X27927809Y-53352191D01*
X27717765Y-53211843D01*
X27470000Y-53162560D01*
X25870000Y-53162560D01*
X25622235Y-53211843D01*
X25412191Y-53352191D01*
X25271843Y-53562235D01*
X25222560Y-53810000D01*
X25222560Y-55410000D01*
X25271843Y-55657765D01*
X25412191Y-55867809D01*
X25622235Y-56008157D01*
X25870000Y-56057440D01*
X26019981Y-56057440D01*
X26071586Y-56134671D01*
X26122072Y-56210229D01*
X26185528Y-56252629D01*
X32360200Y-62427303D01*
X32360200Y-69675645D01*
X32185625Y-69414375D01*
X31694418Y-69086161D01*
X31261256Y-69000000D01*
X30968744Y-69000000D01*
X30535582Y-69086161D01*
X30446850Y-69145449D01*
X30199531Y-68898130D01*
X30157129Y-68834671D01*
X29905737Y-68666696D01*
X29684052Y-68622600D01*
X29684047Y-68622600D01*
X29609200Y-68607712D01*
X29534353Y-68622600D01*
X27691448Y-68622600D01*
X27616600Y-68607712D01*
X27541752Y-68622600D01*
X27541748Y-68622600D01*
X27320063Y-68666696D01*
X27068671Y-68834671D01*
X27026269Y-68898130D01*
X26944028Y-68980371D01*
X26880572Y-69022771D01*
X26838172Y-69086227D01*
X26838171Y-69086228D01*
X26712597Y-69274163D01*
X26653612Y-69570700D01*
X26668501Y-69645552D01*
X26668500Y-95042153D01*
X26653612Y-95117000D01*
X26668500Y-95191847D01*
X26668500Y-95191851D01*
X26712596Y-95413536D01*
X26880571Y-95664929D01*
X26944030Y-95707331D01*
X32659258Y-101422560D01*
X31545000Y-101422560D01*
X31297235Y-101471843D01*
X31087191Y-101612191D01*
X30946843Y-101822235D01*
X30900307Y-102056187D01*
X30852745Y-102041861D01*
X30024605Y-102870000D01*
X30852745Y-103698139D01*
X30900307Y-103683813D01*
X30946843Y-103917765D01*
X31087191Y-104127809D01*
X31297235Y-104268157D01*
X31335807Y-104275829D01*
X31393602Y-104566382D01*
X31560482Y-104816137D01*
X31560485Y-104816140D01*
X31616832Y-104900469D01*
X31701161Y-104956816D01*
X33280001Y-106535656D01*
X33280000Y-111009870D01*
X33234879Y-111054991D01*
X33045400Y-111512434D01*
X33045400Y-112007566D01*
X33115164Y-112175991D01*
X33020997Y-112238911D01*
X32926831Y-112301831D01*
X32870482Y-112386163D01*
X32836245Y-112420400D01*
X32772434Y-112420400D01*
X32314991Y-112609879D01*
X31964879Y-112959991D01*
X31775400Y-113417434D01*
X31775400Y-113912566D01*
X31964879Y-114370009D01*
X32314991Y-114720121D01*
X32772434Y-114909600D01*
X33267566Y-114909600D01*
X33396561Y-114856169D01*
X33420296Y-114879904D01*
X33193877Y-114930600D01*
X33032626Y-115398739D01*
X33062800Y-115892952D01*
X33193877Y-116209400D01*
X33420296Y-116260096D01*
X33393206Y-116287186D01*
X33191261Y-116217626D01*
X32697048Y-116247800D01*
X32380600Y-116378877D01*
X32329903Y-116605298D01*
X33020000Y-117295395D01*
X33034143Y-117281253D01*
X33213748Y-117460858D01*
X33199605Y-117475000D01*
X33889702Y-118165097D01*
X34116123Y-118114400D01*
X34277374Y-117646261D01*
X34247200Y-117152048D01*
X34116123Y-116835600D01*
X33889704Y-116784904D01*
X33916794Y-116757814D01*
X34118739Y-116827374D01*
X34612952Y-116797200D01*
X34676337Y-116770945D01*
X34690296Y-116784904D01*
X34463877Y-116835600D01*
X34302626Y-117303739D01*
X34332800Y-117797952D01*
X34463877Y-118114400D01*
X34690298Y-118165097D01*
X35380395Y-117475000D01*
X35366253Y-117460858D01*
X35545858Y-117281253D01*
X35560000Y-117295395D01*
X35574143Y-117281253D01*
X35753748Y-117460858D01*
X35739605Y-117475000D01*
X36429702Y-118165097D01*
X36656123Y-118114400D01*
X36817374Y-117646261D01*
X36787200Y-117152048D01*
X36656123Y-116835600D01*
X36429704Y-116784904D01*
X36456794Y-116757814D01*
X36658739Y-116827374D01*
X37152952Y-116797200D01*
X37216337Y-116770945D01*
X37230296Y-116784904D01*
X37003877Y-116835600D01*
X36842626Y-117303739D01*
X36872800Y-117797952D01*
X37003877Y-118114400D01*
X37230298Y-118165097D01*
X37920395Y-117475000D01*
X37906253Y-117460858D01*
X38085858Y-117281253D01*
X38100000Y-117295395D01*
X38114143Y-117281253D01*
X38293748Y-117460858D01*
X38279605Y-117475000D01*
X38969702Y-118165097D01*
X39196123Y-118114400D01*
X39357374Y-117646261D01*
X39327200Y-117152048D01*
X39196123Y-116835600D01*
X38969704Y-116784904D01*
X38993439Y-116761169D01*
X39122434Y-116814600D01*
X39566401Y-116814600D01*
X39395400Y-117227434D01*
X39395400Y-117722566D01*
X39584879Y-118180009D01*
X39934991Y-118530121D01*
X40392434Y-118719600D01*
X40887566Y-118719600D01*
X41345009Y-118530121D01*
X41600214Y-118274916D01*
X42549873Y-119224576D01*
X42592271Y-119288029D01*
X42595221Y-119290000D01*
X28652939Y-119290000D01*
X28753017Y-119102622D01*
X27305000Y-117654605D01*
X25856983Y-119102622D01*
X25957061Y-119290000D01*
X20710000Y-119290000D01*
X20710000Y-117053674D01*
X25006028Y-117053674D01*
X25019793Y-117965524D01*
X25342262Y-118744033D01*
X25677378Y-118923017D01*
X27125395Y-117475000D01*
X27484605Y-117475000D01*
X28932622Y-118923017D01*
X29267738Y-118744033D01*
X29426128Y-118344702D01*
X32329903Y-118344702D01*
X32380600Y-118571123D01*
X32848739Y-118732374D01*
X33342952Y-118702200D01*
X33659400Y-118571123D01*
X33710097Y-118344702D01*
X34869903Y-118344702D01*
X34920600Y-118571123D01*
X35388739Y-118732374D01*
X35882952Y-118702200D01*
X36199400Y-118571123D01*
X36250097Y-118344702D01*
X37409903Y-118344702D01*
X37460600Y-118571123D01*
X37928739Y-118732374D01*
X38422952Y-118702200D01*
X38739400Y-118571123D01*
X38790097Y-118344702D01*
X38100000Y-117654605D01*
X37409903Y-118344702D01*
X36250097Y-118344702D01*
X35560000Y-117654605D01*
X34869903Y-118344702D01*
X33710097Y-118344702D01*
X33020000Y-117654605D01*
X32329903Y-118344702D01*
X29426128Y-118344702D01*
X29603972Y-117896326D01*
X29595027Y-117303739D01*
X31762626Y-117303739D01*
X31792800Y-117797952D01*
X31923877Y-118114400D01*
X32150298Y-118165097D01*
X32840395Y-117475000D01*
X32150298Y-116784903D01*
X31923877Y-116835600D01*
X31762626Y-117303739D01*
X29595027Y-117303739D01*
X29590207Y-116984476D01*
X29267738Y-116205967D01*
X28932622Y-116026983D01*
X27484605Y-117475000D01*
X27125395Y-117475000D01*
X25677378Y-116026983D01*
X25342262Y-116205967D01*
X25006028Y-117053674D01*
X20710000Y-117053674D01*
X20710000Y-115847378D01*
X25856983Y-115847378D01*
X27305000Y-117295395D01*
X28753017Y-115847378D01*
X28574033Y-115512262D01*
X27726326Y-115176028D01*
X26814476Y-115189793D01*
X26035967Y-115512262D01*
X25856983Y-115847378D01*
X20710000Y-115847378D01*
X20710000Y-103877745D01*
X29016861Y-103877745D01*
X29090995Y-104123864D01*
X29628223Y-104316965D01*
X30198454Y-104289778D01*
X30599005Y-104123864D01*
X30673139Y-103877745D01*
X29845000Y-103049605D01*
X29016861Y-103877745D01*
X20710000Y-103877745D01*
X20710000Y-102653223D01*
X28398035Y-102653223D01*
X28425222Y-103223454D01*
X28591136Y-103624005D01*
X28837255Y-103698139D01*
X29665395Y-102870000D01*
X28837255Y-102041861D01*
X28591136Y-102115995D01*
X28398035Y-102653223D01*
X20710000Y-102653223D01*
X20710000Y-101862255D01*
X29016861Y-101862255D01*
X29845000Y-102690395D01*
X30673139Y-101862255D01*
X30599005Y-101616136D01*
X30061777Y-101423035D01*
X29491546Y-101450222D01*
X29090995Y-101616136D01*
X29016861Y-101862255D01*
X20710000Y-101862255D01*
X20710000Y-47339041D01*
X25278086Y-47339041D01*
X25517611Y-47845134D01*
X25932577Y-48221041D01*
X26320961Y-48381904D01*
X26543000Y-48259915D01*
X26543000Y-47117000D01*
X26797000Y-47117000D01*
X26797000Y-48259915D01*
X27019039Y-48381904D01*
X27407423Y-48221041D01*
X27822389Y-47845134D01*
X27940000Y-47596633D01*
X28057611Y-47845134D01*
X28472577Y-48221041D01*
X28860961Y-48381904D01*
X29083000Y-48259915D01*
X29083000Y-47117000D01*
X29337000Y-47117000D01*
X29337000Y-48259915D01*
X29559039Y-48381904D01*
X29947423Y-48221041D01*
X30362389Y-47845134D01*
X30480000Y-47596633D01*
X30597611Y-47845134D01*
X31012577Y-48221041D01*
X31400961Y-48381904D01*
X31623000Y-48259915D01*
X31623000Y-47117000D01*
X31877000Y-47117000D01*
X31877000Y-48259915D01*
X32099039Y-48381904D01*
X32487423Y-48221041D01*
X32902389Y-47845134D01*
X33020000Y-47596633D01*
X33137611Y-47845134D01*
X33552577Y-48221041D01*
X33940961Y-48381904D01*
X34163000Y-48259915D01*
X34163000Y-47117000D01*
X34417000Y-47117000D01*
X34417000Y-48259915D01*
X34639039Y-48381904D01*
X35027423Y-48221041D01*
X35442389Y-47845134D01*
X35560000Y-47596633D01*
X35677611Y-47845134D01*
X36092577Y-48221041D01*
X36480961Y-48381904D01*
X36703000Y-48259915D01*
X36703000Y-47117000D01*
X36957000Y-47117000D01*
X36957000Y-48259915D01*
X37179039Y-48381904D01*
X37567423Y-48221041D01*
X37982389Y-47845134D01*
X38100000Y-47596633D01*
X38217611Y-47845134D01*
X38632577Y-48221041D01*
X39020961Y-48381904D01*
X39243000Y-48259915D01*
X39243000Y-47117000D01*
X39497000Y-47117000D01*
X39497000Y-48259915D01*
X39719039Y-48381904D01*
X40107423Y-48221041D01*
X40522389Y-47845134D01*
X40761914Y-47339041D01*
X40640629Y-47117000D01*
X39497000Y-47117000D01*
X39243000Y-47117000D01*
X36957000Y-47117000D01*
X36703000Y-47117000D01*
X34417000Y-47117000D01*
X34163000Y-47117000D01*
X31877000Y-47117000D01*
X31623000Y-47117000D01*
X29337000Y-47117000D01*
X29083000Y-47117000D01*
X26797000Y-47117000D01*
X26543000Y-47117000D01*
X25399371Y-47117000D01*
X25278086Y-47339041D01*
X20710000Y-47339041D01*
X20710000Y-46640959D01*
X25278086Y-46640959D01*
X25399371Y-46863000D01*
X26543000Y-46863000D01*
X26543000Y-45720085D01*
X26797000Y-45720085D01*
X26797000Y-46863000D01*
X29083000Y-46863000D01*
X29083000Y-45720085D01*
X29337000Y-45720085D01*
X29337000Y-46863000D01*
X31623000Y-46863000D01*
X31623000Y-45720085D01*
X31877000Y-45720085D01*
X31877000Y-46863000D01*
X34163000Y-46863000D01*
X34163000Y-45720085D01*
X34417000Y-45720085D01*
X34417000Y-46863000D01*
X36703000Y-46863000D01*
X36703000Y-45720085D01*
X36957000Y-45720085D01*
X36957000Y-46863000D01*
X39243000Y-46863000D01*
X39243000Y-45720085D01*
X39497000Y-45720085D01*
X39497000Y-46863000D01*
X40640629Y-46863000D01*
X40761914Y-46640959D01*
X40522389Y-46134866D01*
X40107423Y-45758959D01*
X39719039Y-45598096D01*
X39497000Y-45720085D01*
X39243000Y-45720085D01*
X39020961Y-45598096D01*
X38632577Y-45758959D01*
X38217611Y-46134866D01*
X38100000Y-46383367D01*
X37982389Y-46134866D01*
X37567423Y-45758959D01*
X37179039Y-45598096D01*
X36957000Y-45720085D01*
X36703000Y-45720085D01*
X36480961Y-45598096D01*
X36092577Y-45758959D01*
X35677611Y-46134866D01*
X35560000Y-46383367D01*
X35442389Y-46134866D01*
X35027423Y-45758959D01*
X34639039Y-45598096D01*
X34417000Y-45720085D01*
X34163000Y-45720085D01*
X33940961Y-45598096D01*
X33552577Y-45758959D01*
X33137611Y-46134866D01*
X33020000Y-46383367D01*
X32902389Y-46134866D01*
X32487423Y-45758959D01*
X32099039Y-45598096D01*
X31877000Y-45720085D01*
X31623000Y-45720085D01*
X31400961Y-45598096D01*
X31012577Y-45758959D01*
X30597611Y-46134866D01*
X30480000Y-46383367D01*
X30362389Y-46134866D01*
X29947423Y-45758959D01*
X29559039Y-45598096D01*
X29337000Y-45720085D01*
X29083000Y-45720085D01*
X28860961Y-45598096D01*
X28472577Y-45758959D01*
X28057611Y-46134866D01*
X27940000Y-46383367D01*
X27822389Y-46134866D01*
X27407423Y-45758959D01*
X27019039Y-45598096D01*
X26797000Y-45720085D01*
X26543000Y-45720085D01*
X26320961Y-45598096D01*
X25932577Y-45758959D01*
X25517611Y-46134866D01*
X25278086Y-46640959D01*
X20710000Y-46640959D01*
X20710000Y-36544561D01*
X23965000Y-36544561D01*
X23965000Y-37115439D01*
X24183466Y-37642862D01*
X24587138Y-38046534D01*
X25114561Y-38265000D01*
X25685439Y-38265000D01*
X26212862Y-38046534D01*
X26616534Y-37642862D01*
X26835000Y-37115439D01*
X26835000Y-36544561D01*
X26616534Y-36017138D01*
X26212862Y-35613466D01*
X25685439Y-35395000D01*
X25114561Y-35395000D01*
X24587138Y-35613466D01*
X24183466Y-36017138D01*
X23965000Y-36544561D01*
X20710000Y-36544561D01*
X20710000Y-32734561D01*
X23965000Y-32734561D01*
X23965000Y-33305439D01*
X24183466Y-33832862D01*
X24587138Y-34236534D01*
X25114561Y-34455000D01*
X25685439Y-34455000D01*
X26212862Y-34236534D01*
X26616534Y-33832862D01*
X26835000Y-33305439D01*
X26835000Y-32734561D01*
X26616534Y-32207138D01*
X26212862Y-31803466D01*
X25685439Y-31585000D01*
X25114561Y-31585000D01*
X24587138Y-31803466D01*
X24183466Y-32207138D01*
X23965000Y-32734561D01*
X20710000Y-32734561D01*
X20710000Y-23230000D01*
X28297560Y-23230000D01*
X28297560Y-25030000D01*
X28346843Y-25277765D01*
X28487191Y-25487809D01*
X28697235Y-25628157D01*
X28945000Y-25677440D01*
X30745000Y-25677440D01*
X30992765Y-25628157D01*
X31202809Y-25487809D01*
X31343157Y-25277765D01*
X31346275Y-25262092D01*
X31515493Y-25431310D01*
X31625001Y-25476670D01*
X31625000Y-28717853D01*
X31610112Y-28792700D01*
X31625000Y-28867547D01*
X31625000Y-28867551D01*
X31669096Y-29089236D01*
X31837071Y-29340629D01*
X31900530Y-29383031D01*
X34516410Y-31998912D01*
X34208260Y-32460091D01*
X34096887Y-33020000D01*
X34208260Y-33579909D01*
X34525423Y-34054577D01*
X35000091Y-34371740D01*
X35418667Y-34455000D01*
X35701333Y-34455000D01*
X35834359Y-34428540D01*
X35075528Y-35187371D01*
X35012072Y-35229771D01*
X34969672Y-35293227D01*
X34969671Y-35293228D01*
X34844097Y-35481163D01*
X34820852Y-35598024D01*
X34525423Y-35795423D01*
X34208260Y-36270091D01*
X34096887Y-36830000D01*
X34208260Y-37389909D01*
X34525423Y-37864577D01*
X35000091Y-38181740D01*
X35418667Y-38265000D01*
X35701333Y-38265000D01*
X36119909Y-38181740D01*
X36594577Y-37864577D01*
X36911740Y-37389909D01*
X37023113Y-36830000D01*
X36911740Y-36270091D01*
X36603590Y-35808912D01*
X37096773Y-35315729D01*
X37160229Y-35273329D01*
X37328204Y-35021937D01*
X37372300Y-34800252D01*
X37372300Y-34800247D01*
X37387188Y-34725400D01*
X37372300Y-34650553D01*
X37372300Y-33479986D01*
X37518466Y-33832862D01*
X37922138Y-34236534D01*
X38449561Y-34455000D01*
X39020439Y-34455000D01*
X39547862Y-34236534D01*
X39951534Y-33832862D01*
X40170000Y-33305439D01*
X40170000Y-32734561D01*
X39951534Y-32207138D01*
X39547862Y-31803466D01*
X39020439Y-31585000D01*
X38449561Y-31585000D01*
X37922138Y-31803466D01*
X37518466Y-32207138D01*
X37372300Y-32560014D01*
X37372300Y-25932501D01*
X37685161Y-25619640D01*
X37794670Y-25665000D01*
X38405330Y-25665000D01*
X38969507Y-25431310D01*
X39401310Y-24999507D01*
X39635000Y-24435330D01*
X39635000Y-23824670D01*
X39401310Y-23260493D01*
X38969507Y-22828690D01*
X38405330Y-22595000D01*
X37794670Y-22595000D01*
X37230493Y-22828690D01*
X37061275Y-22997908D01*
X37058157Y-22982235D01*
X36917809Y-22772191D01*
X36707765Y-22631843D01*
X36460000Y-22582560D01*
X34660000Y-22582560D01*
X34412235Y-22631843D01*
X34202191Y-22772191D01*
X34061843Y-22982235D01*
X34012560Y-23230000D01*
X34012560Y-25030000D01*
X34061843Y-25277765D01*
X34202191Y-25487809D01*
X34412235Y-25628157D01*
X34660000Y-25677440D01*
X35849295Y-25677440D01*
X35852301Y-25692552D01*
X35852300Y-31185198D01*
X33145000Y-28477899D01*
X33145000Y-25476669D01*
X33254507Y-25431310D01*
X33686310Y-24999507D01*
X33920000Y-24435330D01*
X33920000Y-23824670D01*
X33686310Y-23260493D01*
X33254507Y-22828690D01*
X32690330Y-22595000D01*
X32079670Y-22595000D01*
X31515493Y-22828690D01*
X31346275Y-22997908D01*
X31343157Y-22982235D01*
X31202809Y-22772191D01*
X30992765Y-22631843D01*
X30745000Y-22582560D01*
X28945000Y-22582560D01*
X28697235Y-22631843D01*
X28487191Y-22772191D01*
X28346843Y-22982235D01*
X28297560Y-23230000D01*
X20710000Y-23230000D01*
X20710000Y-20710000D01*
X102914098Y-20710000D01*
X97470194Y-26153905D01*
G36*
X119290001Y-119290000D02*
X113742939Y-119290000D01*
X113843017Y-119102622D01*
X112395000Y-117654605D01*
X110946983Y-119102622D01*
X111047061Y-119290000D01*
X108399601Y-119290000D01*
X110104057Y-117585544D01*
X110109793Y-117965524D01*
X110432262Y-118744033D01*
X110767378Y-118923017D01*
X112215395Y-117475000D01*
X112574605Y-117475000D01*
X114022622Y-118923017D01*
X114357738Y-118744033D01*
X114693972Y-117896326D01*
X114680207Y-116984476D01*
X114357738Y-116205967D01*
X114022622Y-116026983D01*
X112574605Y-117475000D01*
X112215395Y-117475000D01*
X112201253Y-117460858D01*
X112380858Y-117281253D01*
X112395000Y-117295395D01*
X113843017Y-115847378D01*
X113664033Y-115512262D01*
X112816326Y-115176028D01*
X112508933Y-115180668D01*
X117075073Y-110614529D01*
X117138529Y-110572129D01*
X117306504Y-110320737D01*
X117350600Y-110099052D01*
X117350600Y-110099047D01*
X117365488Y-110024200D01*
X117350600Y-109949353D01*
X117350600Y-21910346D01*
X117365488Y-21835499D01*
X117350600Y-21760652D01*
X117350600Y-21760648D01*
X117306504Y-21538963D01*
X117237704Y-21435996D01*
X117180929Y-21351026D01*
X117180927Y-21351024D01*
X117138529Y-21287571D01*
X117075076Y-21245173D01*
X116539902Y-20710000D01*
X119290000Y-20710000D01*
X119290001Y-119290000D01*
X119290001Y-119290000D01*
G37*
X119290001Y-119290000D02*
X113742939Y-119290000D01*
X113843017Y-119102622D01*
X112395000Y-117654605D01*
X110946983Y-119102622D01*
X111047061Y-119290000D01*
X108399601Y-119290000D01*
X110104057Y-117585544D01*
X110109793Y-117965524D01*
X110432262Y-118744033D01*
X110767378Y-118923017D01*
X112215395Y-117475000D01*
X112574605Y-117475000D01*
X114022622Y-118923017D01*
X114357738Y-118744033D01*
X114693972Y-117896326D01*
X114680207Y-116984476D01*
X114357738Y-116205967D01*
X114022622Y-116026983D01*
X112574605Y-117475000D01*
X112215395Y-117475000D01*
X112201253Y-117460858D01*
X112380858Y-117281253D01*
X112395000Y-117295395D01*
X113843017Y-115847378D01*
X113664033Y-115512262D01*
X112816326Y-115176028D01*
X112508933Y-115180668D01*
X117075073Y-110614529D01*
X117138529Y-110572129D01*
X117306504Y-110320737D01*
X117350600Y-110099052D01*
X117350600Y-110099047D01*
X117365488Y-110024200D01*
X117350600Y-109949353D01*
X117350600Y-21910346D01*
X117365488Y-21835499D01*
X117350600Y-21760652D01*
X117350600Y-21760648D01*
X117306504Y-21538963D01*
X117237704Y-21435996D01*
X117180929Y-21351026D01*
X117180927Y-21351024D01*
X117138529Y-21287571D01*
X117075076Y-21245173D01*
X116539902Y-20710000D01*
X119290000Y-20710000D01*
X119290001Y-119290000D01*
G36*
X37023748Y-115555858D02*
X37009605Y-115570000D01*
X37023748Y-115584143D01*
X36844143Y-115763748D01*
X36830000Y-115749605D01*
X36815858Y-115763748D01*
X36636253Y-115584143D01*
X36650395Y-115570000D01*
X36636253Y-115555858D01*
X36815858Y-115376253D01*
X36830000Y-115390395D01*
X36844143Y-115376253D01*
X37023748Y-115555858D01*
X37023748Y-115555858D01*
G37*
X37023748Y-115555858D02*
X37009605Y-115570000D01*
X37023748Y-115584143D01*
X36844143Y-115763748D01*
X36830000Y-115749605D01*
X36815858Y-115763748D01*
X36636253Y-115584143D01*
X36650395Y-115570000D01*
X36636253Y-115555858D01*
X36815858Y-115376253D01*
X36830000Y-115390395D01*
X36844143Y-115376253D01*
X37023748Y-115555858D01*
G36*
X34483748Y-115555858D02*
X34469605Y-115570000D01*
X34483748Y-115584143D01*
X34304143Y-115763748D01*
X34290000Y-115749605D01*
X34275858Y-115763748D01*
X34096253Y-115584143D01*
X34110395Y-115570000D01*
X34096253Y-115555858D01*
X34275858Y-115376253D01*
X34290000Y-115390395D01*
X34304143Y-115376253D01*
X34483748Y-115555858D01*
X34483748Y-115555858D01*
G37*
X34483748Y-115555858D02*
X34469605Y-115570000D01*
X34483748Y-115584143D01*
X34304143Y-115763748D01*
X34290000Y-115749605D01*
X34275858Y-115763748D01*
X34096253Y-115584143D01*
X34110395Y-115570000D01*
X34096253Y-115555858D01*
X34275858Y-115376253D01*
X34290000Y-115390395D01*
X34304143Y-115376253D01*
X34483748Y-115555858D01*
G36*
X106873748Y-113650858D02*
X106859605Y-113665000D01*
X106873748Y-113679143D01*
X106694143Y-113858748D01*
X106680000Y-113844605D01*
X106665858Y-113858748D01*
X106496533Y-113689423D01*
X106704423Y-113481533D01*
X106873748Y-113650858D01*
X106873748Y-113650858D01*
G37*
X106873748Y-113650858D02*
X106859605Y-113665000D01*
X106873748Y-113679143D01*
X106694143Y-113858748D01*
X106680000Y-113844605D01*
X106665858Y-113858748D01*
X106496533Y-113689423D01*
X106704423Y-113481533D01*
X106873748Y-113650858D01*
G36*
X104230588Y-113547698D02*
X104242000Y-113605071D01*
X104242000Y-113737044D01*
X104123077Y-113855967D01*
X103963956Y-113696846D01*
X104171846Y-113488956D01*
X104230588Y-113547698D01*
X104230588Y-113547698D01*
G37*
X104230588Y-113547698D02*
X104242000Y-113605071D01*
X104242000Y-113737044D01*
X104123077Y-113855967D01*
X103963956Y-113696846D01*
X104171846Y-113488956D01*
X104230588Y-113547698D01*
G36*
X77669375Y-58855625D02*
X77686758Y-58867240D01*
X67921030Y-68632969D01*
X67857571Y-68675371D01*
X67689596Y-68926764D01*
X67645500Y-69148449D01*
X67645500Y-69148453D01*
X67630612Y-69223300D01*
X67645500Y-69298147D01*
X67645501Y-89162588D01*
X67528069Y-89280020D01*
X67370500Y-89660426D01*
X67370500Y-90072174D01*
X67528069Y-90452580D01*
X67819220Y-90743731D01*
X68199626Y-90901300D01*
X68611374Y-90901300D01*
X68991780Y-90743731D01*
X69090000Y-90645511D01*
X69090000Y-110759870D01*
X68794879Y-111054991D01*
X68605400Y-111512434D01*
X68605400Y-112007566D01*
X68776401Y-112420400D01*
X68383599Y-112420400D01*
X68554600Y-112007566D01*
X68554600Y-111512434D01*
X68365121Y-111054991D01*
X68015009Y-110704879D01*
X67557566Y-110515400D01*
X67062434Y-110515400D01*
X66604991Y-110704879D01*
X66254879Y-111054991D01*
X66065400Y-111512434D01*
X66065400Y-112007566D01*
X66236401Y-112420400D01*
X65843599Y-112420400D01*
X66014600Y-112007566D01*
X66014600Y-111512434D01*
X65825121Y-111054991D01*
X65475009Y-110704879D01*
X65017566Y-110515400D01*
X64522434Y-110515400D01*
X64064991Y-110704879D01*
X63714879Y-111054991D01*
X63525400Y-111512434D01*
X63525400Y-112007566D01*
X63696401Y-112420400D01*
X63303599Y-112420400D01*
X63474600Y-112007566D01*
X63474600Y-111512434D01*
X63285121Y-111054991D01*
X62935009Y-110704879D01*
X62477566Y-110515400D01*
X61982434Y-110515400D01*
X61524991Y-110704879D01*
X61174879Y-111054991D01*
X60985400Y-111512434D01*
X60985400Y-112007566D01*
X61156401Y-112420400D01*
X60763599Y-112420400D01*
X60934600Y-112007566D01*
X60934600Y-111512434D01*
X60745121Y-111054991D01*
X60395009Y-110704879D01*
X60190170Y-110620032D01*
X62079473Y-108730729D01*
X62142929Y-108688329D01*
X62310904Y-108436937D01*
X62355000Y-108215252D01*
X62355000Y-108215248D01*
X62369888Y-108140401D01*
X62355000Y-108065554D01*
X62355000Y-101691668D01*
X62723667Y-101765000D01*
X63006333Y-101765000D01*
X63375000Y-101691667D01*
X63375000Y-102537053D01*
X63360112Y-102611900D01*
X63375000Y-102686747D01*
X63375000Y-102686751D01*
X63419096Y-102908436D01*
X63587071Y-103159829D01*
X63650530Y-103202231D01*
X67000200Y-106551902D01*
X67000200Y-106717974D01*
X67157769Y-107098380D01*
X67448920Y-107389531D01*
X67829326Y-107547100D01*
X68241074Y-107547100D01*
X68621480Y-107389531D01*
X68912631Y-107098380D01*
X69070200Y-106717974D01*
X69070200Y-106306226D01*
X68912631Y-105925820D01*
X68621480Y-105634669D01*
X68241074Y-105477100D01*
X68075002Y-105477100D01*
X64895000Y-102297099D01*
X64895000Y-101655236D01*
X65055961Y-101721904D01*
X65278000Y-101599915D01*
X65278000Y-100457000D01*
X65532000Y-100457000D01*
X65532000Y-101599915D01*
X65754039Y-101721904D01*
X66142423Y-101561041D01*
X66557389Y-101185134D01*
X66796914Y-100679041D01*
X66675629Y-100457000D01*
X65532000Y-100457000D01*
X65278000Y-100457000D01*
X65258000Y-100457000D01*
X65258000Y-100203000D01*
X65278000Y-100203000D01*
X65278000Y-99060085D01*
X65532000Y-99060085D01*
X65532000Y-100203000D01*
X66675629Y-100203000D01*
X66796914Y-99980959D01*
X66557389Y-99474866D01*
X66142423Y-99098959D01*
X65754039Y-98938096D01*
X65532000Y-99060085D01*
X65278000Y-99060085D01*
X65055961Y-98938096D01*
X64895000Y-99004764D01*
X64895000Y-95107146D01*
X64909888Y-95032299D01*
X64895000Y-94957452D01*
X64895000Y-94957448D01*
X64850904Y-94735763D01*
X64682929Y-94484371D01*
X64619473Y-94441971D01*
X63908590Y-93731088D01*
X64135000Y-93392242D01*
X64370423Y-93744577D01*
X64845091Y-94061740D01*
X65263667Y-94145000D01*
X65546333Y-94145000D01*
X65964909Y-94061740D01*
X66439577Y-93744577D01*
X66756740Y-93269909D01*
X66868113Y-92710000D01*
X66756740Y-92150091D01*
X66439577Y-91675423D01*
X65964909Y-91358260D01*
X65546333Y-91275000D01*
X65263667Y-91275000D01*
X64845091Y-91358260D01*
X64370423Y-91675423D01*
X64135000Y-92027758D01*
X63899577Y-91675423D01*
X63424909Y-91358260D01*
X63186804Y-91310898D01*
X64401873Y-90095829D01*
X64465329Y-90053429D01*
X64633304Y-89802037D01*
X64677400Y-89580352D01*
X64677400Y-89580348D01*
X64692288Y-89505500D01*
X64677400Y-89430652D01*
X64677400Y-88865110D01*
X65055961Y-89021904D01*
X65278000Y-88899915D01*
X65278000Y-87757000D01*
X65532000Y-87757000D01*
X65532000Y-88899915D01*
X65754039Y-89021904D01*
X66142423Y-88861041D01*
X66557389Y-88485134D01*
X66796914Y-87979041D01*
X66675629Y-87757000D01*
X65532000Y-87757000D01*
X65278000Y-87757000D01*
X65258000Y-87757000D01*
X65258000Y-87503000D01*
X65278000Y-87503000D01*
X65278000Y-86360085D01*
X65532000Y-86360085D01*
X65532000Y-87503000D01*
X66675629Y-87503000D01*
X66796914Y-87280959D01*
X66557389Y-86774866D01*
X66142423Y-86398959D01*
X65754039Y-86238096D01*
X65532000Y-86360085D01*
X65278000Y-86360085D01*
X65055961Y-86238096D01*
X64677400Y-86394890D01*
X64677400Y-81249692D01*
X64845091Y-81361740D01*
X65263667Y-81445000D01*
X65546333Y-81445000D01*
X65964909Y-81361740D01*
X66439577Y-81044577D01*
X66756740Y-80569909D01*
X66868113Y-80010000D01*
X66756740Y-79450091D01*
X66439577Y-78975423D01*
X65964909Y-78658260D01*
X65546333Y-78575000D01*
X65263667Y-78575000D01*
X64845091Y-78658260D01*
X64677400Y-78770308D01*
X64677400Y-76165110D01*
X65055961Y-76321904D01*
X65278000Y-76199915D01*
X65278000Y-75057000D01*
X65532000Y-75057000D01*
X65532000Y-76199915D01*
X65754039Y-76321904D01*
X66142423Y-76161041D01*
X66557389Y-75785134D01*
X66796914Y-75279041D01*
X66675629Y-75057000D01*
X65532000Y-75057000D01*
X65278000Y-75057000D01*
X65258000Y-75057000D01*
X65258000Y-74803000D01*
X65278000Y-74803000D01*
X65278000Y-73660085D01*
X65532000Y-73660085D01*
X65532000Y-74803000D01*
X66675629Y-74803000D01*
X66796914Y-74580959D01*
X66557389Y-74074866D01*
X66142423Y-73698959D01*
X65754039Y-73538096D01*
X65532000Y-73660085D01*
X65278000Y-73660085D01*
X65055961Y-73538096D01*
X64677400Y-73694890D01*
X64677400Y-71360801D01*
X77474391Y-58563811D01*
X77669375Y-58855625D01*
X77669375Y-58855625D01*
G37*
X77669375Y-58855625D02*
X77686758Y-58867240D01*
X67921030Y-68632969D01*
X67857571Y-68675371D01*
X67689596Y-68926764D01*
X67645500Y-69148449D01*
X67645500Y-69148453D01*
X67630612Y-69223300D01*
X67645500Y-69298147D01*
X67645501Y-89162588D01*
X67528069Y-89280020D01*
X67370500Y-89660426D01*
X67370500Y-90072174D01*
X67528069Y-90452580D01*
X67819220Y-90743731D01*
X68199626Y-90901300D01*
X68611374Y-90901300D01*
X68991780Y-90743731D01*
X69090000Y-90645511D01*
X69090000Y-110759870D01*
X68794879Y-111054991D01*
X68605400Y-111512434D01*
X68605400Y-112007566D01*
X68776401Y-112420400D01*
X68383599Y-112420400D01*
X68554600Y-112007566D01*
X68554600Y-111512434D01*
X68365121Y-111054991D01*
X68015009Y-110704879D01*
X67557566Y-110515400D01*
X67062434Y-110515400D01*
X66604991Y-110704879D01*
X66254879Y-111054991D01*
X66065400Y-111512434D01*
X66065400Y-112007566D01*
X66236401Y-112420400D01*
X65843599Y-112420400D01*
X66014600Y-112007566D01*
X66014600Y-111512434D01*
X65825121Y-111054991D01*
X65475009Y-110704879D01*
X65017566Y-110515400D01*
X64522434Y-110515400D01*
X64064991Y-110704879D01*
X63714879Y-111054991D01*
X63525400Y-111512434D01*
X63525400Y-112007566D01*
X63696401Y-112420400D01*
X63303599Y-112420400D01*
X63474600Y-112007566D01*
X63474600Y-111512434D01*
X63285121Y-111054991D01*
X62935009Y-110704879D01*
X62477566Y-110515400D01*
X61982434Y-110515400D01*
X61524991Y-110704879D01*
X61174879Y-111054991D01*
X60985400Y-111512434D01*
X60985400Y-112007566D01*
X61156401Y-112420400D01*
X60763599Y-112420400D01*
X60934600Y-112007566D01*
X60934600Y-111512434D01*
X60745121Y-111054991D01*
X60395009Y-110704879D01*
X60190170Y-110620032D01*
X62079473Y-108730729D01*
X62142929Y-108688329D01*
X62310904Y-108436937D01*
X62355000Y-108215252D01*
X62355000Y-108215248D01*
X62369888Y-108140401D01*
X62355000Y-108065554D01*
X62355000Y-101691668D01*
X62723667Y-101765000D01*
X63006333Y-101765000D01*
X63375000Y-101691667D01*
X63375000Y-102537053D01*
X63360112Y-102611900D01*
X63375000Y-102686747D01*
X63375000Y-102686751D01*
X63419096Y-102908436D01*
X63587071Y-103159829D01*
X63650530Y-103202231D01*
X67000200Y-106551902D01*
X67000200Y-106717974D01*
X67157769Y-107098380D01*
X67448920Y-107389531D01*
X67829326Y-107547100D01*
X68241074Y-107547100D01*
X68621480Y-107389531D01*
X68912631Y-107098380D01*
X69070200Y-106717974D01*
X69070200Y-106306226D01*
X68912631Y-105925820D01*
X68621480Y-105634669D01*
X68241074Y-105477100D01*
X68075002Y-105477100D01*
X64895000Y-102297099D01*
X64895000Y-101655236D01*
X65055961Y-101721904D01*
X65278000Y-101599915D01*
X65278000Y-100457000D01*
X65532000Y-100457000D01*
X65532000Y-101599915D01*
X65754039Y-101721904D01*
X66142423Y-101561041D01*
X66557389Y-101185134D01*
X66796914Y-100679041D01*
X66675629Y-100457000D01*
X65532000Y-100457000D01*
X65278000Y-100457000D01*
X65258000Y-100457000D01*
X65258000Y-100203000D01*
X65278000Y-100203000D01*
X65278000Y-99060085D01*
X65532000Y-99060085D01*
X65532000Y-100203000D01*
X66675629Y-100203000D01*
X66796914Y-99980959D01*
X66557389Y-99474866D01*
X66142423Y-99098959D01*
X65754039Y-98938096D01*
X65532000Y-99060085D01*
X65278000Y-99060085D01*
X65055961Y-98938096D01*
X64895000Y-99004764D01*
X64895000Y-95107146D01*
X64909888Y-95032299D01*
X64895000Y-94957452D01*
X64895000Y-94957448D01*
X64850904Y-94735763D01*
X64682929Y-94484371D01*
X64619473Y-94441971D01*
X63908590Y-93731088D01*
X64135000Y-93392242D01*
X64370423Y-93744577D01*
X64845091Y-94061740D01*
X65263667Y-94145000D01*
X65546333Y-94145000D01*
X65964909Y-94061740D01*
X66439577Y-93744577D01*
X66756740Y-93269909D01*
X66868113Y-92710000D01*
X66756740Y-92150091D01*
X66439577Y-91675423D01*
X65964909Y-91358260D01*
X65546333Y-91275000D01*
X65263667Y-91275000D01*
X64845091Y-91358260D01*
X64370423Y-91675423D01*
X64135000Y-92027758D01*
X63899577Y-91675423D01*
X63424909Y-91358260D01*
X63186804Y-91310898D01*
X64401873Y-90095829D01*
X64465329Y-90053429D01*
X64633304Y-89802037D01*
X64677400Y-89580352D01*
X64677400Y-89580348D01*
X64692288Y-89505500D01*
X64677400Y-89430652D01*
X64677400Y-88865110D01*
X65055961Y-89021904D01*
X65278000Y-88899915D01*
X65278000Y-87757000D01*
X65532000Y-87757000D01*
X65532000Y-88899915D01*
X65754039Y-89021904D01*
X66142423Y-88861041D01*
X66557389Y-88485134D01*
X66796914Y-87979041D01*
X66675629Y-87757000D01*
X65532000Y-87757000D01*
X65278000Y-87757000D01*
X65258000Y-87757000D01*
X65258000Y-87503000D01*
X65278000Y-87503000D01*
X65278000Y-86360085D01*
X65532000Y-86360085D01*
X65532000Y-87503000D01*
X66675629Y-87503000D01*
X66796914Y-87280959D01*
X66557389Y-86774866D01*
X66142423Y-86398959D01*
X65754039Y-86238096D01*
X65532000Y-86360085D01*
X65278000Y-86360085D01*
X65055961Y-86238096D01*
X64677400Y-86394890D01*
X64677400Y-81249692D01*
X64845091Y-81361740D01*
X65263667Y-81445000D01*
X65546333Y-81445000D01*
X65964909Y-81361740D01*
X66439577Y-81044577D01*
X66756740Y-80569909D01*
X66868113Y-80010000D01*
X66756740Y-79450091D01*
X66439577Y-78975423D01*
X65964909Y-78658260D01*
X65546333Y-78575000D01*
X65263667Y-78575000D01*
X64845091Y-78658260D01*
X64677400Y-78770308D01*
X64677400Y-76165110D01*
X65055961Y-76321904D01*
X65278000Y-76199915D01*
X65278000Y-75057000D01*
X65532000Y-75057000D01*
X65532000Y-76199915D01*
X65754039Y-76321904D01*
X66142423Y-76161041D01*
X66557389Y-75785134D01*
X66796914Y-75279041D01*
X66675629Y-75057000D01*
X65532000Y-75057000D01*
X65278000Y-75057000D01*
X65258000Y-75057000D01*
X65258000Y-74803000D01*
X65278000Y-74803000D01*
X65278000Y-73660085D01*
X65532000Y-73660085D01*
X65532000Y-74803000D01*
X66675629Y-74803000D01*
X66796914Y-74580959D01*
X66557389Y-74074866D01*
X66142423Y-73698959D01*
X65754039Y-73538096D01*
X65532000Y-73660085D01*
X65278000Y-73660085D01*
X65055961Y-73538096D01*
X64677400Y-73694890D01*
X64677400Y-71360801D01*
X77474391Y-58563811D01*
X77669375Y-58855625D01*
G36*
X103012074Y-111694184D02*
X102979389Y-111858501D01*
X102884143Y-111953748D01*
X102870000Y-111939605D01*
X102855858Y-111953748D01*
X102691556Y-111789446D01*
X102899446Y-111581556D01*
X103012074Y-111694184D01*
X103012074Y-111694184D01*
G37*
X103012074Y-111694184D02*
X102979389Y-111858501D01*
X102884143Y-111953748D01*
X102870000Y-111939605D01*
X102855858Y-111953748D01*
X102691556Y-111789446D01*
X102899446Y-111581556D01*
X103012074Y-111694184D01*
G36*
X114300000Y-62050395D02*
X114314143Y-62036253D01*
X114493748Y-62215858D01*
X114479605Y-62230000D01*
X114493748Y-62244142D01*
X114314143Y-62423748D01*
X114300000Y-62409605D01*
X113471861Y-63237745D01*
X113545995Y-63483864D01*
X114083223Y-63676965D01*
X114632101Y-63650796D01*
X114632100Y-106481198D01*
X109205916Y-111907383D01*
X109177200Y-111437048D01*
X109046123Y-111120600D01*
X108819702Y-111069903D01*
X108129605Y-111760000D01*
X108143748Y-111774143D01*
X107964143Y-111953748D01*
X107950000Y-111939605D01*
X107935858Y-111953748D01*
X107783100Y-111800990D01*
X107783100Y-111719010D01*
X107935858Y-111566253D01*
X107950000Y-111580395D01*
X108640097Y-110890298D01*
X108589400Y-110663877D01*
X108121261Y-110502626D01*
X107783100Y-110523272D01*
X107783100Y-105132554D01*
X107958835Y-104956819D01*
X108043169Y-104900469D01*
X108266399Y-104566382D01*
X108324194Y-104275829D01*
X108362765Y-104268157D01*
X108572809Y-104127809D01*
X108713157Y-103917765D01*
X108721117Y-103877745D01*
X108986861Y-103877745D01*
X109060995Y-104123864D01*
X109598223Y-104316965D01*
X110168454Y-104289778D01*
X110569005Y-104123864D01*
X110643139Y-103877745D01*
X109815000Y-103049605D01*
X108986861Y-103877745D01*
X108721117Y-103877745D01*
X108759693Y-103683813D01*
X108807255Y-103698139D01*
X109635395Y-102870000D01*
X109994605Y-102870000D01*
X110822745Y-103698139D01*
X111068864Y-103624005D01*
X111261965Y-103086777D01*
X111234778Y-102516546D01*
X111068864Y-102115995D01*
X110822745Y-102041861D01*
X109994605Y-102870000D01*
X109635395Y-102870000D01*
X108807255Y-102041861D01*
X108759693Y-102056187D01*
X108721118Y-101862255D01*
X108986861Y-101862255D01*
X109815000Y-102690395D01*
X110643139Y-101862255D01*
X110569005Y-101616136D01*
X110031777Y-101423035D01*
X109461546Y-101450222D01*
X109060995Y-101616136D01*
X108986861Y-101862255D01*
X108721118Y-101862255D01*
X108713157Y-101822235D01*
X108623300Y-101687755D01*
X109264841Y-101046215D01*
X109349169Y-100989869D01*
X109405516Y-100905540D01*
X109405518Y-100905538D01*
X109572398Y-100655783D01*
X109572399Y-100655782D01*
X109631000Y-100361176D01*
X109631000Y-100361171D01*
X109650786Y-100261700D01*
X109631000Y-100162229D01*
X109631000Y-92431890D01*
X109683524Y-92431890D01*
X109853355Y-92841924D01*
X110243642Y-93270183D01*
X110768108Y-93516486D01*
X110998000Y-93395819D01*
X110998000Y-92202000D01*
X111252000Y-92202000D01*
X111252000Y-93395819D01*
X111481892Y-93516486D01*
X112006358Y-93270183D01*
X112396645Y-92841924D01*
X112566476Y-92431890D01*
X112445155Y-92202000D01*
X111252000Y-92202000D01*
X110998000Y-92202000D01*
X109804845Y-92202000D01*
X109683524Y-92431890D01*
X109631000Y-92431890D01*
X109631000Y-90402294D01*
X109676843Y-90632765D01*
X109817191Y-90842809D01*
X110027235Y-90983157D01*
X110130708Y-91003739D01*
X109853355Y-91308076D01*
X109683524Y-91718110D01*
X109804845Y-91948000D01*
X110998000Y-91948000D01*
X110998000Y-91928000D01*
X111252000Y-91928000D01*
X111252000Y-91948000D01*
X112445155Y-91948000D01*
X112566476Y-91718110D01*
X112396645Y-91308076D01*
X112119292Y-91003739D01*
X112222765Y-90983157D01*
X112432809Y-90842809D01*
X112573157Y-90632765D01*
X112622440Y-90385000D01*
X112622440Y-88685000D01*
X112573157Y-88437235D01*
X112432809Y-88227191D01*
X112222765Y-88086843D01*
X111975000Y-88037560D01*
X110275000Y-88037560D01*
X110027235Y-88086843D01*
X109817191Y-88227191D01*
X109676843Y-88437235D01*
X109631000Y-88667706D01*
X109631000Y-65827355D01*
X111793356Y-63665000D01*
X112085439Y-63665000D01*
X112612862Y-63446534D01*
X113016534Y-63042862D01*
X113043525Y-62977701D01*
X113046136Y-62984005D01*
X113292255Y-63058139D01*
X114120395Y-62230000D01*
X114106252Y-62215858D01*
X114285858Y-62036252D01*
X114300000Y-62050395D01*
X114300000Y-62050395D01*
G37*
X114300000Y-62050395D02*
X114314143Y-62036253D01*
X114493748Y-62215858D01*
X114479605Y-62230000D01*
X114493748Y-62244142D01*
X114314143Y-62423748D01*
X114300000Y-62409605D01*
X113471861Y-63237745D01*
X113545995Y-63483864D01*
X114083223Y-63676965D01*
X114632101Y-63650796D01*
X114632100Y-106481198D01*
X109205916Y-111907383D01*
X109177200Y-111437048D01*
X109046123Y-111120600D01*
X108819702Y-111069903D01*
X108129605Y-111760000D01*
X108143748Y-111774143D01*
X107964143Y-111953748D01*
X107950000Y-111939605D01*
X107935858Y-111953748D01*
X107783100Y-111800990D01*
X107783100Y-111719010D01*
X107935858Y-111566253D01*
X107950000Y-111580395D01*
X108640097Y-110890298D01*
X108589400Y-110663877D01*
X108121261Y-110502626D01*
X107783100Y-110523272D01*
X107783100Y-105132554D01*
X107958835Y-104956819D01*
X108043169Y-104900469D01*
X108266399Y-104566382D01*
X108324194Y-104275829D01*
X108362765Y-104268157D01*
X108572809Y-104127809D01*
X108713157Y-103917765D01*
X108721117Y-103877745D01*
X108986861Y-103877745D01*
X109060995Y-104123864D01*
X109598223Y-104316965D01*
X110168454Y-104289778D01*
X110569005Y-104123864D01*
X110643139Y-103877745D01*
X109815000Y-103049605D01*
X108986861Y-103877745D01*
X108721117Y-103877745D01*
X108759693Y-103683813D01*
X108807255Y-103698139D01*
X109635395Y-102870000D01*
X109994605Y-102870000D01*
X110822745Y-103698139D01*
X111068864Y-103624005D01*
X111261965Y-103086777D01*
X111234778Y-102516546D01*
X111068864Y-102115995D01*
X110822745Y-102041861D01*
X109994605Y-102870000D01*
X109635395Y-102870000D01*
X108807255Y-102041861D01*
X108759693Y-102056187D01*
X108721118Y-101862255D01*
X108986861Y-101862255D01*
X109815000Y-102690395D01*
X110643139Y-101862255D01*
X110569005Y-101616136D01*
X110031777Y-101423035D01*
X109461546Y-101450222D01*
X109060995Y-101616136D01*
X108986861Y-101862255D01*
X108721118Y-101862255D01*
X108713157Y-101822235D01*
X108623300Y-101687755D01*
X109264841Y-101046215D01*
X109349169Y-100989869D01*
X109405516Y-100905540D01*
X109405518Y-100905538D01*
X109572398Y-100655783D01*
X109572399Y-100655782D01*
X109631000Y-100361176D01*
X109631000Y-100361171D01*
X109650786Y-100261700D01*
X109631000Y-100162229D01*
X109631000Y-92431890D01*
X109683524Y-92431890D01*
X109853355Y-92841924D01*
X110243642Y-93270183D01*
X110768108Y-93516486D01*
X110998000Y-93395819D01*
X110998000Y-92202000D01*
X111252000Y-92202000D01*
X111252000Y-93395819D01*
X111481892Y-93516486D01*
X112006358Y-93270183D01*
X112396645Y-92841924D01*
X112566476Y-92431890D01*
X112445155Y-92202000D01*
X111252000Y-92202000D01*
X110998000Y-92202000D01*
X109804845Y-92202000D01*
X109683524Y-92431890D01*
X109631000Y-92431890D01*
X109631000Y-90402294D01*
X109676843Y-90632765D01*
X109817191Y-90842809D01*
X110027235Y-90983157D01*
X110130708Y-91003739D01*
X109853355Y-91308076D01*
X109683524Y-91718110D01*
X109804845Y-91948000D01*
X110998000Y-91948000D01*
X110998000Y-91928000D01*
X111252000Y-91928000D01*
X111252000Y-91948000D01*
X112445155Y-91948000D01*
X112566476Y-91718110D01*
X112396645Y-91308076D01*
X112119292Y-91003739D01*
X112222765Y-90983157D01*
X112432809Y-90842809D01*
X112573157Y-90632765D01*
X112622440Y-90385000D01*
X112622440Y-88685000D01*
X112573157Y-88437235D01*
X112432809Y-88227191D01*
X112222765Y-88086843D01*
X111975000Y-88037560D01*
X110275000Y-88037560D01*
X110027235Y-88086843D01*
X109817191Y-88227191D01*
X109676843Y-88437235D01*
X109631000Y-88667706D01*
X109631000Y-65827355D01*
X111793356Y-63665000D01*
X112085439Y-63665000D01*
X112612862Y-63446534D01*
X113016534Y-63042862D01*
X113043525Y-62977701D01*
X113046136Y-62984005D01*
X113292255Y-63058139D01*
X114120395Y-62230000D01*
X114106252Y-62215858D01*
X114285858Y-62036252D01*
X114300000Y-62050395D01*
G36*
X105593568Y-111735678D02*
X105385678Y-111943568D01*
X105216253Y-111774143D01*
X105230395Y-111760000D01*
X105216253Y-111745858D01*
X105395858Y-111566253D01*
X105410000Y-111580395D01*
X105424143Y-111566253D01*
X105593568Y-111735678D01*
X105593568Y-111735678D01*
G37*
X105593568Y-111735678D02*
X105385678Y-111943568D01*
X105216253Y-111774143D01*
X105230395Y-111760000D01*
X105216253Y-111745858D01*
X105395858Y-111566253D01*
X105410000Y-111580395D01*
X105424143Y-111566253D01*
X105593568Y-111735678D01*
G36*
X101069420Y-70628731D02*
X101449826Y-70786300D01*
X101599101Y-70786300D01*
X101599101Y-72642000D01*
X101389026Y-72642000D01*
X101008620Y-72799569D01*
X100717469Y-73090720D01*
X100559900Y-73471126D01*
X100559900Y-73882874D01*
X100717469Y-74263280D01*
X100834901Y-74380712D01*
X100834900Y-102762897D01*
X98390400Y-105207398D01*
X98390400Y-101589132D01*
X98710961Y-101721904D01*
X98933000Y-101599915D01*
X98933000Y-100457000D01*
X99187000Y-100457000D01*
X99187000Y-101599915D01*
X99409039Y-101721904D01*
X99797423Y-101561041D01*
X100212389Y-101185134D01*
X100451914Y-100679041D01*
X100330629Y-100457000D01*
X99187000Y-100457000D01*
X98933000Y-100457000D01*
X98913000Y-100457000D01*
X98913000Y-100203000D01*
X98933000Y-100203000D01*
X98933000Y-99060085D01*
X99187000Y-99060085D01*
X99187000Y-100203000D01*
X100330629Y-100203000D01*
X100451914Y-99980959D01*
X100212389Y-99474866D01*
X99797423Y-99098959D01*
X99409039Y-98938096D01*
X99187000Y-99060085D01*
X98933000Y-99060085D01*
X98710961Y-98938096D01*
X98390400Y-99070868D01*
X98390400Y-93988447D01*
X98500091Y-94061740D01*
X98918667Y-94145000D01*
X99201333Y-94145000D01*
X99619909Y-94061740D01*
X100094577Y-93744577D01*
X100411740Y-93269909D01*
X100523113Y-92710000D01*
X100411740Y-92150091D01*
X100094577Y-91675423D01*
X99619909Y-91358260D01*
X99201333Y-91275000D01*
X98918667Y-91275000D01*
X98500091Y-91358260D01*
X98390400Y-91431553D01*
X98390400Y-88889132D01*
X98710961Y-89021904D01*
X98933000Y-88899915D01*
X98933000Y-87757000D01*
X99187000Y-87757000D01*
X99187000Y-88899915D01*
X99409039Y-89021904D01*
X99797423Y-88861041D01*
X100212389Y-88485134D01*
X100451914Y-87979041D01*
X100330629Y-87757000D01*
X99187000Y-87757000D01*
X98933000Y-87757000D01*
X98913000Y-87757000D01*
X98913000Y-87503000D01*
X98933000Y-87503000D01*
X98933000Y-86360085D01*
X99187000Y-86360085D01*
X99187000Y-87503000D01*
X100330629Y-87503000D01*
X100451914Y-87280959D01*
X100212389Y-86774866D01*
X99797423Y-86398959D01*
X99409039Y-86238096D01*
X99187000Y-86360085D01*
X98933000Y-86360085D01*
X98710961Y-86238096D01*
X98390400Y-86370868D01*
X98390400Y-81288447D01*
X98500091Y-81361740D01*
X98918667Y-81445000D01*
X99201333Y-81445000D01*
X99619909Y-81361740D01*
X100094577Y-81044577D01*
X100411740Y-80569909D01*
X100523113Y-80010000D01*
X100411740Y-79450091D01*
X100094577Y-78975423D01*
X99619909Y-78658260D01*
X99201333Y-78575000D01*
X98918667Y-78575000D01*
X98500091Y-78658260D01*
X98390400Y-78731553D01*
X98390400Y-77167548D01*
X98405288Y-77092700D01*
X98390400Y-77017852D01*
X98390400Y-77017848D01*
X98346304Y-76796163D01*
X98346304Y-76796162D01*
X98220729Y-76608227D01*
X98178329Y-76544771D01*
X98114873Y-76502371D01*
X97563590Y-75951088D01*
X97810947Y-75580892D01*
X97907611Y-75785134D01*
X98322577Y-76161041D01*
X98710961Y-76321904D01*
X98933000Y-76199915D01*
X98933000Y-75057000D01*
X99187000Y-75057000D01*
X99187000Y-76199915D01*
X99409039Y-76321904D01*
X99797423Y-76161041D01*
X100212389Y-75785134D01*
X100451914Y-75279041D01*
X100330629Y-75057000D01*
X99187000Y-75057000D01*
X98933000Y-75057000D01*
X98913000Y-75057000D01*
X98913000Y-74803000D01*
X98933000Y-74803000D01*
X98933000Y-73660085D01*
X99187000Y-73660085D01*
X99187000Y-74803000D01*
X100330629Y-74803000D01*
X100451914Y-74580959D01*
X100212389Y-74074866D01*
X99797423Y-73698959D01*
X99409039Y-73538096D01*
X99187000Y-73660085D01*
X98933000Y-73660085D01*
X98710961Y-73538096D01*
X98322577Y-73698959D01*
X97907611Y-74074866D01*
X97810947Y-74279108D01*
X97554577Y-73895423D01*
X97266839Y-73703162D01*
X100458702Y-70511300D01*
X100951989Y-70511300D01*
X101069420Y-70628731D01*
X101069420Y-70628731D01*
G37*
X101069420Y-70628731D02*
X101449826Y-70786300D01*
X101599101Y-70786300D01*
X101599101Y-72642000D01*
X101389026Y-72642000D01*
X101008620Y-72799569D01*
X100717469Y-73090720D01*
X100559900Y-73471126D01*
X100559900Y-73882874D01*
X100717469Y-74263280D01*
X100834901Y-74380712D01*
X100834900Y-102762897D01*
X98390400Y-105207398D01*
X98390400Y-101589132D01*
X98710961Y-101721904D01*
X98933000Y-101599915D01*
X98933000Y-100457000D01*
X99187000Y-100457000D01*
X99187000Y-101599915D01*
X99409039Y-101721904D01*
X99797423Y-101561041D01*
X100212389Y-101185134D01*
X100451914Y-100679041D01*
X100330629Y-100457000D01*
X99187000Y-100457000D01*
X98933000Y-100457000D01*
X98913000Y-100457000D01*
X98913000Y-100203000D01*
X98933000Y-100203000D01*
X98933000Y-99060085D01*
X99187000Y-99060085D01*
X99187000Y-100203000D01*
X100330629Y-100203000D01*
X100451914Y-99980959D01*
X100212389Y-99474866D01*
X99797423Y-99098959D01*
X99409039Y-98938096D01*
X99187000Y-99060085D01*
X98933000Y-99060085D01*
X98710961Y-98938096D01*
X98390400Y-99070868D01*
X98390400Y-93988447D01*
X98500091Y-94061740D01*
X98918667Y-94145000D01*
X99201333Y-94145000D01*
X99619909Y-94061740D01*
X100094577Y-93744577D01*
X100411740Y-93269909D01*
X100523113Y-92710000D01*
X100411740Y-92150091D01*
X100094577Y-91675423D01*
X99619909Y-91358260D01*
X99201333Y-91275000D01*
X98918667Y-91275000D01*
X98500091Y-91358260D01*
X98390400Y-91431553D01*
X98390400Y-88889132D01*
X98710961Y-89021904D01*
X98933000Y-88899915D01*
X98933000Y-87757000D01*
X99187000Y-87757000D01*
X99187000Y-88899915D01*
X99409039Y-89021904D01*
X99797423Y-88861041D01*
X100212389Y-88485134D01*
X100451914Y-87979041D01*
X100330629Y-87757000D01*
X99187000Y-87757000D01*
X98933000Y-87757000D01*
X98913000Y-87757000D01*
X98913000Y-87503000D01*
X98933000Y-87503000D01*
X98933000Y-86360085D01*
X99187000Y-86360085D01*
X99187000Y-87503000D01*
X100330629Y-87503000D01*
X100451914Y-87280959D01*
X100212389Y-86774866D01*
X99797423Y-86398959D01*
X99409039Y-86238096D01*
X99187000Y-86360085D01*
X98933000Y-86360085D01*
X98710961Y-86238096D01*
X98390400Y-86370868D01*
X98390400Y-81288447D01*
X98500091Y-81361740D01*
X98918667Y-81445000D01*
X99201333Y-81445000D01*
X99619909Y-81361740D01*
X100094577Y-81044577D01*
X100411740Y-80569909D01*
X100523113Y-80010000D01*
X100411740Y-79450091D01*
X100094577Y-78975423D01*
X99619909Y-78658260D01*
X99201333Y-78575000D01*
X98918667Y-78575000D01*
X98500091Y-78658260D01*
X98390400Y-78731553D01*
X98390400Y-77167548D01*
X98405288Y-77092700D01*
X98390400Y-77017852D01*
X98390400Y-77017848D01*
X98346304Y-76796163D01*
X98346304Y-76796162D01*
X98220729Y-76608227D01*
X98178329Y-76544771D01*
X98114873Y-76502371D01*
X97563590Y-75951088D01*
X97810947Y-75580892D01*
X97907611Y-75785134D01*
X98322577Y-76161041D01*
X98710961Y-76321904D01*
X98933000Y-76199915D01*
X98933000Y-75057000D01*
X99187000Y-75057000D01*
X99187000Y-76199915D01*
X99409039Y-76321904D01*
X99797423Y-76161041D01*
X100212389Y-75785134D01*
X100451914Y-75279041D01*
X100330629Y-75057000D01*
X99187000Y-75057000D01*
X98933000Y-75057000D01*
X98913000Y-75057000D01*
X98913000Y-74803000D01*
X98933000Y-74803000D01*
X98933000Y-73660085D01*
X99187000Y-73660085D01*
X99187000Y-74803000D01*
X100330629Y-74803000D01*
X100451914Y-74580959D01*
X100212389Y-74074866D01*
X99797423Y-73698959D01*
X99409039Y-73538096D01*
X99187000Y-73660085D01*
X98933000Y-73660085D01*
X98710961Y-73538096D01*
X98322577Y-73698959D01*
X97907611Y-74074866D01*
X97810947Y-74279108D01*
X97554577Y-73895423D01*
X97266839Y-73703162D01*
X100458702Y-70511300D01*
X100951989Y-70511300D01*
X101069420Y-70628731D01*
G36*
X83947000Y-57658000D02*
X83967000Y-57658000D01*
X83967000Y-57912000D01*
X83947000Y-57912000D01*
X83947000Y-59105155D01*
X84176890Y-59226476D01*
X84586924Y-59056645D01*
X85015183Y-58666358D01*
X85076157Y-58536522D01*
X85289375Y-58855625D01*
X85780582Y-59183839D01*
X86213744Y-59270000D01*
X86506256Y-59270000D01*
X86939418Y-59183839D01*
X87430625Y-58855625D01*
X87630000Y-58557239D01*
X87829375Y-58855625D01*
X87845859Y-58866639D01*
X84394330Y-62318169D01*
X84330871Y-62360571D01*
X84162896Y-62611964D01*
X84118800Y-62833649D01*
X84118800Y-62833653D01*
X84103912Y-62908500D01*
X84118800Y-62983347D01*
X84118801Y-65906322D01*
X83961333Y-65875000D01*
X83678667Y-65875000D01*
X83260091Y-65958260D01*
X82785423Y-66275423D01*
X82550000Y-66627758D01*
X82314577Y-66275423D01*
X81839909Y-65958260D01*
X81421333Y-65875000D01*
X81138667Y-65875000D01*
X80720091Y-65958260D01*
X80245423Y-66275423D01*
X80010000Y-66627758D01*
X79774577Y-66275423D01*
X79299909Y-65958260D01*
X78881333Y-65875000D01*
X78598667Y-65875000D01*
X78180091Y-65958260D01*
X77705423Y-66275423D01*
X77470000Y-66627758D01*
X77234577Y-66275423D01*
X76759909Y-65958260D01*
X76341333Y-65875000D01*
X76058667Y-65875000D01*
X75640091Y-65958260D01*
X75165423Y-66275423D01*
X74848260Y-66750091D01*
X74736887Y-67310000D01*
X74848260Y-67869909D01*
X75165423Y-68344577D01*
X75640091Y-68661740D01*
X76058667Y-68745000D01*
X76341333Y-68745000D01*
X76759909Y-68661740D01*
X77234577Y-68344577D01*
X77470000Y-67992242D01*
X77705423Y-68344577D01*
X78000852Y-68541976D01*
X78024097Y-68658837D01*
X78141586Y-68834671D01*
X78192072Y-68910229D01*
X78255528Y-68952629D01*
X79032301Y-69729403D01*
X79032301Y-73525029D01*
X78881333Y-73495000D01*
X78598667Y-73495000D01*
X78180091Y-73578260D01*
X77705423Y-73895423D01*
X77634265Y-74001918D01*
X77538327Y-73770302D01*
X77359699Y-73591673D01*
X77126310Y-73495000D01*
X76485750Y-73495000D01*
X76327000Y-73653750D01*
X76327000Y-74803000D01*
X76347000Y-74803000D01*
X76347000Y-75057000D01*
X76327000Y-75057000D01*
X76327000Y-76206250D01*
X76485750Y-76365000D01*
X77126310Y-76365000D01*
X77359699Y-76268327D01*
X77538327Y-76089698D01*
X77634265Y-75858082D01*
X77705423Y-75964577D01*
X78180091Y-76281740D01*
X78598667Y-76365000D01*
X78881333Y-76365000D01*
X79032301Y-76334971D01*
X79032301Y-78649268D01*
X78867000Y-78740085D01*
X78867000Y-79883000D01*
X78887000Y-79883000D01*
X78887000Y-80137000D01*
X78867000Y-80137000D01*
X78867000Y-81279915D01*
X79032300Y-81370732D01*
X79032300Y-86225029D01*
X78881333Y-86195000D01*
X78598667Y-86195000D01*
X78180091Y-86278260D01*
X77705423Y-86595423D01*
X77634265Y-86701918D01*
X77538327Y-86470302D01*
X77359699Y-86291673D01*
X77126310Y-86195000D01*
X76485750Y-86195000D01*
X76327000Y-86353750D01*
X76327000Y-87503000D01*
X76347000Y-87503000D01*
X76347000Y-87757000D01*
X76327000Y-87757000D01*
X76327000Y-88906250D01*
X76485750Y-89065000D01*
X77126310Y-89065000D01*
X77359699Y-88968327D01*
X77538327Y-88789698D01*
X77634265Y-88558082D01*
X77696410Y-88651088D01*
X76985528Y-89361971D01*
X76922072Y-89404371D01*
X76879672Y-89467827D01*
X76879671Y-89467828D01*
X76754097Y-89655763D01*
X76695112Y-89952300D01*
X76710001Y-90027152D01*
X76710001Y-91348333D01*
X76341333Y-91275000D01*
X76058667Y-91275000D01*
X75640091Y-91358260D01*
X75165423Y-91675423D01*
X74848260Y-92150091D01*
X74736887Y-92710000D01*
X74848260Y-93269909D01*
X75114932Y-93669012D01*
X73815131Y-94968814D01*
X73809778Y-94856546D01*
X73643864Y-94455995D01*
X73397745Y-94381861D01*
X72569605Y-95210000D01*
X72583748Y-95224143D01*
X72404143Y-95403748D01*
X72390000Y-95389605D01*
X71561861Y-96217745D01*
X71635995Y-96463864D01*
X72139207Y-96644738D01*
X71746163Y-97037782D01*
X71661831Y-97094131D01*
X71605483Y-97178462D01*
X71605482Y-97178463D01*
X71529755Y-97291797D01*
X71438601Y-97428219D01*
X71380000Y-97722825D01*
X71380000Y-97722829D01*
X71360214Y-97822300D01*
X71380000Y-97921771D01*
X71380001Y-103755603D01*
X71173466Y-103962138D01*
X71115000Y-104103287D01*
X71115000Y-95912978D01*
X71136136Y-95964005D01*
X71382255Y-96038139D01*
X72210395Y-95210000D01*
X71382255Y-94381861D01*
X71136136Y-94455995D01*
X71115000Y-94514798D01*
X71115000Y-93381713D01*
X71173466Y-93522862D01*
X71577138Y-93926534D01*
X71642299Y-93953525D01*
X71635995Y-93956136D01*
X71561861Y-94202255D01*
X72390000Y-95030395D01*
X73218139Y-94202255D01*
X73144005Y-93956136D01*
X73137254Y-93953710D01*
X73202862Y-93926534D01*
X73606534Y-93522862D01*
X73825000Y-92995439D01*
X73825000Y-92424561D01*
X73606534Y-91897138D01*
X73202862Y-91493466D01*
X72675439Y-91275000D01*
X72383355Y-91275000D01*
X72045000Y-90936645D01*
X72045000Y-87915750D01*
X74765000Y-87915750D01*
X74765000Y-88556309D01*
X74861673Y-88789698D01*
X75040301Y-88968327D01*
X75273690Y-89065000D01*
X75914250Y-89065000D01*
X76073000Y-88906250D01*
X76073000Y-87757000D01*
X74923750Y-87757000D01*
X74765000Y-87915750D01*
X72045000Y-87915750D01*
X72045000Y-86703691D01*
X74765000Y-86703691D01*
X74765000Y-87344250D01*
X74923750Y-87503000D01*
X76073000Y-87503000D01*
X76073000Y-86353750D01*
X75914250Y-86195000D01*
X75273690Y-86195000D01*
X75040301Y-86291673D01*
X74861673Y-86470302D01*
X74765000Y-86703691D01*
X72045000Y-86703691D01*
X72045000Y-83950877D01*
X72173223Y-83996965D01*
X72743454Y-83969778D01*
X73144005Y-83803864D01*
X73218139Y-83557745D01*
X72390000Y-82729605D01*
X72375858Y-82743748D01*
X72196253Y-82564143D01*
X72210395Y-82550000D01*
X72569605Y-82550000D01*
X73397745Y-83378139D01*
X73643864Y-83304005D01*
X73836965Y-82766777D01*
X73809778Y-82196546D01*
X73643864Y-81795995D01*
X73397745Y-81721861D01*
X72569605Y-82550000D01*
X72210395Y-82550000D01*
X72196253Y-82535858D01*
X72375858Y-82356253D01*
X72390000Y-82370395D01*
X73218139Y-81542255D01*
X73144005Y-81296136D01*
X73137254Y-81293710D01*
X73202862Y-81266534D01*
X73606534Y-80862862D01*
X73825000Y-80335439D01*
X73825000Y-79764561D01*
X73606534Y-79237138D01*
X73587896Y-79218500D01*
X75003004Y-79218500D01*
X74848260Y-79450091D01*
X74736887Y-80010000D01*
X74848260Y-80569909D01*
X75165423Y-81044577D01*
X75640091Y-81361740D01*
X76058667Y-81445000D01*
X76341333Y-81445000D01*
X76759909Y-81361740D01*
X77234577Y-81044577D01*
X77490947Y-80660892D01*
X77587611Y-80865134D01*
X78002577Y-81241041D01*
X78390961Y-81401904D01*
X78613000Y-81279915D01*
X78613000Y-80137000D01*
X78593000Y-80137000D01*
X78593000Y-79883000D01*
X78613000Y-79883000D01*
X78613000Y-78740085D01*
X78390961Y-78618096D01*
X78002577Y-78778959D01*
X77587611Y-79154866D01*
X77490947Y-79359108D01*
X77234577Y-78975423D01*
X77047059Y-78850127D01*
X77124000Y-78664374D01*
X77124000Y-78252626D01*
X76966431Y-77872220D01*
X76675280Y-77581069D01*
X76294874Y-77423500D01*
X75883126Y-77423500D01*
X75502720Y-77581069D01*
X75385289Y-77698500D01*
X72567848Y-77698500D01*
X72493000Y-77683612D01*
X72418152Y-77698500D01*
X72418148Y-77698500D01*
X72196463Y-77742596D01*
X71945071Y-77910571D01*
X71902671Y-77974027D01*
X70610000Y-79266699D01*
X70610000Y-75215750D01*
X74765000Y-75215750D01*
X74765000Y-75856309D01*
X74861673Y-76089698D01*
X75040301Y-76268327D01*
X75273690Y-76365000D01*
X75914250Y-76365000D01*
X76073000Y-76206250D01*
X76073000Y-75057000D01*
X74923750Y-75057000D01*
X74765000Y-75215750D01*
X70610000Y-75215750D01*
X70610000Y-74003691D01*
X74765000Y-74003691D01*
X74765000Y-74644250D01*
X74923750Y-74803000D01*
X76073000Y-74803000D01*
X76073000Y-73653750D01*
X75914250Y-73495000D01*
X75273690Y-73495000D01*
X75040301Y-73591673D01*
X74861673Y-73770302D01*
X74765000Y-74003691D01*
X70610000Y-74003691D01*
X70610000Y-70817745D01*
X71561861Y-70817745D01*
X71635995Y-71063864D01*
X72173223Y-71256965D01*
X72743454Y-71229778D01*
X73144005Y-71063864D01*
X73218139Y-70817745D01*
X72390000Y-69989605D01*
X71561861Y-70817745D01*
X70610000Y-70817745D01*
X70610000Y-69593223D01*
X70943035Y-69593223D01*
X70970222Y-70163454D01*
X71136136Y-70564005D01*
X71382255Y-70638139D01*
X72210395Y-69810000D01*
X72569605Y-69810000D01*
X73397745Y-70638139D01*
X73643864Y-70564005D01*
X73836965Y-70026777D01*
X73809778Y-69456546D01*
X73643864Y-69055995D01*
X73397745Y-68981861D01*
X72569605Y-69810000D01*
X72210395Y-69810000D01*
X71382255Y-68981861D01*
X71136136Y-69055995D01*
X70943035Y-69593223D01*
X70610000Y-69593223D01*
X70610000Y-68649001D01*
X71162533Y-68096468D01*
X71173466Y-68122862D01*
X71577138Y-68526534D01*
X71642299Y-68553525D01*
X71635995Y-68556136D01*
X71561861Y-68802255D01*
X72390000Y-69630395D01*
X73218139Y-68802255D01*
X73144005Y-68556136D01*
X73137254Y-68553710D01*
X73202862Y-68526534D01*
X73606534Y-68122862D01*
X73825000Y-67595439D01*
X73825000Y-67024561D01*
X73606534Y-66497138D01*
X73202862Y-66093466D01*
X73176468Y-66082533D01*
X78370902Y-60888100D01*
X80467853Y-60888100D01*
X80542700Y-60902988D01*
X80617547Y-60888100D01*
X80617552Y-60888100D01*
X80839237Y-60844004D01*
X81090629Y-60676029D01*
X81133031Y-60612570D01*
X82862571Y-58883031D01*
X83053076Y-59056645D01*
X83463110Y-59226476D01*
X83693000Y-59105155D01*
X83693000Y-57912000D01*
X83673000Y-57912000D01*
X83673000Y-57658000D01*
X83693000Y-57658000D01*
X83693000Y-57638000D01*
X83947000Y-57638000D01*
X83947000Y-57658000D01*
X83947000Y-57658000D01*
G37*
X83947000Y-57658000D02*
X83967000Y-57658000D01*
X83967000Y-57912000D01*
X83947000Y-57912000D01*
X83947000Y-59105155D01*
X84176890Y-59226476D01*
X84586924Y-59056645D01*
X85015183Y-58666358D01*
X85076157Y-58536522D01*
X85289375Y-58855625D01*
X85780582Y-59183839D01*
X86213744Y-59270000D01*
X86506256Y-59270000D01*
X86939418Y-59183839D01*
X87430625Y-58855625D01*
X87630000Y-58557239D01*
X87829375Y-58855625D01*
X87845859Y-58866639D01*
X84394330Y-62318169D01*
X84330871Y-62360571D01*
X84162896Y-62611964D01*
X84118800Y-62833649D01*
X84118800Y-62833653D01*
X84103912Y-62908500D01*
X84118800Y-62983347D01*
X84118801Y-65906322D01*
X83961333Y-65875000D01*
X83678667Y-65875000D01*
X83260091Y-65958260D01*
X82785423Y-66275423D01*
X82550000Y-66627758D01*
X82314577Y-66275423D01*
X81839909Y-65958260D01*
X81421333Y-65875000D01*
X81138667Y-65875000D01*
X80720091Y-65958260D01*
X80245423Y-66275423D01*
X80010000Y-66627758D01*
X79774577Y-66275423D01*
X79299909Y-65958260D01*
X78881333Y-65875000D01*
X78598667Y-65875000D01*
X78180091Y-65958260D01*
X77705423Y-66275423D01*
X77470000Y-66627758D01*
X77234577Y-66275423D01*
X76759909Y-65958260D01*
X76341333Y-65875000D01*
X76058667Y-65875000D01*
X75640091Y-65958260D01*
X75165423Y-66275423D01*
X74848260Y-66750091D01*
X74736887Y-67310000D01*
X74848260Y-67869909D01*
X75165423Y-68344577D01*
X75640091Y-68661740D01*
X76058667Y-68745000D01*
X76341333Y-68745000D01*
X76759909Y-68661740D01*
X77234577Y-68344577D01*
X77470000Y-67992242D01*
X77705423Y-68344577D01*
X78000852Y-68541976D01*
X78024097Y-68658837D01*
X78141586Y-68834671D01*
X78192072Y-68910229D01*
X78255528Y-68952629D01*
X79032301Y-69729403D01*
X79032301Y-73525029D01*
X78881333Y-73495000D01*
X78598667Y-73495000D01*
X78180091Y-73578260D01*
X77705423Y-73895423D01*
X77634265Y-74001918D01*
X77538327Y-73770302D01*
X77359699Y-73591673D01*
X77126310Y-73495000D01*
X76485750Y-73495000D01*
X76327000Y-73653750D01*
X76327000Y-74803000D01*
X76347000Y-74803000D01*
X76347000Y-75057000D01*
X76327000Y-75057000D01*
X76327000Y-76206250D01*
X76485750Y-76365000D01*
X77126310Y-76365000D01*
X77359699Y-76268327D01*
X77538327Y-76089698D01*
X77634265Y-75858082D01*
X77705423Y-75964577D01*
X78180091Y-76281740D01*
X78598667Y-76365000D01*
X78881333Y-76365000D01*
X79032301Y-76334971D01*
X79032301Y-78649268D01*
X78867000Y-78740085D01*
X78867000Y-79883000D01*
X78887000Y-79883000D01*
X78887000Y-80137000D01*
X78867000Y-80137000D01*
X78867000Y-81279915D01*
X79032300Y-81370732D01*
X79032300Y-86225029D01*
X78881333Y-86195000D01*
X78598667Y-86195000D01*
X78180091Y-86278260D01*
X77705423Y-86595423D01*
X77634265Y-86701918D01*
X77538327Y-86470302D01*
X77359699Y-86291673D01*
X77126310Y-86195000D01*
X76485750Y-86195000D01*
X76327000Y-86353750D01*
X76327000Y-87503000D01*
X76347000Y-87503000D01*
X76347000Y-87757000D01*
X76327000Y-87757000D01*
X76327000Y-88906250D01*
X76485750Y-89065000D01*
X77126310Y-89065000D01*
X77359699Y-88968327D01*
X77538327Y-88789698D01*
X77634265Y-88558082D01*
X77696410Y-88651088D01*
X76985528Y-89361971D01*
X76922072Y-89404371D01*
X76879672Y-89467827D01*
X76879671Y-89467828D01*
X76754097Y-89655763D01*
X76695112Y-89952300D01*
X76710001Y-90027152D01*
X76710001Y-91348333D01*
X76341333Y-91275000D01*
X76058667Y-91275000D01*
X75640091Y-91358260D01*
X75165423Y-91675423D01*
X74848260Y-92150091D01*
X74736887Y-92710000D01*
X74848260Y-93269909D01*
X75114932Y-93669012D01*
X73815131Y-94968814D01*
X73809778Y-94856546D01*
X73643864Y-94455995D01*
X73397745Y-94381861D01*
X72569605Y-95210000D01*
X72583748Y-95224143D01*
X72404143Y-95403748D01*
X72390000Y-95389605D01*
X71561861Y-96217745D01*
X71635995Y-96463864D01*
X72139207Y-96644738D01*
X71746163Y-97037782D01*
X71661831Y-97094131D01*
X71605483Y-97178462D01*
X71605482Y-97178463D01*
X71529755Y-97291797D01*
X71438601Y-97428219D01*
X71380000Y-97722825D01*
X71380000Y-97722829D01*
X71360214Y-97822300D01*
X71380000Y-97921771D01*
X71380001Y-103755603D01*
X71173466Y-103962138D01*
X71115000Y-104103287D01*
X71115000Y-95912978D01*
X71136136Y-95964005D01*
X71382255Y-96038139D01*
X72210395Y-95210000D01*
X71382255Y-94381861D01*
X71136136Y-94455995D01*
X71115000Y-94514798D01*
X71115000Y-93381713D01*
X71173466Y-93522862D01*
X71577138Y-93926534D01*
X71642299Y-93953525D01*
X71635995Y-93956136D01*
X71561861Y-94202255D01*
X72390000Y-95030395D01*
X73218139Y-94202255D01*
X73144005Y-93956136D01*
X73137254Y-93953710D01*
X73202862Y-93926534D01*
X73606534Y-93522862D01*
X73825000Y-92995439D01*
X73825000Y-92424561D01*
X73606534Y-91897138D01*
X73202862Y-91493466D01*
X72675439Y-91275000D01*
X72383355Y-91275000D01*
X72045000Y-90936645D01*
X72045000Y-87915750D01*
X74765000Y-87915750D01*
X74765000Y-88556309D01*
X74861673Y-88789698D01*
X75040301Y-88968327D01*
X75273690Y-89065000D01*
X75914250Y-89065000D01*
X76073000Y-88906250D01*
X76073000Y-87757000D01*
X74923750Y-87757000D01*
X74765000Y-87915750D01*
X72045000Y-87915750D01*
X72045000Y-86703691D01*
X74765000Y-86703691D01*
X74765000Y-87344250D01*
X74923750Y-87503000D01*
X76073000Y-87503000D01*
X76073000Y-86353750D01*
X75914250Y-86195000D01*
X75273690Y-86195000D01*
X75040301Y-86291673D01*
X74861673Y-86470302D01*
X74765000Y-86703691D01*
X72045000Y-86703691D01*
X72045000Y-83950877D01*
X72173223Y-83996965D01*
X72743454Y-83969778D01*
X73144005Y-83803864D01*
X73218139Y-83557745D01*
X72390000Y-82729605D01*
X72375858Y-82743748D01*
X72196253Y-82564143D01*
X72210395Y-82550000D01*
X72569605Y-82550000D01*
X73397745Y-83378139D01*
X73643864Y-83304005D01*
X73836965Y-82766777D01*
X73809778Y-82196546D01*
X73643864Y-81795995D01*
X73397745Y-81721861D01*
X72569605Y-82550000D01*
X72210395Y-82550000D01*
X72196253Y-82535858D01*
X72375858Y-82356253D01*
X72390000Y-82370395D01*
X73218139Y-81542255D01*
X73144005Y-81296136D01*
X73137254Y-81293710D01*
X73202862Y-81266534D01*
X73606534Y-80862862D01*
X73825000Y-80335439D01*
X73825000Y-79764561D01*
X73606534Y-79237138D01*
X73587896Y-79218500D01*
X75003004Y-79218500D01*
X74848260Y-79450091D01*
X74736887Y-80010000D01*
X74848260Y-80569909D01*
X75165423Y-81044577D01*
X75640091Y-81361740D01*
X76058667Y-81445000D01*
X76341333Y-81445000D01*
X76759909Y-81361740D01*
X77234577Y-81044577D01*
X77490947Y-80660892D01*
X77587611Y-80865134D01*
X78002577Y-81241041D01*
X78390961Y-81401904D01*
X78613000Y-81279915D01*
X78613000Y-80137000D01*
X78593000Y-80137000D01*
X78593000Y-79883000D01*
X78613000Y-79883000D01*
X78613000Y-78740085D01*
X78390961Y-78618096D01*
X78002577Y-78778959D01*
X77587611Y-79154866D01*
X77490947Y-79359108D01*
X77234577Y-78975423D01*
X77047059Y-78850127D01*
X77124000Y-78664374D01*
X77124000Y-78252626D01*
X76966431Y-77872220D01*
X76675280Y-77581069D01*
X76294874Y-77423500D01*
X75883126Y-77423500D01*
X75502720Y-77581069D01*
X75385289Y-77698500D01*
X72567848Y-77698500D01*
X72493000Y-77683612D01*
X72418152Y-77698500D01*
X72418148Y-77698500D01*
X72196463Y-77742596D01*
X71945071Y-77910571D01*
X71902671Y-77974027D01*
X70610000Y-79266699D01*
X70610000Y-75215750D01*
X74765000Y-75215750D01*
X74765000Y-75856309D01*
X74861673Y-76089698D01*
X75040301Y-76268327D01*
X75273690Y-76365000D01*
X75914250Y-76365000D01*
X76073000Y-76206250D01*
X76073000Y-75057000D01*
X74923750Y-75057000D01*
X74765000Y-75215750D01*
X70610000Y-75215750D01*
X70610000Y-74003691D01*
X74765000Y-74003691D01*
X74765000Y-74644250D01*
X74923750Y-74803000D01*
X76073000Y-74803000D01*
X76073000Y-73653750D01*
X75914250Y-73495000D01*
X75273690Y-73495000D01*
X75040301Y-73591673D01*
X74861673Y-73770302D01*
X74765000Y-74003691D01*
X70610000Y-74003691D01*
X70610000Y-70817745D01*
X71561861Y-70817745D01*
X71635995Y-71063864D01*
X72173223Y-71256965D01*
X72743454Y-71229778D01*
X73144005Y-71063864D01*
X73218139Y-70817745D01*
X72390000Y-69989605D01*
X71561861Y-70817745D01*
X70610000Y-70817745D01*
X70610000Y-69593223D01*
X70943035Y-69593223D01*
X70970222Y-70163454D01*
X71136136Y-70564005D01*
X71382255Y-70638139D01*
X72210395Y-69810000D01*
X72569605Y-69810000D01*
X73397745Y-70638139D01*
X73643864Y-70564005D01*
X73836965Y-70026777D01*
X73809778Y-69456546D01*
X73643864Y-69055995D01*
X73397745Y-68981861D01*
X72569605Y-69810000D01*
X72210395Y-69810000D01*
X71382255Y-68981861D01*
X71136136Y-69055995D01*
X70943035Y-69593223D01*
X70610000Y-69593223D01*
X70610000Y-68649001D01*
X71162533Y-68096468D01*
X71173466Y-68122862D01*
X71577138Y-68526534D01*
X71642299Y-68553525D01*
X71635995Y-68556136D01*
X71561861Y-68802255D01*
X72390000Y-69630395D01*
X73218139Y-68802255D01*
X73144005Y-68556136D01*
X73137254Y-68553710D01*
X73202862Y-68526534D01*
X73606534Y-68122862D01*
X73825000Y-67595439D01*
X73825000Y-67024561D01*
X73606534Y-66497138D01*
X73202862Y-66093466D01*
X73176468Y-66082533D01*
X78370902Y-60888100D01*
X80467853Y-60888100D01*
X80542700Y-60902988D01*
X80617547Y-60888100D01*
X80617552Y-60888100D01*
X80839237Y-60844004D01*
X81090629Y-60676029D01*
X81133031Y-60612570D01*
X82862571Y-58883031D01*
X83053076Y-59056645D01*
X83463110Y-59226476D01*
X83693000Y-59105155D01*
X83693000Y-57912000D01*
X83673000Y-57912000D01*
X83673000Y-57658000D01*
X83693000Y-57658000D01*
X83693000Y-57638000D01*
X83947000Y-57638000D01*
X83947000Y-57658000D01*
G36*
X37934814Y-91488215D02*
X37922138Y-91493466D01*
X37518466Y-91897138D01*
X37300000Y-92424561D01*
X37300000Y-92995439D01*
X37518466Y-93522862D01*
X37922138Y-93926534D01*
X37987299Y-93953525D01*
X37980995Y-93956136D01*
X37906861Y-94202255D01*
X38735000Y-95030395D01*
X39563139Y-94202255D01*
X39489005Y-93956136D01*
X39482254Y-93953710D01*
X39547862Y-93926534D01*
X39951534Y-93522862D01*
X39956784Y-93510186D01*
X41785000Y-95338402D01*
X41785001Y-98882560D01*
X41745000Y-98882560D01*
X41497235Y-98931843D01*
X41287191Y-99072191D01*
X41146843Y-99282235D01*
X41097560Y-99530000D01*
X41097560Y-99791458D01*
X37523847Y-96217745D01*
X37906861Y-96217745D01*
X37980995Y-96463864D01*
X38518223Y-96656965D01*
X39088454Y-96629778D01*
X39489005Y-96463864D01*
X39563139Y-96217745D01*
X38735000Y-95389605D01*
X37906861Y-96217745D01*
X37523847Y-96217745D01*
X36883900Y-95577799D01*
X36883900Y-94993223D01*
X37288035Y-94993223D01*
X37315222Y-95563454D01*
X37481136Y-95964005D01*
X37727255Y-96038139D01*
X38555395Y-95210000D01*
X38914605Y-95210000D01*
X39742745Y-96038139D01*
X39988864Y-95964005D01*
X40181965Y-95426777D01*
X40154778Y-94856546D01*
X39988864Y-94455995D01*
X39742745Y-94381861D01*
X38914605Y-95210000D01*
X38555395Y-95210000D01*
X37727255Y-94381861D01*
X37481136Y-94455995D01*
X37288035Y-94993223D01*
X36883900Y-94993223D01*
X36883900Y-91668611D01*
X37001331Y-91551180D01*
X37158900Y-91170774D01*
X37158900Y-90759026D01*
X37125861Y-90679262D01*
X37934814Y-91488215D01*
X37934814Y-91488215D01*
G37*
X37934814Y-91488215D02*
X37922138Y-91493466D01*
X37518466Y-91897138D01*
X37300000Y-92424561D01*
X37300000Y-92995439D01*
X37518466Y-93522862D01*
X37922138Y-93926534D01*
X37987299Y-93953525D01*
X37980995Y-93956136D01*
X37906861Y-94202255D01*
X38735000Y-95030395D01*
X39563139Y-94202255D01*
X39489005Y-93956136D01*
X39482254Y-93953710D01*
X39547862Y-93926534D01*
X39951534Y-93522862D01*
X39956784Y-93510186D01*
X41785000Y-95338402D01*
X41785001Y-98882560D01*
X41745000Y-98882560D01*
X41497235Y-98931843D01*
X41287191Y-99072191D01*
X41146843Y-99282235D01*
X41097560Y-99530000D01*
X41097560Y-99791458D01*
X37523847Y-96217745D01*
X37906861Y-96217745D01*
X37980995Y-96463864D01*
X38518223Y-96656965D01*
X39088454Y-96629778D01*
X39489005Y-96463864D01*
X39563139Y-96217745D01*
X38735000Y-95389605D01*
X37906861Y-96217745D01*
X37523847Y-96217745D01*
X36883900Y-95577799D01*
X36883900Y-94993223D01*
X37288035Y-94993223D01*
X37315222Y-95563454D01*
X37481136Y-95964005D01*
X37727255Y-96038139D01*
X38555395Y-95210000D01*
X38914605Y-95210000D01*
X39742745Y-96038139D01*
X39988864Y-95964005D01*
X40181965Y-95426777D01*
X40154778Y-94856546D01*
X39988864Y-94455995D01*
X39742745Y-94381861D01*
X38914605Y-95210000D01*
X38555395Y-95210000D01*
X37727255Y-94381861D01*
X37481136Y-94455995D01*
X37288035Y-94993223D01*
X36883900Y-94993223D01*
X36883900Y-91668611D01*
X37001331Y-91551180D01*
X37158900Y-91170774D01*
X37158900Y-90759026D01*
X37125861Y-90679262D01*
X37934814Y-91488215D01*
G36*
X106958700Y-86346189D02*
X106841269Y-86463620D01*
X106683700Y-86844026D01*
X106683700Y-87255774D01*
X106841269Y-87636180D01*
X107132420Y-87927331D01*
X107428570Y-88050000D01*
X106965750Y-88050000D01*
X106807000Y-88208750D01*
X106807000Y-89408000D01*
X106827000Y-89408000D01*
X106827000Y-89662000D01*
X106807000Y-89662000D01*
X106807000Y-89682000D01*
X106553000Y-89682000D01*
X106553000Y-89662000D01*
X106533000Y-89662000D01*
X106533000Y-89408000D01*
X106553000Y-89408000D01*
X106553000Y-88208750D01*
X106394250Y-88050000D01*
X105703691Y-88050000D01*
X105470302Y-88146673D01*
X105425700Y-88191275D01*
X105425700Y-65176701D01*
X106958701Y-63643700D01*
X106958700Y-86346189D01*
X106958700Y-86346189D01*
G37*
X106958700Y-86346189D02*
X106841269Y-86463620D01*
X106683700Y-86844026D01*
X106683700Y-87255774D01*
X106841269Y-87636180D01*
X107132420Y-87927331D01*
X107428570Y-88050000D01*
X106965750Y-88050000D01*
X106807000Y-88208750D01*
X106807000Y-89408000D01*
X106827000Y-89408000D01*
X106827000Y-89662000D01*
X106807000Y-89662000D01*
X106807000Y-89682000D01*
X106553000Y-89682000D01*
X106553000Y-89662000D01*
X106533000Y-89662000D01*
X106533000Y-89408000D01*
X106553000Y-89408000D01*
X106553000Y-88208750D01*
X106394250Y-88050000D01*
X105703691Y-88050000D01*
X105470302Y-88146673D01*
X105425700Y-88191275D01*
X105425700Y-65176701D01*
X106958701Y-63643700D01*
X106958700Y-86346189D01*
G36*
X114493748Y-22845858D02*
X114479605Y-22860000D01*
X114493748Y-22874143D01*
X114314143Y-23053748D01*
X114300000Y-23039605D01*
X113471861Y-23867745D01*
X113545995Y-24113864D01*
X114083223Y-24306965D01*
X114632101Y-24280796D01*
X114632101Y-60824487D01*
X114516777Y-60783035D01*
X114122400Y-60801838D01*
X114122400Y-56696870D01*
X114142186Y-56597399D01*
X114122400Y-56497928D01*
X114122400Y-56497924D01*
X114063799Y-56203318D01*
X113840569Y-55869231D01*
X113756237Y-55812882D01*
X113257440Y-55314085D01*
X113257440Y-54395000D01*
X113208157Y-54147235D01*
X113098273Y-53982783D01*
X113756140Y-53324916D01*
X113840469Y-53268569D01*
X113896816Y-53184240D01*
X113896818Y-53184238D01*
X114041896Y-52967112D01*
X114063699Y-52934482D01*
X114122300Y-52639876D01*
X114122300Y-52639872D01*
X114142086Y-52540401D01*
X114122300Y-52440930D01*
X114122300Y-28756770D01*
X114142086Y-28657299D01*
X114122300Y-28557828D01*
X114122300Y-28557824D01*
X114063699Y-28263218D01*
X113961832Y-28110763D01*
X113896818Y-28013462D01*
X113896816Y-28013460D01*
X113840469Y-27929131D01*
X113756141Y-27872785D01*
X113257440Y-27374084D01*
X113257440Y-26455000D01*
X113208157Y-26207235D01*
X113067809Y-25997191D01*
X112857765Y-25856843D01*
X112817065Y-25848747D01*
X112810000Y-25813228D01*
X112810000Y-23879396D01*
X113016534Y-23672862D01*
X113043525Y-23607701D01*
X113046136Y-23614005D01*
X113292255Y-23688139D01*
X114120395Y-22860000D01*
X114106253Y-22845858D01*
X114285858Y-22666253D01*
X114300000Y-22680395D01*
X114314143Y-22666253D01*
X114493748Y-22845858D01*
X114493748Y-22845858D01*
G37*
X114493748Y-22845858D02*
X114479605Y-22860000D01*
X114493748Y-22874143D01*
X114314143Y-23053748D01*
X114300000Y-23039605D01*
X113471861Y-23867745D01*
X113545995Y-24113864D01*
X114083223Y-24306965D01*
X114632101Y-24280796D01*
X114632101Y-60824487D01*
X114516777Y-60783035D01*
X114122400Y-60801838D01*
X114122400Y-56696870D01*
X114142186Y-56597399D01*
X114122400Y-56497928D01*
X114122400Y-56497924D01*
X114063799Y-56203318D01*
X113840569Y-55869231D01*
X113756237Y-55812882D01*
X113257440Y-55314085D01*
X113257440Y-54395000D01*
X113208157Y-54147235D01*
X113098273Y-53982783D01*
X113756140Y-53324916D01*
X113840469Y-53268569D01*
X113896816Y-53184240D01*
X113896818Y-53184238D01*
X114041896Y-52967112D01*
X114063699Y-52934482D01*
X114122300Y-52639876D01*
X114122300Y-52639872D01*
X114142086Y-52540401D01*
X114122300Y-52440930D01*
X114122300Y-28756770D01*
X114142086Y-28657299D01*
X114122300Y-28557828D01*
X114122300Y-28557824D01*
X114063699Y-28263218D01*
X113961832Y-28110763D01*
X113896818Y-28013462D01*
X113896816Y-28013460D01*
X113840469Y-27929131D01*
X113756141Y-27872785D01*
X113257440Y-27374084D01*
X113257440Y-26455000D01*
X113208157Y-26207235D01*
X113067809Y-25997191D01*
X112857765Y-25856843D01*
X112817065Y-25848747D01*
X112810000Y-25813228D01*
X112810000Y-23879396D01*
X113016534Y-23672862D01*
X113043525Y-23607701D01*
X113046136Y-23614005D01*
X113292255Y-23688139D01*
X114120395Y-22860000D01*
X114106253Y-22845858D01*
X114285858Y-22666253D01*
X114300000Y-22680395D01*
X114314143Y-22666253D01*
X114493748Y-22845858D01*
G36*
X91567000Y-29718000D02*
X91587000Y-29718000D01*
X91587000Y-29972000D01*
X91567000Y-29972000D01*
X91567000Y-31165155D01*
X91796890Y-31286476D01*
X92154218Y-31138475D01*
X92160397Y-31169537D01*
X92265095Y-31326228D01*
X92328372Y-31420929D01*
X92391828Y-31463329D01*
X94335600Y-33407102D01*
X94335601Y-53804204D01*
X94107000Y-53924845D01*
X94107000Y-55118000D01*
X94127000Y-55118000D01*
X94127000Y-55372000D01*
X94107000Y-55372000D01*
X94107000Y-57658000D01*
X94127000Y-57658000D01*
X94127000Y-57912000D01*
X94107000Y-57912000D01*
X94107000Y-59105155D01*
X94199322Y-59153876D01*
X93319171Y-60034027D01*
X93331688Y-59971100D01*
X93316800Y-59896252D01*
X93316800Y-59099606D01*
X93623110Y-59226476D01*
X93853000Y-59105155D01*
X93853000Y-57912000D01*
X93833000Y-57912000D01*
X93833000Y-57658000D01*
X93853000Y-57658000D01*
X93853000Y-55372000D01*
X93833000Y-55372000D01*
X93833000Y-55118000D01*
X93853000Y-55118000D01*
X93853000Y-53924845D01*
X93623110Y-53803524D01*
X93316800Y-53930394D01*
X93316800Y-33857947D01*
X93331688Y-33783100D01*
X93316800Y-33708253D01*
X93316800Y-33708248D01*
X93272704Y-33486563D01*
X93104729Y-33235171D01*
X93041273Y-33192771D01*
X91117060Y-31268559D01*
X91313000Y-31165155D01*
X91313000Y-29972000D01*
X91293000Y-29972000D01*
X91293000Y-29718000D01*
X91313000Y-29718000D01*
X91313000Y-29698000D01*
X91567000Y-29698000D01*
X91567000Y-29718000D01*
X91567000Y-29718000D01*
G37*
X91567000Y-29718000D02*
X91587000Y-29718000D01*
X91587000Y-29972000D01*
X91567000Y-29972000D01*
X91567000Y-31165155D01*
X91796890Y-31286476D01*
X92154218Y-31138475D01*
X92160397Y-31169537D01*
X92265095Y-31326228D01*
X92328372Y-31420929D01*
X92391828Y-31463329D01*
X94335600Y-33407102D01*
X94335601Y-53804204D01*
X94107000Y-53924845D01*
X94107000Y-55118000D01*
X94127000Y-55118000D01*
X94127000Y-55372000D01*
X94107000Y-55372000D01*
X94107000Y-57658000D01*
X94127000Y-57658000D01*
X94127000Y-57912000D01*
X94107000Y-57912000D01*
X94107000Y-59105155D01*
X94199322Y-59153876D01*
X93319171Y-60034027D01*
X93331688Y-59971100D01*
X93316800Y-59896252D01*
X93316800Y-59099606D01*
X93623110Y-59226476D01*
X93853000Y-59105155D01*
X93853000Y-57912000D01*
X93833000Y-57912000D01*
X93833000Y-57658000D01*
X93853000Y-57658000D01*
X93853000Y-55372000D01*
X93833000Y-55372000D01*
X93833000Y-55118000D01*
X93853000Y-55118000D01*
X93853000Y-53924845D01*
X93623110Y-53803524D01*
X93316800Y-53930394D01*
X93316800Y-33857947D01*
X93331688Y-33783100D01*
X93316800Y-33708253D01*
X93316800Y-33708248D01*
X93272704Y-33486563D01*
X93104729Y-33235171D01*
X93041273Y-33192771D01*
X91117060Y-31268559D01*
X91313000Y-31165155D01*
X91313000Y-29972000D01*
X91293000Y-29972000D01*
X91293000Y-29718000D01*
X91313000Y-29718000D01*
X91313000Y-29698000D01*
X91567000Y-29698000D01*
X91567000Y-29718000D01*
G36*
X55888500Y-35983902D02*
X55888501Y-45720058D01*
X55594039Y-45598096D01*
X55372000Y-45720085D01*
X55372000Y-46863000D01*
X55392000Y-46863000D01*
X55392000Y-47117000D01*
X55372000Y-47117000D01*
X55372000Y-48259915D01*
X55594039Y-48381904D01*
X55982423Y-48221041D01*
X56018026Y-48188790D01*
X56029600Y-48206112D01*
X56029600Y-48386374D01*
X56127990Y-48623908D01*
X51185729Y-53566170D01*
X50724909Y-53258260D01*
X50306333Y-53175000D01*
X50023667Y-53175000D01*
X49605091Y-53258260D01*
X49130423Y-53575423D01*
X49049785Y-53696106D01*
X49023157Y-53562235D01*
X48882809Y-53352191D01*
X48672765Y-53211843D01*
X48425000Y-53162560D01*
X46825000Y-53162560D01*
X46577235Y-53211843D01*
X46367191Y-53352191D01*
X46226843Y-53562235D01*
X46177560Y-53810000D01*
X46177560Y-55410000D01*
X46226843Y-55657765D01*
X46358178Y-55854320D01*
X43555000Y-58657499D01*
X43555000Y-47339041D01*
X46233086Y-47339041D01*
X46472611Y-47845134D01*
X46887577Y-48221041D01*
X47275961Y-48381904D01*
X47498000Y-48259915D01*
X47498000Y-47117000D01*
X47752000Y-47117000D01*
X47752000Y-48259915D01*
X47974039Y-48381904D01*
X48362423Y-48221041D01*
X48777389Y-47845134D01*
X48895000Y-47596633D01*
X49012611Y-47845134D01*
X49427577Y-48221041D01*
X49815961Y-48381904D01*
X50038000Y-48259915D01*
X50038000Y-47117000D01*
X50292000Y-47117000D01*
X50292000Y-48259915D01*
X50514039Y-48381904D01*
X50902423Y-48221041D01*
X51317389Y-47845134D01*
X51435000Y-47596633D01*
X51552611Y-47845134D01*
X51967577Y-48221041D01*
X52355961Y-48381904D01*
X52578000Y-48259915D01*
X52578000Y-47117000D01*
X52832000Y-47117000D01*
X52832000Y-48259915D01*
X53054039Y-48381904D01*
X53442423Y-48221041D01*
X53857389Y-47845134D01*
X53975000Y-47596633D01*
X54092611Y-47845134D01*
X54507577Y-48221041D01*
X54895961Y-48381904D01*
X55118000Y-48259915D01*
X55118000Y-47117000D01*
X52832000Y-47117000D01*
X52578000Y-47117000D01*
X50292000Y-47117000D01*
X50038000Y-47117000D01*
X47752000Y-47117000D01*
X47498000Y-47117000D01*
X46354371Y-47117000D01*
X46233086Y-47339041D01*
X43555000Y-47339041D01*
X43555000Y-46640959D01*
X46233086Y-46640959D01*
X46354371Y-46863000D01*
X47498000Y-46863000D01*
X47498000Y-45720085D01*
X47752000Y-45720085D01*
X47752000Y-46863000D01*
X50038000Y-46863000D01*
X50038000Y-45720085D01*
X50292000Y-45720085D01*
X50292000Y-46863000D01*
X52578000Y-46863000D01*
X52578000Y-45720085D01*
X52832000Y-45720085D01*
X52832000Y-46863000D01*
X55118000Y-46863000D01*
X55118000Y-45720085D01*
X54895961Y-45598096D01*
X54507577Y-45758959D01*
X54092611Y-46134866D01*
X53975000Y-46383367D01*
X53857389Y-46134866D01*
X53442423Y-45758959D01*
X53054039Y-45598096D01*
X52832000Y-45720085D01*
X52578000Y-45720085D01*
X52355961Y-45598096D01*
X51967577Y-45758959D01*
X51552611Y-46134866D01*
X51435000Y-46383367D01*
X51317389Y-46134866D01*
X50902423Y-45758959D01*
X50514039Y-45598096D01*
X50292000Y-45720085D01*
X50038000Y-45720085D01*
X49815961Y-45598096D01*
X49427577Y-45758959D01*
X49012611Y-46134866D01*
X48895000Y-46383367D01*
X48777389Y-46134866D01*
X48362423Y-45758959D01*
X47974039Y-45598096D01*
X47752000Y-45720085D01*
X47498000Y-45720085D01*
X47275961Y-45598096D01*
X46887577Y-45758959D01*
X46472611Y-46134866D01*
X46233086Y-46640959D01*
X43555000Y-46640959D01*
X43555000Y-41650000D01*
X46852129Y-41650000D01*
X46951600Y-41669786D01*
X47051071Y-41650000D01*
X47051076Y-41650000D01*
X47345682Y-41591399D01*
X47679769Y-41368169D01*
X47736118Y-41283837D01*
X52713841Y-36306115D01*
X52798169Y-36249769D01*
X52854516Y-36165440D01*
X52854518Y-36165438D01*
X52988020Y-35965637D01*
X53021399Y-35915682D01*
X53080000Y-35621076D01*
X53080000Y-35621071D01*
X53099786Y-35521600D01*
X53080000Y-35422129D01*
X53080000Y-34039396D01*
X53286534Y-33832862D01*
X53418607Y-33514009D01*
X55888500Y-35983902D01*
X55888500Y-35983902D01*
G37*
X55888500Y-35983902D02*
X55888501Y-45720058D01*
X55594039Y-45598096D01*
X55372000Y-45720085D01*
X55372000Y-46863000D01*
X55392000Y-46863000D01*
X55392000Y-47117000D01*
X55372000Y-47117000D01*
X55372000Y-48259915D01*
X55594039Y-48381904D01*
X55982423Y-48221041D01*
X56018026Y-48188790D01*
X56029600Y-48206112D01*
X56029600Y-48386374D01*
X56127990Y-48623908D01*
X51185729Y-53566170D01*
X50724909Y-53258260D01*
X50306333Y-53175000D01*
X50023667Y-53175000D01*
X49605091Y-53258260D01*
X49130423Y-53575423D01*
X49049785Y-53696106D01*
X49023157Y-53562235D01*
X48882809Y-53352191D01*
X48672765Y-53211843D01*
X48425000Y-53162560D01*
X46825000Y-53162560D01*
X46577235Y-53211843D01*
X46367191Y-53352191D01*
X46226843Y-53562235D01*
X46177560Y-53810000D01*
X46177560Y-55410000D01*
X46226843Y-55657765D01*
X46358178Y-55854320D01*
X43555000Y-58657499D01*
X43555000Y-47339041D01*
X46233086Y-47339041D01*
X46472611Y-47845134D01*
X46887577Y-48221041D01*
X47275961Y-48381904D01*
X47498000Y-48259915D01*
X47498000Y-47117000D01*
X47752000Y-47117000D01*
X47752000Y-48259915D01*
X47974039Y-48381904D01*
X48362423Y-48221041D01*
X48777389Y-47845134D01*
X48895000Y-47596633D01*
X49012611Y-47845134D01*
X49427577Y-48221041D01*
X49815961Y-48381904D01*
X50038000Y-48259915D01*
X50038000Y-47117000D01*
X50292000Y-47117000D01*
X50292000Y-48259915D01*
X50514039Y-48381904D01*
X50902423Y-48221041D01*
X51317389Y-47845134D01*
X51435000Y-47596633D01*
X51552611Y-47845134D01*
X51967577Y-48221041D01*
X52355961Y-48381904D01*
X52578000Y-48259915D01*
X52578000Y-47117000D01*
X52832000Y-47117000D01*
X52832000Y-48259915D01*
X53054039Y-48381904D01*
X53442423Y-48221041D01*
X53857389Y-47845134D01*
X53975000Y-47596633D01*
X54092611Y-47845134D01*
X54507577Y-48221041D01*
X54895961Y-48381904D01*
X55118000Y-48259915D01*
X55118000Y-47117000D01*
X52832000Y-47117000D01*
X52578000Y-47117000D01*
X50292000Y-47117000D01*
X50038000Y-47117000D01*
X47752000Y-47117000D01*
X47498000Y-47117000D01*
X46354371Y-47117000D01*
X46233086Y-47339041D01*
X43555000Y-47339041D01*
X43555000Y-46640959D01*
X46233086Y-46640959D01*
X46354371Y-46863000D01*
X47498000Y-46863000D01*
X47498000Y-45720085D01*
X47752000Y-45720085D01*
X47752000Y-46863000D01*
X50038000Y-46863000D01*
X50038000Y-45720085D01*
X50292000Y-45720085D01*
X50292000Y-46863000D01*
X52578000Y-46863000D01*
X52578000Y-45720085D01*
X52832000Y-45720085D01*
X52832000Y-46863000D01*
X55118000Y-46863000D01*
X55118000Y-45720085D01*
X54895961Y-45598096D01*
X54507577Y-45758959D01*
X54092611Y-46134866D01*
X53975000Y-46383367D01*
X53857389Y-46134866D01*
X53442423Y-45758959D01*
X53054039Y-45598096D01*
X52832000Y-45720085D01*
X52578000Y-45720085D01*
X52355961Y-45598096D01*
X51967577Y-45758959D01*
X51552611Y-46134866D01*
X51435000Y-46383367D01*
X51317389Y-46134866D01*
X50902423Y-45758959D01*
X50514039Y-45598096D01*
X50292000Y-45720085D01*
X50038000Y-45720085D01*
X49815961Y-45598096D01*
X49427577Y-45758959D01*
X49012611Y-46134866D01*
X48895000Y-46383367D01*
X48777389Y-46134866D01*
X48362423Y-45758959D01*
X47974039Y-45598096D01*
X47752000Y-45720085D01*
X47498000Y-45720085D01*
X47275961Y-45598096D01*
X46887577Y-45758959D01*
X46472611Y-46134866D01*
X46233086Y-46640959D01*
X43555000Y-46640959D01*
X43555000Y-41650000D01*
X46852129Y-41650000D01*
X46951600Y-41669786D01*
X47051071Y-41650000D01*
X47051076Y-41650000D01*
X47345682Y-41591399D01*
X47679769Y-41368169D01*
X47736118Y-41283837D01*
X52713841Y-36306115D01*
X52798169Y-36249769D01*
X52854516Y-36165440D01*
X52854518Y-36165438D01*
X52988020Y-35965637D01*
X53021399Y-35915682D01*
X53080000Y-35621076D01*
X53080000Y-35621071D01*
X53099786Y-35521600D01*
X53080000Y-35422129D01*
X53080000Y-34039396D01*
X53286534Y-33832862D01*
X53418607Y-33514009D01*
X55888500Y-35983902D01*
G36*
X101727000Y-57658000D02*
X101747000Y-57658000D01*
X101747000Y-57912000D01*
X101727000Y-57912000D01*
X101727000Y-57932000D01*
X101473000Y-57932000D01*
X101473000Y-57912000D01*
X101453000Y-57912000D01*
X101453000Y-57658000D01*
X101473000Y-57658000D01*
X101473000Y-57638000D01*
X101727000Y-57638000D01*
X101727000Y-57658000D01*
X101727000Y-57658000D01*
G37*
X101727000Y-57658000D02*
X101747000Y-57658000D01*
X101747000Y-57912000D01*
X101727000Y-57912000D01*
X101727000Y-57932000D01*
X101473000Y-57932000D01*
X101473000Y-57912000D01*
X101453000Y-57912000D01*
X101453000Y-57658000D01*
X101473000Y-57658000D01*
X101473000Y-57638000D01*
X101727000Y-57638000D01*
X101727000Y-57658000D01*
G36*
X83947000Y-55118000D02*
X83967000Y-55118000D01*
X83967000Y-55372000D01*
X83947000Y-55372000D01*
X83947000Y-55392000D01*
X83693000Y-55392000D01*
X83693000Y-55372000D01*
X83673000Y-55372000D01*
X83673000Y-55118000D01*
X83693000Y-55118000D01*
X83693000Y-55098000D01*
X83947000Y-55098000D01*
X83947000Y-55118000D01*
X83947000Y-55118000D01*
G37*
X83947000Y-55118000D02*
X83967000Y-55118000D01*
X83967000Y-55372000D01*
X83947000Y-55372000D01*
X83947000Y-55392000D01*
X83693000Y-55392000D01*
X83693000Y-55372000D01*
X83673000Y-55372000D01*
X83673000Y-55118000D01*
X83693000Y-55118000D01*
X83693000Y-55098000D01*
X83947000Y-55098000D01*
X83947000Y-55118000D01*
G36*
X77609172Y-28285526D02*
X64277130Y-41617569D01*
X64213671Y-41659971D01*
X64045696Y-41911364D01*
X64001600Y-42133049D01*
X64001600Y-42133053D01*
X63986712Y-42207900D01*
X64001600Y-42282747D01*
X64001601Y-46120564D01*
X63602423Y-45758959D01*
X63214039Y-45598096D01*
X62992000Y-45720085D01*
X62992000Y-46863000D01*
X63012000Y-46863000D01*
X63012000Y-47117000D01*
X62992000Y-47117000D01*
X62992000Y-47137000D01*
X62738000Y-47137000D01*
X62738000Y-47117000D01*
X60452000Y-47117000D01*
X60452000Y-48259915D01*
X60674039Y-48381904D01*
X61062423Y-48221041D01*
X61477389Y-47845134D01*
X61595000Y-47596633D01*
X61712611Y-47845134D01*
X62127577Y-48221041D01*
X62134988Y-48224111D01*
X60378999Y-49980100D01*
X57167746Y-49980100D01*
X57092899Y-49965212D01*
X57018052Y-49980100D01*
X57018048Y-49980100D01*
X56897404Y-50004098D01*
X57280402Y-49621100D01*
X57338753Y-49621100D01*
X57413600Y-49635988D01*
X57488447Y-49621100D01*
X57488452Y-49621100D01*
X57710137Y-49577004D01*
X57961529Y-49409029D01*
X58003931Y-49345570D01*
X59346682Y-48002820D01*
X59587577Y-48221041D01*
X59975961Y-48381904D01*
X60198000Y-48259915D01*
X60198000Y-47117000D01*
X60178000Y-47117000D01*
X60178000Y-46863000D01*
X60198000Y-46863000D01*
X60198000Y-45720085D01*
X60452000Y-45720085D01*
X60452000Y-46863000D01*
X62738000Y-46863000D01*
X62738000Y-45720085D01*
X62515961Y-45598096D01*
X62127577Y-45758959D01*
X61712611Y-46134866D01*
X61595000Y-46383367D01*
X61477389Y-46134866D01*
X61062423Y-45758959D01*
X60674039Y-45598096D01*
X60452000Y-45720085D01*
X60198000Y-45720085D01*
X59975961Y-45598096D01*
X59948600Y-45609429D01*
X59948600Y-45579301D01*
X77462255Y-28065647D01*
X77609172Y-28285526D01*
X77609172Y-28285526D01*
G37*
X77609172Y-28285526D02*
X64277130Y-41617569D01*
X64213671Y-41659971D01*
X64045696Y-41911364D01*
X64001600Y-42133049D01*
X64001600Y-42133053D01*
X63986712Y-42207900D01*
X64001600Y-42282747D01*
X64001601Y-46120564D01*
X63602423Y-45758959D01*
X63214039Y-45598096D01*
X62992000Y-45720085D01*
X62992000Y-46863000D01*
X63012000Y-46863000D01*
X63012000Y-47117000D01*
X62992000Y-47117000D01*
X62992000Y-47137000D01*
X62738000Y-47137000D01*
X62738000Y-47117000D01*
X60452000Y-47117000D01*
X60452000Y-48259915D01*
X60674039Y-48381904D01*
X61062423Y-48221041D01*
X61477389Y-47845134D01*
X61595000Y-47596633D01*
X61712611Y-47845134D01*
X62127577Y-48221041D01*
X62134988Y-48224111D01*
X60378999Y-49980100D01*
X57167746Y-49980100D01*
X57092899Y-49965212D01*
X57018052Y-49980100D01*
X57018048Y-49980100D01*
X56897404Y-50004098D01*
X57280402Y-49621100D01*
X57338753Y-49621100D01*
X57413600Y-49635988D01*
X57488447Y-49621100D01*
X57488452Y-49621100D01*
X57710137Y-49577004D01*
X57961529Y-49409029D01*
X58003931Y-49345570D01*
X59346682Y-48002820D01*
X59587577Y-48221041D01*
X59975961Y-48381904D01*
X60198000Y-48259915D01*
X60198000Y-47117000D01*
X60178000Y-47117000D01*
X60178000Y-46863000D01*
X60198000Y-46863000D01*
X60198000Y-45720085D01*
X60452000Y-45720085D01*
X60452000Y-46863000D01*
X62738000Y-46863000D01*
X62738000Y-45720085D01*
X62515961Y-45598096D01*
X62127577Y-45758959D01*
X61712611Y-46134866D01*
X61595000Y-46383367D01*
X61477389Y-46134866D01*
X61062423Y-45758959D01*
X60674039Y-45598096D01*
X60452000Y-45720085D01*
X60198000Y-45720085D01*
X59975961Y-45598096D01*
X59948600Y-45609429D01*
X59948600Y-45579301D01*
X77462255Y-28065647D01*
X77609172Y-28285526D01*
G04 #@! TD*
M02*
