M48
; DRILL file {KiCad (5.1.4)-1} date 10/15/2019 12:18:43 PM
; FORMAT={-:-/ absolute / inch / decimal}
; #@! TF.CreationDate,2019-10-15T12:18:43-06:00
; #@! TF.GenerationSoftware,Kicad,Pcbnew,(5.1.4)-1
; #@! TF.FileFunction,Plated,1,2,PTH
FMAT,2
INCH
T1C0.0157
T2C0.0236
T3C0.0315
T4C0.0320
T5C0.0394
T6C0.0960
%
G90
G05
T1
X0.825Y-0.825
X0.825Y-0.875
X0.875Y-0.825
X0.875Y-0.875
X0.9868Y-0.9943
X1.1536Y-4.083
X1.2549Y-4.1139
X1.3359Y-3.162
X1.3428Y-3.4671
X1.3904Y-3.467
X1.3948Y-4.0964
X1.4206Y-4.1804
X1.4223Y-3.4887
X1.4536Y-4.1052
X1.4868Y-3.5975
X1.4978Y-4.3621
X1.5252Y-3.5328
X1.5599Y-4.1001
X1.5607Y-1.7393
X1.5701Y-3.4887
X1.604Y-4.2904
X1.6089Y-1.4121
X1.616Y-3.5183
X1.63Y-4.15
X1.6589Y-3.1676
X1.6638Y-1.3699
X1.664Y-3.7308
X1.6698Y-4.0957
X1.6718Y-2.8344
X1.6802Y-3.5601
X1.691Y-3.4661
X1.691Y-3.9779
X1.6988Y-3.1261
X1.7196Y-3.6114
X1.7747Y-2.9514
X1.79Y-3.6089
X1.8078Y-3.6544
X1.8537Y-4.2477
X1.8607Y-2.7336
X1.8955Y-4.2333
X1.8974Y-3.9197
X1.9325Y-4.3442
X1.9406Y-3.4853
X1.9617Y-3.3141
X1.971Y-3.9873
X1.988Y-4.0876
X2.0033Y-3.5381
X2.0406Y-3.7135
X2.062Y-2.2734
X2.0637Y-4.0903
X2.0731Y-1.9771
X2.0821Y-3.6105
X2.0941Y-3.9866
X2.0941Y-4.3659
X2.1011Y-3.5135
X2.1067Y-4.2673
X2.127Y-2.9886
X2.143Y-3.4628
X2.1548Y-4.11
X2.1688Y-3.6105
X2.1694Y-2.9811
X2.1911Y-4.0886
X2.1939Y-3.4999
X2.2002Y-4.3774
X2.2199Y-3.4733
X2.221Y-2.9789
X2.2409Y-4.1407
X2.2475Y-3.6122
X2.2783Y-3.4679
X2.2829Y-3.5044
X2.3142Y-4.3815
X2.3285Y-3.7137
X2.3331Y-4.1074
X2.3742Y-2.9908
X2.3892Y-4.362
X2.3912Y-3.5823
X2.3914Y-4.2354
X2.4233Y-3.6152
X2.4267Y-1.1753
X2.4417Y-3.0763
X2.4659Y-0.9426
X2.5058Y-1.4497
X2.5598Y-2.7866
X2.6125Y-2.8278
X2.6145Y-3.537
X2.6185Y-1.6499
X2.6623Y-1.6301
X2.6714Y-3.6125
X2.6808Y-2.2051
X2.6992Y-3.4754
X2.7234Y-3.5031
X2.7239Y-3.1861
X2.7379Y-3.6125
X2.7497Y-3.1137
X2.7769Y-3.6105
X2.8028Y-3.4737
X2.8346Y-2.7515
X2.8429Y-3.4899
X2.8461Y-2.6852
X2.8514Y-3.6105
X2.8553Y-3.1569
X2.8628Y-4.3607
X2.8706Y-2.446
X2.873Y-3.1208
X2.895Y-3.0903
X2.8985Y-3.6157
X2.9088Y-4.3126
X2.9315Y-3.0901
X2.9365Y-3.612
X2.9623Y-3.4643
X2.9642Y-2.4678
X2.9715Y-3.0977
X2.9978Y-3.4813
X3.0089Y-3.0903
X3.0125Y-3.6085
X3.0129Y-3.3546
X3.0258Y-4.1359
X3.0916Y-2.8937
X3.0924Y-3.3458
X3.0988Y-4.2986
X3.1066Y-2.9302
X3.1097Y-4.0537
X3.1106Y-2.8333
X3.1212Y-3.9853
X3.1232Y-3.7033
X3.1411Y-2.8544
X3.1988Y-2.4506
X3.2012Y-2.3737
X3.2109Y-3.1251
X3.2186Y-3.2532
X3.2215Y-4.2996
X3.2228Y-2.6823
X3.2444Y-2.9747
X3.2634Y-2.6974
X3.2714Y-2.95
X3.2729Y-4.2484
X3.2756Y-2.5069
X3.3027Y-3.4208
X3.3068Y-3.2429
X3.3205Y-3.0171
X3.321Y-3.338
X3.3229Y-2.9488
X3.3249Y-3.2818
X3.3292Y-3.0586
X3.3492Y-3.4188
X3.3583Y-3.0024
X3.4281Y-3.7027
X3.434Y-2.5949
X3.4349Y-2.6726
X3.4443Y-3.0067
X3.445Y-2.9687
X3.4495Y-2.8917
X3.4509Y-2.7686
X3.4684Y-2.275
X3.4736Y-2.7976
X3.5032Y-3.6276
X3.5642Y-1.9611
X3.6024Y-2.0797
X3.6179Y-2.9695
X3.6321Y-2.9327
X3.6476Y-3.3944
X3.6497Y-3.4769
X3.6502Y-3.4311
X3.6522Y-2.8388
X3.6564Y-2.8818
X3.663Y-3.2614
X3.663Y-3.3276
X3.6712Y-2.8
X3.7136Y-2.4083
X3.7826Y-2.395
X3.783Y-2.123
X3.825Y-2.1406
X3.8337Y-3.2683
X3.8635Y-3.2329
X3.872Y-3.2702
X3.8805Y-3.367
X3.9066Y-3.3409
X3.9864Y-3.2345
X4.0209Y-2.0901
X4.0231Y-3.2031
X4.0589Y-1.6219
X4.0923Y-1.8742
X4.625Y-0.825
X4.625Y-0.875
X4.675Y-0.825
X4.675Y-0.875
T2
X1.1094Y-4.225
X1.9135Y-3.059
X2.4366Y-3.7625
X2.4539Y-4.0834
X2.5748Y-3.5015
X3.5899Y-2.7525
X3.8156Y-2.7439
T3
X4.0Y-3.625
X4.0Y-3.725
X4.0Y-3.825
X4.1Y-3.525
X4.1Y-3.625
X4.1Y-3.725
X4.1Y-3.825
X4.1Y-3.925
X4.2Y-3.525
X4.2Y-3.625
X4.2Y-3.825
X4.2Y-3.925
X4.3Y-3.525
X4.3Y-3.625
X4.3Y-3.725
X4.3Y-3.825
X4.3Y-3.925
X4.4Y-3.625
X4.4Y-3.725
X4.4Y-3.825
X4.0Y-2.825
X4.0Y-2.925
X4.0Y-3.025
X4.1Y-2.725
X4.1Y-2.825
X4.1Y-2.925
X4.1Y-3.025
X4.1Y-3.125
X4.2Y-2.725
X4.2Y-2.825
X4.2Y-3.025
X4.2Y-3.125
X4.3Y-2.725
X4.3Y-2.825
X4.3Y-2.925
X4.3Y-3.025
X4.3Y-3.125
X4.4Y-2.825
X4.4Y-2.925
X4.4Y-3.025
X1.05Y-2.125
X1.05Y-2.425
X1.35Y-2.125
X1.35Y-2.425
X1.7Y-1.325
X1.7Y-1.425
X1.7Y-1.525
X1.7Y-1.625
X1.7Y-1.725
X1.7Y-1.825
X1.7Y-1.925
X1.7Y-2.025
X1.7Y-2.125
X1.7Y-2.225
X1.7Y-2.325
X1.8Y-1.225
X1.8Y-1.325
X1.8Y-1.425
X1.8Y-1.525
X1.8Y-1.625
X1.8Y-1.725
X1.8Y-1.825
X1.8Y-1.925
X1.8Y-2.025
X1.8Y-2.125
X1.8Y-2.225
X1.8Y-2.325
X1.8Y-2.425
X1.9Y-1.225
X1.9Y-1.325
X1.9Y-2.325
X1.9Y-2.425
X2.0Y-1.225
X2.0Y-1.325
X2.0Y-2.325
X2.0Y-2.425
X2.1Y-1.225
X2.1Y-1.325
X2.1Y-2.325
X2.1Y-2.425
X2.2Y-1.225
X2.2Y-1.325
X2.2Y-2.325
X2.2Y-2.425
X2.3Y-1.225
X2.3Y-1.325
X2.3Y-2.325
X2.3Y-2.425
X2.4Y-1.225
X2.4Y-1.325
X2.4Y-2.325
X2.4Y-2.425
X2.5Y-1.225
X2.5Y-1.325
X2.5Y-2.325
X2.5Y-2.425
X2.6Y-1.225
X2.6Y-1.325
X2.6Y-2.325
X2.6Y-2.425
X2.7Y-1.225
X2.7Y-1.325
X2.7Y-2.325
X2.7Y-2.425
X2.8Y-1.225
X2.8Y-1.325
X2.8Y-1.425
X2.8Y-1.525
X2.8Y-1.625
X2.8Y-1.725
X2.8Y-1.825
X2.8Y-1.925
X2.8Y-2.025
X2.8Y-2.125
X2.8Y-2.225
X2.8Y-2.325
X2.8Y-2.425
X2.9Y-1.325
X2.9Y-1.425
X2.9Y-1.525
X2.9Y-1.625
X2.9Y-1.725
X2.9Y-1.825
X2.9Y-1.925
X2.9Y-2.025
X2.9Y-2.125
X2.9Y-2.225
X2.9Y-2.325
T4
X1.3059Y-4.43
X1.3059Y-4.58
X1.3559Y-4.505
X1.3559Y-4.655
X1.4059Y-4.43
X1.4059Y-4.58
X1.4559Y-4.505
X1.4559Y-4.655
X1.5059Y-4.43
X1.5059Y-4.58
X1.5559Y-4.505
X1.5559Y-4.655
X1.6059Y-4.43
X1.6059Y-4.58
X1.6559Y-4.505
X1.6559Y-4.655
X1.7059Y-4.43
X1.7059Y-4.58
X1.7559Y-4.505
X1.7559Y-4.655
X1.8059Y-4.43
X1.8059Y-4.58
X1.8559Y-4.505
X1.8559Y-4.655
X1.9059Y-4.43
X1.9059Y-4.58
X1.9559Y-4.505
X1.9559Y-4.655
X2.0059Y-4.43
X2.0059Y-4.58
X2.0559Y-4.505
X2.0559Y-4.655
X2.1059Y-4.43
X2.1059Y-4.58
X2.1559Y-4.505
X2.1559Y-4.655
X2.2059Y-4.43
X2.2059Y-4.58
X2.2559Y-4.505
X2.2559Y-4.655
X2.3059Y-4.43
X2.3059Y-4.58
X2.3559Y-4.505
X2.3559Y-4.655
X2.4059Y-4.43
X2.4059Y-4.58
X2.4559Y-4.505
X2.4559Y-4.655
X2.5059Y-4.43
X2.5059Y-4.58
X2.5559Y-4.505
X2.5559Y-4.655
X2.6059Y-4.43
X2.6059Y-4.58
X2.6559Y-4.505
X2.6559Y-4.655
X2.7059Y-4.43
X2.7059Y-4.58
X2.7559Y-4.505
X2.7559Y-4.655
X2.8059Y-4.43
X2.8059Y-4.58
X2.8559Y-4.505
X2.8559Y-4.655
X2.9059Y-4.43
X2.9059Y-4.58
X2.9559Y-4.505
X2.9559Y-4.655
X3.0059Y-4.43
X3.0059Y-4.58
X3.0559Y-4.505
X3.0559Y-4.655
X3.1059Y-4.43
X3.1059Y-4.58
X3.1559Y-4.505
X3.1559Y-4.655
X3.2059Y-4.43
X3.2059Y-4.58
X3.2559Y-4.505
X3.2559Y-4.655
X3.3059Y-4.43
X3.3059Y-4.58
X3.3559Y-4.505
X3.3559Y-4.655
X3.4059Y-4.43
X3.4059Y-4.58
X3.4559Y-4.505
X3.4559Y-4.655
X3.5059Y-4.43
X3.5059Y-4.58
X3.5559Y-4.505
X3.5559Y-4.655
X3.6059Y-4.43
X3.6059Y-4.58
X3.6559Y-4.505
X3.6559Y-4.655
X3.7059Y-4.43
X3.7059Y-4.58
X3.7559Y-4.505
X3.7559Y-4.655
X3.8059Y-4.43
X3.8059Y-4.58
X3.8559Y-4.505
X3.8559Y-4.655
X3.9059Y-4.43
X3.9059Y-4.58
X3.9559Y-4.505
X3.9559Y-4.655
X4.0059Y-4.43
X4.0059Y-4.58
X4.0559Y-4.505
X4.0559Y-4.655
X4.1059Y-4.43
X4.1059Y-4.58
X4.1559Y-4.505
X4.1559Y-4.655
X4.2059Y-4.43
X4.2059Y-4.58
X4.2559Y-4.505
X4.2559Y-4.655
T5
X4.275Y-1.425
X4.275Y-1.525
X4.275Y-1.625
X4.275Y-1.725
X4.275Y-1.825
X2.925Y-2.725
X2.925Y-2.825
X3.025Y-2.725
X3.025Y-2.825
T6
X1.0809Y-4.543
X4.4309Y-4.543
T0
M30
