G04 #@! TF.GenerationSoftware,KiCad,Pcbnew,(5.0.2)-1*
G04 #@! TF.CreationDate,2019-02-18T11:06:26-07:00*
G04 #@! TF.ProjectId,8MB SRAM,384d4220-5352-4414-9d2e-6b696361645f,rev?*
G04 #@! TF.SameCoordinates,Original*
G04 #@! TF.FileFunction,Legend,Bot*
G04 #@! TF.FilePolarity,Positive*
%FSLAX46Y46*%
G04 Gerber Fmt 4.6, Leading zero omitted, Abs format (unit mm)*
G04 Created by KiCad (PCBNEW (5.0.2)-1) date 2/18/2019 11:06:26 AM*
%MOMM*%
%LPD*%
G01*
G04 APERTURE LIST*
%ADD10C,0.150000*%
%ADD11C,0.120000*%
G04 APERTURE END LIST*
D10*
X107663571Y-47410714D02*
X107663571Y-48077380D01*
X107901666Y-47029761D02*
X108139761Y-47744047D01*
X107520714Y-47744047D01*
X106949285Y-47077380D02*
X106854047Y-47077380D01*
X106758809Y-47125000D01*
X106711190Y-47172619D01*
X106663571Y-47267857D01*
X106615952Y-47458333D01*
X106615952Y-47696428D01*
X106663571Y-47886904D01*
X106711190Y-47982142D01*
X106758809Y-48029761D01*
X106854047Y-48077380D01*
X106949285Y-48077380D01*
X107044523Y-48029761D01*
X107092142Y-47982142D01*
X107139761Y-47886904D01*
X107187380Y-47696428D01*
X107187380Y-47458333D01*
X107139761Y-47267857D01*
X107092142Y-47172619D01*
X107044523Y-47125000D01*
X106949285Y-47077380D01*
X105996904Y-47077380D02*
X105901666Y-47077380D01*
X105806428Y-47125000D01*
X105758809Y-47172619D01*
X105711190Y-47267857D01*
X105663571Y-47458333D01*
X105663571Y-47696428D01*
X105711190Y-47886904D01*
X105758809Y-47982142D01*
X105806428Y-48029761D01*
X105901666Y-48077380D01*
X105996904Y-48077380D01*
X106092142Y-48029761D01*
X106139761Y-47982142D01*
X106187380Y-47886904D01*
X106235000Y-47696428D01*
X106235000Y-47458333D01*
X106187380Y-47267857D01*
X106139761Y-47172619D01*
X106092142Y-47125000D01*
X105996904Y-47077380D01*
X105044523Y-47077380D02*
X104949285Y-47077380D01*
X104854047Y-47125000D01*
X104806428Y-47172619D01*
X104758809Y-47267857D01*
X104711190Y-47458333D01*
X104711190Y-47696428D01*
X104758809Y-47886904D01*
X104806428Y-47982142D01*
X104854047Y-48029761D01*
X104949285Y-48077380D01*
X105044523Y-48077380D01*
X105139761Y-48029761D01*
X105187380Y-47982142D01*
X105235000Y-47886904D01*
X105282619Y-47696428D01*
X105282619Y-47458333D01*
X105235000Y-47267857D01*
X105187380Y-47172619D01*
X105139761Y-47125000D01*
X105044523Y-47077380D01*
X104092142Y-47077380D02*
X103996904Y-47077380D01*
X103901666Y-47125000D01*
X103854047Y-47172619D01*
X103806428Y-47267857D01*
X103758809Y-47458333D01*
X103758809Y-47696428D01*
X103806428Y-47886904D01*
X103854047Y-47982142D01*
X103901666Y-48029761D01*
X103996904Y-48077380D01*
X104092142Y-48077380D01*
X104187380Y-48029761D01*
X104235000Y-47982142D01*
X104282619Y-47886904D01*
X104330238Y-47696428D01*
X104330238Y-47458333D01*
X104282619Y-47267857D01*
X104235000Y-47172619D01*
X104187380Y-47125000D01*
X104092142Y-47077380D01*
X103139761Y-47077380D02*
X103044523Y-47077380D01*
X102949285Y-47125000D01*
X102901666Y-47172619D01*
X102854047Y-47267857D01*
X102806428Y-47458333D01*
X102806428Y-47696428D01*
X102854047Y-47886904D01*
X102901666Y-47982142D01*
X102949285Y-48029761D01*
X103044523Y-48077380D01*
X103139761Y-48077380D01*
X103235000Y-48029761D01*
X103282619Y-47982142D01*
X103330238Y-47886904D01*
X103377857Y-47696428D01*
X103377857Y-47458333D01*
X103330238Y-47267857D01*
X103282619Y-47172619D01*
X103235000Y-47125000D01*
X103139761Y-47077380D01*
X102377857Y-47696428D02*
X101615952Y-47696428D01*
X100711190Y-47410714D02*
X100711190Y-48077380D01*
X100949285Y-47029761D02*
X101187380Y-47744047D01*
X100568333Y-47744047D01*
X99854047Y-47553571D02*
X100187380Y-47553571D01*
X100187380Y-48077380D02*
X100187380Y-47077380D01*
X99711190Y-47077380D01*
X98996904Y-47553571D02*
X99330238Y-47553571D01*
X99330238Y-48077380D02*
X99330238Y-47077380D01*
X98854047Y-47077380D01*
X98139761Y-47553571D02*
X98473095Y-47553571D01*
X98473095Y-48077380D02*
X98473095Y-47077380D01*
X97996904Y-47077380D01*
X97282619Y-47553571D02*
X97615952Y-47553571D01*
X97615952Y-48077380D02*
X97615952Y-47077380D01*
X97139761Y-47077380D01*
X96425476Y-47553571D02*
X96758809Y-47553571D01*
X96758809Y-48077380D02*
X96758809Y-47077380D01*
X96282619Y-47077380D01*
X86025952Y-47077380D02*
X86502142Y-47077380D01*
X86549761Y-47553571D01*
X86502142Y-47505952D01*
X86406904Y-47458333D01*
X86168809Y-47458333D01*
X86073571Y-47505952D01*
X86025952Y-47553571D01*
X85978333Y-47648809D01*
X85978333Y-47886904D01*
X86025952Y-47982142D01*
X86073571Y-48029761D01*
X86168809Y-48077380D01*
X86406904Y-48077380D01*
X86502142Y-48029761D01*
X86549761Y-47982142D01*
X85359285Y-47077380D02*
X85264047Y-47077380D01*
X85168809Y-47125000D01*
X85121190Y-47172619D01*
X85073571Y-47267857D01*
X85025952Y-47458333D01*
X85025952Y-47696428D01*
X85073571Y-47886904D01*
X85121190Y-47982142D01*
X85168809Y-48029761D01*
X85264047Y-48077380D01*
X85359285Y-48077380D01*
X85454523Y-48029761D01*
X85502142Y-47982142D01*
X85549761Y-47886904D01*
X85597380Y-47696428D01*
X85597380Y-47458333D01*
X85549761Y-47267857D01*
X85502142Y-47172619D01*
X85454523Y-47125000D01*
X85359285Y-47077380D01*
X84406904Y-47077380D02*
X84311666Y-47077380D01*
X84216428Y-47125000D01*
X84168809Y-47172619D01*
X84121190Y-47267857D01*
X84073571Y-47458333D01*
X84073571Y-47696428D01*
X84121190Y-47886904D01*
X84168809Y-47982142D01*
X84216428Y-48029761D01*
X84311666Y-48077380D01*
X84406904Y-48077380D01*
X84502142Y-48029761D01*
X84549761Y-47982142D01*
X84597380Y-47886904D01*
X84645000Y-47696428D01*
X84645000Y-47458333D01*
X84597380Y-47267857D01*
X84549761Y-47172619D01*
X84502142Y-47125000D01*
X84406904Y-47077380D01*
X83454523Y-47077380D02*
X83359285Y-47077380D01*
X83264047Y-47125000D01*
X83216428Y-47172619D01*
X83168809Y-47267857D01*
X83121190Y-47458333D01*
X83121190Y-47696428D01*
X83168809Y-47886904D01*
X83216428Y-47982142D01*
X83264047Y-48029761D01*
X83359285Y-48077380D01*
X83454523Y-48077380D01*
X83549761Y-48029761D01*
X83597380Y-47982142D01*
X83645000Y-47886904D01*
X83692619Y-47696428D01*
X83692619Y-47458333D01*
X83645000Y-47267857D01*
X83597380Y-47172619D01*
X83549761Y-47125000D01*
X83454523Y-47077380D01*
X82502142Y-47077380D02*
X82406904Y-47077380D01*
X82311666Y-47125000D01*
X82264047Y-47172619D01*
X82216428Y-47267857D01*
X82168809Y-47458333D01*
X82168809Y-47696428D01*
X82216428Y-47886904D01*
X82264047Y-47982142D01*
X82311666Y-48029761D01*
X82406904Y-48077380D01*
X82502142Y-48077380D01*
X82597380Y-48029761D01*
X82645000Y-47982142D01*
X82692619Y-47886904D01*
X82740238Y-47696428D01*
X82740238Y-47458333D01*
X82692619Y-47267857D01*
X82645000Y-47172619D01*
X82597380Y-47125000D01*
X82502142Y-47077380D01*
X81549761Y-47077380D02*
X81454523Y-47077380D01*
X81359285Y-47125000D01*
X81311666Y-47172619D01*
X81264047Y-47267857D01*
X81216428Y-47458333D01*
X81216428Y-47696428D01*
X81264047Y-47886904D01*
X81311666Y-47982142D01*
X81359285Y-48029761D01*
X81454523Y-48077380D01*
X81549761Y-48077380D01*
X81645000Y-48029761D01*
X81692619Y-47982142D01*
X81740238Y-47886904D01*
X81787857Y-47696428D01*
X81787857Y-47458333D01*
X81740238Y-47267857D01*
X81692619Y-47172619D01*
X81645000Y-47125000D01*
X81549761Y-47077380D01*
X80787857Y-47696428D02*
X80025952Y-47696428D01*
X79073571Y-47077380D02*
X79549761Y-47077380D01*
X79597380Y-47553571D01*
X79549761Y-47505952D01*
X79454523Y-47458333D01*
X79216428Y-47458333D01*
X79121190Y-47505952D01*
X79073571Y-47553571D01*
X79025952Y-47648809D01*
X79025952Y-47886904D01*
X79073571Y-47982142D01*
X79121190Y-48029761D01*
X79216428Y-48077380D01*
X79454523Y-48077380D01*
X79549761Y-48029761D01*
X79597380Y-47982142D01*
X78264047Y-47553571D02*
X78597380Y-47553571D01*
X78597380Y-48077380D02*
X78597380Y-47077380D01*
X78121190Y-47077380D01*
X77406904Y-47553571D02*
X77740238Y-47553571D01*
X77740238Y-48077380D02*
X77740238Y-47077380D01*
X77264047Y-47077380D01*
X76549761Y-47553571D02*
X76883095Y-47553571D01*
X76883095Y-48077380D02*
X76883095Y-47077380D01*
X76406904Y-47077380D01*
X75692619Y-47553571D02*
X76025952Y-47553571D01*
X76025952Y-48077380D02*
X76025952Y-47077380D01*
X75549761Y-47077380D01*
X74835476Y-47553571D02*
X75168809Y-47553571D01*
X75168809Y-48077380D02*
X75168809Y-47077380D01*
X74692619Y-47077380D01*
X64483571Y-47077380D02*
X64674047Y-47077380D01*
X64769285Y-47125000D01*
X64816904Y-47172619D01*
X64912142Y-47315476D01*
X64959761Y-47505952D01*
X64959761Y-47886904D01*
X64912142Y-47982142D01*
X64864523Y-48029761D01*
X64769285Y-48077380D01*
X64578809Y-48077380D01*
X64483571Y-48029761D01*
X64435952Y-47982142D01*
X64388333Y-47886904D01*
X64388333Y-47648809D01*
X64435952Y-47553571D01*
X64483571Y-47505952D01*
X64578809Y-47458333D01*
X64769285Y-47458333D01*
X64864523Y-47505952D01*
X64912142Y-47553571D01*
X64959761Y-47648809D01*
X63769285Y-47077380D02*
X63674047Y-47077380D01*
X63578809Y-47125000D01*
X63531190Y-47172619D01*
X63483571Y-47267857D01*
X63435952Y-47458333D01*
X63435952Y-47696428D01*
X63483571Y-47886904D01*
X63531190Y-47982142D01*
X63578809Y-48029761D01*
X63674047Y-48077380D01*
X63769285Y-48077380D01*
X63864523Y-48029761D01*
X63912142Y-47982142D01*
X63959761Y-47886904D01*
X64007380Y-47696428D01*
X64007380Y-47458333D01*
X63959761Y-47267857D01*
X63912142Y-47172619D01*
X63864523Y-47125000D01*
X63769285Y-47077380D01*
X62816904Y-47077380D02*
X62721666Y-47077380D01*
X62626428Y-47125000D01*
X62578809Y-47172619D01*
X62531190Y-47267857D01*
X62483571Y-47458333D01*
X62483571Y-47696428D01*
X62531190Y-47886904D01*
X62578809Y-47982142D01*
X62626428Y-48029761D01*
X62721666Y-48077380D01*
X62816904Y-48077380D01*
X62912142Y-48029761D01*
X62959761Y-47982142D01*
X63007380Y-47886904D01*
X63055000Y-47696428D01*
X63055000Y-47458333D01*
X63007380Y-47267857D01*
X62959761Y-47172619D01*
X62912142Y-47125000D01*
X62816904Y-47077380D01*
X61864523Y-47077380D02*
X61769285Y-47077380D01*
X61674047Y-47125000D01*
X61626428Y-47172619D01*
X61578809Y-47267857D01*
X61531190Y-47458333D01*
X61531190Y-47696428D01*
X61578809Y-47886904D01*
X61626428Y-47982142D01*
X61674047Y-48029761D01*
X61769285Y-48077380D01*
X61864523Y-48077380D01*
X61959761Y-48029761D01*
X62007380Y-47982142D01*
X62055000Y-47886904D01*
X62102619Y-47696428D01*
X62102619Y-47458333D01*
X62055000Y-47267857D01*
X62007380Y-47172619D01*
X61959761Y-47125000D01*
X61864523Y-47077380D01*
X60912142Y-47077380D02*
X60816904Y-47077380D01*
X60721666Y-47125000D01*
X60674047Y-47172619D01*
X60626428Y-47267857D01*
X60578809Y-47458333D01*
X60578809Y-47696428D01*
X60626428Y-47886904D01*
X60674047Y-47982142D01*
X60721666Y-48029761D01*
X60816904Y-48077380D01*
X60912142Y-48077380D01*
X61007380Y-48029761D01*
X61055000Y-47982142D01*
X61102619Y-47886904D01*
X61150238Y-47696428D01*
X61150238Y-47458333D01*
X61102619Y-47267857D01*
X61055000Y-47172619D01*
X61007380Y-47125000D01*
X60912142Y-47077380D01*
X59959761Y-47077380D02*
X59864523Y-47077380D01*
X59769285Y-47125000D01*
X59721666Y-47172619D01*
X59674047Y-47267857D01*
X59626428Y-47458333D01*
X59626428Y-47696428D01*
X59674047Y-47886904D01*
X59721666Y-47982142D01*
X59769285Y-48029761D01*
X59864523Y-48077380D01*
X59959761Y-48077380D01*
X60055000Y-48029761D01*
X60102619Y-47982142D01*
X60150238Y-47886904D01*
X60197857Y-47696428D01*
X60197857Y-47458333D01*
X60150238Y-47267857D01*
X60102619Y-47172619D01*
X60055000Y-47125000D01*
X59959761Y-47077380D01*
X59197857Y-47696428D02*
X58435952Y-47696428D01*
X57531190Y-47077380D02*
X57721666Y-47077380D01*
X57816904Y-47125000D01*
X57864523Y-47172619D01*
X57959761Y-47315476D01*
X58007380Y-47505952D01*
X58007380Y-47886904D01*
X57959761Y-47982142D01*
X57912142Y-48029761D01*
X57816904Y-48077380D01*
X57626428Y-48077380D01*
X57531190Y-48029761D01*
X57483571Y-47982142D01*
X57435952Y-47886904D01*
X57435952Y-47648809D01*
X57483571Y-47553571D01*
X57531190Y-47505952D01*
X57626428Y-47458333D01*
X57816904Y-47458333D01*
X57912142Y-47505952D01*
X57959761Y-47553571D01*
X58007380Y-47648809D01*
X56674047Y-47553571D02*
X57007380Y-47553571D01*
X57007380Y-48077380D02*
X57007380Y-47077380D01*
X56531190Y-47077380D01*
X55816904Y-47553571D02*
X56150238Y-47553571D01*
X56150238Y-48077380D02*
X56150238Y-47077380D01*
X55674047Y-47077380D01*
X54959761Y-47553571D02*
X55293095Y-47553571D01*
X55293095Y-48077380D02*
X55293095Y-47077380D01*
X54816904Y-47077380D01*
X54102619Y-47553571D02*
X54435952Y-47553571D01*
X54435952Y-48077380D02*
X54435952Y-47077380D01*
X53959761Y-47077380D01*
X53245476Y-47553571D02*
X53578809Y-47553571D01*
X53578809Y-48077380D02*
X53578809Y-47077380D01*
X53102619Y-47077380D01*
X43417380Y-47077380D02*
X42750714Y-47077380D01*
X43179285Y-48077380D01*
X42179285Y-47077380D02*
X42084047Y-47077380D01*
X41988809Y-47125000D01*
X41941190Y-47172619D01*
X41893571Y-47267857D01*
X41845952Y-47458333D01*
X41845952Y-47696428D01*
X41893571Y-47886904D01*
X41941190Y-47982142D01*
X41988809Y-48029761D01*
X42084047Y-48077380D01*
X42179285Y-48077380D01*
X42274523Y-48029761D01*
X42322142Y-47982142D01*
X42369761Y-47886904D01*
X42417380Y-47696428D01*
X42417380Y-47458333D01*
X42369761Y-47267857D01*
X42322142Y-47172619D01*
X42274523Y-47125000D01*
X42179285Y-47077380D01*
X41226904Y-47077380D02*
X41131666Y-47077380D01*
X41036428Y-47125000D01*
X40988809Y-47172619D01*
X40941190Y-47267857D01*
X40893571Y-47458333D01*
X40893571Y-47696428D01*
X40941190Y-47886904D01*
X40988809Y-47982142D01*
X41036428Y-48029761D01*
X41131666Y-48077380D01*
X41226904Y-48077380D01*
X41322142Y-48029761D01*
X41369761Y-47982142D01*
X41417380Y-47886904D01*
X41465000Y-47696428D01*
X41465000Y-47458333D01*
X41417380Y-47267857D01*
X41369761Y-47172619D01*
X41322142Y-47125000D01*
X41226904Y-47077380D01*
X40274523Y-47077380D02*
X40179285Y-47077380D01*
X40084047Y-47125000D01*
X40036428Y-47172619D01*
X39988809Y-47267857D01*
X39941190Y-47458333D01*
X39941190Y-47696428D01*
X39988809Y-47886904D01*
X40036428Y-47982142D01*
X40084047Y-48029761D01*
X40179285Y-48077380D01*
X40274523Y-48077380D01*
X40369761Y-48029761D01*
X40417380Y-47982142D01*
X40465000Y-47886904D01*
X40512619Y-47696428D01*
X40512619Y-47458333D01*
X40465000Y-47267857D01*
X40417380Y-47172619D01*
X40369761Y-47125000D01*
X40274523Y-47077380D01*
X39322142Y-47077380D02*
X39226904Y-47077380D01*
X39131666Y-47125000D01*
X39084047Y-47172619D01*
X39036428Y-47267857D01*
X38988809Y-47458333D01*
X38988809Y-47696428D01*
X39036428Y-47886904D01*
X39084047Y-47982142D01*
X39131666Y-48029761D01*
X39226904Y-48077380D01*
X39322142Y-48077380D01*
X39417380Y-48029761D01*
X39465000Y-47982142D01*
X39512619Y-47886904D01*
X39560238Y-47696428D01*
X39560238Y-47458333D01*
X39512619Y-47267857D01*
X39465000Y-47172619D01*
X39417380Y-47125000D01*
X39322142Y-47077380D01*
X38369761Y-47077380D02*
X38274523Y-47077380D01*
X38179285Y-47125000D01*
X38131666Y-47172619D01*
X38084047Y-47267857D01*
X38036428Y-47458333D01*
X38036428Y-47696428D01*
X38084047Y-47886904D01*
X38131666Y-47982142D01*
X38179285Y-48029761D01*
X38274523Y-48077380D01*
X38369761Y-48077380D01*
X38465000Y-48029761D01*
X38512619Y-47982142D01*
X38560238Y-47886904D01*
X38607857Y-47696428D01*
X38607857Y-47458333D01*
X38560238Y-47267857D01*
X38512619Y-47172619D01*
X38465000Y-47125000D01*
X38369761Y-47077380D01*
X37607857Y-47696428D02*
X36845952Y-47696428D01*
X36465000Y-47077380D02*
X35798333Y-47077380D01*
X36226904Y-48077380D01*
X35084047Y-47553571D02*
X35417380Y-47553571D01*
X35417380Y-48077380D02*
X35417380Y-47077380D01*
X34941190Y-47077380D01*
X34226904Y-47553571D02*
X34560238Y-47553571D01*
X34560238Y-48077380D02*
X34560238Y-47077380D01*
X34084047Y-47077380D01*
X33369761Y-47553571D02*
X33703095Y-47553571D01*
X33703095Y-48077380D02*
X33703095Y-47077380D01*
X33226904Y-47077380D01*
X32512619Y-47553571D02*
X32845952Y-47553571D01*
X32845952Y-48077380D02*
X32845952Y-47077380D01*
X32369761Y-47077380D01*
X31655476Y-47553571D02*
X31988809Y-47553571D01*
X31988809Y-48077380D02*
X31988809Y-47077380D01*
X31512619Y-47077380D01*
D11*
G04 #@! TO.C,C29*
X110565000Y-62358748D02*
X110565000Y-62881252D01*
X109145000Y-62358748D02*
X109145000Y-62881252D01*
G04 #@! TO.C,C18*
X44375000Y-62358748D02*
X44375000Y-62881252D01*
X45795000Y-62358748D02*
X45795000Y-62881252D01*
G04 #@! TO.C,C19*
X88975000Y-34418748D02*
X88975000Y-34941252D01*
X87555000Y-34418748D02*
X87555000Y-34941252D01*
G04 #@! TO.C,C24*
X109145000Y-34418748D02*
X109145000Y-34941252D01*
X110565000Y-34418748D02*
X110565000Y-34941252D01*
G04 #@! TO.C,C25*
X67385000Y-34418748D02*
X67385000Y-34941252D01*
X65965000Y-34418748D02*
X65965000Y-34941252D01*
G04 #@! TO.C,C26*
X44375000Y-34418748D02*
X44375000Y-34941252D01*
X45795000Y-34418748D02*
X45795000Y-34941252D01*
G04 #@! TO.C,C27*
X65965000Y-62358748D02*
X65965000Y-62881252D01*
X67385000Y-62358748D02*
X67385000Y-62881252D01*
G04 #@! TO.C,C28*
X87555000Y-62358748D02*
X87555000Y-62881252D01*
X88975000Y-62358748D02*
X88975000Y-62881252D01*
G04 #@! TO.C,U13*
X107425000Y-50875000D02*
X107785000Y-50875000D01*
X107425000Y-50375000D02*
X107425000Y-50875000D01*
X102235000Y-50375000D02*
X107425000Y-50375000D01*
X97045000Y-50375000D02*
X97045000Y-50875000D01*
X102235000Y-50375000D02*
X97045000Y-50375000D01*
X107425000Y-74085000D02*
X107425000Y-73585000D01*
X102235000Y-74085000D02*
X107425000Y-74085000D01*
X97045000Y-74085000D02*
X97045000Y-73585000D01*
X102235000Y-74085000D02*
X97045000Y-74085000D01*
G04 #@! TO.C,U14*
X80645000Y-74085000D02*
X75455000Y-74085000D01*
X75455000Y-74085000D02*
X75455000Y-73585000D01*
X80645000Y-74085000D02*
X85835000Y-74085000D01*
X85835000Y-74085000D02*
X85835000Y-73585000D01*
X80645000Y-50375000D02*
X75455000Y-50375000D01*
X75455000Y-50375000D02*
X75455000Y-50875000D01*
X80645000Y-50375000D02*
X85835000Y-50375000D01*
X85835000Y-50375000D02*
X85835000Y-50875000D01*
X85835000Y-50875000D02*
X86195000Y-50875000D01*
G04 #@! TO.C,U16*
X42655000Y-50875000D02*
X43015000Y-50875000D01*
X42655000Y-50375000D02*
X42655000Y-50875000D01*
X37465000Y-50375000D02*
X42655000Y-50375000D01*
X32275000Y-50375000D02*
X32275000Y-50875000D01*
X37465000Y-50375000D02*
X32275000Y-50375000D01*
X42655000Y-74085000D02*
X42655000Y-73585000D01*
X37465000Y-74085000D02*
X42655000Y-74085000D01*
X32275000Y-74085000D02*
X32275000Y-73585000D01*
X37465000Y-74085000D02*
X32275000Y-74085000D01*
G04 #@! TO.C,U15*
X59055000Y-74085000D02*
X53865000Y-74085000D01*
X53865000Y-74085000D02*
X53865000Y-73585000D01*
X59055000Y-74085000D02*
X64245000Y-74085000D01*
X64245000Y-74085000D02*
X64245000Y-73585000D01*
X59055000Y-50375000D02*
X53865000Y-50375000D01*
X53865000Y-50375000D02*
X53865000Y-50875000D01*
X59055000Y-50375000D02*
X64245000Y-50375000D01*
X64245000Y-50375000D02*
X64245000Y-50875000D01*
X64245000Y-50875000D02*
X64605000Y-50875000D01*
G04 #@! TO.C,U8*
X42655000Y-22935000D02*
X43015000Y-22935000D01*
X42655000Y-22435000D02*
X42655000Y-22935000D01*
X37465000Y-22435000D02*
X42655000Y-22435000D01*
X32275000Y-22435000D02*
X32275000Y-22935000D01*
X37465000Y-22435000D02*
X32275000Y-22435000D01*
X42655000Y-46145000D02*
X42655000Y-45645000D01*
X37465000Y-46145000D02*
X42655000Y-46145000D01*
X32275000Y-46145000D02*
X32275000Y-45645000D01*
X37465000Y-46145000D02*
X32275000Y-46145000D01*
G04 #@! TO.C,U7*
X59055000Y-46145000D02*
X53865000Y-46145000D01*
X53865000Y-46145000D02*
X53865000Y-45645000D01*
X59055000Y-46145000D02*
X64245000Y-46145000D01*
X64245000Y-46145000D02*
X64245000Y-45645000D01*
X59055000Y-22435000D02*
X53865000Y-22435000D01*
X53865000Y-22435000D02*
X53865000Y-22935000D01*
X59055000Y-22435000D02*
X64245000Y-22435000D01*
X64245000Y-22435000D02*
X64245000Y-22935000D01*
X64245000Y-22935000D02*
X64605000Y-22935000D01*
G04 #@! TO.C,U6*
X85835000Y-22935000D02*
X86195000Y-22935000D01*
X85835000Y-22435000D02*
X85835000Y-22935000D01*
X80645000Y-22435000D02*
X85835000Y-22435000D01*
X75455000Y-22435000D02*
X75455000Y-22935000D01*
X80645000Y-22435000D02*
X75455000Y-22435000D01*
X85835000Y-46145000D02*
X85835000Y-45645000D01*
X80645000Y-46145000D02*
X85835000Y-46145000D01*
X75455000Y-46145000D02*
X75455000Y-45645000D01*
X80645000Y-46145000D02*
X75455000Y-46145000D01*
G04 #@! TO.C,U5*
X102235000Y-46145000D02*
X97045000Y-46145000D01*
X97045000Y-46145000D02*
X97045000Y-45645000D01*
X102235000Y-46145000D02*
X107425000Y-46145000D01*
X107425000Y-46145000D02*
X107425000Y-45645000D01*
X102235000Y-22435000D02*
X97045000Y-22435000D01*
X97045000Y-22435000D02*
X97045000Y-22935000D01*
X102235000Y-22435000D02*
X107425000Y-22435000D01*
X107425000Y-22435000D02*
X107425000Y-22935000D01*
X107425000Y-22935000D02*
X107785000Y-22935000D01*
G04 #@! TO.C,C29*
D10*
X112117142Y-61977142D02*
X112164761Y-61929523D01*
X112212380Y-61786666D01*
X112212380Y-61691428D01*
X112164761Y-61548571D01*
X112069523Y-61453333D01*
X111974285Y-61405714D01*
X111783809Y-61358095D01*
X111640952Y-61358095D01*
X111450476Y-61405714D01*
X111355238Y-61453333D01*
X111260000Y-61548571D01*
X111212380Y-61691428D01*
X111212380Y-61786666D01*
X111260000Y-61929523D01*
X111307619Y-61977142D01*
X111307619Y-62358095D02*
X111260000Y-62405714D01*
X111212380Y-62500952D01*
X111212380Y-62739047D01*
X111260000Y-62834285D01*
X111307619Y-62881904D01*
X111402857Y-62929523D01*
X111498095Y-62929523D01*
X111640952Y-62881904D01*
X112212380Y-62310476D01*
X112212380Y-62929523D01*
X112212380Y-63405714D02*
X112212380Y-63596190D01*
X112164761Y-63691428D01*
X112117142Y-63739047D01*
X111974285Y-63834285D01*
X111783809Y-63881904D01*
X111402857Y-63881904D01*
X111307619Y-63834285D01*
X111260000Y-63786666D01*
X111212380Y-63691428D01*
X111212380Y-63500952D01*
X111260000Y-63405714D01*
X111307619Y-63358095D01*
X111402857Y-63310476D01*
X111640952Y-63310476D01*
X111736190Y-63358095D01*
X111783809Y-63405714D01*
X111831428Y-63500952D01*
X111831428Y-63691428D01*
X111783809Y-63786666D01*
X111736190Y-63834285D01*
X111640952Y-63881904D01*
G04 #@! TO.C,C18*
X47347142Y-61977142D02*
X47394761Y-61929523D01*
X47442380Y-61786666D01*
X47442380Y-61691428D01*
X47394761Y-61548571D01*
X47299523Y-61453333D01*
X47204285Y-61405714D01*
X47013809Y-61358095D01*
X46870952Y-61358095D01*
X46680476Y-61405714D01*
X46585238Y-61453333D01*
X46490000Y-61548571D01*
X46442380Y-61691428D01*
X46442380Y-61786666D01*
X46490000Y-61929523D01*
X46537619Y-61977142D01*
X47442380Y-62929523D02*
X47442380Y-62358095D01*
X47442380Y-62643809D02*
X46442380Y-62643809D01*
X46585238Y-62548571D01*
X46680476Y-62453333D01*
X46728095Y-62358095D01*
X46870952Y-63500952D02*
X46823333Y-63405714D01*
X46775714Y-63358095D01*
X46680476Y-63310476D01*
X46632857Y-63310476D01*
X46537619Y-63358095D01*
X46490000Y-63405714D01*
X46442380Y-63500952D01*
X46442380Y-63691428D01*
X46490000Y-63786666D01*
X46537619Y-63834285D01*
X46632857Y-63881904D01*
X46680476Y-63881904D01*
X46775714Y-63834285D01*
X46823333Y-63786666D01*
X46870952Y-63691428D01*
X46870952Y-63500952D01*
X46918571Y-63405714D01*
X46966190Y-63358095D01*
X47061428Y-63310476D01*
X47251904Y-63310476D01*
X47347142Y-63358095D01*
X47394761Y-63405714D01*
X47442380Y-63500952D01*
X47442380Y-63691428D01*
X47394761Y-63786666D01*
X47347142Y-63834285D01*
X47251904Y-63881904D01*
X47061428Y-63881904D01*
X46966190Y-63834285D01*
X46918571Y-63786666D01*
X46870952Y-63691428D01*
G04 #@! TO.C,C19*
X90527142Y-34037142D02*
X90574761Y-33989523D01*
X90622380Y-33846666D01*
X90622380Y-33751428D01*
X90574761Y-33608571D01*
X90479523Y-33513333D01*
X90384285Y-33465714D01*
X90193809Y-33418095D01*
X90050952Y-33418095D01*
X89860476Y-33465714D01*
X89765238Y-33513333D01*
X89670000Y-33608571D01*
X89622380Y-33751428D01*
X89622380Y-33846666D01*
X89670000Y-33989523D01*
X89717619Y-34037142D01*
X90622380Y-34989523D02*
X90622380Y-34418095D01*
X90622380Y-34703809D02*
X89622380Y-34703809D01*
X89765238Y-34608571D01*
X89860476Y-34513333D01*
X89908095Y-34418095D01*
X90622380Y-35465714D02*
X90622380Y-35656190D01*
X90574761Y-35751428D01*
X90527142Y-35799047D01*
X90384285Y-35894285D01*
X90193809Y-35941904D01*
X89812857Y-35941904D01*
X89717619Y-35894285D01*
X89670000Y-35846666D01*
X89622380Y-35751428D01*
X89622380Y-35560952D01*
X89670000Y-35465714D01*
X89717619Y-35418095D01*
X89812857Y-35370476D01*
X90050952Y-35370476D01*
X90146190Y-35418095D01*
X90193809Y-35465714D01*
X90241428Y-35560952D01*
X90241428Y-35751428D01*
X90193809Y-35846666D01*
X90146190Y-35894285D01*
X90050952Y-35941904D01*
G04 #@! TO.C,C24*
X112117142Y-34037142D02*
X112164761Y-33989523D01*
X112212380Y-33846666D01*
X112212380Y-33751428D01*
X112164761Y-33608571D01*
X112069523Y-33513333D01*
X111974285Y-33465714D01*
X111783809Y-33418095D01*
X111640952Y-33418095D01*
X111450476Y-33465714D01*
X111355238Y-33513333D01*
X111260000Y-33608571D01*
X111212380Y-33751428D01*
X111212380Y-33846666D01*
X111260000Y-33989523D01*
X111307619Y-34037142D01*
X111307619Y-34418095D02*
X111260000Y-34465714D01*
X111212380Y-34560952D01*
X111212380Y-34799047D01*
X111260000Y-34894285D01*
X111307619Y-34941904D01*
X111402857Y-34989523D01*
X111498095Y-34989523D01*
X111640952Y-34941904D01*
X112212380Y-34370476D01*
X112212380Y-34989523D01*
X111545714Y-35846666D02*
X112212380Y-35846666D01*
X111164761Y-35608571D02*
X111879047Y-35370476D01*
X111879047Y-35989523D01*
G04 #@! TO.C,C25*
X68937142Y-34037142D02*
X68984761Y-33989523D01*
X69032380Y-33846666D01*
X69032380Y-33751428D01*
X68984761Y-33608571D01*
X68889523Y-33513333D01*
X68794285Y-33465714D01*
X68603809Y-33418095D01*
X68460952Y-33418095D01*
X68270476Y-33465714D01*
X68175238Y-33513333D01*
X68080000Y-33608571D01*
X68032380Y-33751428D01*
X68032380Y-33846666D01*
X68080000Y-33989523D01*
X68127619Y-34037142D01*
X68127619Y-34418095D02*
X68080000Y-34465714D01*
X68032380Y-34560952D01*
X68032380Y-34799047D01*
X68080000Y-34894285D01*
X68127619Y-34941904D01*
X68222857Y-34989523D01*
X68318095Y-34989523D01*
X68460952Y-34941904D01*
X69032380Y-34370476D01*
X69032380Y-34989523D01*
X68032380Y-35894285D02*
X68032380Y-35418095D01*
X68508571Y-35370476D01*
X68460952Y-35418095D01*
X68413333Y-35513333D01*
X68413333Y-35751428D01*
X68460952Y-35846666D01*
X68508571Y-35894285D01*
X68603809Y-35941904D01*
X68841904Y-35941904D01*
X68937142Y-35894285D01*
X68984761Y-35846666D01*
X69032380Y-35751428D01*
X69032380Y-35513333D01*
X68984761Y-35418095D01*
X68937142Y-35370476D01*
G04 #@! TO.C,C26*
X47347142Y-34037142D02*
X47394761Y-33989523D01*
X47442380Y-33846666D01*
X47442380Y-33751428D01*
X47394761Y-33608571D01*
X47299523Y-33513333D01*
X47204285Y-33465714D01*
X47013809Y-33418095D01*
X46870952Y-33418095D01*
X46680476Y-33465714D01*
X46585238Y-33513333D01*
X46490000Y-33608571D01*
X46442380Y-33751428D01*
X46442380Y-33846666D01*
X46490000Y-33989523D01*
X46537619Y-34037142D01*
X46537619Y-34418095D02*
X46490000Y-34465714D01*
X46442380Y-34560952D01*
X46442380Y-34799047D01*
X46490000Y-34894285D01*
X46537619Y-34941904D01*
X46632857Y-34989523D01*
X46728095Y-34989523D01*
X46870952Y-34941904D01*
X47442380Y-34370476D01*
X47442380Y-34989523D01*
X46442380Y-35846666D02*
X46442380Y-35656190D01*
X46490000Y-35560952D01*
X46537619Y-35513333D01*
X46680476Y-35418095D01*
X46870952Y-35370476D01*
X47251904Y-35370476D01*
X47347142Y-35418095D01*
X47394761Y-35465714D01*
X47442380Y-35560952D01*
X47442380Y-35751428D01*
X47394761Y-35846666D01*
X47347142Y-35894285D01*
X47251904Y-35941904D01*
X47013809Y-35941904D01*
X46918571Y-35894285D01*
X46870952Y-35846666D01*
X46823333Y-35751428D01*
X46823333Y-35560952D01*
X46870952Y-35465714D01*
X46918571Y-35418095D01*
X47013809Y-35370476D01*
G04 #@! TO.C,C27*
X68937142Y-61977142D02*
X68984761Y-61929523D01*
X69032380Y-61786666D01*
X69032380Y-61691428D01*
X68984761Y-61548571D01*
X68889523Y-61453333D01*
X68794285Y-61405714D01*
X68603809Y-61358095D01*
X68460952Y-61358095D01*
X68270476Y-61405714D01*
X68175238Y-61453333D01*
X68080000Y-61548571D01*
X68032380Y-61691428D01*
X68032380Y-61786666D01*
X68080000Y-61929523D01*
X68127619Y-61977142D01*
X68127619Y-62358095D02*
X68080000Y-62405714D01*
X68032380Y-62500952D01*
X68032380Y-62739047D01*
X68080000Y-62834285D01*
X68127619Y-62881904D01*
X68222857Y-62929523D01*
X68318095Y-62929523D01*
X68460952Y-62881904D01*
X69032380Y-62310476D01*
X69032380Y-62929523D01*
X68032380Y-63262857D02*
X68032380Y-63929523D01*
X69032380Y-63500952D01*
G04 #@! TO.C,C28*
X90527142Y-62222142D02*
X90574761Y-62174523D01*
X90622380Y-62031666D01*
X90622380Y-61936428D01*
X90574761Y-61793571D01*
X90479523Y-61698333D01*
X90384285Y-61650714D01*
X90193809Y-61603095D01*
X90050952Y-61603095D01*
X89860476Y-61650714D01*
X89765238Y-61698333D01*
X89670000Y-61793571D01*
X89622380Y-61936428D01*
X89622380Y-62031666D01*
X89670000Y-62174523D01*
X89717619Y-62222142D01*
X89717619Y-62603095D02*
X89670000Y-62650714D01*
X89622380Y-62745952D01*
X89622380Y-62984047D01*
X89670000Y-63079285D01*
X89717619Y-63126904D01*
X89812857Y-63174523D01*
X89908095Y-63174523D01*
X90050952Y-63126904D01*
X90622380Y-62555476D01*
X90622380Y-63174523D01*
X90050952Y-63745952D02*
X90003333Y-63650714D01*
X89955714Y-63603095D01*
X89860476Y-63555476D01*
X89812857Y-63555476D01*
X89717619Y-63603095D01*
X89670000Y-63650714D01*
X89622380Y-63745952D01*
X89622380Y-63936428D01*
X89670000Y-64031666D01*
X89717619Y-64079285D01*
X89812857Y-64126904D01*
X89860476Y-64126904D01*
X89955714Y-64079285D01*
X90003333Y-64031666D01*
X90050952Y-63936428D01*
X90050952Y-63745952D01*
X90098571Y-63650714D01*
X90146190Y-63603095D01*
X90241428Y-63555476D01*
X90431904Y-63555476D01*
X90527142Y-63603095D01*
X90574761Y-63650714D01*
X90622380Y-63745952D01*
X90622380Y-63936428D01*
X90574761Y-64031666D01*
X90527142Y-64079285D01*
X90431904Y-64126904D01*
X90241428Y-64126904D01*
X90146190Y-64079285D01*
X90098571Y-64031666D01*
X90050952Y-63936428D01*
G04 #@! TO.C,U13*
X103473095Y-48982380D02*
X103473095Y-49791904D01*
X103425476Y-49887142D01*
X103377857Y-49934761D01*
X103282619Y-49982380D01*
X103092142Y-49982380D01*
X102996904Y-49934761D01*
X102949285Y-49887142D01*
X102901666Y-49791904D01*
X102901666Y-48982380D01*
X101901666Y-49982380D02*
X102473095Y-49982380D01*
X102187380Y-49982380D02*
X102187380Y-48982380D01*
X102282619Y-49125238D01*
X102377857Y-49220476D01*
X102473095Y-49268095D01*
X101568333Y-48982380D02*
X100949285Y-48982380D01*
X101282619Y-49363333D01*
X101139761Y-49363333D01*
X101044523Y-49410952D01*
X100996904Y-49458571D01*
X100949285Y-49553809D01*
X100949285Y-49791904D01*
X100996904Y-49887142D01*
X101044523Y-49934761D01*
X101139761Y-49982380D01*
X101425476Y-49982380D01*
X101520714Y-49934761D01*
X101568333Y-49887142D01*
X102687380Y-54849047D02*
X101687380Y-54849047D01*
X102639761Y-55277619D02*
X102687380Y-55420476D01*
X102687380Y-55658571D01*
X102639761Y-55753809D01*
X102592142Y-55801428D01*
X102496904Y-55849047D01*
X102401666Y-55849047D01*
X102306428Y-55801428D01*
X102258809Y-55753809D01*
X102211190Y-55658571D01*
X102163571Y-55468095D01*
X102115952Y-55372857D01*
X102068333Y-55325238D01*
X101973095Y-55277619D01*
X101877857Y-55277619D01*
X101782619Y-55325238D01*
X101735000Y-55372857D01*
X101687380Y-55468095D01*
X101687380Y-55706190D01*
X101735000Y-55849047D01*
X101687380Y-56706190D02*
X101687380Y-56515714D01*
X101735000Y-56420476D01*
X101782619Y-56372857D01*
X101925476Y-56277619D01*
X102115952Y-56229999D01*
X102496904Y-56229999D01*
X102592142Y-56277619D01*
X102639761Y-56325238D01*
X102687380Y-56420476D01*
X102687380Y-56610952D01*
X102639761Y-56706190D01*
X102592142Y-56753809D01*
X102496904Y-56801428D01*
X102258809Y-56801428D01*
X102163571Y-56753809D01*
X102115952Y-56706190D01*
X102068333Y-56610952D01*
X102068333Y-56420476D01*
X102115952Y-56325238D01*
X102163571Y-56277619D01*
X102258809Y-56229999D01*
X102687380Y-57753809D02*
X102687380Y-57182380D01*
X102687380Y-57468095D02*
X101687380Y-57468095D01*
X101830238Y-57372857D01*
X101925476Y-57277619D01*
X101973095Y-57182380D01*
X102592142Y-58753809D02*
X102639761Y-58706190D01*
X102687380Y-58563333D01*
X102687380Y-58468095D01*
X102639761Y-58325238D01*
X102544523Y-58229999D01*
X102449285Y-58182380D01*
X102258809Y-58134761D01*
X102115952Y-58134761D01*
X101925476Y-58182380D01*
X101830238Y-58229999D01*
X101735000Y-58325238D01*
X101687380Y-58468095D01*
X101687380Y-58563333D01*
X101735000Y-58706190D01*
X101782619Y-58753809D01*
X101687380Y-59658571D02*
X101687380Y-59182380D01*
X102163571Y-59134761D01*
X102115952Y-59182380D01*
X102068333Y-59277619D01*
X102068333Y-59515714D01*
X102115952Y-59610952D01*
X102163571Y-59658571D01*
X102258809Y-59706190D01*
X102496904Y-59706190D01*
X102592142Y-59658571D01*
X102639761Y-59610952D01*
X102687380Y-59515714D01*
X102687380Y-59277619D01*
X102639761Y-59182380D01*
X102592142Y-59134761D01*
X102687380Y-60658571D02*
X102687380Y-60087142D01*
X102687380Y-60372857D02*
X101687380Y-60372857D01*
X101830238Y-60277619D01*
X101925476Y-60182380D01*
X101973095Y-60087142D01*
X101782619Y-61039523D02*
X101735000Y-61087142D01*
X101687380Y-61182380D01*
X101687380Y-61420476D01*
X101735000Y-61515714D01*
X101782619Y-61563333D01*
X101877857Y-61610952D01*
X101973095Y-61610952D01*
X102115952Y-61563333D01*
X102687380Y-60991904D01*
X102687380Y-61610952D01*
X102115952Y-62182380D02*
X102068333Y-62087142D01*
X102020714Y-62039523D01*
X101925476Y-61991904D01*
X101877857Y-61991904D01*
X101782619Y-62039523D01*
X101735000Y-62087142D01*
X101687380Y-62182380D01*
X101687380Y-62372857D01*
X101735000Y-62468095D01*
X101782619Y-62515714D01*
X101877857Y-62563333D01*
X101925476Y-62563333D01*
X102020714Y-62515714D01*
X102068333Y-62468095D01*
X102115952Y-62372857D01*
X102115952Y-62182380D01*
X102163571Y-62087142D01*
X102211190Y-62039523D01*
X102306428Y-61991904D01*
X102496904Y-61991904D01*
X102592142Y-62039523D01*
X102639761Y-62087142D01*
X102687380Y-62182380D01*
X102687380Y-62372857D01*
X102639761Y-62468095D01*
X102592142Y-62515714D01*
X102496904Y-62563333D01*
X102306428Y-62563333D01*
X102211190Y-62515714D01*
X102163571Y-62468095D01*
X102115952Y-62372857D01*
X102401666Y-62944285D02*
X102401666Y-63420476D01*
X102687380Y-62849047D02*
X101687380Y-63182380D01*
X102687380Y-63515714D01*
X102687380Y-64325238D02*
X102687380Y-63849047D01*
X101687380Y-63849047D01*
X102306428Y-64658571D02*
X102306428Y-65420476D01*
X102687380Y-66420476D02*
X102687380Y-65849047D01*
X102687380Y-66134761D02*
X101687380Y-66134761D01*
X101830238Y-66039523D01*
X101925476Y-65944285D01*
X101973095Y-65849047D01*
X101687380Y-67039523D02*
X101687380Y-67134761D01*
X101735000Y-67229999D01*
X101782619Y-67277619D01*
X101877857Y-67325238D01*
X102068333Y-67372857D01*
X102306428Y-67372857D01*
X102496904Y-67325238D01*
X102592142Y-67277619D01*
X102639761Y-67229999D01*
X102687380Y-67134761D01*
X102687380Y-67039523D01*
X102639761Y-66944285D01*
X102592142Y-66896666D01*
X102496904Y-66849047D01*
X102306428Y-66801428D01*
X102068333Y-66801428D01*
X101877857Y-66849047D01*
X101782619Y-66896666D01*
X101735000Y-66944285D01*
X101687380Y-67039523D01*
X102687380Y-67801428D02*
X101687380Y-67801428D01*
X102687380Y-68372857D02*
X102115952Y-67944285D01*
X101687380Y-68372857D02*
X102258809Y-67801428D01*
X102687380Y-69277619D02*
X102687380Y-68801428D01*
X101687380Y-68801428D01*
X102687380Y-69610952D02*
X101687380Y-69610952D01*
G04 #@! TO.C,U14*
X81883095Y-48982380D02*
X81883095Y-49791904D01*
X81835476Y-49887142D01*
X81787857Y-49934761D01*
X81692619Y-49982380D01*
X81502142Y-49982380D01*
X81406904Y-49934761D01*
X81359285Y-49887142D01*
X81311666Y-49791904D01*
X81311666Y-48982380D01*
X80311666Y-49982380D02*
X80883095Y-49982380D01*
X80597380Y-49982380D02*
X80597380Y-48982380D01*
X80692619Y-49125238D01*
X80787857Y-49220476D01*
X80883095Y-49268095D01*
X79454523Y-49315714D02*
X79454523Y-49982380D01*
X79692619Y-48934761D02*
X79930714Y-49649047D01*
X79311666Y-49649047D01*
X81097380Y-54849047D02*
X80097380Y-54849047D01*
X81049761Y-55277619D02*
X81097380Y-55420476D01*
X81097380Y-55658571D01*
X81049761Y-55753809D01*
X81002142Y-55801428D01*
X80906904Y-55849047D01*
X80811666Y-55849047D01*
X80716428Y-55801428D01*
X80668809Y-55753809D01*
X80621190Y-55658571D01*
X80573571Y-55468095D01*
X80525952Y-55372857D01*
X80478333Y-55325238D01*
X80383095Y-55277619D01*
X80287857Y-55277619D01*
X80192619Y-55325238D01*
X80145000Y-55372857D01*
X80097380Y-55468095D01*
X80097380Y-55706190D01*
X80145000Y-55849047D01*
X80097380Y-56706190D02*
X80097380Y-56515714D01*
X80145000Y-56420476D01*
X80192619Y-56372857D01*
X80335476Y-56277619D01*
X80525952Y-56229999D01*
X80906904Y-56229999D01*
X81002142Y-56277619D01*
X81049761Y-56325238D01*
X81097380Y-56420476D01*
X81097380Y-56610952D01*
X81049761Y-56706190D01*
X81002142Y-56753809D01*
X80906904Y-56801428D01*
X80668809Y-56801428D01*
X80573571Y-56753809D01*
X80525952Y-56706190D01*
X80478333Y-56610952D01*
X80478333Y-56420476D01*
X80525952Y-56325238D01*
X80573571Y-56277619D01*
X80668809Y-56229999D01*
X81097380Y-57753809D02*
X81097380Y-57182380D01*
X81097380Y-57468095D02*
X80097380Y-57468095D01*
X80240238Y-57372857D01*
X80335476Y-57277619D01*
X80383095Y-57182380D01*
X81002142Y-58753809D02*
X81049761Y-58706190D01*
X81097380Y-58563333D01*
X81097380Y-58468095D01*
X81049761Y-58325238D01*
X80954523Y-58229999D01*
X80859285Y-58182380D01*
X80668809Y-58134761D01*
X80525952Y-58134761D01*
X80335476Y-58182380D01*
X80240238Y-58229999D01*
X80145000Y-58325238D01*
X80097380Y-58468095D01*
X80097380Y-58563333D01*
X80145000Y-58706190D01*
X80192619Y-58753809D01*
X80097380Y-59658571D02*
X80097380Y-59182380D01*
X80573571Y-59134761D01*
X80525952Y-59182380D01*
X80478333Y-59277619D01*
X80478333Y-59515714D01*
X80525952Y-59610952D01*
X80573571Y-59658571D01*
X80668809Y-59706190D01*
X80906904Y-59706190D01*
X81002142Y-59658571D01*
X81049761Y-59610952D01*
X81097380Y-59515714D01*
X81097380Y-59277619D01*
X81049761Y-59182380D01*
X81002142Y-59134761D01*
X81097380Y-60658571D02*
X81097380Y-60087142D01*
X81097380Y-60372857D02*
X80097380Y-60372857D01*
X80240238Y-60277619D01*
X80335476Y-60182380D01*
X80383095Y-60087142D01*
X80192619Y-61039523D02*
X80145000Y-61087142D01*
X80097380Y-61182380D01*
X80097380Y-61420476D01*
X80145000Y-61515714D01*
X80192619Y-61563333D01*
X80287857Y-61610952D01*
X80383095Y-61610952D01*
X80525952Y-61563333D01*
X81097380Y-60991904D01*
X81097380Y-61610952D01*
X80525952Y-62182380D02*
X80478333Y-62087142D01*
X80430714Y-62039523D01*
X80335476Y-61991904D01*
X80287857Y-61991904D01*
X80192619Y-62039523D01*
X80145000Y-62087142D01*
X80097380Y-62182380D01*
X80097380Y-62372857D01*
X80145000Y-62468095D01*
X80192619Y-62515714D01*
X80287857Y-62563333D01*
X80335476Y-62563333D01*
X80430714Y-62515714D01*
X80478333Y-62468095D01*
X80525952Y-62372857D01*
X80525952Y-62182380D01*
X80573571Y-62087142D01*
X80621190Y-62039523D01*
X80716428Y-61991904D01*
X80906904Y-61991904D01*
X81002142Y-62039523D01*
X81049761Y-62087142D01*
X81097380Y-62182380D01*
X81097380Y-62372857D01*
X81049761Y-62468095D01*
X81002142Y-62515714D01*
X80906904Y-62563333D01*
X80716428Y-62563333D01*
X80621190Y-62515714D01*
X80573571Y-62468095D01*
X80525952Y-62372857D01*
X80811666Y-62944285D02*
X80811666Y-63420476D01*
X81097380Y-62849047D02*
X80097380Y-63182380D01*
X81097380Y-63515714D01*
X81097380Y-64325238D02*
X81097380Y-63849047D01*
X80097380Y-63849047D01*
X80716428Y-64658571D02*
X80716428Y-65420476D01*
X81097380Y-66420476D02*
X81097380Y-65849047D01*
X81097380Y-66134761D02*
X80097380Y-66134761D01*
X80240238Y-66039523D01*
X80335476Y-65944285D01*
X80383095Y-65849047D01*
X80097380Y-67039523D02*
X80097380Y-67134761D01*
X80145000Y-67229999D01*
X80192619Y-67277619D01*
X80287857Y-67325238D01*
X80478333Y-67372857D01*
X80716428Y-67372857D01*
X80906904Y-67325238D01*
X81002142Y-67277619D01*
X81049761Y-67229999D01*
X81097380Y-67134761D01*
X81097380Y-67039523D01*
X81049761Y-66944285D01*
X81002142Y-66896666D01*
X80906904Y-66849047D01*
X80716428Y-66801428D01*
X80478333Y-66801428D01*
X80287857Y-66849047D01*
X80192619Y-66896666D01*
X80145000Y-66944285D01*
X80097380Y-67039523D01*
X81097380Y-67801428D02*
X80097380Y-67801428D01*
X81097380Y-68372857D02*
X80525952Y-67944285D01*
X80097380Y-68372857D02*
X80668809Y-67801428D01*
X81097380Y-69277619D02*
X81097380Y-68801428D01*
X80097380Y-68801428D01*
X81097380Y-69610952D02*
X80097380Y-69610952D01*
G04 #@! TO.C,U16*
X38703095Y-48982380D02*
X38703095Y-49791904D01*
X38655476Y-49887142D01*
X38607857Y-49934761D01*
X38512619Y-49982380D01*
X38322142Y-49982380D01*
X38226904Y-49934761D01*
X38179285Y-49887142D01*
X38131666Y-49791904D01*
X38131666Y-48982380D01*
X37131666Y-49982380D02*
X37703095Y-49982380D01*
X37417380Y-49982380D02*
X37417380Y-48982380D01*
X37512619Y-49125238D01*
X37607857Y-49220476D01*
X37703095Y-49268095D01*
X36274523Y-48982380D02*
X36465000Y-48982380D01*
X36560238Y-49030000D01*
X36607857Y-49077619D01*
X36703095Y-49220476D01*
X36750714Y-49410952D01*
X36750714Y-49791904D01*
X36703095Y-49887142D01*
X36655476Y-49934761D01*
X36560238Y-49982380D01*
X36369761Y-49982380D01*
X36274523Y-49934761D01*
X36226904Y-49887142D01*
X36179285Y-49791904D01*
X36179285Y-49553809D01*
X36226904Y-49458571D01*
X36274523Y-49410952D01*
X36369761Y-49363333D01*
X36560238Y-49363333D01*
X36655476Y-49410952D01*
X36703095Y-49458571D01*
X36750714Y-49553809D01*
X37917380Y-54214047D02*
X36917380Y-54214047D01*
X37869761Y-54642619D02*
X37917380Y-54785476D01*
X37917380Y-55023571D01*
X37869761Y-55118809D01*
X37822142Y-55166428D01*
X37726904Y-55214047D01*
X37631666Y-55214047D01*
X37536428Y-55166428D01*
X37488809Y-55118809D01*
X37441190Y-55023571D01*
X37393571Y-54833095D01*
X37345952Y-54737857D01*
X37298333Y-54690238D01*
X37203095Y-54642619D01*
X37107857Y-54642619D01*
X37012619Y-54690238D01*
X36965000Y-54737857D01*
X36917380Y-54833095D01*
X36917380Y-55071190D01*
X36965000Y-55214047D01*
X36917380Y-56071190D02*
X36917380Y-55880714D01*
X36965000Y-55785476D01*
X37012619Y-55737857D01*
X37155476Y-55642619D01*
X37345952Y-55595000D01*
X37726904Y-55595000D01*
X37822142Y-55642619D01*
X37869761Y-55690238D01*
X37917380Y-55785476D01*
X37917380Y-55975952D01*
X37869761Y-56071190D01*
X37822142Y-56118809D01*
X37726904Y-56166428D01*
X37488809Y-56166428D01*
X37393571Y-56118809D01*
X37345952Y-56071190D01*
X37298333Y-55975952D01*
X37298333Y-55785476D01*
X37345952Y-55690238D01*
X37393571Y-55642619D01*
X37488809Y-55595000D01*
X37917380Y-57118809D02*
X37917380Y-56547380D01*
X37917380Y-56833095D02*
X36917380Y-56833095D01*
X37060238Y-56737857D01*
X37155476Y-56642619D01*
X37203095Y-56547380D01*
X37822142Y-58118809D02*
X37869761Y-58071190D01*
X37917380Y-57928333D01*
X37917380Y-57833095D01*
X37869761Y-57690238D01*
X37774523Y-57595000D01*
X37679285Y-57547380D01*
X37488809Y-57499761D01*
X37345952Y-57499761D01*
X37155476Y-57547380D01*
X37060238Y-57595000D01*
X36965000Y-57690238D01*
X36917380Y-57833095D01*
X36917380Y-57928333D01*
X36965000Y-58071190D01*
X37012619Y-58118809D01*
X36917380Y-59023571D02*
X36917380Y-58547380D01*
X37393571Y-58499761D01*
X37345952Y-58547380D01*
X37298333Y-58642619D01*
X37298333Y-58880714D01*
X37345952Y-58975952D01*
X37393571Y-59023571D01*
X37488809Y-59071190D01*
X37726904Y-59071190D01*
X37822142Y-59023571D01*
X37869761Y-58975952D01*
X37917380Y-58880714D01*
X37917380Y-58642619D01*
X37869761Y-58547380D01*
X37822142Y-58499761D01*
X37917380Y-60023571D02*
X37917380Y-59452142D01*
X37917380Y-59737857D02*
X36917380Y-59737857D01*
X37060238Y-59642619D01*
X37155476Y-59547380D01*
X37203095Y-59452142D01*
X37012619Y-60404523D02*
X36965000Y-60452142D01*
X36917380Y-60547380D01*
X36917380Y-60785476D01*
X36965000Y-60880714D01*
X37012619Y-60928333D01*
X37107857Y-60975952D01*
X37203095Y-60975952D01*
X37345952Y-60928333D01*
X37917380Y-60356904D01*
X37917380Y-60975952D01*
X37345952Y-61547380D02*
X37298333Y-61452142D01*
X37250714Y-61404523D01*
X37155476Y-61356904D01*
X37107857Y-61356904D01*
X37012619Y-61404523D01*
X36965000Y-61452142D01*
X36917380Y-61547380D01*
X36917380Y-61737857D01*
X36965000Y-61833095D01*
X37012619Y-61880714D01*
X37107857Y-61928333D01*
X37155476Y-61928333D01*
X37250714Y-61880714D01*
X37298333Y-61833095D01*
X37345952Y-61737857D01*
X37345952Y-61547380D01*
X37393571Y-61452142D01*
X37441190Y-61404523D01*
X37536428Y-61356904D01*
X37726904Y-61356904D01*
X37822142Y-61404523D01*
X37869761Y-61452142D01*
X37917380Y-61547380D01*
X37917380Y-61737857D01*
X37869761Y-61833095D01*
X37822142Y-61880714D01*
X37726904Y-61928333D01*
X37536428Y-61928333D01*
X37441190Y-61880714D01*
X37393571Y-61833095D01*
X37345952Y-61737857D01*
X37631666Y-62309285D02*
X37631666Y-62785476D01*
X37917380Y-62214047D02*
X36917380Y-62547380D01*
X37917380Y-62880714D01*
X37917380Y-63690238D02*
X37917380Y-63214047D01*
X36917380Y-63214047D01*
X37536428Y-64023571D02*
X37536428Y-64785476D01*
X37917380Y-65785476D02*
X37917380Y-65214047D01*
X37917380Y-65499761D02*
X36917380Y-65499761D01*
X37060238Y-65404523D01*
X37155476Y-65309285D01*
X37203095Y-65214047D01*
X36917380Y-66404523D02*
X36917380Y-66499761D01*
X36965000Y-66595000D01*
X37012619Y-66642619D01*
X37107857Y-66690238D01*
X37298333Y-66737857D01*
X37536428Y-66737857D01*
X37726904Y-66690238D01*
X37822142Y-66642619D01*
X37869761Y-66595000D01*
X37917380Y-66499761D01*
X37917380Y-66404523D01*
X37869761Y-66309285D01*
X37822142Y-66261666D01*
X37726904Y-66214047D01*
X37536428Y-66166428D01*
X37298333Y-66166428D01*
X37107857Y-66214047D01*
X37012619Y-66261666D01*
X36965000Y-66309285D01*
X36917380Y-66404523D01*
X37917380Y-67166428D02*
X36917380Y-67166428D01*
X37917380Y-67737857D02*
X37345952Y-67309285D01*
X36917380Y-67737857D02*
X37488809Y-67166428D01*
X37917380Y-68642619D02*
X37917380Y-68166428D01*
X36917380Y-68166428D01*
X37917380Y-68975952D02*
X36917380Y-68975952D01*
G04 #@! TO.C,U15*
X60293095Y-48982380D02*
X60293095Y-49791904D01*
X60245476Y-49887142D01*
X60197857Y-49934761D01*
X60102619Y-49982380D01*
X59912142Y-49982380D01*
X59816904Y-49934761D01*
X59769285Y-49887142D01*
X59721666Y-49791904D01*
X59721666Y-48982380D01*
X58721666Y-49982380D02*
X59293095Y-49982380D01*
X59007380Y-49982380D02*
X59007380Y-48982380D01*
X59102619Y-49125238D01*
X59197857Y-49220476D01*
X59293095Y-49268095D01*
X57816904Y-48982380D02*
X58293095Y-48982380D01*
X58340714Y-49458571D01*
X58293095Y-49410952D01*
X58197857Y-49363333D01*
X57959761Y-49363333D01*
X57864523Y-49410952D01*
X57816904Y-49458571D01*
X57769285Y-49553809D01*
X57769285Y-49791904D01*
X57816904Y-49887142D01*
X57864523Y-49934761D01*
X57959761Y-49982380D01*
X58197857Y-49982380D01*
X58293095Y-49934761D01*
X58340714Y-49887142D01*
X59507380Y-54849047D02*
X58507380Y-54849047D01*
X59459761Y-55277619D02*
X59507380Y-55420476D01*
X59507380Y-55658571D01*
X59459761Y-55753809D01*
X59412142Y-55801428D01*
X59316904Y-55849047D01*
X59221666Y-55849047D01*
X59126428Y-55801428D01*
X59078809Y-55753809D01*
X59031190Y-55658571D01*
X58983571Y-55468095D01*
X58935952Y-55372857D01*
X58888333Y-55325238D01*
X58793095Y-55277619D01*
X58697857Y-55277619D01*
X58602619Y-55325238D01*
X58555000Y-55372857D01*
X58507380Y-55468095D01*
X58507380Y-55706190D01*
X58555000Y-55849047D01*
X58507380Y-56706190D02*
X58507380Y-56515714D01*
X58555000Y-56420476D01*
X58602619Y-56372857D01*
X58745476Y-56277619D01*
X58935952Y-56230000D01*
X59316904Y-56230000D01*
X59412142Y-56277619D01*
X59459761Y-56325238D01*
X59507380Y-56420476D01*
X59507380Y-56610952D01*
X59459761Y-56706190D01*
X59412142Y-56753809D01*
X59316904Y-56801428D01*
X59078809Y-56801428D01*
X58983571Y-56753809D01*
X58935952Y-56706190D01*
X58888333Y-56610952D01*
X58888333Y-56420476D01*
X58935952Y-56325238D01*
X58983571Y-56277619D01*
X59078809Y-56230000D01*
X59507380Y-57753809D02*
X59507380Y-57182380D01*
X59507380Y-57468095D02*
X58507380Y-57468095D01*
X58650238Y-57372857D01*
X58745476Y-57277619D01*
X58793095Y-57182380D01*
X59412142Y-58753809D02*
X59459761Y-58706190D01*
X59507380Y-58563333D01*
X59507380Y-58468095D01*
X59459761Y-58325238D01*
X59364523Y-58230000D01*
X59269285Y-58182380D01*
X59078809Y-58134761D01*
X58935952Y-58134761D01*
X58745476Y-58182380D01*
X58650238Y-58230000D01*
X58555000Y-58325238D01*
X58507380Y-58468095D01*
X58507380Y-58563333D01*
X58555000Y-58706190D01*
X58602619Y-58753809D01*
X58507380Y-59658571D02*
X58507380Y-59182380D01*
X58983571Y-59134761D01*
X58935952Y-59182380D01*
X58888333Y-59277619D01*
X58888333Y-59515714D01*
X58935952Y-59610952D01*
X58983571Y-59658571D01*
X59078809Y-59706190D01*
X59316904Y-59706190D01*
X59412142Y-59658571D01*
X59459761Y-59610952D01*
X59507380Y-59515714D01*
X59507380Y-59277619D01*
X59459761Y-59182380D01*
X59412142Y-59134761D01*
X59507380Y-60658571D02*
X59507380Y-60087142D01*
X59507380Y-60372857D02*
X58507380Y-60372857D01*
X58650238Y-60277619D01*
X58745476Y-60182380D01*
X58793095Y-60087142D01*
X58602619Y-61039523D02*
X58555000Y-61087142D01*
X58507380Y-61182380D01*
X58507380Y-61420476D01*
X58555000Y-61515714D01*
X58602619Y-61563333D01*
X58697857Y-61610952D01*
X58793095Y-61610952D01*
X58935952Y-61563333D01*
X59507380Y-60991904D01*
X59507380Y-61610952D01*
X58935952Y-62182380D02*
X58888333Y-62087142D01*
X58840714Y-62039523D01*
X58745476Y-61991904D01*
X58697857Y-61991904D01*
X58602619Y-62039523D01*
X58555000Y-62087142D01*
X58507380Y-62182380D01*
X58507380Y-62372857D01*
X58555000Y-62468095D01*
X58602619Y-62515714D01*
X58697857Y-62563333D01*
X58745476Y-62563333D01*
X58840714Y-62515714D01*
X58888333Y-62468095D01*
X58935952Y-62372857D01*
X58935952Y-62182380D01*
X58983571Y-62087142D01*
X59031190Y-62039523D01*
X59126428Y-61991904D01*
X59316904Y-61991904D01*
X59412142Y-62039523D01*
X59459761Y-62087142D01*
X59507380Y-62182380D01*
X59507380Y-62372857D01*
X59459761Y-62468095D01*
X59412142Y-62515714D01*
X59316904Y-62563333D01*
X59126428Y-62563333D01*
X59031190Y-62515714D01*
X58983571Y-62468095D01*
X58935952Y-62372857D01*
X59221666Y-62944285D02*
X59221666Y-63420476D01*
X59507380Y-62849047D02*
X58507380Y-63182380D01*
X59507380Y-63515714D01*
X59507380Y-64325238D02*
X59507380Y-63849047D01*
X58507380Y-63849047D01*
X59126428Y-64658571D02*
X59126428Y-65420476D01*
X59507380Y-66420476D02*
X59507380Y-65849047D01*
X59507380Y-66134761D02*
X58507380Y-66134761D01*
X58650238Y-66039523D01*
X58745476Y-65944285D01*
X58793095Y-65849047D01*
X58507380Y-67039523D02*
X58507380Y-67134761D01*
X58555000Y-67230000D01*
X58602619Y-67277619D01*
X58697857Y-67325238D01*
X58888333Y-67372857D01*
X59126428Y-67372857D01*
X59316904Y-67325238D01*
X59412142Y-67277619D01*
X59459761Y-67230000D01*
X59507380Y-67134761D01*
X59507380Y-67039523D01*
X59459761Y-66944285D01*
X59412142Y-66896666D01*
X59316904Y-66849047D01*
X59126428Y-66801428D01*
X58888333Y-66801428D01*
X58697857Y-66849047D01*
X58602619Y-66896666D01*
X58555000Y-66944285D01*
X58507380Y-67039523D01*
X59507380Y-67801428D02*
X58507380Y-67801428D01*
X59507380Y-68372857D02*
X58935952Y-67944285D01*
X58507380Y-68372857D02*
X59078809Y-67801428D01*
X59507380Y-69277619D02*
X59507380Y-68801428D01*
X58507380Y-68801428D01*
X59507380Y-69610952D02*
X58507380Y-69610952D01*
G04 #@! TO.C,U8*
X38226904Y-21042380D02*
X38226904Y-21851904D01*
X38179285Y-21947142D01*
X38131666Y-21994761D01*
X38036428Y-22042380D01*
X37845952Y-22042380D01*
X37750714Y-21994761D01*
X37703095Y-21947142D01*
X37655476Y-21851904D01*
X37655476Y-21042380D01*
X37036428Y-21470952D02*
X37131666Y-21423333D01*
X37179285Y-21375714D01*
X37226904Y-21280476D01*
X37226904Y-21232857D01*
X37179285Y-21137619D01*
X37131666Y-21090000D01*
X37036428Y-21042380D01*
X36845952Y-21042380D01*
X36750714Y-21090000D01*
X36703095Y-21137619D01*
X36655476Y-21232857D01*
X36655476Y-21280476D01*
X36703095Y-21375714D01*
X36750714Y-21423333D01*
X36845952Y-21470952D01*
X37036428Y-21470952D01*
X37131666Y-21518571D01*
X37179285Y-21566190D01*
X37226904Y-21661428D01*
X37226904Y-21851904D01*
X37179285Y-21947142D01*
X37131666Y-21994761D01*
X37036428Y-22042380D01*
X36845952Y-22042380D01*
X36750714Y-21994761D01*
X36703095Y-21947142D01*
X36655476Y-21851904D01*
X36655476Y-21661428D01*
X36703095Y-21566190D01*
X36750714Y-21518571D01*
X36845952Y-21470952D01*
X37917380Y-26909047D02*
X36917380Y-26909047D01*
X37869761Y-27337619D02*
X37917380Y-27480476D01*
X37917380Y-27718571D01*
X37869761Y-27813809D01*
X37822142Y-27861428D01*
X37726904Y-27909047D01*
X37631666Y-27909047D01*
X37536428Y-27861428D01*
X37488809Y-27813809D01*
X37441190Y-27718571D01*
X37393571Y-27528095D01*
X37345952Y-27432857D01*
X37298333Y-27385238D01*
X37203095Y-27337619D01*
X37107857Y-27337619D01*
X37012619Y-27385238D01*
X36965000Y-27432857D01*
X36917380Y-27528095D01*
X36917380Y-27766190D01*
X36965000Y-27909047D01*
X36917380Y-28766190D02*
X36917380Y-28575714D01*
X36965000Y-28480476D01*
X37012619Y-28432857D01*
X37155476Y-28337619D01*
X37345952Y-28290000D01*
X37726904Y-28290000D01*
X37822142Y-28337619D01*
X37869761Y-28385238D01*
X37917380Y-28480476D01*
X37917380Y-28670952D01*
X37869761Y-28766190D01*
X37822142Y-28813809D01*
X37726904Y-28861428D01*
X37488809Y-28861428D01*
X37393571Y-28813809D01*
X37345952Y-28766190D01*
X37298333Y-28670952D01*
X37298333Y-28480476D01*
X37345952Y-28385238D01*
X37393571Y-28337619D01*
X37488809Y-28290000D01*
X37917380Y-29813809D02*
X37917380Y-29242380D01*
X37917380Y-29528095D02*
X36917380Y-29528095D01*
X37060238Y-29432857D01*
X37155476Y-29337619D01*
X37203095Y-29242380D01*
X37822142Y-30813809D02*
X37869761Y-30766190D01*
X37917380Y-30623333D01*
X37917380Y-30528095D01*
X37869761Y-30385238D01*
X37774523Y-30290000D01*
X37679285Y-30242380D01*
X37488809Y-30194761D01*
X37345952Y-30194761D01*
X37155476Y-30242380D01*
X37060238Y-30290000D01*
X36965000Y-30385238D01*
X36917380Y-30528095D01*
X36917380Y-30623333D01*
X36965000Y-30766190D01*
X37012619Y-30813809D01*
X36917380Y-31718571D02*
X36917380Y-31242380D01*
X37393571Y-31194761D01*
X37345952Y-31242380D01*
X37298333Y-31337619D01*
X37298333Y-31575714D01*
X37345952Y-31670952D01*
X37393571Y-31718571D01*
X37488809Y-31766190D01*
X37726904Y-31766190D01*
X37822142Y-31718571D01*
X37869761Y-31670952D01*
X37917380Y-31575714D01*
X37917380Y-31337619D01*
X37869761Y-31242380D01*
X37822142Y-31194761D01*
X37917380Y-32718571D02*
X37917380Y-32147142D01*
X37917380Y-32432857D02*
X36917380Y-32432857D01*
X37060238Y-32337619D01*
X37155476Y-32242380D01*
X37203095Y-32147142D01*
X37012619Y-33099523D02*
X36965000Y-33147142D01*
X36917380Y-33242380D01*
X36917380Y-33480476D01*
X36965000Y-33575714D01*
X37012619Y-33623333D01*
X37107857Y-33670952D01*
X37203095Y-33670952D01*
X37345952Y-33623333D01*
X37917380Y-33051904D01*
X37917380Y-33670952D01*
X37345952Y-34242380D02*
X37298333Y-34147142D01*
X37250714Y-34099523D01*
X37155476Y-34051904D01*
X37107857Y-34051904D01*
X37012619Y-34099523D01*
X36965000Y-34147142D01*
X36917380Y-34242380D01*
X36917380Y-34432857D01*
X36965000Y-34528095D01*
X37012619Y-34575714D01*
X37107857Y-34623333D01*
X37155476Y-34623333D01*
X37250714Y-34575714D01*
X37298333Y-34528095D01*
X37345952Y-34432857D01*
X37345952Y-34242380D01*
X37393571Y-34147142D01*
X37441190Y-34099523D01*
X37536428Y-34051904D01*
X37726904Y-34051904D01*
X37822142Y-34099523D01*
X37869761Y-34147142D01*
X37917380Y-34242380D01*
X37917380Y-34432857D01*
X37869761Y-34528095D01*
X37822142Y-34575714D01*
X37726904Y-34623333D01*
X37536428Y-34623333D01*
X37441190Y-34575714D01*
X37393571Y-34528095D01*
X37345952Y-34432857D01*
X37631666Y-35004285D02*
X37631666Y-35480476D01*
X37917380Y-34909047D02*
X36917380Y-35242380D01*
X37917380Y-35575714D01*
X37917380Y-36385238D02*
X37917380Y-35909047D01*
X36917380Y-35909047D01*
X37536428Y-36718571D02*
X37536428Y-37480476D01*
X37917380Y-38480476D02*
X37917380Y-37909047D01*
X37917380Y-38194761D02*
X36917380Y-38194761D01*
X37060238Y-38099523D01*
X37155476Y-38004285D01*
X37203095Y-37909047D01*
X36917380Y-39099523D02*
X36917380Y-39194761D01*
X36965000Y-39290000D01*
X37012619Y-39337619D01*
X37107857Y-39385238D01*
X37298333Y-39432857D01*
X37536428Y-39432857D01*
X37726904Y-39385238D01*
X37822142Y-39337619D01*
X37869761Y-39290000D01*
X37917380Y-39194761D01*
X37917380Y-39099523D01*
X37869761Y-39004285D01*
X37822142Y-38956666D01*
X37726904Y-38909047D01*
X37536428Y-38861428D01*
X37298333Y-38861428D01*
X37107857Y-38909047D01*
X37012619Y-38956666D01*
X36965000Y-39004285D01*
X36917380Y-39099523D01*
X37917380Y-39861428D02*
X36917380Y-39861428D01*
X37917380Y-40432857D02*
X37345952Y-40004285D01*
X36917380Y-40432857D02*
X37488809Y-39861428D01*
X37917380Y-41337619D02*
X37917380Y-40861428D01*
X36917380Y-40861428D01*
X37917380Y-41670952D02*
X36917380Y-41670952D01*
G04 #@! TO.C,U7*
X59816904Y-21042380D02*
X59816904Y-21851904D01*
X59769285Y-21947142D01*
X59721666Y-21994761D01*
X59626428Y-22042380D01*
X59435952Y-22042380D01*
X59340714Y-21994761D01*
X59293095Y-21947142D01*
X59245476Y-21851904D01*
X59245476Y-21042380D01*
X58864523Y-21042380D02*
X58197857Y-21042380D01*
X58626428Y-22042380D01*
X59507380Y-26909047D02*
X58507380Y-26909047D01*
X59459761Y-27337619D02*
X59507380Y-27480476D01*
X59507380Y-27718571D01*
X59459761Y-27813809D01*
X59412142Y-27861428D01*
X59316904Y-27909047D01*
X59221666Y-27909047D01*
X59126428Y-27861428D01*
X59078809Y-27813809D01*
X59031190Y-27718571D01*
X58983571Y-27528095D01*
X58935952Y-27432857D01*
X58888333Y-27385238D01*
X58793095Y-27337619D01*
X58697857Y-27337619D01*
X58602619Y-27385238D01*
X58555000Y-27432857D01*
X58507380Y-27528095D01*
X58507380Y-27766190D01*
X58555000Y-27909047D01*
X58507380Y-28766190D02*
X58507380Y-28575714D01*
X58555000Y-28480476D01*
X58602619Y-28432857D01*
X58745476Y-28337619D01*
X58935952Y-28290000D01*
X59316904Y-28290000D01*
X59412142Y-28337619D01*
X59459761Y-28385238D01*
X59507380Y-28480476D01*
X59507380Y-28670952D01*
X59459761Y-28766190D01*
X59412142Y-28813809D01*
X59316904Y-28861428D01*
X59078809Y-28861428D01*
X58983571Y-28813809D01*
X58935952Y-28766190D01*
X58888333Y-28670952D01*
X58888333Y-28480476D01*
X58935952Y-28385238D01*
X58983571Y-28337619D01*
X59078809Y-28290000D01*
X59507380Y-29813809D02*
X59507380Y-29242380D01*
X59507380Y-29528095D02*
X58507380Y-29528095D01*
X58650238Y-29432857D01*
X58745476Y-29337619D01*
X58793095Y-29242380D01*
X59412142Y-30813809D02*
X59459761Y-30766190D01*
X59507380Y-30623333D01*
X59507380Y-30528095D01*
X59459761Y-30385238D01*
X59364523Y-30290000D01*
X59269285Y-30242380D01*
X59078809Y-30194761D01*
X58935952Y-30194761D01*
X58745476Y-30242380D01*
X58650238Y-30290000D01*
X58555000Y-30385238D01*
X58507380Y-30528095D01*
X58507380Y-30623333D01*
X58555000Y-30766190D01*
X58602619Y-30813809D01*
X58507380Y-31718571D02*
X58507380Y-31242380D01*
X58983571Y-31194761D01*
X58935952Y-31242380D01*
X58888333Y-31337619D01*
X58888333Y-31575714D01*
X58935952Y-31670952D01*
X58983571Y-31718571D01*
X59078809Y-31766190D01*
X59316904Y-31766190D01*
X59412142Y-31718571D01*
X59459761Y-31670952D01*
X59507380Y-31575714D01*
X59507380Y-31337619D01*
X59459761Y-31242380D01*
X59412142Y-31194761D01*
X59507380Y-32718571D02*
X59507380Y-32147142D01*
X59507380Y-32432857D02*
X58507380Y-32432857D01*
X58650238Y-32337619D01*
X58745476Y-32242380D01*
X58793095Y-32147142D01*
X58602619Y-33099523D02*
X58555000Y-33147142D01*
X58507380Y-33242380D01*
X58507380Y-33480476D01*
X58555000Y-33575714D01*
X58602619Y-33623333D01*
X58697857Y-33670952D01*
X58793095Y-33670952D01*
X58935952Y-33623333D01*
X59507380Y-33051904D01*
X59507380Y-33670952D01*
X58935952Y-34242380D02*
X58888333Y-34147142D01*
X58840714Y-34099523D01*
X58745476Y-34051904D01*
X58697857Y-34051904D01*
X58602619Y-34099523D01*
X58555000Y-34147142D01*
X58507380Y-34242380D01*
X58507380Y-34432857D01*
X58555000Y-34528095D01*
X58602619Y-34575714D01*
X58697857Y-34623333D01*
X58745476Y-34623333D01*
X58840714Y-34575714D01*
X58888333Y-34528095D01*
X58935952Y-34432857D01*
X58935952Y-34242380D01*
X58983571Y-34147142D01*
X59031190Y-34099523D01*
X59126428Y-34051904D01*
X59316904Y-34051904D01*
X59412142Y-34099523D01*
X59459761Y-34147142D01*
X59507380Y-34242380D01*
X59507380Y-34432857D01*
X59459761Y-34528095D01*
X59412142Y-34575714D01*
X59316904Y-34623333D01*
X59126428Y-34623333D01*
X59031190Y-34575714D01*
X58983571Y-34528095D01*
X58935952Y-34432857D01*
X59221666Y-35004285D02*
X59221666Y-35480476D01*
X59507380Y-34909047D02*
X58507380Y-35242380D01*
X59507380Y-35575714D01*
X59507380Y-36385238D02*
X59507380Y-35909047D01*
X58507380Y-35909047D01*
X59126428Y-36718571D02*
X59126428Y-37480476D01*
X59507380Y-38480476D02*
X59507380Y-37909047D01*
X59507380Y-38194761D02*
X58507380Y-38194761D01*
X58650238Y-38099523D01*
X58745476Y-38004285D01*
X58793095Y-37909047D01*
X58507380Y-39099523D02*
X58507380Y-39194761D01*
X58555000Y-39289999D01*
X58602619Y-39337619D01*
X58697857Y-39385238D01*
X58888333Y-39432857D01*
X59126428Y-39432857D01*
X59316904Y-39385238D01*
X59412142Y-39337619D01*
X59459761Y-39289999D01*
X59507380Y-39194761D01*
X59507380Y-39099523D01*
X59459761Y-39004285D01*
X59412142Y-38956666D01*
X59316904Y-38909047D01*
X59126428Y-38861428D01*
X58888333Y-38861428D01*
X58697857Y-38909047D01*
X58602619Y-38956666D01*
X58555000Y-39004285D01*
X58507380Y-39099523D01*
X59507380Y-39861428D02*
X58507380Y-39861428D01*
X59507380Y-40432857D02*
X58935952Y-40004285D01*
X58507380Y-40432857D02*
X59078809Y-39861428D01*
X59507380Y-41337619D02*
X59507380Y-40861428D01*
X58507380Y-40861428D01*
X59507380Y-41670952D02*
X58507380Y-41670952D01*
G04 #@! TO.C,U6*
X81406904Y-21042380D02*
X81406904Y-21851904D01*
X81359285Y-21947142D01*
X81311666Y-21994761D01*
X81216428Y-22042380D01*
X81025952Y-22042380D01*
X80930714Y-21994761D01*
X80883095Y-21947142D01*
X80835476Y-21851904D01*
X80835476Y-21042380D01*
X79930714Y-21042380D02*
X80121190Y-21042380D01*
X80216428Y-21090000D01*
X80264047Y-21137619D01*
X80359285Y-21280476D01*
X80406904Y-21470952D01*
X80406904Y-21851904D01*
X80359285Y-21947142D01*
X80311666Y-21994761D01*
X80216428Y-22042380D01*
X80025952Y-22042380D01*
X79930714Y-21994761D01*
X79883095Y-21947142D01*
X79835476Y-21851904D01*
X79835476Y-21613809D01*
X79883095Y-21518571D01*
X79930714Y-21470952D01*
X80025952Y-21423333D01*
X80216428Y-21423333D01*
X80311666Y-21470952D01*
X80359285Y-21518571D01*
X80406904Y-21613809D01*
X81097380Y-26909047D02*
X80097380Y-26909047D01*
X81049761Y-27337619D02*
X81097380Y-27480476D01*
X81097380Y-27718571D01*
X81049761Y-27813809D01*
X81002142Y-27861428D01*
X80906904Y-27909047D01*
X80811666Y-27909047D01*
X80716428Y-27861428D01*
X80668809Y-27813809D01*
X80621190Y-27718571D01*
X80573571Y-27528095D01*
X80525952Y-27432857D01*
X80478333Y-27385238D01*
X80383095Y-27337619D01*
X80287857Y-27337619D01*
X80192619Y-27385238D01*
X80145000Y-27432857D01*
X80097380Y-27528095D01*
X80097380Y-27766190D01*
X80145000Y-27909047D01*
X80097380Y-28766190D02*
X80097380Y-28575714D01*
X80145000Y-28480476D01*
X80192619Y-28432857D01*
X80335476Y-28337619D01*
X80525952Y-28289999D01*
X80906904Y-28289999D01*
X81002142Y-28337619D01*
X81049761Y-28385238D01*
X81097380Y-28480476D01*
X81097380Y-28670952D01*
X81049761Y-28766190D01*
X81002142Y-28813809D01*
X80906904Y-28861428D01*
X80668809Y-28861428D01*
X80573571Y-28813809D01*
X80525952Y-28766190D01*
X80478333Y-28670952D01*
X80478333Y-28480476D01*
X80525952Y-28385238D01*
X80573571Y-28337619D01*
X80668809Y-28289999D01*
X81097380Y-29813809D02*
X81097380Y-29242380D01*
X81097380Y-29528095D02*
X80097380Y-29528095D01*
X80240238Y-29432857D01*
X80335476Y-29337619D01*
X80383095Y-29242380D01*
X81002142Y-30813809D02*
X81049761Y-30766190D01*
X81097380Y-30623333D01*
X81097380Y-30528095D01*
X81049761Y-30385238D01*
X80954523Y-30289999D01*
X80859285Y-30242380D01*
X80668809Y-30194761D01*
X80525952Y-30194761D01*
X80335476Y-30242380D01*
X80240238Y-30289999D01*
X80145000Y-30385238D01*
X80097380Y-30528095D01*
X80097380Y-30623333D01*
X80145000Y-30766190D01*
X80192619Y-30813809D01*
X80097380Y-31718571D02*
X80097380Y-31242380D01*
X80573571Y-31194761D01*
X80525952Y-31242380D01*
X80478333Y-31337619D01*
X80478333Y-31575714D01*
X80525952Y-31670952D01*
X80573571Y-31718571D01*
X80668809Y-31766190D01*
X80906904Y-31766190D01*
X81002142Y-31718571D01*
X81049761Y-31670952D01*
X81097380Y-31575714D01*
X81097380Y-31337619D01*
X81049761Y-31242380D01*
X81002142Y-31194761D01*
X81097380Y-32718571D02*
X81097380Y-32147142D01*
X81097380Y-32432857D02*
X80097380Y-32432857D01*
X80240238Y-32337619D01*
X80335476Y-32242380D01*
X80383095Y-32147142D01*
X80192619Y-33099523D02*
X80145000Y-33147142D01*
X80097380Y-33242380D01*
X80097380Y-33480476D01*
X80145000Y-33575714D01*
X80192619Y-33623333D01*
X80287857Y-33670952D01*
X80383095Y-33670952D01*
X80525952Y-33623333D01*
X81097380Y-33051904D01*
X81097380Y-33670952D01*
X80525952Y-34242380D02*
X80478333Y-34147142D01*
X80430714Y-34099523D01*
X80335476Y-34051904D01*
X80287857Y-34051904D01*
X80192619Y-34099523D01*
X80145000Y-34147142D01*
X80097380Y-34242380D01*
X80097380Y-34432857D01*
X80145000Y-34528095D01*
X80192619Y-34575714D01*
X80287857Y-34623333D01*
X80335476Y-34623333D01*
X80430714Y-34575714D01*
X80478333Y-34528095D01*
X80525952Y-34432857D01*
X80525952Y-34242380D01*
X80573571Y-34147142D01*
X80621190Y-34099523D01*
X80716428Y-34051904D01*
X80906904Y-34051904D01*
X81002142Y-34099523D01*
X81049761Y-34147142D01*
X81097380Y-34242380D01*
X81097380Y-34432857D01*
X81049761Y-34528095D01*
X81002142Y-34575714D01*
X80906904Y-34623333D01*
X80716428Y-34623333D01*
X80621190Y-34575714D01*
X80573571Y-34528095D01*
X80525952Y-34432857D01*
X80811666Y-35004285D02*
X80811666Y-35480476D01*
X81097380Y-34909047D02*
X80097380Y-35242380D01*
X81097380Y-35575714D01*
X81097380Y-36385238D02*
X81097380Y-35909047D01*
X80097380Y-35909047D01*
X80716428Y-36718571D02*
X80716428Y-37480476D01*
X81097380Y-38480476D02*
X81097380Y-37909047D01*
X81097380Y-38194761D02*
X80097380Y-38194761D01*
X80240238Y-38099523D01*
X80335476Y-38004285D01*
X80383095Y-37909047D01*
X80097380Y-39099523D02*
X80097380Y-39194761D01*
X80145000Y-39289999D01*
X80192619Y-39337619D01*
X80287857Y-39385238D01*
X80478333Y-39432857D01*
X80716428Y-39432857D01*
X80906904Y-39385238D01*
X81002142Y-39337619D01*
X81049761Y-39289999D01*
X81097380Y-39194761D01*
X81097380Y-39099523D01*
X81049761Y-39004285D01*
X81002142Y-38956666D01*
X80906904Y-38909047D01*
X80716428Y-38861428D01*
X80478333Y-38861428D01*
X80287857Y-38909047D01*
X80192619Y-38956666D01*
X80145000Y-39004285D01*
X80097380Y-39099523D01*
X81097380Y-39861428D02*
X80097380Y-39861428D01*
X81097380Y-40432857D02*
X80525952Y-40004285D01*
X80097380Y-40432857D02*
X80668809Y-39861428D01*
X81097380Y-41337619D02*
X81097380Y-40861428D01*
X80097380Y-40861428D01*
X81097380Y-41670952D02*
X80097380Y-41670952D01*
G04 #@! TO.C,U5*
X102996904Y-21042380D02*
X102996904Y-21851904D01*
X102949285Y-21947142D01*
X102901666Y-21994761D01*
X102806428Y-22042380D01*
X102615952Y-22042380D01*
X102520714Y-21994761D01*
X102473095Y-21947142D01*
X102425476Y-21851904D01*
X102425476Y-21042380D01*
X101473095Y-21042380D02*
X101949285Y-21042380D01*
X101996904Y-21518571D01*
X101949285Y-21470952D01*
X101854047Y-21423333D01*
X101615952Y-21423333D01*
X101520714Y-21470952D01*
X101473095Y-21518571D01*
X101425476Y-21613809D01*
X101425476Y-21851904D01*
X101473095Y-21947142D01*
X101520714Y-21994761D01*
X101615952Y-22042380D01*
X101854047Y-22042380D01*
X101949285Y-21994761D01*
X101996904Y-21947142D01*
X102687380Y-26909047D02*
X101687380Y-26909047D01*
X102639761Y-27337619D02*
X102687380Y-27480476D01*
X102687380Y-27718571D01*
X102639761Y-27813809D01*
X102592142Y-27861428D01*
X102496904Y-27909047D01*
X102401666Y-27909047D01*
X102306428Y-27861428D01*
X102258809Y-27813809D01*
X102211190Y-27718571D01*
X102163571Y-27528095D01*
X102115952Y-27432857D01*
X102068333Y-27385238D01*
X101973095Y-27337619D01*
X101877857Y-27337619D01*
X101782619Y-27385238D01*
X101735000Y-27432857D01*
X101687380Y-27528095D01*
X101687380Y-27766190D01*
X101735000Y-27909047D01*
X101687380Y-28766190D02*
X101687380Y-28575714D01*
X101735000Y-28480476D01*
X101782619Y-28432857D01*
X101925476Y-28337619D01*
X102115952Y-28289999D01*
X102496904Y-28289999D01*
X102592142Y-28337619D01*
X102639761Y-28385238D01*
X102687380Y-28480476D01*
X102687380Y-28670952D01*
X102639761Y-28766190D01*
X102592142Y-28813809D01*
X102496904Y-28861428D01*
X102258809Y-28861428D01*
X102163571Y-28813809D01*
X102115952Y-28766190D01*
X102068333Y-28670952D01*
X102068333Y-28480476D01*
X102115952Y-28385238D01*
X102163571Y-28337619D01*
X102258809Y-28289999D01*
X102687380Y-29813809D02*
X102687380Y-29242380D01*
X102687380Y-29528095D02*
X101687380Y-29528095D01*
X101830238Y-29432857D01*
X101925476Y-29337619D01*
X101973095Y-29242380D01*
X102592142Y-30813809D02*
X102639761Y-30766190D01*
X102687380Y-30623333D01*
X102687380Y-30528095D01*
X102639761Y-30385238D01*
X102544523Y-30289999D01*
X102449285Y-30242380D01*
X102258809Y-30194761D01*
X102115952Y-30194761D01*
X101925476Y-30242380D01*
X101830238Y-30289999D01*
X101735000Y-30385238D01*
X101687380Y-30528095D01*
X101687380Y-30623333D01*
X101735000Y-30766190D01*
X101782619Y-30813809D01*
X101687380Y-31718571D02*
X101687380Y-31242380D01*
X102163571Y-31194761D01*
X102115952Y-31242380D01*
X102068333Y-31337619D01*
X102068333Y-31575714D01*
X102115952Y-31670952D01*
X102163571Y-31718571D01*
X102258809Y-31766190D01*
X102496904Y-31766190D01*
X102592142Y-31718571D01*
X102639761Y-31670952D01*
X102687380Y-31575714D01*
X102687380Y-31337619D01*
X102639761Y-31242380D01*
X102592142Y-31194761D01*
X102687380Y-32718571D02*
X102687380Y-32147142D01*
X102687380Y-32432857D02*
X101687380Y-32432857D01*
X101830238Y-32337619D01*
X101925476Y-32242380D01*
X101973095Y-32147142D01*
X101782619Y-33099523D02*
X101735000Y-33147142D01*
X101687380Y-33242380D01*
X101687380Y-33480476D01*
X101735000Y-33575714D01*
X101782619Y-33623333D01*
X101877857Y-33670952D01*
X101973095Y-33670952D01*
X102115952Y-33623333D01*
X102687380Y-33051904D01*
X102687380Y-33670952D01*
X102115952Y-34242380D02*
X102068333Y-34147142D01*
X102020714Y-34099523D01*
X101925476Y-34051904D01*
X101877857Y-34051904D01*
X101782619Y-34099523D01*
X101735000Y-34147142D01*
X101687380Y-34242380D01*
X101687380Y-34432857D01*
X101735000Y-34528095D01*
X101782619Y-34575714D01*
X101877857Y-34623333D01*
X101925476Y-34623333D01*
X102020714Y-34575714D01*
X102068333Y-34528095D01*
X102115952Y-34432857D01*
X102115952Y-34242380D01*
X102163571Y-34147142D01*
X102211190Y-34099523D01*
X102306428Y-34051904D01*
X102496904Y-34051904D01*
X102592142Y-34099523D01*
X102639761Y-34147142D01*
X102687380Y-34242380D01*
X102687380Y-34432857D01*
X102639761Y-34528095D01*
X102592142Y-34575714D01*
X102496904Y-34623333D01*
X102306428Y-34623333D01*
X102211190Y-34575714D01*
X102163571Y-34528095D01*
X102115952Y-34432857D01*
X102401666Y-35004285D02*
X102401666Y-35480476D01*
X102687380Y-34909047D02*
X101687380Y-35242380D01*
X102687380Y-35575714D01*
X102687380Y-36385238D02*
X102687380Y-35909047D01*
X101687380Y-35909047D01*
X102306428Y-36718571D02*
X102306428Y-37480476D01*
X102687380Y-38480476D02*
X102687380Y-37909047D01*
X102687380Y-38194761D02*
X101687380Y-38194761D01*
X101830238Y-38099523D01*
X101925476Y-38004285D01*
X101973095Y-37909047D01*
X101687380Y-39099523D02*
X101687380Y-39194761D01*
X101735000Y-39289999D01*
X101782619Y-39337619D01*
X101877857Y-39385238D01*
X102068333Y-39432857D01*
X102306428Y-39432857D01*
X102496904Y-39385238D01*
X102592142Y-39337619D01*
X102639761Y-39289999D01*
X102687380Y-39194761D01*
X102687380Y-39099523D01*
X102639761Y-39004285D01*
X102592142Y-38956666D01*
X102496904Y-38909047D01*
X102306428Y-38861428D01*
X102068333Y-38861428D01*
X101877857Y-38909047D01*
X101782619Y-38956666D01*
X101735000Y-39004285D01*
X101687380Y-39099523D01*
X102687380Y-39861428D02*
X101687380Y-39861428D01*
X102687380Y-40432857D02*
X102115952Y-40004285D01*
X101687380Y-40432857D02*
X102258809Y-39861428D01*
X102687380Y-41337619D02*
X102687380Y-40861428D01*
X101687380Y-40861428D01*
X102687380Y-41670952D02*
X101687380Y-41670952D01*
G04 #@! TD*
M02*
