M48
;DRILL file {KiCad (5.0.2)-1} date 2/18/2019 11:06:29 AM
;FORMAT={-:-/ absolute / inch / decimal}
FMAT,2
INCH,TZ
T1C0.0157
T2C0.0236
T3C0.0315
T4C0.0320
T5C0.0394
T6C0.0870
%
G90
G05
T1
X0.85Y-0.85
X0.85Y-0.9
X0.9Y-0.85
X0.9Y-0.9
X1.0948Y-3.175
X1.1093Y-3.2994
X1.1116Y-2.4246
X1.1294Y-1.7096
X1.1453Y-3.7536
X1.1806Y-3.3352
X1.1901Y-1.6659
X1.1946Y-3.8324
X1.1958Y-3.9734
X1.2009Y-3.7642
X1.2038Y-3.175
X1.2348Y-2.7126
X1.254Y-3.0848
X1.2879Y-4.1448
X1.3139Y-4.1716
X1.3142Y-3.8697
X1.3382Y-1.6494
X1.3404Y-1.5958
X1.3423Y-2.1951
X1.3442Y-1.175
X1.3444Y-2.6772
X1.3445Y-1.0769
X1.3446Y-2.274
X1.3446Y-1.7222
X1.3449Y-1.0255
X1.3449Y-2.368
X1.3451Y-1.4171
X1.3451Y-2.8141
X1.3466Y-3.9856
X1.3474Y-1.1288
X1.3476Y-1.4716
X1.3476Y-2.117
X1.35Y-3.3327
X1.355Y-3.2456
X1.3598Y-3.5345
X1.3663Y-2.5918
X1.3668Y-1.5431
X1.3679Y-1.2076
X1.3712Y-2.2236
X1.3786Y-1.2784
X1.3806Y-2.0896
X1.3869Y-3.3352
X1.4022Y-2.5181
X1.405Y-4.0524
X1.4089Y-2.3179
X1.4198Y-3.283
X1.447Y-4.0628
X1.4498Y-3.194
X1.4577Y-3.4467
X1.4584Y-3.3235
X1.4593Y-3.1304
X1.4662Y-1.234
X1.4884Y-3.9209
X1.5712Y-1.5171
X1.5756Y-2.8794
X1.5914Y-3.3493
X1.5947Y-3.1825
X1.5956Y-2.1427
X1.596Y-1.7479
X1.6002Y-2.6109
X1.6021Y-0.9775
X1.6025Y-1.5694
X1.603Y-2.5361
X1.6044Y-2.7298
X1.6045Y-1.26
X1.6053Y-2.0627
X1.6056Y-2.7679
X1.6073Y-1.4443
X1.6074Y-2.3951
X1.61Y-2.8471
X1.611Y-1.4975
X1.6118Y-2.6485
X1.6129Y-4.0113
X1.6171Y-3.8492
X1.6279Y-1.8079
X1.6342Y-3.9229
X1.6457Y-3.9914
X1.6482Y-4.0584
X1.6528Y-3.7262
X1.6529Y-3.4719
X1.66Y-1.9924
X1.6605Y-3.3269
X1.6641Y-3.1448
X1.6984Y-3.2481
X1.7059Y-3.775
X1.7059Y-3.175
X1.7077Y-2.349
X1.7113Y-1.6975
X1.7145Y-1.6446
X1.7162Y-2.5661
X1.7162Y-1.0641
X1.7203Y-1.2391
X1.7209Y-2.1663
X1.7221Y-2.0903
X1.7252Y-1.5438
X1.7384Y-3.0777
X1.7871Y-2.3754
X1.8044Y-3.4514
X1.8118Y-2.5435
X1.8154Y-3.081
X1.8175Y-3.275
X1.8209Y-3.3914
X1.8218Y-3.3467
X1.8232Y-3.8692
X1.8291Y-3.9519
X1.8516Y-2.9934
X1.8603Y-4.1311
X1.8789Y-2.2455
X1.8962Y-3.079
X1.9038Y-4.1983
X1.9043Y-4.245
X1.9052Y-1.9214
X1.9214Y-1.0032
X1.9425Y-3.4685
X1.9429Y-3.0937
X1.9627Y-1.1649
X1.9754Y-1.4103
X1.9853Y-2.3085
X1.9933Y-3.425
X1.9966Y-4.1339
X2.017Y-1.6233
X2.0214Y-2.1349
X2.0527Y-2.1956
X2.0626Y-1.1905
X2.0688Y-4.2389
X2.077Y-2.2228
X2.0794Y-1.1392
X2.0815Y-1.5181
X2.0852Y-1.0335
X2.0854Y-1.7207
X2.0861Y-2.0968
X2.0914Y-1.4524
X2.0919Y-1.65
X2.0922Y-2.7003
X2.0944Y-4.0005
X2.0944Y-3.1253
X2.0966Y-4.3476
X2.0999Y-3.1884
X2.1208Y-3.8351
X2.1215Y-3.1499
X2.1445Y-3.1786
X2.1784Y-4.0124
X2.1888Y-1.599
X2.1891Y-2.6015
X2.1919Y-2.3945
X2.1943Y-1.2869
X2.1943Y-2.3143
X2.1943Y-2.275
X2.1945Y-2.7814
X2.195Y-2.823
X2.1951Y-2.5481
X2.1963Y-4.3228
X2.1969Y-2.6536
X2.2051Y-3.7965
X2.2117Y-1.6598
X2.2418Y-1.1139
X2.2539Y-1.521
X2.2609Y-4.3561
X2.2743Y-1.6606
X2.3223Y-3.9172
X2.3241Y-3.8
X2.3241Y-3.1888
X2.3378Y-1.214
X2.3504Y-3.3143
X2.3506Y-4.3551
X2.36Y-2.9635
X2.3631Y-3.4587
X2.3697Y-2.5213
X2.3885Y-3.3897
X2.3927Y-3.3297
X2.3965Y-1.2329
X2.4046Y-4.0682
X2.4164Y-2.3401
X2.4185Y-1.6606
X2.4245Y-2.1679
X2.4265Y-3.8252
X2.4332Y-2.7568
X2.4367Y-3.31
X2.4468Y-2.1141
X2.4469Y-1.573
X2.4479Y-3.4147
X2.4491Y-2.6255
X2.4494Y-1.2586
X2.4515Y-3.3614
X2.4545Y-1.7516
X2.4549Y-3.2509
X2.4552Y-3.9283
X2.4553Y-2.3673
X2.4558Y-2.2168
X2.4587Y-2.7031
X2.4619Y-1.4985
X2.4654Y-4.007
X2.4708Y-4.0991
X2.487Y-4.3454
X2.51Y-1.9924
X2.5112Y-1.8078
X2.5308Y-4.3126
X2.5573Y-2.05
X2.5577Y-1.5509
X2.5643Y-2.175
X2.5648Y-1.225
X2.5649Y-2.6239
X2.5652Y-2.3284
X2.5664Y-2.5086
X2.5675Y-2.5612
X2.5694Y-1.4204
X2.5739Y-1.7012
X2.5806Y-4.3176
X2.6066Y-3.1862
X2.6101Y-3.3825
X2.6347Y-3.272
X2.6512Y-4.3102
X2.6813Y-2.2816
X2.687Y-3.5137
X2.687Y-4.102
X2.7075Y-3.6911
X2.7333Y-4.1317
X2.7426Y-4.1701
X2.744Y-3.2584
X2.7464Y-2.7429
X2.7613Y-1.9917
X2.7637Y-3.9872
X2.7882Y-3.8846
X2.7944Y-3.819
X2.7987Y-3.9211
X2.8204Y-3.5408
X2.835Y-3.8848
X2.8389Y-4.0686
X2.8491Y-3.4508
X2.8493Y-3.5874
X2.8572Y-2.9412
X2.8901Y-1.4887
X2.9023Y-2.8595
X2.9096Y-3.0466
X2.9107Y-1.6702
X2.9136Y-1.0912
X2.9247Y-2.1265
X2.9311Y-1.5301
X2.9326Y-2.6794
X2.9333Y-2.8012
X2.935Y-2.2268
X2.9352Y-0.9852
X2.9352Y-1.7225
X2.9353Y-2.5953
X2.9357Y-1.2819
X2.9406Y-2.3025
X2.9425Y-1.6488
X2.9545Y-3.0872
X2.9662Y-1.8336
X2.9715Y-4.1363
X2.9778Y-3.4497
X2.9961Y-3.0168
X2.9987Y-4.1736
X3.0131Y-3.6332
X3.0197Y-3.4018
X3.038Y-2.3989
X3.0396Y-2.0986
X3.0397Y-3.6994
X3.0401Y-2.2531
X3.0414Y-2.8517
X3.0432Y-1.2433
X3.0444Y-1.525
X3.0448Y-2.7233
X3.0456Y-1.5775
X3.048Y-2.5326
X3.0489Y-2.6398
X3.0492Y-3.3352
X3.0509Y-2.1601
X3.0523Y-3.6409
X3.0531Y-1.4532
X3.0544Y-1.6753
X3.0646Y-3.9176
X3.0676Y-4.194
X3.0688Y-2.125
X3.0854Y-1.1963
X3.0939Y-4.0253
X3.0972Y-4.4016
X3.0984Y-3.6215
X3.0985Y-3.2029
X3.0989Y-3.2685
X3.1014Y-3.1298
X3.1014Y-3.1663
X3.1022Y-3.4317
X3.1028Y-3.8633
X3.1037Y-4.0949
X3.1163Y-1.1124
X3.1205Y-2.2719
X3.1279Y-3.2963
X3.1287Y-4.1215
X3.1291Y-3.505
X3.1345Y-3.2428
X3.1353Y-0.9135
X3.1383Y-2.2176
X3.1476Y-3.9074
X3.1518Y-2.5121
X3.1543Y-4.0677
X3.1549Y-4.1472
X3.1551Y-3.4793
X3.164Y-1.1706
X3.1651Y-4.3572
X3.1728Y-2.4255
X3.2357Y-1.9917
X3.2494Y-2.375
X3.2508Y-4.2523
X3.2688Y-1.0281
X3.2688Y-1.1383
X3.2754Y-3.0546
X3.2777Y-3.9392
X3.2821Y-2.0672
X3.2836Y-2.8134
X3.2881Y-3.2594
X3.294Y-3.3425
X3.2963Y-2.5754
X3.3007Y-3.387
X3.3012Y-4.318
X3.3043Y-2.025
X3.3049Y-1.4763
X3.3053Y-2.3256
X3.3055Y-2.1877
X3.3081Y-3.1574
X3.3094Y-3.8104
X3.3393Y-3.3703
X3.35Y-4.0336
X3.3598Y-3.6042
X3.36Y-1.8077
X3.36Y-2.9077
X3.3792Y-4.0111
X3.3792Y-4.2503
X3.3888Y-3.5394
X3.4123Y-1.4052
X3.4144Y-2.1284
X3.4144Y-2.2243
X3.4147Y-2.075
X3.4147Y-2.6113
X3.415Y-2.5095
X3.4156Y-2.3679
X3.4168Y-3.3687
X3.4169Y-2.742
X3.4187Y-2.6712
X3.4281Y-1.5032
X3.4302Y-1.7275
X3.4375Y-3.6018
X3.4394Y-1.5733
X3.4404Y-3.5583
X3.4461Y-2.0359
X3.4495Y-2.326
X3.451Y-4.0106
X3.4541Y-1.2581
X3.4596Y-3.1345
X3.4647Y-2.1705
X3.4706Y-1.6721
X3.4964Y-3.5509
X3.5224Y-4.0528
X3.5257Y-3.2679
X3.5276Y-3.501
X3.5569Y-2.7498
X3.588Y-0.9519
X3.6029Y-2.3216
X3.6088Y-4.2347
X3.6449Y-2.4197
X3.6745Y-3.5564
X3.6903Y-1.9043
X3.6903Y-2.2631
X3.7052Y-3.5145
X3.7053Y-1.0589
X3.7095Y-2.3484
X3.7192Y-3.5843
X3.7357Y-2.6404
X3.7395Y-3.6554
X3.7422Y-3.5043
X3.744Y-1.175
X3.7484Y-3.5408
X3.7487Y-1.4869
X3.7569Y-3.5773
X3.7652Y-4.355
X3.7679Y-1.2029
X3.7711Y-1.6001
X3.7746Y-2.7457
X3.7789Y-1.1109
X3.7851Y-0.9775
X3.7854Y-1.4507
X3.7908Y-1.7007
X3.7925Y-2.25
X3.8005Y-1.968
X3.8075Y-3.4024
X3.8206Y-3.6992
X3.8569Y-3.6629
X3.8872Y-2.3509
X3.8891Y-1.7519
X3.894Y-1.5438
X3.8942Y-2.1018
X3.8944Y-2.175
X3.8944Y-2.8332
X3.8945Y-1.2261
X3.8953Y-2.2778
X3.8964Y-2.5876
X3.8967Y-1.2788
X3.9053Y-1.4765
X3.9056Y-3.4185
X3.908Y-1.0925
X3.9091Y-3.7071
X3.924Y-1.6375
X3.9518Y-2.5314
X3.9602Y-2.3977
X3.9822Y-1.9175
X3.9987Y-3.7162
X4.0148Y-1.7892
X4.1191Y-2.325
X4.1444Y-2.5057
X4.1458Y-3.116
X4.149Y-2.7179
X4.1504Y-2.5604
X4.1527Y-2.6148
X4.1528Y-1.7183
X4.1541Y-2.6661
X4.1544Y-1.1725
X4.155Y-2.1985
X4.1556Y-1.425
X4.1556Y-1.5181
X4.1556Y-2.372
X4.1558Y-2.7725
X4.2014Y-1.9922
X4.2072Y-3.3872
X4.25Y-3.0128
X4.2513Y-2.9683
X4.2559Y-1.9895
X4.2583Y-2.1493
X4.3194Y-2.2771
X4.3254Y-1.6048
X4.3259Y-2.7789
X4.326Y-1.2649
X4.3688Y-3.6172
X4.374Y-2.4298
X4.3775Y-1.7176
X4.3933Y-2.9525
X4.4827Y-3.4506
X4.4833Y-2.5283
X4.5308Y-1.7306
X4.625Y-0.85
X4.625Y-0.9
X4.675Y-0.85
X4.675Y-0.9
T2
X1.2184Y-1.3675
X1.3203Y-3.725
X1.3217Y-3.1196
X1.3483Y-1.3272
X1.3489Y-2.4368
X1.4364Y-2.4788
X1.4625Y-3.6905
X1.6002Y-1.3675
X1.6004Y-2.4368
X1.7206Y-2.4296
X1.7213Y-1.3582
X1.8366Y-2.5057
X2.0795Y-1.375
X2.1982Y-1.3314
X2.2111Y-2.4695
X2.3052Y-2.4333
X2.3407Y-2.4747
X2.4441Y-2.4564
X2.4499Y-1.365
X2.7305Y-1.3506
X2.805Y-1.4234
X2.8201Y-2.425
X3.0837Y-1.3959
X3.1022Y-2.4056
X3.1155Y-2.475
X3.2676Y-1.3948
X3.3009Y-2.4461
X3.301Y-1.3313
X3.528Y-1.4057
X3.7776Y-1.3326
X3.8983Y-1.375
X3.922Y-2.4223
X4.0701Y-1.3165
X4.139Y-2.4329
X4.1542Y-1.3468
X4.3444Y-1.6917
T3
X3.975Y-3.35
X3.975Y-3.45
X3.975Y-3.55
X4.075Y-3.25
X4.075Y-3.35
X4.075Y-3.45
X4.075Y-3.55
X4.075Y-3.65
X4.175Y-3.25
X4.175Y-3.35
X4.175Y-3.55
X4.175Y-3.65
X4.275Y-3.25
X4.275Y-3.35
X4.275Y-3.45
X4.275Y-3.55
X4.275Y-3.65
X4.375Y-3.35
X4.375Y-3.45
X4.375Y-3.55
T4
X1.3Y-4.48
X1.3Y-4.63
X1.35Y-4.405
X1.35Y-4.555
X1.4Y-4.48
X1.4Y-4.63
X1.45Y-4.405
X1.45Y-4.555
X1.5Y-4.48
X1.5Y-4.63
X1.55Y-4.405
X1.55Y-4.555
X1.6Y-4.48
X1.6Y-4.63
X1.65Y-4.405
X1.65Y-4.555
X1.7Y-4.48
X1.7Y-4.63
X1.75Y-4.405
X1.75Y-4.555
X1.8Y-4.48
X1.8Y-4.63
X1.85Y-4.405
X1.85Y-4.555
X1.9Y-4.48
X1.9Y-4.63
X1.95Y-4.405
X1.95Y-4.555
X2.Y-4.48
X2.Y-4.63
X2.05Y-4.405
X2.05Y-4.555
X2.1Y-4.48
X2.1Y-4.63
X2.15Y-4.405
X2.15Y-4.555
X2.2Y-4.48
X2.2Y-4.63
X2.25Y-4.405
X2.25Y-4.555
X2.3Y-4.48
X2.3Y-4.63
X2.35Y-4.405
X2.35Y-4.555
X2.4Y-4.48
X2.4Y-4.63
X2.45Y-4.405
X2.45Y-4.555
X2.5Y-4.48
X2.5Y-4.63
X2.55Y-4.405
X2.55Y-4.555
X2.6Y-4.48
X2.6Y-4.63
X2.65Y-4.405
X2.65Y-4.555
X2.7Y-4.48
X2.7Y-4.63
X2.75Y-4.405
X2.75Y-4.555
X2.8Y-4.48
X2.8Y-4.63
X2.85Y-4.405
X2.85Y-4.555
X2.9Y-4.48
X2.9Y-4.63
X2.95Y-4.405
X2.95Y-4.555
X3.Y-4.48
X3.Y-4.63
X3.05Y-4.405
X3.05Y-4.555
X3.1Y-4.48
X3.1Y-4.63
X3.15Y-4.405
X3.15Y-4.555
X3.2Y-4.48
X3.2Y-4.63
X3.25Y-4.405
X3.25Y-4.555
X3.3Y-4.48
X3.3Y-4.63
X3.35Y-4.405
X3.35Y-4.555
X3.4Y-4.48
X3.4Y-4.63
X3.45Y-4.405
X3.45Y-4.555
X3.5Y-4.48
X3.5Y-4.63
X3.55Y-4.405
X3.55Y-4.555
X3.6Y-4.48
X3.6Y-4.63
X3.65Y-4.405
X3.65Y-4.555
X3.7Y-4.48
X3.7Y-4.63
X3.75Y-4.405
X3.75Y-4.555
X3.8Y-4.48
X3.8Y-4.63
X3.85Y-4.405
X3.85Y-4.555
X3.9Y-4.48
X3.9Y-4.63
X3.95Y-4.405
X3.95Y-4.555
X4.Y-4.48
X4.Y-4.63
X4.05Y-4.405
X4.05Y-4.555
X4.1Y-4.48
X4.1Y-4.63
X4.15Y-4.405
X4.15Y-4.555
X4.2Y-4.48
X4.2Y-4.63
X4.25Y-4.405
X4.25Y-4.555
T5
X4.15Y-4.025
X4.15Y-4.125
X4.375Y-4.025
X4.375Y-4.125
X3.925Y-4.025
X3.925Y-4.125
T6
X1.075Y-4.63
X4.425Y-4.63
T0
M30
