G04 #@! TF.GenerationSoftware,KiCad,Pcbnew,(5.0.2)-1*
G04 #@! TF.CreationDate,2019-02-18T11:06:25-07:00*
G04 #@! TF.ProjectId,8MB SRAM,384d4220-5352-4414-9d2e-6b696361645f,rev?*
G04 #@! TF.SameCoordinates,Original*
G04 #@! TF.FileFunction,Legend,Top*
G04 #@! TF.FilePolarity,Positive*
%FSLAX46Y46*%
G04 Gerber Fmt 4.6, Leading zero omitted, Abs format (unit mm)*
G04 Created by KiCad (PCBNEW (5.0.2)-1) date 2/18/2019 11:06:25 AM*
%MOMM*%
%LPD*%
G01*
G04 APERTURE LIST*
%ADD10C,0.150000*%
%ADD11C,0.300000*%
%ADD12C,0.120000*%
%ADD13C,0.152400*%
%ADD14C,0.010000*%
%ADD15C,0.254000*%
G04 APERTURE END LIST*
D10*
X96282619Y-47077380D02*
X96901666Y-47077380D01*
X96568333Y-47458333D01*
X96711190Y-47458333D01*
X96806428Y-47505952D01*
X96854047Y-47553571D01*
X96901666Y-47648809D01*
X96901666Y-47886904D01*
X96854047Y-47982142D01*
X96806428Y-48029761D01*
X96711190Y-48077380D01*
X96425476Y-48077380D01*
X96330238Y-48029761D01*
X96282619Y-47982142D01*
X97520714Y-47077380D02*
X97615952Y-47077380D01*
X97711190Y-47125000D01*
X97758809Y-47172619D01*
X97806428Y-47267857D01*
X97854047Y-47458333D01*
X97854047Y-47696428D01*
X97806428Y-47886904D01*
X97758809Y-47982142D01*
X97711190Y-48029761D01*
X97615952Y-48077380D01*
X97520714Y-48077380D01*
X97425476Y-48029761D01*
X97377857Y-47982142D01*
X97330238Y-47886904D01*
X97282619Y-47696428D01*
X97282619Y-47458333D01*
X97330238Y-47267857D01*
X97377857Y-47172619D01*
X97425476Y-47125000D01*
X97520714Y-47077380D01*
X98473095Y-47077380D02*
X98568333Y-47077380D01*
X98663571Y-47125000D01*
X98711190Y-47172619D01*
X98758809Y-47267857D01*
X98806428Y-47458333D01*
X98806428Y-47696428D01*
X98758809Y-47886904D01*
X98711190Y-47982142D01*
X98663571Y-48029761D01*
X98568333Y-48077380D01*
X98473095Y-48077380D01*
X98377857Y-48029761D01*
X98330238Y-47982142D01*
X98282619Y-47886904D01*
X98235000Y-47696428D01*
X98235000Y-47458333D01*
X98282619Y-47267857D01*
X98330238Y-47172619D01*
X98377857Y-47125000D01*
X98473095Y-47077380D01*
X99425476Y-47077380D02*
X99520714Y-47077380D01*
X99615952Y-47125000D01*
X99663571Y-47172619D01*
X99711190Y-47267857D01*
X99758809Y-47458333D01*
X99758809Y-47696428D01*
X99711190Y-47886904D01*
X99663571Y-47982142D01*
X99615952Y-48029761D01*
X99520714Y-48077380D01*
X99425476Y-48077380D01*
X99330238Y-48029761D01*
X99282619Y-47982142D01*
X99235000Y-47886904D01*
X99187380Y-47696428D01*
X99187380Y-47458333D01*
X99235000Y-47267857D01*
X99282619Y-47172619D01*
X99330238Y-47125000D01*
X99425476Y-47077380D01*
X100377857Y-47077380D02*
X100473095Y-47077380D01*
X100568333Y-47125000D01*
X100615952Y-47172619D01*
X100663571Y-47267857D01*
X100711190Y-47458333D01*
X100711190Y-47696428D01*
X100663571Y-47886904D01*
X100615952Y-47982142D01*
X100568333Y-48029761D01*
X100473095Y-48077380D01*
X100377857Y-48077380D01*
X100282619Y-48029761D01*
X100235000Y-47982142D01*
X100187380Y-47886904D01*
X100139761Y-47696428D01*
X100139761Y-47458333D01*
X100187380Y-47267857D01*
X100235000Y-47172619D01*
X100282619Y-47125000D01*
X100377857Y-47077380D01*
X101330238Y-47077380D02*
X101425476Y-47077380D01*
X101520714Y-47125000D01*
X101568333Y-47172619D01*
X101615952Y-47267857D01*
X101663571Y-47458333D01*
X101663571Y-47696428D01*
X101615952Y-47886904D01*
X101568333Y-47982142D01*
X101520714Y-48029761D01*
X101425476Y-48077380D01*
X101330238Y-48077380D01*
X101235000Y-48029761D01*
X101187380Y-47982142D01*
X101139761Y-47886904D01*
X101092142Y-47696428D01*
X101092142Y-47458333D01*
X101139761Y-47267857D01*
X101187380Y-47172619D01*
X101235000Y-47125000D01*
X101330238Y-47077380D01*
X102092142Y-47696428D02*
X102854047Y-47696428D01*
X103235000Y-47077380D02*
X103854047Y-47077380D01*
X103520714Y-47458333D01*
X103663571Y-47458333D01*
X103758809Y-47505952D01*
X103806428Y-47553571D01*
X103854047Y-47648809D01*
X103854047Y-47886904D01*
X103806428Y-47982142D01*
X103758809Y-48029761D01*
X103663571Y-48077380D01*
X103377857Y-48077380D01*
X103282619Y-48029761D01*
X103235000Y-47982142D01*
X104615952Y-47553571D02*
X104282619Y-47553571D01*
X104282619Y-48077380D02*
X104282619Y-47077380D01*
X104758809Y-47077380D01*
X105473095Y-47553571D02*
X105139761Y-47553571D01*
X105139761Y-48077380D02*
X105139761Y-47077380D01*
X105615952Y-47077380D01*
X106330238Y-47553571D02*
X105996904Y-47553571D01*
X105996904Y-48077380D02*
X105996904Y-47077380D01*
X106473095Y-47077380D01*
X107187380Y-47553571D02*
X106854047Y-47553571D01*
X106854047Y-48077380D02*
X106854047Y-47077380D01*
X107330238Y-47077380D01*
X108044523Y-47553571D02*
X107711190Y-47553571D01*
X107711190Y-48077380D02*
X107711190Y-47077380D01*
X108187380Y-47077380D01*
X74740238Y-47172619D02*
X74787857Y-47125000D01*
X74883095Y-47077380D01*
X75121190Y-47077380D01*
X75216428Y-47125000D01*
X75264047Y-47172619D01*
X75311666Y-47267857D01*
X75311666Y-47363095D01*
X75264047Y-47505952D01*
X74692619Y-48077380D01*
X75311666Y-48077380D01*
X75930714Y-47077380D02*
X76025952Y-47077380D01*
X76121190Y-47125000D01*
X76168809Y-47172619D01*
X76216428Y-47267857D01*
X76264047Y-47458333D01*
X76264047Y-47696428D01*
X76216428Y-47886904D01*
X76168809Y-47982142D01*
X76121190Y-48029761D01*
X76025952Y-48077380D01*
X75930714Y-48077380D01*
X75835476Y-48029761D01*
X75787857Y-47982142D01*
X75740238Y-47886904D01*
X75692619Y-47696428D01*
X75692619Y-47458333D01*
X75740238Y-47267857D01*
X75787857Y-47172619D01*
X75835476Y-47125000D01*
X75930714Y-47077380D01*
X76883095Y-47077380D02*
X76978333Y-47077380D01*
X77073571Y-47125000D01*
X77121190Y-47172619D01*
X77168809Y-47267857D01*
X77216428Y-47458333D01*
X77216428Y-47696428D01*
X77168809Y-47886904D01*
X77121190Y-47982142D01*
X77073571Y-48029761D01*
X76978333Y-48077380D01*
X76883095Y-48077380D01*
X76787857Y-48029761D01*
X76740238Y-47982142D01*
X76692619Y-47886904D01*
X76645000Y-47696428D01*
X76645000Y-47458333D01*
X76692619Y-47267857D01*
X76740238Y-47172619D01*
X76787857Y-47125000D01*
X76883095Y-47077380D01*
X77835476Y-47077380D02*
X77930714Y-47077380D01*
X78025952Y-47125000D01*
X78073571Y-47172619D01*
X78121190Y-47267857D01*
X78168809Y-47458333D01*
X78168809Y-47696428D01*
X78121190Y-47886904D01*
X78073571Y-47982142D01*
X78025952Y-48029761D01*
X77930714Y-48077380D01*
X77835476Y-48077380D01*
X77740238Y-48029761D01*
X77692619Y-47982142D01*
X77645000Y-47886904D01*
X77597380Y-47696428D01*
X77597380Y-47458333D01*
X77645000Y-47267857D01*
X77692619Y-47172619D01*
X77740238Y-47125000D01*
X77835476Y-47077380D01*
X78787857Y-47077380D02*
X78883095Y-47077380D01*
X78978333Y-47125000D01*
X79025952Y-47172619D01*
X79073571Y-47267857D01*
X79121190Y-47458333D01*
X79121190Y-47696428D01*
X79073571Y-47886904D01*
X79025952Y-47982142D01*
X78978333Y-48029761D01*
X78883095Y-48077380D01*
X78787857Y-48077380D01*
X78692619Y-48029761D01*
X78645000Y-47982142D01*
X78597380Y-47886904D01*
X78549761Y-47696428D01*
X78549761Y-47458333D01*
X78597380Y-47267857D01*
X78645000Y-47172619D01*
X78692619Y-47125000D01*
X78787857Y-47077380D01*
X79740238Y-47077380D02*
X79835476Y-47077380D01*
X79930714Y-47125000D01*
X79978333Y-47172619D01*
X80025952Y-47267857D01*
X80073571Y-47458333D01*
X80073571Y-47696428D01*
X80025952Y-47886904D01*
X79978333Y-47982142D01*
X79930714Y-48029761D01*
X79835476Y-48077380D01*
X79740238Y-48077380D01*
X79645000Y-48029761D01*
X79597380Y-47982142D01*
X79549761Y-47886904D01*
X79502142Y-47696428D01*
X79502142Y-47458333D01*
X79549761Y-47267857D01*
X79597380Y-47172619D01*
X79645000Y-47125000D01*
X79740238Y-47077380D01*
X80502142Y-47696428D02*
X81264047Y-47696428D01*
X81692619Y-47172619D02*
X81740238Y-47125000D01*
X81835476Y-47077380D01*
X82073571Y-47077380D01*
X82168809Y-47125000D01*
X82216428Y-47172619D01*
X82264047Y-47267857D01*
X82264047Y-47363095D01*
X82216428Y-47505952D01*
X81645000Y-48077380D01*
X82264047Y-48077380D01*
X83025952Y-47553571D02*
X82692619Y-47553571D01*
X82692619Y-48077380D02*
X82692619Y-47077380D01*
X83168809Y-47077380D01*
X83883095Y-47553571D02*
X83549761Y-47553571D01*
X83549761Y-48077380D02*
X83549761Y-47077380D01*
X84025952Y-47077380D01*
X84740238Y-47553571D02*
X84406904Y-47553571D01*
X84406904Y-48077380D02*
X84406904Y-47077380D01*
X84883095Y-47077380D01*
X85597380Y-47553571D02*
X85264047Y-47553571D01*
X85264047Y-48077380D02*
X85264047Y-47077380D01*
X85740238Y-47077380D01*
X86454523Y-47553571D02*
X86121190Y-47553571D01*
X86121190Y-48077380D02*
X86121190Y-47077380D01*
X86597380Y-47077380D01*
X53721666Y-48077380D02*
X53150238Y-48077380D01*
X53435952Y-48077380D02*
X53435952Y-47077380D01*
X53340714Y-47220238D01*
X53245476Y-47315476D01*
X53150238Y-47363095D01*
X54340714Y-47077380D02*
X54435952Y-47077380D01*
X54531190Y-47125000D01*
X54578809Y-47172619D01*
X54626428Y-47267857D01*
X54674047Y-47458333D01*
X54674047Y-47696428D01*
X54626428Y-47886904D01*
X54578809Y-47982142D01*
X54531190Y-48029761D01*
X54435952Y-48077380D01*
X54340714Y-48077380D01*
X54245476Y-48029761D01*
X54197857Y-47982142D01*
X54150238Y-47886904D01*
X54102619Y-47696428D01*
X54102619Y-47458333D01*
X54150238Y-47267857D01*
X54197857Y-47172619D01*
X54245476Y-47125000D01*
X54340714Y-47077380D01*
X55293095Y-47077380D02*
X55388333Y-47077380D01*
X55483571Y-47125000D01*
X55531190Y-47172619D01*
X55578809Y-47267857D01*
X55626428Y-47458333D01*
X55626428Y-47696428D01*
X55578809Y-47886904D01*
X55531190Y-47982142D01*
X55483571Y-48029761D01*
X55388333Y-48077380D01*
X55293095Y-48077380D01*
X55197857Y-48029761D01*
X55150238Y-47982142D01*
X55102619Y-47886904D01*
X55055000Y-47696428D01*
X55055000Y-47458333D01*
X55102619Y-47267857D01*
X55150238Y-47172619D01*
X55197857Y-47125000D01*
X55293095Y-47077380D01*
X56245476Y-47077380D02*
X56340714Y-47077380D01*
X56435952Y-47125000D01*
X56483571Y-47172619D01*
X56531190Y-47267857D01*
X56578809Y-47458333D01*
X56578809Y-47696428D01*
X56531190Y-47886904D01*
X56483571Y-47982142D01*
X56435952Y-48029761D01*
X56340714Y-48077380D01*
X56245476Y-48077380D01*
X56150238Y-48029761D01*
X56102619Y-47982142D01*
X56055000Y-47886904D01*
X56007380Y-47696428D01*
X56007380Y-47458333D01*
X56055000Y-47267857D01*
X56102619Y-47172619D01*
X56150238Y-47125000D01*
X56245476Y-47077380D01*
X57197857Y-47077380D02*
X57293095Y-47077380D01*
X57388333Y-47125000D01*
X57435952Y-47172619D01*
X57483571Y-47267857D01*
X57531190Y-47458333D01*
X57531190Y-47696428D01*
X57483571Y-47886904D01*
X57435952Y-47982142D01*
X57388333Y-48029761D01*
X57293095Y-48077380D01*
X57197857Y-48077380D01*
X57102619Y-48029761D01*
X57055000Y-47982142D01*
X57007380Y-47886904D01*
X56959761Y-47696428D01*
X56959761Y-47458333D01*
X57007380Y-47267857D01*
X57055000Y-47172619D01*
X57102619Y-47125000D01*
X57197857Y-47077380D01*
X58150238Y-47077380D02*
X58245476Y-47077380D01*
X58340714Y-47125000D01*
X58388333Y-47172619D01*
X58435952Y-47267857D01*
X58483571Y-47458333D01*
X58483571Y-47696428D01*
X58435952Y-47886904D01*
X58388333Y-47982142D01*
X58340714Y-48029761D01*
X58245476Y-48077380D01*
X58150238Y-48077380D01*
X58055000Y-48029761D01*
X58007380Y-47982142D01*
X57959761Y-47886904D01*
X57912142Y-47696428D01*
X57912142Y-47458333D01*
X57959761Y-47267857D01*
X58007380Y-47172619D01*
X58055000Y-47125000D01*
X58150238Y-47077380D01*
X58912142Y-47696428D02*
X59674047Y-47696428D01*
X60674047Y-48077380D02*
X60102619Y-48077380D01*
X60388333Y-48077380D02*
X60388333Y-47077380D01*
X60293095Y-47220238D01*
X60197857Y-47315476D01*
X60102619Y-47363095D01*
X61435952Y-47553571D02*
X61102619Y-47553571D01*
X61102619Y-48077380D02*
X61102619Y-47077380D01*
X61578809Y-47077380D01*
X62293095Y-47553571D02*
X61959761Y-47553571D01*
X61959761Y-48077380D02*
X61959761Y-47077380D01*
X62435952Y-47077380D01*
X63150238Y-47553571D02*
X62816904Y-47553571D01*
X62816904Y-48077380D02*
X62816904Y-47077380D01*
X63293095Y-47077380D01*
X64007380Y-47553571D02*
X63674047Y-47553571D01*
X63674047Y-48077380D02*
X63674047Y-47077380D01*
X64150238Y-47077380D01*
X64864523Y-47553571D02*
X64531190Y-47553571D01*
X64531190Y-48077380D02*
X64531190Y-47077380D01*
X65007380Y-47077380D01*
X31798333Y-47077380D02*
X31893571Y-47077380D01*
X31988809Y-47125000D01*
X32036428Y-47172619D01*
X32084047Y-47267857D01*
X32131666Y-47458333D01*
X32131666Y-47696428D01*
X32084047Y-47886904D01*
X32036428Y-47982142D01*
X31988809Y-48029761D01*
X31893571Y-48077380D01*
X31798333Y-48077380D01*
X31703095Y-48029761D01*
X31655476Y-47982142D01*
X31607857Y-47886904D01*
X31560238Y-47696428D01*
X31560238Y-47458333D01*
X31607857Y-47267857D01*
X31655476Y-47172619D01*
X31703095Y-47125000D01*
X31798333Y-47077380D01*
X32750714Y-47077380D02*
X32845952Y-47077380D01*
X32941190Y-47125000D01*
X32988809Y-47172619D01*
X33036428Y-47267857D01*
X33084047Y-47458333D01*
X33084047Y-47696428D01*
X33036428Y-47886904D01*
X32988809Y-47982142D01*
X32941190Y-48029761D01*
X32845952Y-48077380D01*
X32750714Y-48077380D01*
X32655476Y-48029761D01*
X32607857Y-47982142D01*
X32560238Y-47886904D01*
X32512619Y-47696428D01*
X32512619Y-47458333D01*
X32560238Y-47267857D01*
X32607857Y-47172619D01*
X32655476Y-47125000D01*
X32750714Y-47077380D01*
X33703095Y-47077380D02*
X33798333Y-47077380D01*
X33893571Y-47125000D01*
X33941190Y-47172619D01*
X33988809Y-47267857D01*
X34036428Y-47458333D01*
X34036428Y-47696428D01*
X33988809Y-47886904D01*
X33941190Y-47982142D01*
X33893571Y-48029761D01*
X33798333Y-48077380D01*
X33703095Y-48077380D01*
X33607857Y-48029761D01*
X33560238Y-47982142D01*
X33512619Y-47886904D01*
X33465000Y-47696428D01*
X33465000Y-47458333D01*
X33512619Y-47267857D01*
X33560238Y-47172619D01*
X33607857Y-47125000D01*
X33703095Y-47077380D01*
X34655476Y-47077380D02*
X34750714Y-47077380D01*
X34845952Y-47125000D01*
X34893571Y-47172619D01*
X34941190Y-47267857D01*
X34988809Y-47458333D01*
X34988809Y-47696428D01*
X34941190Y-47886904D01*
X34893571Y-47982142D01*
X34845952Y-48029761D01*
X34750714Y-48077380D01*
X34655476Y-48077380D01*
X34560238Y-48029761D01*
X34512619Y-47982142D01*
X34465000Y-47886904D01*
X34417380Y-47696428D01*
X34417380Y-47458333D01*
X34465000Y-47267857D01*
X34512619Y-47172619D01*
X34560238Y-47125000D01*
X34655476Y-47077380D01*
X35607857Y-47077380D02*
X35703095Y-47077380D01*
X35798333Y-47125000D01*
X35845952Y-47172619D01*
X35893571Y-47267857D01*
X35941190Y-47458333D01*
X35941190Y-47696428D01*
X35893571Y-47886904D01*
X35845952Y-47982142D01*
X35798333Y-48029761D01*
X35703095Y-48077380D01*
X35607857Y-48077380D01*
X35512619Y-48029761D01*
X35465000Y-47982142D01*
X35417380Y-47886904D01*
X35369761Y-47696428D01*
X35369761Y-47458333D01*
X35417380Y-47267857D01*
X35465000Y-47172619D01*
X35512619Y-47125000D01*
X35607857Y-47077380D01*
X36560238Y-47077380D02*
X36655476Y-47077380D01*
X36750714Y-47125000D01*
X36798333Y-47172619D01*
X36845952Y-47267857D01*
X36893571Y-47458333D01*
X36893571Y-47696428D01*
X36845952Y-47886904D01*
X36798333Y-47982142D01*
X36750714Y-48029761D01*
X36655476Y-48077380D01*
X36560238Y-48077380D01*
X36465000Y-48029761D01*
X36417380Y-47982142D01*
X36369761Y-47886904D01*
X36322142Y-47696428D01*
X36322142Y-47458333D01*
X36369761Y-47267857D01*
X36417380Y-47172619D01*
X36465000Y-47125000D01*
X36560238Y-47077380D01*
X37322142Y-47696428D02*
X38084047Y-47696428D01*
X38750714Y-47077380D02*
X38845952Y-47077380D01*
X38941190Y-47125000D01*
X38988809Y-47172619D01*
X39036428Y-47267857D01*
X39084047Y-47458333D01*
X39084047Y-47696428D01*
X39036428Y-47886904D01*
X38988809Y-47982142D01*
X38941190Y-48029761D01*
X38845952Y-48077380D01*
X38750714Y-48077380D01*
X38655476Y-48029761D01*
X38607857Y-47982142D01*
X38560238Y-47886904D01*
X38512619Y-47696428D01*
X38512619Y-47458333D01*
X38560238Y-47267857D01*
X38607857Y-47172619D01*
X38655476Y-47125000D01*
X38750714Y-47077380D01*
X39845952Y-47553571D02*
X39512619Y-47553571D01*
X39512619Y-48077380D02*
X39512619Y-47077380D01*
X39988809Y-47077380D01*
X40703095Y-47553571D02*
X40369761Y-47553571D01*
X40369761Y-48077380D02*
X40369761Y-47077380D01*
X40845952Y-47077380D01*
X41560238Y-47553571D02*
X41226904Y-47553571D01*
X41226904Y-48077380D02*
X41226904Y-47077380D01*
X41703095Y-47077380D01*
X42417380Y-47553571D02*
X42084047Y-47553571D01*
X42084047Y-48077380D02*
X42084047Y-47077380D01*
X42560238Y-47077380D01*
X43274523Y-47553571D02*
X42941190Y-47553571D01*
X42941190Y-48077380D02*
X42941190Y-47077380D01*
X43417380Y-47077380D01*
D11*
X118645714Y-106423571D02*
X118717142Y-106495000D01*
X118788571Y-106709285D01*
X118788571Y-106852142D01*
X118717142Y-107066428D01*
X118574285Y-107209285D01*
X118431428Y-107280714D01*
X118145714Y-107352142D01*
X117931428Y-107352142D01*
X117645714Y-107280714D01*
X117502857Y-107209285D01*
X117360000Y-107066428D01*
X117288571Y-106852142D01*
X117288571Y-106709285D01*
X117360000Y-106495000D01*
X117431428Y-106423571D01*
X118788571Y-105780714D02*
X117288571Y-105780714D01*
X118788571Y-105137857D02*
X118002857Y-105137857D01*
X117860000Y-105209285D01*
X117788571Y-105352142D01*
X117788571Y-105566428D01*
X117860000Y-105709285D01*
X117931428Y-105780714D01*
X118717142Y-103852142D02*
X118788571Y-103995000D01*
X118788571Y-104280714D01*
X118717142Y-104423571D01*
X118574285Y-104495000D01*
X118002857Y-104495000D01*
X117860000Y-104423571D01*
X117788571Y-104280714D01*
X117788571Y-103995000D01*
X117860000Y-103852142D01*
X118002857Y-103780714D01*
X118145714Y-103780714D01*
X118288571Y-104495000D01*
X118788571Y-102495000D02*
X118002857Y-102495000D01*
X117860000Y-102566428D01*
X117788571Y-102709285D01*
X117788571Y-102995000D01*
X117860000Y-103137857D01*
X118717142Y-102495000D02*
X118788571Y-102637857D01*
X118788571Y-102995000D01*
X118717142Y-103137857D01*
X118574285Y-103209285D01*
X118431428Y-103209285D01*
X118288571Y-103137857D01*
X118217142Y-102995000D01*
X118217142Y-102637857D01*
X118145714Y-102495000D01*
X117788571Y-101780714D02*
X119288571Y-101780714D01*
X117860000Y-101780714D02*
X117788571Y-101637857D01*
X117788571Y-101352142D01*
X117860000Y-101209285D01*
X117931428Y-101137857D01*
X118074285Y-101066428D01*
X118502857Y-101066428D01*
X118645714Y-101137857D01*
X118717142Y-101209285D01*
X118788571Y-101352142D01*
X118788571Y-101637857D01*
X118717142Y-101780714D01*
X118002857Y-99923571D02*
X118074285Y-99709285D01*
X118145714Y-99637857D01*
X118288571Y-99566428D01*
X118502857Y-99566428D01*
X118645714Y-99637857D01*
X118717142Y-99709285D01*
X118788571Y-99852142D01*
X118788571Y-100423571D01*
X117288571Y-100423571D01*
X117288571Y-99923571D01*
X117360000Y-99780714D01*
X117431428Y-99709285D01*
X117574285Y-99637857D01*
X117717142Y-99637857D01*
X117860000Y-99709285D01*
X117931428Y-99780714D01*
X118002857Y-99923571D01*
X118002857Y-100423571D01*
X117788571Y-98280714D02*
X118788571Y-98280714D01*
X117788571Y-98923571D02*
X118574285Y-98923571D01*
X118717142Y-98852142D01*
X118788571Y-98709285D01*
X118788571Y-98495000D01*
X118717142Y-98352142D01*
X118645714Y-98280714D01*
X118717142Y-97637857D02*
X118788571Y-97495000D01*
X118788571Y-97209285D01*
X118717142Y-97066428D01*
X118574285Y-96995000D01*
X118502857Y-96995000D01*
X118360000Y-97066428D01*
X118288571Y-97209285D01*
X118288571Y-97423571D01*
X118217142Y-97566428D01*
X118074285Y-97637857D01*
X118002857Y-97637857D01*
X117860000Y-97566428D01*
X117788571Y-97423571D01*
X117788571Y-97209285D01*
X117860000Y-97066428D01*
X117931428Y-94995000D02*
X117860000Y-95137857D01*
X117788571Y-95209285D01*
X117645714Y-95280714D01*
X117574285Y-95280714D01*
X117431428Y-95209285D01*
X117360000Y-95137857D01*
X117288571Y-94995000D01*
X117288571Y-94709285D01*
X117360000Y-94566428D01*
X117431428Y-94495000D01*
X117574285Y-94423571D01*
X117645714Y-94423571D01*
X117788571Y-94495000D01*
X117860000Y-94566428D01*
X117931428Y-94709285D01*
X117931428Y-94995000D01*
X118002857Y-95137857D01*
X118074285Y-95209285D01*
X118217142Y-95280714D01*
X118502857Y-95280714D01*
X118645714Y-95209285D01*
X118717142Y-95137857D01*
X118788571Y-94995000D01*
X118788571Y-94709285D01*
X118717142Y-94566428D01*
X118645714Y-94495000D01*
X118502857Y-94423571D01*
X118217142Y-94423571D01*
X118074285Y-94495000D01*
X118002857Y-94566428D01*
X117931428Y-94709285D01*
X118788571Y-93780714D02*
X117288571Y-93780714D01*
X118360000Y-93280714D01*
X117288571Y-92780714D01*
X118788571Y-92780714D01*
X118002857Y-91566428D02*
X118074285Y-91352142D01*
X118145714Y-91280714D01*
X118288571Y-91209285D01*
X118502857Y-91209285D01*
X118645714Y-91280714D01*
X118717142Y-91352142D01*
X118788571Y-91495000D01*
X118788571Y-92066428D01*
X117288571Y-92066428D01*
X117288571Y-91566428D01*
X117360000Y-91423571D01*
X117431428Y-91352142D01*
X117574285Y-91280714D01*
X117717142Y-91280714D01*
X117860000Y-91352142D01*
X117931428Y-91423571D01*
X118002857Y-91566428D01*
X118002857Y-92066428D01*
X118717142Y-89495000D02*
X118788571Y-89280714D01*
X118788571Y-88923571D01*
X118717142Y-88780714D01*
X118645714Y-88709285D01*
X118502857Y-88637857D01*
X118360000Y-88637857D01*
X118217142Y-88709285D01*
X118145714Y-88780714D01*
X118074285Y-88923571D01*
X118002857Y-89209285D01*
X117931428Y-89352142D01*
X117860000Y-89423571D01*
X117717142Y-89495000D01*
X117574285Y-89495000D01*
X117431428Y-89423571D01*
X117360000Y-89352142D01*
X117288571Y-89209285D01*
X117288571Y-88852142D01*
X117360000Y-88637857D01*
X118788571Y-87137857D02*
X118074285Y-87637857D01*
X118788571Y-87995000D02*
X117288571Y-87995000D01*
X117288571Y-87423571D01*
X117360000Y-87280714D01*
X117431428Y-87209285D01*
X117574285Y-87137857D01*
X117788571Y-87137857D01*
X117931428Y-87209285D01*
X118002857Y-87280714D01*
X118074285Y-87423571D01*
X118074285Y-87995000D01*
X118360000Y-86566428D02*
X118360000Y-85852142D01*
X118788571Y-86709285D02*
X117288571Y-86209285D01*
X118788571Y-85709285D01*
X118788571Y-85209285D02*
X117288571Y-85209285D01*
X118360000Y-84709285D01*
X117288571Y-84209285D01*
X118788571Y-84209285D01*
X118217142Y-82352142D02*
X118217142Y-81209285D01*
X118360000Y-79423571D02*
X118360000Y-78709285D01*
X118788571Y-79566428D02*
X117288571Y-79066428D01*
X118788571Y-78566428D01*
X118002857Y-77566428D02*
X118074285Y-77352142D01*
X118145714Y-77280714D01*
X118288571Y-77209285D01*
X118502857Y-77209285D01*
X118645714Y-77280714D01*
X118717142Y-77352142D01*
X118788571Y-77495000D01*
X118788571Y-78066428D01*
X117288571Y-78066428D01*
X117288571Y-77566428D01*
X117360000Y-77423571D01*
X117431428Y-77352142D01*
X117574285Y-77280714D01*
X117717142Y-77280714D01*
X117860000Y-77352142D01*
X117931428Y-77423571D01*
X118002857Y-77566428D01*
X118002857Y-78066428D01*
X117288571Y-76280714D02*
X117288571Y-76137857D01*
X117360000Y-75995000D01*
X117431428Y-75923571D01*
X117574285Y-75852142D01*
X117860000Y-75780714D01*
X118217142Y-75780714D01*
X118502857Y-75852142D01*
X118645714Y-75923571D01*
X118717142Y-75995000D01*
X118788571Y-76137857D01*
X118788571Y-76280714D01*
X118717142Y-76423571D01*
X118645714Y-76495000D01*
X118502857Y-76566428D01*
X118217142Y-76637857D01*
X117860000Y-76637857D01*
X117574285Y-76566428D01*
X117431428Y-76495000D01*
X117360000Y-76423571D01*
X117288571Y-76280714D01*
X117288571Y-75352142D02*
X117288571Y-74495000D01*
X118788571Y-74923571D02*
X117288571Y-74923571D01*
X117288571Y-73566428D02*
X118360000Y-73566428D01*
X118574285Y-73637857D01*
X118717142Y-73780714D01*
X118788571Y-73995000D01*
X118788571Y-74137857D01*
X117431428Y-71780714D02*
X117360000Y-71709285D01*
X117288571Y-71566428D01*
X117288571Y-71209285D01*
X117360000Y-71066428D01*
X117431428Y-70995000D01*
X117574285Y-70923571D01*
X117717142Y-70923571D01*
X117931428Y-70995000D01*
X118788571Y-71852142D01*
X118788571Y-70923571D01*
X117288571Y-69995000D02*
X117288571Y-69852142D01*
X117360000Y-69709285D01*
X117431428Y-69637857D01*
X117574285Y-69566428D01*
X117860000Y-69495000D01*
X118217142Y-69495000D01*
X118502857Y-69566428D01*
X118645714Y-69637857D01*
X118717142Y-69709285D01*
X118788571Y-69852142D01*
X118788571Y-69995000D01*
X118717142Y-70137857D01*
X118645714Y-70209285D01*
X118502857Y-70280714D01*
X118217142Y-70352142D01*
X117860000Y-70352142D01*
X117574285Y-70280714D01*
X117431428Y-70209285D01*
X117360000Y-70137857D01*
X117288571Y-69995000D01*
X118788571Y-68066428D02*
X118788571Y-68923571D01*
X118788571Y-68495000D02*
X117288571Y-68495000D01*
X117502857Y-68637857D01*
X117645714Y-68780714D01*
X117717142Y-68923571D01*
X118788571Y-67352142D02*
X118788571Y-67066428D01*
X118717142Y-66923571D01*
X118645714Y-66852142D01*
X118431428Y-66709285D01*
X118145714Y-66637857D01*
X117574285Y-66637857D01*
X117431428Y-66709285D01*
X117360000Y-66780714D01*
X117288571Y-66923571D01*
X117288571Y-67209285D01*
X117360000Y-67352142D01*
X117431428Y-67423571D01*
X117574285Y-67495000D01*
X117931428Y-67495000D01*
X118074285Y-67423571D01*
X118145714Y-67352142D01*
X118217142Y-67209285D01*
X118217142Y-66923571D01*
X118145714Y-66780714D01*
X118074285Y-66709285D01*
X117931428Y-66637857D01*
D10*
X103068380Y-105195476D02*
X102068380Y-105195476D01*
X102782666Y-104862142D01*
X102068380Y-104528809D01*
X103068380Y-104528809D01*
X102068380Y-103862142D02*
X102068380Y-103671666D01*
X102116000Y-103576428D01*
X102211238Y-103481190D01*
X102401714Y-103433571D01*
X102735047Y-103433571D01*
X102925523Y-103481190D01*
X103020761Y-103576428D01*
X103068380Y-103671666D01*
X103068380Y-103862142D01*
X103020761Y-103957380D01*
X102925523Y-104052619D01*
X102735047Y-104100238D01*
X102401714Y-104100238D01*
X102211238Y-104052619D01*
X102116000Y-103957380D01*
X102068380Y-103862142D01*
X102068380Y-103147857D02*
X103068380Y-102814523D01*
X102068380Y-102481190D01*
X103068380Y-101671666D02*
X103068380Y-102147857D01*
X102068380Y-102147857D01*
D12*
G04 #@! TO.C,C17*
X78180000Y-79993748D02*
X78180000Y-80516252D01*
X76760000Y-79993748D02*
X76760000Y-80516252D01*
G04 #@! TO.C,C20*
X95325000Y-95868748D02*
X95325000Y-96391252D01*
X93905000Y-95868748D02*
X93905000Y-96391252D01*
G04 #@! TO.C,C21*
X109838748Y-77545000D02*
X110361252Y-77545000D01*
X109838748Y-76125000D02*
X110361252Y-76125000D01*
G04 #@! TO.C,C22*
X95325000Y-79993748D02*
X95325000Y-80516252D01*
X93905000Y-79993748D02*
X93905000Y-80516252D01*
G04 #@! TO.C,C23*
X76760000Y-95868748D02*
X76760000Y-96391252D01*
X78180000Y-95868748D02*
X78180000Y-96391252D01*
G04 #@! TO.C,C15*
X46915000Y-95378748D02*
X46915000Y-95901252D01*
X48335000Y-95378748D02*
X48335000Y-95901252D01*
G04 #@! TO.C,C3*
X73735000Y-34418748D02*
X73735000Y-34941252D01*
X72315000Y-34418748D02*
X72315000Y-34941252D01*
G04 #@! TO.C,C4*
X29135000Y-34418748D02*
X29135000Y-34941252D01*
X30555000Y-34418748D02*
X30555000Y-34941252D01*
G04 #@! TO.C,C5*
X52145000Y-34418748D02*
X52145000Y-34941252D01*
X50725000Y-34418748D02*
X50725000Y-34941252D01*
G04 #@! TO.C,C6*
X72315000Y-62358748D02*
X72315000Y-62881252D01*
X73735000Y-62358748D02*
X73735000Y-62881252D01*
G04 #@! TO.C,C7*
X30555000Y-62358748D02*
X30555000Y-62881252D01*
X29135000Y-62358748D02*
X29135000Y-62881252D01*
G04 #@! TO.C,C8*
X93905000Y-34418748D02*
X93905000Y-34941252D01*
X95325000Y-34418748D02*
X95325000Y-34941252D01*
G04 #@! TO.C,C9*
X52145000Y-62358748D02*
X52145000Y-62881252D01*
X50725000Y-62358748D02*
X50725000Y-62881252D01*
G04 #@! TO.C,C10*
X93905000Y-62358748D02*
X93905000Y-62881252D01*
X95325000Y-62358748D02*
X95325000Y-62881252D01*
G04 #@! TO.C,C11*
X35635000Y-79993748D02*
X35635000Y-80516252D01*
X34215000Y-79993748D02*
X34215000Y-80516252D01*
G04 #@! TO.C,C12*
X46915000Y-80138748D02*
X46915000Y-80661252D01*
X48335000Y-80138748D02*
X48335000Y-80661252D01*
G04 #@! TO.C,C13*
X61035000Y-79993748D02*
X61035000Y-80516252D01*
X59615000Y-79993748D02*
X59615000Y-80516252D01*
G04 #@! TO.C,C16*
X59615000Y-95868748D02*
X59615000Y-96391252D01*
X61035000Y-95868748D02*
X61035000Y-96391252D01*
G04 #@! TO.C,C14*
X35635000Y-95378748D02*
X35635000Y-95901252D01*
X34215000Y-95378748D02*
X34215000Y-95901252D01*
G04 #@! TO.C,C1*
X21350000Y-111385000D02*
X21350000Y-115770000D01*
X24370000Y-111385000D02*
X21350000Y-111385000D01*
X24370000Y-115770000D02*
X24370000Y-111385000D01*
G04 #@! TO.C,C2*
X115330000Y-112195000D02*
X115330000Y-116580000D01*
X115330000Y-116580000D02*
X118350000Y-116580000D01*
X118350000Y-116580000D02*
X118350000Y-112195000D01*
G04 #@! TO.C,JP3*
X98365000Y-106105000D02*
X101025000Y-106105000D01*
X98365000Y-103505000D02*
X98365000Y-106105000D01*
X101025000Y-103505000D02*
X101025000Y-106105000D01*
X98365000Y-103505000D02*
X101025000Y-103505000D01*
X98365000Y-102235000D02*
X98365000Y-100905000D01*
X98365000Y-100905000D02*
X99695000Y-100905000D01*
G04 #@! TO.C,JP2*
X109795000Y-100905000D02*
X111125000Y-100905000D01*
X109795000Y-102235000D02*
X109795000Y-100905000D01*
X109795000Y-103505000D02*
X112455000Y-103505000D01*
X112455000Y-103505000D02*
X112455000Y-106105000D01*
X109795000Y-103505000D02*
X109795000Y-106105000D01*
X109795000Y-106105000D02*
X112455000Y-106105000D01*
G04 #@! TO.C,JP1*
X104080000Y-106105000D02*
X106740000Y-106105000D01*
X104080000Y-103505000D02*
X104080000Y-106105000D01*
X106740000Y-103505000D02*
X106740000Y-106105000D01*
X104080000Y-103505000D02*
X106740000Y-103505000D01*
X104080000Y-102235000D02*
X104080000Y-100905000D01*
X104080000Y-100905000D02*
X105410000Y-100905000D01*
G04 #@! TO.C,U22*
X105045000Y-79780000D02*
X99195000Y-79780000D01*
X99195000Y-79780000D02*
X98195000Y-80780000D01*
X98195000Y-80780000D02*
X98195000Y-95480000D01*
X98195000Y-95480000D02*
X113895000Y-95480000D01*
X113895000Y-95480000D02*
X113895000Y-79780000D01*
X113895000Y-79780000D02*
X107045000Y-79780000D01*
D10*
G04 #@! TO.C,U27*
X52535000Y-94610000D02*
X52535000Y-94635000D01*
X56685000Y-94610000D02*
X56685000Y-94725000D01*
X56685000Y-103510000D02*
X56685000Y-103395000D01*
X52535000Y-103510000D02*
X52535000Y-103395000D01*
X52535000Y-94610000D02*
X56685000Y-94610000D01*
X52535000Y-103510000D02*
X56685000Y-103510000D01*
X52535000Y-94635000D02*
X51160000Y-94635000D01*
G04 #@! TO.C,U26*
X39835000Y-93985000D02*
X39835000Y-94010000D01*
X43985000Y-93985000D02*
X43985000Y-94090000D01*
X43985000Y-104135000D02*
X43985000Y-104030000D01*
X39835000Y-104135000D02*
X39835000Y-104030000D01*
X39835000Y-93985000D02*
X43985000Y-93985000D01*
X39835000Y-104135000D02*
X43985000Y-104135000D01*
X39835000Y-94010000D02*
X38460000Y-94010000D01*
G04 #@! TO.C,U25*
X27135000Y-94010000D02*
X25760000Y-94010000D01*
X27135000Y-104135000D02*
X31285000Y-104135000D01*
X27135000Y-93985000D02*
X31285000Y-93985000D01*
X27135000Y-104135000D02*
X27135000Y-104030000D01*
X31285000Y-104135000D02*
X31285000Y-104030000D01*
X31285000Y-93985000D02*
X31285000Y-94090000D01*
X27135000Y-93985000D02*
X27135000Y-94010000D01*
G04 #@! TO.C,U21*
X52535000Y-78745000D02*
X52535000Y-78770000D01*
X56685000Y-78745000D02*
X56685000Y-78850000D01*
X56685000Y-88895000D02*
X56685000Y-88790000D01*
X52535000Y-88895000D02*
X52535000Y-88790000D01*
X52535000Y-78745000D02*
X56685000Y-78745000D01*
X52535000Y-88895000D02*
X56685000Y-88895000D01*
X52535000Y-78770000D02*
X51160000Y-78770000D01*
G04 #@! TO.C,U20*
X39835000Y-78770000D02*
X38460000Y-78770000D01*
X39835000Y-88895000D02*
X43985000Y-88895000D01*
X39835000Y-78745000D02*
X43985000Y-78745000D01*
X39835000Y-88895000D02*
X39835000Y-88790000D01*
X43985000Y-88895000D02*
X43985000Y-88790000D01*
X43985000Y-78745000D02*
X43985000Y-78850000D01*
X39835000Y-78745000D02*
X39835000Y-78770000D01*
G04 #@! TO.C,U19*
X27135000Y-78745000D02*
X27135000Y-78770000D01*
X31285000Y-78745000D02*
X31285000Y-78850000D01*
X31285000Y-88895000D02*
X31285000Y-88790000D01*
X27135000Y-88895000D02*
X27135000Y-88790000D01*
X27135000Y-78745000D02*
X31285000Y-78745000D01*
X27135000Y-88895000D02*
X31285000Y-88895000D01*
X27135000Y-78770000D02*
X25760000Y-78770000D01*
G04 #@! TO.C,U24*
X82485000Y-78765000D02*
X80685000Y-78765000D01*
X82485000Y-91665000D02*
X90235000Y-91665000D01*
X82485000Y-78515000D02*
X90235000Y-78515000D01*
X82485000Y-91665000D02*
X82485000Y-91330000D01*
X90235000Y-91665000D02*
X90235000Y-91330000D01*
X90235000Y-78515000D02*
X90235000Y-78850000D01*
X82485000Y-78515000D02*
X82485000Y-78765000D01*
G04 #@! TO.C,U23*
X65340000Y-94390000D02*
X65340000Y-94640000D01*
X73090000Y-94390000D02*
X73090000Y-94725000D01*
X73090000Y-107540000D02*
X73090000Y-107205000D01*
X65340000Y-107540000D02*
X65340000Y-107205000D01*
X65340000Y-94390000D02*
X73090000Y-94390000D01*
X65340000Y-107540000D02*
X73090000Y-107540000D01*
X65340000Y-94640000D02*
X63540000Y-94640000D01*
G04 #@! TO.C,U18*
X82485000Y-94640000D02*
X80685000Y-94640000D01*
X82485000Y-107540000D02*
X90235000Y-107540000D01*
X82485000Y-94390000D02*
X90235000Y-94390000D01*
X82485000Y-107540000D02*
X82485000Y-107205000D01*
X90235000Y-107540000D02*
X90235000Y-107205000D01*
X90235000Y-94390000D02*
X90235000Y-94725000D01*
X82485000Y-94390000D02*
X82485000Y-94640000D01*
G04 #@! TO.C,U17*
X65340000Y-78515000D02*
X65340000Y-78765000D01*
X73090000Y-78515000D02*
X73090000Y-78850000D01*
X73090000Y-91665000D02*
X73090000Y-91330000D01*
X65340000Y-91665000D02*
X65340000Y-91330000D01*
X65340000Y-78515000D02*
X73090000Y-78515000D01*
X65340000Y-91665000D02*
X73090000Y-91665000D01*
X65340000Y-78765000D02*
X63540000Y-78765000D01*
D12*
G04 #@! TO.C,U10*
X53865000Y-50875000D02*
X53505000Y-50875000D01*
X53865000Y-50375000D02*
X53865000Y-50875000D01*
X59055000Y-50375000D02*
X53865000Y-50375000D01*
X64245000Y-50375000D02*
X64245000Y-50875000D01*
X59055000Y-50375000D02*
X64245000Y-50375000D01*
X53865000Y-74085000D02*
X53865000Y-73585000D01*
X59055000Y-74085000D02*
X53865000Y-74085000D01*
X64245000Y-74085000D02*
X64245000Y-73585000D01*
X59055000Y-74085000D02*
X64245000Y-74085000D01*
G04 #@! TO.C,U12*
X102235000Y-74085000D02*
X107425000Y-74085000D01*
X107425000Y-74085000D02*
X107425000Y-73585000D01*
X102235000Y-74085000D02*
X97045000Y-74085000D01*
X97045000Y-74085000D02*
X97045000Y-73585000D01*
X102235000Y-50375000D02*
X107425000Y-50375000D01*
X107425000Y-50375000D02*
X107425000Y-50875000D01*
X102235000Y-50375000D02*
X97045000Y-50375000D01*
X97045000Y-50375000D02*
X97045000Y-50875000D01*
X97045000Y-50875000D02*
X96685000Y-50875000D01*
G04 #@! TO.C,U11*
X75455000Y-50875000D02*
X75095000Y-50875000D01*
X75455000Y-50375000D02*
X75455000Y-50875000D01*
X80645000Y-50375000D02*
X75455000Y-50375000D01*
X85835000Y-50375000D02*
X85835000Y-50875000D01*
X80645000Y-50375000D02*
X85835000Y-50375000D01*
X75455000Y-74085000D02*
X75455000Y-73585000D01*
X80645000Y-74085000D02*
X75455000Y-74085000D01*
X85835000Y-74085000D02*
X85835000Y-73585000D01*
X80645000Y-74085000D02*
X85835000Y-74085000D01*
G04 #@! TO.C,U9*
X37465000Y-74085000D02*
X42655000Y-74085000D01*
X42655000Y-74085000D02*
X42655000Y-73585000D01*
X37465000Y-74085000D02*
X32275000Y-74085000D01*
X32275000Y-74085000D02*
X32275000Y-73585000D01*
X37465000Y-50375000D02*
X42655000Y-50375000D01*
X42655000Y-50375000D02*
X42655000Y-50875000D01*
X37465000Y-50375000D02*
X32275000Y-50375000D01*
X32275000Y-50375000D02*
X32275000Y-50875000D01*
X32275000Y-50875000D02*
X31915000Y-50875000D01*
G04 #@! TO.C,U4*
X97045000Y-22935000D02*
X96685000Y-22935000D01*
X97045000Y-22435000D02*
X97045000Y-22935000D01*
X102235000Y-22435000D02*
X97045000Y-22435000D01*
X107425000Y-22435000D02*
X107425000Y-22935000D01*
X102235000Y-22435000D02*
X107425000Y-22435000D01*
X97045000Y-46145000D02*
X97045000Y-45645000D01*
X102235000Y-46145000D02*
X97045000Y-46145000D01*
X107425000Y-46145000D02*
X107425000Y-45645000D01*
X102235000Y-46145000D02*
X107425000Y-46145000D01*
G04 #@! TO.C,U3*
X80645000Y-46145000D02*
X85835000Y-46145000D01*
X85835000Y-46145000D02*
X85835000Y-45645000D01*
X80645000Y-46145000D02*
X75455000Y-46145000D01*
X75455000Y-46145000D02*
X75455000Y-45645000D01*
X80645000Y-22435000D02*
X85835000Y-22435000D01*
X85835000Y-22435000D02*
X85835000Y-22935000D01*
X80645000Y-22435000D02*
X75455000Y-22435000D01*
X75455000Y-22435000D02*
X75455000Y-22935000D01*
X75455000Y-22935000D02*
X75095000Y-22935000D01*
G04 #@! TO.C,U2*
X53865000Y-22935000D02*
X53505000Y-22935000D01*
X53865000Y-22435000D02*
X53865000Y-22935000D01*
X59055000Y-22435000D02*
X53865000Y-22435000D01*
X64245000Y-22435000D02*
X64245000Y-22935000D01*
X59055000Y-22435000D02*
X64245000Y-22435000D01*
X53865000Y-46145000D02*
X53865000Y-45645000D01*
X59055000Y-46145000D02*
X53865000Y-46145000D01*
X64245000Y-46145000D02*
X64245000Y-45645000D01*
X59055000Y-46145000D02*
X64245000Y-46145000D01*
G04 #@! TO.C,U1*
X37465000Y-46145000D02*
X42655000Y-46145000D01*
X42655000Y-46145000D02*
X42655000Y-45645000D01*
X37465000Y-46145000D02*
X32275000Y-46145000D01*
X32275000Y-46145000D02*
X32275000Y-45645000D01*
X37465000Y-22435000D02*
X42655000Y-22435000D01*
X42655000Y-22435000D02*
X42655000Y-22935000D01*
X37465000Y-22435000D02*
X32275000Y-22435000D01*
X32275000Y-22435000D02*
X32275000Y-22935000D01*
X32275000Y-22935000D02*
X31915000Y-22935000D01*
D13*
G04 #@! TO.C,J1*
X113639600Y-118745000D02*
X114249200Y-118745000D01*
X114249200Y-110515400D02*
X25450800Y-110515400D01*
X25450800Y-110515400D02*
X25450800Y-118745000D01*
X25450800Y-118745000D02*
X26060400Y-118745000D01*
X114249200Y-118745000D02*
X114249200Y-110515400D01*
X111150400Y-118745000D02*
X28549600Y-118745000D01*
X27305000Y-119303800D02*
X27305000Y-126238000D01*
X27305000Y-126238000D02*
X112395000Y-126238000D01*
X112395000Y-126238000D02*
X112395000Y-119303800D01*
D14*
G04 #@! TO.C,REF\002A\002A*
G36*
X23871964Y-20785018D02*
X23928812Y-21086570D01*
X24348338Y-21259512D01*
X24599984Y-21088395D01*
X24670458Y-21040750D01*
X24734163Y-20998210D01*
X24788126Y-20962715D01*
X24829373Y-20936210D01*
X24854934Y-20920636D01*
X24861895Y-20917278D01*
X24874435Y-20925914D01*
X24901231Y-20949792D01*
X24939280Y-20985859D01*
X24985579Y-21031067D01*
X25037123Y-21082364D01*
X25090909Y-21136701D01*
X25143935Y-21191028D01*
X25193195Y-21242295D01*
X25235687Y-21287451D01*
X25268407Y-21323446D01*
X25288351Y-21347230D01*
X25293119Y-21355190D01*
X25286257Y-21369865D01*
X25267020Y-21402014D01*
X25237430Y-21448492D01*
X25199510Y-21506156D01*
X25155282Y-21571860D01*
X25129654Y-21609336D01*
X25082941Y-21677768D01*
X25041432Y-21739520D01*
X25007140Y-21791519D01*
X24982080Y-21830692D01*
X24968264Y-21853965D01*
X24966188Y-21858855D01*
X24970895Y-21872755D01*
X24983723Y-21905150D01*
X25002738Y-21951485D01*
X25026003Y-22007206D01*
X25051584Y-22067758D01*
X25077545Y-22128586D01*
X25101950Y-22185136D01*
X25122863Y-22232852D01*
X25138349Y-22267181D01*
X25146472Y-22283568D01*
X25146952Y-22284212D01*
X25159707Y-22287341D01*
X25193677Y-22294321D01*
X25245340Y-22304467D01*
X25311176Y-22317092D01*
X25387664Y-22331509D01*
X25432290Y-22339823D01*
X25514021Y-22355384D01*
X25587843Y-22370192D01*
X25650021Y-22383436D01*
X25696822Y-22394305D01*
X25724509Y-22401989D01*
X25730074Y-22404427D01*
X25735526Y-22420930D01*
X25739924Y-22458200D01*
X25743272Y-22511880D01*
X25745574Y-22577612D01*
X25746832Y-22651037D01*
X25747048Y-22727796D01*
X25746227Y-22803532D01*
X25744371Y-22873886D01*
X25741482Y-22934500D01*
X25737565Y-22981016D01*
X25732622Y-23009075D01*
X25729657Y-23014916D01*
X25711934Y-23021917D01*
X25674381Y-23031927D01*
X25621964Y-23043769D01*
X25559652Y-23056267D01*
X25537900Y-23060310D01*
X25433024Y-23079520D01*
X25350180Y-23094991D01*
X25286630Y-23107337D01*
X25239637Y-23117173D01*
X25206463Y-23125114D01*
X25184371Y-23131776D01*
X25170624Y-23137773D01*
X25162484Y-23143719D01*
X25161345Y-23144894D01*
X25149977Y-23163826D01*
X25132635Y-23200669D01*
X25111050Y-23250913D01*
X25086954Y-23310046D01*
X25062079Y-23373556D01*
X25038157Y-23436932D01*
X25016919Y-23495662D01*
X25000097Y-23545235D01*
X24989422Y-23581139D01*
X24986627Y-23598862D01*
X24986860Y-23599483D01*
X24996331Y-23613970D01*
X25017818Y-23645844D01*
X25049063Y-23691789D01*
X25087807Y-23748485D01*
X25131793Y-23812617D01*
X25144319Y-23830842D01*
X25188984Y-23896914D01*
X25228288Y-23957200D01*
X25260088Y-24008235D01*
X25282245Y-24046560D01*
X25292617Y-24068711D01*
X25293119Y-24071432D01*
X25284405Y-24085736D01*
X25260325Y-24114072D01*
X25223976Y-24153396D01*
X25178453Y-24200661D01*
X25126852Y-24252823D01*
X25072267Y-24306835D01*
X25017794Y-24359653D01*
X24966529Y-24408231D01*
X24921567Y-24449523D01*
X24886004Y-24480485D01*
X24862935Y-24498070D01*
X24856554Y-24500941D01*
X24841699Y-24494178D01*
X24811286Y-24475939D01*
X24770268Y-24449297D01*
X24738709Y-24427852D01*
X24681525Y-24388503D01*
X24613806Y-24342171D01*
X24545880Y-24295913D01*
X24509361Y-24271155D01*
X24385752Y-24187547D01*
X24281991Y-24243650D01*
X24234720Y-24268228D01*
X24194523Y-24287331D01*
X24167326Y-24298227D01*
X24160402Y-24299743D01*
X24152077Y-24288549D01*
X24135654Y-24256917D01*
X24112357Y-24207765D01*
X24083414Y-24144010D01*
X24050050Y-24068571D01*
X24013491Y-23984364D01*
X23974964Y-23894308D01*
X23935694Y-23801321D01*
X23896908Y-23708320D01*
X23859830Y-23618223D01*
X23825689Y-23533948D01*
X23795708Y-23458413D01*
X23771116Y-23394534D01*
X23753136Y-23345231D01*
X23742997Y-23313421D01*
X23741366Y-23302496D01*
X23754291Y-23288561D01*
X23782589Y-23265940D01*
X23820346Y-23239333D01*
X23823515Y-23237228D01*
X23921100Y-23159114D01*
X23999786Y-23067982D01*
X24058891Y-22966745D01*
X24097732Y-22858318D01*
X24115628Y-22745614D01*
X24111897Y-22631548D01*
X24085857Y-22519034D01*
X24036825Y-22410985D01*
X24022400Y-22387345D01*
X23947369Y-22291887D01*
X23858730Y-22215232D01*
X23759549Y-22157780D01*
X23652895Y-22119929D01*
X23541836Y-22102078D01*
X23429439Y-22104625D01*
X23318773Y-22127970D01*
X23212906Y-22172510D01*
X23114905Y-22238645D01*
X23084590Y-22265487D01*
X23007438Y-22349512D01*
X22951218Y-22437966D01*
X22912653Y-22537115D01*
X22891174Y-22635303D01*
X22885872Y-22745697D01*
X22903552Y-22856640D01*
X22942419Y-22964381D01*
X23000677Y-23065169D01*
X23076531Y-23155256D01*
X23168183Y-23230892D01*
X23180228Y-23238864D01*
X23218389Y-23264974D01*
X23247399Y-23287595D01*
X23261268Y-23302039D01*
X23261469Y-23302496D01*
X23258492Y-23318121D01*
X23246689Y-23353582D01*
X23227286Y-23405962D01*
X23201512Y-23472345D01*
X23170591Y-23549814D01*
X23135751Y-23635450D01*
X23098217Y-23726337D01*
X23059217Y-23819559D01*
X23019977Y-23912197D01*
X22981724Y-24001335D01*
X22945683Y-24084055D01*
X22913083Y-24157441D01*
X22885148Y-24218575D01*
X22863105Y-24264541D01*
X22848182Y-24292421D01*
X22842172Y-24299743D01*
X22823809Y-24294041D01*
X22789448Y-24278749D01*
X22745016Y-24256599D01*
X22720583Y-24243650D01*
X22616822Y-24187547D01*
X22493213Y-24271155D01*
X22430114Y-24313987D01*
X22361030Y-24361122D01*
X22296293Y-24405503D01*
X22263866Y-24427852D01*
X22218259Y-24458477D01*
X22179640Y-24482747D01*
X22153048Y-24497587D01*
X22144410Y-24500724D01*
X22131839Y-24492261D01*
X22104016Y-24468636D01*
X22063639Y-24432302D01*
X22013405Y-24385711D01*
X21956012Y-24331317D01*
X21919714Y-24296392D01*
X21856210Y-24233996D01*
X21801327Y-24178188D01*
X21757286Y-24131354D01*
X21726305Y-24095882D01*
X21710602Y-24074161D01*
X21709095Y-24069752D01*
X21716086Y-24052985D01*
X21735406Y-24019082D01*
X21764909Y-23971476D01*
X21802455Y-23913599D01*
X21845900Y-23848884D01*
X21858255Y-23830842D01*
X21903273Y-23765267D01*
X21943660Y-23706228D01*
X21977160Y-23657042D01*
X22001514Y-23621028D01*
X22014464Y-23601502D01*
X22015715Y-23599483D01*
X22013844Y-23583922D01*
X22003913Y-23549709D01*
X21987653Y-23501355D01*
X21966795Y-23443371D01*
X21943073Y-23380270D01*
X21918216Y-23316563D01*
X21893958Y-23256761D01*
X21872029Y-23205376D01*
X21854162Y-23166919D01*
X21842087Y-23145902D01*
X21841229Y-23144894D01*
X21833846Y-23138888D01*
X21821375Y-23132948D01*
X21801080Y-23126460D01*
X21770222Y-23118809D01*
X21726066Y-23109380D01*
X21665874Y-23097559D01*
X21586907Y-23082729D01*
X21486430Y-23064277D01*
X21464675Y-23060310D01*
X21400198Y-23047853D01*
X21343989Y-23035666D01*
X21301013Y-23024926D01*
X21276240Y-23016809D01*
X21272918Y-23014916D01*
X21267444Y-22998138D01*
X21262994Y-22960645D01*
X21259572Y-22906794D01*
X21257181Y-22840944D01*
X21255823Y-22767453D01*
X21255501Y-22690680D01*
X21256219Y-22614983D01*
X21257979Y-22544720D01*
X21260784Y-22484250D01*
X21264638Y-22437930D01*
X21269543Y-22410119D01*
X21272500Y-22404427D01*
X21288963Y-22398686D01*
X21326449Y-22389345D01*
X21381225Y-22377215D01*
X21449555Y-22363107D01*
X21527706Y-22347830D01*
X21570284Y-22339823D01*
X21651071Y-22324721D01*
X21723113Y-22311040D01*
X21782889Y-22299467D01*
X21826879Y-22290687D01*
X21851561Y-22285387D01*
X21855623Y-22284212D01*
X21862489Y-22270965D01*
X21877002Y-22239057D01*
X21897229Y-22193047D01*
X21921234Y-22137492D01*
X21947082Y-22076953D01*
X21972840Y-22015986D01*
X21996573Y-21959151D01*
X22016346Y-21911006D01*
X22030224Y-21876110D01*
X22036274Y-21859021D01*
X22036386Y-21858274D01*
X22029528Y-21844793D01*
X22010302Y-21813770D01*
X21980728Y-21768289D01*
X21942827Y-21711432D01*
X21898620Y-21646283D01*
X21872921Y-21608862D01*
X21826093Y-21540247D01*
X21784501Y-21477952D01*
X21750175Y-21425129D01*
X21725143Y-21384927D01*
X21711435Y-21360500D01*
X21709456Y-21355024D01*
X21717966Y-21342278D01*
X21741493Y-21315063D01*
X21777032Y-21276428D01*
X21821577Y-21229423D01*
X21872123Y-21177095D01*
X21925664Y-21122495D01*
X21979195Y-21068670D01*
X22029711Y-21018670D01*
X22074206Y-20975543D01*
X22109675Y-20942339D01*
X22133113Y-20922106D01*
X22140954Y-20917278D01*
X22153720Y-20924067D01*
X22184256Y-20943142D01*
X22229590Y-20972561D01*
X22286756Y-21010381D01*
X22352784Y-21054661D01*
X22402590Y-21088395D01*
X22654236Y-21259512D01*
X22863999Y-21173041D01*
X23073763Y-21086570D01*
X23130611Y-20785018D01*
X23187460Y-20483466D01*
X23815115Y-20483466D01*
X23871964Y-20785018D01*
X23871964Y-20785018D01*
G37*
X23871964Y-20785018D02*
X23928812Y-21086570D01*
X24348338Y-21259512D01*
X24599984Y-21088395D01*
X24670458Y-21040750D01*
X24734163Y-20998210D01*
X24788126Y-20962715D01*
X24829373Y-20936210D01*
X24854934Y-20920636D01*
X24861895Y-20917278D01*
X24874435Y-20925914D01*
X24901231Y-20949792D01*
X24939280Y-20985859D01*
X24985579Y-21031067D01*
X25037123Y-21082364D01*
X25090909Y-21136701D01*
X25143935Y-21191028D01*
X25193195Y-21242295D01*
X25235687Y-21287451D01*
X25268407Y-21323446D01*
X25288351Y-21347230D01*
X25293119Y-21355190D01*
X25286257Y-21369865D01*
X25267020Y-21402014D01*
X25237430Y-21448492D01*
X25199510Y-21506156D01*
X25155282Y-21571860D01*
X25129654Y-21609336D01*
X25082941Y-21677768D01*
X25041432Y-21739520D01*
X25007140Y-21791519D01*
X24982080Y-21830692D01*
X24968264Y-21853965D01*
X24966188Y-21858855D01*
X24970895Y-21872755D01*
X24983723Y-21905150D01*
X25002738Y-21951485D01*
X25026003Y-22007206D01*
X25051584Y-22067758D01*
X25077545Y-22128586D01*
X25101950Y-22185136D01*
X25122863Y-22232852D01*
X25138349Y-22267181D01*
X25146472Y-22283568D01*
X25146952Y-22284212D01*
X25159707Y-22287341D01*
X25193677Y-22294321D01*
X25245340Y-22304467D01*
X25311176Y-22317092D01*
X25387664Y-22331509D01*
X25432290Y-22339823D01*
X25514021Y-22355384D01*
X25587843Y-22370192D01*
X25650021Y-22383436D01*
X25696822Y-22394305D01*
X25724509Y-22401989D01*
X25730074Y-22404427D01*
X25735526Y-22420930D01*
X25739924Y-22458200D01*
X25743272Y-22511880D01*
X25745574Y-22577612D01*
X25746832Y-22651037D01*
X25747048Y-22727796D01*
X25746227Y-22803532D01*
X25744371Y-22873886D01*
X25741482Y-22934500D01*
X25737565Y-22981016D01*
X25732622Y-23009075D01*
X25729657Y-23014916D01*
X25711934Y-23021917D01*
X25674381Y-23031927D01*
X25621964Y-23043769D01*
X25559652Y-23056267D01*
X25537900Y-23060310D01*
X25433024Y-23079520D01*
X25350180Y-23094991D01*
X25286630Y-23107337D01*
X25239637Y-23117173D01*
X25206463Y-23125114D01*
X25184371Y-23131776D01*
X25170624Y-23137773D01*
X25162484Y-23143719D01*
X25161345Y-23144894D01*
X25149977Y-23163826D01*
X25132635Y-23200669D01*
X25111050Y-23250913D01*
X25086954Y-23310046D01*
X25062079Y-23373556D01*
X25038157Y-23436932D01*
X25016919Y-23495662D01*
X25000097Y-23545235D01*
X24989422Y-23581139D01*
X24986627Y-23598862D01*
X24986860Y-23599483D01*
X24996331Y-23613970D01*
X25017818Y-23645844D01*
X25049063Y-23691789D01*
X25087807Y-23748485D01*
X25131793Y-23812617D01*
X25144319Y-23830842D01*
X25188984Y-23896914D01*
X25228288Y-23957200D01*
X25260088Y-24008235D01*
X25282245Y-24046560D01*
X25292617Y-24068711D01*
X25293119Y-24071432D01*
X25284405Y-24085736D01*
X25260325Y-24114072D01*
X25223976Y-24153396D01*
X25178453Y-24200661D01*
X25126852Y-24252823D01*
X25072267Y-24306835D01*
X25017794Y-24359653D01*
X24966529Y-24408231D01*
X24921567Y-24449523D01*
X24886004Y-24480485D01*
X24862935Y-24498070D01*
X24856554Y-24500941D01*
X24841699Y-24494178D01*
X24811286Y-24475939D01*
X24770268Y-24449297D01*
X24738709Y-24427852D01*
X24681525Y-24388503D01*
X24613806Y-24342171D01*
X24545880Y-24295913D01*
X24509361Y-24271155D01*
X24385752Y-24187547D01*
X24281991Y-24243650D01*
X24234720Y-24268228D01*
X24194523Y-24287331D01*
X24167326Y-24298227D01*
X24160402Y-24299743D01*
X24152077Y-24288549D01*
X24135654Y-24256917D01*
X24112357Y-24207765D01*
X24083414Y-24144010D01*
X24050050Y-24068571D01*
X24013491Y-23984364D01*
X23974964Y-23894308D01*
X23935694Y-23801321D01*
X23896908Y-23708320D01*
X23859830Y-23618223D01*
X23825689Y-23533948D01*
X23795708Y-23458413D01*
X23771116Y-23394534D01*
X23753136Y-23345231D01*
X23742997Y-23313421D01*
X23741366Y-23302496D01*
X23754291Y-23288561D01*
X23782589Y-23265940D01*
X23820346Y-23239333D01*
X23823515Y-23237228D01*
X23921100Y-23159114D01*
X23999786Y-23067982D01*
X24058891Y-22966745D01*
X24097732Y-22858318D01*
X24115628Y-22745614D01*
X24111897Y-22631548D01*
X24085857Y-22519034D01*
X24036825Y-22410985D01*
X24022400Y-22387345D01*
X23947369Y-22291887D01*
X23858730Y-22215232D01*
X23759549Y-22157780D01*
X23652895Y-22119929D01*
X23541836Y-22102078D01*
X23429439Y-22104625D01*
X23318773Y-22127970D01*
X23212906Y-22172510D01*
X23114905Y-22238645D01*
X23084590Y-22265487D01*
X23007438Y-22349512D01*
X22951218Y-22437966D01*
X22912653Y-22537115D01*
X22891174Y-22635303D01*
X22885872Y-22745697D01*
X22903552Y-22856640D01*
X22942419Y-22964381D01*
X23000677Y-23065169D01*
X23076531Y-23155256D01*
X23168183Y-23230892D01*
X23180228Y-23238864D01*
X23218389Y-23264974D01*
X23247399Y-23287595D01*
X23261268Y-23302039D01*
X23261469Y-23302496D01*
X23258492Y-23318121D01*
X23246689Y-23353582D01*
X23227286Y-23405962D01*
X23201512Y-23472345D01*
X23170591Y-23549814D01*
X23135751Y-23635450D01*
X23098217Y-23726337D01*
X23059217Y-23819559D01*
X23019977Y-23912197D01*
X22981724Y-24001335D01*
X22945683Y-24084055D01*
X22913083Y-24157441D01*
X22885148Y-24218575D01*
X22863105Y-24264541D01*
X22848182Y-24292421D01*
X22842172Y-24299743D01*
X22823809Y-24294041D01*
X22789448Y-24278749D01*
X22745016Y-24256599D01*
X22720583Y-24243650D01*
X22616822Y-24187547D01*
X22493213Y-24271155D01*
X22430114Y-24313987D01*
X22361030Y-24361122D01*
X22296293Y-24405503D01*
X22263866Y-24427852D01*
X22218259Y-24458477D01*
X22179640Y-24482747D01*
X22153048Y-24497587D01*
X22144410Y-24500724D01*
X22131839Y-24492261D01*
X22104016Y-24468636D01*
X22063639Y-24432302D01*
X22013405Y-24385711D01*
X21956012Y-24331317D01*
X21919714Y-24296392D01*
X21856210Y-24233996D01*
X21801327Y-24178188D01*
X21757286Y-24131354D01*
X21726305Y-24095882D01*
X21710602Y-24074161D01*
X21709095Y-24069752D01*
X21716086Y-24052985D01*
X21735406Y-24019082D01*
X21764909Y-23971476D01*
X21802455Y-23913599D01*
X21845900Y-23848884D01*
X21858255Y-23830842D01*
X21903273Y-23765267D01*
X21943660Y-23706228D01*
X21977160Y-23657042D01*
X22001514Y-23621028D01*
X22014464Y-23601502D01*
X22015715Y-23599483D01*
X22013844Y-23583922D01*
X22003913Y-23549709D01*
X21987653Y-23501355D01*
X21966795Y-23443371D01*
X21943073Y-23380270D01*
X21918216Y-23316563D01*
X21893958Y-23256761D01*
X21872029Y-23205376D01*
X21854162Y-23166919D01*
X21842087Y-23145902D01*
X21841229Y-23144894D01*
X21833846Y-23138888D01*
X21821375Y-23132948D01*
X21801080Y-23126460D01*
X21770222Y-23118809D01*
X21726066Y-23109380D01*
X21665874Y-23097559D01*
X21586907Y-23082729D01*
X21486430Y-23064277D01*
X21464675Y-23060310D01*
X21400198Y-23047853D01*
X21343989Y-23035666D01*
X21301013Y-23024926D01*
X21276240Y-23016809D01*
X21272918Y-23014916D01*
X21267444Y-22998138D01*
X21262994Y-22960645D01*
X21259572Y-22906794D01*
X21257181Y-22840944D01*
X21255823Y-22767453D01*
X21255501Y-22690680D01*
X21256219Y-22614983D01*
X21257979Y-22544720D01*
X21260784Y-22484250D01*
X21264638Y-22437930D01*
X21269543Y-22410119D01*
X21272500Y-22404427D01*
X21288963Y-22398686D01*
X21326449Y-22389345D01*
X21381225Y-22377215D01*
X21449555Y-22363107D01*
X21527706Y-22347830D01*
X21570284Y-22339823D01*
X21651071Y-22324721D01*
X21723113Y-22311040D01*
X21782889Y-22299467D01*
X21826879Y-22290687D01*
X21851561Y-22285387D01*
X21855623Y-22284212D01*
X21862489Y-22270965D01*
X21877002Y-22239057D01*
X21897229Y-22193047D01*
X21921234Y-22137492D01*
X21947082Y-22076953D01*
X21972840Y-22015986D01*
X21996573Y-21959151D01*
X22016346Y-21911006D01*
X22030224Y-21876110D01*
X22036274Y-21859021D01*
X22036386Y-21858274D01*
X22029528Y-21844793D01*
X22010302Y-21813770D01*
X21980728Y-21768289D01*
X21942827Y-21711432D01*
X21898620Y-21646283D01*
X21872921Y-21608862D01*
X21826093Y-21540247D01*
X21784501Y-21477952D01*
X21750175Y-21425129D01*
X21725143Y-21384927D01*
X21711435Y-21360500D01*
X21709456Y-21355024D01*
X21717966Y-21342278D01*
X21741493Y-21315063D01*
X21777032Y-21276428D01*
X21821577Y-21229423D01*
X21872123Y-21177095D01*
X21925664Y-21122495D01*
X21979195Y-21068670D01*
X22029711Y-21018670D01*
X22074206Y-20975543D01*
X22109675Y-20942339D01*
X22133113Y-20922106D01*
X22140954Y-20917278D01*
X22153720Y-20924067D01*
X22184256Y-20943142D01*
X22229590Y-20972561D01*
X22286756Y-21010381D01*
X22352784Y-21054661D01*
X22402590Y-21088395D01*
X22654236Y-21259512D01*
X22863999Y-21173041D01*
X23073763Y-21086570D01*
X23130611Y-20785018D01*
X23187460Y-20483466D01*
X23815115Y-20483466D01*
X23871964Y-20785018D01*
G36*
X25294460Y-24953030D02*
X25337711Y-24966245D01*
X25365558Y-24982941D01*
X25374629Y-24996145D01*
X25372132Y-25011797D01*
X25355931Y-25036385D01*
X25342232Y-25053800D01*
X25313992Y-25085283D01*
X25292775Y-25098529D01*
X25274688Y-25097664D01*
X25221035Y-25084010D01*
X25181630Y-25084630D01*
X25149632Y-25100104D01*
X25138890Y-25109161D01*
X25104505Y-25141027D01*
X25104505Y-25557179D01*
X24966188Y-25557179D01*
X24966188Y-24953614D01*
X25035347Y-24953614D01*
X25076869Y-24955256D01*
X25098291Y-24961087D01*
X25104502Y-24972461D01*
X25104505Y-24972798D01*
X25107439Y-24984713D01*
X25120704Y-24983159D01*
X25139084Y-24974563D01*
X25177046Y-24958568D01*
X25207872Y-24948945D01*
X25247536Y-24946478D01*
X25294460Y-24953030D01*
X25294460Y-24953030D01*
G37*
X25294460Y-24953030D02*
X25337711Y-24966245D01*
X25365558Y-24982941D01*
X25374629Y-24996145D01*
X25372132Y-25011797D01*
X25355931Y-25036385D01*
X25342232Y-25053800D01*
X25313992Y-25085283D01*
X25292775Y-25098529D01*
X25274688Y-25097664D01*
X25221035Y-25084010D01*
X25181630Y-25084630D01*
X25149632Y-25100104D01*
X25138890Y-25109161D01*
X25104505Y-25141027D01*
X25104505Y-25557179D01*
X24966188Y-25557179D01*
X24966188Y-24953614D01*
X25035347Y-24953614D01*
X25076869Y-24955256D01*
X25098291Y-24961087D01*
X25104502Y-24972461D01*
X25104505Y-24972798D01*
X25107439Y-24984713D01*
X25120704Y-24983159D01*
X25139084Y-24974563D01*
X25177046Y-24958568D01*
X25207872Y-24948945D01*
X25247536Y-24946478D01*
X25294460Y-24953030D01*
G36*
X22740988Y-24964002D02*
X22772283Y-24978950D01*
X22802591Y-25000541D01*
X22825682Y-25025391D01*
X22842500Y-25057087D01*
X22853994Y-25099214D01*
X22861109Y-25155358D01*
X22864793Y-25229106D01*
X22865992Y-25324044D01*
X22866011Y-25333985D01*
X22866287Y-25557179D01*
X22727970Y-25557179D01*
X22727970Y-25351418D01*
X22727872Y-25275189D01*
X22727191Y-25219939D01*
X22725349Y-25181501D01*
X22721767Y-25155706D01*
X22715868Y-25138384D01*
X22707073Y-25125368D01*
X22694820Y-25112507D01*
X22651953Y-25084873D01*
X22605157Y-25079745D01*
X22560576Y-25097217D01*
X22545072Y-25110221D01*
X22533690Y-25122447D01*
X22525519Y-25135540D01*
X22520026Y-25153615D01*
X22516680Y-25180787D01*
X22514949Y-25221170D01*
X22514303Y-25278879D01*
X22514208Y-25349132D01*
X22514208Y-25557179D01*
X22375891Y-25557179D01*
X22375891Y-24953614D01*
X22445050Y-24953614D01*
X22486572Y-24955256D01*
X22507994Y-24961087D01*
X22514205Y-24972461D01*
X22514208Y-24972798D01*
X22517090Y-24983938D01*
X22529801Y-24982674D01*
X22555074Y-24970434D01*
X22612395Y-24952424D01*
X22677963Y-24950421D01*
X22740988Y-24964002D01*
X22740988Y-24964002D01*
G37*
X22740988Y-24964002D02*
X22772283Y-24978950D01*
X22802591Y-25000541D01*
X22825682Y-25025391D01*
X22842500Y-25057087D01*
X22853994Y-25099214D01*
X22861109Y-25155358D01*
X22864793Y-25229106D01*
X22865992Y-25324044D01*
X22866011Y-25333985D01*
X22866287Y-25557179D01*
X22727970Y-25557179D01*
X22727970Y-25351418D01*
X22727872Y-25275189D01*
X22727191Y-25219939D01*
X22725349Y-25181501D01*
X22721767Y-25155706D01*
X22715868Y-25138384D01*
X22707073Y-25125368D01*
X22694820Y-25112507D01*
X22651953Y-25084873D01*
X22605157Y-25079745D01*
X22560576Y-25097217D01*
X22545072Y-25110221D01*
X22533690Y-25122447D01*
X22525519Y-25135540D01*
X22520026Y-25153615D01*
X22516680Y-25180787D01*
X22514949Y-25221170D01*
X22514303Y-25278879D01*
X22514208Y-25349132D01*
X22514208Y-25557179D01*
X22375891Y-25557179D01*
X22375891Y-24953614D01*
X22445050Y-24953614D01*
X22486572Y-24955256D01*
X22507994Y-24961087D01*
X22514205Y-24972461D01*
X22514208Y-24972798D01*
X22517090Y-24983938D01*
X22529801Y-24982674D01*
X22555074Y-24970434D01*
X22612395Y-24952424D01*
X22677963Y-24950421D01*
X22740988Y-24964002D01*
G36*
X26172898Y-24951457D02*
X26205096Y-24959279D01*
X26266825Y-24987921D01*
X26319610Y-25031667D01*
X26356141Y-25084117D01*
X26361160Y-25095893D01*
X26368045Y-25126740D01*
X26372864Y-25172371D01*
X26374505Y-25218492D01*
X26374505Y-25305693D01*
X26192178Y-25305693D01*
X26116979Y-25305978D01*
X26064003Y-25307704D01*
X26030325Y-25312181D01*
X26013020Y-25320720D01*
X26009163Y-25334630D01*
X26015829Y-25355222D01*
X26027770Y-25379315D01*
X26061080Y-25419525D01*
X26107368Y-25439558D01*
X26163944Y-25438905D01*
X26228031Y-25417101D01*
X26283417Y-25390193D01*
X26329375Y-25426532D01*
X26375333Y-25462872D01*
X26332096Y-25502819D01*
X26274374Y-25540563D01*
X26203386Y-25563320D01*
X26127029Y-25569688D01*
X26053199Y-25558268D01*
X26041287Y-25554393D01*
X25976399Y-25520506D01*
X25928130Y-25469986D01*
X25895465Y-25401325D01*
X25877385Y-25313014D01*
X25877175Y-25311121D01*
X25875556Y-25214878D01*
X25882100Y-25180542D01*
X26009852Y-25180542D01*
X26021584Y-25185822D01*
X26053438Y-25189867D01*
X26100397Y-25192176D01*
X26130154Y-25192525D01*
X26185648Y-25192306D01*
X26220346Y-25190916D01*
X26238601Y-25187251D01*
X26244766Y-25180210D01*
X26243195Y-25168690D01*
X26241878Y-25164233D01*
X26219382Y-25122355D01*
X26184003Y-25088604D01*
X26152780Y-25073773D01*
X26111301Y-25074668D01*
X26069269Y-25093164D01*
X26034012Y-25123786D01*
X26012854Y-25161062D01*
X26009852Y-25180542D01*
X25882100Y-25180542D01*
X25891690Y-25130229D01*
X25923698Y-25059191D01*
X25969701Y-25003779D01*
X26027821Y-24966009D01*
X26096180Y-24947896D01*
X26172898Y-24951457D01*
X26172898Y-24951457D01*
G37*
X26172898Y-24951457D02*
X26205096Y-24959279D01*
X26266825Y-24987921D01*
X26319610Y-25031667D01*
X26356141Y-25084117D01*
X26361160Y-25095893D01*
X26368045Y-25126740D01*
X26372864Y-25172371D01*
X26374505Y-25218492D01*
X26374505Y-25305693D01*
X26192178Y-25305693D01*
X26116979Y-25305978D01*
X26064003Y-25307704D01*
X26030325Y-25312181D01*
X26013020Y-25320720D01*
X26009163Y-25334630D01*
X26015829Y-25355222D01*
X26027770Y-25379315D01*
X26061080Y-25419525D01*
X26107368Y-25439558D01*
X26163944Y-25438905D01*
X26228031Y-25417101D01*
X26283417Y-25390193D01*
X26329375Y-25426532D01*
X26375333Y-25462872D01*
X26332096Y-25502819D01*
X26274374Y-25540563D01*
X26203386Y-25563320D01*
X26127029Y-25569688D01*
X26053199Y-25558268D01*
X26041287Y-25554393D01*
X25976399Y-25520506D01*
X25928130Y-25469986D01*
X25895465Y-25401325D01*
X25877385Y-25313014D01*
X25877175Y-25311121D01*
X25875556Y-25214878D01*
X25882100Y-25180542D01*
X26009852Y-25180542D01*
X26021584Y-25185822D01*
X26053438Y-25189867D01*
X26100397Y-25192176D01*
X26130154Y-25192525D01*
X26185648Y-25192306D01*
X26220346Y-25190916D01*
X26238601Y-25187251D01*
X26244766Y-25180210D01*
X26243195Y-25168690D01*
X26241878Y-25164233D01*
X26219382Y-25122355D01*
X26184003Y-25088604D01*
X26152780Y-25073773D01*
X26111301Y-25074668D01*
X26069269Y-25093164D01*
X26034012Y-25123786D01*
X26012854Y-25161062D01*
X26009852Y-25180542D01*
X25882100Y-25180542D01*
X25891690Y-25130229D01*
X25923698Y-25059191D01*
X25969701Y-25003779D01*
X26027821Y-24966009D01*
X26096180Y-24947896D01*
X26172898Y-24951457D01*
G36*
X25712226Y-24958880D02*
X25785080Y-24989830D01*
X25808027Y-25004895D01*
X25837354Y-25028048D01*
X25855764Y-25046253D01*
X25858961Y-25052183D01*
X25849935Y-25065340D01*
X25826837Y-25087667D01*
X25808344Y-25103250D01*
X25757728Y-25143926D01*
X25717760Y-25110295D01*
X25686874Y-25088584D01*
X25656759Y-25081090D01*
X25622292Y-25082920D01*
X25567561Y-25096528D01*
X25529886Y-25124772D01*
X25506991Y-25170433D01*
X25496597Y-25236289D01*
X25496595Y-25236331D01*
X25497494Y-25309939D01*
X25511463Y-25363946D01*
X25539328Y-25400716D01*
X25558325Y-25413168D01*
X25608776Y-25428673D01*
X25662663Y-25428683D01*
X25709546Y-25413638D01*
X25720644Y-25406287D01*
X25748476Y-25387511D01*
X25770236Y-25384434D01*
X25793704Y-25398409D01*
X25819649Y-25423510D01*
X25860716Y-25465880D01*
X25815121Y-25503464D01*
X25744674Y-25545882D01*
X25665233Y-25566785D01*
X25582215Y-25565272D01*
X25527694Y-25551411D01*
X25463970Y-25517135D01*
X25413005Y-25463212D01*
X25389851Y-25425149D01*
X25371099Y-25370536D01*
X25361715Y-25301369D01*
X25361643Y-25226407D01*
X25370824Y-25154409D01*
X25389199Y-25094137D01*
X25392093Y-25087958D01*
X25434952Y-25027351D01*
X25492979Y-24983224D01*
X25561591Y-24956493D01*
X25636201Y-24948073D01*
X25712226Y-24958880D01*
X25712226Y-24958880D01*
G37*
X25712226Y-24958880D02*
X25785080Y-24989830D01*
X25808027Y-25004895D01*
X25837354Y-25028048D01*
X25855764Y-25046253D01*
X25858961Y-25052183D01*
X25849935Y-25065340D01*
X25826837Y-25087667D01*
X25808344Y-25103250D01*
X25757728Y-25143926D01*
X25717760Y-25110295D01*
X25686874Y-25088584D01*
X25656759Y-25081090D01*
X25622292Y-25082920D01*
X25567561Y-25096528D01*
X25529886Y-25124772D01*
X25506991Y-25170433D01*
X25496597Y-25236289D01*
X25496595Y-25236331D01*
X25497494Y-25309939D01*
X25511463Y-25363946D01*
X25539328Y-25400716D01*
X25558325Y-25413168D01*
X25608776Y-25428673D01*
X25662663Y-25428683D01*
X25709546Y-25413638D01*
X25720644Y-25406287D01*
X25748476Y-25387511D01*
X25770236Y-25384434D01*
X25793704Y-25398409D01*
X25819649Y-25423510D01*
X25860716Y-25465880D01*
X25815121Y-25503464D01*
X25744674Y-25545882D01*
X25665233Y-25566785D01*
X25582215Y-25565272D01*
X25527694Y-25551411D01*
X25463970Y-25517135D01*
X25413005Y-25463212D01*
X25389851Y-25425149D01*
X25371099Y-25370536D01*
X25361715Y-25301369D01*
X25361643Y-25226407D01*
X25370824Y-25154409D01*
X25389199Y-25094137D01*
X25392093Y-25087958D01*
X25434952Y-25027351D01*
X25492979Y-24983224D01*
X25561591Y-24956493D01*
X25636201Y-24948073D01*
X25712226Y-24958880D01*
G36*
X24488367Y-25149342D02*
X24489555Y-25241563D01*
X24493897Y-25311610D01*
X24502558Y-25362381D01*
X24516704Y-25396772D01*
X24537500Y-25417679D01*
X24566110Y-25428000D01*
X24601535Y-25430636D01*
X24638636Y-25427682D01*
X24666818Y-25416889D01*
X24687243Y-25395360D01*
X24701079Y-25360199D01*
X24709491Y-25308510D01*
X24713643Y-25237394D01*
X24714703Y-25149342D01*
X24714703Y-24953614D01*
X24853020Y-24953614D01*
X24853020Y-25557179D01*
X24783862Y-25557179D01*
X24742170Y-25555489D01*
X24720701Y-25549556D01*
X24714703Y-25538293D01*
X24711091Y-25528261D01*
X24696714Y-25530383D01*
X24667736Y-25544580D01*
X24601319Y-25566480D01*
X24530875Y-25564928D01*
X24463377Y-25541147D01*
X24431233Y-25522362D01*
X24406715Y-25502022D01*
X24388804Y-25476573D01*
X24376479Y-25442458D01*
X24368723Y-25396121D01*
X24364516Y-25334007D01*
X24362840Y-25252561D01*
X24362624Y-25189578D01*
X24362624Y-24953614D01*
X24488367Y-24953614D01*
X24488367Y-25149342D01*
X24488367Y-25149342D01*
G37*
X24488367Y-25149342D02*
X24489555Y-25241563D01*
X24493897Y-25311610D01*
X24502558Y-25362381D01*
X24516704Y-25396772D01*
X24537500Y-25417679D01*
X24566110Y-25428000D01*
X24601535Y-25430636D01*
X24638636Y-25427682D01*
X24666818Y-25416889D01*
X24687243Y-25395360D01*
X24701079Y-25360199D01*
X24709491Y-25308510D01*
X24713643Y-25237394D01*
X24714703Y-25149342D01*
X24714703Y-24953614D01*
X24853020Y-24953614D01*
X24853020Y-25557179D01*
X24783862Y-25557179D01*
X24742170Y-25555489D01*
X24720701Y-25549556D01*
X24714703Y-25538293D01*
X24711091Y-25528261D01*
X24696714Y-25530383D01*
X24667736Y-25544580D01*
X24601319Y-25566480D01*
X24530875Y-25564928D01*
X24463377Y-25541147D01*
X24431233Y-25522362D01*
X24406715Y-25502022D01*
X24388804Y-25476573D01*
X24376479Y-25442458D01*
X24368723Y-25396121D01*
X24364516Y-25334007D01*
X24362840Y-25252561D01*
X24362624Y-25189578D01*
X24362624Y-24953614D01*
X24488367Y-24953614D01*
X24488367Y-25149342D01*
G36*
X24105762Y-24961055D02*
X24169363Y-24995692D01*
X24219123Y-25050372D01*
X24242568Y-25094842D01*
X24252634Y-25134121D01*
X24259156Y-25190116D01*
X24261951Y-25254621D01*
X24260836Y-25319429D01*
X24255626Y-25376334D01*
X24249541Y-25406727D01*
X24229014Y-25448306D01*
X24193463Y-25492468D01*
X24150619Y-25531087D01*
X24108211Y-25556034D01*
X24107177Y-25556430D01*
X24054553Y-25567331D01*
X23992188Y-25567601D01*
X23932924Y-25557676D01*
X23910040Y-25549722D01*
X23851102Y-25516300D01*
X23808890Y-25472511D01*
X23781156Y-25414538D01*
X23765651Y-25338565D01*
X23762143Y-25298771D01*
X23762590Y-25248766D01*
X23897376Y-25248766D01*
X23901917Y-25321732D01*
X23914986Y-25377334D01*
X23935756Y-25412861D01*
X23950552Y-25423020D01*
X23988464Y-25430104D01*
X24033527Y-25428007D01*
X24072487Y-25417812D01*
X24082704Y-25412204D01*
X24109659Y-25379538D01*
X24127451Y-25329545D01*
X24135024Y-25268705D01*
X24131325Y-25203497D01*
X24123057Y-25164253D01*
X24099320Y-25118805D01*
X24061849Y-25090396D01*
X24016720Y-25080573D01*
X23970011Y-25090887D01*
X23934132Y-25116112D01*
X23915277Y-25136925D01*
X23904272Y-25157439D01*
X23899026Y-25185203D01*
X23897449Y-25227762D01*
X23897376Y-25248766D01*
X23762590Y-25248766D01*
X23763094Y-25192580D01*
X23780388Y-25105501D01*
X23814029Y-25037530D01*
X23864018Y-24988664D01*
X23930356Y-24958899D01*
X23944601Y-24955448D01*
X24030210Y-24947345D01*
X24105762Y-24961055D01*
X24105762Y-24961055D01*
G37*
X24105762Y-24961055D02*
X24169363Y-24995692D01*
X24219123Y-25050372D01*
X24242568Y-25094842D01*
X24252634Y-25134121D01*
X24259156Y-25190116D01*
X24261951Y-25254621D01*
X24260836Y-25319429D01*
X24255626Y-25376334D01*
X24249541Y-25406727D01*
X24229014Y-25448306D01*
X24193463Y-25492468D01*
X24150619Y-25531087D01*
X24108211Y-25556034D01*
X24107177Y-25556430D01*
X24054553Y-25567331D01*
X23992188Y-25567601D01*
X23932924Y-25557676D01*
X23910040Y-25549722D01*
X23851102Y-25516300D01*
X23808890Y-25472511D01*
X23781156Y-25414538D01*
X23765651Y-25338565D01*
X23762143Y-25298771D01*
X23762590Y-25248766D01*
X23897376Y-25248766D01*
X23901917Y-25321732D01*
X23914986Y-25377334D01*
X23935756Y-25412861D01*
X23950552Y-25423020D01*
X23988464Y-25430104D01*
X24033527Y-25428007D01*
X24072487Y-25417812D01*
X24082704Y-25412204D01*
X24109659Y-25379538D01*
X24127451Y-25329545D01*
X24135024Y-25268705D01*
X24131325Y-25203497D01*
X24123057Y-25164253D01*
X24099320Y-25118805D01*
X24061849Y-25090396D01*
X24016720Y-25080573D01*
X23970011Y-25090887D01*
X23934132Y-25116112D01*
X23915277Y-25136925D01*
X23904272Y-25157439D01*
X23899026Y-25185203D01*
X23897449Y-25227762D01*
X23897376Y-25248766D01*
X23762590Y-25248766D01*
X23763094Y-25192580D01*
X23780388Y-25105501D01*
X23814029Y-25037530D01*
X23864018Y-24988664D01*
X23930356Y-24958899D01*
X23944601Y-24955448D01*
X24030210Y-24947345D01*
X24105762Y-24961055D01*
G36*
X23509017Y-24951452D02*
X23556634Y-24960482D01*
X23606034Y-24979370D01*
X23611312Y-24981777D01*
X23648774Y-25001476D01*
X23674717Y-25019781D01*
X23683103Y-25031508D01*
X23675117Y-25050632D01*
X23655720Y-25078850D01*
X23647110Y-25089384D01*
X23611628Y-25130847D01*
X23565885Y-25103858D01*
X23522350Y-25085878D01*
X23472050Y-25076267D01*
X23423812Y-25075660D01*
X23386467Y-25084691D01*
X23377505Y-25090327D01*
X23360437Y-25116171D01*
X23358363Y-25145941D01*
X23371134Y-25169197D01*
X23378688Y-25173708D01*
X23401325Y-25179309D01*
X23441115Y-25185892D01*
X23490166Y-25192183D01*
X23499215Y-25193170D01*
X23577996Y-25206798D01*
X23635136Y-25229946D01*
X23673030Y-25264752D01*
X23694079Y-25313354D01*
X23700635Y-25372718D01*
X23691577Y-25440198D01*
X23662164Y-25493188D01*
X23612278Y-25531783D01*
X23541800Y-25556081D01*
X23463565Y-25565667D01*
X23399766Y-25565552D01*
X23348016Y-25556845D01*
X23312673Y-25544825D01*
X23268017Y-25523880D01*
X23226747Y-25499574D01*
X23212079Y-25488876D01*
X23174357Y-25458084D01*
X23219852Y-25412049D01*
X23265347Y-25366013D01*
X23317072Y-25400243D01*
X23368952Y-25425952D01*
X23424351Y-25439399D01*
X23477605Y-25440818D01*
X23523049Y-25430443D01*
X23555016Y-25408507D01*
X23565338Y-25389998D01*
X23563789Y-25360314D01*
X23538140Y-25337615D01*
X23488460Y-25321940D01*
X23434031Y-25314695D01*
X23350264Y-25300873D01*
X23288033Y-25274796D01*
X23246507Y-25235699D01*
X23224853Y-25182820D01*
X23221853Y-25120126D01*
X23236671Y-25054642D01*
X23270454Y-25005144D01*
X23323505Y-24971408D01*
X23396126Y-24953207D01*
X23449928Y-24949639D01*
X23509017Y-24951452D01*
X23509017Y-24951452D01*
G37*
X23509017Y-24951452D02*
X23556634Y-24960482D01*
X23606034Y-24979370D01*
X23611312Y-24981777D01*
X23648774Y-25001476D01*
X23674717Y-25019781D01*
X23683103Y-25031508D01*
X23675117Y-25050632D01*
X23655720Y-25078850D01*
X23647110Y-25089384D01*
X23611628Y-25130847D01*
X23565885Y-25103858D01*
X23522350Y-25085878D01*
X23472050Y-25076267D01*
X23423812Y-25075660D01*
X23386467Y-25084691D01*
X23377505Y-25090327D01*
X23360437Y-25116171D01*
X23358363Y-25145941D01*
X23371134Y-25169197D01*
X23378688Y-25173708D01*
X23401325Y-25179309D01*
X23441115Y-25185892D01*
X23490166Y-25192183D01*
X23499215Y-25193170D01*
X23577996Y-25206798D01*
X23635136Y-25229946D01*
X23673030Y-25264752D01*
X23694079Y-25313354D01*
X23700635Y-25372718D01*
X23691577Y-25440198D01*
X23662164Y-25493188D01*
X23612278Y-25531783D01*
X23541800Y-25556081D01*
X23463565Y-25565667D01*
X23399766Y-25565552D01*
X23348016Y-25556845D01*
X23312673Y-25544825D01*
X23268017Y-25523880D01*
X23226747Y-25499574D01*
X23212079Y-25488876D01*
X23174357Y-25458084D01*
X23219852Y-25412049D01*
X23265347Y-25366013D01*
X23317072Y-25400243D01*
X23368952Y-25425952D01*
X23424351Y-25439399D01*
X23477605Y-25440818D01*
X23523049Y-25430443D01*
X23555016Y-25408507D01*
X23565338Y-25389998D01*
X23563789Y-25360314D01*
X23538140Y-25337615D01*
X23488460Y-25321940D01*
X23434031Y-25314695D01*
X23350264Y-25300873D01*
X23288033Y-25274796D01*
X23246507Y-25235699D01*
X23224853Y-25182820D01*
X23221853Y-25120126D01*
X23236671Y-25054642D01*
X23270454Y-25005144D01*
X23323505Y-24971408D01*
X23396126Y-24953207D01*
X23449928Y-24949639D01*
X23509017Y-24951452D01*
G36*
X22138301Y-24967614D02*
X22150832Y-24973514D01*
X22194201Y-25005283D01*
X22235210Y-25051646D01*
X22265832Y-25102696D01*
X22274541Y-25126166D01*
X22282488Y-25168091D01*
X22287226Y-25218757D01*
X22287801Y-25239679D01*
X22287871Y-25305693D01*
X21907917Y-25305693D01*
X21916017Y-25340273D01*
X21935896Y-25381170D01*
X21970653Y-25416514D01*
X22012002Y-25439282D01*
X22038351Y-25444010D01*
X22074084Y-25438273D01*
X22116718Y-25423882D01*
X22131201Y-25417262D01*
X22184760Y-25390513D01*
X22230467Y-25425376D01*
X22256842Y-25448955D01*
X22270876Y-25468417D01*
X22271586Y-25474129D01*
X22259049Y-25487973D01*
X22231572Y-25509012D01*
X22206634Y-25525425D01*
X22139336Y-25554930D01*
X22063890Y-25568284D01*
X21989112Y-25564812D01*
X21929505Y-25546663D01*
X21868059Y-25507784D01*
X21824392Y-25456595D01*
X21797074Y-25390367D01*
X21784678Y-25306371D01*
X21783579Y-25267936D01*
X21787978Y-25179861D01*
X21788518Y-25177299D01*
X21914418Y-25177299D01*
X21917885Y-25185558D01*
X21932137Y-25190113D01*
X21961530Y-25192065D01*
X22010425Y-25192517D01*
X22029252Y-25192525D01*
X22086533Y-25191843D01*
X22122859Y-25189364D01*
X22142396Y-25184443D01*
X22149310Y-25176434D01*
X22149555Y-25173862D01*
X22141664Y-25153423D01*
X22121915Y-25124789D01*
X22113425Y-25114763D01*
X22081906Y-25086408D01*
X22049051Y-25075259D01*
X22031349Y-25074327D01*
X21983461Y-25085981D01*
X21943301Y-25117285D01*
X21917827Y-25162752D01*
X21917375Y-25164233D01*
X21914418Y-25177299D01*
X21788518Y-25177299D01*
X21802608Y-25110510D01*
X21828962Y-25055025D01*
X21861193Y-25015639D01*
X21920783Y-24972931D01*
X21990832Y-24950109D01*
X22065339Y-24948046D01*
X22138301Y-24967614D01*
X22138301Y-24967614D01*
G37*
X22138301Y-24967614D02*
X22150832Y-24973514D01*
X22194201Y-25005283D01*
X22235210Y-25051646D01*
X22265832Y-25102696D01*
X22274541Y-25126166D01*
X22282488Y-25168091D01*
X22287226Y-25218757D01*
X22287801Y-25239679D01*
X22287871Y-25305693D01*
X21907917Y-25305693D01*
X21916017Y-25340273D01*
X21935896Y-25381170D01*
X21970653Y-25416514D01*
X22012002Y-25439282D01*
X22038351Y-25444010D01*
X22074084Y-25438273D01*
X22116718Y-25423882D01*
X22131201Y-25417262D01*
X22184760Y-25390513D01*
X22230467Y-25425376D01*
X22256842Y-25448955D01*
X22270876Y-25468417D01*
X22271586Y-25474129D01*
X22259049Y-25487973D01*
X22231572Y-25509012D01*
X22206634Y-25525425D01*
X22139336Y-25554930D01*
X22063890Y-25568284D01*
X21989112Y-25564812D01*
X21929505Y-25546663D01*
X21868059Y-25507784D01*
X21824392Y-25456595D01*
X21797074Y-25390367D01*
X21784678Y-25306371D01*
X21783579Y-25267936D01*
X21787978Y-25179861D01*
X21788518Y-25177299D01*
X21914418Y-25177299D01*
X21917885Y-25185558D01*
X21932137Y-25190113D01*
X21961530Y-25192065D01*
X22010425Y-25192517D01*
X22029252Y-25192525D01*
X22086533Y-25191843D01*
X22122859Y-25189364D01*
X22142396Y-25184443D01*
X22149310Y-25176434D01*
X22149555Y-25173862D01*
X22141664Y-25153423D01*
X22121915Y-25124789D01*
X22113425Y-25114763D01*
X22081906Y-25086408D01*
X22049051Y-25075259D01*
X22031349Y-25074327D01*
X21983461Y-25085981D01*
X21943301Y-25117285D01*
X21917827Y-25162752D01*
X21917375Y-25164233D01*
X21914418Y-25177299D01*
X21788518Y-25177299D01*
X21802608Y-25110510D01*
X21828962Y-25055025D01*
X21861193Y-25015639D01*
X21920783Y-24972931D01*
X21990832Y-24950109D01*
X22065339Y-24948046D01*
X22138301Y-24967614D01*
G36*
X20956739Y-24960148D02*
X21022521Y-24989231D01*
X21072460Y-25037793D01*
X21106626Y-25105908D01*
X21125093Y-25193651D01*
X21126417Y-25207351D01*
X21127454Y-25303939D01*
X21114007Y-25388602D01*
X21086892Y-25457221D01*
X21072373Y-25479294D01*
X21021799Y-25526011D01*
X20957391Y-25556268D01*
X20885334Y-25568824D01*
X20811815Y-25562439D01*
X20755928Y-25542772D01*
X20707868Y-25509629D01*
X20668588Y-25466175D01*
X20667908Y-25465158D01*
X20651956Y-25438338D01*
X20641590Y-25411368D01*
X20635312Y-25377332D01*
X20631627Y-25329310D01*
X20630003Y-25289931D01*
X20629328Y-25254219D01*
X20755045Y-25254219D01*
X20756274Y-25289770D01*
X20760734Y-25337094D01*
X20768603Y-25367465D01*
X20782793Y-25389072D01*
X20796083Y-25401694D01*
X20843198Y-25428122D01*
X20892495Y-25431653D01*
X20938407Y-25412639D01*
X20961362Y-25391331D01*
X20977904Y-25369859D01*
X20987579Y-25349313D01*
X20991826Y-25322574D01*
X20992080Y-25282523D01*
X20990772Y-25245638D01*
X20987957Y-25192947D01*
X20983495Y-25158772D01*
X20975452Y-25136480D01*
X20961897Y-25119442D01*
X20951155Y-25109703D01*
X20906223Y-25084123D01*
X20857751Y-25082847D01*
X20817106Y-25097999D01*
X20782433Y-25129642D01*
X20761776Y-25181620D01*
X20755045Y-25254219D01*
X20629328Y-25254219D01*
X20628521Y-25211621D01*
X20631052Y-25153056D01*
X20638638Y-25109007D01*
X20652319Y-25074248D01*
X20673135Y-25043551D01*
X20680853Y-25034436D01*
X20729111Y-24989021D01*
X20780872Y-24962493D01*
X20844172Y-24951379D01*
X20875039Y-24950471D01*
X20956739Y-24960148D01*
X20956739Y-24960148D01*
G37*
X20956739Y-24960148D02*
X21022521Y-24989231D01*
X21072460Y-25037793D01*
X21106626Y-25105908D01*
X21125093Y-25193651D01*
X21126417Y-25207351D01*
X21127454Y-25303939D01*
X21114007Y-25388602D01*
X21086892Y-25457221D01*
X21072373Y-25479294D01*
X21021799Y-25526011D01*
X20957391Y-25556268D01*
X20885334Y-25568824D01*
X20811815Y-25562439D01*
X20755928Y-25542772D01*
X20707868Y-25509629D01*
X20668588Y-25466175D01*
X20667908Y-25465158D01*
X20651956Y-25438338D01*
X20641590Y-25411368D01*
X20635312Y-25377332D01*
X20631627Y-25329310D01*
X20630003Y-25289931D01*
X20629328Y-25254219D01*
X20755045Y-25254219D01*
X20756274Y-25289770D01*
X20760734Y-25337094D01*
X20768603Y-25367465D01*
X20782793Y-25389072D01*
X20796083Y-25401694D01*
X20843198Y-25428122D01*
X20892495Y-25431653D01*
X20938407Y-25412639D01*
X20961362Y-25391331D01*
X20977904Y-25369859D01*
X20987579Y-25349313D01*
X20991826Y-25322574D01*
X20992080Y-25282523D01*
X20990772Y-25245638D01*
X20987957Y-25192947D01*
X20983495Y-25158772D01*
X20975452Y-25136480D01*
X20961897Y-25119442D01*
X20951155Y-25109703D01*
X20906223Y-25084123D01*
X20857751Y-25082847D01*
X20817106Y-25097999D01*
X20782433Y-25129642D01*
X20761776Y-25181620D01*
X20755045Y-25254219D01*
X20629328Y-25254219D01*
X20628521Y-25211621D01*
X20631052Y-25153056D01*
X20638638Y-25109007D01*
X20652319Y-25074248D01*
X20673135Y-25043551D01*
X20680853Y-25034436D01*
X20729111Y-24989021D01*
X20780872Y-24962493D01*
X20844172Y-24951379D01*
X20875039Y-24950471D01*
X20956739Y-24960148D01*
G36*
X25527581Y-25899970D02*
X25587685Y-25915597D01*
X25638021Y-25947848D01*
X25662393Y-25971940D01*
X25702345Y-26028895D01*
X25725242Y-26094965D01*
X25733108Y-26176182D01*
X25733148Y-26182748D01*
X25733218Y-26248763D01*
X25353264Y-26248763D01*
X25361363Y-26283342D01*
X25375987Y-26314659D01*
X25401581Y-26347291D01*
X25406935Y-26352500D01*
X25452943Y-26380694D01*
X25505410Y-26385475D01*
X25565803Y-26366926D01*
X25576040Y-26361931D01*
X25607439Y-26346745D01*
X25628470Y-26338094D01*
X25632139Y-26337293D01*
X25644948Y-26345063D01*
X25669378Y-26364072D01*
X25681779Y-26374460D01*
X25707476Y-26398321D01*
X25715915Y-26414077D01*
X25710058Y-26428571D01*
X25706928Y-26432534D01*
X25685725Y-26449879D01*
X25650738Y-26470959D01*
X25626337Y-26483265D01*
X25557072Y-26504946D01*
X25480388Y-26511971D01*
X25407765Y-26503647D01*
X25387426Y-26497686D01*
X25324476Y-26463952D01*
X25277815Y-26412045D01*
X25247173Y-26341459D01*
X25232282Y-26251692D01*
X25230647Y-26204753D01*
X25235421Y-26136413D01*
X25355990Y-26136413D01*
X25367652Y-26141465D01*
X25398998Y-26145429D01*
X25444571Y-26147768D01*
X25475446Y-26148169D01*
X25530981Y-26147783D01*
X25566033Y-26145975D01*
X25585262Y-26141773D01*
X25593330Y-26134203D01*
X25594901Y-26123218D01*
X25584121Y-26089381D01*
X25556980Y-26055940D01*
X25521277Y-26030272D01*
X25485560Y-26019772D01*
X25437048Y-26029086D01*
X25395053Y-26056013D01*
X25365936Y-26094827D01*
X25355990Y-26136413D01*
X25235421Y-26136413D01*
X25237599Y-26105236D01*
X25259055Y-26025949D01*
X25295470Y-25966263D01*
X25347297Y-25925549D01*
X25414990Y-25903179D01*
X25451662Y-25898871D01*
X25527581Y-25899970D01*
X25527581Y-25899970D01*
G37*
X25527581Y-25899970D02*
X25587685Y-25915597D01*
X25638021Y-25947848D01*
X25662393Y-25971940D01*
X25702345Y-26028895D01*
X25725242Y-26094965D01*
X25733108Y-26176182D01*
X25733148Y-26182748D01*
X25733218Y-26248763D01*
X25353264Y-26248763D01*
X25361363Y-26283342D01*
X25375987Y-26314659D01*
X25401581Y-26347291D01*
X25406935Y-26352500D01*
X25452943Y-26380694D01*
X25505410Y-26385475D01*
X25565803Y-26366926D01*
X25576040Y-26361931D01*
X25607439Y-26346745D01*
X25628470Y-26338094D01*
X25632139Y-26337293D01*
X25644948Y-26345063D01*
X25669378Y-26364072D01*
X25681779Y-26374460D01*
X25707476Y-26398321D01*
X25715915Y-26414077D01*
X25710058Y-26428571D01*
X25706928Y-26432534D01*
X25685725Y-26449879D01*
X25650738Y-26470959D01*
X25626337Y-26483265D01*
X25557072Y-26504946D01*
X25480388Y-26511971D01*
X25407765Y-26503647D01*
X25387426Y-26497686D01*
X25324476Y-26463952D01*
X25277815Y-26412045D01*
X25247173Y-26341459D01*
X25232282Y-26251692D01*
X25230647Y-26204753D01*
X25235421Y-26136413D01*
X25355990Y-26136413D01*
X25367652Y-26141465D01*
X25398998Y-26145429D01*
X25444571Y-26147768D01*
X25475446Y-26148169D01*
X25530981Y-26147783D01*
X25566033Y-26145975D01*
X25585262Y-26141773D01*
X25593330Y-26134203D01*
X25594901Y-26123218D01*
X25584121Y-26089381D01*
X25556980Y-26055940D01*
X25521277Y-26030272D01*
X25485560Y-26019772D01*
X25437048Y-26029086D01*
X25395053Y-26056013D01*
X25365936Y-26094827D01*
X25355990Y-26136413D01*
X25235421Y-26136413D01*
X25237599Y-26105236D01*
X25259055Y-26025949D01*
X25295470Y-25966263D01*
X25347297Y-25925549D01*
X25414990Y-25903179D01*
X25451662Y-25898871D01*
X25527581Y-25899970D01*
G36*
X25130255Y-25896486D02*
X25178595Y-25906015D01*
X25206114Y-25920125D01*
X25235064Y-25943568D01*
X25193876Y-25995571D01*
X25168482Y-26027064D01*
X25151238Y-26042428D01*
X25134102Y-26044776D01*
X25109027Y-26037217D01*
X25097257Y-26032941D01*
X25049270Y-26026631D01*
X25005324Y-26040156D01*
X24973060Y-26070710D01*
X24967819Y-26080452D01*
X24962112Y-26106258D01*
X24957706Y-26153817D01*
X24954811Y-26219758D01*
X24953631Y-26300710D01*
X24953614Y-26312226D01*
X24953614Y-26512822D01*
X24815297Y-26512822D01*
X24815297Y-25896683D01*
X24884456Y-25896683D01*
X24924333Y-25897725D01*
X24945107Y-25902358D01*
X24952789Y-25912849D01*
X24953614Y-25922745D01*
X24953614Y-25948806D01*
X24986745Y-25922745D01*
X25024735Y-25904965D01*
X25075770Y-25896174D01*
X25130255Y-25896486D01*
X25130255Y-25896486D01*
G37*
X25130255Y-25896486D02*
X25178595Y-25906015D01*
X25206114Y-25920125D01*
X25235064Y-25943568D01*
X25193876Y-25995571D01*
X25168482Y-26027064D01*
X25151238Y-26042428D01*
X25134102Y-26044776D01*
X25109027Y-26037217D01*
X25097257Y-26032941D01*
X25049270Y-26026631D01*
X25005324Y-26040156D01*
X24973060Y-26070710D01*
X24967819Y-26080452D01*
X24962112Y-26106258D01*
X24957706Y-26153817D01*
X24954811Y-26219758D01*
X24953631Y-26300710D01*
X24953614Y-26312226D01*
X24953614Y-26512822D01*
X24815297Y-26512822D01*
X24815297Y-25896683D01*
X24884456Y-25896683D01*
X24924333Y-25897725D01*
X24945107Y-25902358D01*
X24952789Y-25912849D01*
X24953614Y-25922745D01*
X24953614Y-25948806D01*
X24986745Y-25922745D01*
X25024735Y-25904965D01*
X25075770Y-25896174D01*
X25130255Y-25896486D01*
G36*
X24533411Y-25900417D02*
X24586411Y-25913290D01*
X24601731Y-25920110D01*
X24631428Y-25937974D01*
X24654220Y-25958093D01*
X24671083Y-25983962D01*
X24682998Y-26019073D01*
X24690942Y-26066920D01*
X24695894Y-26130996D01*
X24698831Y-26214794D01*
X24699947Y-26270768D01*
X24704052Y-26512822D01*
X24633932Y-26512822D01*
X24591393Y-26511038D01*
X24569476Y-26504942D01*
X24563812Y-26494706D01*
X24560821Y-26483637D01*
X24547451Y-26485754D01*
X24529233Y-26494629D01*
X24483624Y-26508233D01*
X24425007Y-26511899D01*
X24363354Y-26505903D01*
X24308638Y-26490521D01*
X24303730Y-26488386D01*
X24253723Y-26453255D01*
X24220756Y-26404419D01*
X24205587Y-26347333D01*
X24206746Y-26326824D01*
X24330508Y-26326824D01*
X24341413Y-26354425D01*
X24373745Y-26374204D01*
X24425910Y-26384819D01*
X24453787Y-26386228D01*
X24500247Y-26382620D01*
X24531129Y-26368597D01*
X24538664Y-26361931D01*
X24559076Y-26325666D01*
X24563812Y-26292773D01*
X24563812Y-26248763D01*
X24502513Y-26248763D01*
X24431256Y-26252395D01*
X24381276Y-26263818D01*
X24349696Y-26283824D01*
X24342626Y-26292743D01*
X24330508Y-26326824D01*
X24206746Y-26326824D01*
X24208971Y-26287456D01*
X24231663Y-26230244D01*
X24262624Y-26191580D01*
X24281376Y-26174864D01*
X24299733Y-26163878D01*
X24323619Y-26157180D01*
X24358957Y-26153326D01*
X24411669Y-26150873D01*
X24432577Y-26150168D01*
X24563812Y-26145879D01*
X24563620Y-26106158D01*
X24558537Y-26064405D01*
X24540162Y-26039158D01*
X24503039Y-26023030D01*
X24502043Y-26022742D01*
X24449410Y-26016400D01*
X24397906Y-26024684D01*
X24359630Y-26044827D01*
X24344272Y-26054773D01*
X24327730Y-26053397D01*
X24302275Y-26038987D01*
X24287328Y-26028817D01*
X24258091Y-26007088D01*
X24239980Y-25990800D01*
X24237074Y-25986137D01*
X24249040Y-25962005D01*
X24284396Y-25933185D01*
X24299753Y-25923461D01*
X24343901Y-25906714D01*
X24403398Y-25897227D01*
X24469487Y-25895095D01*
X24533411Y-25900417D01*
X24533411Y-25900417D01*
G37*
X24533411Y-25900417D02*
X24586411Y-25913290D01*
X24601731Y-25920110D01*
X24631428Y-25937974D01*
X24654220Y-25958093D01*
X24671083Y-25983962D01*
X24682998Y-26019073D01*
X24690942Y-26066920D01*
X24695894Y-26130996D01*
X24698831Y-26214794D01*
X24699947Y-26270768D01*
X24704052Y-26512822D01*
X24633932Y-26512822D01*
X24591393Y-26511038D01*
X24569476Y-26504942D01*
X24563812Y-26494706D01*
X24560821Y-26483637D01*
X24547451Y-26485754D01*
X24529233Y-26494629D01*
X24483624Y-26508233D01*
X24425007Y-26511899D01*
X24363354Y-26505903D01*
X24308638Y-26490521D01*
X24303730Y-26488386D01*
X24253723Y-26453255D01*
X24220756Y-26404419D01*
X24205587Y-26347333D01*
X24206746Y-26326824D01*
X24330508Y-26326824D01*
X24341413Y-26354425D01*
X24373745Y-26374204D01*
X24425910Y-26384819D01*
X24453787Y-26386228D01*
X24500247Y-26382620D01*
X24531129Y-26368597D01*
X24538664Y-26361931D01*
X24559076Y-26325666D01*
X24563812Y-26292773D01*
X24563812Y-26248763D01*
X24502513Y-26248763D01*
X24431256Y-26252395D01*
X24381276Y-26263818D01*
X24349696Y-26283824D01*
X24342626Y-26292743D01*
X24330508Y-26326824D01*
X24206746Y-26326824D01*
X24208971Y-26287456D01*
X24231663Y-26230244D01*
X24262624Y-26191580D01*
X24281376Y-26174864D01*
X24299733Y-26163878D01*
X24323619Y-26157180D01*
X24358957Y-26153326D01*
X24411669Y-26150873D01*
X24432577Y-26150168D01*
X24563812Y-26145879D01*
X24563620Y-26106158D01*
X24558537Y-26064405D01*
X24540162Y-26039158D01*
X24503039Y-26023030D01*
X24502043Y-26022742D01*
X24449410Y-26016400D01*
X24397906Y-26024684D01*
X24359630Y-26044827D01*
X24344272Y-26054773D01*
X24327730Y-26053397D01*
X24302275Y-26038987D01*
X24287328Y-26028817D01*
X24258091Y-26007088D01*
X24239980Y-25990800D01*
X24237074Y-25986137D01*
X24249040Y-25962005D01*
X24284396Y-25933185D01*
X24299753Y-25923461D01*
X24343901Y-25906714D01*
X24403398Y-25897227D01*
X24469487Y-25895095D01*
X24533411Y-25900417D01*
G36*
X23776524Y-25899237D02*
X23826255Y-25902971D01*
X23956291Y-26292773D01*
X23976678Y-26223614D01*
X23988946Y-26180874D01*
X24005085Y-26123115D01*
X24022512Y-26059625D01*
X24031726Y-26025570D01*
X24066388Y-25896683D01*
X24209391Y-25896683D01*
X24166646Y-26031857D01*
X24145596Y-26098342D01*
X24120167Y-26178539D01*
X24093610Y-26262193D01*
X24069902Y-26336782D01*
X24015902Y-26506535D01*
X23957598Y-26510328D01*
X23899295Y-26514122D01*
X23867679Y-26409734D01*
X23848182Y-26344889D01*
X23826904Y-26273400D01*
X23808308Y-26210263D01*
X23807574Y-26207750D01*
X23793684Y-26164969D01*
X23781429Y-26135779D01*
X23772846Y-26124741D01*
X23771082Y-26126018D01*
X23764891Y-26143130D01*
X23753128Y-26179787D01*
X23737225Y-26231378D01*
X23718614Y-26293294D01*
X23708543Y-26327352D01*
X23654007Y-26512822D01*
X23538264Y-26512822D01*
X23445737Y-26220471D01*
X23419744Y-26138462D01*
X23396066Y-26063987D01*
X23375820Y-26000544D01*
X23360126Y-25951632D01*
X23350102Y-25920749D01*
X23347055Y-25911726D01*
X23349467Y-25902487D01*
X23368408Y-25898441D01*
X23407823Y-25898846D01*
X23413993Y-25899152D01*
X23487086Y-25902971D01*
X23534957Y-26079010D01*
X23552553Y-26143211D01*
X23568277Y-26199649D01*
X23580746Y-26243422D01*
X23588574Y-26269630D01*
X23590020Y-26273903D01*
X23596014Y-26268990D01*
X23608101Y-26243532D01*
X23624893Y-26200997D01*
X23645003Y-26144850D01*
X23662003Y-26094130D01*
X23726794Y-25895504D01*
X23776524Y-25899237D01*
X23776524Y-25899237D01*
G37*
X23776524Y-25899237D02*
X23826255Y-25902971D01*
X23956291Y-26292773D01*
X23976678Y-26223614D01*
X23988946Y-26180874D01*
X24005085Y-26123115D01*
X24022512Y-26059625D01*
X24031726Y-26025570D01*
X24066388Y-25896683D01*
X24209391Y-25896683D01*
X24166646Y-26031857D01*
X24145596Y-26098342D01*
X24120167Y-26178539D01*
X24093610Y-26262193D01*
X24069902Y-26336782D01*
X24015902Y-26506535D01*
X23957598Y-26510328D01*
X23899295Y-26514122D01*
X23867679Y-26409734D01*
X23848182Y-26344889D01*
X23826904Y-26273400D01*
X23808308Y-26210263D01*
X23807574Y-26207750D01*
X23793684Y-26164969D01*
X23781429Y-26135779D01*
X23772846Y-26124741D01*
X23771082Y-26126018D01*
X23764891Y-26143130D01*
X23753128Y-26179787D01*
X23737225Y-26231378D01*
X23718614Y-26293294D01*
X23708543Y-26327352D01*
X23654007Y-26512822D01*
X23538264Y-26512822D01*
X23445737Y-26220471D01*
X23419744Y-26138462D01*
X23396066Y-26063987D01*
X23375820Y-26000544D01*
X23360126Y-25951632D01*
X23350102Y-25920749D01*
X23347055Y-25911726D01*
X23349467Y-25902487D01*
X23368408Y-25898441D01*
X23407823Y-25898846D01*
X23413993Y-25899152D01*
X23487086Y-25902971D01*
X23534957Y-26079010D01*
X23552553Y-26143211D01*
X23568277Y-26199649D01*
X23580746Y-26243422D01*
X23588574Y-26269630D01*
X23590020Y-26273903D01*
X23596014Y-26268990D01*
X23608101Y-26243532D01*
X23624893Y-26200997D01*
X23645003Y-26144850D01*
X23662003Y-26094130D01*
X23726794Y-25895504D01*
X23776524Y-25899237D01*
G36*
X23293812Y-26512822D02*
X23224654Y-26512822D01*
X23184512Y-26511645D01*
X23163606Y-26506772D01*
X23156078Y-26496186D01*
X23155495Y-26489029D01*
X23154226Y-26474676D01*
X23146221Y-26471923D01*
X23125185Y-26480771D01*
X23108827Y-26489029D01*
X23046023Y-26508597D01*
X22977752Y-26509729D01*
X22922248Y-26495135D01*
X22870562Y-26459877D01*
X22831162Y-26407835D01*
X22809587Y-26346450D01*
X22809038Y-26343018D01*
X22805833Y-26305571D01*
X22804239Y-26251813D01*
X22804367Y-26211155D01*
X22941721Y-26211155D01*
X22944903Y-26265194D01*
X22952141Y-26309735D01*
X22961940Y-26334888D01*
X22999011Y-26369260D01*
X23043026Y-26381582D01*
X23088416Y-26371618D01*
X23127203Y-26341895D01*
X23141892Y-26321905D01*
X23150481Y-26298050D01*
X23154504Y-26263230D01*
X23155495Y-26210930D01*
X23153722Y-26159139D01*
X23149037Y-26113634D01*
X23142397Y-26083181D01*
X23141290Y-26080452D01*
X23114509Y-26048000D01*
X23075421Y-26030183D01*
X23031685Y-26027306D01*
X22990962Y-26039674D01*
X22960913Y-26067593D01*
X22957796Y-26073148D01*
X22948039Y-26107022D01*
X22942723Y-26155728D01*
X22941721Y-26211155D01*
X22804367Y-26211155D01*
X22804432Y-26190540D01*
X22805336Y-26157563D01*
X22811486Y-26075981D01*
X22824267Y-26014730D01*
X22845529Y-25969449D01*
X22877122Y-25935779D01*
X22907793Y-25916014D01*
X22950646Y-25902120D01*
X23003944Y-25897354D01*
X23058520Y-25901236D01*
X23105208Y-25913282D01*
X23129876Y-25927693D01*
X23155495Y-25950878D01*
X23155495Y-25657773D01*
X23293812Y-25657773D01*
X23293812Y-26512822D01*
X23293812Y-26512822D01*
G37*
X23293812Y-26512822D02*
X23224654Y-26512822D01*
X23184512Y-26511645D01*
X23163606Y-26506772D01*
X23156078Y-26496186D01*
X23155495Y-26489029D01*
X23154226Y-26474676D01*
X23146221Y-26471923D01*
X23125185Y-26480771D01*
X23108827Y-26489029D01*
X23046023Y-26508597D01*
X22977752Y-26509729D01*
X22922248Y-26495135D01*
X22870562Y-26459877D01*
X22831162Y-26407835D01*
X22809587Y-26346450D01*
X22809038Y-26343018D01*
X22805833Y-26305571D01*
X22804239Y-26251813D01*
X22804367Y-26211155D01*
X22941721Y-26211155D01*
X22944903Y-26265194D01*
X22952141Y-26309735D01*
X22961940Y-26334888D01*
X22999011Y-26369260D01*
X23043026Y-26381582D01*
X23088416Y-26371618D01*
X23127203Y-26341895D01*
X23141892Y-26321905D01*
X23150481Y-26298050D01*
X23154504Y-26263230D01*
X23155495Y-26210930D01*
X23153722Y-26159139D01*
X23149037Y-26113634D01*
X23142397Y-26083181D01*
X23141290Y-26080452D01*
X23114509Y-26048000D01*
X23075421Y-26030183D01*
X23031685Y-26027306D01*
X22990962Y-26039674D01*
X22960913Y-26067593D01*
X22957796Y-26073148D01*
X22948039Y-26107022D01*
X22942723Y-26155728D01*
X22941721Y-26211155D01*
X22804367Y-26211155D01*
X22804432Y-26190540D01*
X22805336Y-26157563D01*
X22811486Y-26075981D01*
X22824267Y-26014730D01*
X22845529Y-25969449D01*
X22877122Y-25935779D01*
X22907793Y-25916014D01*
X22950646Y-25902120D01*
X23003944Y-25897354D01*
X23058520Y-25901236D01*
X23105208Y-25913282D01*
X23129876Y-25927693D01*
X23155495Y-25950878D01*
X23155495Y-25657773D01*
X23293812Y-25657773D01*
X23293812Y-26512822D01*
G36*
X22501644Y-25898020D02*
X22520461Y-25903660D01*
X22526527Y-25916053D01*
X22526782Y-25921647D01*
X22527871Y-25937230D01*
X22535368Y-25939676D01*
X22555619Y-25928993D01*
X22567649Y-25921694D01*
X22605600Y-25906063D01*
X22650928Y-25898334D01*
X22698456Y-25897740D01*
X22743005Y-25903513D01*
X22779398Y-25914884D01*
X22802457Y-25931088D01*
X22807004Y-25951355D01*
X22804709Y-25956843D01*
X22787980Y-25979626D01*
X22762037Y-26007647D01*
X22757345Y-26012177D01*
X22732617Y-26033005D01*
X22711282Y-26039735D01*
X22681445Y-26035038D01*
X22669492Y-26031917D01*
X22632295Y-26024421D01*
X22606141Y-26027792D01*
X22584054Y-26039681D01*
X22563822Y-26055635D01*
X22548921Y-26075700D01*
X22538566Y-26103702D01*
X22531971Y-26143467D01*
X22528351Y-26198823D01*
X22526922Y-26273594D01*
X22526782Y-26318740D01*
X22526782Y-26512822D01*
X22401040Y-26512822D01*
X22401040Y-25896683D01*
X22463911Y-25896683D01*
X22501644Y-25898020D01*
X22501644Y-25898020D01*
G37*
X22501644Y-25898020D02*
X22520461Y-25903660D01*
X22526527Y-25916053D01*
X22526782Y-25921647D01*
X22527871Y-25937230D01*
X22535368Y-25939676D01*
X22555619Y-25928993D01*
X22567649Y-25921694D01*
X22605600Y-25906063D01*
X22650928Y-25898334D01*
X22698456Y-25897740D01*
X22743005Y-25903513D01*
X22779398Y-25914884D01*
X22802457Y-25931088D01*
X22807004Y-25951355D01*
X22804709Y-25956843D01*
X22787980Y-25979626D01*
X22762037Y-26007647D01*
X22757345Y-26012177D01*
X22732617Y-26033005D01*
X22711282Y-26039735D01*
X22681445Y-26035038D01*
X22669492Y-26031917D01*
X22632295Y-26024421D01*
X22606141Y-26027792D01*
X22584054Y-26039681D01*
X22563822Y-26055635D01*
X22548921Y-26075700D01*
X22538566Y-26103702D01*
X22531971Y-26143467D01*
X22528351Y-26198823D01*
X22526922Y-26273594D01*
X22526782Y-26318740D01*
X22526782Y-26512822D01*
X22401040Y-26512822D01*
X22401040Y-25896683D01*
X22463911Y-25896683D01*
X22501644Y-25898020D01*
G36*
X22110790Y-25901555D02*
X22169945Y-25917339D01*
X22214977Y-25945948D01*
X22246754Y-25983419D01*
X22256634Y-25999411D01*
X22263927Y-26016163D01*
X22269026Y-26037592D01*
X22272321Y-26067616D01*
X22274203Y-26110154D01*
X22275063Y-26169122D01*
X22275293Y-26248440D01*
X22275297Y-26269484D01*
X22275297Y-26512822D01*
X22214941Y-26512822D01*
X22176443Y-26510126D01*
X22147977Y-26503295D01*
X22140845Y-26499083D01*
X22121348Y-26491813D01*
X22101434Y-26499083D01*
X22068647Y-26508160D01*
X22021022Y-26511813D01*
X21968236Y-26510228D01*
X21919964Y-26503589D01*
X21891782Y-26495072D01*
X21837247Y-26460063D01*
X21803165Y-26411479D01*
X21787843Y-26346882D01*
X21787701Y-26345223D01*
X21789045Y-26316566D01*
X21910644Y-26316566D01*
X21921274Y-26349161D01*
X21938590Y-26367505D01*
X21973348Y-26381379D01*
X22019227Y-26386917D01*
X22066012Y-26384191D01*
X22103486Y-26373274D01*
X22113985Y-26366269D01*
X22132332Y-26333904D01*
X22136980Y-26297111D01*
X22136980Y-26248763D01*
X22067418Y-26248763D01*
X22001333Y-26253850D01*
X21951236Y-26268263D01*
X21920071Y-26290729D01*
X21910644Y-26316566D01*
X21789045Y-26316566D01*
X21791013Y-26274647D01*
X21814290Y-26218845D01*
X21858052Y-26176647D01*
X21864101Y-26172808D01*
X21890093Y-26160309D01*
X21922265Y-26152740D01*
X21967240Y-26149061D01*
X22020669Y-26148216D01*
X22136980Y-26148169D01*
X22136980Y-26099411D01*
X22132047Y-26061581D01*
X22119457Y-26036236D01*
X22117983Y-26034887D01*
X22089966Y-26023800D01*
X22047674Y-26019503D01*
X22000936Y-26021615D01*
X21959582Y-26029756D01*
X21935043Y-26041965D01*
X21921747Y-26051746D01*
X21907706Y-26053613D01*
X21888329Y-26045600D01*
X21859024Y-26025739D01*
X21815197Y-25992063D01*
X21811175Y-25988909D01*
X21813236Y-25977236D01*
X21830432Y-25957822D01*
X21856567Y-25936248D01*
X21885448Y-25918096D01*
X21894522Y-25913809D01*
X21927620Y-25905256D01*
X21976120Y-25899155D01*
X22030305Y-25896708D01*
X22032839Y-25896703D01*
X22110790Y-25901555D01*
X22110790Y-25901555D01*
G37*
X22110790Y-25901555D02*
X22169945Y-25917339D01*
X22214977Y-25945948D01*
X22246754Y-25983419D01*
X22256634Y-25999411D01*
X22263927Y-26016163D01*
X22269026Y-26037592D01*
X22272321Y-26067616D01*
X22274203Y-26110154D01*
X22275063Y-26169122D01*
X22275293Y-26248440D01*
X22275297Y-26269484D01*
X22275297Y-26512822D01*
X22214941Y-26512822D01*
X22176443Y-26510126D01*
X22147977Y-26503295D01*
X22140845Y-26499083D01*
X22121348Y-26491813D01*
X22101434Y-26499083D01*
X22068647Y-26508160D01*
X22021022Y-26511813D01*
X21968236Y-26510228D01*
X21919964Y-26503589D01*
X21891782Y-26495072D01*
X21837247Y-26460063D01*
X21803165Y-26411479D01*
X21787843Y-26346882D01*
X21787701Y-26345223D01*
X21789045Y-26316566D01*
X21910644Y-26316566D01*
X21921274Y-26349161D01*
X21938590Y-26367505D01*
X21973348Y-26381379D01*
X22019227Y-26386917D01*
X22066012Y-26384191D01*
X22103486Y-26373274D01*
X22113985Y-26366269D01*
X22132332Y-26333904D01*
X22136980Y-26297111D01*
X22136980Y-26248763D01*
X22067418Y-26248763D01*
X22001333Y-26253850D01*
X21951236Y-26268263D01*
X21920071Y-26290729D01*
X21910644Y-26316566D01*
X21789045Y-26316566D01*
X21791013Y-26274647D01*
X21814290Y-26218845D01*
X21858052Y-26176647D01*
X21864101Y-26172808D01*
X21890093Y-26160309D01*
X21922265Y-26152740D01*
X21967240Y-26149061D01*
X22020669Y-26148216D01*
X22136980Y-26148169D01*
X22136980Y-26099411D01*
X22132047Y-26061581D01*
X22119457Y-26036236D01*
X22117983Y-26034887D01*
X22089966Y-26023800D01*
X22047674Y-26019503D01*
X22000936Y-26021615D01*
X21959582Y-26029756D01*
X21935043Y-26041965D01*
X21921747Y-26051746D01*
X21907706Y-26053613D01*
X21888329Y-26045600D01*
X21859024Y-26025739D01*
X21815197Y-25992063D01*
X21811175Y-25988909D01*
X21813236Y-25977236D01*
X21830432Y-25957822D01*
X21856567Y-25936248D01*
X21885448Y-25918096D01*
X21894522Y-25913809D01*
X21927620Y-25905256D01*
X21976120Y-25899155D01*
X22030305Y-25896708D01*
X22032839Y-25896703D01*
X22110790Y-25901555D01*
G36*
X21586241Y-24964184D02*
X21612753Y-24977282D01*
X21645447Y-25000106D01*
X21669275Y-25024996D01*
X21685594Y-25056249D01*
X21695760Y-25098166D01*
X21701128Y-25155044D01*
X21703056Y-25231184D01*
X21703169Y-25263917D01*
X21702839Y-25335656D01*
X21701473Y-25386927D01*
X21698500Y-25422404D01*
X21693351Y-25446763D01*
X21685457Y-25464680D01*
X21677243Y-25476902D01*
X21624813Y-25528905D01*
X21563070Y-25560184D01*
X21496464Y-25569592D01*
X21429442Y-25555980D01*
X21408208Y-25546354D01*
X21357376Y-25519859D01*
X21357376Y-25935052D01*
X21394475Y-25915868D01*
X21443357Y-25901025D01*
X21503439Y-25897222D01*
X21563436Y-25904243D01*
X21608744Y-25920013D01*
X21646325Y-25950047D01*
X21678436Y-25993024D01*
X21680850Y-25997436D01*
X21691033Y-26018221D01*
X21698470Y-26039170D01*
X21703589Y-26064548D01*
X21706819Y-26098618D01*
X21708587Y-26145641D01*
X21709323Y-26209882D01*
X21709456Y-26282176D01*
X21709456Y-26512822D01*
X21571139Y-26512822D01*
X21571139Y-26087533D01*
X21532451Y-26054979D01*
X21492262Y-26028940D01*
X21454203Y-26024205D01*
X21415934Y-26036389D01*
X21395538Y-26048320D01*
X21380358Y-26065313D01*
X21369562Y-26090995D01*
X21362317Y-26128991D01*
X21357792Y-26182926D01*
X21355156Y-26256425D01*
X21354228Y-26305347D01*
X21351089Y-26506535D01*
X21285074Y-26510336D01*
X21219060Y-26514136D01*
X21219060Y-25265650D01*
X21357376Y-25265650D01*
X21360903Y-25335254D01*
X21372785Y-25383569D01*
X21394980Y-25413631D01*
X21429441Y-25428471D01*
X21464258Y-25431436D01*
X21503671Y-25428028D01*
X21529829Y-25414617D01*
X21546186Y-25396896D01*
X21559063Y-25377835D01*
X21566728Y-25356601D01*
X21570139Y-25326849D01*
X21570251Y-25282236D01*
X21569103Y-25244880D01*
X21566468Y-25188604D01*
X21562544Y-25151658D01*
X21555937Y-25128223D01*
X21545251Y-25112480D01*
X21535167Y-25103380D01*
X21493030Y-25083537D01*
X21443160Y-25080332D01*
X21414524Y-25087168D01*
X21386172Y-25111464D01*
X21367391Y-25158728D01*
X21358288Y-25228624D01*
X21357376Y-25265650D01*
X21219060Y-25265650D01*
X21219060Y-24953614D01*
X21288218Y-24953614D01*
X21329740Y-24955256D01*
X21351162Y-24961087D01*
X21357374Y-24972461D01*
X21357376Y-24972798D01*
X21360258Y-24983938D01*
X21372970Y-24982673D01*
X21398243Y-24970433D01*
X21457131Y-24951707D01*
X21523385Y-24949739D01*
X21586241Y-24964184D01*
X21586241Y-24964184D01*
G37*
X21586241Y-24964184D02*
X21612753Y-24977282D01*
X21645447Y-25000106D01*
X21669275Y-25024996D01*
X21685594Y-25056249D01*
X21695760Y-25098166D01*
X21701128Y-25155044D01*
X21703056Y-25231184D01*
X21703169Y-25263917D01*
X21702839Y-25335656D01*
X21701473Y-25386927D01*
X21698500Y-25422404D01*
X21693351Y-25446763D01*
X21685457Y-25464680D01*
X21677243Y-25476902D01*
X21624813Y-25528905D01*
X21563070Y-25560184D01*
X21496464Y-25569592D01*
X21429442Y-25555980D01*
X21408208Y-25546354D01*
X21357376Y-25519859D01*
X21357376Y-25935052D01*
X21394475Y-25915868D01*
X21443357Y-25901025D01*
X21503439Y-25897222D01*
X21563436Y-25904243D01*
X21608744Y-25920013D01*
X21646325Y-25950047D01*
X21678436Y-25993024D01*
X21680850Y-25997436D01*
X21691033Y-26018221D01*
X21698470Y-26039170D01*
X21703589Y-26064548D01*
X21706819Y-26098618D01*
X21708587Y-26145641D01*
X21709323Y-26209882D01*
X21709456Y-26282176D01*
X21709456Y-26512822D01*
X21571139Y-26512822D01*
X21571139Y-26087533D01*
X21532451Y-26054979D01*
X21492262Y-26028940D01*
X21454203Y-26024205D01*
X21415934Y-26036389D01*
X21395538Y-26048320D01*
X21380358Y-26065313D01*
X21369562Y-26090995D01*
X21362317Y-26128991D01*
X21357792Y-26182926D01*
X21355156Y-26256425D01*
X21354228Y-26305347D01*
X21351089Y-26506535D01*
X21285074Y-26510336D01*
X21219060Y-26514136D01*
X21219060Y-25265650D01*
X21357376Y-25265650D01*
X21360903Y-25335254D01*
X21372785Y-25383569D01*
X21394980Y-25413631D01*
X21429441Y-25428471D01*
X21464258Y-25431436D01*
X21503671Y-25428028D01*
X21529829Y-25414617D01*
X21546186Y-25396896D01*
X21559063Y-25377835D01*
X21566728Y-25356601D01*
X21570139Y-25326849D01*
X21570251Y-25282236D01*
X21569103Y-25244880D01*
X21566468Y-25188604D01*
X21562544Y-25151658D01*
X21555937Y-25128223D01*
X21545251Y-25112480D01*
X21535167Y-25103380D01*
X21493030Y-25083537D01*
X21443160Y-25080332D01*
X21414524Y-25087168D01*
X21386172Y-25111464D01*
X21367391Y-25158728D01*
X21358288Y-25228624D01*
X21357376Y-25265650D01*
X21219060Y-25265650D01*
X21219060Y-24953614D01*
X21288218Y-24953614D01*
X21329740Y-24955256D01*
X21351162Y-24961087D01*
X21357374Y-24972461D01*
X21357376Y-24972798D01*
X21360258Y-24983938D01*
X21372970Y-24982673D01*
X21398243Y-24970433D01*
X21457131Y-24951707D01*
X21523385Y-24949739D01*
X21586241Y-24964184D01*
G04 #@! TO.C,C17*
D10*
X79477142Y-80897857D02*
X79524761Y-80945476D01*
X79572380Y-81088333D01*
X79572380Y-81183571D01*
X79524761Y-81326428D01*
X79429523Y-81421666D01*
X79334285Y-81469285D01*
X79143809Y-81516904D01*
X79000952Y-81516904D01*
X78810476Y-81469285D01*
X78715238Y-81421666D01*
X78620000Y-81326428D01*
X78572380Y-81183571D01*
X78572380Y-81088333D01*
X78620000Y-80945476D01*
X78667619Y-80897857D01*
X79572380Y-79945476D02*
X79572380Y-80516904D01*
X79572380Y-80231190D02*
X78572380Y-80231190D01*
X78715238Y-80326428D01*
X78810476Y-80421666D01*
X78858095Y-80516904D01*
X78572380Y-79612142D02*
X78572380Y-78945476D01*
X79572380Y-79374047D01*
G04 #@! TO.C,C20*
X93972142Y-93702142D02*
X93924523Y-93749761D01*
X93781666Y-93797380D01*
X93686428Y-93797380D01*
X93543571Y-93749761D01*
X93448333Y-93654523D01*
X93400714Y-93559285D01*
X93353095Y-93368809D01*
X93353095Y-93225952D01*
X93400714Y-93035476D01*
X93448333Y-92940238D01*
X93543571Y-92845000D01*
X93686428Y-92797380D01*
X93781666Y-92797380D01*
X93924523Y-92845000D01*
X93972142Y-92892619D01*
X94353095Y-92892619D02*
X94400714Y-92845000D01*
X94495952Y-92797380D01*
X94734047Y-92797380D01*
X94829285Y-92845000D01*
X94876904Y-92892619D01*
X94924523Y-92987857D01*
X94924523Y-93083095D01*
X94876904Y-93225952D01*
X94305476Y-93797380D01*
X94924523Y-93797380D01*
X95543571Y-92797380D02*
X95638809Y-92797380D01*
X95734047Y-92845000D01*
X95781666Y-92892619D01*
X95829285Y-92987857D01*
X95876904Y-93178333D01*
X95876904Y-93416428D01*
X95829285Y-93606904D01*
X95781666Y-93702142D01*
X95734047Y-93749761D01*
X95638809Y-93797380D01*
X95543571Y-93797380D01*
X95448333Y-93749761D01*
X95400714Y-93702142D01*
X95353095Y-93606904D01*
X95305476Y-93416428D01*
X95305476Y-93178333D01*
X95353095Y-92987857D01*
X95400714Y-92892619D01*
X95448333Y-92845000D01*
X95543571Y-92797380D01*
G04 #@! TO.C,C21*
X109457142Y-75542142D02*
X109409523Y-75589761D01*
X109266666Y-75637380D01*
X109171428Y-75637380D01*
X109028571Y-75589761D01*
X108933333Y-75494523D01*
X108885714Y-75399285D01*
X108838095Y-75208809D01*
X108838095Y-75065952D01*
X108885714Y-74875476D01*
X108933333Y-74780238D01*
X109028571Y-74685000D01*
X109171428Y-74637380D01*
X109266666Y-74637380D01*
X109409523Y-74685000D01*
X109457142Y-74732619D01*
X109838095Y-74732619D02*
X109885714Y-74685000D01*
X109980952Y-74637380D01*
X110219047Y-74637380D01*
X110314285Y-74685000D01*
X110361904Y-74732619D01*
X110409523Y-74827857D01*
X110409523Y-74923095D01*
X110361904Y-75065952D01*
X109790476Y-75637380D01*
X110409523Y-75637380D01*
X111361904Y-75637380D02*
X110790476Y-75637380D01*
X111076190Y-75637380D02*
X111076190Y-74637380D01*
X110980952Y-74780238D01*
X110885714Y-74875476D01*
X110790476Y-74923095D01*
G04 #@! TO.C,C22*
X93972142Y-77827142D02*
X93924523Y-77874761D01*
X93781666Y-77922380D01*
X93686428Y-77922380D01*
X93543571Y-77874761D01*
X93448333Y-77779523D01*
X93400714Y-77684285D01*
X93353095Y-77493809D01*
X93353095Y-77350952D01*
X93400714Y-77160476D01*
X93448333Y-77065238D01*
X93543571Y-76970000D01*
X93686428Y-76922380D01*
X93781666Y-76922380D01*
X93924523Y-76970000D01*
X93972142Y-77017619D01*
X94353095Y-77017619D02*
X94400714Y-76970000D01*
X94495952Y-76922380D01*
X94734047Y-76922380D01*
X94829285Y-76970000D01*
X94876904Y-77017619D01*
X94924523Y-77112857D01*
X94924523Y-77208095D01*
X94876904Y-77350952D01*
X94305476Y-77922380D01*
X94924523Y-77922380D01*
X95305476Y-77017619D02*
X95353095Y-76970000D01*
X95448333Y-76922380D01*
X95686428Y-76922380D01*
X95781666Y-76970000D01*
X95829285Y-77017619D01*
X95876904Y-77112857D01*
X95876904Y-77208095D01*
X95829285Y-77350952D01*
X95257857Y-77922380D01*
X95876904Y-77922380D01*
G04 #@! TO.C,C23*
X79477142Y-96772857D02*
X79524761Y-96820476D01*
X79572380Y-96963333D01*
X79572380Y-97058571D01*
X79524761Y-97201428D01*
X79429523Y-97296666D01*
X79334285Y-97344285D01*
X79143809Y-97391904D01*
X79000952Y-97391904D01*
X78810476Y-97344285D01*
X78715238Y-97296666D01*
X78620000Y-97201428D01*
X78572380Y-97058571D01*
X78572380Y-96963333D01*
X78620000Y-96820476D01*
X78667619Y-96772857D01*
X78667619Y-96391904D02*
X78620000Y-96344285D01*
X78572380Y-96249047D01*
X78572380Y-96010952D01*
X78620000Y-95915714D01*
X78667619Y-95868095D01*
X78762857Y-95820476D01*
X78858095Y-95820476D01*
X79000952Y-95868095D01*
X79572380Y-96439523D01*
X79572380Y-95820476D01*
X78572380Y-95487142D02*
X78572380Y-94868095D01*
X78953333Y-95201428D01*
X78953333Y-95058571D01*
X79000952Y-94963333D01*
X79048571Y-94915714D01*
X79143809Y-94868095D01*
X79381904Y-94868095D01*
X79477142Y-94915714D01*
X79524761Y-94963333D01*
X79572380Y-95058571D01*
X79572380Y-95344285D01*
X79524761Y-95439523D01*
X79477142Y-95487142D01*
G04 #@! TO.C,C15*
X49632142Y-96282857D02*
X49679761Y-96330476D01*
X49727380Y-96473333D01*
X49727380Y-96568571D01*
X49679761Y-96711428D01*
X49584523Y-96806666D01*
X49489285Y-96854285D01*
X49298809Y-96901904D01*
X49155952Y-96901904D01*
X48965476Y-96854285D01*
X48870238Y-96806666D01*
X48775000Y-96711428D01*
X48727380Y-96568571D01*
X48727380Y-96473333D01*
X48775000Y-96330476D01*
X48822619Y-96282857D01*
X49727380Y-95330476D02*
X49727380Y-95901904D01*
X49727380Y-95616190D02*
X48727380Y-95616190D01*
X48870238Y-95711428D01*
X48965476Y-95806666D01*
X49013095Y-95901904D01*
X48727380Y-94425714D02*
X48727380Y-94901904D01*
X49203571Y-94949523D01*
X49155952Y-94901904D01*
X49108333Y-94806666D01*
X49108333Y-94568571D01*
X49155952Y-94473333D01*
X49203571Y-94425714D01*
X49298809Y-94378095D01*
X49536904Y-94378095D01*
X49632142Y-94425714D01*
X49679761Y-94473333D01*
X49727380Y-94568571D01*
X49727380Y-94806666D01*
X49679761Y-94901904D01*
X49632142Y-94949523D01*
G04 #@! TO.C,C3*
X71477142Y-34846666D02*
X71524761Y-34894285D01*
X71572380Y-35037142D01*
X71572380Y-35132380D01*
X71524761Y-35275238D01*
X71429523Y-35370476D01*
X71334285Y-35418095D01*
X71143809Y-35465714D01*
X71000952Y-35465714D01*
X70810476Y-35418095D01*
X70715238Y-35370476D01*
X70620000Y-35275238D01*
X70572380Y-35132380D01*
X70572380Y-35037142D01*
X70620000Y-34894285D01*
X70667619Y-34846666D01*
X70572380Y-34513333D02*
X70572380Y-33894285D01*
X70953333Y-34227619D01*
X70953333Y-34084761D01*
X71000952Y-33989523D01*
X71048571Y-33941904D01*
X71143809Y-33894285D01*
X71381904Y-33894285D01*
X71477142Y-33941904D01*
X71524761Y-33989523D01*
X71572380Y-34084761D01*
X71572380Y-34370476D01*
X71524761Y-34465714D01*
X71477142Y-34513333D01*
G04 #@! TO.C,C4*
X28297142Y-34846666D02*
X28344761Y-34894285D01*
X28392380Y-35037142D01*
X28392380Y-35132380D01*
X28344761Y-35275238D01*
X28249523Y-35370476D01*
X28154285Y-35418095D01*
X27963809Y-35465714D01*
X27820952Y-35465714D01*
X27630476Y-35418095D01*
X27535238Y-35370476D01*
X27440000Y-35275238D01*
X27392380Y-35132380D01*
X27392380Y-35037142D01*
X27440000Y-34894285D01*
X27487619Y-34846666D01*
X27725714Y-33989523D02*
X28392380Y-33989523D01*
X27344761Y-34227619D02*
X28059047Y-34465714D01*
X28059047Y-33846666D01*
G04 #@! TO.C,C5*
X49887142Y-34846666D02*
X49934761Y-34894285D01*
X49982380Y-35037142D01*
X49982380Y-35132380D01*
X49934761Y-35275238D01*
X49839523Y-35370476D01*
X49744285Y-35418095D01*
X49553809Y-35465714D01*
X49410952Y-35465714D01*
X49220476Y-35418095D01*
X49125238Y-35370476D01*
X49030000Y-35275238D01*
X48982380Y-35132380D01*
X48982380Y-35037142D01*
X49030000Y-34894285D01*
X49077619Y-34846666D01*
X48982380Y-33941904D02*
X48982380Y-34418095D01*
X49458571Y-34465714D01*
X49410952Y-34418095D01*
X49363333Y-34322857D01*
X49363333Y-34084761D01*
X49410952Y-33989523D01*
X49458571Y-33941904D01*
X49553809Y-33894285D01*
X49791904Y-33894285D01*
X49887142Y-33941904D01*
X49934761Y-33989523D01*
X49982380Y-34084761D01*
X49982380Y-34322857D01*
X49934761Y-34418095D01*
X49887142Y-34465714D01*
G04 #@! TO.C,C6*
X71477142Y-62786666D02*
X71524761Y-62834285D01*
X71572380Y-62977142D01*
X71572380Y-63072380D01*
X71524761Y-63215238D01*
X71429523Y-63310476D01*
X71334285Y-63358095D01*
X71143809Y-63405714D01*
X71000952Y-63405714D01*
X70810476Y-63358095D01*
X70715238Y-63310476D01*
X70620000Y-63215238D01*
X70572380Y-63072380D01*
X70572380Y-62977142D01*
X70620000Y-62834285D01*
X70667619Y-62786666D01*
X70572380Y-61929523D02*
X70572380Y-62120000D01*
X70620000Y-62215238D01*
X70667619Y-62262857D01*
X70810476Y-62358095D01*
X71000952Y-62405714D01*
X71381904Y-62405714D01*
X71477142Y-62358095D01*
X71524761Y-62310476D01*
X71572380Y-62215238D01*
X71572380Y-62024761D01*
X71524761Y-61929523D01*
X71477142Y-61881904D01*
X71381904Y-61834285D01*
X71143809Y-61834285D01*
X71048571Y-61881904D01*
X71000952Y-61929523D01*
X70953333Y-62024761D01*
X70953333Y-62215238D01*
X71000952Y-62310476D01*
X71048571Y-62358095D01*
X71143809Y-62405714D01*
G04 #@! TO.C,C7*
X28297142Y-62786666D02*
X28344761Y-62834285D01*
X28392380Y-62977142D01*
X28392380Y-63072380D01*
X28344761Y-63215238D01*
X28249523Y-63310476D01*
X28154285Y-63358095D01*
X27963809Y-63405714D01*
X27820952Y-63405714D01*
X27630476Y-63358095D01*
X27535238Y-63310476D01*
X27440000Y-63215238D01*
X27392380Y-63072380D01*
X27392380Y-62977142D01*
X27440000Y-62834285D01*
X27487619Y-62786666D01*
X27392380Y-62453333D02*
X27392380Y-61786666D01*
X28392380Y-62215238D01*
G04 #@! TO.C,C8*
X93067142Y-34846666D02*
X93114761Y-34894285D01*
X93162380Y-35037142D01*
X93162380Y-35132380D01*
X93114761Y-35275238D01*
X93019523Y-35370476D01*
X92924285Y-35418095D01*
X92733809Y-35465714D01*
X92590952Y-35465714D01*
X92400476Y-35418095D01*
X92305238Y-35370476D01*
X92210000Y-35275238D01*
X92162380Y-35132380D01*
X92162380Y-35037142D01*
X92210000Y-34894285D01*
X92257619Y-34846666D01*
X92590952Y-34275238D02*
X92543333Y-34370476D01*
X92495714Y-34418095D01*
X92400476Y-34465714D01*
X92352857Y-34465714D01*
X92257619Y-34418095D01*
X92210000Y-34370476D01*
X92162380Y-34275238D01*
X92162380Y-34084761D01*
X92210000Y-33989523D01*
X92257619Y-33941904D01*
X92352857Y-33894285D01*
X92400476Y-33894285D01*
X92495714Y-33941904D01*
X92543333Y-33989523D01*
X92590952Y-34084761D01*
X92590952Y-34275238D01*
X92638571Y-34370476D01*
X92686190Y-34418095D01*
X92781428Y-34465714D01*
X92971904Y-34465714D01*
X93067142Y-34418095D01*
X93114761Y-34370476D01*
X93162380Y-34275238D01*
X93162380Y-34084761D01*
X93114761Y-33989523D01*
X93067142Y-33941904D01*
X92971904Y-33894285D01*
X92781428Y-33894285D01*
X92686190Y-33941904D01*
X92638571Y-33989523D01*
X92590952Y-34084761D01*
G04 #@! TO.C,C9*
X49887142Y-62786666D02*
X49934761Y-62834285D01*
X49982380Y-62977142D01*
X49982380Y-63072380D01*
X49934761Y-63215238D01*
X49839523Y-63310476D01*
X49744285Y-63358095D01*
X49553809Y-63405714D01*
X49410952Y-63405714D01*
X49220476Y-63358095D01*
X49125238Y-63310476D01*
X49030000Y-63215238D01*
X48982380Y-63072380D01*
X48982380Y-62977142D01*
X49030000Y-62834285D01*
X49077619Y-62786666D01*
X49982380Y-62310476D02*
X49982380Y-62120000D01*
X49934761Y-62024761D01*
X49887142Y-61977142D01*
X49744285Y-61881904D01*
X49553809Y-61834285D01*
X49172857Y-61834285D01*
X49077619Y-61881904D01*
X49030000Y-61929523D01*
X48982380Y-62024761D01*
X48982380Y-62215238D01*
X49030000Y-62310476D01*
X49077619Y-62358095D01*
X49172857Y-62405714D01*
X49410952Y-62405714D01*
X49506190Y-62358095D01*
X49553809Y-62310476D01*
X49601428Y-62215238D01*
X49601428Y-62024761D01*
X49553809Y-61929523D01*
X49506190Y-61881904D01*
X49410952Y-61834285D01*
G04 #@! TO.C,C10*
X93067142Y-63262857D02*
X93114761Y-63310476D01*
X93162380Y-63453333D01*
X93162380Y-63548571D01*
X93114761Y-63691428D01*
X93019523Y-63786666D01*
X92924285Y-63834285D01*
X92733809Y-63881904D01*
X92590952Y-63881904D01*
X92400476Y-63834285D01*
X92305238Y-63786666D01*
X92210000Y-63691428D01*
X92162380Y-63548571D01*
X92162380Y-63453333D01*
X92210000Y-63310476D01*
X92257619Y-63262857D01*
X93162380Y-62310476D02*
X93162380Y-62881904D01*
X93162380Y-62596190D02*
X92162380Y-62596190D01*
X92305238Y-62691428D01*
X92400476Y-62786666D01*
X92448095Y-62881904D01*
X92162380Y-61691428D02*
X92162380Y-61596190D01*
X92210000Y-61500952D01*
X92257619Y-61453333D01*
X92352857Y-61405714D01*
X92543333Y-61358095D01*
X92781428Y-61358095D01*
X92971904Y-61405714D01*
X93067142Y-61453333D01*
X93114761Y-61500952D01*
X93162380Y-61596190D01*
X93162380Y-61691428D01*
X93114761Y-61786666D01*
X93067142Y-61834285D01*
X92971904Y-61881904D01*
X92781428Y-61929523D01*
X92543333Y-61929523D01*
X92352857Y-61881904D01*
X92257619Y-61834285D01*
X92210000Y-61786666D01*
X92162380Y-61691428D01*
G04 #@! TO.C,C11*
X36932142Y-80897857D02*
X36979761Y-80945476D01*
X37027380Y-81088333D01*
X37027380Y-81183571D01*
X36979761Y-81326428D01*
X36884523Y-81421666D01*
X36789285Y-81469285D01*
X36598809Y-81516904D01*
X36455952Y-81516904D01*
X36265476Y-81469285D01*
X36170238Y-81421666D01*
X36075000Y-81326428D01*
X36027380Y-81183571D01*
X36027380Y-81088333D01*
X36075000Y-80945476D01*
X36122619Y-80897857D01*
X37027380Y-79945476D02*
X37027380Y-80516904D01*
X37027380Y-80231190D02*
X36027380Y-80231190D01*
X36170238Y-80326428D01*
X36265476Y-80421666D01*
X36313095Y-80516904D01*
X37027380Y-78993095D02*
X37027380Y-79564523D01*
X37027380Y-79278809D02*
X36027380Y-79278809D01*
X36170238Y-79374047D01*
X36265476Y-79469285D01*
X36313095Y-79564523D01*
G04 #@! TO.C,C12*
X49632142Y-81042857D02*
X49679761Y-81090476D01*
X49727380Y-81233333D01*
X49727380Y-81328571D01*
X49679761Y-81471428D01*
X49584523Y-81566666D01*
X49489285Y-81614285D01*
X49298809Y-81661904D01*
X49155952Y-81661904D01*
X48965476Y-81614285D01*
X48870238Y-81566666D01*
X48775000Y-81471428D01*
X48727380Y-81328571D01*
X48727380Y-81233333D01*
X48775000Y-81090476D01*
X48822619Y-81042857D01*
X49727380Y-80090476D02*
X49727380Y-80661904D01*
X49727380Y-80376190D02*
X48727380Y-80376190D01*
X48870238Y-80471428D01*
X48965476Y-80566666D01*
X49013095Y-80661904D01*
X48822619Y-79709523D02*
X48775000Y-79661904D01*
X48727380Y-79566666D01*
X48727380Y-79328571D01*
X48775000Y-79233333D01*
X48822619Y-79185714D01*
X48917857Y-79138095D01*
X49013095Y-79138095D01*
X49155952Y-79185714D01*
X49727380Y-79757142D01*
X49727380Y-79138095D01*
G04 #@! TO.C,C13*
X62332142Y-80897857D02*
X62379761Y-80945476D01*
X62427380Y-81088333D01*
X62427380Y-81183571D01*
X62379761Y-81326428D01*
X62284523Y-81421666D01*
X62189285Y-81469285D01*
X61998809Y-81516904D01*
X61855952Y-81516904D01*
X61665476Y-81469285D01*
X61570238Y-81421666D01*
X61475000Y-81326428D01*
X61427380Y-81183571D01*
X61427380Y-81088333D01*
X61475000Y-80945476D01*
X61522619Y-80897857D01*
X62427380Y-79945476D02*
X62427380Y-80516904D01*
X62427380Y-80231190D02*
X61427380Y-80231190D01*
X61570238Y-80326428D01*
X61665476Y-80421666D01*
X61713095Y-80516904D01*
X61427380Y-79612142D02*
X61427380Y-78993095D01*
X61808333Y-79326428D01*
X61808333Y-79183571D01*
X61855952Y-79088333D01*
X61903571Y-79040714D01*
X61998809Y-78993095D01*
X62236904Y-78993095D01*
X62332142Y-79040714D01*
X62379761Y-79088333D01*
X62427380Y-79183571D01*
X62427380Y-79469285D01*
X62379761Y-79564523D01*
X62332142Y-79612142D01*
G04 #@! TO.C,C16*
X62332142Y-96772857D02*
X62379761Y-96820476D01*
X62427380Y-96963333D01*
X62427380Y-97058571D01*
X62379761Y-97201428D01*
X62284523Y-97296666D01*
X62189285Y-97344285D01*
X61998809Y-97391904D01*
X61855952Y-97391904D01*
X61665476Y-97344285D01*
X61570238Y-97296666D01*
X61475000Y-97201428D01*
X61427380Y-97058571D01*
X61427380Y-96963333D01*
X61475000Y-96820476D01*
X61522619Y-96772857D01*
X62427380Y-95820476D02*
X62427380Y-96391904D01*
X62427380Y-96106190D02*
X61427380Y-96106190D01*
X61570238Y-96201428D01*
X61665476Y-96296666D01*
X61713095Y-96391904D01*
X61427380Y-94963333D02*
X61427380Y-95153809D01*
X61475000Y-95249047D01*
X61522619Y-95296666D01*
X61665476Y-95391904D01*
X61855952Y-95439523D01*
X62236904Y-95439523D01*
X62332142Y-95391904D01*
X62379761Y-95344285D01*
X62427380Y-95249047D01*
X62427380Y-95058571D01*
X62379761Y-94963333D01*
X62332142Y-94915714D01*
X62236904Y-94868095D01*
X61998809Y-94868095D01*
X61903571Y-94915714D01*
X61855952Y-94963333D01*
X61808333Y-95058571D01*
X61808333Y-95249047D01*
X61855952Y-95344285D01*
X61903571Y-95391904D01*
X61998809Y-95439523D01*
G04 #@! TO.C,C14*
X36932142Y-96282857D02*
X36979761Y-96330476D01*
X37027380Y-96473333D01*
X37027380Y-96568571D01*
X36979761Y-96711428D01*
X36884523Y-96806666D01*
X36789285Y-96854285D01*
X36598809Y-96901904D01*
X36455952Y-96901904D01*
X36265476Y-96854285D01*
X36170238Y-96806666D01*
X36075000Y-96711428D01*
X36027380Y-96568571D01*
X36027380Y-96473333D01*
X36075000Y-96330476D01*
X36122619Y-96282857D01*
X37027380Y-95330476D02*
X37027380Y-95901904D01*
X37027380Y-95616190D02*
X36027380Y-95616190D01*
X36170238Y-95711428D01*
X36265476Y-95806666D01*
X36313095Y-95901904D01*
X36360714Y-94473333D02*
X37027380Y-94473333D01*
X35979761Y-94711428D02*
X36694047Y-94949523D01*
X36694047Y-94330476D01*
G04 #@! TO.C,C1*
X23217142Y-110021666D02*
X23264761Y-110069285D01*
X23312380Y-110212142D01*
X23312380Y-110307380D01*
X23264761Y-110450238D01*
X23169523Y-110545476D01*
X23074285Y-110593095D01*
X22883809Y-110640714D01*
X22740952Y-110640714D01*
X22550476Y-110593095D01*
X22455238Y-110545476D01*
X22360000Y-110450238D01*
X22312380Y-110307380D01*
X22312380Y-110212142D01*
X22360000Y-110069285D01*
X22407619Y-110021666D01*
X23312380Y-109069285D02*
X23312380Y-109640714D01*
X23312380Y-109355000D02*
X22312380Y-109355000D01*
X22455238Y-109450238D01*
X22550476Y-109545476D01*
X22598095Y-109640714D01*
G04 #@! TO.C,C2*
X117197142Y-110021666D02*
X117244761Y-110069285D01*
X117292380Y-110212142D01*
X117292380Y-110307380D01*
X117244761Y-110450238D01*
X117149523Y-110545476D01*
X117054285Y-110593095D01*
X116863809Y-110640714D01*
X116720952Y-110640714D01*
X116530476Y-110593095D01*
X116435238Y-110545476D01*
X116340000Y-110450238D01*
X116292380Y-110307380D01*
X116292380Y-110212142D01*
X116340000Y-110069285D01*
X116387619Y-110021666D01*
X116387619Y-109640714D02*
X116340000Y-109593095D01*
X116292380Y-109497857D01*
X116292380Y-109259761D01*
X116340000Y-109164523D01*
X116387619Y-109116904D01*
X116482857Y-109069285D01*
X116578095Y-109069285D01*
X116720952Y-109116904D01*
X117292380Y-109688333D01*
X117292380Y-109069285D01*
G04 #@! TO.C,JP3*
X98861666Y-99357380D02*
X98861666Y-100071666D01*
X98814047Y-100214523D01*
X98718809Y-100309761D01*
X98575952Y-100357380D01*
X98480714Y-100357380D01*
X99337857Y-100357380D02*
X99337857Y-99357380D01*
X99718809Y-99357380D01*
X99814047Y-99405000D01*
X99861666Y-99452619D01*
X99909285Y-99547857D01*
X99909285Y-99690714D01*
X99861666Y-99785952D01*
X99814047Y-99833571D01*
X99718809Y-99881190D01*
X99337857Y-99881190D01*
X100242619Y-99357380D02*
X100861666Y-99357380D01*
X100528333Y-99738333D01*
X100671190Y-99738333D01*
X100766428Y-99785952D01*
X100814047Y-99833571D01*
X100861666Y-99928809D01*
X100861666Y-100166904D01*
X100814047Y-100262142D01*
X100766428Y-100309761D01*
X100671190Y-100357380D01*
X100385476Y-100357380D01*
X100290238Y-100309761D01*
X100242619Y-100262142D01*
X98695000Y-106557380D02*
X98885476Y-106557380D01*
X98980714Y-106605000D01*
X99075952Y-106700238D01*
X99123571Y-106890714D01*
X99123571Y-107224047D01*
X99075952Y-107414523D01*
X98980714Y-107509761D01*
X98885476Y-107557380D01*
X98695000Y-107557380D01*
X98599761Y-107509761D01*
X98504523Y-107414523D01*
X98456904Y-107224047D01*
X98456904Y-106890714D01*
X98504523Y-106700238D01*
X98599761Y-106605000D01*
X98695000Y-106557380D01*
X99552142Y-106557380D02*
X99552142Y-107366904D01*
X99599761Y-107462142D01*
X99647380Y-107509761D01*
X99742619Y-107557380D01*
X99933095Y-107557380D01*
X100028333Y-107509761D01*
X100075952Y-107462142D01*
X100123571Y-107366904D01*
X100123571Y-106557380D01*
X100456904Y-106557380D02*
X101028333Y-106557380D01*
X100742619Y-107557380D02*
X100742619Y-106557380D01*
G04 #@! TO.C,JP2*
X110291666Y-99357380D02*
X110291666Y-100071666D01*
X110244047Y-100214523D01*
X110148809Y-100309761D01*
X110005952Y-100357380D01*
X109910714Y-100357380D01*
X110767857Y-100357380D02*
X110767857Y-99357380D01*
X111148809Y-99357380D01*
X111244047Y-99405000D01*
X111291666Y-99452619D01*
X111339285Y-99547857D01*
X111339285Y-99690714D01*
X111291666Y-99785952D01*
X111244047Y-99833571D01*
X111148809Y-99881190D01*
X110767857Y-99881190D01*
X111720238Y-99452619D02*
X111767857Y-99405000D01*
X111863095Y-99357380D01*
X112101190Y-99357380D01*
X112196428Y-99405000D01*
X112244047Y-99452619D01*
X112291666Y-99547857D01*
X112291666Y-99643095D01*
X112244047Y-99785952D01*
X111672619Y-100357380D01*
X112291666Y-100357380D01*
X109934523Y-107271666D02*
X110410714Y-107271666D01*
X109839285Y-107557380D02*
X110172619Y-106557380D01*
X110505952Y-107557380D01*
X110791666Y-106652619D02*
X110839285Y-106605000D01*
X110934523Y-106557380D01*
X111172619Y-106557380D01*
X111267857Y-106605000D01*
X111315476Y-106652619D01*
X111363095Y-106747857D01*
X111363095Y-106843095D01*
X111315476Y-106985952D01*
X110744047Y-107557380D01*
X111363095Y-107557380D01*
X111696428Y-106557380D02*
X112315476Y-106557380D01*
X111982142Y-106938333D01*
X112125000Y-106938333D01*
X112220238Y-106985952D01*
X112267857Y-107033571D01*
X112315476Y-107128809D01*
X112315476Y-107366904D01*
X112267857Y-107462142D01*
X112220238Y-107509761D01*
X112125000Y-107557380D01*
X111839285Y-107557380D01*
X111744047Y-107509761D01*
X111696428Y-107462142D01*
G04 #@! TO.C,JP1*
X104576666Y-99357380D02*
X104576666Y-100071666D01*
X104529047Y-100214523D01*
X104433809Y-100309761D01*
X104290952Y-100357380D01*
X104195714Y-100357380D01*
X105052857Y-100357380D02*
X105052857Y-99357380D01*
X105433809Y-99357380D01*
X105529047Y-99405000D01*
X105576666Y-99452619D01*
X105624285Y-99547857D01*
X105624285Y-99690714D01*
X105576666Y-99785952D01*
X105529047Y-99833571D01*
X105433809Y-99881190D01*
X105052857Y-99881190D01*
X106576666Y-100357380D02*
X106005238Y-100357380D01*
X106290952Y-100357380D02*
X106290952Y-99357380D01*
X106195714Y-99500238D01*
X106100476Y-99595476D01*
X106005238Y-99643095D01*
X104886190Y-107557380D02*
X104886190Y-106557380D01*
X105362380Y-107557380D02*
X105362380Y-106557380D01*
X105933809Y-107557380D01*
X105933809Y-106557380D01*
G04 #@! TO.C,U22*
X104806904Y-78332380D02*
X104806904Y-79141904D01*
X104854523Y-79237142D01*
X104902142Y-79284761D01*
X104997380Y-79332380D01*
X105187857Y-79332380D01*
X105283095Y-79284761D01*
X105330714Y-79237142D01*
X105378333Y-79141904D01*
X105378333Y-78332380D01*
X105806904Y-78427619D02*
X105854523Y-78380000D01*
X105949761Y-78332380D01*
X106187857Y-78332380D01*
X106283095Y-78380000D01*
X106330714Y-78427619D01*
X106378333Y-78522857D01*
X106378333Y-78618095D01*
X106330714Y-78760952D01*
X105759285Y-79332380D01*
X106378333Y-79332380D01*
X106759285Y-78427619D02*
X106806904Y-78380000D01*
X106902142Y-78332380D01*
X107140238Y-78332380D01*
X107235476Y-78380000D01*
X107283095Y-78427619D01*
X107330714Y-78522857D01*
X107330714Y-78618095D01*
X107283095Y-78760952D01*
X106711666Y-79332380D01*
X107330714Y-79332380D01*
G04 #@! TO.C,U27*
X53371904Y-93137380D02*
X53371904Y-93946904D01*
X53419523Y-94042142D01*
X53467142Y-94089761D01*
X53562380Y-94137380D01*
X53752857Y-94137380D01*
X53848095Y-94089761D01*
X53895714Y-94042142D01*
X53943333Y-93946904D01*
X53943333Y-93137380D01*
X54371904Y-93232619D02*
X54419523Y-93185000D01*
X54514761Y-93137380D01*
X54752857Y-93137380D01*
X54848095Y-93185000D01*
X54895714Y-93232619D01*
X54943333Y-93327857D01*
X54943333Y-93423095D01*
X54895714Y-93565952D01*
X54324285Y-94137380D01*
X54943333Y-94137380D01*
X55276666Y-93137380D02*
X55943333Y-93137380D01*
X55514761Y-94137380D01*
X54062380Y-102702857D02*
X54062380Y-102036190D01*
X55062380Y-102464761D01*
X54395714Y-101226666D02*
X55062380Y-101226666D01*
X54014761Y-101464761D02*
X54729047Y-101702857D01*
X54729047Y-101083809D01*
X55062380Y-100702857D02*
X54062380Y-100702857D01*
X54538571Y-100702857D02*
X54538571Y-100131428D01*
X55062380Y-100131428D02*
X54062380Y-100131428D01*
X54967142Y-99083809D02*
X55014761Y-99131428D01*
X55062380Y-99274285D01*
X55062380Y-99369523D01*
X55014761Y-99512380D01*
X54919523Y-99607619D01*
X54824285Y-99655238D01*
X54633809Y-99702857D01*
X54490952Y-99702857D01*
X54300476Y-99655238D01*
X54205238Y-99607619D01*
X54110000Y-99512380D01*
X54062380Y-99369523D01*
X54062380Y-99274285D01*
X54110000Y-99131428D01*
X54157619Y-99083809D01*
X54062380Y-98798095D02*
X54062380Y-98226666D01*
X55062380Y-98512380D02*
X54062380Y-98512380D01*
X55062380Y-97369523D02*
X55062380Y-97940952D01*
X55062380Y-97655238D02*
X54062380Y-97655238D01*
X54205238Y-97750476D01*
X54300476Y-97845714D01*
X54348095Y-97940952D01*
X54157619Y-96988571D02*
X54110000Y-96940952D01*
X54062380Y-96845714D01*
X54062380Y-96607619D01*
X54110000Y-96512380D01*
X54157619Y-96464761D01*
X54252857Y-96417142D01*
X54348095Y-96417142D01*
X54490952Y-96464761D01*
X55062380Y-97036190D01*
X55062380Y-96417142D01*
X54062380Y-95512380D02*
X54062380Y-95988571D01*
X54538571Y-96036190D01*
X54490952Y-95988571D01*
X54443333Y-95893333D01*
X54443333Y-95655238D01*
X54490952Y-95560000D01*
X54538571Y-95512380D01*
X54633809Y-95464761D01*
X54871904Y-95464761D01*
X54967142Y-95512380D01*
X55014761Y-95560000D01*
X55062380Y-95655238D01*
X55062380Y-95893333D01*
X55014761Y-95988571D01*
X54967142Y-96036190D01*
G04 #@! TO.C,U26*
X40671904Y-92512380D02*
X40671904Y-93321904D01*
X40719523Y-93417142D01*
X40767142Y-93464761D01*
X40862380Y-93512380D01*
X41052857Y-93512380D01*
X41148095Y-93464761D01*
X41195714Y-93417142D01*
X41243333Y-93321904D01*
X41243333Y-92512380D01*
X41671904Y-92607619D02*
X41719523Y-92560000D01*
X41814761Y-92512380D01*
X42052857Y-92512380D01*
X42148095Y-92560000D01*
X42195714Y-92607619D01*
X42243333Y-92702857D01*
X42243333Y-92798095D01*
X42195714Y-92940952D01*
X41624285Y-93512380D01*
X42243333Y-93512380D01*
X43100476Y-92512380D02*
X42910000Y-92512380D01*
X42814761Y-92560000D01*
X42767142Y-92607619D01*
X42671904Y-92750476D01*
X42624285Y-92940952D01*
X42624285Y-93321904D01*
X42671904Y-93417142D01*
X42719523Y-93464761D01*
X42814761Y-93512380D01*
X43005238Y-93512380D01*
X43100476Y-93464761D01*
X43148095Y-93417142D01*
X43195714Y-93321904D01*
X43195714Y-93083809D01*
X43148095Y-92988571D01*
X43100476Y-92940952D01*
X43005238Y-92893333D01*
X42814761Y-92893333D01*
X42719523Y-92940952D01*
X42671904Y-92988571D01*
X42624285Y-93083809D01*
X41362380Y-102702857D02*
X41362380Y-102036190D01*
X42362380Y-102464761D01*
X41695714Y-101226666D02*
X42362380Y-101226666D01*
X41314761Y-101464761D02*
X42029047Y-101702857D01*
X42029047Y-101083809D01*
X42362380Y-100702857D02*
X41362380Y-100702857D01*
X41838571Y-100702857D02*
X41838571Y-100131428D01*
X42362380Y-100131428D02*
X41362380Y-100131428D01*
X42267142Y-99083809D02*
X42314761Y-99131428D01*
X42362380Y-99274285D01*
X42362380Y-99369523D01*
X42314761Y-99512380D01*
X42219523Y-99607619D01*
X42124285Y-99655238D01*
X41933809Y-99702857D01*
X41790952Y-99702857D01*
X41600476Y-99655238D01*
X41505238Y-99607619D01*
X41410000Y-99512380D01*
X41362380Y-99369523D01*
X41362380Y-99274285D01*
X41410000Y-99131428D01*
X41457619Y-99083809D01*
X41362380Y-98798095D02*
X41362380Y-98226666D01*
X42362380Y-98512380D02*
X41362380Y-98512380D01*
X41457619Y-97940952D02*
X41410000Y-97893333D01*
X41362380Y-97798095D01*
X41362380Y-97560000D01*
X41410000Y-97464761D01*
X41457619Y-97417142D01*
X41552857Y-97369523D01*
X41648095Y-97369523D01*
X41790952Y-97417142D01*
X42362380Y-97988571D01*
X42362380Y-97369523D01*
X41362380Y-96464761D02*
X41362380Y-96940952D01*
X41838571Y-96988571D01*
X41790952Y-96940952D01*
X41743333Y-96845714D01*
X41743333Y-96607619D01*
X41790952Y-96512380D01*
X41838571Y-96464761D01*
X41933809Y-96417142D01*
X42171904Y-96417142D01*
X42267142Y-96464761D01*
X42314761Y-96512380D01*
X42362380Y-96607619D01*
X42362380Y-96845714D01*
X42314761Y-96940952D01*
X42267142Y-96988571D01*
X41362380Y-96083809D02*
X41362380Y-95417142D01*
X42362380Y-95845714D01*
G04 #@! TO.C,U25*
X27971904Y-92512380D02*
X27971904Y-93321904D01*
X28019523Y-93417142D01*
X28067142Y-93464761D01*
X28162380Y-93512380D01*
X28352857Y-93512380D01*
X28448095Y-93464761D01*
X28495714Y-93417142D01*
X28543333Y-93321904D01*
X28543333Y-92512380D01*
X28971904Y-92607619D02*
X29019523Y-92560000D01*
X29114761Y-92512380D01*
X29352857Y-92512380D01*
X29448095Y-92560000D01*
X29495714Y-92607619D01*
X29543333Y-92702857D01*
X29543333Y-92798095D01*
X29495714Y-92940952D01*
X28924285Y-93512380D01*
X29543333Y-93512380D01*
X30448095Y-92512380D02*
X29971904Y-92512380D01*
X29924285Y-92988571D01*
X29971904Y-92940952D01*
X30067142Y-92893333D01*
X30305238Y-92893333D01*
X30400476Y-92940952D01*
X30448095Y-92988571D01*
X30495714Y-93083809D01*
X30495714Y-93321904D01*
X30448095Y-93417142D01*
X30400476Y-93464761D01*
X30305238Y-93512380D01*
X30067142Y-93512380D01*
X29971904Y-93464761D01*
X29924285Y-93417142D01*
X28662380Y-102702857D02*
X28662380Y-102036190D01*
X29662380Y-102464761D01*
X28995714Y-101226666D02*
X29662380Y-101226666D01*
X28614761Y-101464761D02*
X29329047Y-101702857D01*
X29329047Y-101083809D01*
X29662380Y-100702857D02*
X28662380Y-100702857D01*
X29138571Y-100702857D02*
X29138571Y-100131428D01*
X29662380Y-100131428D02*
X28662380Y-100131428D01*
X29567142Y-99083809D02*
X29614761Y-99131428D01*
X29662380Y-99274285D01*
X29662380Y-99369523D01*
X29614761Y-99512380D01*
X29519523Y-99607619D01*
X29424285Y-99655238D01*
X29233809Y-99702857D01*
X29090952Y-99702857D01*
X28900476Y-99655238D01*
X28805238Y-99607619D01*
X28710000Y-99512380D01*
X28662380Y-99369523D01*
X28662380Y-99274285D01*
X28710000Y-99131428D01*
X28757619Y-99083809D01*
X28662380Y-98798095D02*
X28662380Y-98226666D01*
X29662380Y-98512380D02*
X28662380Y-98512380D01*
X28757619Y-97940952D02*
X28710000Y-97893333D01*
X28662380Y-97798095D01*
X28662380Y-97560000D01*
X28710000Y-97464761D01*
X28757619Y-97417142D01*
X28852857Y-97369523D01*
X28948095Y-97369523D01*
X29090952Y-97417142D01*
X29662380Y-97988571D01*
X29662380Y-97369523D01*
X28662380Y-96464761D02*
X28662380Y-96940952D01*
X29138571Y-96988571D01*
X29090952Y-96940952D01*
X29043333Y-96845714D01*
X29043333Y-96607619D01*
X29090952Y-96512380D01*
X29138571Y-96464761D01*
X29233809Y-96417142D01*
X29471904Y-96417142D01*
X29567142Y-96464761D01*
X29614761Y-96512380D01*
X29662380Y-96607619D01*
X29662380Y-96845714D01*
X29614761Y-96940952D01*
X29567142Y-96988571D01*
X28662380Y-96083809D02*
X28662380Y-95417142D01*
X29662380Y-95845714D01*
G04 #@! TO.C,U21*
X53371904Y-77272380D02*
X53371904Y-78081904D01*
X53419523Y-78177142D01*
X53467142Y-78224761D01*
X53562380Y-78272380D01*
X53752857Y-78272380D01*
X53848095Y-78224761D01*
X53895714Y-78177142D01*
X53943333Y-78081904D01*
X53943333Y-77272380D01*
X54371904Y-77367619D02*
X54419523Y-77320000D01*
X54514761Y-77272380D01*
X54752857Y-77272380D01*
X54848095Y-77320000D01*
X54895714Y-77367619D01*
X54943333Y-77462857D01*
X54943333Y-77558095D01*
X54895714Y-77700952D01*
X54324285Y-78272380D01*
X54943333Y-78272380D01*
X55895714Y-78272380D02*
X55324285Y-78272380D01*
X55610000Y-78272380D02*
X55610000Y-77272380D01*
X55514761Y-77415238D01*
X55419523Y-77510476D01*
X55324285Y-77558095D01*
X54062380Y-87462857D02*
X54062380Y-86796190D01*
X55062380Y-87224761D01*
X54395714Y-85986666D02*
X55062380Y-85986666D01*
X54014761Y-86224761D02*
X54729047Y-86462857D01*
X54729047Y-85843809D01*
X55062380Y-85462857D02*
X54062380Y-85462857D01*
X54538571Y-85462857D02*
X54538571Y-84891428D01*
X55062380Y-84891428D02*
X54062380Y-84891428D01*
X54967142Y-83843809D02*
X55014761Y-83891428D01*
X55062380Y-84034285D01*
X55062380Y-84129523D01*
X55014761Y-84272380D01*
X54919523Y-84367619D01*
X54824285Y-84415238D01*
X54633809Y-84462857D01*
X54490952Y-84462857D01*
X54300476Y-84415238D01*
X54205238Y-84367619D01*
X54110000Y-84272380D01*
X54062380Y-84129523D01*
X54062380Y-84034285D01*
X54110000Y-83891428D01*
X54157619Y-83843809D01*
X54062380Y-83558095D02*
X54062380Y-82986666D01*
X55062380Y-83272380D02*
X54062380Y-83272380D01*
X54157619Y-82700952D02*
X54110000Y-82653333D01*
X54062380Y-82558095D01*
X54062380Y-82320000D01*
X54110000Y-82224761D01*
X54157619Y-82177142D01*
X54252857Y-82129523D01*
X54348095Y-82129523D01*
X54490952Y-82177142D01*
X55062380Y-82748571D01*
X55062380Y-82129523D01*
X54062380Y-81796190D02*
X54062380Y-81177142D01*
X54443333Y-81510476D01*
X54443333Y-81367619D01*
X54490952Y-81272380D01*
X54538571Y-81224761D01*
X54633809Y-81177142D01*
X54871904Y-81177142D01*
X54967142Y-81224761D01*
X55014761Y-81272380D01*
X55062380Y-81367619D01*
X55062380Y-81653333D01*
X55014761Y-81748571D01*
X54967142Y-81796190D01*
X54490952Y-80605714D02*
X54443333Y-80700952D01*
X54395714Y-80748571D01*
X54300476Y-80796190D01*
X54252857Y-80796190D01*
X54157619Y-80748571D01*
X54110000Y-80700952D01*
X54062380Y-80605714D01*
X54062380Y-80415238D01*
X54110000Y-80320000D01*
X54157619Y-80272380D01*
X54252857Y-80224761D01*
X54300476Y-80224761D01*
X54395714Y-80272380D01*
X54443333Y-80320000D01*
X54490952Y-80415238D01*
X54490952Y-80605714D01*
X54538571Y-80700952D01*
X54586190Y-80748571D01*
X54681428Y-80796190D01*
X54871904Y-80796190D01*
X54967142Y-80748571D01*
X55014761Y-80700952D01*
X55062380Y-80605714D01*
X55062380Y-80415238D01*
X55014761Y-80320000D01*
X54967142Y-80272380D01*
X54871904Y-80224761D01*
X54681428Y-80224761D01*
X54586190Y-80272380D01*
X54538571Y-80320000D01*
X54490952Y-80415238D01*
G04 #@! TO.C,U20*
X40671904Y-77272380D02*
X40671904Y-78081904D01*
X40719523Y-78177142D01*
X40767142Y-78224761D01*
X40862380Y-78272380D01*
X41052857Y-78272380D01*
X41148095Y-78224761D01*
X41195714Y-78177142D01*
X41243333Y-78081904D01*
X41243333Y-77272380D01*
X41671904Y-77367619D02*
X41719523Y-77320000D01*
X41814761Y-77272380D01*
X42052857Y-77272380D01*
X42148095Y-77320000D01*
X42195714Y-77367619D01*
X42243333Y-77462857D01*
X42243333Y-77558095D01*
X42195714Y-77700952D01*
X41624285Y-78272380D01*
X42243333Y-78272380D01*
X42862380Y-77272380D02*
X42957619Y-77272380D01*
X43052857Y-77320000D01*
X43100476Y-77367619D01*
X43148095Y-77462857D01*
X43195714Y-77653333D01*
X43195714Y-77891428D01*
X43148095Y-78081904D01*
X43100476Y-78177142D01*
X43052857Y-78224761D01*
X42957619Y-78272380D01*
X42862380Y-78272380D01*
X42767142Y-78224761D01*
X42719523Y-78177142D01*
X42671904Y-78081904D01*
X42624285Y-77891428D01*
X42624285Y-77653333D01*
X42671904Y-77462857D01*
X42719523Y-77367619D01*
X42767142Y-77320000D01*
X42862380Y-77272380D01*
X41362380Y-87462857D02*
X41362380Y-86796190D01*
X42362380Y-87224761D01*
X41695714Y-85986666D02*
X42362380Y-85986666D01*
X41314761Y-86224761D02*
X42029047Y-86462857D01*
X42029047Y-85843809D01*
X42362380Y-85462857D02*
X41362380Y-85462857D01*
X41838571Y-85462857D02*
X41838571Y-84891428D01*
X42362380Y-84891428D02*
X41362380Y-84891428D01*
X42267142Y-83843809D02*
X42314761Y-83891428D01*
X42362380Y-84034285D01*
X42362380Y-84129523D01*
X42314761Y-84272380D01*
X42219523Y-84367619D01*
X42124285Y-84415238D01*
X41933809Y-84462857D01*
X41790952Y-84462857D01*
X41600476Y-84415238D01*
X41505238Y-84367619D01*
X41410000Y-84272380D01*
X41362380Y-84129523D01*
X41362380Y-84034285D01*
X41410000Y-83891428D01*
X41457619Y-83843809D01*
X41362380Y-83558095D02*
X41362380Y-82986666D01*
X42362380Y-83272380D02*
X41362380Y-83272380D01*
X41457619Y-82700952D02*
X41410000Y-82653333D01*
X41362380Y-82558095D01*
X41362380Y-82320000D01*
X41410000Y-82224761D01*
X41457619Y-82177142D01*
X41552857Y-82129523D01*
X41648095Y-82129523D01*
X41790952Y-82177142D01*
X42362380Y-82748571D01*
X42362380Y-82129523D01*
X41362380Y-81224761D02*
X41362380Y-81700952D01*
X41838571Y-81748571D01*
X41790952Y-81700952D01*
X41743333Y-81605714D01*
X41743333Y-81367619D01*
X41790952Y-81272380D01*
X41838571Y-81224761D01*
X41933809Y-81177142D01*
X42171904Y-81177142D01*
X42267142Y-81224761D01*
X42314761Y-81272380D01*
X42362380Y-81367619D01*
X42362380Y-81605714D01*
X42314761Y-81700952D01*
X42267142Y-81748571D01*
X41362380Y-80843809D02*
X41362380Y-80177142D01*
X42362380Y-80605714D01*
G04 #@! TO.C,U19*
X27971904Y-77272380D02*
X27971904Y-78081904D01*
X28019523Y-78177142D01*
X28067142Y-78224761D01*
X28162380Y-78272380D01*
X28352857Y-78272380D01*
X28448095Y-78224761D01*
X28495714Y-78177142D01*
X28543333Y-78081904D01*
X28543333Y-77272380D01*
X29543333Y-78272380D02*
X28971904Y-78272380D01*
X29257619Y-78272380D02*
X29257619Y-77272380D01*
X29162380Y-77415238D01*
X29067142Y-77510476D01*
X28971904Y-77558095D01*
X30019523Y-78272380D02*
X30210000Y-78272380D01*
X30305238Y-78224761D01*
X30352857Y-78177142D01*
X30448095Y-78034285D01*
X30495714Y-77843809D01*
X30495714Y-77462857D01*
X30448095Y-77367619D01*
X30400476Y-77320000D01*
X30305238Y-77272380D01*
X30114761Y-77272380D01*
X30019523Y-77320000D01*
X29971904Y-77367619D01*
X29924285Y-77462857D01*
X29924285Y-77700952D01*
X29971904Y-77796190D01*
X30019523Y-77843809D01*
X30114761Y-77891428D01*
X30305238Y-77891428D01*
X30400476Y-77843809D01*
X30448095Y-77796190D01*
X30495714Y-77700952D01*
X28662380Y-87462857D02*
X28662380Y-86796190D01*
X29662380Y-87224761D01*
X28995714Y-85986666D02*
X29662380Y-85986666D01*
X28614761Y-86224761D02*
X29329047Y-86462857D01*
X29329047Y-85843809D01*
X29662380Y-85462857D02*
X28662380Y-85462857D01*
X29138571Y-85462857D02*
X29138571Y-84891428D01*
X29662380Y-84891428D02*
X28662380Y-84891428D01*
X29567142Y-83843809D02*
X29614761Y-83891428D01*
X29662380Y-84034285D01*
X29662380Y-84129523D01*
X29614761Y-84272380D01*
X29519523Y-84367619D01*
X29424285Y-84415238D01*
X29233809Y-84462857D01*
X29090952Y-84462857D01*
X28900476Y-84415238D01*
X28805238Y-84367619D01*
X28710000Y-84272380D01*
X28662380Y-84129523D01*
X28662380Y-84034285D01*
X28710000Y-83891428D01*
X28757619Y-83843809D01*
X28662380Y-83558095D02*
X28662380Y-82986666D01*
X29662380Y-83272380D02*
X28662380Y-83272380D01*
X28757619Y-82700952D02*
X28710000Y-82653333D01*
X28662380Y-82558095D01*
X28662380Y-82320000D01*
X28710000Y-82224761D01*
X28757619Y-82177142D01*
X28852857Y-82129523D01*
X28948095Y-82129523D01*
X29090952Y-82177142D01*
X29662380Y-82748571D01*
X29662380Y-82129523D01*
X28662380Y-81224761D02*
X28662380Y-81700952D01*
X29138571Y-81748571D01*
X29090952Y-81700952D01*
X29043333Y-81605714D01*
X29043333Y-81367619D01*
X29090952Y-81272380D01*
X29138571Y-81224761D01*
X29233809Y-81177142D01*
X29471904Y-81177142D01*
X29567142Y-81224761D01*
X29614761Y-81272380D01*
X29662380Y-81367619D01*
X29662380Y-81605714D01*
X29614761Y-81700952D01*
X29567142Y-81748571D01*
X28662380Y-80843809D02*
X28662380Y-80177142D01*
X29662380Y-80605714D01*
G04 #@! TO.C,U24*
X85121904Y-77042380D02*
X85121904Y-77851904D01*
X85169523Y-77947142D01*
X85217142Y-77994761D01*
X85312380Y-78042380D01*
X85502857Y-78042380D01*
X85598095Y-77994761D01*
X85645714Y-77947142D01*
X85693333Y-77851904D01*
X85693333Y-77042380D01*
X86121904Y-77137619D02*
X86169523Y-77090000D01*
X86264761Y-77042380D01*
X86502857Y-77042380D01*
X86598095Y-77090000D01*
X86645714Y-77137619D01*
X86693333Y-77232857D01*
X86693333Y-77328095D01*
X86645714Y-77470952D01*
X86074285Y-78042380D01*
X86693333Y-78042380D01*
X87550476Y-77375714D02*
X87550476Y-78042380D01*
X87312380Y-76994761D02*
X87074285Y-77709047D01*
X87693333Y-77709047D01*
X85812380Y-88732857D02*
X85812380Y-88066190D01*
X86812380Y-88494761D01*
X86145714Y-87256666D02*
X86812380Y-87256666D01*
X85764761Y-87494761D02*
X86479047Y-87732857D01*
X86479047Y-87113809D01*
X86812380Y-86732857D02*
X85812380Y-86732857D01*
X86288571Y-86732857D02*
X86288571Y-86161428D01*
X86812380Y-86161428D02*
X85812380Y-86161428D01*
X86717142Y-85113809D02*
X86764761Y-85161428D01*
X86812380Y-85304285D01*
X86812380Y-85399523D01*
X86764761Y-85542380D01*
X86669523Y-85637619D01*
X86574285Y-85685238D01*
X86383809Y-85732857D01*
X86240952Y-85732857D01*
X86050476Y-85685238D01*
X85955238Y-85637619D01*
X85860000Y-85542380D01*
X85812380Y-85399523D01*
X85812380Y-85304285D01*
X85860000Y-85161428D01*
X85907619Y-85113809D01*
X85812380Y-84828095D02*
X85812380Y-84256666D01*
X86812380Y-84542380D02*
X85812380Y-84542380D01*
X85907619Y-83970952D02*
X85860000Y-83923333D01*
X85812380Y-83828095D01*
X85812380Y-83590000D01*
X85860000Y-83494761D01*
X85907619Y-83447142D01*
X86002857Y-83399523D01*
X86098095Y-83399523D01*
X86240952Y-83447142D01*
X86812380Y-84018571D01*
X86812380Y-83399523D01*
X86145714Y-82542380D02*
X86812380Y-82542380D01*
X85764761Y-82780476D02*
X86479047Y-83018571D01*
X86479047Y-82399523D01*
X86145714Y-81590000D02*
X86812380Y-81590000D01*
X85764761Y-81828095D02*
X86479047Y-82066190D01*
X86479047Y-81447142D01*
G04 #@! TO.C,U23*
X67976904Y-92917380D02*
X67976904Y-93726904D01*
X68024523Y-93822142D01*
X68072142Y-93869761D01*
X68167380Y-93917380D01*
X68357857Y-93917380D01*
X68453095Y-93869761D01*
X68500714Y-93822142D01*
X68548333Y-93726904D01*
X68548333Y-92917380D01*
X68976904Y-93012619D02*
X69024523Y-92965000D01*
X69119761Y-92917380D01*
X69357857Y-92917380D01*
X69453095Y-92965000D01*
X69500714Y-93012619D01*
X69548333Y-93107857D01*
X69548333Y-93203095D01*
X69500714Y-93345952D01*
X68929285Y-93917380D01*
X69548333Y-93917380D01*
X69881666Y-92917380D02*
X70500714Y-92917380D01*
X70167380Y-93298333D01*
X70310238Y-93298333D01*
X70405476Y-93345952D01*
X70453095Y-93393571D01*
X70500714Y-93488809D01*
X70500714Y-93726904D01*
X70453095Y-93822142D01*
X70405476Y-93869761D01*
X70310238Y-93917380D01*
X70024523Y-93917380D01*
X69929285Y-93869761D01*
X69881666Y-93822142D01*
X68667380Y-104607857D02*
X68667380Y-103941190D01*
X69667380Y-104369761D01*
X69000714Y-103131666D02*
X69667380Y-103131666D01*
X68619761Y-103369761D02*
X69334047Y-103607857D01*
X69334047Y-102988809D01*
X69667380Y-102607857D02*
X68667380Y-102607857D01*
X69143571Y-102607857D02*
X69143571Y-102036428D01*
X69667380Y-102036428D02*
X68667380Y-102036428D01*
X69572142Y-100988809D02*
X69619761Y-101036428D01*
X69667380Y-101179285D01*
X69667380Y-101274523D01*
X69619761Y-101417380D01*
X69524523Y-101512619D01*
X69429285Y-101560238D01*
X69238809Y-101607857D01*
X69095952Y-101607857D01*
X68905476Y-101560238D01*
X68810238Y-101512619D01*
X68715000Y-101417380D01*
X68667380Y-101274523D01*
X68667380Y-101179285D01*
X68715000Y-101036428D01*
X68762619Y-100988809D01*
X68667380Y-100703095D02*
X68667380Y-100131666D01*
X69667380Y-100417380D02*
X68667380Y-100417380D01*
X68762619Y-99845952D02*
X68715000Y-99798333D01*
X68667380Y-99703095D01*
X68667380Y-99465000D01*
X68715000Y-99369761D01*
X68762619Y-99322142D01*
X68857857Y-99274523D01*
X68953095Y-99274523D01*
X69095952Y-99322142D01*
X69667380Y-99893571D01*
X69667380Y-99274523D01*
X69000714Y-98417380D02*
X69667380Y-98417380D01*
X68619761Y-98655476D02*
X69334047Y-98893571D01*
X69334047Y-98274523D01*
X69000714Y-97465000D02*
X69667380Y-97465000D01*
X68619761Y-97703095D02*
X69334047Y-97941190D01*
X69334047Y-97322142D01*
G04 #@! TO.C,U18*
X85121904Y-92917380D02*
X85121904Y-93726904D01*
X85169523Y-93822142D01*
X85217142Y-93869761D01*
X85312380Y-93917380D01*
X85502857Y-93917380D01*
X85598095Y-93869761D01*
X85645714Y-93822142D01*
X85693333Y-93726904D01*
X85693333Y-92917380D01*
X86693333Y-93917380D02*
X86121904Y-93917380D01*
X86407619Y-93917380D02*
X86407619Y-92917380D01*
X86312380Y-93060238D01*
X86217142Y-93155476D01*
X86121904Y-93203095D01*
X87264761Y-93345952D02*
X87169523Y-93298333D01*
X87121904Y-93250714D01*
X87074285Y-93155476D01*
X87074285Y-93107857D01*
X87121904Y-93012619D01*
X87169523Y-92965000D01*
X87264761Y-92917380D01*
X87455238Y-92917380D01*
X87550476Y-92965000D01*
X87598095Y-93012619D01*
X87645714Y-93107857D01*
X87645714Y-93155476D01*
X87598095Y-93250714D01*
X87550476Y-93298333D01*
X87455238Y-93345952D01*
X87264761Y-93345952D01*
X87169523Y-93393571D01*
X87121904Y-93441190D01*
X87074285Y-93536428D01*
X87074285Y-93726904D01*
X87121904Y-93822142D01*
X87169523Y-93869761D01*
X87264761Y-93917380D01*
X87455238Y-93917380D01*
X87550476Y-93869761D01*
X87598095Y-93822142D01*
X87645714Y-93726904D01*
X87645714Y-93536428D01*
X87598095Y-93441190D01*
X87550476Y-93393571D01*
X87455238Y-93345952D01*
X85812380Y-104607857D02*
X85812380Y-103941190D01*
X86812380Y-104369761D01*
X86145714Y-103131666D02*
X86812380Y-103131666D01*
X85764761Y-103369761D02*
X86479047Y-103607857D01*
X86479047Y-102988809D01*
X86812380Y-102607857D02*
X85812380Y-102607857D01*
X86288571Y-102607857D02*
X86288571Y-102036428D01*
X86812380Y-102036428D02*
X85812380Y-102036428D01*
X86717142Y-100988809D02*
X86764761Y-101036428D01*
X86812380Y-101179285D01*
X86812380Y-101274523D01*
X86764761Y-101417380D01*
X86669523Y-101512619D01*
X86574285Y-101560238D01*
X86383809Y-101607857D01*
X86240952Y-101607857D01*
X86050476Y-101560238D01*
X85955238Y-101512619D01*
X85860000Y-101417380D01*
X85812380Y-101274523D01*
X85812380Y-101179285D01*
X85860000Y-101036428D01*
X85907619Y-100988809D01*
X85812380Y-100703095D02*
X85812380Y-100131666D01*
X86812380Y-100417380D02*
X85812380Y-100417380D01*
X85907619Y-99845952D02*
X85860000Y-99798333D01*
X85812380Y-99703095D01*
X85812380Y-99465000D01*
X85860000Y-99369761D01*
X85907619Y-99322142D01*
X86002857Y-99274523D01*
X86098095Y-99274523D01*
X86240952Y-99322142D01*
X86812380Y-99893571D01*
X86812380Y-99274523D01*
X86145714Y-98417380D02*
X86812380Y-98417380D01*
X85764761Y-98655476D02*
X86479047Y-98893571D01*
X86479047Y-98274523D01*
X86145714Y-97465000D02*
X86812380Y-97465000D01*
X85764761Y-97703095D02*
X86479047Y-97941190D01*
X86479047Y-97322142D01*
G04 #@! TO.C,U17*
X67976904Y-77042380D02*
X67976904Y-77851904D01*
X68024523Y-77947142D01*
X68072142Y-77994761D01*
X68167380Y-78042380D01*
X68357857Y-78042380D01*
X68453095Y-77994761D01*
X68500714Y-77947142D01*
X68548333Y-77851904D01*
X68548333Y-77042380D01*
X69548333Y-78042380D02*
X68976904Y-78042380D01*
X69262619Y-78042380D02*
X69262619Y-77042380D01*
X69167380Y-77185238D01*
X69072142Y-77280476D01*
X68976904Y-77328095D01*
X69881666Y-77042380D02*
X70548333Y-77042380D01*
X70119761Y-78042380D01*
X68667380Y-88732857D02*
X68667380Y-88066190D01*
X69667380Y-88494761D01*
X69000714Y-87256666D02*
X69667380Y-87256666D01*
X68619761Y-87494761D02*
X69334047Y-87732857D01*
X69334047Y-87113809D01*
X69667380Y-86732857D02*
X68667380Y-86732857D01*
X69143571Y-86732857D02*
X69143571Y-86161428D01*
X69667380Y-86161428D02*
X68667380Y-86161428D01*
X69572142Y-85113809D02*
X69619761Y-85161428D01*
X69667380Y-85304285D01*
X69667380Y-85399523D01*
X69619761Y-85542380D01*
X69524523Y-85637619D01*
X69429285Y-85685238D01*
X69238809Y-85732857D01*
X69095952Y-85732857D01*
X68905476Y-85685238D01*
X68810238Y-85637619D01*
X68715000Y-85542380D01*
X68667380Y-85399523D01*
X68667380Y-85304285D01*
X68715000Y-85161428D01*
X68762619Y-85113809D01*
X68667380Y-84828095D02*
X68667380Y-84256666D01*
X69667380Y-84542380D02*
X68667380Y-84542380D01*
X68762619Y-83970952D02*
X68715000Y-83923333D01*
X68667380Y-83828095D01*
X68667380Y-83590000D01*
X68715000Y-83494761D01*
X68762619Y-83447142D01*
X68857857Y-83399523D01*
X68953095Y-83399523D01*
X69095952Y-83447142D01*
X69667380Y-84018571D01*
X69667380Y-83399523D01*
X69000714Y-82542380D02*
X69667380Y-82542380D01*
X68619761Y-82780476D02*
X69334047Y-83018571D01*
X69334047Y-82399523D01*
X69000714Y-81590000D02*
X69667380Y-81590000D01*
X68619761Y-81828095D02*
X69334047Y-82066190D01*
X69334047Y-81447142D01*
G04 #@! TO.C,U10*
X57816904Y-48982380D02*
X57816904Y-49791904D01*
X57864523Y-49887142D01*
X57912142Y-49934761D01*
X58007380Y-49982380D01*
X58197857Y-49982380D01*
X58293095Y-49934761D01*
X58340714Y-49887142D01*
X58388333Y-49791904D01*
X58388333Y-48982380D01*
X59388333Y-49982380D02*
X58816904Y-49982380D01*
X59102619Y-49982380D02*
X59102619Y-48982380D01*
X59007380Y-49125238D01*
X58912142Y-49220476D01*
X58816904Y-49268095D01*
X60007380Y-48982380D02*
X60102619Y-48982380D01*
X60197857Y-49030000D01*
X60245476Y-49077619D01*
X60293095Y-49172857D01*
X60340714Y-49363333D01*
X60340714Y-49601428D01*
X60293095Y-49791904D01*
X60245476Y-49887142D01*
X60197857Y-49934761D01*
X60102619Y-49982380D01*
X60007380Y-49982380D01*
X59912142Y-49934761D01*
X59864523Y-49887142D01*
X59816904Y-49791904D01*
X59769285Y-49601428D01*
X59769285Y-49363333D01*
X59816904Y-49172857D01*
X59864523Y-49077619D01*
X59912142Y-49030000D01*
X60007380Y-48982380D01*
X59507380Y-69610952D02*
X58507380Y-69610952D01*
X59459761Y-69182380D02*
X59507380Y-69039523D01*
X59507380Y-68801428D01*
X59459761Y-68706190D01*
X59412142Y-68658571D01*
X59316904Y-68610952D01*
X59221666Y-68610952D01*
X59126428Y-68658571D01*
X59078809Y-68706190D01*
X59031190Y-68801428D01*
X58983571Y-68991904D01*
X58935952Y-69087142D01*
X58888333Y-69134761D01*
X58793095Y-69182380D01*
X58697857Y-69182380D01*
X58602619Y-69134761D01*
X58555000Y-69087142D01*
X58507380Y-68991904D01*
X58507380Y-68753809D01*
X58555000Y-68610952D01*
X58507380Y-67753809D02*
X58507380Y-67944285D01*
X58555000Y-68039523D01*
X58602619Y-68087142D01*
X58745476Y-68182380D01*
X58935952Y-68230000D01*
X59316904Y-68230000D01*
X59412142Y-68182380D01*
X59459761Y-68134761D01*
X59507380Y-68039523D01*
X59507380Y-67849047D01*
X59459761Y-67753809D01*
X59412142Y-67706190D01*
X59316904Y-67658571D01*
X59078809Y-67658571D01*
X58983571Y-67706190D01*
X58935952Y-67753809D01*
X58888333Y-67849047D01*
X58888333Y-68039523D01*
X58935952Y-68134761D01*
X58983571Y-68182380D01*
X59078809Y-68230000D01*
X59507380Y-66706190D02*
X59507380Y-67277619D01*
X59507380Y-66991904D02*
X58507380Y-66991904D01*
X58650238Y-67087142D01*
X58745476Y-67182380D01*
X58793095Y-67277619D01*
X59412142Y-65706190D02*
X59459761Y-65753809D01*
X59507380Y-65896666D01*
X59507380Y-65991904D01*
X59459761Y-66134761D01*
X59364523Y-66230000D01*
X59269285Y-66277619D01*
X59078809Y-66325238D01*
X58935952Y-66325238D01*
X58745476Y-66277619D01*
X58650238Y-66230000D01*
X58555000Y-66134761D01*
X58507380Y-65991904D01*
X58507380Y-65896666D01*
X58555000Y-65753809D01*
X58602619Y-65706190D01*
X58507380Y-64801428D02*
X58507380Y-65277619D01*
X58983571Y-65325238D01*
X58935952Y-65277619D01*
X58888333Y-65182380D01*
X58888333Y-64944285D01*
X58935952Y-64849047D01*
X58983571Y-64801428D01*
X59078809Y-64753809D01*
X59316904Y-64753809D01*
X59412142Y-64801428D01*
X59459761Y-64849047D01*
X59507380Y-64944285D01*
X59507380Y-65182380D01*
X59459761Y-65277619D01*
X59412142Y-65325238D01*
X59507380Y-63801428D02*
X59507380Y-64372857D01*
X59507380Y-64087142D02*
X58507380Y-64087142D01*
X58650238Y-64182380D01*
X58745476Y-64277619D01*
X58793095Y-64372857D01*
X58602619Y-63420476D02*
X58555000Y-63372857D01*
X58507380Y-63277619D01*
X58507380Y-63039523D01*
X58555000Y-62944285D01*
X58602619Y-62896666D01*
X58697857Y-62849047D01*
X58793095Y-62849047D01*
X58935952Y-62896666D01*
X59507380Y-63468095D01*
X59507380Y-62849047D01*
X58935952Y-62277619D02*
X58888333Y-62372857D01*
X58840714Y-62420476D01*
X58745476Y-62468095D01*
X58697857Y-62468095D01*
X58602619Y-62420476D01*
X58555000Y-62372857D01*
X58507380Y-62277619D01*
X58507380Y-62087142D01*
X58555000Y-61991904D01*
X58602619Y-61944285D01*
X58697857Y-61896666D01*
X58745476Y-61896666D01*
X58840714Y-61944285D01*
X58888333Y-61991904D01*
X58935952Y-62087142D01*
X58935952Y-62277619D01*
X58983571Y-62372857D01*
X59031190Y-62420476D01*
X59126428Y-62468095D01*
X59316904Y-62468095D01*
X59412142Y-62420476D01*
X59459761Y-62372857D01*
X59507380Y-62277619D01*
X59507380Y-62087142D01*
X59459761Y-61991904D01*
X59412142Y-61944285D01*
X59316904Y-61896666D01*
X59126428Y-61896666D01*
X59031190Y-61944285D01*
X58983571Y-61991904D01*
X58935952Y-62087142D01*
X59221666Y-61515714D02*
X59221666Y-61039523D01*
X59507380Y-61610952D02*
X58507380Y-61277619D01*
X59507380Y-60944285D01*
X59507380Y-60134761D02*
X59507380Y-60610952D01*
X58507380Y-60610952D01*
X59126428Y-59801428D02*
X59126428Y-59039523D01*
X59507380Y-58039523D02*
X59507380Y-58610952D01*
X59507380Y-58325238D02*
X58507380Y-58325238D01*
X58650238Y-58420476D01*
X58745476Y-58515714D01*
X58793095Y-58610952D01*
X58507380Y-57420476D02*
X58507380Y-57325238D01*
X58555000Y-57230000D01*
X58602619Y-57182380D01*
X58697857Y-57134761D01*
X58888333Y-57087142D01*
X59126428Y-57087142D01*
X59316904Y-57134761D01*
X59412142Y-57182380D01*
X59459761Y-57230000D01*
X59507380Y-57325238D01*
X59507380Y-57420476D01*
X59459761Y-57515714D01*
X59412142Y-57563333D01*
X59316904Y-57610952D01*
X59126428Y-57658571D01*
X58888333Y-57658571D01*
X58697857Y-57610952D01*
X58602619Y-57563333D01*
X58555000Y-57515714D01*
X58507380Y-57420476D01*
X59507380Y-56658571D02*
X58507380Y-56658571D01*
X59507380Y-56087142D02*
X58935952Y-56515714D01*
X58507380Y-56087142D02*
X59078809Y-56658571D01*
X59507380Y-55182380D02*
X59507380Y-55658571D01*
X58507380Y-55658571D01*
X59507380Y-54849047D02*
X58507380Y-54849047D01*
G04 #@! TO.C,U12*
X100996904Y-48982380D02*
X100996904Y-49791904D01*
X101044523Y-49887142D01*
X101092142Y-49934761D01*
X101187380Y-49982380D01*
X101377857Y-49982380D01*
X101473095Y-49934761D01*
X101520714Y-49887142D01*
X101568333Y-49791904D01*
X101568333Y-48982380D01*
X102568333Y-49982380D02*
X101996904Y-49982380D01*
X102282619Y-49982380D02*
X102282619Y-48982380D01*
X102187380Y-49125238D01*
X102092142Y-49220476D01*
X101996904Y-49268095D01*
X102949285Y-49077619D02*
X102996904Y-49030000D01*
X103092142Y-48982380D01*
X103330238Y-48982380D01*
X103425476Y-49030000D01*
X103473095Y-49077619D01*
X103520714Y-49172857D01*
X103520714Y-49268095D01*
X103473095Y-49410952D01*
X102901666Y-49982380D01*
X103520714Y-49982380D01*
X102687380Y-69610952D02*
X101687380Y-69610952D01*
X102639761Y-69182380D02*
X102687380Y-69039523D01*
X102687380Y-68801428D01*
X102639761Y-68706190D01*
X102592142Y-68658571D01*
X102496904Y-68610952D01*
X102401666Y-68610952D01*
X102306428Y-68658571D01*
X102258809Y-68706190D01*
X102211190Y-68801428D01*
X102163571Y-68991904D01*
X102115952Y-69087142D01*
X102068333Y-69134761D01*
X101973095Y-69182380D01*
X101877857Y-69182380D01*
X101782619Y-69134761D01*
X101735000Y-69087142D01*
X101687380Y-68991904D01*
X101687380Y-68753809D01*
X101735000Y-68610952D01*
X101687380Y-67753809D02*
X101687380Y-67944285D01*
X101735000Y-68039523D01*
X101782619Y-68087142D01*
X101925476Y-68182380D01*
X102115952Y-68230000D01*
X102496904Y-68230000D01*
X102592142Y-68182380D01*
X102639761Y-68134761D01*
X102687380Y-68039523D01*
X102687380Y-67849047D01*
X102639761Y-67753809D01*
X102592142Y-67706190D01*
X102496904Y-67658571D01*
X102258809Y-67658571D01*
X102163571Y-67706190D01*
X102115952Y-67753809D01*
X102068333Y-67849047D01*
X102068333Y-68039523D01*
X102115952Y-68134761D01*
X102163571Y-68182380D01*
X102258809Y-68230000D01*
X102687380Y-66706190D02*
X102687380Y-67277619D01*
X102687380Y-66991904D02*
X101687380Y-66991904D01*
X101830238Y-67087142D01*
X101925476Y-67182380D01*
X101973095Y-67277619D01*
X102592142Y-65706190D02*
X102639761Y-65753809D01*
X102687380Y-65896666D01*
X102687380Y-65991904D01*
X102639761Y-66134761D01*
X102544523Y-66230000D01*
X102449285Y-66277619D01*
X102258809Y-66325238D01*
X102115952Y-66325238D01*
X101925476Y-66277619D01*
X101830238Y-66230000D01*
X101735000Y-66134761D01*
X101687380Y-65991904D01*
X101687380Y-65896666D01*
X101735000Y-65753809D01*
X101782619Y-65706190D01*
X101687380Y-64801428D02*
X101687380Y-65277619D01*
X102163571Y-65325238D01*
X102115952Y-65277619D01*
X102068333Y-65182380D01*
X102068333Y-64944285D01*
X102115952Y-64849047D01*
X102163571Y-64801428D01*
X102258809Y-64753809D01*
X102496904Y-64753809D01*
X102592142Y-64801428D01*
X102639761Y-64849047D01*
X102687380Y-64944285D01*
X102687380Y-65182380D01*
X102639761Y-65277619D01*
X102592142Y-65325238D01*
X102687380Y-63801428D02*
X102687380Y-64372857D01*
X102687380Y-64087142D02*
X101687380Y-64087142D01*
X101830238Y-64182380D01*
X101925476Y-64277619D01*
X101973095Y-64372857D01*
X101782619Y-63420476D02*
X101735000Y-63372857D01*
X101687380Y-63277619D01*
X101687380Y-63039523D01*
X101735000Y-62944285D01*
X101782619Y-62896666D01*
X101877857Y-62849047D01*
X101973095Y-62849047D01*
X102115952Y-62896666D01*
X102687380Y-63468095D01*
X102687380Y-62849047D01*
X102115952Y-62277619D02*
X102068333Y-62372857D01*
X102020714Y-62420476D01*
X101925476Y-62468095D01*
X101877857Y-62468095D01*
X101782619Y-62420476D01*
X101735000Y-62372857D01*
X101687380Y-62277619D01*
X101687380Y-62087142D01*
X101735000Y-61991904D01*
X101782619Y-61944285D01*
X101877857Y-61896666D01*
X101925476Y-61896666D01*
X102020714Y-61944285D01*
X102068333Y-61991904D01*
X102115952Y-62087142D01*
X102115952Y-62277619D01*
X102163571Y-62372857D01*
X102211190Y-62420476D01*
X102306428Y-62468095D01*
X102496904Y-62468095D01*
X102592142Y-62420476D01*
X102639761Y-62372857D01*
X102687380Y-62277619D01*
X102687380Y-62087142D01*
X102639761Y-61991904D01*
X102592142Y-61944285D01*
X102496904Y-61896666D01*
X102306428Y-61896666D01*
X102211190Y-61944285D01*
X102163571Y-61991904D01*
X102115952Y-62087142D01*
X102401666Y-61515714D02*
X102401666Y-61039523D01*
X102687380Y-61610952D02*
X101687380Y-61277619D01*
X102687380Y-60944285D01*
X102687380Y-60134761D02*
X102687380Y-60610952D01*
X101687380Y-60610952D01*
X102306428Y-59801428D02*
X102306428Y-59039523D01*
X102687380Y-58039523D02*
X102687380Y-58610952D01*
X102687380Y-58325238D02*
X101687380Y-58325238D01*
X101830238Y-58420476D01*
X101925476Y-58515714D01*
X101973095Y-58610952D01*
X101687380Y-57420476D02*
X101687380Y-57325238D01*
X101735000Y-57230000D01*
X101782619Y-57182380D01*
X101877857Y-57134761D01*
X102068333Y-57087142D01*
X102306428Y-57087142D01*
X102496904Y-57134761D01*
X102592142Y-57182380D01*
X102639761Y-57230000D01*
X102687380Y-57325238D01*
X102687380Y-57420476D01*
X102639761Y-57515714D01*
X102592142Y-57563333D01*
X102496904Y-57610952D01*
X102306428Y-57658571D01*
X102068333Y-57658571D01*
X101877857Y-57610952D01*
X101782619Y-57563333D01*
X101735000Y-57515714D01*
X101687380Y-57420476D01*
X102687380Y-56658571D02*
X101687380Y-56658571D01*
X102687380Y-56087142D02*
X102115952Y-56515714D01*
X101687380Y-56087142D02*
X102258809Y-56658571D01*
X102687380Y-55182380D02*
X102687380Y-55658571D01*
X101687380Y-55658571D01*
X102687380Y-54849047D02*
X101687380Y-54849047D01*
G04 #@! TO.C,U11*
X79406904Y-48982380D02*
X79406904Y-49791904D01*
X79454523Y-49887142D01*
X79502142Y-49934761D01*
X79597380Y-49982380D01*
X79787857Y-49982380D01*
X79883095Y-49934761D01*
X79930714Y-49887142D01*
X79978333Y-49791904D01*
X79978333Y-48982380D01*
X80978333Y-49982380D02*
X80406904Y-49982380D01*
X80692619Y-49982380D02*
X80692619Y-48982380D01*
X80597380Y-49125238D01*
X80502142Y-49220476D01*
X80406904Y-49268095D01*
X81930714Y-49982380D02*
X81359285Y-49982380D01*
X81645000Y-49982380D02*
X81645000Y-48982380D01*
X81549761Y-49125238D01*
X81454523Y-49220476D01*
X81359285Y-49268095D01*
X81097380Y-69610952D02*
X80097380Y-69610952D01*
X81049761Y-69182380D02*
X81097380Y-69039523D01*
X81097380Y-68801428D01*
X81049761Y-68706190D01*
X81002142Y-68658571D01*
X80906904Y-68610952D01*
X80811666Y-68610952D01*
X80716428Y-68658571D01*
X80668809Y-68706190D01*
X80621190Y-68801428D01*
X80573571Y-68991904D01*
X80525952Y-69087142D01*
X80478333Y-69134761D01*
X80383095Y-69182380D01*
X80287857Y-69182380D01*
X80192619Y-69134761D01*
X80145000Y-69087142D01*
X80097380Y-68991904D01*
X80097380Y-68753809D01*
X80145000Y-68610952D01*
X80097380Y-67753809D02*
X80097380Y-67944285D01*
X80145000Y-68039523D01*
X80192619Y-68087142D01*
X80335476Y-68182380D01*
X80525952Y-68230000D01*
X80906904Y-68230000D01*
X81002142Y-68182380D01*
X81049761Y-68134761D01*
X81097380Y-68039523D01*
X81097380Y-67849047D01*
X81049761Y-67753809D01*
X81002142Y-67706190D01*
X80906904Y-67658571D01*
X80668809Y-67658571D01*
X80573571Y-67706190D01*
X80525952Y-67753809D01*
X80478333Y-67849047D01*
X80478333Y-68039523D01*
X80525952Y-68134761D01*
X80573571Y-68182380D01*
X80668809Y-68230000D01*
X81097380Y-66706190D02*
X81097380Y-67277619D01*
X81097380Y-66991904D02*
X80097380Y-66991904D01*
X80240238Y-67087142D01*
X80335476Y-67182380D01*
X80383095Y-67277619D01*
X81002142Y-65706190D02*
X81049761Y-65753809D01*
X81097380Y-65896666D01*
X81097380Y-65991904D01*
X81049761Y-66134761D01*
X80954523Y-66230000D01*
X80859285Y-66277619D01*
X80668809Y-66325238D01*
X80525952Y-66325238D01*
X80335476Y-66277619D01*
X80240238Y-66230000D01*
X80145000Y-66134761D01*
X80097380Y-65991904D01*
X80097380Y-65896666D01*
X80145000Y-65753809D01*
X80192619Y-65706190D01*
X80097380Y-64801428D02*
X80097380Y-65277619D01*
X80573571Y-65325238D01*
X80525952Y-65277619D01*
X80478333Y-65182380D01*
X80478333Y-64944285D01*
X80525952Y-64849047D01*
X80573571Y-64801428D01*
X80668809Y-64753809D01*
X80906904Y-64753809D01*
X81002142Y-64801428D01*
X81049761Y-64849047D01*
X81097380Y-64944285D01*
X81097380Y-65182380D01*
X81049761Y-65277619D01*
X81002142Y-65325238D01*
X81097380Y-63801428D02*
X81097380Y-64372857D01*
X81097380Y-64087142D02*
X80097380Y-64087142D01*
X80240238Y-64182380D01*
X80335476Y-64277619D01*
X80383095Y-64372857D01*
X80192619Y-63420476D02*
X80145000Y-63372857D01*
X80097380Y-63277619D01*
X80097380Y-63039523D01*
X80145000Y-62944285D01*
X80192619Y-62896666D01*
X80287857Y-62849047D01*
X80383095Y-62849047D01*
X80525952Y-62896666D01*
X81097380Y-63468095D01*
X81097380Y-62849047D01*
X80525952Y-62277619D02*
X80478333Y-62372857D01*
X80430714Y-62420476D01*
X80335476Y-62468095D01*
X80287857Y-62468095D01*
X80192619Y-62420476D01*
X80145000Y-62372857D01*
X80097380Y-62277619D01*
X80097380Y-62087142D01*
X80145000Y-61991904D01*
X80192619Y-61944285D01*
X80287857Y-61896666D01*
X80335476Y-61896666D01*
X80430714Y-61944285D01*
X80478333Y-61991904D01*
X80525952Y-62087142D01*
X80525952Y-62277619D01*
X80573571Y-62372857D01*
X80621190Y-62420476D01*
X80716428Y-62468095D01*
X80906904Y-62468095D01*
X81002142Y-62420476D01*
X81049761Y-62372857D01*
X81097380Y-62277619D01*
X81097380Y-62087142D01*
X81049761Y-61991904D01*
X81002142Y-61944285D01*
X80906904Y-61896666D01*
X80716428Y-61896666D01*
X80621190Y-61944285D01*
X80573571Y-61991904D01*
X80525952Y-62087142D01*
X80811666Y-61515714D02*
X80811666Y-61039523D01*
X81097380Y-61610952D02*
X80097380Y-61277619D01*
X81097380Y-60944285D01*
X81097380Y-60134761D02*
X81097380Y-60610952D01*
X80097380Y-60610952D01*
X80716428Y-59801428D02*
X80716428Y-59039523D01*
X81097380Y-58039523D02*
X81097380Y-58610952D01*
X81097380Y-58325238D02*
X80097380Y-58325238D01*
X80240238Y-58420476D01*
X80335476Y-58515714D01*
X80383095Y-58610952D01*
X80097380Y-57420476D02*
X80097380Y-57325238D01*
X80145000Y-57230000D01*
X80192619Y-57182380D01*
X80287857Y-57134761D01*
X80478333Y-57087142D01*
X80716428Y-57087142D01*
X80906904Y-57134761D01*
X81002142Y-57182380D01*
X81049761Y-57230000D01*
X81097380Y-57325238D01*
X81097380Y-57420476D01*
X81049761Y-57515714D01*
X81002142Y-57563333D01*
X80906904Y-57610952D01*
X80716428Y-57658571D01*
X80478333Y-57658571D01*
X80287857Y-57610952D01*
X80192619Y-57563333D01*
X80145000Y-57515714D01*
X80097380Y-57420476D01*
X81097380Y-56658571D02*
X80097380Y-56658571D01*
X81097380Y-56087142D02*
X80525952Y-56515714D01*
X80097380Y-56087142D02*
X80668809Y-56658571D01*
X81097380Y-55182380D02*
X81097380Y-55658571D01*
X80097380Y-55658571D01*
X81097380Y-54849047D02*
X80097380Y-54849047D01*
G04 #@! TO.C,U9*
X36703095Y-48982380D02*
X36703095Y-49791904D01*
X36750714Y-49887142D01*
X36798333Y-49934761D01*
X36893571Y-49982380D01*
X37084047Y-49982380D01*
X37179285Y-49934761D01*
X37226904Y-49887142D01*
X37274523Y-49791904D01*
X37274523Y-48982380D01*
X37798333Y-49982380D02*
X37988809Y-49982380D01*
X38084047Y-49934761D01*
X38131666Y-49887142D01*
X38226904Y-49744285D01*
X38274523Y-49553809D01*
X38274523Y-49172857D01*
X38226904Y-49077619D01*
X38179285Y-49030000D01*
X38084047Y-48982380D01*
X37893571Y-48982380D01*
X37798333Y-49030000D01*
X37750714Y-49077619D01*
X37703095Y-49172857D01*
X37703095Y-49410952D01*
X37750714Y-49506190D01*
X37798333Y-49553809D01*
X37893571Y-49601428D01*
X38084047Y-49601428D01*
X38179285Y-49553809D01*
X38226904Y-49506190D01*
X38274523Y-49410952D01*
X37917380Y-69610952D02*
X36917380Y-69610952D01*
X37869761Y-69182380D02*
X37917380Y-69039523D01*
X37917380Y-68801428D01*
X37869761Y-68706190D01*
X37822142Y-68658571D01*
X37726904Y-68610952D01*
X37631666Y-68610952D01*
X37536428Y-68658571D01*
X37488809Y-68706190D01*
X37441190Y-68801428D01*
X37393571Y-68991904D01*
X37345952Y-69087142D01*
X37298333Y-69134761D01*
X37203095Y-69182380D01*
X37107857Y-69182380D01*
X37012619Y-69134761D01*
X36965000Y-69087142D01*
X36917380Y-68991904D01*
X36917380Y-68753809D01*
X36965000Y-68610952D01*
X36917380Y-67753809D02*
X36917380Y-67944285D01*
X36965000Y-68039523D01*
X37012619Y-68087142D01*
X37155476Y-68182380D01*
X37345952Y-68230000D01*
X37726904Y-68230000D01*
X37822142Y-68182380D01*
X37869761Y-68134761D01*
X37917380Y-68039523D01*
X37917380Y-67849047D01*
X37869761Y-67753809D01*
X37822142Y-67706190D01*
X37726904Y-67658571D01*
X37488809Y-67658571D01*
X37393571Y-67706190D01*
X37345952Y-67753809D01*
X37298333Y-67849047D01*
X37298333Y-68039523D01*
X37345952Y-68134761D01*
X37393571Y-68182380D01*
X37488809Y-68230000D01*
X37917380Y-66706190D02*
X37917380Y-67277619D01*
X37917380Y-66991904D02*
X36917380Y-66991904D01*
X37060238Y-67087142D01*
X37155476Y-67182380D01*
X37203095Y-67277619D01*
X37822142Y-65706190D02*
X37869761Y-65753809D01*
X37917380Y-65896666D01*
X37917380Y-65991904D01*
X37869761Y-66134761D01*
X37774523Y-66230000D01*
X37679285Y-66277619D01*
X37488809Y-66325238D01*
X37345952Y-66325238D01*
X37155476Y-66277619D01*
X37060238Y-66230000D01*
X36965000Y-66134761D01*
X36917380Y-65991904D01*
X36917380Y-65896666D01*
X36965000Y-65753809D01*
X37012619Y-65706190D01*
X36917380Y-64801428D02*
X36917380Y-65277619D01*
X37393571Y-65325238D01*
X37345952Y-65277619D01*
X37298333Y-65182380D01*
X37298333Y-64944285D01*
X37345952Y-64849047D01*
X37393571Y-64801428D01*
X37488809Y-64753809D01*
X37726904Y-64753809D01*
X37822142Y-64801428D01*
X37869761Y-64849047D01*
X37917380Y-64944285D01*
X37917380Y-65182380D01*
X37869761Y-65277619D01*
X37822142Y-65325238D01*
X37917380Y-63801428D02*
X37917380Y-64372857D01*
X37917380Y-64087142D02*
X36917380Y-64087142D01*
X37060238Y-64182380D01*
X37155476Y-64277619D01*
X37203095Y-64372857D01*
X37012619Y-63420476D02*
X36965000Y-63372857D01*
X36917380Y-63277619D01*
X36917380Y-63039523D01*
X36965000Y-62944285D01*
X37012619Y-62896666D01*
X37107857Y-62849047D01*
X37203095Y-62849047D01*
X37345952Y-62896666D01*
X37917380Y-63468095D01*
X37917380Y-62849047D01*
X37345952Y-62277619D02*
X37298333Y-62372857D01*
X37250714Y-62420476D01*
X37155476Y-62468095D01*
X37107857Y-62468095D01*
X37012619Y-62420476D01*
X36965000Y-62372857D01*
X36917380Y-62277619D01*
X36917380Y-62087142D01*
X36965000Y-61991904D01*
X37012619Y-61944285D01*
X37107857Y-61896666D01*
X37155476Y-61896666D01*
X37250714Y-61944285D01*
X37298333Y-61991904D01*
X37345952Y-62087142D01*
X37345952Y-62277619D01*
X37393571Y-62372857D01*
X37441190Y-62420476D01*
X37536428Y-62468095D01*
X37726904Y-62468095D01*
X37822142Y-62420476D01*
X37869761Y-62372857D01*
X37917380Y-62277619D01*
X37917380Y-62087142D01*
X37869761Y-61991904D01*
X37822142Y-61944285D01*
X37726904Y-61896666D01*
X37536428Y-61896666D01*
X37441190Y-61944285D01*
X37393571Y-61991904D01*
X37345952Y-62087142D01*
X37631666Y-61515714D02*
X37631666Y-61039523D01*
X37917380Y-61610952D02*
X36917380Y-61277619D01*
X37917380Y-60944285D01*
X37917380Y-60134761D02*
X37917380Y-60610952D01*
X36917380Y-60610952D01*
X37536428Y-59801428D02*
X37536428Y-59039523D01*
X37917380Y-58039523D02*
X37917380Y-58610952D01*
X37917380Y-58325238D02*
X36917380Y-58325238D01*
X37060238Y-58420476D01*
X37155476Y-58515714D01*
X37203095Y-58610952D01*
X36917380Y-57420476D02*
X36917380Y-57325238D01*
X36965000Y-57230000D01*
X37012619Y-57182380D01*
X37107857Y-57134761D01*
X37298333Y-57087142D01*
X37536428Y-57087142D01*
X37726904Y-57134761D01*
X37822142Y-57182380D01*
X37869761Y-57230000D01*
X37917380Y-57325238D01*
X37917380Y-57420476D01*
X37869761Y-57515714D01*
X37822142Y-57563333D01*
X37726904Y-57610952D01*
X37536428Y-57658571D01*
X37298333Y-57658571D01*
X37107857Y-57610952D01*
X37012619Y-57563333D01*
X36965000Y-57515714D01*
X36917380Y-57420476D01*
X37917380Y-56658571D02*
X36917380Y-56658571D01*
X37917380Y-56087142D02*
X37345952Y-56515714D01*
X36917380Y-56087142D02*
X37488809Y-56658571D01*
X37917380Y-55182380D02*
X37917380Y-55658571D01*
X36917380Y-55658571D01*
X37917380Y-54849047D02*
X36917380Y-54849047D01*
G04 #@! TO.C,U4*
X101473095Y-21042380D02*
X101473095Y-21851904D01*
X101520714Y-21947142D01*
X101568333Y-21994761D01*
X101663571Y-22042380D01*
X101854047Y-22042380D01*
X101949285Y-21994761D01*
X101996904Y-21947142D01*
X102044523Y-21851904D01*
X102044523Y-21042380D01*
X102949285Y-21375714D02*
X102949285Y-22042380D01*
X102711190Y-20994761D02*
X102473095Y-21709047D01*
X103092142Y-21709047D01*
X102687380Y-41670952D02*
X101687380Y-41670952D01*
X102639761Y-41242380D02*
X102687380Y-41099523D01*
X102687380Y-40861428D01*
X102639761Y-40766190D01*
X102592142Y-40718571D01*
X102496904Y-40670952D01*
X102401666Y-40670952D01*
X102306428Y-40718571D01*
X102258809Y-40766190D01*
X102211190Y-40861428D01*
X102163571Y-41051904D01*
X102115952Y-41147142D01*
X102068333Y-41194761D01*
X101973095Y-41242380D01*
X101877857Y-41242380D01*
X101782619Y-41194761D01*
X101735000Y-41147142D01*
X101687380Y-41051904D01*
X101687380Y-40813809D01*
X101735000Y-40670952D01*
X101687380Y-39813809D02*
X101687380Y-40004285D01*
X101735000Y-40099523D01*
X101782619Y-40147142D01*
X101925476Y-40242380D01*
X102115952Y-40290000D01*
X102496904Y-40290000D01*
X102592142Y-40242380D01*
X102639761Y-40194761D01*
X102687380Y-40099523D01*
X102687380Y-39909047D01*
X102639761Y-39813809D01*
X102592142Y-39766190D01*
X102496904Y-39718571D01*
X102258809Y-39718571D01*
X102163571Y-39766190D01*
X102115952Y-39813809D01*
X102068333Y-39909047D01*
X102068333Y-40099523D01*
X102115952Y-40194761D01*
X102163571Y-40242380D01*
X102258809Y-40290000D01*
X102687380Y-38766190D02*
X102687380Y-39337619D01*
X102687380Y-39051904D02*
X101687380Y-39051904D01*
X101830238Y-39147142D01*
X101925476Y-39242380D01*
X101973095Y-39337619D01*
X102592142Y-37766190D02*
X102639761Y-37813809D01*
X102687380Y-37956666D01*
X102687380Y-38051904D01*
X102639761Y-38194761D01*
X102544523Y-38290000D01*
X102449285Y-38337619D01*
X102258809Y-38385238D01*
X102115952Y-38385238D01*
X101925476Y-38337619D01*
X101830238Y-38290000D01*
X101735000Y-38194761D01*
X101687380Y-38051904D01*
X101687380Y-37956666D01*
X101735000Y-37813809D01*
X101782619Y-37766190D01*
X101687380Y-36861428D02*
X101687380Y-37337619D01*
X102163571Y-37385238D01*
X102115952Y-37337619D01*
X102068333Y-37242380D01*
X102068333Y-37004285D01*
X102115952Y-36909047D01*
X102163571Y-36861428D01*
X102258809Y-36813809D01*
X102496904Y-36813809D01*
X102592142Y-36861428D01*
X102639761Y-36909047D01*
X102687380Y-37004285D01*
X102687380Y-37242380D01*
X102639761Y-37337619D01*
X102592142Y-37385238D01*
X102687380Y-35861428D02*
X102687380Y-36432857D01*
X102687380Y-36147142D02*
X101687380Y-36147142D01*
X101830238Y-36242380D01*
X101925476Y-36337619D01*
X101973095Y-36432857D01*
X101782619Y-35480476D02*
X101735000Y-35432857D01*
X101687380Y-35337619D01*
X101687380Y-35099523D01*
X101735000Y-35004285D01*
X101782619Y-34956666D01*
X101877857Y-34909047D01*
X101973095Y-34909047D01*
X102115952Y-34956666D01*
X102687380Y-35528095D01*
X102687380Y-34909047D01*
X102115952Y-34337619D02*
X102068333Y-34432857D01*
X102020714Y-34480476D01*
X101925476Y-34528095D01*
X101877857Y-34528095D01*
X101782619Y-34480476D01*
X101735000Y-34432857D01*
X101687380Y-34337619D01*
X101687380Y-34147142D01*
X101735000Y-34051904D01*
X101782619Y-34004285D01*
X101877857Y-33956666D01*
X101925476Y-33956666D01*
X102020714Y-34004285D01*
X102068333Y-34051904D01*
X102115952Y-34147142D01*
X102115952Y-34337619D01*
X102163571Y-34432857D01*
X102211190Y-34480476D01*
X102306428Y-34528095D01*
X102496904Y-34528095D01*
X102592142Y-34480476D01*
X102639761Y-34432857D01*
X102687380Y-34337619D01*
X102687380Y-34147142D01*
X102639761Y-34051904D01*
X102592142Y-34004285D01*
X102496904Y-33956666D01*
X102306428Y-33956666D01*
X102211190Y-34004285D01*
X102163571Y-34051904D01*
X102115952Y-34147142D01*
X102401666Y-33575714D02*
X102401666Y-33099523D01*
X102687380Y-33670952D02*
X101687380Y-33337619D01*
X102687380Y-33004285D01*
X102687380Y-32194761D02*
X102687380Y-32670952D01*
X101687380Y-32670952D01*
X102306428Y-31861428D02*
X102306428Y-31099523D01*
X102687380Y-30099523D02*
X102687380Y-30670952D01*
X102687380Y-30385238D02*
X101687380Y-30385238D01*
X101830238Y-30480476D01*
X101925476Y-30575714D01*
X101973095Y-30670952D01*
X101687380Y-29480476D02*
X101687380Y-29385238D01*
X101735000Y-29290000D01*
X101782619Y-29242380D01*
X101877857Y-29194761D01*
X102068333Y-29147142D01*
X102306428Y-29147142D01*
X102496904Y-29194761D01*
X102592142Y-29242380D01*
X102639761Y-29290000D01*
X102687380Y-29385238D01*
X102687380Y-29480476D01*
X102639761Y-29575714D01*
X102592142Y-29623333D01*
X102496904Y-29670952D01*
X102306428Y-29718571D01*
X102068333Y-29718571D01*
X101877857Y-29670952D01*
X101782619Y-29623333D01*
X101735000Y-29575714D01*
X101687380Y-29480476D01*
X102687380Y-28718571D02*
X101687380Y-28718571D01*
X102687380Y-28147142D02*
X102115952Y-28575714D01*
X101687380Y-28147142D02*
X102258809Y-28718571D01*
X102687380Y-27242380D02*
X102687380Y-27718571D01*
X101687380Y-27718571D01*
X102687380Y-26909047D02*
X101687380Y-26909047D01*
G04 #@! TO.C,U3*
X79883095Y-21042380D02*
X79883095Y-21851904D01*
X79930714Y-21947142D01*
X79978333Y-21994761D01*
X80073571Y-22042380D01*
X80264047Y-22042380D01*
X80359285Y-21994761D01*
X80406904Y-21947142D01*
X80454523Y-21851904D01*
X80454523Y-21042380D01*
X80835476Y-21042380D02*
X81454523Y-21042380D01*
X81121190Y-21423333D01*
X81264047Y-21423333D01*
X81359285Y-21470952D01*
X81406904Y-21518571D01*
X81454523Y-21613809D01*
X81454523Y-21851904D01*
X81406904Y-21947142D01*
X81359285Y-21994761D01*
X81264047Y-22042380D01*
X80978333Y-22042380D01*
X80883095Y-21994761D01*
X80835476Y-21947142D01*
X81097380Y-41670952D02*
X80097380Y-41670952D01*
X81049761Y-41242380D02*
X81097380Y-41099523D01*
X81097380Y-40861428D01*
X81049761Y-40766190D01*
X81002142Y-40718571D01*
X80906904Y-40670952D01*
X80811666Y-40670952D01*
X80716428Y-40718571D01*
X80668809Y-40766190D01*
X80621190Y-40861428D01*
X80573571Y-41051904D01*
X80525952Y-41147142D01*
X80478333Y-41194761D01*
X80383095Y-41242380D01*
X80287857Y-41242380D01*
X80192619Y-41194761D01*
X80145000Y-41147142D01*
X80097380Y-41051904D01*
X80097380Y-40813809D01*
X80145000Y-40670952D01*
X80097380Y-39813809D02*
X80097380Y-40004285D01*
X80145000Y-40099523D01*
X80192619Y-40147142D01*
X80335476Y-40242380D01*
X80525952Y-40290000D01*
X80906904Y-40290000D01*
X81002142Y-40242380D01*
X81049761Y-40194761D01*
X81097380Y-40099523D01*
X81097380Y-39909047D01*
X81049761Y-39813809D01*
X81002142Y-39766190D01*
X80906904Y-39718571D01*
X80668809Y-39718571D01*
X80573571Y-39766190D01*
X80525952Y-39813809D01*
X80478333Y-39909047D01*
X80478333Y-40099523D01*
X80525952Y-40194761D01*
X80573571Y-40242380D01*
X80668809Y-40290000D01*
X81097380Y-38766190D02*
X81097380Y-39337619D01*
X81097380Y-39051904D02*
X80097380Y-39051904D01*
X80240238Y-39147142D01*
X80335476Y-39242380D01*
X80383095Y-39337619D01*
X81002142Y-37766190D02*
X81049761Y-37813809D01*
X81097380Y-37956666D01*
X81097380Y-38051904D01*
X81049761Y-38194761D01*
X80954523Y-38290000D01*
X80859285Y-38337619D01*
X80668809Y-38385238D01*
X80525952Y-38385238D01*
X80335476Y-38337619D01*
X80240238Y-38290000D01*
X80145000Y-38194761D01*
X80097380Y-38051904D01*
X80097380Y-37956666D01*
X80145000Y-37813809D01*
X80192619Y-37766190D01*
X80097380Y-36861428D02*
X80097380Y-37337619D01*
X80573571Y-37385238D01*
X80525952Y-37337619D01*
X80478333Y-37242380D01*
X80478333Y-37004285D01*
X80525952Y-36909047D01*
X80573571Y-36861428D01*
X80668809Y-36813809D01*
X80906904Y-36813809D01*
X81002142Y-36861428D01*
X81049761Y-36909047D01*
X81097380Y-37004285D01*
X81097380Y-37242380D01*
X81049761Y-37337619D01*
X81002142Y-37385238D01*
X81097380Y-35861428D02*
X81097380Y-36432857D01*
X81097380Y-36147142D02*
X80097380Y-36147142D01*
X80240238Y-36242380D01*
X80335476Y-36337619D01*
X80383095Y-36432857D01*
X80192619Y-35480476D02*
X80145000Y-35432857D01*
X80097380Y-35337619D01*
X80097380Y-35099523D01*
X80145000Y-35004285D01*
X80192619Y-34956666D01*
X80287857Y-34909047D01*
X80383095Y-34909047D01*
X80525952Y-34956666D01*
X81097380Y-35528095D01*
X81097380Y-34909047D01*
X80525952Y-34337619D02*
X80478333Y-34432857D01*
X80430714Y-34480476D01*
X80335476Y-34528095D01*
X80287857Y-34528095D01*
X80192619Y-34480476D01*
X80145000Y-34432857D01*
X80097380Y-34337619D01*
X80097380Y-34147142D01*
X80145000Y-34051904D01*
X80192619Y-34004285D01*
X80287857Y-33956666D01*
X80335476Y-33956666D01*
X80430714Y-34004285D01*
X80478333Y-34051904D01*
X80525952Y-34147142D01*
X80525952Y-34337619D01*
X80573571Y-34432857D01*
X80621190Y-34480476D01*
X80716428Y-34528095D01*
X80906904Y-34528095D01*
X81002142Y-34480476D01*
X81049761Y-34432857D01*
X81097380Y-34337619D01*
X81097380Y-34147142D01*
X81049761Y-34051904D01*
X81002142Y-34004285D01*
X80906904Y-33956666D01*
X80716428Y-33956666D01*
X80621190Y-34004285D01*
X80573571Y-34051904D01*
X80525952Y-34147142D01*
X80811666Y-33575714D02*
X80811666Y-33099523D01*
X81097380Y-33670952D02*
X80097380Y-33337619D01*
X81097380Y-33004285D01*
X81097380Y-32194761D02*
X81097380Y-32670952D01*
X80097380Y-32670952D01*
X80716428Y-31861428D02*
X80716428Y-31099523D01*
X81097380Y-30099523D02*
X81097380Y-30670952D01*
X81097380Y-30385238D02*
X80097380Y-30385238D01*
X80240238Y-30480476D01*
X80335476Y-30575714D01*
X80383095Y-30670952D01*
X80097380Y-29480476D02*
X80097380Y-29385238D01*
X80145000Y-29290000D01*
X80192619Y-29242380D01*
X80287857Y-29194761D01*
X80478333Y-29147142D01*
X80716428Y-29147142D01*
X80906904Y-29194761D01*
X81002142Y-29242380D01*
X81049761Y-29290000D01*
X81097380Y-29385238D01*
X81097380Y-29480476D01*
X81049761Y-29575714D01*
X81002142Y-29623333D01*
X80906904Y-29670952D01*
X80716428Y-29718571D01*
X80478333Y-29718571D01*
X80287857Y-29670952D01*
X80192619Y-29623333D01*
X80145000Y-29575714D01*
X80097380Y-29480476D01*
X81097380Y-28718571D02*
X80097380Y-28718571D01*
X81097380Y-28147142D02*
X80525952Y-28575714D01*
X80097380Y-28147142D02*
X80668809Y-28718571D01*
X81097380Y-27242380D02*
X81097380Y-27718571D01*
X80097380Y-27718571D01*
X81097380Y-26909047D02*
X80097380Y-26909047D01*
G04 #@! TO.C,U2*
X58293095Y-21042380D02*
X58293095Y-21851904D01*
X58340714Y-21947142D01*
X58388333Y-21994761D01*
X58483571Y-22042380D01*
X58674047Y-22042380D01*
X58769285Y-21994761D01*
X58816904Y-21947142D01*
X58864523Y-21851904D01*
X58864523Y-21042380D01*
X59293095Y-21137619D02*
X59340714Y-21090000D01*
X59435952Y-21042380D01*
X59674047Y-21042380D01*
X59769285Y-21090000D01*
X59816904Y-21137619D01*
X59864523Y-21232857D01*
X59864523Y-21328095D01*
X59816904Y-21470952D01*
X59245476Y-22042380D01*
X59864523Y-22042380D01*
X59507380Y-41670952D02*
X58507380Y-41670952D01*
X59459761Y-41242380D02*
X59507380Y-41099523D01*
X59507380Y-40861428D01*
X59459761Y-40766190D01*
X59412142Y-40718571D01*
X59316904Y-40670952D01*
X59221666Y-40670952D01*
X59126428Y-40718571D01*
X59078809Y-40766190D01*
X59031190Y-40861428D01*
X58983571Y-41051904D01*
X58935952Y-41147142D01*
X58888333Y-41194761D01*
X58793095Y-41242380D01*
X58697857Y-41242380D01*
X58602619Y-41194761D01*
X58555000Y-41147142D01*
X58507380Y-41051904D01*
X58507380Y-40813809D01*
X58555000Y-40670952D01*
X58507380Y-39813809D02*
X58507380Y-40004285D01*
X58555000Y-40099523D01*
X58602619Y-40147142D01*
X58745476Y-40242380D01*
X58935952Y-40290000D01*
X59316904Y-40290000D01*
X59412142Y-40242380D01*
X59459761Y-40194761D01*
X59507380Y-40099523D01*
X59507380Y-39909047D01*
X59459761Y-39813809D01*
X59412142Y-39766190D01*
X59316904Y-39718571D01*
X59078809Y-39718571D01*
X58983571Y-39766190D01*
X58935952Y-39813809D01*
X58888333Y-39909047D01*
X58888333Y-40099523D01*
X58935952Y-40194761D01*
X58983571Y-40242380D01*
X59078809Y-40290000D01*
X59507380Y-38766190D02*
X59507380Y-39337619D01*
X59507380Y-39051904D02*
X58507380Y-39051904D01*
X58650238Y-39147142D01*
X58745476Y-39242380D01*
X58793095Y-39337619D01*
X59412142Y-37766190D02*
X59459761Y-37813809D01*
X59507380Y-37956666D01*
X59507380Y-38051904D01*
X59459761Y-38194761D01*
X59364523Y-38290000D01*
X59269285Y-38337619D01*
X59078809Y-38385238D01*
X58935952Y-38385238D01*
X58745476Y-38337619D01*
X58650238Y-38290000D01*
X58555000Y-38194761D01*
X58507380Y-38051904D01*
X58507380Y-37956666D01*
X58555000Y-37813809D01*
X58602619Y-37766190D01*
X58507380Y-36861428D02*
X58507380Y-37337619D01*
X58983571Y-37385238D01*
X58935952Y-37337619D01*
X58888333Y-37242380D01*
X58888333Y-37004285D01*
X58935952Y-36909047D01*
X58983571Y-36861428D01*
X59078809Y-36813809D01*
X59316904Y-36813809D01*
X59412142Y-36861428D01*
X59459761Y-36909047D01*
X59507380Y-37004285D01*
X59507380Y-37242380D01*
X59459761Y-37337619D01*
X59412142Y-37385238D01*
X59507380Y-35861428D02*
X59507380Y-36432857D01*
X59507380Y-36147142D02*
X58507380Y-36147142D01*
X58650238Y-36242380D01*
X58745476Y-36337619D01*
X58793095Y-36432857D01*
X58602619Y-35480476D02*
X58555000Y-35432857D01*
X58507380Y-35337619D01*
X58507380Y-35099523D01*
X58555000Y-35004285D01*
X58602619Y-34956666D01*
X58697857Y-34909047D01*
X58793095Y-34909047D01*
X58935952Y-34956666D01*
X59507380Y-35528095D01*
X59507380Y-34909047D01*
X58935952Y-34337619D02*
X58888333Y-34432857D01*
X58840714Y-34480476D01*
X58745476Y-34528095D01*
X58697857Y-34528095D01*
X58602619Y-34480476D01*
X58555000Y-34432857D01*
X58507380Y-34337619D01*
X58507380Y-34147142D01*
X58555000Y-34051904D01*
X58602619Y-34004285D01*
X58697857Y-33956666D01*
X58745476Y-33956666D01*
X58840714Y-34004285D01*
X58888333Y-34051904D01*
X58935952Y-34147142D01*
X58935952Y-34337619D01*
X58983571Y-34432857D01*
X59031190Y-34480476D01*
X59126428Y-34528095D01*
X59316904Y-34528095D01*
X59412142Y-34480476D01*
X59459761Y-34432857D01*
X59507380Y-34337619D01*
X59507380Y-34147142D01*
X59459761Y-34051904D01*
X59412142Y-34004285D01*
X59316904Y-33956666D01*
X59126428Y-33956666D01*
X59031190Y-34004285D01*
X58983571Y-34051904D01*
X58935952Y-34147142D01*
X59221666Y-33575714D02*
X59221666Y-33099523D01*
X59507380Y-33670952D02*
X58507380Y-33337619D01*
X59507380Y-33004285D01*
X59507380Y-32194761D02*
X59507380Y-32670952D01*
X58507380Y-32670952D01*
X59126428Y-31861428D02*
X59126428Y-31099523D01*
X59507380Y-30099523D02*
X59507380Y-30670952D01*
X59507380Y-30385238D02*
X58507380Y-30385238D01*
X58650238Y-30480476D01*
X58745476Y-30575714D01*
X58793095Y-30670952D01*
X58507380Y-29480476D02*
X58507380Y-29385238D01*
X58555000Y-29290000D01*
X58602619Y-29242380D01*
X58697857Y-29194761D01*
X58888333Y-29147142D01*
X59126428Y-29147142D01*
X59316904Y-29194761D01*
X59412142Y-29242380D01*
X59459761Y-29290000D01*
X59507380Y-29385238D01*
X59507380Y-29480476D01*
X59459761Y-29575714D01*
X59412142Y-29623333D01*
X59316904Y-29670952D01*
X59126428Y-29718571D01*
X58888333Y-29718571D01*
X58697857Y-29670952D01*
X58602619Y-29623333D01*
X58555000Y-29575714D01*
X58507380Y-29480476D01*
X59507380Y-28718571D02*
X58507380Y-28718571D01*
X59507380Y-28147142D02*
X58935952Y-28575714D01*
X58507380Y-28147142D02*
X59078809Y-28718571D01*
X59507380Y-27242380D02*
X59507380Y-27718571D01*
X58507380Y-27718571D01*
X59507380Y-26909047D02*
X58507380Y-26909047D01*
G04 #@! TO.C,U1*
X36703095Y-21042380D02*
X36703095Y-21851904D01*
X36750714Y-21947142D01*
X36798333Y-21994761D01*
X36893571Y-22042380D01*
X37084047Y-22042380D01*
X37179285Y-21994761D01*
X37226904Y-21947142D01*
X37274523Y-21851904D01*
X37274523Y-21042380D01*
X38274523Y-22042380D02*
X37703095Y-22042380D01*
X37988809Y-22042380D02*
X37988809Y-21042380D01*
X37893571Y-21185238D01*
X37798333Y-21280476D01*
X37703095Y-21328095D01*
X37917380Y-41670952D02*
X36917380Y-41670952D01*
X37869761Y-41242380D02*
X37917380Y-41099523D01*
X37917380Y-40861428D01*
X37869761Y-40766190D01*
X37822142Y-40718571D01*
X37726904Y-40670952D01*
X37631666Y-40670952D01*
X37536428Y-40718571D01*
X37488809Y-40766190D01*
X37441190Y-40861428D01*
X37393571Y-41051904D01*
X37345952Y-41147142D01*
X37298333Y-41194761D01*
X37203095Y-41242380D01*
X37107857Y-41242380D01*
X37012619Y-41194761D01*
X36965000Y-41147142D01*
X36917380Y-41051904D01*
X36917380Y-40813809D01*
X36965000Y-40670952D01*
X36917380Y-39813809D02*
X36917380Y-40004285D01*
X36965000Y-40099523D01*
X37012619Y-40147142D01*
X37155476Y-40242380D01*
X37345952Y-40290000D01*
X37726904Y-40290000D01*
X37822142Y-40242380D01*
X37869761Y-40194761D01*
X37917380Y-40099523D01*
X37917380Y-39909047D01*
X37869761Y-39813809D01*
X37822142Y-39766190D01*
X37726904Y-39718571D01*
X37488809Y-39718571D01*
X37393571Y-39766190D01*
X37345952Y-39813809D01*
X37298333Y-39909047D01*
X37298333Y-40099523D01*
X37345952Y-40194761D01*
X37393571Y-40242380D01*
X37488809Y-40290000D01*
X37917380Y-38766190D02*
X37917380Y-39337619D01*
X37917380Y-39051904D02*
X36917380Y-39051904D01*
X37060238Y-39147142D01*
X37155476Y-39242380D01*
X37203095Y-39337619D01*
X37822142Y-37766190D02*
X37869761Y-37813809D01*
X37917380Y-37956666D01*
X37917380Y-38051904D01*
X37869761Y-38194761D01*
X37774523Y-38290000D01*
X37679285Y-38337619D01*
X37488809Y-38385238D01*
X37345952Y-38385238D01*
X37155476Y-38337619D01*
X37060238Y-38290000D01*
X36965000Y-38194761D01*
X36917380Y-38051904D01*
X36917380Y-37956666D01*
X36965000Y-37813809D01*
X37012619Y-37766190D01*
X36917380Y-36861428D02*
X36917380Y-37337619D01*
X37393571Y-37385238D01*
X37345952Y-37337619D01*
X37298333Y-37242380D01*
X37298333Y-37004285D01*
X37345952Y-36909047D01*
X37393571Y-36861428D01*
X37488809Y-36813809D01*
X37726904Y-36813809D01*
X37822142Y-36861428D01*
X37869761Y-36909047D01*
X37917380Y-37004285D01*
X37917380Y-37242380D01*
X37869761Y-37337619D01*
X37822142Y-37385238D01*
X37917380Y-35861428D02*
X37917380Y-36432857D01*
X37917380Y-36147142D02*
X36917380Y-36147142D01*
X37060238Y-36242380D01*
X37155476Y-36337619D01*
X37203095Y-36432857D01*
X37012619Y-35480476D02*
X36965000Y-35432857D01*
X36917380Y-35337619D01*
X36917380Y-35099523D01*
X36965000Y-35004285D01*
X37012619Y-34956666D01*
X37107857Y-34909047D01*
X37203095Y-34909047D01*
X37345952Y-34956666D01*
X37917380Y-35528095D01*
X37917380Y-34909047D01*
X37345952Y-34337619D02*
X37298333Y-34432857D01*
X37250714Y-34480476D01*
X37155476Y-34528095D01*
X37107857Y-34528095D01*
X37012619Y-34480476D01*
X36965000Y-34432857D01*
X36917380Y-34337619D01*
X36917380Y-34147142D01*
X36965000Y-34051904D01*
X37012619Y-34004285D01*
X37107857Y-33956666D01*
X37155476Y-33956666D01*
X37250714Y-34004285D01*
X37298333Y-34051904D01*
X37345952Y-34147142D01*
X37345952Y-34337619D01*
X37393571Y-34432857D01*
X37441190Y-34480476D01*
X37536428Y-34528095D01*
X37726904Y-34528095D01*
X37822142Y-34480476D01*
X37869761Y-34432857D01*
X37917380Y-34337619D01*
X37917380Y-34147142D01*
X37869761Y-34051904D01*
X37822142Y-34004285D01*
X37726904Y-33956666D01*
X37536428Y-33956666D01*
X37441190Y-34004285D01*
X37393571Y-34051904D01*
X37345952Y-34147142D01*
X37631666Y-33575714D02*
X37631666Y-33099523D01*
X37917380Y-33670952D02*
X36917380Y-33337619D01*
X37917380Y-33004285D01*
X37917380Y-32194761D02*
X37917380Y-32670952D01*
X36917380Y-32670952D01*
X37536428Y-31861428D02*
X37536428Y-31099523D01*
X37917380Y-30099523D02*
X37917380Y-30670952D01*
X37917380Y-30385238D02*
X36917380Y-30385238D01*
X37060238Y-30480476D01*
X37155476Y-30575714D01*
X37203095Y-30670952D01*
X36917380Y-29480476D02*
X36917380Y-29385238D01*
X36965000Y-29290000D01*
X37012619Y-29242380D01*
X37107857Y-29194761D01*
X37298333Y-29147142D01*
X37536428Y-29147142D01*
X37726904Y-29194761D01*
X37822142Y-29242380D01*
X37869761Y-29290000D01*
X37917380Y-29385238D01*
X37917380Y-29480476D01*
X37869761Y-29575714D01*
X37822142Y-29623333D01*
X37726904Y-29670952D01*
X37536428Y-29718571D01*
X37298333Y-29718571D01*
X37107857Y-29670952D01*
X37012619Y-29623333D01*
X36965000Y-29575714D01*
X36917380Y-29480476D01*
X37917380Y-28718571D02*
X36917380Y-28718571D01*
X37917380Y-28147142D02*
X37345952Y-28575714D01*
X36917380Y-28147142D02*
X37488809Y-28718571D01*
X37917380Y-27242380D02*
X37917380Y-27718571D01*
X36917380Y-27718571D01*
X37917380Y-26909047D02*
X36917380Y-26909047D01*
G04 #@! TO.C,J1*
D15*
X74481266Y-127066523D02*
X74481266Y-127973666D01*
X74420790Y-128155095D01*
X74299838Y-128276047D01*
X74118409Y-128336523D01*
X73997457Y-128336523D01*
X75751266Y-128336523D02*
X75025552Y-128336523D01*
X75388409Y-128336523D02*
X75388409Y-127066523D01*
X75267457Y-127247952D01*
X75146504Y-127368904D01*
X75025552Y-127429380D01*
G04 #@! TD*
M02*
