M48
;DRILL file {KiCad (5.0.1)-3} date 11/20/2018 8:18:50 AM
;FORMAT={-:-/ absolute / inch / decimal}
FMAT,2
INCH,TZ
T1C0.0157
T2C0.0236
T3C0.0315
T4C0.0320
T5C0.0354
T6C0.0394
T7C0.0433
T8C0.0551
T9C0.0870
T10C0.1181
T11C0.1200
%
G90
G05
M72
T1
X2.95Y-5.3
X4.975Y-4.525
X5.05Y-4.725
X5.05Y-4.875
X5.05Y-5.1
X6.925Y-5.
X6.975Y-4.525
X7.575Y-5.
X7.8Y-4.525
X7.9Y-5.325
X8.8Y-5.4469
X9.1Y-5.4469
X10.025Y-4.975
X10.05Y-4.475
X10.075Y-4.6
X10.1067Y-5.3669
X10.175Y-4.4
X10.2Y-4.6
X10.625Y-4.225
X10.675Y-4.45
X10.775Y-4.225
T2
X8.25Y-5.475
X8.3Y-5.475
X8.35Y-5.475
X3.Y-5.425
X3.05Y-5.425
X3.1Y-5.425
X3.Y-5.15
X3.05Y-5.15
X3.1Y-5.15
X4.125Y-5.425
X4.175Y-5.425
X4.225Y-5.425
T3
X8.95Y-5.5
X9.35Y-5.5
X8.95Y-5.
X9.35Y-5.
X8.95Y-5.375
X9.35Y-5.375
X0.7516Y-3.575
X0.85Y-3.575
X10.5031Y-1.4
X10.7Y-1.4
X3.36Y-4.855
X3.76Y-4.855
X1.25Y-2.55
X1.25Y-2.65
X1.25Y-2.75
X1.25Y-2.85
X1.25Y-2.95
X1.25Y-3.05
X1.25Y-3.15
X1.25Y-3.25
X1.25Y-3.35
X1.25Y-3.45
X6.6Y-1.4031
X6.6Y-1.6
X9.4781Y-4.625
X9.675Y-4.625
X3.575Y-4.3516
X3.575Y-4.45
X10.3Y-3.575
X10.3Y-3.675
X10.3Y-3.775
X10.3Y-3.875
X10.3Y-3.975
X10.3Y-4.075
X10.3Y-4.175
X10.3Y-4.275
X10.3Y-4.375
X10.3Y-4.475
X4.325Y-4.3031
X4.325Y-4.5
X10.3Y-1.525
X10.3Y-1.625
X10.3Y-1.725
X10.3Y-1.825
X10.3Y-1.925
X10.3Y-2.025
X10.3Y-2.125
X10.3Y-2.225
X10.3Y-2.325
X10.3Y-2.425
X9.6Y-1.3016
X9.6Y-1.4
X10.675Y-2.55
X10.675Y-2.65
X10.675Y-2.75
X10.675Y-2.85
X10.675Y-2.95
X10.675Y-3.05
X10.675Y-3.15
X10.675Y-3.25
X10.675Y-3.35
X10.675Y-3.45
X10.675Y-3.575
X10.675Y-3.7719
X9.925Y-5.
X10.325Y-5.
X3.225Y-5.115
X3.225Y-5.515
X4.185Y-5.185
X4.285Y-5.185
X4.385Y-5.185
X1.25Y-1.525
X1.25Y-1.625
X1.25Y-1.725
X1.25Y-1.825
X1.25Y-1.925
X1.25Y-2.025
X1.25Y-2.125
X1.25Y-2.225
X1.25Y-2.325
X1.25Y-2.425
X7.775Y-5.025
X8.175Y-5.025
X8.075Y-1.4031
X8.075Y-1.6
X1.125Y-1.525
X1.125Y-1.625
X1.125Y-1.725
X1.125Y-1.825
X1.125Y-1.925
X1.125Y-2.025
X1.125Y-2.125
X1.125Y-2.225
X1.125Y-2.325
X1.125Y-2.425
X5.075Y-4.3516
X5.075Y-4.45
X5.075Y-1.4031
X5.075Y-1.6
X10.55Y-2.55
X10.55Y-2.65
X10.55Y-2.75
X10.55Y-2.85
X10.55Y-2.95
X10.55Y-3.05
X10.55Y-3.15
X10.55Y-3.25
X10.55Y-3.35
X10.55Y-3.45
X8.825Y-4.3031
X8.825Y-4.5
X5.85Y-1.4516
X5.85Y-1.55
X8.95Y-5.25
X9.35Y-5.25
X1.Y-3.575
X1.Y-3.7719
X10.825Y-1.525
X10.9234Y-1.525
X3.85Y-4.985
X4.25Y-4.985
X1.375Y-2.55
X1.375Y-2.65
X1.375Y-2.75
X1.375Y-2.85
X1.375Y-2.95
X1.375Y-3.05
X1.375Y-3.15
X1.375Y-3.25
X1.375Y-3.35
X1.375Y-3.45
X1.375Y-3.575
X1.375Y-3.675
X1.375Y-3.775
X1.375Y-3.875
X1.375Y-3.975
X1.375Y-4.075
X1.375Y-4.175
X1.375Y-4.275
X1.375Y-4.375
X1.375Y-4.475
X1.25Y-3.575
X1.25Y-3.675
X1.25Y-3.775
X1.25Y-3.875
X1.25Y-3.975
X1.25Y-4.075
X1.25Y-4.175
X1.25Y-4.275
X1.25Y-4.375
X1.25Y-4.475
X7.35Y-1.4516
X7.35Y-1.55
X10.825Y-3.575
X10.9234Y-3.575
X2.85Y-1.4516
X2.85Y-1.55
X7.775Y-4.9
X8.175Y-4.9
X10.55Y-3.575
X10.55Y-3.675
X10.55Y-3.775
X10.55Y-3.875
X10.55Y-3.975
X10.55Y-4.075
X10.55Y-4.175
X10.55Y-4.275
X10.55Y-4.375
X10.55Y-4.475
X8.95Y-5.125
X9.35Y-5.125
X8.95Y-4.875
X9.35Y-4.875
X9.475Y-5.125
X9.475Y-5.525
X0.8Y-2.675
X0.8Y-2.7734
X0.7516Y-1.525
X0.85Y-1.525
X3.36Y-4.995
X3.76Y-4.995
X2.075Y-4.85
X2.475Y-4.85
X1.375Y-1.525
X1.375Y-1.625
X1.375Y-1.725
X1.375Y-1.825
X1.375Y-1.925
X1.375Y-2.025
X1.375Y-2.125
X1.375Y-2.225
X1.375Y-2.325
X1.375Y-2.425
X8.225Y-5.1281
X8.225Y-5.325
X1.125Y-2.55
X1.125Y-2.65
X1.125Y-2.75
X1.125Y-2.85
X1.125Y-2.95
X1.125Y-3.05
X1.125Y-3.15
X1.125Y-3.25
X1.125Y-3.35
X1.125Y-3.45
X8.375Y-5.1281
X8.375Y-5.325
X9.5031Y-1.55
X9.7Y-1.55
X4.575Y-5.175
X4.6734Y-5.175
X8.075Y-4.3516
X8.075Y-4.45
X5.85Y-4.3031
X5.85Y-4.5
X10.3Y-2.55
X10.3Y-2.65
X10.3Y-2.75
X10.3Y-2.85
X10.3Y-2.95
X10.3Y-3.05
X10.3Y-3.15
X10.3Y-3.25
X10.3Y-3.35
X10.3Y-3.45
X9.6Y-5.125
X9.6Y-5.525
X0.975Y-1.4
X1.1719Y-1.4
X0.875Y-2.3531
X0.875Y-2.55
X3.365Y-5.115
X3.365Y-5.415
X3.465Y-5.115
X3.465Y-5.415
X3.565Y-5.115
X3.565Y-5.415
X3.665Y-5.115
X3.665Y-5.415
X9.925Y-5.125
X10.325Y-5.125
X3.85Y-4.85
X4.25Y-4.85
X7.45Y-5.125
X7.6469Y-5.125
X1.Y-1.525
X1.Y-1.625
X1.Y-1.725
X1.Y-1.825
X1.Y-1.925
X1.Y-2.025
X1.Y-2.125
X1.Y-2.225
X1.Y-2.325
X1.Y-2.425
X7.15Y-5.25
X7.15Y-5.55
X7.25Y-5.25
X7.25Y-5.55
X7.35Y-5.25
X7.35Y-5.55
X7.45Y-5.25
X7.45Y-5.55
X7.55Y-5.25
X7.55Y-5.55
X7.65Y-5.25
X7.65Y-5.55
X7.75Y-5.25
X7.75Y-5.55
X7.85Y-5.25
X7.85Y-5.55
X7.95Y-5.25
X7.95Y-5.55
X8.05Y-5.25
X8.05Y-5.55
X10.425Y-1.525
X10.425Y-1.625
X10.425Y-1.725
X10.425Y-1.825
X10.425Y-1.925
X10.425Y-2.025
X10.425Y-2.125
X10.425Y-2.225
X10.425Y-2.325
X10.425Y-2.425
X2.075Y-4.3516
X2.075Y-4.45
X4.405Y-5.445
X4.5034Y-5.445
X3.575Y-1.4
X3.575Y-1.5969
X8.275Y-4.9
X8.675Y-4.9
X10.425Y-3.575
X10.425Y-3.675
X10.425Y-3.775
X10.425Y-3.875
X10.425Y-3.975
X10.425Y-4.075
X10.425Y-4.175
X10.425Y-4.275
X10.425Y-4.375
X10.425Y-4.475
X10.8Y-2.5531
X10.8Y-2.75
X2.875Y-4.855
X3.275Y-4.855
X1.575Y-4.855
X1.975Y-4.855
X8.275Y-5.025
X8.675Y-5.025
X1.125Y-3.575
X1.125Y-3.675
X1.125Y-3.775
X1.125Y-3.875
X1.125Y-3.975
X1.125Y-4.075
X1.125Y-4.175
X1.125Y-4.275
X1.125Y-4.375
X1.125Y-4.475
X2.075Y-1.4031
X2.075Y-1.6
X10.425Y-2.55
X10.425Y-2.65
X10.425Y-2.75
X10.425Y-2.85
X10.425Y-2.95
X10.425Y-3.05
X10.425Y-3.15
X10.425Y-3.25
X10.425Y-3.35
X10.425Y-3.45
X4.35Y-1.4531
X4.35Y-1.5516
X3.8081Y-5.395
X4.005Y-5.395
X8.85Y-1.4516
X8.85Y-1.55
X10.55Y-1.525
X10.55Y-1.625
X10.55Y-1.725
X10.55Y-1.825
X10.55Y-1.925
X10.55Y-2.025
X10.55Y-2.125
X10.55Y-2.225
X10.55Y-2.325
X10.55Y-2.425
X8.825Y-5.125
X8.825Y-5.525
X1.Y-2.55
X1.Y-2.65
X1.Y-2.75
X1.Y-2.85
X1.Y-2.95
X1.Y-3.05
X1.Y-3.15
X1.Y-3.25
X1.Y-3.35
X1.Y-3.45
X10.875Y-2.3266
X10.875Y-2.425
X3.345Y-5.535
X3.745Y-5.535
X7.35Y-4.3031
X7.35Y-4.5
X2.825Y-4.3031
X2.825Y-4.5
X6.575Y-4.3516
X6.575Y-4.45
X3.8466Y-5.195
X3.945Y-5.195
X9.575Y-4.3516
X9.575Y-4.45
X10.675Y-1.525
X10.675Y-1.625
X10.675Y-1.725
X10.675Y-1.825
X10.675Y-1.925
X10.675Y-2.025
X10.675Y-2.125
X10.675Y-2.225
X10.675Y-2.325
X10.675Y-2.425
T4
X7.595Y-1.55
X7.595Y-1.65
X7.595Y-1.75
X7.595Y-1.85
X7.595Y-1.95
X7.595Y-2.05
X7.595Y-2.15
X7.595Y-2.25
X7.595Y-2.35
X7.595Y-2.45
X7.595Y-2.55
X7.595Y-2.65
X7.595Y-2.75
X7.595Y-2.85
X7.595Y-2.95
X7.595Y-3.05
X7.595Y-3.15
X7.595Y-3.25
X7.595Y-3.35
X7.595Y-3.45
X7.595Y-3.55
X7.595Y-3.65
X7.595Y-3.75
X7.595Y-3.85
X7.595Y-3.95
X7.595Y-4.05
X7.595Y-4.15
X7.595Y-4.25
X7.595Y-4.35
X7.595Y-4.45
X7.67Y-1.5
X7.67Y-1.6
X7.67Y-1.7
X7.67Y-1.8
X7.67Y-1.9
X7.67Y-2.
X7.67Y-2.1
X7.67Y-2.2
X7.67Y-2.3
X7.67Y-2.4
X7.67Y-2.5
X7.67Y-2.6
X7.67Y-2.7
X7.67Y-2.8
X7.67Y-2.9
X7.67Y-3.
X7.67Y-3.1
X7.67Y-3.2
X7.67Y-3.3
X7.67Y-3.4
X7.67Y-3.5
X7.67Y-3.6
X7.67Y-3.7
X7.67Y-3.8
X7.67Y-3.9
X7.67Y-4.
X7.67Y-4.1
X7.67Y-4.2
X7.67Y-4.3
X7.67Y-4.4
X7.745Y-1.55
X7.745Y-1.65
X7.745Y-1.75
X7.745Y-1.85
X7.745Y-1.95
X7.745Y-2.05
X7.745Y-2.15
X7.745Y-2.25
X7.745Y-2.35
X7.745Y-2.45
X7.745Y-2.55
X7.745Y-2.65
X7.745Y-2.75
X7.745Y-2.85
X7.745Y-2.95
X7.745Y-3.05
X7.745Y-3.15
X7.745Y-3.25
X7.745Y-3.35
X7.745Y-3.45
X7.745Y-3.55
X7.745Y-3.65
X7.745Y-3.75
X7.745Y-3.85
X7.745Y-3.95
X7.745Y-4.05
X7.745Y-4.15
X7.745Y-4.25
X7.745Y-4.35
X7.745Y-4.45
X7.82Y-1.5
X7.82Y-1.6
X7.82Y-1.7
X7.82Y-1.8
X7.82Y-1.9
X7.82Y-2.
X7.82Y-2.1
X7.82Y-2.2
X7.82Y-2.3
X7.82Y-2.4
X7.82Y-2.5
X7.82Y-2.6
X7.82Y-2.7
X7.82Y-2.8
X7.82Y-2.9
X7.82Y-3.
X7.82Y-3.1
X7.82Y-3.2
X7.82Y-3.3
X7.82Y-3.4
X7.82Y-3.5
X7.82Y-3.6
X7.82Y-3.7
X7.82Y-3.8
X7.82Y-3.9
X7.82Y-4.
X7.82Y-4.1
X7.82Y-4.2
X7.82Y-4.3
X7.82Y-4.4
X8.345Y-1.55
X8.345Y-1.65
X8.345Y-1.75
X8.345Y-1.85
X8.345Y-1.95
X8.345Y-2.05
X8.345Y-2.15
X8.345Y-2.25
X8.345Y-2.35
X8.345Y-2.45
X8.345Y-2.55
X8.345Y-2.65
X8.345Y-2.75
X8.345Y-2.85
X8.345Y-2.95
X8.345Y-3.05
X8.345Y-3.15
X8.345Y-3.25
X8.345Y-3.35
X8.345Y-3.45
X8.345Y-3.55
X8.345Y-3.65
X8.345Y-3.75
X8.345Y-3.85
X8.345Y-3.95
X8.345Y-4.05
X8.345Y-4.15
X8.345Y-4.25
X8.345Y-4.35
X8.345Y-4.45
X8.42Y-1.5
X8.42Y-1.6
X8.42Y-1.7
X8.42Y-1.8
X8.42Y-1.9
X8.42Y-2.
X8.42Y-2.1
X8.42Y-2.2
X8.42Y-2.3
X8.42Y-2.4
X8.42Y-2.5
X8.42Y-2.6
X8.42Y-2.7
X8.42Y-2.8
X8.42Y-2.9
X8.42Y-3.
X8.42Y-3.1
X8.42Y-3.2
X8.42Y-3.3
X8.42Y-3.4
X8.42Y-3.5
X8.42Y-3.6
X8.42Y-3.7
X8.42Y-3.8
X8.42Y-3.9
X8.42Y-4.
X8.42Y-4.1
X8.42Y-4.2
X8.42Y-4.3
X8.42Y-4.4
X8.495Y-1.55
X8.495Y-1.65
X8.495Y-1.75
X8.495Y-1.85
X8.495Y-1.95
X8.495Y-2.05
X8.495Y-2.15
X8.495Y-2.25
X8.495Y-2.35
X8.495Y-2.45
X8.495Y-2.55
X8.495Y-2.65
X8.495Y-2.75
X8.495Y-2.85
X8.495Y-2.95
X8.495Y-3.05
X8.495Y-3.15
X8.495Y-3.25
X8.495Y-3.35
X8.495Y-3.45
X8.495Y-3.55
X8.495Y-3.65
X8.495Y-3.75
X8.495Y-3.85
X8.495Y-3.95
X8.495Y-4.05
X8.495Y-4.15
X8.495Y-4.25
X8.495Y-4.35
X8.495Y-4.45
X8.57Y-1.5
X8.57Y-1.6
X8.57Y-1.7
X8.57Y-1.8
X8.57Y-1.9
X8.57Y-2.
X8.57Y-2.1
X8.57Y-2.2
X8.57Y-2.3
X8.57Y-2.4
X8.57Y-2.5
X8.57Y-2.6
X8.57Y-2.7
X8.57Y-2.8
X8.57Y-2.9
X8.57Y-3.
X8.57Y-3.1
X8.57Y-3.2
X8.57Y-3.3
X8.57Y-3.4
X8.57Y-3.5
X8.57Y-3.6
X8.57Y-3.7
X8.57Y-3.8
X8.57Y-3.9
X8.57Y-4.
X8.57Y-4.1
X8.57Y-4.2
X8.57Y-4.3
X8.57Y-4.4
X1.595Y-1.55
X1.595Y-1.65
X1.595Y-1.75
X1.595Y-1.85
X1.595Y-1.95
X1.595Y-2.05
X1.595Y-2.15
X1.595Y-2.25
X1.595Y-2.35
X1.595Y-2.45
X1.595Y-2.55
X1.595Y-2.65
X1.595Y-2.75
X1.595Y-2.85
X1.595Y-2.95
X1.595Y-3.05
X1.595Y-3.15
X1.595Y-3.25
X1.595Y-3.35
X1.595Y-3.45
X1.595Y-3.55
X1.595Y-3.65
X1.595Y-3.75
X1.595Y-3.85
X1.595Y-3.95
X1.595Y-4.05
X1.595Y-4.15
X1.595Y-4.25
X1.595Y-4.35
X1.595Y-4.45
X1.67Y-1.5
X1.67Y-1.6
X1.67Y-1.7
X1.67Y-1.8
X1.67Y-1.9
X1.67Y-2.
X1.67Y-2.1
X1.67Y-2.2
X1.67Y-2.3
X1.67Y-2.4
X1.67Y-2.5
X1.67Y-2.6
X1.67Y-2.7
X1.67Y-2.8
X1.67Y-2.9
X1.67Y-3.
X1.67Y-3.1
X1.67Y-3.2
X1.67Y-3.3
X1.67Y-3.4
X1.67Y-3.5
X1.67Y-3.6
X1.67Y-3.7
X1.67Y-3.8
X1.67Y-3.9
X1.67Y-4.
X1.67Y-4.1
X1.67Y-4.2
X1.67Y-4.3
X1.67Y-4.4
X1.745Y-1.55
X1.745Y-1.65
X1.745Y-1.75
X1.745Y-1.85
X1.745Y-1.95
X1.745Y-2.05
X1.745Y-2.15
X1.745Y-2.25
X1.745Y-2.35
X1.745Y-2.45
X1.745Y-2.55
X1.745Y-2.65
X1.745Y-2.75
X1.745Y-2.85
X1.745Y-2.95
X1.745Y-3.05
X1.745Y-3.15
X1.745Y-3.25
X1.745Y-3.35
X1.745Y-3.45
X1.745Y-3.55
X1.745Y-3.65
X1.745Y-3.75
X1.745Y-3.85
X1.745Y-3.95
X1.745Y-4.05
X1.745Y-4.15
X1.745Y-4.25
X1.745Y-4.35
X1.745Y-4.45
X1.82Y-1.5
X1.82Y-1.6
X1.82Y-1.7
X1.82Y-1.8
X1.82Y-1.9
X1.82Y-2.
X1.82Y-2.1
X1.82Y-2.2
X1.82Y-2.3
X1.82Y-2.4
X1.82Y-2.5
X1.82Y-2.6
X1.82Y-2.7
X1.82Y-2.8
X1.82Y-2.9
X1.82Y-3.
X1.82Y-3.1
X1.82Y-3.2
X1.82Y-3.3
X1.82Y-3.4
X1.82Y-3.5
X1.82Y-3.6
X1.82Y-3.7
X1.82Y-3.8
X1.82Y-3.9
X1.82Y-4.
X1.82Y-4.1
X1.82Y-4.2
X1.82Y-4.3
X1.82Y-4.4
X6.095Y-1.55
X6.095Y-1.65
X6.095Y-1.75
X6.095Y-1.85
X6.095Y-1.95
X6.095Y-2.05
X6.095Y-2.15
X6.095Y-2.25
X6.095Y-2.35
X6.095Y-2.45
X6.095Y-2.55
X6.095Y-2.65
X6.095Y-2.75
X6.095Y-2.85
X6.095Y-2.95
X6.095Y-3.05
X6.095Y-3.15
X6.095Y-3.25
X6.095Y-3.35
X6.095Y-3.45
X6.095Y-3.55
X6.095Y-3.65
X6.095Y-3.75
X6.095Y-3.85
X6.095Y-3.95
X6.095Y-4.05
X6.095Y-4.15
X6.095Y-4.25
X6.095Y-4.35
X6.095Y-4.45
X6.17Y-1.5
X6.17Y-1.6
X6.17Y-1.7
X6.17Y-1.8
X6.17Y-1.9
X6.17Y-2.
X6.17Y-2.1
X6.17Y-2.2
X6.17Y-2.3
X6.17Y-2.4
X6.17Y-2.5
X6.17Y-2.6
X6.17Y-2.7
X6.17Y-2.8
X6.17Y-2.9
X6.17Y-3.
X6.17Y-3.1
X6.17Y-3.2
X6.17Y-3.3
X6.17Y-3.4
X6.17Y-3.5
X6.17Y-3.6
X6.17Y-3.7
X6.17Y-3.8
X6.17Y-3.9
X6.17Y-4.
X6.17Y-4.1
X6.17Y-4.2
X6.17Y-4.3
X6.17Y-4.4
X6.245Y-1.55
X6.245Y-1.65
X6.245Y-1.75
X6.245Y-1.85
X6.245Y-1.95
X6.245Y-2.05
X6.245Y-2.15
X6.245Y-2.25
X6.245Y-2.35
X6.245Y-2.45
X6.245Y-2.55
X6.245Y-2.65
X6.245Y-2.75
X6.245Y-2.85
X6.245Y-2.95
X6.245Y-3.05
X6.245Y-3.15
X6.245Y-3.25
X6.245Y-3.35
X6.245Y-3.45
X6.245Y-3.55
X6.245Y-3.65
X6.245Y-3.75
X6.245Y-3.85
X6.245Y-3.95
X6.245Y-4.05
X6.245Y-4.15
X6.245Y-4.25
X6.245Y-4.35
X6.245Y-4.45
X6.32Y-1.5
X6.32Y-1.6
X6.32Y-1.7
X6.32Y-1.8
X6.32Y-1.9
X6.32Y-2.
X6.32Y-2.1
X6.32Y-2.2
X6.32Y-2.3
X6.32Y-2.4
X6.32Y-2.5
X6.32Y-2.6
X6.32Y-2.7
X6.32Y-2.8
X6.32Y-2.9
X6.32Y-3.
X6.32Y-3.1
X6.32Y-3.2
X6.32Y-3.3
X6.32Y-3.4
X6.32Y-3.5
X6.32Y-3.6
X6.32Y-3.7
X6.32Y-3.8
X6.32Y-3.9
X6.32Y-4.
X6.32Y-4.1
X6.32Y-4.2
X6.32Y-4.3
X6.32Y-4.4
X3.095Y-1.55
X3.095Y-1.65
X3.095Y-1.75
X3.095Y-1.85
X3.095Y-1.95
X3.095Y-2.05
X3.095Y-2.15
X3.095Y-2.25
X3.095Y-2.35
X3.095Y-2.45
X3.095Y-2.55
X3.095Y-2.65
X3.095Y-2.75
X3.095Y-2.85
X3.095Y-2.95
X3.095Y-3.05
X3.095Y-3.15
X3.095Y-3.25
X3.095Y-3.35
X3.095Y-3.45
X3.095Y-3.55
X3.095Y-3.65
X3.095Y-3.75
X3.095Y-3.85
X3.095Y-3.95
X3.095Y-4.05
X3.095Y-4.15
X3.095Y-4.25
X3.095Y-4.35
X3.095Y-4.45
X3.17Y-1.5
X3.17Y-1.6
X3.17Y-1.7
X3.17Y-1.8
X3.17Y-1.9
X3.17Y-2.
X3.17Y-2.1
X3.17Y-2.2
X3.17Y-2.3
X3.17Y-2.4
X3.17Y-2.5
X3.17Y-2.6
X3.17Y-2.7
X3.17Y-2.8
X3.17Y-2.9
X3.17Y-3.
X3.17Y-3.1
X3.17Y-3.2
X3.17Y-3.3
X3.17Y-3.4
X3.17Y-3.5
X3.17Y-3.6
X3.17Y-3.7
X3.17Y-3.8
X3.17Y-3.9
X3.17Y-4.
X3.17Y-4.1
X3.17Y-4.2
X3.17Y-4.3
X3.17Y-4.4
X3.245Y-1.55
X3.245Y-1.65
X3.245Y-1.75
X3.245Y-1.85
X3.245Y-1.95
X3.245Y-2.05
X3.245Y-2.15
X3.245Y-2.25
X3.245Y-2.35
X3.245Y-2.45
X3.245Y-2.55
X3.245Y-2.65
X3.245Y-2.75
X3.245Y-2.85
X3.245Y-2.95
X3.245Y-3.05
X3.245Y-3.15
X3.245Y-3.25
X3.245Y-3.35
X3.245Y-3.45
X3.245Y-3.55
X3.245Y-3.65
X3.245Y-3.75
X3.245Y-3.85
X3.245Y-3.95
X3.245Y-4.05
X3.245Y-4.15
X3.245Y-4.25
X3.245Y-4.35
X3.245Y-4.45
X3.32Y-1.5
X3.32Y-1.6
X3.32Y-1.7
X3.32Y-1.8
X3.32Y-1.9
X3.32Y-2.
X3.32Y-2.1
X3.32Y-2.2
X3.32Y-2.3
X3.32Y-2.4
X3.32Y-2.5
X3.32Y-2.6
X3.32Y-2.7
X3.32Y-2.8
X3.32Y-2.9
X3.32Y-3.
X3.32Y-3.1
X3.32Y-3.2
X3.32Y-3.3
X3.32Y-3.4
X3.32Y-3.5
X3.32Y-3.6
X3.32Y-3.7
X3.32Y-3.8
X3.32Y-3.9
X3.32Y-4.
X3.32Y-4.1
X3.32Y-4.2
X3.32Y-4.3
X3.32Y-4.4
X2.345Y-1.55
X2.345Y-1.65
X2.345Y-1.75
X2.345Y-1.85
X2.345Y-1.95
X2.345Y-2.05
X2.345Y-2.15
X2.345Y-2.25
X2.345Y-2.35
X2.345Y-2.45
X2.345Y-2.55
X2.345Y-2.65
X2.345Y-2.75
X2.345Y-2.85
X2.345Y-2.95
X2.345Y-3.05
X2.345Y-3.15
X2.345Y-3.25
X2.345Y-3.35
X2.345Y-3.45
X2.345Y-3.55
X2.345Y-3.65
X2.345Y-3.75
X2.345Y-3.85
X2.345Y-3.95
X2.345Y-4.05
X2.345Y-4.15
X2.345Y-4.25
X2.345Y-4.35
X2.345Y-4.45
X2.42Y-1.5
X2.42Y-1.6
X2.42Y-1.7
X2.42Y-1.8
X2.42Y-1.9
X2.42Y-2.
X2.42Y-2.1
X2.42Y-2.2
X2.42Y-2.3
X2.42Y-2.4
X2.42Y-2.5
X2.42Y-2.6
X2.42Y-2.7
X2.42Y-2.8
X2.42Y-2.9
X2.42Y-3.
X2.42Y-3.1
X2.42Y-3.2
X2.42Y-3.3
X2.42Y-3.4
X2.42Y-3.5
X2.42Y-3.6
X2.42Y-3.7
X2.42Y-3.8
X2.42Y-3.9
X2.42Y-4.
X2.42Y-4.1
X2.42Y-4.2
X2.42Y-4.3
X2.42Y-4.4
X2.495Y-1.55
X2.495Y-1.65
X2.495Y-1.75
X2.495Y-1.85
X2.495Y-1.95
X2.495Y-2.05
X2.495Y-2.15
X2.495Y-2.25
X2.495Y-2.35
X2.495Y-2.45
X2.495Y-2.55
X2.495Y-2.65
X2.495Y-2.75
X2.495Y-2.85
X2.495Y-2.95
X2.495Y-3.05
X2.495Y-3.15
X2.495Y-3.25
X2.495Y-3.35
X2.495Y-3.45
X2.495Y-3.55
X2.495Y-3.65
X2.495Y-3.75
X2.495Y-3.85
X2.495Y-3.95
X2.495Y-4.05
X2.495Y-4.15
X2.495Y-4.25
X2.495Y-4.35
X2.495Y-4.45
X2.57Y-1.5
X2.57Y-1.6
X2.57Y-1.7
X2.57Y-1.8
X2.57Y-1.9
X2.57Y-2.
X2.57Y-2.1
X2.57Y-2.2
X2.57Y-2.3
X2.57Y-2.4
X2.57Y-2.5
X2.57Y-2.6
X2.57Y-2.7
X2.57Y-2.8
X2.57Y-2.9
X2.57Y-3.
X2.57Y-3.1
X2.57Y-3.2
X2.57Y-3.3
X2.57Y-3.4
X2.57Y-3.5
X2.57Y-3.6
X2.57Y-3.7
X2.57Y-3.8
X2.57Y-3.9
X2.57Y-4.
X2.57Y-4.1
X2.57Y-4.2
X2.57Y-4.3
X2.57Y-4.4
X5.345Y-1.55
X5.345Y-1.65
X5.345Y-1.75
X5.345Y-1.85
X5.345Y-1.95
X5.345Y-2.05
X5.345Y-2.15
X5.345Y-2.25
X5.345Y-2.35
X5.345Y-2.45
X5.345Y-2.55
X5.345Y-2.65
X5.345Y-2.75
X5.345Y-2.85
X5.345Y-2.95
X5.345Y-3.05
X5.345Y-3.15
X5.345Y-3.25
X5.345Y-3.35
X5.345Y-3.45
X5.345Y-3.55
X5.345Y-3.65
X5.345Y-3.75
X5.345Y-3.85
X5.345Y-3.95
X5.345Y-4.05
X5.345Y-4.15
X5.345Y-4.25
X5.345Y-4.35
X5.345Y-4.45
X5.42Y-1.5
X5.42Y-1.6
X5.42Y-1.7
X5.42Y-1.8
X5.42Y-1.9
X5.42Y-2.
X5.42Y-2.1
X5.42Y-2.2
X5.42Y-2.3
X5.42Y-2.4
X5.42Y-2.5
X5.42Y-2.6
X5.42Y-2.7
X5.42Y-2.8
X5.42Y-2.9
X5.42Y-3.
X5.42Y-3.1
X5.42Y-3.2
X5.42Y-3.3
X5.42Y-3.4
X5.42Y-3.5
X5.42Y-3.6
X5.42Y-3.7
X5.42Y-3.8
X5.42Y-3.9
X5.42Y-4.
X5.42Y-4.1
X5.42Y-4.2
X5.42Y-4.3
X5.42Y-4.4
X5.495Y-1.55
X5.495Y-1.65
X5.495Y-1.75
X5.495Y-1.85
X5.495Y-1.95
X5.495Y-2.05
X5.495Y-2.15
X5.495Y-2.25
X5.495Y-2.35
X5.495Y-2.45
X5.495Y-2.55
X5.495Y-2.65
X5.495Y-2.75
X5.495Y-2.85
X5.495Y-2.95
X5.495Y-3.05
X5.495Y-3.15
X5.495Y-3.25
X5.495Y-3.35
X5.495Y-3.45
X5.495Y-3.55
X5.495Y-3.65
X5.495Y-3.75
X5.495Y-3.85
X5.495Y-3.95
X5.495Y-4.05
X5.495Y-4.15
X5.495Y-4.25
X5.495Y-4.35
X5.495Y-4.45
X5.57Y-1.5
X5.57Y-1.6
X5.57Y-1.7
X5.57Y-1.8
X5.57Y-1.9
X5.57Y-2.
X5.57Y-2.1
X5.57Y-2.2
X5.57Y-2.3
X5.57Y-2.4
X5.57Y-2.5
X5.57Y-2.6
X5.57Y-2.7
X5.57Y-2.8
X5.57Y-2.9
X5.57Y-3.
X5.57Y-3.1
X5.57Y-3.2
X5.57Y-3.3
X5.57Y-3.4
X5.57Y-3.5
X5.57Y-3.6
X5.57Y-3.7
X5.57Y-3.8
X5.57Y-3.9
X5.57Y-4.
X5.57Y-4.1
X5.57Y-4.2
X5.57Y-4.3
X5.57Y-4.4
X6.845Y-1.55
X6.845Y-1.65
X6.845Y-1.75
X6.845Y-1.85
X6.845Y-1.95
X6.845Y-2.05
X6.845Y-2.15
X6.845Y-2.25
X6.845Y-2.35
X6.845Y-2.45
X6.845Y-2.55
X6.845Y-2.65
X6.845Y-2.75
X6.845Y-2.85
X6.845Y-2.95
X6.845Y-3.05
X6.845Y-3.15
X6.845Y-3.25
X6.845Y-3.35
X6.845Y-3.45
X6.845Y-3.55
X6.845Y-3.65
X6.845Y-3.75
X6.845Y-3.85
X6.845Y-3.95
X6.845Y-4.05
X6.845Y-4.15
X6.845Y-4.25
X6.845Y-4.35
X6.845Y-4.45
X6.92Y-1.5
X6.92Y-1.6
X6.92Y-1.7
X6.92Y-1.8
X6.92Y-1.9
X6.92Y-2.
X6.92Y-2.1
X6.92Y-2.2
X6.92Y-2.3
X6.92Y-2.4
X6.92Y-2.5
X6.92Y-2.6
X6.92Y-2.7
X6.92Y-2.8
X6.92Y-2.9
X6.92Y-3.
X6.92Y-3.1
X6.92Y-3.2
X6.92Y-3.3
X6.92Y-3.4
X6.92Y-3.5
X6.92Y-3.6
X6.92Y-3.7
X6.92Y-3.8
X6.92Y-3.9
X6.92Y-4.
X6.92Y-4.1
X6.92Y-4.2
X6.92Y-4.3
X6.92Y-4.4
X6.995Y-1.55
X6.995Y-1.65
X6.995Y-1.75
X6.995Y-1.85
X6.995Y-1.95
X6.995Y-2.05
X6.995Y-2.15
X6.995Y-2.25
X6.995Y-2.35
X6.995Y-2.45
X6.995Y-2.55
X6.995Y-2.65
X6.995Y-2.75
X6.995Y-2.85
X6.995Y-2.95
X6.995Y-3.05
X6.995Y-3.15
X6.995Y-3.25
X6.995Y-3.35
X6.995Y-3.45
X6.995Y-3.55
X6.995Y-3.65
X6.995Y-3.75
X6.995Y-3.85
X6.995Y-3.95
X6.995Y-4.05
X6.995Y-4.15
X6.995Y-4.25
X6.995Y-4.35
X6.995Y-4.45
X7.07Y-1.5
X7.07Y-1.6
X7.07Y-1.7
X7.07Y-1.8
X7.07Y-1.9
X7.07Y-2.
X7.07Y-2.1
X7.07Y-2.2
X7.07Y-2.3
X7.07Y-2.4
X7.07Y-2.5
X7.07Y-2.6
X7.07Y-2.7
X7.07Y-2.8
X7.07Y-2.9
X7.07Y-3.
X7.07Y-3.1
X7.07Y-3.2
X7.07Y-3.3
X7.07Y-3.4
X7.07Y-3.5
X7.07Y-3.6
X7.07Y-3.7
X7.07Y-3.8
X7.07Y-3.9
X7.07Y-4.
X7.07Y-4.1
X7.07Y-4.2
X7.07Y-4.3
X7.07Y-4.4
X3.845Y-1.55
X3.845Y-1.65
X3.845Y-1.75
X3.845Y-1.85
X3.845Y-1.95
X3.845Y-2.05
X3.845Y-2.15
X3.845Y-2.25
X3.845Y-2.35
X3.845Y-2.45
X3.845Y-2.55
X3.845Y-2.65
X3.845Y-2.75
X3.845Y-2.85
X3.845Y-2.95
X3.845Y-3.05
X3.845Y-3.15
X3.845Y-3.25
X3.845Y-3.35
X3.845Y-3.45
X3.845Y-3.55
X3.845Y-3.65
X3.845Y-3.75
X3.845Y-3.85
X3.845Y-3.95
X3.845Y-4.05
X3.845Y-4.15
X3.845Y-4.25
X3.845Y-4.35
X3.845Y-4.45
X3.92Y-1.5
X3.92Y-1.6
X3.92Y-1.7
X3.92Y-1.8
X3.92Y-1.9
X3.92Y-2.
X3.92Y-2.1
X3.92Y-2.2
X3.92Y-2.3
X3.92Y-2.4
X3.92Y-2.5
X3.92Y-2.6
X3.92Y-2.7
X3.92Y-2.8
X3.92Y-2.9
X3.92Y-3.
X3.92Y-3.1
X3.92Y-3.2
X3.92Y-3.3
X3.92Y-3.4
X3.92Y-3.5
X3.92Y-3.6
X3.92Y-3.7
X3.92Y-3.8
X3.92Y-3.9
X3.92Y-4.
X3.92Y-4.1
X3.92Y-4.2
X3.92Y-4.3
X3.92Y-4.4
X3.995Y-1.55
X3.995Y-1.65
X3.995Y-1.75
X3.995Y-1.85
X3.995Y-1.95
X3.995Y-2.05
X3.995Y-2.15
X3.995Y-2.25
X3.995Y-2.35
X3.995Y-2.45
X3.995Y-2.55
X3.995Y-2.65
X3.995Y-2.75
X3.995Y-2.85
X3.995Y-2.95
X3.995Y-3.05
X3.995Y-3.15
X3.995Y-3.25
X3.995Y-3.35
X3.995Y-3.45
X3.995Y-3.55
X3.995Y-3.65
X3.995Y-3.75
X3.995Y-3.85
X3.995Y-3.95
X3.995Y-4.05
X3.995Y-4.15
X3.995Y-4.25
X3.995Y-4.35
X3.995Y-4.45
X4.07Y-1.5
X4.07Y-1.6
X4.07Y-1.7
X4.07Y-1.8
X4.07Y-1.9
X4.07Y-2.
X4.07Y-2.1
X4.07Y-2.2
X4.07Y-2.3
X4.07Y-2.4
X4.07Y-2.5
X4.07Y-2.6
X4.07Y-2.7
X4.07Y-2.8
X4.07Y-2.9
X4.07Y-3.
X4.07Y-3.1
X4.07Y-3.2
X4.07Y-3.3
X4.07Y-3.4
X4.07Y-3.5
X4.07Y-3.6
X4.07Y-3.7
X4.07Y-3.8
X4.07Y-3.9
X4.07Y-4.
X4.07Y-4.1
X4.07Y-4.2
X4.07Y-4.3
X4.07Y-4.4
X4.595Y-1.55
X4.595Y-1.65
X4.595Y-1.75
X4.595Y-1.85
X4.595Y-1.95
X4.595Y-2.05
X4.595Y-2.15
X4.595Y-2.25
X4.595Y-2.35
X4.595Y-2.45
X4.595Y-2.55
X4.595Y-2.65
X4.595Y-2.75
X4.595Y-2.85
X4.595Y-2.95
X4.595Y-3.05
X4.595Y-3.15
X4.595Y-3.25
X4.595Y-3.35
X4.595Y-3.45
X4.595Y-3.55
X4.595Y-3.65
X4.595Y-3.75
X4.595Y-3.85
X4.595Y-3.95
X4.595Y-4.05
X4.595Y-4.15
X4.595Y-4.25
X4.595Y-4.35
X4.595Y-4.45
X4.67Y-1.5
X4.67Y-1.6
X4.67Y-1.7
X4.67Y-1.8
X4.67Y-1.9
X4.67Y-2.
X4.67Y-2.1
X4.67Y-2.2
X4.67Y-2.3
X4.67Y-2.4
X4.67Y-2.5
X4.67Y-2.6
X4.67Y-2.7
X4.67Y-2.8
X4.67Y-2.9
X4.67Y-3.
X4.67Y-3.1
X4.67Y-3.2
X4.67Y-3.3
X4.67Y-3.4
X4.67Y-3.5
X4.67Y-3.6
X4.67Y-3.7
X4.67Y-3.8
X4.67Y-3.9
X4.67Y-4.
X4.67Y-4.1
X4.67Y-4.2
X4.67Y-4.3
X4.67Y-4.4
X4.745Y-1.55
X4.745Y-1.65
X4.745Y-1.75
X4.745Y-1.85
X4.745Y-1.95
X4.745Y-2.05
X4.745Y-2.15
X4.745Y-2.25
X4.745Y-2.35
X4.745Y-2.45
X4.745Y-2.55
X4.745Y-2.65
X4.745Y-2.75
X4.745Y-2.85
X4.745Y-2.95
X4.745Y-3.05
X4.745Y-3.15
X4.745Y-3.25
X4.745Y-3.35
X4.745Y-3.45
X4.745Y-3.55
X4.745Y-3.65
X4.745Y-3.75
X4.745Y-3.85
X4.745Y-3.95
X4.745Y-4.05
X4.745Y-4.15
X4.745Y-4.25
X4.745Y-4.35
X4.745Y-4.45
X4.82Y-1.5
X4.82Y-1.6
X4.82Y-1.7
X4.82Y-1.8
X4.82Y-1.9
X4.82Y-2.
X4.82Y-2.1
X4.82Y-2.2
X4.82Y-2.3
X4.82Y-2.4
X4.82Y-2.5
X4.82Y-2.6
X4.82Y-2.7
X4.82Y-2.8
X4.82Y-2.9
X4.82Y-3.
X4.82Y-3.1
X4.82Y-3.2
X4.82Y-3.3
X4.82Y-3.4
X4.82Y-3.5
X4.82Y-3.6
X4.82Y-3.7
X4.82Y-3.8
X4.82Y-3.9
X4.82Y-4.
X4.82Y-4.1
X4.82Y-4.2
X4.82Y-4.3
X4.82Y-4.4
X9.845Y-1.55
X9.845Y-1.65
X9.845Y-1.75
X9.845Y-1.85
X9.845Y-1.95
X9.845Y-2.05
X9.845Y-2.15
X9.845Y-2.25
X9.845Y-2.35
X9.845Y-2.45
X9.845Y-2.55
X9.845Y-2.65
X9.845Y-2.75
X9.845Y-2.85
X9.845Y-2.95
X9.845Y-3.05
X9.845Y-3.15
X9.845Y-3.25
X9.845Y-3.35
X9.845Y-3.45
X9.845Y-3.55
X9.845Y-3.65
X9.845Y-3.75
X9.845Y-3.85
X9.845Y-3.95
X9.845Y-4.05
X9.845Y-4.15
X9.845Y-4.25
X9.845Y-4.35
X9.845Y-4.45
X9.92Y-1.5
X9.92Y-1.6
X9.92Y-1.7
X9.92Y-1.8
X9.92Y-1.9
X9.92Y-2.
X9.92Y-2.1
X9.92Y-2.2
X9.92Y-2.3
X9.92Y-2.4
X9.92Y-2.5
X9.92Y-2.6
X9.92Y-2.7
X9.92Y-2.8
X9.92Y-2.9
X9.92Y-3.
X9.92Y-3.1
X9.92Y-3.2
X9.92Y-3.3
X9.92Y-3.4
X9.92Y-3.5
X9.92Y-3.6
X9.92Y-3.7
X9.92Y-3.8
X9.92Y-3.9
X9.92Y-4.
X9.92Y-4.1
X9.92Y-4.2
X9.92Y-4.3
X9.92Y-4.4
X9.995Y-1.55
X9.995Y-1.65
X9.995Y-1.75
X9.995Y-1.85
X9.995Y-1.95
X9.995Y-2.05
X9.995Y-2.15
X9.995Y-2.25
X9.995Y-2.35
X9.995Y-2.45
X9.995Y-2.55
X9.995Y-2.65
X9.995Y-2.75
X9.995Y-2.85
X9.995Y-2.95
X9.995Y-3.05
X9.995Y-3.15
X9.995Y-3.25
X9.995Y-3.35
X9.995Y-3.45
X9.995Y-3.55
X9.995Y-3.65
X9.995Y-3.75
X9.995Y-3.85
X9.995Y-3.95
X9.995Y-4.05
X9.995Y-4.15
X9.995Y-4.25
X9.995Y-4.35
X9.995Y-4.45
X10.07Y-1.5
X10.07Y-1.6
X10.07Y-1.7
X10.07Y-1.8
X10.07Y-1.9
X10.07Y-2.
X10.07Y-2.1
X10.07Y-2.2
X10.07Y-2.3
X10.07Y-2.4
X10.07Y-2.5
X10.07Y-2.6
X10.07Y-2.7
X10.07Y-2.8
X10.07Y-2.9
X10.07Y-3.
X10.07Y-3.1
X10.07Y-3.2
X10.07Y-3.3
X10.07Y-3.4
X10.07Y-3.5
X10.07Y-3.6
X10.07Y-3.7
X10.07Y-3.8
X10.07Y-3.9
X10.07Y-4.
X10.07Y-4.1
X10.07Y-4.2
X10.07Y-4.3
X10.07Y-4.4
X9.095Y-1.55
X9.095Y-1.65
X9.095Y-1.75
X9.095Y-1.85
X9.095Y-1.95
X9.095Y-2.05
X9.095Y-2.15
X9.095Y-2.25
X9.095Y-2.35
X9.095Y-2.45
X9.095Y-2.55
X9.095Y-2.65
X9.095Y-2.75
X9.095Y-2.85
X9.095Y-2.95
X9.095Y-3.05
X9.095Y-3.15
X9.095Y-3.25
X9.095Y-3.35
X9.095Y-3.45
X9.095Y-3.55
X9.095Y-3.65
X9.095Y-3.75
X9.095Y-3.85
X9.095Y-3.95
X9.095Y-4.05
X9.095Y-4.15
X9.095Y-4.25
X9.095Y-4.35
X9.095Y-4.45
X9.17Y-1.5
X9.17Y-1.6
X9.17Y-1.7
X9.17Y-1.8
X9.17Y-1.9
X9.17Y-2.
X9.17Y-2.1
X9.17Y-2.2
X9.17Y-2.3
X9.17Y-2.4
X9.17Y-2.5
X9.17Y-2.6
X9.17Y-2.7
X9.17Y-2.8
X9.17Y-2.9
X9.17Y-3.
X9.17Y-3.1
X9.17Y-3.2
X9.17Y-3.3
X9.17Y-3.4
X9.17Y-3.5
X9.17Y-3.6
X9.17Y-3.7
X9.17Y-3.8
X9.17Y-3.9
X9.17Y-4.
X9.17Y-4.1
X9.17Y-4.2
X9.17Y-4.3
X9.17Y-4.4
X9.245Y-1.55
X9.245Y-1.65
X9.245Y-1.75
X9.245Y-1.85
X9.245Y-1.95
X9.245Y-2.05
X9.245Y-2.15
X9.245Y-2.25
X9.245Y-2.35
X9.245Y-2.45
X9.245Y-2.55
X9.245Y-2.65
X9.245Y-2.75
X9.245Y-2.85
X9.245Y-2.95
X9.245Y-3.05
X9.245Y-3.15
X9.245Y-3.25
X9.245Y-3.35
X9.245Y-3.45
X9.245Y-3.55
X9.245Y-3.65
X9.245Y-3.75
X9.245Y-3.85
X9.245Y-3.95
X9.245Y-4.05
X9.245Y-4.15
X9.245Y-4.25
X9.245Y-4.35
X9.245Y-4.45
X9.32Y-1.5
X9.32Y-1.6
X9.32Y-1.7
X9.32Y-1.8
X9.32Y-1.9
X9.32Y-2.
X9.32Y-2.1
X9.32Y-2.2
X9.32Y-2.3
X9.32Y-2.4
X9.32Y-2.5
X9.32Y-2.6
X9.32Y-2.7
X9.32Y-2.8
X9.32Y-2.9
X9.32Y-3.
X9.32Y-3.1
X9.32Y-3.2
X9.32Y-3.3
X9.32Y-3.4
X9.32Y-3.5
X9.32Y-3.6
X9.32Y-3.7
X9.32Y-3.8
X9.32Y-3.9
X9.32Y-4.
X9.32Y-4.1
X9.32Y-4.2
X9.32Y-4.3
X9.32Y-4.4
T5
X10.575Y-5.025
X10.575Y-5.125
T6
X10.525Y-5.35
X10.525Y-5.45
X1.97Y-5.25
X1.97Y-5.35
X1.97Y-5.45
X10.Y-5.35
X10.Y-5.45
X9.825Y-5.35
X9.825Y-5.45
X4.5Y-4.885
X4.6Y-4.885
X4.7Y-4.885
X10.175Y-5.35
X10.175Y-5.45
X8.575Y-5.25
X8.575Y-5.35
X8.575Y-5.45
X8.675Y-5.25
X8.675Y-5.35
X8.675Y-5.45
X1.825Y-5.25
X1.825Y-5.35
X1.825Y-5.45
X10.35Y-5.35
X10.35Y-5.45
T7
X10.825Y-4.1341
X10.825Y-4.39
X11.0022Y-4.1341
X11.0022Y-4.39
X10.825Y-4.9341
X10.825Y-5.19
X11.0022Y-4.9341
X11.0022Y-5.19
X10.825Y-4.5341
X10.825Y-4.79
X11.0022Y-4.5341
X11.0022Y-4.79
T8
X4.9406Y-5.2028
X4.9406Y-5.4193
X5.1059Y-5.2028
X5.1059Y-5.4193
X5.2713Y-5.2028
X5.2713Y-5.4193
X5.4366Y-5.2028
X5.4366Y-5.4193
X5.602Y-5.2028
X5.602Y-5.4193
X5.7673Y-5.2028
X5.7673Y-5.4193
X5.9327Y-5.2028
X5.9327Y-5.4193
X6.098Y-5.2028
X6.098Y-5.4193
X6.2634Y-5.2028
X6.2634Y-5.4193
X6.4287Y-5.2028
X6.4287Y-5.4193
X6.5941Y-5.2028
X6.5941Y-5.4193
X6.7594Y-5.2028
X6.7594Y-5.4193
T9
X8.457Y-1.275
X8.457Y-4.625
X1.707Y-1.275
X1.707Y-4.625
X6.207Y-1.275
X6.207Y-4.625
X3.207Y-1.275
X3.207Y-4.625
X2.457Y-1.275
X2.457Y-4.625
X5.457Y-1.275
X5.457Y-4.625
X6.957Y-1.275
X6.957Y-4.625
X3.957Y-1.275
X3.957Y-4.625
X4.707Y-1.275
X4.707Y-4.625
X9.957Y-1.275
X9.957Y-4.625
X9.207Y-1.275
X9.207Y-4.625
X7.707Y-1.275
X7.707Y-4.625
T10
X4.7555Y-5.4012
T11
X5.85Y-4.975
X0.75Y-1.125
X10.925Y-1.125
X0.75Y-5.475
X10.925Y-5.475
X5.85Y-1.125
T0
M30
