M48
;DRILL file {KiCad (5.0.2)-1} date 1/3/2019 8:26:59 AM
;FORMAT={-:-/ absolute / inch / decimal}
FMAT,2
INCH,TZ
T1C0.0157
T2C0.0197
T3C0.0236
T4C0.0315
T5C0.0320
T6C0.0394
T7C0.0591
T8C0.0870
%
G90
G05
T1
X0.85Y-0.85
X0.85Y-0.9
X0.9Y-0.85
X0.9Y-0.9
X1.6066Y-3.8972
X1.9012Y-3.825
X1.95Y-2.
X1.95Y-2.075
X1.9773Y-3.6713
X2.0145Y-1.8565
X2.0159Y-2.9889
X2.025Y-2.025
X2.0454Y-3.7371
X2.1326Y-3.905
X2.1332Y-4.057
X2.1503Y-3.7224
X2.1504Y-3.9808
X2.2204Y-2.825
X2.2223Y-2.5714
X2.3007Y-3.749
X2.3223Y-3.719
X2.3234Y-3.7779
X2.336Y-3.6676
X2.3397Y-1.8601
X2.3531Y-3.6237
X2.492Y-3.625
X2.4933Y-3.5434
X2.5026Y-2.8453
X2.5246Y-3.4736
X2.5256Y-3.5716
X2.6134Y-2.5214
X2.6437Y-3.6279
X2.6665Y-3.6788
X2.6665Y-4.2536
X2.6762Y-3.2301
X2.6929Y-3.2781
X2.7Y-4.3156
X2.7199Y-3.775
X2.7224Y-3.8582
X2.7359Y-2.4871
X2.7528Y-2.0241
X2.7743Y-2.0966
X2.7982Y-2.0576
X2.8224Y-2.5446
X2.8327Y-2.173
X2.845Y-3.775
X2.8454Y-3.8797
X2.8621Y-2.4845
X2.8649Y-3.9813
X2.8776Y-3.8041
X2.8831Y-4.1705
X2.8895Y-3.9258
X2.9091Y-3.5392
X2.9277Y-3.662
X2.929Y-3.575
X2.9296Y-3.7857
X2.9305Y-3.8718
X2.9308Y-3.7245
X3.0477Y-3.797
X3.0659Y-3.9696
X3.1122Y-4.0589
X3.1206Y-3.0826
X3.1333Y-2.3818
X3.1353Y-4.0875
X3.1379Y-2.7582
X3.1954Y-2.084
X3.2018Y-2.1285
X3.2293Y-2.4287
X3.2665Y-3.8627
X3.2747Y-3.6363
X3.2749Y-2.884
X3.2895Y-3.6937
X3.2999Y-3.7368
X3.3358Y-4.128
X3.3974Y-2.5096
X3.4197Y-3.825
X3.4206Y-3.7877
X3.4231Y-3.1315
X3.4377Y-3.95
X3.4485Y-4.1435
X3.4547Y-3.9875
X3.4952Y-3.0476
X3.5015Y-3.6836
X3.5055Y-3.6008
X3.5081Y-2.9676
X3.5387Y-3.1728
X3.5554Y-4.0361
X3.6216Y-3.6009
X3.6266Y-3.9734
X3.6281Y-3.8364
X3.6389Y-3.717
X3.6489Y-3.8881
X3.7068Y-3.1539
X3.7174Y-3.0153
X3.7419Y-3.0676
X3.8581Y-3.0547
X3.8756Y-3.5781
X3.9944Y-3.8744
X3.9949Y-3.825
X4.019Y-3.725
X4.0448Y-3.6032
X4.1359Y-3.2079
X4.149Y-3.0058
X4.155Y-3.1046
X4.6Y-0.85
X4.6Y-0.9
X4.65Y-0.85
X4.65Y-0.9
T2
X1.95Y-2.15
X1.95Y-2.325
X2.1489Y-2.2019
X2.1489Y-2.2767
T3
X4.0814Y-2.9388
T4
X4.125Y-2.275
X4.125Y-2.575
X4.225Y-2.275
X4.225Y-2.575
X4.325Y-2.275
X4.325Y-2.575
X4.425Y-2.275
X4.425Y-2.575
X1.15Y-3.45
X1.15Y-3.55
X1.15Y-3.65
X1.15Y-3.75
X1.15Y-3.85
X1.15Y-3.95
X1.15Y-4.05
X1.15Y-4.15
X1.45Y-3.45
X1.45Y-3.55
X1.45Y-3.65
X1.45Y-3.75
X1.45Y-3.85
X1.45Y-3.95
X1.45Y-4.05
X1.45Y-4.15
X1.25Y-1.5
X1.25Y-1.8
X1.55Y-1.5
X1.55Y-1.8
X3.725Y-1.775
X3.725Y-2.075
X3.825Y-1.775
X3.825Y-2.075
X3.925Y-1.775
X3.925Y-2.075
X4.025Y-1.775
X4.025Y-2.075
X4.125Y-1.775
X4.125Y-2.075
X4.225Y-1.775
X4.225Y-2.075
X4.325Y-1.775
X4.325Y-2.075
X4.425Y-1.775
X4.425Y-2.075
X4.425Y-2.9
X4.425Y-3.
X4.425Y-3.1
X4.425Y-3.2
X4.425Y-3.3
X4.425Y-3.4
X3.4Y-2.275
X3.5Y-2.275
X3.6Y-2.275
X3.7Y-2.275
X3.8Y-2.275
X3.9Y-2.275
X3.6Y-1.5
X3.7Y-1.5
X3.8Y-1.5
X3.9Y-1.5
X4.Y-1.5
X4.1Y-1.5
X4.2Y-1.5
X4.3Y-1.5
X4.4Y-1.5
X4.5Y-1.5
T5
X2.825Y-2.625
X2.825Y-2.725
X2.825Y-2.825
X2.825Y-2.925
X2.925Y-2.525
X2.925Y-2.625
X2.925Y-2.725
X2.925Y-2.825
X2.925Y-2.925
X2.925Y-3.025
X3.025Y-2.525
X3.025Y-2.625
X3.025Y-2.925
X3.025Y-3.025
X3.125Y-2.525
X3.125Y-2.625
X3.125Y-2.925
X3.125Y-3.025
X3.225Y-2.525
X3.225Y-2.625
X3.225Y-2.725
X3.225Y-2.825
X3.225Y-2.925
X3.225Y-3.025
X3.325Y-2.625
X3.325Y-2.725
X3.325Y-2.825
X3.325Y-2.925
X1.975Y-1.5
X1.975Y-1.6
X1.975Y-1.7
X1.975Y-1.8
X2.075Y-1.4
X2.075Y-1.5
X2.075Y-1.6
X2.075Y-1.7
X2.075Y-1.8
X2.075Y-1.9
X2.175Y-1.4
X2.175Y-1.5
X2.175Y-1.8
X2.175Y-1.9
X2.275Y-1.4
X2.275Y-1.5
X2.275Y-1.8
X2.275Y-1.9
X2.375Y-1.4
X2.375Y-1.5
X2.375Y-1.6
X2.375Y-1.7
X2.375Y-1.8
X2.375Y-1.9
X2.475Y-1.5
X2.475Y-1.6
X2.475Y-1.7
X2.475Y-1.8
X1.95Y-2.625
X1.95Y-2.725
X1.95Y-2.825
X1.95Y-2.925
X2.05Y-2.525
X2.05Y-2.625
X2.05Y-2.725
X2.05Y-2.825
X2.05Y-2.925
X2.05Y-3.025
X2.15Y-2.525
X2.15Y-2.625
X2.15Y-2.925
X2.15Y-3.025
X2.25Y-2.525
X2.25Y-2.625
X2.25Y-2.925
X2.25Y-3.025
X2.35Y-2.525
X2.35Y-2.625
X2.35Y-2.725
X2.35Y-2.825
X2.35Y-2.925
X2.35Y-3.025
X2.45Y-2.625
X2.45Y-2.725
X2.45Y-2.825
X2.45Y-2.925
X1.3Y-4.45
X1.3Y-4.6
X1.35Y-4.375
X1.35Y-4.525
X1.4Y-4.45
X1.4Y-4.6
X1.45Y-4.375
X1.45Y-4.525
X1.5Y-4.45
X1.5Y-4.6
X1.55Y-4.375
X1.55Y-4.525
X1.6Y-4.45
X1.6Y-4.6
X1.65Y-4.375
X1.65Y-4.525
X1.7Y-4.45
X1.7Y-4.6
X1.75Y-4.375
X1.75Y-4.525
X1.8Y-4.45
X1.8Y-4.6
X1.85Y-4.375
X1.85Y-4.525
X1.9Y-4.45
X1.9Y-4.6
X1.95Y-4.375
X1.95Y-4.525
X2.Y-4.45
X2.Y-4.6
X2.05Y-4.375
X2.05Y-4.525
X2.1Y-4.45
X2.1Y-4.6
X2.15Y-4.375
X2.15Y-4.525
X2.2Y-4.45
X2.2Y-4.6
X2.25Y-4.375
X2.25Y-4.525
X2.3Y-4.45
X2.3Y-4.6
X2.35Y-4.375
X2.35Y-4.525
X2.4Y-4.45
X2.4Y-4.6
X2.45Y-4.375
X2.45Y-4.525
X2.5Y-4.45
X2.5Y-4.6
X2.55Y-4.375
X2.55Y-4.525
X2.6Y-4.45
X2.6Y-4.6
X2.65Y-4.375
X2.65Y-4.525
X2.7Y-4.45
X2.7Y-4.6
X2.75Y-4.375
X2.75Y-4.525
X2.8Y-4.45
X2.8Y-4.6
X2.85Y-4.375
X2.85Y-4.525
X2.9Y-4.45
X2.9Y-4.6
X2.95Y-4.375
X2.95Y-4.525
X3.Y-4.45
X3.Y-4.6
X3.05Y-4.375
X3.05Y-4.525
X3.1Y-4.45
X3.1Y-4.6
X3.15Y-4.375
X3.15Y-4.525
X3.2Y-4.45
X3.2Y-4.6
X3.25Y-4.375
X3.25Y-4.525
X3.3Y-4.45
X3.3Y-4.6
X3.35Y-4.375
X3.35Y-4.525
X3.4Y-4.45
X3.4Y-4.6
X3.45Y-4.375
X3.45Y-4.525
X3.5Y-4.45
X3.5Y-4.6
X3.55Y-4.375
X3.55Y-4.525
X3.6Y-4.45
X3.6Y-4.6
X3.65Y-4.375
X3.65Y-4.525
X3.7Y-4.45
X3.7Y-4.6
X3.75Y-4.375
X3.75Y-4.525
X3.8Y-4.45
X3.8Y-4.6
X3.85Y-4.375
X3.85Y-4.525
X3.9Y-4.45
X3.9Y-4.6
X3.95Y-4.375
X3.95Y-4.525
X4.Y-4.45
X4.Y-4.6
X4.05Y-4.375
X4.05Y-4.525
X4.1Y-4.45
X4.1Y-4.6
X4.15Y-4.375
X4.15Y-4.525
X4.2Y-4.45
X4.2Y-4.6
X4.25Y-4.375
X4.25Y-4.525
X2.825Y-1.5
X2.825Y-1.6
X2.825Y-1.7
X2.825Y-1.8
X2.925Y-1.4
X2.925Y-1.5
X2.925Y-1.6
X2.925Y-1.7
X2.925Y-1.8
X2.925Y-1.9
X3.025Y-1.4
X3.025Y-1.5
X3.025Y-1.8
X3.025Y-1.9
X3.125Y-1.4
X3.125Y-1.5
X3.125Y-1.8
X3.125Y-1.9
X3.225Y-1.4
X3.225Y-1.5
X3.225Y-1.6
X3.225Y-1.7
X3.225Y-1.8
X3.225Y-1.9
X3.325Y-1.5
X3.325Y-1.6
X3.325Y-1.7
X3.325Y-1.8
T6
X0.95Y-3.125
X0.95Y-3.225
X2.625Y-2.225
X2.725Y-2.225
X1.7Y-3.3
X1.8Y-3.3
X1.9Y-3.3
T7
X1.3Y-2.3683
X1.3Y-3.175
T8
X1.075Y-4.6
X4.425Y-4.6
T0
M30
