G04 #@! TF.GenerationSoftware,KiCad,Pcbnew,(5.0.2)-1*
G04 #@! TF.CreationDate,2019-01-03T08:26:54-07:00*
G04 #@! TF.ProjectId,PPR Board,50505220-426f-4617-9264-2e6b69636164,rev?*
G04 #@! TF.SameCoordinates,Original*
G04 #@! TF.FileFunction,Copper,L2,Bot*
G04 #@! TF.FilePolarity,Positive*
%FSLAX46Y46*%
G04 Gerber Fmt 4.6, Leading zero omitted, Abs format (unit mm)*
G04 Created by KiCad (PCBNEW (5.0.2)-1) date 1/3/2019 8:26:54 AM*
%MOMM*%
%LPD*%
G01*
G04 APERTURE LIST*
G04 #@! TA.AperFunction,ComponentPad*
%ADD10C,3.000000*%
G04 #@! TD*
G04 #@! TA.AperFunction,ComponentPad*
%ADD11R,3.000000X3.000000*%
G04 #@! TD*
G04 #@! TA.AperFunction,ComponentPad*
%ADD12O,1.600000X1.600000*%
G04 #@! TD*
G04 #@! TA.AperFunction,ComponentPad*
%ADD13R,1.600000X1.600000*%
G04 #@! TD*
G04 #@! TA.AperFunction,ComponentPad*
%ADD14C,1.000000*%
G04 #@! TD*
G04 #@! TA.AperFunction,ComponentPad*
%ADD15C,1.600000*%
G04 #@! TD*
G04 #@! TA.AperFunction,ComponentPad*
%ADD16R,0.850000X0.850000*%
G04 #@! TD*
G04 #@! TA.AperFunction,ComponentPad*
%ADD17R,1.700000X1.700000*%
G04 #@! TD*
G04 #@! TA.AperFunction,ComponentPad*
%ADD18O,1.700000X1.700000*%
G04 #@! TD*
G04 #@! TA.AperFunction,ComponentPad*
%ADD19C,1.219200*%
G04 #@! TD*
G04 #@! TA.AperFunction,ComponentPad*
%ADD20C,3.314700*%
G04 #@! TD*
G04 #@! TA.AperFunction,ComponentPad*
%ADD21R,1.397000X1.397000*%
G04 #@! TD*
G04 #@! TA.AperFunction,ComponentPad*
%ADD22C,1.397000*%
G04 #@! TD*
G04 #@! TA.AperFunction,ViaPad*
%ADD23C,0.800000*%
G04 #@! TD*
G04 #@! TA.AperFunction,ViaPad*
%ADD24C,1.000000*%
G04 #@! TD*
G04 #@! TA.AperFunction,Conductor*
%ADD25C,0.750000*%
G04 #@! TD*
G04 #@! TA.AperFunction,Conductor*
%ADD26C,0.250000*%
G04 #@! TD*
G04 #@! TA.AperFunction,Conductor*
%ADD27C,0.254000*%
G04 #@! TD*
G04 APERTURE END LIST*
D10*
G04 #@! TO.P,BT1,2*
G04 #@! TO.N,GND*
X33020000Y-60155000D03*
D11*
G04 #@! TO.P,BT1,1*
G04 #@! TO.N,Net-(BT1-Pad1)*
X33020000Y-80645000D03*
G04 #@! TD*
D12*
G04 #@! TO.P,SW2,8*
G04 #@! TO.N,+5V*
X104775000Y-57785000D03*
G04 #@! TO.P,SW2,4*
G04 #@! TO.N,Net-(RN3-Pad3)*
X112395000Y-65405000D03*
G04 #@! TO.P,SW2,7*
G04 #@! TO.N,+5V*
X107315000Y-57785000D03*
G04 #@! TO.P,SW2,3*
G04 #@! TO.N,Net-(RN3-Pad4)*
X109855000Y-65405000D03*
G04 #@! TO.P,SW2,6*
G04 #@! TO.N,+5V*
X109855000Y-57785000D03*
G04 #@! TO.P,SW2,2*
G04 #@! TO.N,Net-(RN3-Pad5)*
X107315000Y-65405000D03*
G04 #@! TO.P,SW2,5*
G04 #@! TO.N,+5V*
X112395000Y-57785000D03*
D13*
G04 #@! TO.P,SW2,1*
G04 #@! TO.N,Net-(RN3-Pad6)*
X104775000Y-65405000D03*
G04 #@! TD*
D12*
G04 #@! TO.P,SW1,16*
G04 #@! TO.N,+5V*
X94615000Y-45085000D03*
G04 #@! TO.P,SW1,8*
G04 #@! TO.N,Net-(RN2-Pad10)*
X112395000Y-52705000D03*
G04 #@! TO.P,SW1,15*
G04 #@! TO.N,+5V*
X97155000Y-45085000D03*
G04 #@! TO.P,SW1,7*
G04 #@! TO.N,Net-(RN2-Pad9)*
X109855000Y-52705000D03*
G04 #@! TO.P,SW1,14*
G04 #@! TO.N,+5V*
X99695000Y-45085000D03*
G04 #@! TO.P,SW1,6*
G04 #@! TO.N,Net-(RN2-Pad8)*
X107315000Y-52705000D03*
G04 #@! TO.P,SW1,13*
G04 #@! TO.N,+5V*
X102235000Y-45085000D03*
G04 #@! TO.P,SW1,5*
G04 #@! TO.N,Net-(RN2-Pad7)*
X104775000Y-52705000D03*
G04 #@! TO.P,SW1,12*
G04 #@! TO.N,+5V*
X104775000Y-45085000D03*
G04 #@! TO.P,SW1,4*
G04 #@! TO.N,Net-(RN2-Pad6)*
X102235000Y-52705000D03*
G04 #@! TO.P,SW1,11*
G04 #@! TO.N,+5V*
X107315000Y-45085000D03*
G04 #@! TO.P,SW1,3*
G04 #@! TO.N,Net-(RN2-Pad5)*
X99695000Y-52705000D03*
G04 #@! TO.P,SW1,10*
G04 #@! TO.N,+5V*
X109855000Y-45085000D03*
G04 #@! TO.P,SW1,2*
G04 #@! TO.N,Net-(RN2-Pad4)*
X97155000Y-52705000D03*
G04 #@! TO.P,SW1,9*
G04 #@! TO.N,+5V*
X112395000Y-45085000D03*
D13*
G04 #@! TO.P,SW1,1*
G04 #@! TO.N,Net-(RN2-Pad3)*
X94615000Y-52705000D03*
G04 #@! TD*
D14*
G04 #@! TO.P,Y1,2*
G04 #@! TO.N,Net-(U10-Pad3)*
X54582700Y-57827200D03*
G04 #@! TO.P,Y1,1*
G04 #@! TO.N,Net-(U10-Pad4)*
X54582700Y-55927200D03*
G04 #@! TD*
D12*
G04 #@! TO.P,J2,16*
G04 #@! TO.N,/~IRQ7*
X36830000Y-87630000D03*
G04 #@! TO.P,J2,8*
G04 #@! TO.N,Net-(J2-Pad8)*
X29210000Y-105410000D03*
G04 #@! TO.P,J2,15*
G04 #@! TO.N,/~IRQ6*
X36830000Y-90170000D03*
G04 #@! TO.P,J2,7*
G04 #@! TO.N,/PU1*
X29210000Y-102870000D03*
G04 #@! TO.P,J2,14*
G04 #@! TO.N,/~IRQ5*
X36830000Y-92710000D03*
G04 #@! TO.P,J2,6*
G04 #@! TO.N,Net-(J2-Pad6)*
X29210000Y-100330000D03*
G04 #@! TO.P,J2,13*
G04 #@! TO.N,/~IRQ4*
X36830000Y-95250000D03*
G04 #@! TO.P,J2,5*
G04 #@! TO.N,/PU2*
X29210000Y-97790000D03*
G04 #@! TO.P,J2,12*
G04 #@! TO.N,/~IRQ3*
X36830000Y-97790000D03*
G04 #@! TO.P,J2,4*
G04 #@! TO.N,Net-(J2-Pad4)*
X29210000Y-95250000D03*
G04 #@! TO.P,J2,11*
G04 #@! TO.N,/~IRQ2*
X36830000Y-100330000D03*
G04 #@! TO.P,J2,3*
G04 #@! TO.N,/PU3*
X29210000Y-92710000D03*
G04 #@! TO.P,J2,10*
G04 #@! TO.N,/~IRQ1*
X36830000Y-102870000D03*
G04 #@! TO.P,J2,2*
G04 #@! TO.N,/~RTCI*
X29210000Y-90170000D03*
G04 #@! TO.P,J2,9*
G04 #@! TO.N,/~IRQ0*
X36830000Y-105410000D03*
D13*
G04 #@! TO.P,J2,1*
G04 #@! TO.N,Net-(J2-Pad1)*
X29210000Y-87630000D03*
G04 #@! TD*
D15*
G04 #@! TO.P,X1,4*
G04 #@! TO.N,GND*
X39370000Y-45720000D03*
G04 #@! TO.P,X1,5*
G04 #@! TO.N,Net-(U1-Pad10)*
X39370000Y-38100000D03*
G04 #@! TO.P,X1,8*
G04 #@! TO.N,+5V*
X31750000Y-38100000D03*
D13*
G04 #@! TO.P,X1,1*
G04 #@! TO.N,Net-(X1-Pad1)*
X31750000Y-45720000D03*
G04 #@! TD*
D16*
G04 #@! TO.P,J5,1*
G04 #@! TO.N,GND*
X49530000Y-54610000D03*
G04 #@! TD*
G04 #@! TO.P,J4,1*
G04 #@! TO.N,GND*
X49530000Y-59055000D03*
G04 #@! TD*
D17*
G04 #@! TO.P,JP2,1*
G04 #@! TO.N,Net-(JP2-Pad1)*
X66675000Y-56515000D03*
D18*
G04 #@! TO.P,JP2,2*
G04 #@! TO.N,GND*
X69215000Y-56515000D03*
G04 #@! TD*
G04 #@! TO.P,JP1,2*
G04 #@! TO.N,/VBAT*
X24130000Y-81915000D03*
D17*
G04 #@! TO.P,JP1,1*
G04 #@! TO.N,Net-(BT1-Pad1)*
X24130000Y-79375000D03*
G04 #@! TD*
D18*
G04 #@! TO.P,J3,3*
G04 #@! TO.N,/~RESET*
X48260000Y-83820000D03*
G04 #@! TO.P,J3,2*
G04 #@! TO.N,Net-(J3-Pad2)*
X45720000Y-83820000D03*
D17*
G04 #@! TO.P,J3,1*
G04 #@! TO.N,+5V*
X43180000Y-83820000D03*
G04 #@! TD*
D12*
G04 #@! TO.P,RN2,10*
G04 #@! TO.N,Net-(RN2-Pad10)*
X114300000Y-38100000D03*
G04 #@! TO.P,RN2,9*
G04 #@! TO.N,Net-(RN2-Pad9)*
X111760000Y-38100000D03*
G04 #@! TO.P,RN2,8*
G04 #@! TO.N,Net-(RN2-Pad8)*
X109220000Y-38100000D03*
G04 #@! TO.P,RN2,7*
G04 #@! TO.N,Net-(RN2-Pad7)*
X106680000Y-38100000D03*
G04 #@! TO.P,RN2,6*
G04 #@! TO.N,Net-(RN2-Pad6)*
X104140000Y-38100000D03*
G04 #@! TO.P,RN2,5*
G04 #@! TO.N,Net-(RN2-Pad5)*
X101600000Y-38100000D03*
G04 #@! TO.P,RN2,4*
G04 #@! TO.N,Net-(RN2-Pad4)*
X99060000Y-38100000D03*
G04 #@! TO.P,RN2,3*
G04 #@! TO.N,Net-(RN2-Pad3)*
X96520000Y-38100000D03*
G04 #@! TO.P,RN2,2*
G04 #@! TO.N,Net-(RN2-Pad2)*
X93980000Y-38100000D03*
D13*
G04 #@! TO.P,RN2,1*
G04 #@! TO.N,GND*
X91440000Y-38100000D03*
G04 #@! TD*
G04 #@! TO.P,RN3,1*
G04 #@! TO.N,GND*
X112395000Y-86360000D03*
D12*
G04 #@! TO.P,RN3,2*
G04 #@! TO.N,Net-(RN3-Pad2)*
X112395000Y-83820000D03*
G04 #@! TO.P,RN3,3*
G04 #@! TO.N,Net-(RN3-Pad3)*
X112395000Y-81280000D03*
G04 #@! TO.P,RN3,4*
G04 #@! TO.N,Net-(RN3-Pad4)*
X112395000Y-78740000D03*
G04 #@! TO.P,RN3,5*
G04 #@! TO.N,Net-(RN3-Pad5)*
X112395000Y-76200000D03*
G04 #@! TO.P,RN3,6*
G04 #@! TO.N,Net-(RN3-Pad6)*
X112395000Y-73660000D03*
G04 #@! TD*
G04 #@! TO.P,RN1,6*
G04 #@! TO.N,/PU0*
X99060000Y-57785000D03*
G04 #@! TO.P,RN1,5*
G04 #@! TO.N,/PU1*
X96520000Y-57785000D03*
G04 #@! TO.P,RN1,4*
G04 #@! TO.N,/PU2*
X93980000Y-57785000D03*
G04 #@! TO.P,RN1,3*
G04 #@! TO.N,/PU3*
X91440000Y-57785000D03*
G04 #@! TO.P,RN1,2*
G04 #@! TO.N,Net-(RN1-Pad2)*
X88900000Y-57785000D03*
D13*
G04 #@! TO.P,RN1,1*
G04 #@! TO.N,+5V*
X86360000Y-57785000D03*
G04 #@! TD*
D19*
G04 #@! TO.P,J1,1*
G04 #@! TO.N,GND*
X107950000Y-111125000D03*
G04 #@! TO.P,J1,2*
X106680000Y-113030000D03*
G04 #@! TO.P,J1,3*
X105410000Y-111125000D03*
G04 #@! TO.P,J1,4*
X104140000Y-113030000D03*
G04 #@! TO.P,J1,5*
X102870000Y-111125000D03*
G04 #@! TO.P,J1,6*
G04 #@! TO.N,Net-(J1-Pad6)*
X101600000Y-113030000D03*
G04 #@! TO.P,J1,7*
G04 #@! TO.N,Net-(J1-Pad7)*
X100330000Y-111125000D03*
G04 #@! TO.P,J1,8*
G04 #@! TO.N,Net-(J1-Pad8)*
X99060000Y-113030000D03*
G04 #@! TO.P,J1,9*
G04 #@! TO.N,Net-(J1-Pad9)*
X97790000Y-111125000D03*
G04 #@! TO.P,J1,10*
G04 #@! TO.N,Net-(J1-Pad10)*
X96520000Y-113030000D03*
G04 #@! TO.P,J1,11*
G04 #@! TO.N,Net-(J1-Pad11)*
X95250000Y-111125000D03*
G04 #@! TO.P,J1,12*
G04 #@! TO.N,Net-(J1-Pad12)*
X93980000Y-113030000D03*
G04 #@! TO.P,J1,13*
G04 #@! TO.N,Net-(J1-Pad13)*
X92710000Y-111125000D03*
G04 #@! TO.P,J1,14*
G04 #@! TO.N,/A15*
X91440000Y-113030000D03*
G04 #@! TO.P,J1,15*
G04 #@! TO.N,/A14*
X90170000Y-111125000D03*
G04 #@! TO.P,J1,16*
G04 #@! TO.N,/A13*
X88900000Y-113030000D03*
G04 #@! TO.P,J1,17*
G04 #@! TO.N,/A12*
X87630000Y-111125000D03*
G04 #@! TO.P,J1,18*
G04 #@! TO.N,/A11*
X86360000Y-113030000D03*
G04 #@! TO.P,J1,19*
G04 #@! TO.N,/A10*
X85090000Y-111125000D03*
G04 #@! TO.P,J1,20*
G04 #@! TO.N,/A9*
X83820000Y-113030000D03*
G04 #@! TO.P,J1,21*
G04 #@! TO.N,/A8*
X82550000Y-111125000D03*
G04 #@! TO.P,J1,22*
G04 #@! TO.N,/A7*
X81280000Y-113030000D03*
G04 #@! TO.P,J1,23*
G04 #@! TO.N,/A6*
X80010000Y-111125000D03*
G04 #@! TO.P,J1,24*
G04 #@! TO.N,/A5*
X78740000Y-113030000D03*
G04 #@! TO.P,J1,25*
G04 #@! TO.N,/A4*
X77470000Y-111125000D03*
G04 #@! TO.P,J1,26*
G04 #@! TO.N,/bA3*
X76200000Y-113030000D03*
G04 #@! TO.P,J1,27*
G04 #@! TO.N,/bA2*
X74930000Y-111125000D03*
G04 #@! TO.P,J1,28*
G04 #@! TO.N,/bA1*
X73660000Y-113030000D03*
G04 #@! TO.P,J1,29*
G04 #@! TO.N,/bA0*
X72390000Y-111125000D03*
G04 #@! TO.P,J1,30*
G04 #@! TO.N,/~IOR*
X71120000Y-113030000D03*
G04 #@! TO.P,J1,31*
G04 #@! TO.N,/~IOW*
X69850000Y-111125000D03*
G04 #@! TO.P,J1,32*
G04 #@! TO.N,Net-(J1-Pad32)*
X68580000Y-113030000D03*
G04 #@! TO.P,J1,33*
G04 #@! TO.N,Net-(J1-Pad33)*
X67310000Y-111125000D03*
G04 #@! TO.P,J1,34*
G04 #@! TO.N,Net-(J1-Pad34)*
X66040000Y-113030000D03*
G04 #@! TO.P,J1,35*
G04 #@! TO.N,Net-(J1-Pad35)*
X64770000Y-111125000D03*
G04 #@! TO.P,J1,36*
G04 #@! TO.N,Net-(J1-Pad36)*
X63500000Y-113030000D03*
G04 #@! TO.P,J1,37*
G04 #@! TO.N,Net-(J1-Pad37)*
X62230000Y-111125000D03*
G04 #@! TO.P,J1,38*
G04 #@! TO.N,Net-(J1-Pad38)*
X60960000Y-113030000D03*
G04 #@! TO.P,J1,39*
G04 #@! TO.N,Net-(J1-Pad39)*
X59690000Y-111125000D03*
G04 #@! TO.P,J1,40*
G04 #@! TO.N,Net-(J1-Pad40)*
X58420000Y-113030000D03*
G04 #@! TO.P,J1,41*
G04 #@! TO.N,Net-(J1-Pad41)*
X57150000Y-111125000D03*
G04 #@! TO.P,J1,42*
G04 #@! TO.N,Net-(J1-Pad42)*
X55880000Y-113030000D03*
G04 #@! TO.P,J1,43*
G04 #@! TO.N,Net-(J1-Pad43)*
X54610000Y-111125000D03*
G04 #@! TO.P,J1,44*
G04 #@! TO.N,Net-(J1-Pad44)*
X53340000Y-113030000D03*
G04 #@! TO.P,J1,45*
G04 #@! TO.N,Net-(J1-Pad45)*
X52070000Y-111125000D03*
G04 #@! TO.P,J1,46*
G04 #@! TO.N,Net-(J1-Pad46)*
X50800000Y-113030000D03*
G04 #@! TO.P,J1,47*
G04 #@! TO.N,Net-(J1-Pad47)*
X49530000Y-111125000D03*
G04 #@! TO.P,J1,48*
G04 #@! TO.N,Net-(J1-Pad48)*
X48260000Y-113030000D03*
G04 #@! TO.P,J1,49*
G04 #@! TO.N,Net-(J1-Pad49)*
X46990000Y-111125000D03*
G04 #@! TO.P,J1,50*
G04 #@! TO.N,Net-(J1-Pad50)*
X45720000Y-113030000D03*
G04 #@! TO.P,J1,51*
G04 #@! TO.N,Net-(J1-Pad51)*
X44450000Y-111125000D03*
G04 #@! TO.P,J1,52*
G04 #@! TO.N,Net-(J1-Pad52)*
X43180000Y-113030000D03*
G04 #@! TO.P,J1,53*
G04 #@! TO.N,Net-(J1-Pad53)*
X41910000Y-111125000D03*
G04 #@! TO.P,J1,54*
G04 #@! TO.N,Net-(J1-Pad54)*
X40640000Y-113030000D03*
G04 #@! TO.P,J1,55*
G04 #@! TO.N,/VBAT*
X39370000Y-111125000D03*
G04 #@! TO.P,J1,56*
G04 #@! TO.N,Net-(J1-Pad56)*
X38100000Y-113030000D03*
G04 #@! TO.P,J1,57*
G04 #@! TO.N,Net-(J1-Pad57)*
X36830000Y-111125000D03*
G04 #@! TO.P,J1,58*
G04 #@! TO.N,+5V*
X35560000Y-113030000D03*
G04 #@! TO.P,J1,59*
X34290000Y-111125000D03*
G04 #@! TO.P,J1,60*
X33020000Y-113030000D03*
G04 #@! TO.P,J1,61*
X107950000Y-114935000D03*
G04 #@! TO.P,J1,62*
X106680000Y-116840000D03*
G04 #@! TO.P,J1,63*
G04 #@! TO.N,Net-(J1-Pad63)*
X105410000Y-114935000D03*
G04 #@! TO.P,J1,64*
G04 #@! TO.N,Net-(J1-Pad64)*
X104140000Y-116840000D03*
G04 #@! TO.P,J1,65*
G04 #@! TO.N,Net-(J1-Pad65)*
X102870000Y-114935000D03*
G04 #@! TO.P,J1,66*
G04 #@! TO.N,Net-(J1-Pad66)*
X101600000Y-116840000D03*
G04 #@! TO.P,J1,67*
G04 #@! TO.N,Net-(J1-Pad67)*
X100330000Y-114935000D03*
G04 #@! TO.P,J1,68*
G04 #@! TO.N,Net-(J1-Pad68)*
X99060000Y-116840000D03*
G04 #@! TO.P,J1,69*
G04 #@! TO.N,Net-(J1-Pad69)*
X97790000Y-114935000D03*
G04 #@! TO.P,J1,70*
G04 #@! TO.N,Net-(J1-Pad70)*
X96520000Y-116840000D03*
G04 #@! TO.P,J1,71*
G04 #@! TO.N,Net-(J1-Pad71)*
X95250000Y-114935000D03*
G04 #@! TO.P,J1,72*
G04 #@! TO.N,Net-(J1-Pad72)*
X93980000Y-116840000D03*
G04 #@! TO.P,J1,73*
G04 #@! TO.N,Net-(J1-Pad73)*
X92710000Y-114935000D03*
G04 #@! TO.P,J1,74*
G04 #@! TO.N,/bD7*
X91440000Y-116840000D03*
G04 #@! TO.P,J1,75*
G04 #@! TO.N,/bD6*
X90170000Y-114935000D03*
G04 #@! TO.P,J1,76*
G04 #@! TO.N,/bD5*
X88900000Y-116840000D03*
G04 #@! TO.P,J1,77*
G04 #@! TO.N,/bD4*
X87630000Y-114935000D03*
G04 #@! TO.P,J1,78*
G04 #@! TO.N,/bD3*
X86360000Y-116840000D03*
G04 #@! TO.P,J1,79*
G04 #@! TO.N,/bD2*
X85090000Y-114935000D03*
G04 #@! TO.P,J1,80*
G04 #@! TO.N,/bD1*
X83820000Y-116840000D03*
G04 #@! TO.P,J1,81*
G04 #@! TO.N,/bD0*
X82550000Y-114935000D03*
G04 #@! TO.P,J1,82*
G04 #@! TO.N,Net-(J1-Pad82)*
X81280000Y-116840000D03*
G04 #@! TO.P,J1,83*
G04 #@! TO.N,Net-(J1-Pad83)*
X80010000Y-114935000D03*
G04 #@! TO.P,J1,84*
G04 #@! TO.N,Net-(J1-Pad84)*
X78740000Y-116840000D03*
G04 #@! TO.P,J1,85*
G04 #@! TO.N,Net-(J1-Pad85)*
X77470000Y-114935000D03*
G04 #@! TO.P,J1,86*
G04 #@! TO.N,Net-(J1-Pad86)*
X76200000Y-116840000D03*
G04 #@! TO.P,J1,87*
G04 #@! TO.N,Net-(J1-Pad87)*
X74930000Y-114935000D03*
G04 #@! TO.P,J1,88*
G04 #@! TO.N,Net-(J1-Pad88)*
X73660000Y-116840000D03*
G04 #@! TO.P,J1,89*
G04 #@! TO.N,Net-(J1-Pad89)*
X72390000Y-114935000D03*
G04 #@! TO.P,J1,90*
G04 #@! TO.N,/~AEN*
X71120000Y-116840000D03*
G04 #@! TO.P,J1,91*
G04 #@! TO.N,Net-(J1-Pad91)*
X69850000Y-114935000D03*
G04 #@! TO.P,J1,92*
G04 #@! TO.N,Net-(J1-Pad92)*
X68580000Y-116840000D03*
G04 #@! TO.P,J1,93*
G04 #@! TO.N,Net-(J1-Pad93)*
X67310000Y-114935000D03*
G04 #@! TO.P,J1,94*
G04 #@! TO.N,Net-(J1-Pad94)*
X66040000Y-116840000D03*
G04 #@! TO.P,J1,95*
G04 #@! TO.N,Net-(J1-Pad95)*
X64770000Y-114935000D03*
G04 #@! TO.P,J1,96*
G04 #@! TO.N,Net-(J1-Pad96)*
X63500000Y-116840000D03*
G04 #@! TO.P,J1,97*
G04 #@! TO.N,Net-(J1-Pad97)*
X62230000Y-114935000D03*
G04 #@! TO.P,J1,98*
G04 #@! TO.N,Net-(J1-Pad98)*
X60960000Y-116840000D03*
G04 #@! TO.P,J1,99*
G04 #@! TO.N,Net-(J1-Pad99)*
X59690000Y-114935000D03*
G04 #@! TO.P,J1,100*
G04 #@! TO.N,/~INT*
X58420000Y-116840000D03*
G04 #@! TO.P,J1,101*
G04 #@! TO.N,/~INTA*
X57150000Y-114935000D03*
G04 #@! TO.P,J1,102*
G04 #@! TO.N,/~IRQ7*
X55880000Y-116840000D03*
G04 #@! TO.P,J1,103*
G04 #@! TO.N,/~IRQ6*
X54610000Y-114935000D03*
G04 #@! TO.P,J1,104*
G04 #@! TO.N,/~IRQ5*
X53340000Y-116840000D03*
G04 #@! TO.P,J1,105*
G04 #@! TO.N,/~IRQ4*
X52070000Y-114935000D03*
G04 #@! TO.P,J1,106*
G04 #@! TO.N,/~IRQ3*
X50800000Y-116840000D03*
G04 #@! TO.P,J1,107*
G04 #@! TO.N,/~IRQ2*
X49530000Y-114935000D03*
G04 #@! TO.P,J1,108*
G04 #@! TO.N,/~IRQ1*
X48260000Y-116840000D03*
G04 #@! TO.P,J1,109*
G04 #@! TO.N,/~IRQ0*
X46990000Y-114935000D03*
G04 #@! TO.P,J1,110*
G04 #@! TO.N,Net-(J1-Pad110)*
X45720000Y-116840000D03*
G04 #@! TO.P,J1,111*
G04 #@! TO.N,Net-(J1-Pad111)*
X44450000Y-114935000D03*
G04 #@! TO.P,J1,112*
G04 #@! TO.N,Net-(J1-Pad112)*
X43180000Y-116840000D03*
G04 #@! TO.P,J1,113*
G04 #@! TO.N,Net-(J1-Pad113)*
X41910000Y-114935000D03*
G04 #@! TO.P,J1,114*
G04 #@! TO.N,Net-(J1-Pad114)*
X40640000Y-116840000D03*
G04 #@! TO.P,J1,115*
G04 #@! TO.N,/~RESET*
X39370000Y-114935000D03*
G04 #@! TO.P,J1,116*
G04 #@! TO.N,GND*
X38100000Y-116840000D03*
G04 #@! TO.P,J1,117*
X36830000Y-114935000D03*
G04 #@! TO.P,J1,118*
X35560000Y-116840000D03*
G04 #@! TO.P,J1,119*
X34290000Y-114935000D03*
G04 #@! TO.P,J1,120*
X33020000Y-116840000D03*
D20*
G04 #@! TO.P,J1,121*
X112395000Y-116840000D03*
G04 #@! TO.P,J1,122*
X27305000Y-116840000D03*
G04 #@! TD*
D21*
G04 #@! TO.P,U3,1*
G04 #@! TO.N,+5V*
X79375000Y-38100000D03*
D22*
G04 #@! TO.P,U3,2*
G04 #@! TO.N,/~HIM*
X76835000Y-35560000D03*
G04 #@! TO.P,U3,3*
G04 #@! TO.N,/LOM*
X76835000Y-38100000D03*
G04 #@! TO.P,U3,4*
G04 #@! TO.N,/A3*
X74295000Y-35560000D03*
G04 #@! TO.P,U3,5*
G04 #@! TO.N,/A2*
X71755000Y-38100000D03*
G04 #@! TO.P,U3,6*
G04 #@! TO.N,/A1*
X74295000Y-38100000D03*
G04 #@! TO.P,U3,7*
G04 #@! TO.N,/A0*
X71755000Y-40640000D03*
G04 #@! TO.P,U3,8*
G04 #@! TO.N,GND*
X74295000Y-40640000D03*
G04 #@! TO.P,U3,9*
G04 #@! TO.N,/~AEN*
X71755000Y-43180000D03*
G04 #@! TO.P,U3,10*
G04 #@! TO.N,/~IOR*
X74295000Y-43180000D03*
G04 #@! TO.P,U3,11*
G04 #@! TO.N,/~IOW*
X71755000Y-45720000D03*
G04 #@! TO.P,U3,12*
G04 #@! TO.N,/INT*
X74295000Y-48260000D03*
G04 #@! TO.P,U3,13*
G04 #@! TO.N,Net-(U3-Pad13)*
X74295000Y-45720000D03*
G04 #@! TO.P,U3,14*
G04 #@! TO.N,GND*
X76835000Y-48260000D03*
G04 #@! TO.P,U3,15*
X76835000Y-45720000D03*
G04 #@! TO.P,U3,16*
G04 #@! TO.N,Net-(U3-Pad16)*
X79375000Y-48260000D03*
G04 #@! TO.P,U3,17*
G04 #@! TO.N,/~PIT_CS*
X79375000Y-45720000D03*
G04 #@! TO.P,U3,18*
G04 #@! TO.N,/RTC_AS*
X81915000Y-48260000D03*
G04 #@! TO.P,U3,19*
G04 #@! TO.N,/~RTC_CS*
X84455000Y-45720000D03*
G04 #@! TO.P,U3,20*
G04 #@! TO.N,/~PIC_CS*
X81915000Y-45720000D03*
G04 #@! TO.P,U3,21*
G04 #@! TO.N,/~STS*
X84455000Y-43180000D03*
G04 #@! TO.P,U3,22*
G04 #@! TO.N,GND*
X81915000Y-43180000D03*
G04 #@! TO.P,U3,23*
G04 #@! TO.N,/~WR*
X84455000Y-40640000D03*
G04 #@! TO.P,U3,24*
G04 #@! TO.N,/~RD*
X81915000Y-40640000D03*
G04 #@! TO.P,U3,25*
G04 #@! TO.N,/DDIR*
X84455000Y-38100000D03*
G04 #@! TO.P,U3,26*
G04 #@! TO.N,/~INT*
X81915000Y-35560000D03*
G04 #@! TO.P,U3,27*
G04 #@! TO.N,Net-(U3-Pad27)*
X81915000Y-38100000D03*
G04 #@! TO.P,U3,28*
G04 #@! TO.N,+5V*
X79375000Y-35560000D03*
G04 #@! TD*
G04 #@! TO.P,U6,28*
G04 #@! TO.N,+5V*
X79375000Y-64135000D03*
G04 #@! TO.P,U6,27*
G04 #@! TO.N,/A0*
X81915000Y-66675000D03*
G04 #@! TO.P,U6,26*
G04 #@! TO.N,/~INTA*
X81915000Y-64135000D03*
G04 #@! TO.P,U6,25*
G04 #@! TO.N,Net-(U6-Pad25)*
X84455000Y-66675000D03*
G04 #@! TO.P,U6,24*
G04 #@! TO.N,Net-(U6-Pad24)*
X81915000Y-69215000D03*
G04 #@! TO.P,U6,23*
G04 #@! TO.N,Net-(U6-Pad23)*
X84455000Y-69215000D03*
G04 #@! TO.P,U6,22*
G04 #@! TO.N,Net-(U6-Pad22)*
X81915000Y-71755000D03*
G04 #@! TO.P,U6,21*
G04 #@! TO.N,Net-(U6-Pad21)*
X84455000Y-71755000D03*
G04 #@! TO.P,U6,20*
G04 #@! TO.N,Net-(U6-Pad20)*
X81915000Y-74295000D03*
G04 #@! TO.P,U6,19*
G04 #@! TO.N,Net-(U6-Pad19)*
X84455000Y-74295000D03*
G04 #@! TO.P,U6,18*
G04 #@! TO.N,Net-(U6-Pad18)*
X81915000Y-76835000D03*
G04 #@! TO.P,U6,17*
G04 #@! TO.N,/INT*
X79375000Y-74295000D03*
G04 #@! TO.P,U6,16*
G04 #@! TO.N,/PU0*
X79375000Y-76835000D03*
G04 #@! TO.P,U6,15*
G04 #@! TO.N,Net-(U6-Pad15)*
X76835000Y-74295000D03*
G04 #@! TO.P,U6,14*
G04 #@! TO.N,GND*
X76835000Y-76835000D03*
G04 #@! TO.P,U6,13*
G04 #@! TO.N,Net-(U6-Pad13)*
X74295000Y-74295000D03*
G04 #@! TO.P,U6,12*
G04 #@! TO.N,Net-(U6-Pad12)*
X74295000Y-76835000D03*
G04 #@! TO.P,U6,11*
G04 #@! TO.N,/D0*
X71755000Y-74295000D03*
G04 #@! TO.P,U6,10*
G04 #@! TO.N,/D1*
X74295000Y-71755000D03*
G04 #@! TO.P,U6,9*
G04 #@! TO.N,/D2*
X71755000Y-71755000D03*
G04 #@! TO.P,U6,8*
G04 #@! TO.N,/D3*
X74295000Y-69215000D03*
G04 #@! TO.P,U6,7*
G04 #@! TO.N,/D4*
X71755000Y-69215000D03*
G04 #@! TO.P,U6,6*
G04 #@! TO.N,/D5*
X74295000Y-66675000D03*
G04 #@! TO.P,U6,5*
G04 #@! TO.N,/D6*
X71755000Y-66675000D03*
G04 #@! TO.P,U6,4*
G04 #@! TO.N,/D7*
X74295000Y-64135000D03*
G04 #@! TO.P,U6,3*
G04 #@! TO.N,/~WR*
X76835000Y-66675000D03*
G04 #@! TO.P,U6,2*
G04 #@! TO.N,/~RD*
X76835000Y-64135000D03*
D21*
G04 #@! TO.P,U6,1*
G04 #@! TO.N,/~PIC_CS*
X79375000Y-66675000D03*
G04 #@! TD*
G04 #@! TO.P,U1,1*
G04 #@! TO.N,Net-(U1-Pad1)*
X57785000Y-38100000D03*
D22*
G04 #@! TO.P,U1,2*
G04 #@! TO.N,/D7*
X55245000Y-35560000D03*
G04 #@! TO.P,U1,3*
G04 #@! TO.N,/D6*
X55245000Y-38100000D03*
G04 #@! TO.P,U1,4*
G04 #@! TO.N,/D5*
X52705000Y-35560000D03*
G04 #@! TO.P,U1,5*
G04 #@! TO.N,/D4*
X50165000Y-38100000D03*
G04 #@! TO.P,U1,6*
G04 #@! TO.N,/D3*
X52705000Y-38100000D03*
G04 #@! TO.P,U1,7*
G04 #@! TO.N,/D2*
X50165000Y-40640000D03*
G04 #@! TO.P,U1,8*
G04 #@! TO.N,/D1*
X52705000Y-40640000D03*
G04 #@! TO.P,U1,9*
G04 #@! TO.N,/D0*
X50165000Y-43180000D03*
G04 #@! TO.P,U1,10*
G04 #@! TO.N,Net-(U1-Pad10)*
X52705000Y-43180000D03*
G04 #@! TO.P,U1,11*
G04 #@! TO.N,Net-(U1-Pad11)*
X50165000Y-45720000D03*
G04 #@! TO.P,U1,12*
G04 #@! TO.N,/T0*
X52705000Y-48260000D03*
G04 #@! TO.P,U1,13*
G04 #@! TO.N,+5V*
X52705000Y-45720000D03*
G04 #@! TO.P,U1,14*
G04 #@! TO.N,GND*
X55245000Y-48260000D03*
G04 #@! TO.P,U1,15*
G04 #@! TO.N,Net-(U1-Pad15)*
X55245000Y-45720000D03*
G04 #@! TO.P,U1,16*
G04 #@! TO.N,/T1*
X57785000Y-48260000D03*
G04 #@! TO.P,U1,17*
G04 #@! TO.N,+5V*
X57785000Y-45720000D03*
G04 #@! TO.P,U1,18*
G04 #@! TO.N,Net-(U1-Pad10)*
X60325000Y-48260000D03*
G04 #@! TO.P,U1,19*
G04 #@! TO.N,+5V*
X62865000Y-45720000D03*
G04 #@! TO.P,U1,20*
G04 #@! TO.N,/T2*
X60325000Y-45720000D03*
G04 #@! TO.P,U1,21*
G04 #@! TO.N,Net-(U1-Pad10)*
X62865000Y-43180000D03*
G04 #@! TO.P,U1,22*
G04 #@! TO.N,/A0*
X60325000Y-43180000D03*
G04 #@! TO.P,U1,23*
G04 #@! TO.N,/A1*
X62865000Y-40640000D03*
G04 #@! TO.P,U1,24*
G04 #@! TO.N,/~PIT_CS*
X60325000Y-40640000D03*
G04 #@! TO.P,U1,25*
G04 #@! TO.N,Net-(U1-Pad25)*
X62865000Y-38100000D03*
G04 #@! TO.P,U1,26*
G04 #@! TO.N,/~RD*
X60325000Y-35560000D03*
G04 #@! TO.P,U1,27*
G04 #@! TO.N,/~WR*
X60325000Y-38100000D03*
G04 #@! TO.P,U1,28*
G04 #@! TO.N,+5V*
X57785000Y-35560000D03*
G04 #@! TD*
G04 #@! TO.P,U10,28*
G04 #@! TO.N,+5V*
X57150000Y-64135000D03*
G04 #@! TO.P,U10,27*
G04 #@! TO.N,/SQW*
X59690000Y-66675000D03*
G04 #@! TO.P,U10,26*
G04 #@! TO.N,N/C*
X59690000Y-64135000D03*
G04 #@! TO.P,U10,25*
G04 #@! TO.N,Net-(JP2-Pad1)*
X62230000Y-66675000D03*
G04 #@! TO.P,U10,24*
G04 #@! TO.N,Net-(BT1-Pad1)*
X59690000Y-69215000D03*
G04 #@! TO.P,U10,23*
G04 #@! TO.N,/~RTCI*
X62230000Y-69215000D03*
G04 #@! TO.P,U10,22*
G04 #@! TO.N,Net-(J3-Pad2)*
X59690000Y-71755000D03*
G04 #@! TO.P,U10,21*
G04 #@! TO.N,/~RD*
X62230000Y-71755000D03*
G04 #@! TO.P,U10,20*
G04 #@! TO.N,GND*
X59690000Y-74295000D03*
G04 #@! TO.P,U10,19*
G04 #@! TO.N,/~WR*
X62230000Y-74295000D03*
G04 #@! TO.P,U10,18*
G04 #@! TO.N,N/C*
X59690000Y-76835000D03*
G04 #@! TO.P,U10,17*
G04 #@! TO.N,/RTC_AS*
X57150000Y-74295000D03*
G04 #@! TO.P,U10,16*
G04 #@! TO.N,/~RTC_CS*
X57150000Y-76835000D03*
G04 #@! TO.P,U10,15*
G04 #@! TO.N,GND*
X54610000Y-74295000D03*
G04 #@! TO.P,U10,14*
G04 #@! TO.N,/D7*
X54610000Y-76835000D03*
G04 #@! TO.P,U10,13*
G04 #@! TO.N,N/C*
X52070000Y-74295000D03*
G04 #@! TO.P,U10,12*
G04 #@! TO.N,/D6*
X52070000Y-76835000D03*
G04 #@! TO.P,U10,11*
G04 #@! TO.N,N/C*
X49530000Y-74295000D03*
G04 #@! TO.P,U10,10*
G04 #@! TO.N,/D5*
X52070000Y-71755000D03*
G04 #@! TO.P,U10,9*
G04 #@! TO.N,/D4*
X49530000Y-71755000D03*
G04 #@! TO.P,U10,8*
G04 #@! TO.N,/D3*
X52070000Y-69215000D03*
G04 #@! TO.P,U10,7*
G04 #@! TO.N,/D2*
X49530000Y-69215000D03*
G04 #@! TO.P,U10,6*
G04 #@! TO.N,/D1*
X52070000Y-66675000D03*
G04 #@! TO.P,U10,5*
G04 #@! TO.N,/D0*
X49530000Y-66675000D03*
G04 #@! TO.P,U10,4*
G04 #@! TO.N,Net-(U10-Pad4)*
X52070000Y-64135000D03*
G04 #@! TO.P,U10,3*
G04 #@! TO.N,Net-(U10-Pad3)*
X54610000Y-66675000D03*
G04 #@! TO.P,U10,2*
G04 #@! TO.N,Net-(U10-Pad2)*
X54610000Y-64135000D03*
D21*
G04 #@! TO.P,U10,1*
G04 #@! TO.N,N/C*
X57150000Y-66675000D03*
G04 #@! TD*
D23*
G04 #@! TO.N,/SQW*
X59013200Y-95959500D03*
G04 #@! TO.N,Net-(J3-Pad2)*
X56398700Y-71755000D03*
D24*
G04 #@! TO.N,GND*
X103666700Y-74646500D03*
D23*
X49530000Y-52705000D03*
X49530000Y-50800000D03*
X51435000Y-51435000D03*
X118110000Y-21590000D03*
X116840000Y-21590000D03*
X118110000Y-22860000D03*
X116840000Y-22860000D03*
X21590000Y-21590000D03*
X22860000Y-21590000D03*
X22860000Y-22860000D03*
X21590000Y-22860000D03*
G04 #@! TO.N,/~WR*
X63565300Y-72271500D03*
G04 #@! TO.N,/RTC_AS*
X71074500Y-52263000D03*
G04 #@! TO.N,/D7*
X69149600Y-97997100D03*
X69490600Y-63172500D03*
X59428800Y-47247100D03*
G04 #@! TO.N,/D6*
X74435700Y-98344600D03*
X56446400Y-65314000D03*
G04 #@! TO.N,/D5*
X77410800Y-96445000D03*
G04 #@! TO.N,/D4*
X74412300Y-96156200D03*
G04 #@! TO.N,/D3*
X74441200Y-94602700D03*
G04 #@! TO.N,/D2*
X74364100Y-93014900D03*
X51204800Y-75918200D03*
G04 #@! TO.N,/D1*
X51167800Y-47155000D03*
X73892100Y-89895800D03*
G04 #@! TO.N,/D0*
X71689200Y-64632900D03*
X74396800Y-90805000D03*
G04 #@! TO.N,/T0*
X64150100Y-90719400D03*
X66380500Y-64043300D03*
X79586000Y-60498800D03*
X72696300Y-63105200D03*
G04 #@! TO.N,/T1*
X59768800Y-92041800D03*
G04 #@! TO.N,/T2*
X69085000Y-95885000D03*
X71951600Y-55193500D03*
X82024000Y-61688100D03*
X81325100Y-54064600D03*
G04 #@! TO.N,/A0*
X63296700Y-92076200D03*
X70467900Y-53254400D03*
X81164000Y-52933700D03*
G04 #@! TO.N,/A1*
X59333400Y-93157000D03*
G04 #@! TO.N,/~INTA*
X73230700Y-105929800D03*
X83182200Y-73254600D03*
G04 #@! TO.N,Net-(U6-Pad24)*
X54617100Y-94547700D03*
X67976300Y-82044000D03*
X79703200Y-70059500D03*
G04 #@! TO.N,Net-(U6-Pad23)*
X58437700Y-95223500D03*
X64124700Y-88230000D03*
G04 #@! TO.N,Net-(U6-Pad22)*
X73393800Y-99714700D03*
G04 #@! TO.N,Net-(U6-Pad21)*
X50222500Y-93251600D03*
G04 #@! TO.N,Net-(U6-Pad20)*
X51954300Y-94921300D03*
X68400600Y-83264200D03*
X79263300Y-78297100D03*
G04 #@! TO.N,Net-(U6-Pad19)*
X48290400Y-97155000D03*
X54182900Y-103047500D03*
X77872700Y-100826900D03*
G04 #@! TO.N,Net-(U6-Pad18)*
X73090200Y-96623800D03*
G04 #@! TO.N,/PU0*
X86295100Y-63744000D03*
G04 #@! TO.N,/~HIM*
X98440800Y-90884600D03*
G04 #@! TO.N,/LOM*
X97996400Y-77590000D03*
G04 #@! TO.N,/A3*
X54167200Y-99186300D03*
G04 #@! TO.N,/A2*
X58987500Y-94461700D03*
G04 #@! TO.N,/~STS*
X63330700Y-90002600D03*
X69920100Y-51411200D03*
G04 #@! TO.N,/DDIR*
X86947400Y-79541100D03*
G04 #@! TO.N,/~INT*
X89040800Y-91460200D03*
G04 #@! TO.N,/A14*
X88936900Y-93562700D03*
G04 #@! TO.N,/A12*
X87592400Y-105243900D03*
G04 #@! TO.N,/A7*
X105384000Y-76346200D03*
G04 #@! TO.N,/A6*
X89105400Y-75375900D03*
G04 #@! TO.N,/A5*
X105535800Y-78856400D03*
G04 #@! TO.N,/A4*
X105052800Y-81481600D03*
G04 #@! TO.N,/bA3*
X72767200Y-101125100D03*
G04 #@! TO.N,/bA2*
X72274300Y-98543300D03*
G04 #@! TO.N,/bA1*
X72263200Y-95885000D03*
G04 #@! TO.N,/bA0*
X67729100Y-93442500D03*
X67729100Y-108040500D03*
G04 #@! TO.N,/bD7*
X87749100Y-101281900D03*
G04 #@! TO.N,/bD6*
X87317300Y-100330000D03*
G04 #@! TO.N,/bD5*
X82968600Y-98111600D03*
G04 #@! TO.N,/bD4*
X67151000Y-92148900D03*
X68580100Y-109616100D03*
X86861100Y-97155000D03*
G04 #@! TO.N,/bD3*
X86882100Y-96206800D03*
G04 #@! TO.N,/bD2*
X83817000Y-94915700D03*
G04 #@! TO.N,/bD1*
X83554500Y-93819200D03*
G04 #@! TO.N,/bD0*
X83177100Y-92362300D03*
G04 #@! TO.N,/~IRQ4*
X40807600Y-98989000D03*
G04 #@! TO.N,/~IRQ0*
X54620800Y-101112600D03*
G04 #@! TO.N,/PU1*
X95045500Y-77916900D03*
X92116200Y-100924300D03*
G04 #@! TO.N,/PU2*
X90307200Y-102517100D03*
X94152800Y-80109200D03*
G04 #@! TO.N,/PU3*
X84729000Y-104851500D03*
X94421200Y-76588000D03*
G04 #@! TO.N,Net-(RN2-Pad10)*
X102737200Y-91521900D03*
G04 #@! TO.N,Net-(RN2-Pad9)*
X102082400Y-94615000D03*
G04 #@! TO.N,Net-(RN2-Pad8)*
X101469700Y-97155000D03*
G04 #@! TO.N,Net-(RN2-Pad7)*
X101456600Y-98409700D03*
G04 #@! TO.N,Net-(RN2-Pad6)*
X92682700Y-98758200D03*
G04 #@! TO.N,Net-(RN2-Pad5)*
X92154200Y-97445200D03*
G04 #@! TO.N,Net-(RN2-Pad4)*
X92428400Y-94411900D03*
G04 #@! TO.N,Net-(RN2-Pad3)*
X91989900Y-91463900D03*
G04 #@! TO.N,Net-(J2-Pad8)*
X79050100Y-103096000D03*
X88778800Y-77409500D03*
G04 #@! TO.N,Net-(J2-Pad6)*
X79635800Y-103821900D03*
X89881800Y-80588100D03*
G04 #@! TD*
D25*
G04 #@! TO.N,+5V*
X57150000Y-64135000D02*
X57441300Y-63843700D01*
X57441300Y-63843700D02*
X57441300Y-53633400D01*
X57441300Y-53633400D02*
X53934600Y-50126700D01*
X53934600Y-50126700D02*
X53934600Y-46949600D01*
X53934600Y-46949600D02*
X52705000Y-45720000D01*
X79375000Y-38100000D02*
X80575800Y-38100000D01*
X92915300Y-45085000D02*
X92915300Y-44808900D01*
X92915300Y-44808900D02*
X85005600Y-36899200D01*
X85005600Y-36899200D02*
X81401300Y-36899200D01*
X81401300Y-36899200D02*
X80575800Y-37724700D01*
X80575800Y-37724700D02*
X80575800Y-38100000D01*
X92915300Y-45085000D02*
X93312700Y-45085000D01*
X86360000Y-56482700D02*
X92915300Y-49927400D01*
X92915300Y-49927400D02*
X92915300Y-45085000D01*
X79375000Y-35560000D02*
X79375000Y-38100000D01*
X86360000Y-57785000D02*
X86360000Y-56482700D01*
X43180000Y-83820000D02*
X38795700Y-83820000D01*
X38795700Y-83820000D02*
X34290000Y-88325700D01*
X34290000Y-88325700D02*
X34290000Y-111125000D01*
X94615000Y-45085000D02*
X93312700Y-45085000D01*
X106680000Y-116840000D02*
X107950000Y-115570000D01*
X107950000Y-115570000D02*
X107950000Y-114935000D01*
D26*
G04 #@! TO.N,/SQW*
X59013200Y-95959500D02*
X58250900Y-95959500D01*
X58250900Y-95959500D02*
X57785300Y-95493900D01*
X57785300Y-95493900D02*
X57785300Y-94781900D01*
X57785300Y-94781900D02*
X58241100Y-94326100D01*
X58241100Y-94326100D02*
X58241100Y-76917900D01*
X58241100Y-76917900D02*
X59913100Y-75245900D01*
X59913100Y-75245900D02*
X60105200Y-75245900D01*
X60105200Y-75245900D02*
X60643200Y-74707900D01*
X60643200Y-74707900D02*
X60643200Y-68704000D01*
X60643200Y-68704000D02*
X59690000Y-67750800D01*
X59690000Y-67750800D02*
X59690000Y-66675000D01*
G04 #@! TO.N,Net-(JP2-Pad1)*
X66675000Y-56515000D02*
X66675000Y-57617300D01*
X62230000Y-66675000D02*
X62230000Y-62062300D01*
X62230000Y-62062300D02*
X66675000Y-57617300D01*
G04 #@! TO.N,Net-(J3-Pad2)*
X46822300Y-83820000D02*
X46822300Y-83591700D01*
X46822300Y-83591700D02*
X53400100Y-77013900D01*
X53400100Y-77013900D02*
X53400100Y-74083600D01*
X53400100Y-74083600D02*
X55728700Y-71755000D01*
X55728700Y-71755000D02*
X56398700Y-71755000D01*
X45720000Y-83820000D02*
X46822300Y-83820000D01*
G04 #@! TO.N,/~RD*
X81915000Y-40640000D02*
X82898100Y-41623100D01*
X82898100Y-41623100D02*
X82898100Y-43556000D01*
X82898100Y-43556000D02*
X82092100Y-44362000D01*
X82092100Y-44362000D02*
X81927100Y-44362000D01*
X81927100Y-44362000D02*
X80529900Y-45759200D01*
X80529900Y-45759200D02*
X80529900Y-51461500D01*
X80529900Y-51461500D02*
X80134400Y-51857000D01*
X80134400Y-51857000D02*
X80134400Y-53360100D01*
X80134400Y-53360100D02*
X80238400Y-53464100D01*
X80238400Y-53464100D02*
X80238400Y-60827200D01*
X80238400Y-60827200D02*
X76930600Y-64135000D01*
X76930600Y-64135000D02*
X76835000Y-64135000D01*
D25*
G04 #@! TO.N,GND*
X58420100Y-73065400D02*
X58460400Y-73065400D01*
X58460400Y-73065400D02*
X59690000Y-74295000D01*
X54610000Y-74295000D02*
X55839600Y-73065400D01*
X55839600Y-73065400D02*
X58420100Y-73065400D01*
X58420100Y-73065400D02*
X58420100Y-51435100D01*
X58420100Y-51435100D02*
X55245000Y-48260000D01*
X74295000Y-41445100D02*
X73870500Y-41869600D01*
X73870500Y-41869600D02*
X71352600Y-41869600D01*
X71352600Y-41869600D02*
X69012000Y-44210200D01*
X69012000Y-44210200D02*
X69012000Y-54959700D01*
X69012000Y-54959700D02*
X69215000Y-55162700D01*
X34290000Y-115570000D02*
X34290000Y-114935000D01*
X35560000Y-116840000D02*
X34290000Y-115570000D01*
X33020000Y-116840000D02*
X34290000Y-115570000D01*
X33020000Y-60155000D02*
X22741300Y-70433700D01*
X22741300Y-70433700D02*
X22741300Y-104394300D01*
X22741300Y-104394300D02*
X33282000Y-114935000D01*
X33282000Y-114935000D02*
X34290000Y-114935000D01*
X76835000Y-45720000D02*
X76835000Y-48260000D01*
X76835000Y-43985100D02*
X76835000Y-45720000D01*
X112395000Y-86360000D02*
X107812200Y-81777200D01*
X107812200Y-81777200D02*
X107812200Y-77484300D01*
X107812200Y-77484300D02*
X104974400Y-74646500D01*
X104974400Y-74646500D02*
X103666700Y-74646500D01*
X69215000Y-56515000D02*
X69215000Y-55162700D01*
X74295000Y-41445100D02*
X76835000Y-43985100D01*
X81915000Y-43180000D02*
X77640100Y-43180000D01*
X77640100Y-43180000D02*
X76835000Y-43985100D01*
X74295000Y-40640000D02*
X74295000Y-41445100D01*
X112395000Y-86360000D02*
X112395000Y-87662300D01*
X112395000Y-87662300D02*
X107950000Y-92107300D01*
X107950000Y-92107300D02*
X107950000Y-111125000D01*
X106680000Y-112395000D02*
X105410000Y-111125000D01*
X106680000Y-113030000D02*
X106680000Y-112395000D01*
X106680000Y-112395000D02*
X107950000Y-111125000D01*
X36830000Y-115570000D02*
X38100000Y-116840000D01*
X36830000Y-114935000D02*
X36830000Y-115570000D01*
X36830000Y-115570000D02*
X35560000Y-116840000D01*
X49530000Y-52705000D02*
X49530000Y-54107990D01*
D26*
G04 #@! TO.N,/~WR*
X76835000Y-66675000D02*
X77831400Y-67671400D01*
X77831400Y-67671400D02*
X82268800Y-67671400D01*
X82268800Y-67671400D02*
X83275500Y-66664700D01*
X83275500Y-66664700D02*
X83275500Y-41819500D01*
X83275500Y-41819500D02*
X84455000Y-40640000D01*
X60325000Y-38100000D02*
X61734300Y-36690700D01*
X61734300Y-36690700D02*
X74306100Y-36690700D01*
X74306100Y-36690700D02*
X75565100Y-37949700D01*
X75565100Y-37949700D02*
X75565100Y-38216700D01*
X75565100Y-38216700D02*
X76903600Y-39555200D01*
X76903600Y-39555200D02*
X83370200Y-39555200D01*
X83370200Y-39555200D02*
X84455000Y-40640000D01*
X62230000Y-74295000D02*
X62230000Y-73606800D01*
X62230000Y-73606800D02*
X63565300Y-72271500D01*
G04 #@! TO.N,/RTC_AS*
X71074500Y-52263000D02*
X71137700Y-52326200D01*
X71137700Y-52326200D02*
X71137700Y-57852100D01*
X71137700Y-57852100D02*
X67590200Y-61399600D01*
X67590200Y-61399600D02*
X67590200Y-80974100D01*
X67590200Y-80974100D02*
X66946500Y-81617800D01*
X66946500Y-81617800D02*
X66946500Y-89482600D01*
X66946500Y-89482600D02*
X59807000Y-96622100D01*
X59807000Y-96622100D02*
X58365900Y-96622100D01*
X58365900Y-96622100D02*
X56199100Y-94455300D01*
X56199100Y-94455300D02*
X56199100Y-75245900D01*
X56199100Y-75245900D02*
X57150000Y-74295000D01*
G04 #@! TO.N,/D7*
X68304500Y-81376000D02*
X67721900Y-81376000D01*
X67721900Y-81376000D02*
X67323800Y-81774100D01*
X67323800Y-81774100D02*
X67323800Y-89638900D01*
X67323800Y-89638900D02*
X59962600Y-97000100D01*
X59962600Y-97000100D02*
X58120300Y-97000100D01*
X58120300Y-97000100D02*
X54610000Y-93489800D01*
X54610000Y-93489800D02*
X54610000Y-76835000D01*
X69490600Y-63172500D02*
X68304500Y-64358600D01*
X68304500Y-64358600D02*
X68304500Y-81376000D01*
X68304500Y-81376000D02*
X69058900Y-82130400D01*
X69058900Y-82130400D02*
X69058900Y-94983900D01*
X69058900Y-94983900D02*
X68432600Y-95610200D01*
X68432600Y-95610200D02*
X68432600Y-97280100D01*
X68432600Y-97280100D02*
X69149600Y-97997100D01*
X59428800Y-47247100D02*
X59055100Y-46873400D01*
X59055100Y-46873400D02*
X59055100Y-42813100D01*
X59055100Y-42813100D02*
X56648500Y-40406500D01*
X56648500Y-40406500D02*
X56648500Y-36963500D01*
X56648500Y-36963500D02*
X55245000Y-35560000D01*
G04 #@! TO.N,/D6*
X71755000Y-66675000D02*
X73025000Y-67945000D01*
X73025000Y-67945000D02*
X74385100Y-67945000D01*
X74385100Y-67945000D02*
X75672400Y-69232300D01*
X75672400Y-69232300D02*
X75672400Y-97107900D01*
X75672400Y-97107900D02*
X74435700Y-98344600D01*
X56199100Y-65314000D02*
X56199100Y-63142100D01*
X56199100Y-63142100D02*
X56777900Y-62563300D01*
X56777900Y-62563300D02*
X56777900Y-54458500D01*
X56777900Y-54458500D02*
X51729400Y-49410000D01*
X51729400Y-49410000D02*
X51729400Y-47515900D01*
X51729400Y-47515900D02*
X51820100Y-47425200D01*
X51820100Y-47425200D02*
X51820100Y-46884800D01*
X51820100Y-46884800D02*
X51729400Y-46794100D01*
X51729400Y-46794100D02*
X51729400Y-42757600D01*
X51729400Y-42757600D02*
X52577000Y-41910000D01*
X52577000Y-41910000D02*
X52846700Y-41910000D01*
X52846700Y-41910000D02*
X55245000Y-39511700D01*
X55245000Y-39511700D02*
X55245000Y-38100000D01*
X56199100Y-65314000D02*
X56199100Y-70160700D01*
X56199100Y-70160700D02*
X53020900Y-73338900D01*
X53020900Y-73338900D02*
X53020900Y-75884100D01*
X53020900Y-75884100D02*
X52070000Y-76835000D01*
X56199100Y-65314000D02*
X56446400Y-65314000D01*
G04 #@! TO.N,/D5*
X52070000Y-71755000D02*
X50858200Y-70543200D01*
X50858200Y-70543200D02*
X49493200Y-70543200D01*
X49493200Y-70543200D02*
X43877100Y-64927100D01*
X43877100Y-64927100D02*
X43877100Y-45565400D01*
X43877100Y-45565400D02*
X50287100Y-39155400D01*
X50287100Y-39155400D02*
X50507600Y-39155400D01*
X50507600Y-39155400D02*
X51435100Y-38227900D01*
X51435100Y-38227900D02*
X51435100Y-36829900D01*
X51435100Y-36829900D02*
X52705000Y-35560000D01*
X74295000Y-66675000D02*
X77820900Y-70200900D01*
X77820900Y-70200900D02*
X77820900Y-96034900D01*
X77820900Y-96034900D02*
X77410800Y-96445000D01*
G04 #@! TO.N,/D4*
X71755000Y-69215000D02*
X70379600Y-70590400D01*
X70379600Y-70590400D02*
X70379600Y-78278800D01*
X70379600Y-78278800D02*
X71521100Y-79420300D01*
X71521100Y-79420300D02*
X71521100Y-93265000D01*
X71521100Y-93265000D02*
X74412300Y-96156200D01*
X49530000Y-71755000D02*
X43499700Y-65724700D01*
X43499700Y-65724700D02*
X43499700Y-44765300D01*
X43499700Y-44765300D02*
X50165000Y-38100000D01*
G04 #@! TO.N,/D3*
X74295000Y-69215000D02*
X75267200Y-70187200D01*
X75267200Y-70187200D02*
X75267200Y-93776700D01*
X75267200Y-93776700D02*
X74441200Y-94602700D01*
X52070000Y-69215000D02*
X50800000Y-67945000D01*
X50800000Y-67945000D02*
X49434900Y-67945000D01*
X49434900Y-67945000D02*
X44642000Y-63152100D01*
X44642000Y-63152100D02*
X44642000Y-47337000D01*
X44642000Y-47337000D02*
X49749900Y-42229100D01*
X49749900Y-42229100D02*
X49942100Y-42229100D01*
X49942100Y-42229100D02*
X51301500Y-40869700D01*
X51301500Y-40869700D02*
X51301500Y-39503500D01*
X51301500Y-39503500D02*
X52705000Y-38100000D01*
G04 #@! TO.N,/D2*
X74364100Y-93014900D02*
X72578000Y-91228800D01*
X72578000Y-91228800D02*
X72578000Y-78628300D01*
X72578000Y-78628300D02*
X70804000Y-76854300D01*
X70804000Y-76854300D02*
X70804000Y-72706000D01*
X70804000Y-72706000D02*
X71755000Y-71755000D01*
X49530000Y-69215000D02*
X44264600Y-63949600D01*
X44264600Y-63949600D02*
X44264600Y-46540400D01*
X44264600Y-46540400D02*
X50165000Y-40640000D01*
X51204800Y-75918200D02*
X51069100Y-75782500D01*
X51069100Y-75782500D02*
X51069100Y-73951200D01*
X51069100Y-73951200D02*
X52314400Y-72705900D01*
X52314400Y-72705900D02*
X52468500Y-72705900D01*
X52468500Y-72705900D02*
X53020900Y-72153500D01*
X53020900Y-72153500D02*
X53020900Y-71356800D01*
X53020900Y-71356800D02*
X52207500Y-70543400D01*
X52207500Y-70543400D02*
X51399100Y-70543400D01*
X51399100Y-70543400D02*
X50070700Y-69215000D01*
X50070700Y-69215000D02*
X49530000Y-69215000D01*
G04 #@! TO.N,/D1*
X51167800Y-47155000D02*
X51167800Y-42177200D01*
X51167800Y-42177200D02*
X52705000Y-40640000D01*
X52070000Y-66675000D02*
X51702300Y-66675000D01*
X51702300Y-66675000D02*
X45437600Y-60410300D01*
X45437600Y-60410300D02*
X45437600Y-52885200D01*
X45437600Y-52885200D02*
X51167800Y-47155000D01*
X73892100Y-89895800D02*
X73892100Y-78875200D01*
X73892100Y-78875200D02*
X73323000Y-78306100D01*
X73323000Y-78306100D02*
X73323000Y-72727000D01*
X73323000Y-72727000D02*
X74295000Y-71755000D01*
G04 #@! TO.N,/D0*
X71689200Y-64632900D02*
X70797400Y-65524700D01*
X70797400Y-65524700D02*
X70797400Y-67077100D01*
X70797400Y-67077100D02*
X71853900Y-68133600D01*
X71853900Y-68133600D02*
X72094000Y-68133600D01*
X72094000Y-68133600D02*
X72766600Y-68806200D01*
X72766600Y-68806200D02*
X72766600Y-73283400D01*
X72766600Y-73283400D02*
X71755000Y-74295000D01*
X74396800Y-90805000D02*
X73876700Y-90805000D01*
X73876700Y-90805000D02*
X72955300Y-89883600D01*
X72955300Y-89883600D02*
X72955300Y-78472000D01*
X72955300Y-78472000D02*
X71755000Y-77271700D01*
X71755000Y-77271700D02*
X71755000Y-74295000D01*
X49530000Y-66675000D02*
X45030100Y-62175100D01*
X45030100Y-62175100D02*
X45030100Y-48314900D01*
X45030100Y-48314900D02*
X50165000Y-43180000D01*
G04 #@! TO.N,Net-(U1-Pad10)*
X59980400Y-47899400D02*
X59980400Y-47915400D01*
X59980400Y-47915400D02*
X60325000Y-48260000D01*
X62865000Y-43180000D02*
X61469200Y-44575800D01*
X61469200Y-44575800D02*
X61469200Y-46410600D01*
X61469200Y-46410600D02*
X59980400Y-47899400D01*
X52705000Y-43180000D02*
X54050500Y-43180000D01*
X54050500Y-43180000D02*
X56573300Y-45702800D01*
X56573300Y-45702800D02*
X56573300Y-45945400D01*
X56573300Y-45945400D02*
X57744500Y-47116600D01*
X57744500Y-47116600D02*
X58375900Y-47116600D01*
X58375900Y-47116600D02*
X59158700Y-47899400D01*
X59158700Y-47899400D02*
X59980400Y-47899400D01*
G04 #@! TO.N,/T0*
X66380500Y-64043300D02*
X66191900Y-64231900D01*
X66191900Y-64231900D02*
X66191900Y-88677600D01*
X66191900Y-88677600D02*
X64150100Y-90719400D01*
X72696300Y-63105200D02*
X73735800Y-62065700D01*
X73735800Y-62065700D02*
X73735800Y-54454400D01*
X73735800Y-54454400D02*
X73344100Y-54062700D01*
X73344100Y-54062700D02*
X73344100Y-47851100D01*
X73344100Y-47851100D02*
X73916800Y-47278400D01*
X73916800Y-47278400D02*
X74670800Y-47278400D01*
X74670800Y-47278400D02*
X75857200Y-48464800D01*
X75857200Y-48464800D02*
X75857200Y-56770000D01*
X75857200Y-56770000D02*
X79586000Y-60498800D01*
G04 #@! TO.N,/T1*
X57785000Y-48260000D02*
X60896400Y-51371400D01*
X60896400Y-51371400D02*
X60896400Y-67632800D01*
X60896400Y-67632800D02*
X61075000Y-67811400D01*
X61075000Y-67811400D02*
X61075000Y-90735600D01*
X61075000Y-90735600D02*
X59768800Y-92041800D01*
G04 #@! TO.N,/T2*
X71951600Y-55193500D02*
X71951600Y-57571800D01*
X71951600Y-57571800D02*
X70142900Y-59380500D01*
X70142900Y-59380500D02*
X70142900Y-63442700D01*
X70142900Y-63442700D02*
X68861800Y-64723800D01*
X68861800Y-64723800D02*
X68861800Y-81284600D01*
X68861800Y-81284600D02*
X69450100Y-81872900D01*
X69450100Y-81872900D02*
X69450100Y-95519900D01*
X69450100Y-95519900D02*
X69085000Y-95885000D01*
X82024000Y-61688100D02*
X82024000Y-54763500D01*
X82024000Y-54763500D02*
X81325100Y-54064600D01*
G04 #@! TO.N,/A0*
X70467900Y-53254400D02*
X70751600Y-53538100D01*
X70751600Y-53538100D02*
X70751600Y-57515900D01*
X70751600Y-57515900D02*
X67079700Y-61187800D01*
X67079700Y-61187800D02*
X67079700Y-65095800D01*
X67079700Y-65095800D02*
X66569200Y-65606300D01*
X66569200Y-65606300D02*
X66569200Y-89326300D01*
X66569200Y-89326300D02*
X63819300Y-92076200D01*
X63819300Y-92076200D02*
X63296700Y-92076200D01*
X81915000Y-66675000D02*
X82898100Y-65691900D01*
X82898100Y-65691900D02*
X82898100Y-54667800D01*
X82898100Y-54667800D02*
X81164000Y-52933700D01*
G04 #@! TO.N,/A1*
X59333400Y-93157000D02*
X59576100Y-93157000D01*
X59576100Y-93157000D02*
X61452400Y-91280700D01*
X61452400Y-91280700D02*
X61452400Y-87015900D01*
X61452400Y-87015900D02*
X64220900Y-84247400D01*
X64220900Y-84247400D02*
X64220900Y-69855300D01*
X64220900Y-69855300D02*
X62310600Y-67945000D01*
X62310600Y-67945000D02*
X62155300Y-67945000D01*
X62155300Y-67945000D02*
X61279100Y-67068800D01*
X61279100Y-67068800D02*
X61279100Y-52341900D01*
X61279100Y-52341900D02*
X64532400Y-49088600D01*
X64532400Y-49088600D02*
X64532400Y-42307400D01*
X62865000Y-40640000D02*
X64532400Y-42307400D01*
X64532400Y-42307400D02*
X69707200Y-37132600D01*
X69707200Y-37132600D02*
X73327600Y-37132600D01*
X73327600Y-37132600D02*
X74295000Y-38100000D01*
G04 #@! TO.N,/~INTA*
X83182200Y-73254600D02*
X83262100Y-73334500D01*
X83262100Y-73334500D02*
X83262100Y-77366400D01*
X83262100Y-77366400D02*
X79160700Y-81467800D01*
X79160700Y-81467800D02*
X79160700Y-96968700D01*
X79160700Y-96968700D02*
X73230700Y-102898700D01*
X73230700Y-102898700D02*
X73230700Y-105929800D01*
G04 #@! TO.N,Net-(U6-Pad24)*
X67976300Y-82044000D02*
X67701100Y-82319200D01*
X67701100Y-82319200D02*
X67701100Y-89795200D01*
X67701100Y-89795200D02*
X60063200Y-97433100D01*
X60063200Y-97433100D02*
X57886300Y-97433100D01*
X57886300Y-97433100D02*
X55000900Y-94547700D01*
X55000900Y-94547700D02*
X54617100Y-94547700D01*
X81915000Y-69215000D02*
X81070500Y-70059500D01*
X81070500Y-70059500D02*
X79703200Y-70059500D01*
G04 #@! TO.N,Net-(U6-Pad23)*
X64124700Y-88230000D02*
X62314600Y-90040100D01*
X62314600Y-90040100D02*
X62314600Y-92079500D01*
X62314600Y-92079500D02*
X59170600Y-95223500D01*
X59170600Y-95223500D02*
X58437700Y-95223500D01*
G04 #@! TO.N,Net-(U6-Pad22)*
X81915000Y-71755000D02*
X81915000Y-72909800D01*
X81915000Y-72909800D02*
X82867900Y-73862700D01*
X82867900Y-73862700D02*
X82867900Y-77226900D01*
X82867900Y-77226900D02*
X78594700Y-81500100D01*
X78594700Y-81500100D02*
X78594700Y-96755600D01*
X78594700Y-96755600D02*
X75635600Y-99714700D01*
X75635600Y-99714700D02*
X73393800Y-99714700D01*
G04 #@! TO.N,Net-(U6-Pad21)*
X50222500Y-93251600D02*
X50222500Y-94111900D01*
X50222500Y-94111900D02*
X53808800Y-97698200D01*
X53808800Y-97698200D02*
X54256200Y-97698200D01*
X54256200Y-97698200D02*
X66040100Y-109482100D01*
X66040100Y-109482100D02*
X66040100Y-111811000D01*
X66040100Y-111811000D02*
X68988000Y-114758900D01*
X68988000Y-114758900D02*
X68988000Y-115950600D01*
X68988000Y-115950600D02*
X70785300Y-117747900D01*
X70785300Y-117747900D02*
X71438300Y-117747900D01*
X71438300Y-117747900D02*
X72390100Y-116796100D01*
X72390100Y-116796100D02*
X72390100Y-116254900D01*
X72390100Y-116254900D02*
X74716100Y-113928900D01*
X74716100Y-113928900D02*
X76520200Y-113928900D01*
X76520200Y-113928900D02*
X77087700Y-113361400D01*
X77087700Y-113361400D02*
X77087700Y-112596700D01*
X77087700Y-112596700D02*
X76560900Y-112069900D01*
X76560900Y-112069900D02*
X76560900Y-103153300D01*
X76560900Y-103153300D02*
X80103900Y-99610300D01*
X80103900Y-99610300D02*
X80103900Y-89305900D01*
X80103900Y-89305900D02*
X85452900Y-83956900D01*
X85452900Y-83956900D02*
X85452900Y-72752900D01*
X85452900Y-72752900D02*
X84455000Y-71755000D01*
G04 #@! TO.N,Net-(U6-Pad20)*
X51954300Y-94921300D02*
X54180300Y-97147300D01*
X54180300Y-97147300D02*
X57067000Y-97147300D01*
X57067000Y-97147300D02*
X57730100Y-97810400D01*
X57730100Y-97810400D02*
X60219500Y-97810400D01*
X60219500Y-97810400D02*
X68400600Y-89629300D01*
X68400600Y-89629300D02*
X68400600Y-83264200D01*
X81915000Y-74295000D02*
X81915000Y-74967200D01*
X81915000Y-74967200D02*
X80674600Y-76207600D01*
X80674600Y-76207600D02*
X80674600Y-76885800D01*
X80674600Y-76885800D02*
X79263300Y-78297100D01*
G04 #@! TO.N,Net-(U6-Pad19)*
X77872700Y-100826900D02*
X79726600Y-98973000D01*
X79726600Y-98973000D02*
X79726600Y-88966200D01*
X79726600Y-88966200D02*
X84455000Y-84237800D01*
X84455000Y-84237800D02*
X84455000Y-74295000D01*
X54182900Y-103047500D02*
X48290400Y-97155000D01*
G04 #@! TO.N,Net-(U6-Pad18)*
X73090200Y-96623800D02*
X73090200Y-97994400D01*
X73090200Y-97994400D02*
X74110000Y-99014200D01*
X74110000Y-99014200D02*
X75767400Y-99014200D01*
X75767400Y-99014200D02*
X78217300Y-96564300D01*
X78217300Y-96564300D02*
X78217300Y-80532700D01*
X78217300Y-80532700D02*
X81915000Y-76835000D01*
G04 #@! TO.N,/INT*
X79375000Y-74295000D02*
X79375000Y-71079300D01*
X79375000Y-71079300D02*
X75479800Y-67184100D01*
X75479800Y-67184100D02*
X75479800Y-49444800D01*
X75479800Y-49444800D02*
X74295000Y-48260000D01*
G04 #@! TO.N,/PU0*
X79375000Y-76835000D02*
X80380000Y-75830000D01*
X80380000Y-75830000D02*
X80380000Y-71927500D01*
X80380000Y-71927500D02*
X81822500Y-70485000D01*
X81822500Y-70485000D02*
X81996500Y-70485000D01*
X81996500Y-70485000D02*
X83504200Y-68977300D01*
X83504200Y-68977300D02*
X83504200Y-68714100D01*
X83504200Y-68714100D02*
X84273300Y-67945000D01*
X84273300Y-67945000D02*
X84556400Y-67945000D01*
X84556400Y-67945000D02*
X86295100Y-66206300D01*
X86295100Y-66206300D02*
X86295100Y-63744000D01*
G04 #@! TO.N,/~PIC_CS*
X81915000Y-45720000D02*
X80907300Y-46727700D01*
X80907300Y-46727700D02*
X80907300Y-52268000D01*
X80907300Y-52268000D02*
X80511700Y-52663600D01*
X80511700Y-52663600D02*
X80511700Y-53203800D01*
X80511700Y-53203800D02*
X80640600Y-53332700D01*
X80640600Y-53332700D02*
X80640600Y-64458600D01*
X80640600Y-64458600D02*
X79375000Y-65724200D01*
X79375000Y-66675000D02*
X79375000Y-65724200D01*
G04 #@! TO.N,/~HIM*
X98440800Y-90884600D02*
X100805300Y-88520100D01*
X100805300Y-88520100D02*
X100805300Y-53083000D01*
X100805300Y-53083000D02*
X101182600Y-52705700D01*
X101182600Y-52705700D02*
X101182600Y-43412500D01*
X101182600Y-43412500D02*
X102684600Y-41910500D01*
X102684600Y-41910500D02*
X102684600Y-37671900D01*
X102684600Y-37671900D02*
X99231100Y-34218400D01*
X99231100Y-34218400D02*
X78176600Y-34218400D01*
X78176600Y-34218400D02*
X76835000Y-35560000D01*
G04 #@! TO.N,/LOM*
X76835000Y-38100000D02*
X77785900Y-37149100D01*
X77785900Y-37149100D02*
X77785900Y-35777500D01*
X77785900Y-35777500D02*
X78965900Y-34597500D01*
X78965900Y-34597500D02*
X97077600Y-34597500D01*
X97077600Y-34597500D02*
X100116800Y-37636700D01*
X100116800Y-37636700D02*
X100116800Y-42804800D01*
X100116800Y-42804800D02*
X98642700Y-44278900D01*
X98642700Y-44278900D02*
X98642700Y-56475100D01*
X98642700Y-56475100D02*
X97996400Y-57121400D01*
X97996400Y-57121400D02*
X97996400Y-77590000D01*
G04 #@! TO.N,/A3*
X74295000Y-35560000D02*
X73328900Y-34593900D01*
X73328900Y-34593900D02*
X52307700Y-34593900D01*
X52307700Y-34593900D02*
X43106900Y-43794700D01*
X43106900Y-43794700D02*
X43106900Y-77999100D01*
X43106900Y-77999100D02*
X44316500Y-79208700D01*
X44316500Y-79208700D02*
X44316500Y-89335600D01*
X44316500Y-89335600D02*
X54167200Y-99186300D01*
G04 #@! TO.N,/A2*
X71755000Y-38100000D02*
X67811500Y-42043500D01*
X67811500Y-42043500D02*
X67811500Y-59115700D01*
X67811500Y-59115700D02*
X64865000Y-62062200D01*
X64865000Y-62062200D02*
X64865000Y-86567300D01*
X64865000Y-86567300D02*
X61937300Y-89495000D01*
X61937300Y-89495000D02*
X61937300Y-91511900D01*
X61937300Y-91511900D02*
X58987500Y-94461700D01*
G04 #@! TO.N,/~AEN*
X71755000Y-43180000D02*
X72710900Y-44135900D01*
X72710900Y-44135900D02*
X72710900Y-46530100D01*
X72710900Y-46530100D02*
X72588900Y-46652100D01*
X72588900Y-46652100D02*
X72588900Y-54374700D01*
X72588900Y-54374700D02*
X72981200Y-54767000D01*
X72981200Y-54767000D02*
X72981200Y-61329700D01*
X72981200Y-61329700D02*
X70897500Y-63413400D01*
X70897500Y-63413400D02*
X70897500Y-63755300D01*
X70897500Y-63755300D02*
X69624900Y-65027900D01*
X69624900Y-65027900D02*
X69624900Y-78857900D01*
X69624900Y-78857900D02*
X70742600Y-79975600D01*
X70742600Y-79975600D02*
X70742600Y-111638900D01*
X70742600Y-111638900D02*
X70248500Y-112133000D01*
X70248500Y-112133000D02*
X70248500Y-114012500D01*
X70248500Y-114012500D02*
X71120000Y-114884000D01*
X71120000Y-114884000D02*
X71120000Y-116840000D01*
G04 #@! TO.N,/~IOR*
X74295000Y-43180000D02*
X73088300Y-44386700D01*
X73088300Y-44386700D02*
X73088300Y-46874800D01*
X73088300Y-46874800D02*
X72966200Y-46996900D01*
X72966200Y-46996900D02*
X72966200Y-54218400D01*
X72966200Y-54218400D02*
X73358500Y-54610700D01*
X73358500Y-54610700D02*
X73358500Y-61486000D01*
X73358500Y-61486000D02*
X71274800Y-63569700D01*
X71274800Y-63569700D02*
X71274800Y-64094900D01*
X71274800Y-64094900D02*
X70002200Y-65367500D01*
X70002200Y-65367500D02*
X70002200Y-78701500D01*
X70002200Y-78701500D02*
X71120000Y-79819300D01*
X71120000Y-79819300D02*
X71120000Y-113030000D01*
G04 #@! TO.N,/~IOW*
X71755000Y-45720000D02*
X71755000Y-54074500D01*
X71755000Y-54074500D02*
X72603900Y-54923400D01*
X72603900Y-54923400D02*
X72603900Y-61043400D01*
X72603900Y-61043400D02*
X70520200Y-63127100D01*
X70520200Y-63127100D02*
X70520200Y-63599000D01*
X70520200Y-63599000D02*
X69244500Y-64874700D01*
X69244500Y-64874700D02*
X69244500Y-79011100D01*
X69244500Y-79011100D02*
X69850000Y-79616600D01*
X69850000Y-79616600D02*
X69850000Y-111125000D01*
G04 #@! TO.N,/~STS*
X69920100Y-51411200D02*
X69815600Y-51515700D01*
X69815600Y-51515700D02*
X69815600Y-53524500D01*
X69815600Y-53524500D02*
X70320700Y-54029600D01*
X70320700Y-54029600D02*
X70320700Y-57413100D01*
X70320700Y-57413100D02*
X65545900Y-62187900D01*
X65545900Y-62187900D02*
X65545900Y-87787400D01*
X65545900Y-87787400D02*
X63330700Y-90002600D01*
G04 #@! TO.N,/DDIR*
X86947400Y-79541100D02*
X86947400Y-62734400D01*
X86947400Y-62734400D02*
X85296600Y-61083600D01*
X85296600Y-61083600D02*
X85296600Y-47290400D01*
X85296600Y-47290400D02*
X85431100Y-47155900D01*
X85431100Y-47155900D02*
X85431100Y-39076100D01*
X85431100Y-39076100D02*
X84455000Y-38100000D01*
G04 #@! TO.N,/~INT*
X81915000Y-35560000D02*
X86625000Y-35560000D01*
X86625000Y-35560000D02*
X95667300Y-44602300D01*
X95667300Y-44602300D02*
X95667300Y-48062700D01*
X95667300Y-48062700D02*
X90006900Y-53723100D01*
X90006900Y-53723100D02*
X90006900Y-71179700D01*
X90006900Y-71179700D02*
X90589500Y-71762300D01*
X90589500Y-71762300D02*
X90589500Y-89911500D01*
X90589500Y-89911500D02*
X89040800Y-91460200D01*
G04 #@! TO.N,/A14*
X90170000Y-111125000D02*
X89654900Y-110609900D01*
X89654900Y-110609900D02*
X89654900Y-94280700D01*
X89654900Y-94280700D02*
X88936900Y-93562700D01*
G04 #@! TO.N,/A12*
X87630000Y-111125000D02*
X87592400Y-111087400D01*
X87592400Y-111087400D02*
X87592400Y-105243900D01*
G04 #@! TO.N,/A7*
X105384000Y-76346200D02*
X104227900Y-77502300D01*
X104227900Y-77502300D02*
X104227900Y-96608800D01*
X104227900Y-96608800D02*
X93980100Y-106856600D01*
X93980100Y-106856600D02*
X93980100Y-111733500D01*
X93980100Y-111733500D02*
X91832700Y-113880900D01*
X91832700Y-113880900D02*
X91832700Y-115714800D01*
X91832700Y-115714800D02*
X92352600Y-116234700D01*
X92352600Y-116234700D02*
X92352600Y-117191500D01*
X92352600Y-117191500D02*
X91426200Y-118117900D01*
X91426200Y-118117900D02*
X83878900Y-118117900D01*
X83878900Y-118117900D02*
X82859200Y-117098200D01*
X82859200Y-117098200D02*
X82859200Y-116564700D01*
X82859200Y-116564700D02*
X81280000Y-114985500D01*
X81280000Y-114985500D02*
X81280000Y-113030000D01*
G04 #@! TO.N,/A6*
X80010000Y-111125000D02*
X78371200Y-109486200D01*
X78371200Y-109486200D02*
X78371200Y-102286200D01*
X78371200Y-102286200D02*
X80481200Y-100176200D01*
X80481200Y-100176200D02*
X80481200Y-91637400D01*
X80481200Y-91637400D02*
X87854000Y-84264600D01*
X87854000Y-84264600D02*
X87854000Y-76627300D01*
X87854000Y-76627300D02*
X89105400Y-75375900D01*
G04 #@! TO.N,/A5*
X78740000Y-113030000D02*
X78740000Y-115519000D01*
X78740000Y-115519000D02*
X82159000Y-118938000D01*
X82159000Y-118938000D02*
X93123600Y-118938000D01*
X93123600Y-118938000D02*
X96112000Y-115949600D01*
X96112000Y-115949600D02*
X96112000Y-114759000D01*
X96112000Y-114759000D02*
X99060100Y-111810900D01*
X99060100Y-111810900D02*
X99060100Y-109807900D01*
X99060100Y-109807900D02*
X105705200Y-103162800D01*
X105705200Y-103162800D02*
X105705200Y-79025800D01*
X105705200Y-79025800D02*
X105535800Y-78856400D01*
G04 #@! TO.N,/A4*
X77470000Y-111125000D02*
X78070200Y-111125000D01*
X78070200Y-111125000D02*
X80887700Y-113942500D01*
X80887700Y-113942500D02*
X80887700Y-115201200D01*
X80887700Y-115201200D02*
X82348400Y-116661900D01*
X82348400Y-116661900D02*
X82348400Y-117183700D01*
X82348400Y-117183700D02*
X83705500Y-118540800D01*
X83705500Y-118540800D02*
X91572500Y-118540800D01*
X91572500Y-118540800D02*
X92790500Y-117322800D01*
X92790500Y-117322800D02*
X92790500Y-116086000D01*
X92790500Y-116086000D02*
X95658000Y-113218500D01*
X95658000Y-113218500D02*
X95658000Y-112038000D01*
X95658000Y-112038000D02*
X105052800Y-102643200D01*
X105052800Y-102643200D02*
X105052800Y-81481600D01*
G04 #@! TO.N,/bA3*
X76200000Y-113030000D02*
X76121300Y-112951300D01*
X76121300Y-112951300D02*
X76121300Y-110383800D01*
X76121300Y-110383800D02*
X72553100Y-106815600D01*
X72553100Y-106815600D02*
X72553100Y-101339200D01*
X72553100Y-101339200D02*
X72767200Y-101125100D01*
G04 #@! TO.N,/bA2*
X74930000Y-111125000D02*
X72104500Y-108299500D01*
X72104500Y-108299500D02*
X72104500Y-98713100D01*
X72104500Y-98713100D02*
X72274300Y-98543300D01*
G04 #@! TO.N,/bA1*
X73660000Y-113030000D02*
X73065100Y-113030000D01*
X73065100Y-113030000D02*
X71497400Y-111462300D01*
X71497400Y-111462300D02*
X71497400Y-96650800D01*
X71497400Y-96650800D02*
X72263200Y-95885000D01*
G04 #@! TO.N,/bA0*
X67729100Y-93442500D02*
X67729100Y-108040500D01*
G04 #@! TO.N,/VBAT*
X39370000Y-111125000D02*
X38470900Y-112024100D01*
X38470900Y-112024100D02*
X33968500Y-112024100D01*
X33968500Y-112024100D02*
X24130000Y-102185600D01*
X24130000Y-102185600D02*
X24130000Y-81915000D01*
G04 #@! TO.N,/bD7*
X91440000Y-116840000D02*
X91440000Y-114351000D01*
X91440000Y-114351000D02*
X88900200Y-111811200D01*
X88900200Y-111811200D02*
X88900200Y-102433000D01*
X88900200Y-102433000D02*
X87749100Y-101281900D01*
G04 #@! TO.N,/bD6*
X90170000Y-114935000D02*
X89567200Y-114935000D01*
X89567200Y-114935000D02*
X88022700Y-113390500D01*
X88022700Y-113390500D02*
X88022700Y-112389400D01*
X88022700Y-112389400D02*
X88522800Y-111889300D01*
X88522800Y-111889300D02*
X88522800Y-104509400D01*
X88522800Y-104509400D02*
X87095200Y-103081800D01*
X87095200Y-103081800D02*
X87095200Y-100552100D01*
X87095200Y-100552100D02*
X87317300Y-100330000D01*
G04 #@! TO.N,/bD5*
X88900000Y-116840000D02*
X87999500Y-117740500D01*
X87999500Y-117740500D02*
X86031700Y-117740500D01*
X86031700Y-117740500D02*
X84197400Y-115906200D01*
X84197400Y-115906200D02*
X84197400Y-114309700D01*
X84197400Y-114309700D02*
X84712600Y-113794500D01*
X84712600Y-113794500D02*
X84712600Y-112694900D01*
X84712600Y-112694900D02*
X83439600Y-111421900D01*
X83439600Y-111421900D02*
X83439600Y-98582600D01*
X83439600Y-98582600D02*
X82968600Y-98111600D01*
G04 #@! TO.N,/bD4*
X87630000Y-114935000D02*
X87630000Y-113048200D01*
X87630000Y-113048200D02*
X86662000Y-112080200D01*
X86662000Y-112080200D02*
X86662000Y-97354100D01*
X86662000Y-97354100D02*
X86861100Y-97155000D01*
X68580100Y-109616100D02*
X68382200Y-109616100D01*
X68382200Y-109616100D02*
X67076700Y-108310600D01*
X67076700Y-108310600D02*
X67076700Y-92223200D01*
X67076700Y-92223200D02*
X67151000Y-92148900D01*
G04 #@! TO.N,/bD3*
X86360000Y-116840000D02*
X86360000Y-114687100D01*
X86360000Y-114687100D02*
X85467400Y-113794500D01*
X85467400Y-113794500D02*
X85467400Y-112404700D01*
X85467400Y-112404700D02*
X86208700Y-111663400D01*
X86208700Y-111663400D02*
X86208700Y-96880200D01*
X86208700Y-96880200D02*
X86882100Y-96206800D01*
G04 #@! TO.N,/bD2*
X85090000Y-114935000D02*
X85090000Y-112538500D01*
X85090000Y-112538500D02*
X83817000Y-111265500D01*
X83817000Y-111265500D02*
X83817000Y-94915700D01*
G04 #@! TO.N,/bD1*
X83820000Y-116840000D02*
X83820000Y-114806200D01*
X83820000Y-114806200D02*
X82927400Y-113913600D01*
X82927400Y-113913600D02*
X82927400Y-112823400D01*
X82927400Y-112823400D02*
X81647700Y-111543700D01*
X81647700Y-111543700D02*
X81647700Y-110640400D01*
X81647700Y-110640400D02*
X82163100Y-110125000D01*
X82163100Y-110125000D02*
X82163100Y-95210600D01*
X82163100Y-95210600D02*
X83554500Y-93819200D01*
G04 #@! TO.N,/bD0*
X82550000Y-114935000D02*
X82550000Y-112979600D01*
X82550000Y-112979600D02*
X81270400Y-111700000D01*
X81270400Y-111700000D02*
X81270400Y-110295300D01*
X81270400Y-110295300D02*
X81785800Y-109779900D01*
X81785800Y-109779900D02*
X81785800Y-93753600D01*
X81785800Y-93753600D02*
X83177100Y-92362300D01*
G04 #@! TO.N,/~IRQ7*
X36830000Y-87630000D02*
X36830000Y-88682300D01*
X55880000Y-116840000D02*
X55880000Y-114396300D01*
X55880000Y-114396300D02*
X54610000Y-113126300D01*
X54610000Y-113126300D02*
X54610000Y-112445900D01*
X54610000Y-112445900D02*
X53606900Y-111442800D01*
X53606900Y-111442800D02*
X53606900Y-105350200D01*
X53606900Y-105350200D02*
X36939000Y-88682300D01*
X36939000Y-88682300D02*
X36830000Y-88682300D01*
G04 #@! TO.N,/~IRQ6*
X36830000Y-91222300D02*
X36939000Y-91222300D01*
X36939000Y-91222300D02*
X53096100Y-107379400D01*
X53096100Y-107379400D02*
X53096100Y-111465600D01*
X53096100Y-111465600D02*
X54232700Y-112602200D01*
X54232700Y-112602200D02*
X54232700Y-114557700D01*
X54232700Y-114557700D02*
X54610000Y-114935000D01*
X36830000Y-90170000D02*
X36830000Y-91222300D01*
G04 #@! TO.N,/~IRQ5*
X36830000Y-92710000D02*
X36830000Y-93762300D01*
X53340000Y-116840000D02*
X53340000Y-114350900D01*
X53340000Y-114350900D02*
X51019500Y-112030400D01*
X51019500Y-112030400D02*
X51019500Y-107842800D01*
X51019500Y-107842800D02*
X36939000Y-93762300D01*
X36939000Y-93762300D02*
X36830000Y-93762300D01*
G04 #@! TO.N,/~IRQ4*
X36830000Y-95250000D02*
X37882300Y-95250000D01*
X40807600Y-98989000D02*
X50453500Y-108634900D01*
X50453500Y-108634900D02*
X50453500Y-112157600D01*
X50453500Y-112157600D02*
X49938100Y-112673000D01*
X49938100Y-112673000D02*
X49938100Y-113387000D01*
X49938100Y-113387000D02*
X51486100Y-114935000D01*
X51486100Y-114935000D02*
X52070000Y-114935000D01*
X40807600Y-98989000D02*
X37882300Y-96063700D01*
X37882300Y-96063700D02*
X37882300Y-95250000D01*
G04 #@! TO.N,/~IRQ3*
X36830000Y-98842300D02*
X36939000Y-98842300D01*
X36939000Y-98842300D02*
X48260100Y-110163400D01*
X48260100Y-110163400D02*
X48260100Y-111811000D01*
X48260100Y-111811000D02*
X49560800Y-113111700D01*
X49560800Y-113111700D02*
X49560800Y-113543200D01*
X49560800Y-113543200D02*
X50800000Y-114782400D01*
X50800000Y-114782400D02*
X50800000Y-116840000D01*
X36830000Y-97790000D02*
X36830000Y-98842300D01*
G04 #@! TO.N,/~IRQ2*
X36830000Y-100330000D02*
X36830000Y-101382300D01*
X49530000Y-114935000D02*
X48936200Y-114935000D01*
X48936200Y-114935000D02*
X45720100Y-111718900D01*
X45720100Y-111718900D02*
X45720100Y-110163400D01*
X45720100Y-110163400D02*
X36939000Y-101382300D01*
X36939000Y-101382300D02*
X36830000Y-101382300D01*
G04 #@! TO.N,/~IRQ1*
X36830000Y-102870000D02*
X36830000Y-103922300D01*
X48260000Y-116840000D02*
X47675100Y-116840000D01*
X47675100Y-116840000D02*
X44871000Y-114035900D01*
X44871000Y-114035900D02*
X42957100Y-114035900D01*
X42957100Y-114035900D02*
X40640100Y-111718900D01*
X40640100Y-111718900D02*
X40640100Y-110963800D01*
X40640100Y-110963800D02*
X35777200Y-106100900D01*
X35777200Y-106100900D02*
X35777200Y-104866100D01*
X35777200Y-104866100D02*
X36721000Y-103922300D01*
X36721000Y-103922300D02*
X36830000Y-103922300D01*
G04 #@! TO.N,/~IRQ0*
X46990000Y-114935000D02*
X47590100Y-114935000D01*
X47590100Y-114935000D02*
X50381900Y-117726800D01*
X50381900Y-117726800D02*
X56236800Y-117726800D01*
X56236800Y-117726800D02*
X58043600Y-115920000D01*
X58043600Y-115920000D02*
X58043600Y-113974500D01*
X58043600Y-113974500D02*
X55880100Y-111811000D01*
X55880100Y-111811000D02*
X55880100Y-102371900D01*
X55880100Y-102371900D02*
X54620800Y-101112600D01*
X37882300Y-105410000D02*
X43180100Y-110707800D01*
X43180100Y-110707800D02*
X43180100Y-111718900D01*
X43180100Y-111718900D02*
X46396200Y-114935000D01*
X46396200Y-114935000D02*
X46990000Y-114935000D01*
X36830000Y-105410000D02*
X37882300Y-105410000D01*
G04 #@! TO.N,/~RESET*
X39370000Y-114935000D02*
X39970100Y-114935000D01*
X39970100Y-114935000D02*
X43139300Y-118104200D01*
X43139300Y-118104200D02*
X58383900Y-118104200D01*
X58383900Y-118104200D02*
X59291500Y-117196600D01*
X59291500Y-117196600D02*
X59291500Y-116193600D01*
X59291500Y-116193600D02*
X58828000Y-115730100D01*
X58828000Y-115730100D02*
X58828000Y-114390500D01*
X58828000Y-114390500D02*
X59291500Y-113927000D01*
X59291500Y-113927000D02*
X59291500Y-112383600D01*
X59291500Y-112383600D02*
X58763900Y-111856000D01*
X58763900Y-111856000D02*
X58763900Y-102786300D01*
X58763900Y-102786300D02*
X54511600Y-98534000D01*
X54511600Y-98534000D02*
X54048600Y-98534000D01*
X54048600Y-98534000D02*
X48260100Y-92745500D01*
X48260100Y-92745500D02*
X48260100Y-84922300D01*
X48260100Y-84922300D02*
X48260000Y-84922300D01*
X48260000Y-83820000D02*
X48260000Y-84922300D01*
G04 #@! TO.N,/PU1*
X95045500Y-77916900D02*
X95045500Y-90872400D01*
X95045500Y-90872400D02*
X91501900Y-94416000D01*
X91501900Y-94416000D02*
X91501900Y-100310000D01*
X91501900Y-100310000D02*
X92116200Y-100924300D01*
X96520000Y-58837300D02*
X96520000Y-76442400D01*
X96520000Y-76442400D02*
X95045500Y-77916900D01*
X96520000Y-57785000D02*
X96520000Y-58837300D01*
G04 #@! TO.N,/PU2*
X94152800Y-80109200D02*
X94152800Y-90812800D01*
X94152800Y-90812800D02*
X90307200Y-94658400D01*
X90307200Y-94658400D02*
X90307200Y-102517100D01*
X94152800Y-80109200D02*
X94152800Y-77778900D01*
X94152800Y-77778900D02*
X95073500Y-76858200D01*
X95073500Y-76858200D02*
X95073500Y-59930800D01*
X95073500Y-59930800D02*
X93980000Y-58837300D01*
X93980000Y-57785000D02*
X93980000Y-58837300D01*
G04 #@! TO.N,/PU3*
X94421200Y-76588000D02*
X92986200Y-78023000D01*
X92986200Y-78023000D02*
X92986200Y-91420300D01*
X92986200Y-91420300D02*
X91778800Y-92627700D01*
X91778800Y-92627700D02*
X88928400Y-92627700D01*
X88928400Y-92627700D02*
X84729000Y-96827100D01*
X84729000Y-96827100D02*
X84729000Y-104851500D01*
X91440000Y-58837300D02*
X94421200Y-61818500D01*
X94421200Y-61818500D02*
X94421200Y-76588000D01*
X91440000Y-57785000D02*
X91440000Y-58837300D01*
G04 #@! TO.N,Net-(RN3-Pad3)*
X112395000Y-80227700D02*
X112526500Y-80227700D01*
X112526500Y-80227700D02*
X114202200Y-78552000D01*
X114202200Y-78552000D02*
X114202200Y-68264500D01*
X114202200Y-68264500D02*
X112395000Y-66457300D01*
X112395000Y-65405000D02*
X112395000Y-66457300D01*
X112395000Y-81280000D02*
X112395000Y-80227700D01*
G04 #@! TO.N,Net-(RN3-Pad4)*
X112395000Y-77687700D02*
X112514900Y-77687700D01*
X112514900Y-77687700D02*
X113824900Y-76377700D01*
X113824900Y-76377700D02*
X113824900Y-70427200D01*
X113824900Y-70427200D02*
X109855000Y-66457300D01*
X109855000Y-65405000D02*
X109855000Y-66457300D01*
X112395000Y-78740000D02*
X112395000Y-77687700D01*
G04 #@! TO.N,Net-(RN3-Pad5)*
X107315000Y-65405000D02*
X107315000Y-66457300D01*
X112395000Y-76200000D02*
X112395000Y-75147700D01*
X112395000Y-75147700D02*
X112518300Y-75147700D01*
X112518300Y-75147700D02*
X113447600Y-74218400D01*
X113447600Y-74218400D02*
X113447600Y-72589900D01*
X113447600Y-72589900D02*
X107315000Y-66457300D01*
G04 #@! TO.N,Net-(RN3-Pad6)*
X104775000Y-65405000D02*
X105827300Y-65405000D01*
X112395000Y-73660000D02*
X112395000Y-72607700D01*
X112395000Y-72607700D02*
X105827300Y-66040000D01*
X105827300Y-66040000D02*
X105827300Y-65405000D01*
G04 #@! TO.N,Net-(RN2-Pad10)*
X112395000Y-52705000D02*
X112395000Y-51652700D01*
X114300000Y-38100000D02*
X114300000Y-49747700D01*
X114300000Y-49747700D02*
X112395000Y-51652700D01*
X112395000Y-52705000D02*
X112395000Y-53757300D01*
X102737200Y-91521900D02*
X102914300Y-91344800D01*
X102914300Y-91344800D02*
X102914300Y-65161200D01*
X102914300Y-65161200D02*
X108585000Y-59490500D01*
X108585000Y-59490500D02*
X108585000Y-57458300D01*
X108585000Y-57458300D02*
X112286000Y-53757300D01*
X112286000Y-53757300D02*
X112395000Y-53757300D01*
G04 #@! TO.N,Net-(RN2-Pad9)*
X111760000Y-39152300D02*
X110965300Y-39947000D01*
X110965300Y-39947000D02*
X110965300Y-50542400D01*
X110965300Y-50542400D02*
X109855000Y-51652700D01*
X102082400Y-94615000D02*
X102082400Y-91155500D01*
X102082400Y-91155500D02*
X102537000Y-90700900D01*
X102537000Y-90700900D02*
X102537000Y-63784300D01*
X102537000Y-63784300D02*
X106045000Y-60276300D01*
X106045000Y-60276300D02*
X106045000Y-57435800D01*
X106045000Y-57435800D02*
X109723500Y-53757300D01*
X109723500Y-53757300D02*
X109855000Y-53757300D01*
X109855000Y-52705000D02*
X109855000Y-51652700D01*
X111760000Y-38100000D02*
X111760000Y-39152300D01*
X109855000Y-52705000D02*
X109855000Y-53757300D01*
G04 #@! TO.N,Net-(RN2-Pad8)*
X107315000Y-52705000D02*
X107315000Y-51652700D01*
X109220000Y-38100000D02*
X109220000Y-39152300D01*
X109220000Y-39152300D02*
X108802600Y-39569700D01*
X108802600Y-39569700D02*
X108802600Y-50165100D01*
X108802600Y-50165100D02*
X107315000Y-51652700D01*
X107315000Y-53757300D02*
X107183500Y-53757300D01*
X107183500Y-53757300D02*
X102159700Y-58781100D01*
X102159700Y-58781100D02*
X102159700Y-89952700D01*
X102159700Y-89952700D02*
X101405100Y-90707300D01*
X101405100Y-90707300D02*
X101405100Y-97090400D01*
X101405100Y-97090400D02*
X101469700Y-97155000D01*
X107315000Y-52705000D02*
X107315000Y-53757300D01*
G04 #@! TO.N,Net-(RN2-Pad7)*
X104775000Y-52705000D02*
X104775000Y-51652700D01*
X106680000Y-38100000D02*
X106680000Y-39152300D01*
X106680000Y-39152300D02*
X106262600Y-39569700D01*
X106262600Y-39569700D02*
X106262600Y-50165100D01*
X106262600Y-50165100D02*
X104775000Y-51652700D01*
X104775000Y-53757300D02*
X101782400Y-56749900D01*
X101782400Y-56749900D02*
X101782400Y-89796400D01*
X101782400Y-89796400D02*
X100817400Y-90761400D01*
X100817400Y-90761400D02*
X100817400Y-97770500D01*
X100817400Y-97770500D02*
X101456600Y-98409700D01*
X104775000Y-52705000D02*
X104775000Y-53757300D01*
G04 #@! TO.N,Net-(RN2-Pad6)*
X92682700Y-98758200D02*
X92682700Y-98216700D01*
X92682700Y-98216700D02*
X101182700Y-89716700D01*
X101182700Y-89716700D02*
X101182700Y-54809600D01*
X101182700Y-54809600D02*
X102235000Y-53757300D01*
X102235000Y-52705000D02*
X102235000Y-51652700D01*
X104140000Y-38100000D02*
X104140000Y-39152300D01*
X104140000Y-39152300D02*
X103703800Y-39588500D01*
X103703800Y-39588500D02*
X103703800Y-50183900D01*
X103703800Y-50183900D02*
X102235000Y-51652700D01*
X102235000Y-52705000D02*
X102235000Y-53757300D01*
G04 #@! TO.N,Net-(RN2-Pad5)*
X99695000Y-52705000D02*
X99695000Y-51652700D01*
X101600000Y-38100000D02*
X101600000Y-39152300D01*
X101600000Y-39152300D02*
X100805200Y-39947100D01*
X100805200Y-39947100D02*
X100805200Y-50542500D01*
X100805200Y-50542500D02*
X99695000Y-51652700D01*
X99695000Y-53757300D02*
X100130900Y-54193200D01*
X100130900Y-54193200D02*
X100130900Y-87761600D01*
X100130900Y-87761600D02*
X92154200Y-95738300D01*
X92154200Y-95738300D02*
X92154200Y-97445200D01*
X99695000Y-52705000D02*
X99695000Y-53757300D01*
G04 #@! TO.N,Net-(RN2-Pad4)*
X97155000Y-52705000D02*
X97155000Y-51652700D01*
X99060000Y-38100000D02*
X99060000Y-39152300D01*
X99060000Y-39152300D02*
X98265300Y-39947000D01*
X98265300Y-39947000D02*
X98265300Y-50542400D01*
X98265300Y-50542400D02*
X97155000Y-51652700D01*
X97155000Y-52705000D02*
X97155000Y-53757300D01*
X97155000Y-53757300D02*
X97590900Y-54193200D01*
X97590900Y-54193200D02*
X97590900Y-76294100D01*
X97590900Y-76294100D02*
X96868700Y-77016300D01*
X96868700Y-77016300D02*
X96868700Y-89971600D01*
X96868700Y-89971600D02*
X92428400Y-94411900D01*
G04 #@! TO.N,Net-(RN2-Pad3)*
X94615000Y-52705000D02*
X94615000Y-51652700D01*
X96520000Y-38100000D02*
X96520000Y-39152300D01*
X96520000Y-39152300D02*
X96102600Y-39569700D01*
X96102600Y-39569700D02*
X96102600Y-50165100D01*
X96102600Y-50165100D02*
X94615000Y-51652700D01*
X94615000Y-52705000D02*
X94615000Y-53757300D01*
X94615000Y-53757300D02*
X93957300Y-53757300D01*
X93957300Y-53757300D02*
X90384300Y-57330300D01*
X90384300Y-57330300D02*
X90384300Y-62945100D01*
X90384300Y-62945100D02*
X91989900Y-64550700D01*
X91989900Y-64550700D02*
X91989900Y-91463900D01*
G04 #@! TO.N,Net-(J2-Pad8)*
X79050100Y-103096000D02*
X81031200Y-101114900D01*
X81031200Y-101114900D02*
X81031200Y-91621200D01*
X81031200Y-91621200D02*
X88778800Y-83873600D01*
X88778800Y-83873600D02*
X88778800Y-77409500D01*
G04 #@! TO.N,Net-(J2-Pad6)*
X79635800Y-103821900D02*
X81408500Y-102049200D01*
X81408500Y-102049200D02*
X81408500Y-91869400D01*
X81408500Y-91869400D02*
X89881800Y-83396100D01*
X89881800Y-83396100D02*
X89881800Y-80588100D01*
G04 #@! TD*
D27*
G04 #@! TO.N,GND*
G36*
X119265001Y-119265000D02*
X93871401Y-119265000D01*
X94668779Y-118467622D01*
X110946983Y-118467622D01*
X111125967Y-118802738D01*
X111973674Y-119138972D01*
X112885524Y-119125207D01*
X113664033Y-118802738D01*
X113843017Y-118467622D01*
X112395000Y-117019605D01*
X110946983Y-118467622D01*
X94668779Y-118467622D01*
X95528136Y-117608266D01*
X95814991Y-117895121D01*
X96272434Y-118084600D01*
X96767566Y-118084600D01*
X97225009Y-117895121D01*
X97575121Y-117545009D01*
X97764600Y-117087566D01*
X97764600Y-116592434D01*
X97593599Y-116179600D01*
X97986401Y-116179600D01*
X97815400Y-116592434D01*
X97815400Y-117087566D01*
X98004879Y-117545009D01*
X98354991Y-117895121D01*
X98812434Y-118084600D01*
X99307566Y-118084600D01*
X99765009Y-117895121D01*
X100115121Y-117545009D01*
X100304600Y-117087566D01*
X100304600Y-116592434D01*
X100133599Y-116179600D01*
X100526401Y-116179600D01*
X100355400Y-116592434D01*
X100355400Y-117087566D01*
X100544879Y-117545009D01*
X100894991Y-117895121D01*
X101352434Y-118084600D01*
X101847566Y-118084600D01*
X102305009Y-117895121D01*
X102655121Y-117545009D01*
X102844600Y-117087566D01*
X102844600Y-116592434D01*
X102673599Y-116179600D01*
X103066401Y-116179600D01*
X102895400Y-116592434D01*
X102895400Y-117087566D01*
X103084879Y-117545009D01*
X103434991Y-117895121D01*
X103892434Y-118084600D01*
X104387566Y-118084600D01*
X104845009Y-117895121D01*
X105195121Y-117545009D01*
X105384600Y-117087566D01*
X105384600Y-116592434D01*
X105213599Y-116179600D01*
X105606401Y-116179600D01*
X105435400Y-116592434D01*
X105435400Y-117087566D01*
X105624879Y-117545009D01*
X105974991Y-117895121D01*
X106432434Y-118084600D01*
X106927566Y-118084600D01*
X107385009Y-117895121D01*
X107735121Y-117545009D01*
X107924600Y-117087566D01*
X107924600Y-117023755D01*
X108529681Y-116418674D01*
X110096028Y-116418674D01*
X110109793Y-117330524D01*
X110432262Y-118109033D01*
X110767378Y-118288017D01*
X112215395Y-116840000D01*
X112574605Y-116840000D01*
X114022622Y-118288017D01*
X114357738Y-118109033D01*
X114693972Y-117261326D01*
X114680207Y-116349476D01*
X114357738Y-115570967D01*
X114022622Y-115391983D01*
X112574605Y-116840000D01*
X112215395Y-116840000D01*
X110767378Y-115391983D01*
X110432262Y-115570967D01*
X110096028Y-116418674D01*
X108529681Y-116418674D01*
X108593838Y-116354517D01*
X108678169Y-116298169D01*
X108901399Y-115964082D01*
X108956113Y-115689017D01*
X109005121Y-115640009D01*
X109182251Y-115212378D01*
X110946983Y-115212378D01*
X112395000Y-116660395D01*
X113843017Y-115212378D01*
X113664033Y-114877262D01*
X112816326Y-114541028D01*
X111904476Y-114554793D01*
X111125967Y-114877262D01*
X110946983Y-115212378D01*
X109182251Y-115212378D01*
X109194600Y-115182566D01*
X109194600Y-114687434D01*
X109005121Y-114229991D01*
X108655009Y-113879879D01*
X108197566Y-113690400D01*
X107702434Y-113690400D01*
X107573439Y-113743831D01*
X107549704Y-113720096D01*
X107776123Y-113669400D01*
X107937374Y-113201261D01*
X107907200Y-112707048D01*
X107776123Y-112390600D01*
X107549704Y-112339904D01*
X107576794Y-112312814D01*
X107778739Y-112382374D01*
X108272952Y-112352200D01*
X108589400Y-112221123D01*
X108640097Y-111994702D01*
X107950000Y-111304605D01*
X107935858Y-111318748D01*
X107756253Y-111139143D01*
X107770395Y-111125000D01*
X108129605Y-111125000D01*
X108819702Y-111815097D01*
X109046123Y-111764400D01*
X109207374Y-111296261D01*
X109177200Y-110802048D01*
X109046123Y-110485600D01*
X108819702Y-110434903D01*
X108129605Y-111125000D01*
X107770395Y-111125000D01*
X107080298Y-110434903D01*
X106853877Y-110485600D01*
X106692626Y-110953739D01*
X106722800Y-111447952D01*
X106853877Y-111764400D01*
X107080296Y-111815096D01*
X107053206Y-111842186D01*
X106851261Y-111772626D01*
X106357048Y-111802800D01*
X106293663Y-111829055D01*
X106279704Y-111815096D01*
X106506123Y-111764400D01*
X106667374Y-111296261D01*
X106637200Y-110802048D01*
X106506123Y-110485600D01*
X106279702Y-110434903D01*
X105589605Y-111125000D01*
X105603748Y-111139143D01*
X105424143Y-111318748D01*
X105410000Y-111304605D01*
X105395858Y-111318748D01*
X105216253Y-111139143D01*
X105230395Y-111125000D01*
X104540298Y-110434903D01*
X104313877Y-110485600D01*
X104152626Y-110953739D01*
X104182800Y-111447952D01*
X104313877Y-111764400D01*
X104540296Y-111815096D01*
X104513206Y-111842186D01*
X104311261Y-111772626D01*
X103817048Y-111802800D01*
X103753663Y-111829055D01*
X103739704Y-111815096D01*
X103966123Y-111764400D01*
X104127374Y-111296261D01*
X104097200Y-110802048D01*
X103966123Y-110485600D01*
X103739702Y-110434903D01*
X103049605Y-111125000D01*
X103063748Y-111139143D01*
X102884143Y-111318748D01*
X102870000Y-111304605D01*
X102855858Y-111318748D01*
X102676253Y-111139143D01*
X102690395Y-111125000D01*
X102000298Y-110434903D01*
X101773877Y-110485600D01*
X101612626Y-110953739D01*
X101642800Y-111447952D01*
X101773877Y-111764400D01*
X102000296Y-111815096D01*
X101976561Y-111838831D01*
X101847566Y-111785400D01*
X101403599Y-111785400D01*
X101574600Y-111372566D01*
X101574600Y-110877434D01*
X101385121Y-110419991D01*
X101220428Y-110255298D01*
X102179903Y-110255298D01*
X102870000Y-110945395D01*
X103560097Y-110255298D01*
X104719903Y-110255298D01*
X105410000Y-110945395D01*
X106100097Y-110255298D01*
X107259903Y-110255298D01*
X107950000Y-110945395D01*
X108640097Y-110255298D01*
X108589400Y-110028877D01*
X108121261Y-109867626D01*
X107627048Y-109897800D01*
X107310600Y-110028877D01*
X107259903Y-110255298D01*
X106100097Y-110255298D01*
X106049400Y-110028877D01*
X105581261Y-109867626D01*
X105087048Y-109897800D01*
X104770600Y-110028877D01*
X104719903Y-110255298D01*
X103560097Y-110255298D01*
X103509400Y-110028877D01*
X103041261Y-109867626D01*
X102547048Y-109897800D01*
X102230600Y-110028877D01*
X102179903Y-110255298D01*
X101220428Y-110255298D01*
X101035009Y-110069879D01*
X100577566Y-109880400D01*
X100082434Y-109880400D01*
X100048236Y-109894565D01*
X106189673Y-103753129D01*
X106253129Y-103710729D01*
X106421104Y-103459337D01*
X106465200Y-103237652D01*
X106465200Y-103237648D01*
X106480088Y-103162800D01*
X106465200Y-103087952D01*
X106465200Y-86645750D01*
X110960000Y-86645750D01*
X110960000Y-87286309D01*
X111056673Y-87519698D01*
X111235301Y-87698327D01*
X111468690Y-87795000D01*
X112109250Y-87795000D01*
X112268000Y-87636250D01*
X112268000Y-86487000D01*
X112522000Y-86487000D01*
X112522000Y-87636250D01*
X112680750Y-87795000D01*
X113321310Y-87795000D01*
X113554699Y-87698327D01*
X113733327Y-87519698D01*
X113830000Y-87286309D01*
X113830000Y-86645750D01*
X113671250Y-86487000D01*
X112522000Y-86487000D01*
X112268000Y-86487000D01*
X111118750Y-86487000D01*
X110960000Y-86645750D01*
X106465200Y-86645750D01*
X106465200Y-79317215D01*
X106570800Y-79062274D01*
X106570800Y-78650526D01*
X106413231Y-78270120D01*
X106122080Y-77978969D01*
X105741674Y-77821400D01*
X105329926Y-77821400D01*
X104987900Y-77963072D01*
X104987900Y-77817101D01*
X105423802Y-77381200D01*
X105589874Y-77381200D01*
X105970280Y-77223631D01*
X106261431Y-76932480D01*
X106419000Y-76552074D01*
X106419000Y-76140326D01*
X106261431Y-75759920D01*
X105970280Y-75468769D01*
X105589874Y-75311200D01*
X105178126Y-75311200D01*
X104797720Y-75468769D01*
X104506569Y-75759920D01*
X104349000Y-76140326D01*
X104349000Y-76306398D01*
X103743430Y-76911969D01*
X103679971Y-76954371D01*
X103674300Y-76962858D01*
X103674300Y-66767787D01*
X103727235Y-66803157D01*
X103975000Y-66852440D01*
X105564939Y-66852440D01*
X111351410Y-72638912D01*
X111043260Y-73100091D01*
X110931887Y-73660000D01*
X111043260Y-74219909D01*
X111360423Y-74694577D01*
X111669203Y-74900897D01*
X111655851Y-74968024D01*
X111360423Y-75165423D01*
X111043260Y-75640091D01*
X110931887Y-76200000D01*
X111043260Y-76759909D01*
X111360423Y-77234577D01*
X111669203Y-77440897D01*
X111655851Y-77508024D01*
X111360423Y-77705423D01*
X111043260Y-78180091D01*
X110931887Y-78740000D01*
X111043260Y-79299909D01*
X111360423Y-79774577D01*
X111669203Y-79980897D01*
X111655851Y-80048024D01*
X111360423Y-80245423D01*
X111043260Y-80720091D01*
X110931887Y-81280000D01*
X111043260Y-81839909D01*
X111360423Y-82314577D01*
X111712758Y-82550000D01*
X111360423Y-82785423D01*
X111043260Y-83260091D01*
X110931887Y-83820000D01*
X111043260Y-84379909D01*
X111360423Y-84854577D01*
X111466917Y-84925734D01*
X111235301Y-85021673D01*
X111056673Y-85200302D01*
X110960000Y-85433691D01*
X110960000Y-86074250D01*
X111118750Y-86233000D01*
X112268000Y-86233000D01*
X112268000Y-86213000D01*
X112522000Y-86213000D01*
X112522000Y-86233000D01*
X113671250Y-86233000D01*
X113830000Y-86074250D01*
X113830000Y-85433691D01*
X113733327Y-85200302D01*
X113554699Y-85021673D01*
X113323083Y-84925734D01*
X113429577Y-84854577D01*
X113746740Y-84379909D01*
X113858113Y-83820000D01*
X113746740Y-83260091D01*
X113429577Y-82785423D01*
X113077242Y-82550000D01*
X113429577Y-82314577D01*
X113746740Y-81839909D01*
X113858113Y-81280000D01*
X113746740Y-80720091D01*
X113491261Y-80337740D01*
X114686673Y-79142329D01*
X114750129Y-79099929D01*
X114793124Y-79035582D01*
X114918104Y-78848538D01*
X114929634Y-78790572D01*
X114962200Y-78626852D01*
X114962200Y-78626848D01*
X114977088Y-78552000D01*
X114962200Y-78477152D01*
X114962200Y-68339348D01*
X114977088Y-68264500D01*
X114962200Y-68189652D01*
X114962200Y-68189648D01*
X114918104Y-67967963D01*
X114918104Y-67967962D01*
X114792529Y-67780027D01*
X114750129Y-67716571D01*
X114686673Y-67674171D01*
X113438590Y-66426088D01*
X113746740Y-65964909D01*
X113858113Y-65405000D01*
X113746740Y-64845091D01*
X113429577Y-64370423D01*
X112954909Y-64053260D01*
X112536333Y-63970000D01*
X112253667Y-63970000D01*
X111835091Y-64053260D01*
X111360423Y-64370423D01*
X111125000Y-64722758D01*
X110889577Y-64370423D01*
X110414909Y-64053260D01*
X109996333Y-63970000D01*
X109713667Y-63970000D01*
X109295091Y-64053260D01*
X108820423Y-64370423D01*
X108585000Y-64722758D01*
X108349577Y-64370423D01*
X107874909Y-64053260D01*
X107456333Y-63970000D01*
X107173667Y-63970000D01*
X106755091Y-64053260D01*
X106280423Y-64370423D01*
X106199785Y-64491106D01*
X106173157Y-64357235D01*
X106032809Y-64147191D01*
X105822765Y-64006843D01*
X105575000Y-63957560D01*
X105192741Y-63957560D01*
X109069473Y-60080829D01*
X109132929Y-60038429D01*
X109187839Y-59956250D01*
X109300904Y-59787038D01*
X109331064Y-59635412D01*
X109345000Y-59565352D01*
X109345000Y-59565348D01*
X109359888Y-59490500D01*
X109345000Y-59415652D01*
X109345000Y-59146668D01*
X109713667Y-59220000D01*
X109996333Y-59220000D01*
X110414909Y-59136740D01*
X110889577Y-58819577D01*
X111125000Y-58467242D01*
X111360423Y-58819577D01*
X111835091Y-59136740D01*
X112253667Y-59220000D01*
X112536333Y-59220000D01*
X112954909Y-59136740D01*
X113429577Y-58819577D01*
X113746740Y-58344909D01*
X113858113Y-57785000D01*
X113746740Y-57225091D01*
X113429577Y-56750423D01*
X112954909Y-56433260D01*
X112536333Y-56350000D01*
X112253667Y-56350000D01*
X111835091Y-56433260D01*
X111360423Y-56750423D01*
X111125000Y-57102758D01*
X110889577Y-56750423D01*
X110576722Y-56541380D01*
X112633318Y-54484784D01*
X112691537Y-54473204D01*
X112942929Y-54305229D01*
X113110904Y-54053837D01*
X113134149Y-53936976D01*
X113429577Y-53739577D01*
X113746740Y-53264909D01*
X113858113Y-52705000D01*
X113746740Y-52145091D01*
X113438590Y-51683912D01*
X114784473Y-50338029D01*
X114847929Y-50295629D01*
X114961336Y-50125904D01*
X115015904Y-50044238D01*
X115047108Y-49887363D01*
X115060000Y-49822552D01*
X115060000Y-49822548D01*
X115074888Y-49747700D01*
X115060000Y-49672852D01*
X115060000Y-39318043D01*
X115334577Y-39134577D01*
X115651740Y-38659909D01*
X115763113Y-38100000D01*
X115651740Y-37540091D01*
X115334577Y-37065423D01*
X114859909Y-36748260D01*
X114441333Y-36665000D01*
X114158667Y-36665000D01*
X113740091Y-36748260D01*
X113265423Y-37065423D01*
X113030000Y-37417758D01*
X112794577Y-37065423D01*
X112319909Y-36748260D01*
X111901333Y-36665000D01*
X111618667Y-36665000D01*
X111200091Y-36748260D01*
X110725423Y-37065423D01*
X110490000Y-37417758D01*
X110254577Y-37065423D01*
X109779909Y-36748260D01*
X109361333Y-36665000D01*
X109078667Y-36665000D01*
X108660091Y-36748260D01*
X108185423Y-37065423D01*
X107950000Y-37417758D01*
X107714577Y-37065423D01*
X107239909Y-36748260D01*
X106821333Y-36665000D01*
X106538667Y-36665000D01*
X106120091Y-36748260D01*
X105645423Y-37065423D01*
X105410000Y-37417758D01*
X105174577Y-37065423D01*
X104699909Y-36748260D01*
X104281333Y-36665000D01*
X103998667Y-36665000D01*
X103580091Y-36748260D01*
X103133898Y-37046396D01*
X99821431Y-33733930D01*
X99779029Y-33670471D01*
X99527637Y-33502496D01*
X99305952Y-33458400D01*
X99305947Y-33458400D01*
X99231100Y-33443512D01*
X99156253Y-33458400D01*
X78251447Y-33458400D01*
X78176600Y-33443512D01*
X78101753Y-33458400D01*
X78101748Y-33458400D01*
X77880063Y-33502496D01*
X77628671Y-33670471D01*
X77586271Y-33733927D01*
X77093698Y-34226500D01*
X76569750Y-34226500D01*
X76079633Y-34429513D01*
X75704513Y-34804633D01*
X75565000Y-35141447D01*
X75425487Y-34804633D01*
X75050367Y-34429513D01*
X74560250Y-34226500D01*
X74036301Y-34226500D01*
X73919231Y-34109430D01*
X73876829Y-34045971D01*
X73625437Y-33877996D01*
X73403752Y-33833900D01*
X73403747Y-33833900D01*
X73328900Y-33819012D01*
X73254053Y-33833900D01*
X52382546Y-33833900D01*
X52307699Y-33819012D01*
X52232852Y-33833900D01*
X52232848Y-33833900D01*
X52011163Y-33877996D01*
X51759771Y-34045971D01*
X51717371Y-34109427D01*
X42622430Y-43204369D01*
X42558971Y-43246771D01*
X42390996Y-43498164D01*
X42346900Y-43719849D01*
X42346900Y-43719853D01*
X42332012Y-43794700D01*
X42346900Y-43869547D01*
X42346901Y-77924248D01*
X42332012Y-77999100D01*
X42390997Y-78295637D01*
X42504048Y-78464829D01*
X42558972Y-78547029D01*
X42622428Y-78589429D01*
X43556500Y-79523502D01*
X43556500Y-82322560D01*
X42330000Y-82322560D01*
X42082235Y-82371843D01*
X41872191Y-82512191D01*
X41731843Y-82722235D01*
X41714386Y-82810000D01*
X38895170Y-82810000D01*
X38795699Y-82790214D01*
X38696228Y-82810000D01*
X38696224Y-82810000D01*
X38401618Y-82868601D01*
X38067531Y-83091831D01*
X38011182Y-83176163D01*
X33646163Y-87541182D01*
X33561831Y-87597531D01*
X33505483Y-87681862D01*
X33505482Y-87681863D01*
X33463154Y-87745212D01*
X33338601Y-87931619D01*
X33280000Y-88226225D01*
X33280000Y-88226229D01*
X33260214Y-88325700D01*
X33280000Y-88425171D01*
X33280001Y-110260799D01*
X29776523Y-106757321D01*
X30244577Y-106444577D01*
X30561740Y-105969909D01*
X30673113Y-105410000D01*
X30561740Y-104850091D01*
X30244577Y-104375423D01*
X29892242Y-104140000D01*
X30244577Y-103904577D01*
X30561740Y-103429909D01*
X30673113Y-102870000D01*
X30561740Y-102310091D01*
X30244577Y-101835423D01*
X29892242Y-101600000D01*
X30244577Y-101364577D01*
X30561740Y-100889909D01*
X30673113Y-100330000D01*
X30561740Y-99770091D01*
X30244577Y-99295423D01*
X29892242Y-99060000D01*
X30244577Y-98824577D01*
X30561740Y-98349909D01*
X30673113Y-97790000D01*
X30561740Y-97230091D01*
X30244577Y-96755423D01*
X29892242Y-96520000D01*
X30244577Y-96284577D01*
X30561740Y-95809909D01*
X30673113Y-95250000D01*
X30561740Y-94690091D01*
X30244577Y-94215423D01*
X29892242Y-93980000D01*
X30244577Y-93744577D01*
X30561740Y-93269909D01*
X30673113Y-92710000D01*
X30561740Y-92150091D01*
X30244577Y-91675423D01*
X29892242Y-91440000D01*
X30244577Y-91204577D01*
X30561740Y-90729909D01*
X30673113Y-90170000D01*
X30561740Y-89610091D01*
X30244577Y-89135423D01*
X30123894Y-89054785D01*
X30257765Y-89028157D01*
X30467809Y-88887809D01*
X30608157Y-88677765D01*
X30657440Y-88430000D01*
X30657440Y-86830000D01*
X30608157Y-86582235D01*
X30467809Y-86372191D01*
X30257765Y-86231843D01*
X30010000Y-86182560D01*
X28410000Y-86182560D01*
X28162235Y-86231843D01*
X27952191Y-86372191D01*
X27811843Y-86582235D01*
X27762560Y-86830000D01*
X27762560Y-88430000D01*
X27811843Y-88677765D01*
X27952191Y-88887809D01*
X28162235Y-89028157D01*
X28296106Y-89054785D01*
X28175423Y-89135423D01*
X27858260Y-89610091D01*
X27746887Y-90170000D01*
X27858260Y-90729909D01*
X28175423Y-91204577D01*
X28527758Y-91440000D01*
X28175423Y-91675423D01*
X27858260Y-92150091D01*
X27746887Y-92710000D01*
X27858260Y-93269909D01*
X28175423Y-93744577D01*
X28527758Y-93980000D01*
X28175423Y-94215423D01*
X27858260Y-94690091D01*
X27746887Y-95250000D01*
X27858260Y-95809909D01*
X28175423Y-96284577D01*
X28527758Y-96520000D01*
X28175423Y-96755423D01*
X27858260Y-97230091D01*
X27746887Y-97790000D01*
X27858260Y-98349909D01*
X28175423Y-98824577D01*
X28527758Y-99060000D01*
X28175423Y-99295423D01*
X27858260Y-99770091D01*
X27746887Y-100330000D01*
X27858260Y-100889909D01*
X28175423Y-101364577D01*
X28527758Y-101600000D01*
X28175423Y-101835423D01*
X27858260Y-102310091D01*
X27746887Y-102870000D01*
X27858260Y-103429909D01*
X28175423Y-103904577D01*
X28527758Y-104140000D01*
X28175423Y-104375423D01*
X27862679Y-104843478D01*
X24890000Y-101870799D01*
X24890000Y-83193178D01*
X25200625Y-82985625D01*
X25528839Y-82494418D01*
X25644092Y-81915000D01*
X25528839Y-81335582D01*
X25200625Y-80844375D01*
X25182381Y-80832184D01*
X25227765Y-80823157D01*
X25437809Y-80682809D01*
X25578157Y-80472765D01*
X25627440Y-80225000D01*
X25627440Y-79145000D01*
X30872560Y-79145000D01*
X30872560Y-82145000D01*
X30921843Y-82392765D01*
X31062191Y-82602809D01*
X31272235Y-82743157D01*
X31520000Y-82792440D01*
X34520000Y-82792440D01*
X34767765Y-82743157D01*
X34977809Y-82602809D01*
X35118157Y-82392765D01*
X35167440Y-82145000D01*
X35167440Y-79145000D01*
X35118157Y-78897235D01*
X34977809Y-78687191D01*
X34767765Y-78546843D01*
X34520000Y-78497560D01*
X31520000Y-78497560D01*
X31272235Y-78546843D01*
X31062191Y-78687191D01*
X30921843Y-78897235D01*
X30872560Y-79145000D01*
X25627440Y-79145000D01*
X25627440Y-78525000D01*
X25578157Y-78277235D01*
X25437809Y-78067191D01*
X25227765Y-77926843D01*
X24980000Y-77877560D01*
X23280000Y-77877560D01*
X23032235Y-77926843D01*
X22822191Y-78067191D01*
X22681843Y-78277235D01*
X22632560Y-78525000D01*
X22632560Y-80225000D01*
X22681843Y-80472765D01*
X22822191Y-80682809D01*
X23032235Y-80823157D01*
X23077619Y-80832184D01*
X23059375Y-80844375D01*
X22731161Y-81335582D01*
X22615908Y-81915000D01*
X22731161Y-82494418D01*
X23059375Y-82985625D01*
X23370001Y-83193179D01*
X23370000Y-102110753D01*
X23355112Y-102185600D01*
X23370000Y-102260447D01*
X23370000Y-102260451D01*
X23414096Y-102482136D01*
X23582071Y-102733529D01*
X23645530Y-102775931D01*
X32689394Y-111819796D01*
X32314991Y-111974879D01*
X31964879Y-112324991D01*
X31775400Y-112782434D01*
X31775400Y-113277566D01*
X31964879Y-113735009D01*
X32314991Y-114085121D01*
X32772434Y-114274600D01*
X33267566Y-114274600D01*
X33396561Y-114221169D01*
X33420296Y-114244904D01*
X33193877Y-114295600D01*
X33032626Y-114763739D01*
X33062800Y-115257952D01*
X33193877Y-115574400D01*
X33420296Y-115625096D01*
X33393206Y-115652186D01*
X33191261Y-115582626D01*
X32697048Y-115612800D01*
X32380600Y-115743877D01*
X32329903Y-115970298D01*
X33020000Y-116660395D01*
X33034143Y-116646253D01*
X33213748Y-116825858D01*
X33199605Y-116840000D01*
X33889702Y-117530097D01*
X34116123Y-117479400D01*
X34277374Y-117011261D01*
X34247200Y-116517048D01*
X34116123Y-116200600D01*
X33889704Y-116149904D01*
X33916794Y-116122814D01*
X34118739Y-116192374D01*
X34612952Y-116162200D01*
X34676337Y-116135945D01*
X34690296Y-116149904D01*
X34463877Y-116200600D01*
X34302626Y-116668739D01*
X34332800Y-117162952D01*
X34463877Y-117479400D01*
X34690298Y-117530097D01*
X35380395Y-116840000D01*
X35366253Y-116825858D01*
X35545858Y-116646253D01*
X35560000Y-116660395D01*
X35574143Y-116646253D01*
X35753748Y-116825858D01*
X35739605Y-116840000D01*
X36429702Y-117530097D01*
X36656123Y-117479400D01*
X36817374Y-117011261D01*
X36787200Y-116517048D01*
X36656123Y-116200600D01*
X36429704Y-116149904D01*
X36456794Y-116122814D01*
X36658739Y-116192374D01*
X37152952Y-116162200D01*
X37216337Y-116135945D01*
X37230296Y-116149904D01*
X37003877Y-116200600D01*
X36842626Y-116668739D01*
X36872800Y-117162952D01*
X37003877Y-117479400D01*
X37230298Y-117530097D01*
X37920395Y-116840000D01*
X37906253Y-116825858D01*
X38085858Y-116646253D01*
X38100000Y-116660395D01*
X38114143Y-116646253D01*
X38293748Y-116825858D01*
X38279605Y-116840000D01*
X38969702Y-117530097D01*
X39196123Y-117479400D01*
X39357374Y-117011261D01*
X39327200Y-116517048D01*
X39196123Y-116200600D01*
X38969704Y-116149904D01*
X38993439Y-116126169D01*
X39122434Y-116179600D01*
X39566401Y-116179600D01*
X39395400Y-116592434D01*
X39395400Y-117087566D01*
X39584879Y-117545009D01*
X39934991Y-117895121D01*
X40392434Y-118084600D01*
X40887566Y-118084600D01*
X41345009Y-117895121D01*
X41600214Y-117639916D01*
X42548971Y-118588673D01*
X42591371Y-118652129D01*
X42842763Y-118820104D01*
X43064448Y-118864200D01*
X43064452Y-118864200D01*
X43139300Y-118879088D01*
X43214148Y-118864200D01*
X58309053Y-118864200D01*
X58383900Y-118879088D01*
X58458747Y-118864200D01*
X58458752Y-118864200D01*
X58680437Y-118820104D01*
X58931829Y-118652129D01*
X58974231Y-118588670D01*
X59775973Y-117786929D01*
X59839429Y-117744529D01*
X59945561Y-117585691D01*
X60254991Y-117895121D01*
X60712434Y-118084600D01*
X61207566Y-118084600D01*
X61665009Y-117895121D01*
X62015121Y-117545009D01*
X62204600Y-117087566D01*
X62204600Y-116592434D01*
X62033599Y-116179600D01*
X62426401Y-116179600D01*
X62255400Y-116592434D01*
X62255400Y-117087566D01*
X62444879Y-117545009D01*
X62794991Y-117895121D01*
X63252434Y-118084600D01*
X63747566Y-118084600D01*
X64205009Y-117895121D01*
X64555121Y-117545009D01*
X64744600Y-117087566D01*
X64744600Y-116592434D01*
X64573599Y-116179600D01*
X64966401Y-116179600D01*
X64795400Y-116592434D01*
X64795400Y-117087566D01*
X64984879Y-117545009D01*
X65334991Y-117895121D01*
X65792434Y-118084600D01*
X66287566Y-118084600D01*
X66745009Y-117895121D01*
X67095121Y-117545009D01*
X67284600Y-117087566D01*
X67284600Y-116592434D01*
X67113599Y-116179600D01*
X67506401Y-116179600D01*
X67335400Y-116592434D01*
X67335400Y-117087566D01*
X67524879Y-117545009D01*
X67874991Y-117895121D01*
X68332434Y-118084600D01*
X68827566Y-118084600D01*
X69285009Y-117895121D01*
X69571364Y-117608766D01*
X70194971Y-118232373D01*
X70237371Y-118295829D01*
X70488763Y-118463804D01*
X70710448Y-118507900D01*
X70710452Y-118507900D01*
X70785299Y-118522788D01*
X70860146Y-118507900D01*
X71363453Y-118507900D01*
X71438300Y-118522788D01*
X71513147Y-118507900D01*
X71513152Y-118507900D01*
X71734837Y-118463804D01*
X71986229Y-118295829D01*
X72028631Y-118232371D01*
X72660436Y-117600566D01*
X72954991Y-117895121D01*
X73412434Y-118084600D01*
X73907566Y-118084600D01*
X74365009Y-117895121D01*
X74715121Y-117545009D01*
X74904600Y-117087566D01*
X74904600Y-116592434D01*
X74733599Y-116179600D01*
X75126401Y-116179600D01*
X74955400Y-116592434D01*
X74955400Y-117087566D01*
X75144879Y-117545009D01*
X75494991Y-117895121D01*
X75952434Y-118084600D01*
X76447566Y-118084600D01*
X76905009Y-117895121D01*
X77255121Y-117545009D01*
X77444600Y-117087566D01*
X77444600Y-116592434D01*
X77273599Y-116179600D01*
X77666401Y-116179600D01*
X77495400Y-116592434D01*
X77495400Y-117087566D01*
X77684879Y-117545009D01*
X78034991Y-117895121D01*
X78492434Y-118084600D01*
X78987566Y-118084600D01*
X79445009Y-117895121D01*
X79743164Y-117596966D01*
X81411198Y-119265000D01*
X20735000Y-119265000D01*
X20735000Y-118467622D01*
X25856983Y-118467622D01*
X26035967Y-118802738D01*
X26883674Y-119138972D01*
X27795524Y-119125207D01*
X28574033Y-118802738D01*
X28753017Y-118467622D01*
X27305000Y-117019605D01*
X25856983Y-118467622D01*
X20735000Y-118467622D01*
X20735000Y-116418674D01*
X25006028Y-116418674D01*
X25019793Y-117330524D01*
X25342262Y-118109033D01*
X25677378Y-118288017D01*
X27125395Y-116840000D01*
X27484605Y-116840000D01*
X28932622Y-118288017D01*
X29267738Y-118109033D01*
X29426128Y-117709702D01*
X32329903Y-117709702D01*
X32380600Y-117936123D01*
X32848739Y-118097374D01*
X33342952Y-118067200D01*
X33659400Y-117936123D01*
X33710097Y-117709702D01*
X34869903Y-117709702D01*
X34920600Y-117936123D01*
X35388739Y-118097374D01*
X35882952Y-118067200D01*
X36199400Y-117936123D01*
X36250097Y-117709702D01*
X37409903Y-117709702D01*
X37460600Y-117936123D01*
X37928739Y-118097374D01*
X38422952Y-118067200D01*
X38739400Y-117936123D01*
X38790097Y-117709702D01*
X38100000Y-117019605D01*
X37409903Y-117709702D01*
X36250097Y-117709702D01*
X35560000Y-117019605D01*
X34869903Y-117709702D01*
X33710097Y-117709702D01*
X33020000Y-117019605D01*
X32329903Y-117709702D01*
X29426128Y-117709702D01*
X29603972Y-117261326D01*
X29595027Y-116668739D01*
X31762626Y-116668739D01*
X31792800Y-117162952D01*
X31923877Y-117479400D01*
X32150298Y-117530097D01*
X32840395Y-116840000D01*
X32150298Y-116149903D01*
X31923877Y-116200600D01*
X31762626Y-116668739D01*
X29595027Y-116668739D01*
X29590207Y-116349476D01*
X29267738Y-115570967D01*
X28932622Y-115391983D01*
X27484605Y-116840000D01*
X27125395Y-116840000D01*
X25677378Y-115391983D01*
X25342262Y-115570967D01*
X25006028Y-116418674D01*
X20735000Y-116418674D01*
X20735000Y-115212378D01*
X25856983Y-115212378D01*
X27305000Y-116660395D01*
X28753017Y-115212378D01*
X28574033Y-114877262D01*
X27726326Y-114541028D01*
X26814476Y-114554793D01*
X26035967Y-114877262D01*
X25856983Y-115212378D01*
X20735000Y-115212378D01*
X20735000Y-61668970D01*
X31685635Y-61668970D01*
X31845418Y-61987739D01*
X32636187Y-62297723D01*
X33485387Y-62281497D01*
X34194582Y-61987739D01*
X34354365Y-61668970D01*
X33020000Y-60334605D01*
X31685635Y-61668970D01*
X20735000Y-61668970D01*
X20735000Y-59771187D01*
X30877277Y-59771187D01*
X30893503Y-60620387D01*
X31187261Y-61329582D01*
X31506030Y-61489365D01*
X32840395Y-60155000D01*
X33199605Y-60155000D01*
X34533970Y-61489365D01*
X34852739Y-61329582D01*
X35162723Y-60538813D01*
X35146497Y-59689613D01*
X34852739Y-58980418D01*
X34533970Y-58820635D01*
X33199605Y-60155000D01*
X32840395Y-60155000D01*
X31506030Y-58820635D01*
X31187261Y-58980418D01*
X30877277Y-59771187D01*
X20735000Y-59771187D01*
X20735000Y-58641030D01*
X31685635Y-58641030D01*
X33020000Y-59975395D01*
X34354365Y-58641030D01*
X34194582Y-58322261D01*
X33403813Y-58012277D01*
X32554613Y-58028503D01*
X31845418Y-58322261D01*
X31685635Y-58641030D01*
X20735000Y-58641030D01*
X20735000Y-44920000D01*
X30302560Y-44920000D01*
X30302560Y-46520000D01*
X30351843Y-46767765D01*
X30492191Y-46977809D01*
X30702235Y-47118157D01*
X30950000Y-47167440D01*
X32550000Y-47167440D01*
X32797765Y-47118157D01*
X33007809Y-46977809D01*
X33148157Y-46767765D01*
X33156117Y-46727745D01*
X38541861Y-46727745D01*
X38615995Y-46973864D01*
X39153223Y-47166965D01*
X39723454Y-47139778D01*
X40124005Y-46973864D01*
X40198139Y-46727745D01*
X39370000Y-45899605D01*
X38541861Y-46727745D01*
X33156117Y-46727745D01*
X33197440Y-46520000D01*
X33197440Y-45503223D01*
X37923035Y-45503223D01*
X37950222Y-46073454D01*
X38116136Y-46474005D01*
X38362255Y-46548139D01*
X39190395Y-45720000D01*
X39549605Y-45720000D01*
X40377745Y-46548139D01*
X40623864Y-46474005D01*
X40816965Y-45936777D01*
X40789778Y-45366546D01*
X40623864Y-44965995D01*
X40377745Y-44891861D01*
X39549605Y-45720000D01*
X39190395Y-45720000D01*
X38362255Y-44891861D01*
X38116136Y-44965995D01*
X37923035Y-45503223D01*
X33197440Y-45503223D01*
X33197440Y-44920000D01*
X33156118Y-44712255D01*
X38541861Y-44712255D01*
X39370000Y-45540395D01*
X40198139Y-44712255D01*
X40124005Y-44466136D01*
X39586777Y-44273035D01*
X39016546Y-44300222D01*
X38615995Y-44466136D01*
X38541861Y-44712255D01*
X33156118Y-44712255D01*
X33148157Y-44672235D01*
X33007809Y-44462191D01*
X32797765Y-44321843D01*
X32550000Y-44272560D01*
X30950000Y-44272560D01*
X30702235Y-44321843D01*
X30492191Y-44462191D01*
X30351843Y-44672235D01*
X30302560Y-44920000D01*
X20735000Y-44920000D01*
X20735000Y-37814561D01*
X30315000Y-37814561D01*
X30315000Y-38385439D01*
X30533466Y-38912862D01*
X30937138Y-39316534D01*
X31464561Y-39535000D01*
X32035439Y-39535000D01*
X32562862Y-39316534D01*
X32966534Y-38912862D01*
X33185000Y-38385439D01*
X33185000Y-37814561D01*
X37935000Y-37814561D01*
X37935000Y-38385439D01*
X38153466Y-38912862D01*
X38557138Y-39316534D01*
X39084561Y-39535000D01*
X39655439Y-39535000D01*
X40182862Y-39316534D01*
X40586534Y-38912862D01*
X40805000Y-38385439D01*
X40805000Y-37814561D01*
X40586534Y-37287138D01*
X40182862Y-36883466D01*
X39655439Y-36665000D01*
X39084561Y-36665000D01*
X38557138Y-36883466D01*
X38153466Y-37287138D01*
X37935000Y-37814561D01*
X33185000Y-37814561D01*
X32966534Y-37287138D01*
X32562862Y-36883466D01*
X32035439Y-36665000D01*
X31464561Y-36665000D01*
X30937138Y-36883466D01*
X30533466Y-37287138D01*
X30315000Y-37814561D01*
X20735000Y-37814561D01*
X20735000Y-20735000D01*
X119265000Y-20735000D01*
X119265001Y-119265000D01*
X119265001Y-119265000D01*
G37*
X119265001Y-119265000D02*
X93871401Y-119265000D01*
X94668779Y-118467622D01*
X110946983Y-118467622D01*
X111125967Y-118802738D01*
X111973674Y-119138972D01*
X112885524Y-119125207D01*
X113664033Y-118802738D01*
X113843017Y-118467622D01*
X112395000Y-117019605D01*
X110946983Y-118467622D01*
X94668779Y-118467622D01*
X95528136Y-117608266D01*
X95814991Y-117895121D01*
X96272434Y-118084600D01*
X96767566Y-118084600D01*
X97225009Y-117895121D01*
X97575121Y-117545009D01*
X97764600Y-117087566D01*
X97764600Y-116592434D01*
X97593599Y-116179600D01*
X97986401Y-116179600D01*
X97815400Y-116592434D01*
X97815400Y-117087566D01*
X98004879Y-117545009D01*
X98354991Y-117895121D01*
X98812434Y-118084600D01*
X99307566Y-118084600D01*
X99765009Y-117895121D01*
X100115121Y-117545009D01*
X100304600Y-117087566D01*
X100304600Y-116592434D01*
X100133599Y-116179600D01*
X100526401Y-116179600D01*
X100355400Y-116592434D01*
X100355400Y-117087566D01*
X100544879Y-117545009D01*
X100894991Y-117895121D01*
X101352434Y-118084600D01*
X101847566Y-118084600D01*
X102305009Y-117895121D01*
X102655121Y-117545009D01*
X102844600Y-117087566D01*
X102844600Y-116592434D01*
X102673599Y-116179600D01*
X103066401Y-116179600D01*
X102895400Y-116592434D01*
X102895400Y-117087566D01*
X103084879Y-117545009D01*
X103434991Y-117895121D01*
X103892434Y-118084600D01*
X104387566Y-118084600D01*
X104845009Y-117895121D01*
X105195121Y-117545009D01*
X105384600Y-117087566D01*
X105384600Y-116592434D01*
X105213599Y-116179600D01*
X105606401Y-116179600D01*
X105435400Y-116592434D01*
X105435400Y-117087566D01*
X105624879Y-117545009D01*
X105974991Y-117895121D01*
X106432434Y-118084600D01*
X106927566Y-118084600D01*
X107385009Y-117895121D01*
X107735121Y-117545009D01*
X107924600Y-117087566D01*
X107924600Y-117023755D01*
X108529681Y-116418674D01*
X110096028Y-116418674D01*
X110109793Y-117330524D01*
X110432262Y-118109033D01*
X110767378Y-118288017D01*
X112215395Y-116840000D01*
X112574605Y-116840000D01*
X114022622Y-118288017D01*
X114357738Y-118109033D01*
X114693972Y-117261326D01*
X114680207Y-116349476D01*
X114357738Y-115570967D01*
X114022622Y-115391983D01*
X112574605Y-116840000D01*
X112215395Y-116840000D01*
X110767378Y-115391983D01*
X110432262Y-115570967D01*
X110096028Y-116418674D01*
X108529681Y-116418674D01*
X108593838Y-116354517D01*
X108678169Y-116298169D01*
X108901399Y-115964082D01*
X108956113Y-115689017D01*
X109005121Y-115640009D01*
X109182251Y-115212378D01*
X110946983Y-115212378D01*
X112395000Y-116660395D01*
X113843017Y-115212378D01*
X113664033Y-114877262D01*
X112816326Y-114541028D01*
X111904476Y-114554793D01*
X111125967Y-114877262D01*
X110946983Y-115212378D01*
X109182251Y-115212378D01*
X109194600Y-115182566D01*
X109194600Y-114687434D01*
X109005121Y-114229991D01*
X108655009Y-113879879D01*
X108197566Y-113690400D01*
X107702434Y-113690400D01*
X107573439Y-113743831D01*
X107549704Y-113720096D01*
X107776123Y-113669400D01*
X107937374Y-113201261D01*
X107907200Y-112707048D01*
X107776123Y-112390600D01*
X107549704Y-112339904D01*
X107576794Y-112312814D01*
X107778739Y-112382374D01*
X108272952Y-112352200D01*
X108589400Y-112221123D01*
X108640097Y-111994702D01*
X107950000Y-111304605D01*
X107935858Y-111318748D01*
X107756253Y-111139143D01*
X107770395Y-111125000D01*
X108129605Y-111125000D01*
X108819702Y-111815097D01*
X109046123Y-111764400D01*
X109207374Y-111296261D01*
X109177200Y-110802048D01*
X109046123Y-110485600D01*
X108819702Y-110434903D01*
X108129605Y-111125000D01*
X107770395Y-111125000D01*
X107080298Y-110434903D01*
X106853877Y-110485600D01*
X106692626Y-110953739D01*
X106722800Y-111447952D01*
X106853877Y-111764400D01*
X107080296Y-111815096D01*
X107053206Y-111842186D01*
X106851261Y-111772626D01*
X106357048Y-111802800D01*
X106293663Y-111829055D01*
X106279704Y-111815096D01*
X106506123Y-111764400D01*
X106667374Y-111296261D01*
X106637200Y-110802048D01*
X106506123Y-110485600D01*
X106279702Y-110434903D01*
X105589605Y-111125000D01*
X105603748Y-111139143D01*
X105424143Y-111318748D01*
X105410000Y-111304605D01*
X105395858Y-111318748D01*
X105216253Y-111139143D01*
X105230395Y-111125000D01*
X104540298Y-110434903D01*
X104313877Y-110485600D01*
X104152626Y-110953739D01*
X104182800Y-111447952D01*
X104313877Y-111764400D01*
X104540296Y-111815096D01*
X104513206Y-111842186D01*
X104311261Y-111772626D01*
X103817048Y-111802800D01*
X103753663Y-111829055D01*
X103739704Y-111815096D01*
X103966123Y-111764400D01*
X104127374Y-111296261D01*
X104097200Y-110802048D01*
X103966123Y-110485600D01*
X103739702Y-110434903D01*
X103049605Y-111125000D01*
X103063748Y-111139143D01*
X102884143Y-111318748D01*
X102870000Y-111304605D01*
X102855858Y-111318748D01*
X102676253Y-111139143D01*
X102690395Y-111125000D01*
X102000298Y-110434903D01*
X101773877Y-110485600D01*
X101612626Y-110953739D01*
X101642800Y-111447952D01*
X101773877Y-111764400D01*
X102000296Y-111815096D01*
X101976561Y-111838831D01*
X101847566Y-111785400D01*
X101403599Y-111785400D01*
X101574600Y-111372566D01*
X101574600Y-110877434D01*
X101385121Y-110419991D01*
X101220428Y-110255298D01*
X102179903Y-110255298D01*
X102870000Y-110945395D01*
X103560097Y-110255298D01*
X104719903Y-110255298D01*
X105410000Y-110945395D01*
X106100097Y-110255298D01*
X107259903Y-110255298D01*
X107950000Y-110945395D01*
X108640097Y-110255298D01*
X108589400Y-110028877D01*
X108121261Y-109867626D01*
X107627048Y-109897800D01*
X107310600Y-110028877D01*
X107259903Y-110255298D01*
X106100097Y-110255298D01*
X106049400Y-110028877D01*
X105581261Y-109867626D01*
X105087048Y-109897800D01*
X104770600Y-110028877D01*
X104719903Y-110255298D01*
X103560097Y-110255298D01*
X103509400Y-110028877D01*
X103041261Y-109867626D01*
X102547048Y-109897800D01*
X102230600Y-110028877D01*
X102179903Y-110255298D01*
X101220428Y-110255298D01*
X101035009Y-110069879D01*
X100577566Y-109880400D01*
X100082434Y-109880400D01*
X100048236Y-109894565D01*
X106189673Y-103753129D01*
X106253129Y-103710729D01*
X106421104Y-103459337D01*
X106465200Y-103237652D01*
X106465200Y-103237648D01*
X106480088Y-103162800D01*
X106465200Y-103087952D01*
X106465200Y-86645750D01*
X110960000Y-86645750D01*
X110960000Y-87286309D01*
X111056673Y-87519698D01*
X111235301Y-87698327D01*
X111468690Y-87795000D01*
X112109250Y-87795000D01*
X112268000Y-87636250D01*
X112268000Y-86487000D01*
X112522000Y-86487000D01*
X112522000Y-87636250D01*
X112680750Y-87795000D01*
X113321310Y-87795000D01*
X113554699Y-87698327D01*
X113733327Y-87519698D01*
X113830000Y-87286309D01*
X113830000Y-86645750D01*
X113671250Y-86487000D01*
X112522000Y-86487000D01*
X112268000Y-86487000D01*
X111118750Y-86487000D01*
X110960000Y-86645750D01*
X106465200Y-86645750D01*
X106465200Y-79317215D01*
X106570800Y-79062274D01*
X106570800Y-78650526D01*
X106413231Y-78270120D01*
X106122080Y-77978969D01*
X105741674Y-77821400D01*
X105329926Y-77821400D01*
X104987900Y-77963072D01*
X104987900Y-77817101D01*
X105423802Y-77381200D01*
X105589874Y-77381200D01*
X105970280Y-77223631D01*
X106261431Y-76932480D01*
X106419000Y-76552074D01*
X106419000Y-76140326D01*
X106261431Y-75759920D01*
X105970280Y-75468769D01*
X105589874Y-75311200D01*
X105178126Y-75311200D01*
X104797720Y-75468769D01*
X104506569Y-75759920D01*
X104349000Y-76140326D01*
X104349000Y-76306398D01*
X103743430Y-76911969D01*
X103679971Y-76954371D01*
X103674300Y-76962858D01*
X103674300Y-66767787D01*
X103727235Y-66803157D01*
X103975000Y-66852440D01*
X105564939Y-66852440D01*
X111351410Y-72638912D01*
X111043260Y-73100091D01*
X110931887Y-73660000D01*
X111043260Y-74219909D01*
X111360423Y-74694577D01*
X111669203Y-74900897D01*
X111655851Y-74968024D01*
X111360423Y-75165423D01*
X111043260Y-75640091D01*
X110931887Y-76200000D01*
X111043260Y-76759909D01*
X111360423Y-77234577D01*
X111669203Y-77440897D01*
X111655851Y-77508024D01*
X111360423Y-77705423D01*
X111043260Y-78180091D01*
X110931887Y-78740000D01*
X111043260Y-79299909D01*
X111360423Y-79774577D01*
X111669203Y-79980897D01*
X111655851Y-80048024D01*
X111360423Y-80245423D01*
X111043260Y-80720091D01*
X110931887Y-81280000D01*
X111043260Y-81839909D01*
X111360423Y-82314577D01*
X111712758Y-82550000D01*
X111360423Y-82785423D01*
X111043260Y-83260091D01*
X110931887Y-83820000D01*
X111043260Y-84379909D01*
X111360423Y-84854577D01*
X111466917Y-84925734D01*
X111235301Y-85021673D01*
X111056673Y-85200302D01*
X110960000Y-85433691D01*
X110960000Y-86074250D01*
X111118750Y-86233000D01*
X112268000Y-86233000D01*
X112268000Y-86213000D01*
X112522000Y-86213000D01*
X112522000Y-86233000D01*
X113671250Y-86233000D01*
X113830000Y-86074250D01*
X113830000Y-85433691D01*
X113733327Y-85200302D01*
X113554699Y-85021673D01*
X113323083Y-84925734D01*
X113429577Y-84854577D01*
X113746740Y-84379909D01*
X113858113Y-83820000D01*
X113746740Y-83260091D01*
X113429577Y-82785423D01*
X113077242Y-82550000D01*
X113429577Y-82314577D01*
X113746740Y-81839909D01*
X113858113Y-81280000D01*
X113746740Y-80720091D01*
X113491261Y-80337740D01*
X114686673Y-79142329D01*
X114750129Y-79099929D01*
X114793124Y-79035582D01*
X114918104Y-78848538D01*
X114929634Y-78790572D01*
X114962200Y-78626852D01*
X114962200Y-78626848D01*
X114977088Y-78552000D01*
X114962200Y-78477152D01*
X114962200Y-68339348D01*
X114977088Y-68264500D01*
X114962200Y-68189652D01*
X114962200Y-68189648D01*
X114918104Y-67967963D01*
X114918104Y-67967962D01*
X114792529Y-67780027D01*
X114750129Y-67716571D01*
X114686673Y-67674171D01*
X113438590Y-66426088D01*
X113746740Y-65964909D01*
X113858113Y-65405000D01*
X113746740Y-64845091D01*
X113429577Y-64370423D01*
X112954909Y-64053260D01*
X112536333Y-63970000D01*
X112253667Y-63970000D01*
X111835091Y-64053260D01*
X111360423Y-64370423D01*
X111125000Y-64722758D01*
X110889577Y-64370423D01*
X110414909Y-64053260D01*
X109996333Y-63970000D01*
X109713667Y-63970000D01*
X109295091Y-64053260D01*
X108820423Y-64370423D01*
X108585000Y-64722758D01*
X108349577Y-64370423D01*
X107874909Y-64053260D01*
X107456333Y-63970000D01*
X107173667Y-63970000D01*
X106755091Y-64053260D01*
X106280423Y-64370423D01*
X106199785Y-64491106D01*
X106173157Y-64357235D01*
X106032809Y-64147191D01*
X105822765Y-64006843D01*
X105575000Y-63957560D01*
X105192741Y-63957560D01*
X109069473Y-60080829D01*
X109132929Y-60038429D01*
X109187839Y-59956250D01*
X109300904Y-59787038D01*
X109331064Y-59635412D01*
X109345000Y-59565352D01*
X109345000Y-59565348D01*
X109359888Y-59490500D01*
X109345000Y-59415652D01*
X109345000Y-59146668D01*
X109713667Y-59220000D01*
X109996333Y-59220000D01*
X110414909Y-59136740D01*
X110889577Y-58819577D01*
X111125000Y-58467242D01*
X111360423Y-58819577D01*
X111835091Y-59136740D01*
X112253667Y-59220000D01*
X112536333Y-59220000D01*
X112954909Y-59136740D01*
X113429577Y-58819577D01*
X113746740Y-58344909D01*
X113858113Y-57785000D01*
X113746740Y-57225091D01*
X113429577Y-56750423D01*
X112954909Y-56433260D01*
X112536333Y-56350000D01*
X112253667Y-56350000D01*
X111835091Y-56433260D01*
X111360423Y-56750423D01*
X111125000Y-57102758D01*
X110889577Y-56750423D01*
X110576722Y-56541380D01*
X112633318Y-54484784D01*
X112691537Y-54473204D01*
X112942929Y-54305229D01*
X113110904Y-54053837D01*
X113134149Y-53936976D01*
X113429577Y-53739577D01*
X113746740Y-53264909D01*
X113858113Y-52705000D01*
X113746740Y-52145091D01*
X113438590Y-51683912D01*
X114784473Y-50338029D01*
X114847929Y-50295629D01*
X114961336Y-50125904D01*
X115015904Y-50044238D01*
X115047108Y-49887363D01*
X115060000Y-49822552D01*
X115060000Y-49822548D01*
X115074888Y-49747700D01*
X115060000Y-49672852D01*
X115060000Y-39318043D01*
X115334577Y-39134577D01*
X115651740Y-38659909D01*
X115763113Y-38100000D01*
X115651740Y-37540091D01*
X115334577Y-37065423D01*
X114859909Y-36748260D01*
X114441333Y-36665000D01*
X114158667Y-36665000D01*
X113740091Y-36748260D01*
X113265423Y-37065423D01*
X113030000Y-37417758D01*
X112794577Y-37065423D01*
X112319909Y-36748260D01*
X111901333Y-36665000D01*
X111618667Y-36665000D01*
X111200091Y-36748260D01*
X110725423Y-37065423D01*
X110490000Y-37417758D01*
X110254577Y-37065423D01*
X109779909Y-36748260D01*
X109361333Y-36665000D01*
X109078667Y-36665000D01*
X108660091Y-36748260D01*
X108185423Y-37065423D01*
X107950000Y-37417758D01*
X107714577Y-37065423D01*
X107239909Y-36748260D01*
X106821333Y-36665000D01*
X106538667Y-36665000D01*
X106120091Y-36748260D01*
X105645423Y-37065423D01*
X105410000Y-37417758D01*
X105174577Y-37065423D01*
X104699909Y-36748260D01*
X104281333Y-36665000D01*
X103998667Y-36665000D01*
X103580091Y-36748260D01*
X103133898Y-37046396D01*
X99821431Y-33733930D01*
X99779029Y-33670471D01*
X99527637Y-33502496D01*
X99305952Y-33458400D01*
X99305947Y-33458400D01*
X99231100Y-33443512D01*
X99156253Y-33458400D01*
X78251447Y-33458400D01*
X78176600Y-33443512D01*
X78101753Y-33458400D01*
X78101748Y-33458400D01*
X77880063Y-33502496D01*
X77628671Y-33670471D01*
X77586271Y-33733927D01*
X77093698Y-34226500D01*
X76569750Y-34226500D01*
X76079633Y-34429513D01*
X75704513Y-34804633D01*
X75565000Y-35141447D01*
X75425487Y-34804633D01*
X75050367Y-34429513D01*
X74560250Y-34226500D01*
X74036301Y-34226500D01*
X73919231Y-34109430D01*
X73876829Y-34045971D01*
X73625437Y-33877996D01*
X73403752Y-33833900D01*
X73403747Y-33833900D01*
X73328900Y-33819012D01*
X73254053Y-33833900D01*
X52382546Y-33833900D01*
X52307699Y-33819012D01*
X52232852Y-33833900D01*
X52232848Y-33833900D01*
X52011163Y-33877996D01*
X51759771Y-34045971D01*
X51717371Y-34109427D01*
X42622430Y-43204369D01*
X42558971Y-43246771D01*
X42390996Y-43498164D01*
X42346900Y-43719849D01*
X42346900Y-43719853D01*
X42332012Y-43794700D01*
X42346900Y-43869547D01*
X42346901Y-77924248D01*
X42332012Y-77999100D01*
X42390997Y-78295637D01*
X42504048Y-78464829D01*
X42558972Y-78547029D01*
X42622428Y-78589429D01*
X43556500Y-79523502D01*
X43556500Y-82322560D01*
X42330000Y-82322560D01*
X42082235Y-82371843D01*
X41872191Y-82512191D01*
X41731843Y-82722235D01*
X41714386Y-82810000D01*
X38895170Y-82810000D01*
X38795699Y-82790214D01*
X38696228Y-82810000D01*
X38696224Y-82810000D01*
X38401618Y-82868601D01*
X38067531Y-83091831D01*
X38011182Y-83176163D01*
X33646163Y-87541182D01*
X33561831Y-87597531D01*
X33505483Y-87681862D01*
X33505482Y-87681863D01*
X33463154Y-87745212D01*
X33338601Y-87931619D01*
X33280000Y-88226225D01*
X33280000Y-88226229D01*
X33260214Y-88325700D01*
X33280000Y-88425171D01*
X33280001Y-110260799D01*
X29776523Y-106757321D01*
X30244577Y-106444577D01*
X30561740Y-105969909D01*
X30673113Y-105410000D01*
X30561740Y-104850091D01*
X30244577Y-104375423D01*
X29892242Y-104140000D01*
X30244577Y-103904577D01*
X30561740Y-103429909D01*
X30673113Y-102870000D01*
X30561740Y-102310091D01*
X30244577Y-101835423D01*
X29892242Y-101600000D01*
X30244577Y-101364577D01*
X30561740Y-100889909D01*
X30673113Y-100330000D01*
X30561740Y-99770091D01*
X30244577Y-99295423D01*
X29892242Y-99060000D01*
X30244577Y-98824577D01*
X30561740Y-98349909D01*
X30673113Y-97790000D01*
X30561740Y-97230091D01*
X30244577Y-96755423D01*
X29892242Y-96520000D01*
X30244577Y-96284577D01*
X30561740Y-95809909D01*
X30673113Y-95250000D01*
X30561740Y-94690091D01*
X30244577Y-94215423D01*
X29892242Y-93980000D01*
X30244577Y-93744577D01*
X30561740Y-93269909D01*
X30673113Y-92710000D01*
X30561740Y-92150091D01*
X30244577Y-91675423D01*
X29892242Y-91440000D01*
X30244577Y-91204577D01*
X30561740Y-90729909D01*
X30673113Y-90170000D01*
X30561740Y-89610091D01*
X30244577Y-89135423D01*
X30123894Y-89054785D01*
X30257765Y-89028157D01*
X30467809Y-88887809D01*
X30608157Y-88677765D01*
X30657440Y-88430000D01*
X30657440Y-86830000D01*
X30608157Y-86582235D01*
X30467809Y-86372191D01*
X30257765Y-86231843D01*
X30010000Y-86182560D01*
X28410000Y-86182560D01*
X28162235Y-86231843D01*
X27952191Y-86372191D01*
X27811843Y-86582235D01*
X27762560Y-86830000D01*
X27762560Y-88430000D01*
X27811843Y-88677765D01*
X27952191Y-88887809D01*
X28162235Y-89028157D01*
X28296106Y-89054785D01*
X28175423Y-89135423D01*
X27858260Y-89610091D01*
X27746887Y-90170000D01*
X27858260Y-90729909D01*
X28175423Y-91204577D01*
X28527758Y-91440000D01*
X28175423Y-91675423D01*
X27858260Y-92150091D01*
X27746887Y-92710000D01*
X27858260Y-93269909D01*
X28175423Y-93744577D01*
X28527758Y-93980000D01*
X28175423Y-94215423D01*
X27858260Y-94690091D01*
X27746887Y-95250000D01*
X27858260Y-95809909D01*
X28175423Y-96284577D01*
X28527758Y-96520000D01*
X28175423Y-96755423D01*
X27858260Y-97230091D01*
X27746887Y-97790000D01*
X27858260Y-98349909D01*
X28175423Y-98824577D01*
X28527758Y-99060000D01*
X28175423Y-99295423D01*
X27858260Y-99770091D01*
X27746887Y-100330000D01*
X27858260Y-100889909D01*
X28175423Y-101364577D01*
X28527758Y-101600000D01*
X28175423Y-101835423D01*
X27858260Y-102310091D01*
X27746887Y-102870000D01*
X27858260Y-103429909D01*
X28175423Y-103904577D01*
X28527758Y-104140000D01*
X28175423Y-104375423D01*
X27862679Y-104843478D01*
X24890000Y-101870799D01*
X24890000Y-83193178D01*
X25200625Y-82985625D01*
X25528839Y-82494418D01*
X25644092Y-81915000D01*
X25528839Y-81335582D01*
X25200625Y-80844375D01*
X25182381Y-80832184D01*
X25227765Y-80823157D01*
X25437809Y-80682809D01*
X25578157Y-80472765D01*
X25627440Y-80225000D01*
X25627440Y-79145000D01*
X30872560Y-79145000D01*
X30872560Y-82145000D01*
X30921843Y-82392765D01*
X31062191Y-82602809D01*
X31272235Y-82743157D01*
X31520000Y-82792440D01*
X34520000Y-82792440D01*
X34767765Y-82743157D01*
X34977809Y-82602809D01*
X35118157Y-82392765D01*
X35167440Y-82145000D01*
X35167440Y-79145000D01*
X35118157Y-78897235D01*
X34977809Y-78687191D01*
X34767765Y-78546843D01*
X34520000Y-78497560D01*
X31520000Y-78497560D01*
X31272235Y-78546843D01*
X31062191Y-78687191D01*
X30921843Y-78897235D01*
X30872560Y-79145000D01*
X25627440Y-79145000D01*
X25627440Y-78525000D01*
X25578157Y-78277235D01*
X25437809Y-78067191D01*
X25227765Y-77926843D01*
X24980000Y-77877560D01*
X23280000Y-77877560D01*
X23032235Y-77926843D01*
X22822191Y-78067191D01*
X22681843Y-78277235D01*
X22632560Y-78525000D01*
X22632560Y-80225000D01*
X22681843Y-80472765D01*
X22822191Y-80682809D01*
X23032235Y-80823157D01*
X23077619Y-80832184D01*
X23059375Y-80844375D01*
X22731161Y-81335582D01*
X22615908Y-81915000D01*
X22731161Y-82494418D01*
X23059375Y-82985625D01*
X23370001Y-83193179D01*
X23370000Y-102110753D01*
X23355112Y-102185600D01*
X23370000Y-102260447D01*
X23370000Y-102260451D01*
X23414096Y-102482136D01*
X23582071Y-102733529D01*
X23645530Y-102775931D01*
X32689394Y-111819796D01*
X32314991Y-111974879D01*
X31964879Y-112324991D01*
X31775400Y-112782434D01*
X31775400Y-113277566D01*
X31964879Y-113735009D01*
X32314991Y-114085121D01*
X32772434Y-114274600D01*
X33267566Y-114274600D01*
X33396561Y-114221169D01*
X33420296Y-114244904D01*
X33193877Y-114295600D01*
X33032626Y-114763739D01*
X33062800Y-115257952D01*
X33193877Y-115574400D01*
X33420296Y-115625096D01*
X33393206Y-115652186D01*
X33191261Y-115582626D01*
X32697048Y-115612800D01*
X32380600Y-115743877D01*
X32329903Y-115970298D01*
X33020000Y-116660395D01*
X33034143Y-116646253D01*
X33213748Y-116825858D01*
X33199605Y-116840000D01*
X33889702Y-117530097D01*
X34116123Y-117479400D01*
X34277374Y-117011261D01*
X34247200Y-116517048D01*
X34116123Y-116200600D01*
X33889704Y-116149904D01*
X33916794Y-116122814D01*
X34118739Y-116192374D01*
X34612952Y-116162200D01*
X34676337Y-116135945D01*
X34690296Y-116149904D01*
X34463877Y-116200600D01*
X34302626Y-116668739D01*
X34332800Y-117162952D01*
X34463877Y-117479400D01*
X34690298Y-117530097D01*
X35380395Y-116840000D01*
X35366253Y-116825858D01*
X35545858Y-116646253D01*
X35560000Y-116660395D01*
X35574143Y-116646253D01*
X35753748Y-116825858D01*
X35739605Y-116840000D01*
X36429702Y-117530097D01*
X36656123Y-117479400D01*
X36817374Y-117011261D01*
X36787200Y-116517048D01*
X36656123Y-116200600D01*
X36429704Y-116149904D01*
X36456794Y-116122814D01*
X36658739Y-116192374D01*
X37152952Y-116162200D01*
X37216337Y-116135945D01*
X37230296Y-116149904D01*
X37003877Y-116200600D01*
X36842626Y-116668739D01*
X36872800Y-117162952D01*
X37003877Y-117479400D01*
X37230298Y-117530097D01*
X37920395Y-116840000D01*
X37906253Y-116825858D01*
X38085858Y-116646253D01*
X38100000Y-116660395D01*
X38114143Y-116646253D01*
X38293748Y-116825858D01*
X38279605Y-116840000D01*
X38969702Y-117530097D01*
X39196123Y-117479400D01*
X39357374Y-117011261D01*
X39327200Y-116517048D01*
X39196123Y-116200600D01*
X38969704Y-116149904D01*
X38993439Y-116126169D01*
X39122434Y-116179600D01*
X39566401Y-116179600D01*
X39395400Y-116592434D01*
X39395400Y-117087566D01*
X39584879Y-117545009D01*
X39934991Y-117895121D01*
X40392434Y-118084600D01*
X40887566Y-118084600D01*
X41345009Y-117895121D01*
X41600214Y-117639916D01*
X42548971Y-118588673D01*
X42591371Y-118652129D01*
X42842763Y-118820104D01*
X43064448Y-118864200D01*
X43064452Y-118864200D01*
X43139300Y-118879088D01*
X43214148Y-118864200D01*
X58309053Y-118864200D01*
X58383900Y-118879088D01*
X58458747Y-118864200D01*
X58458752Y-118864200D01*
X58680437Y-118820104D01*
X58931829Y-118652129D01*
X58974231Y-118588670D01*
X59775973Y-117786929D01*
X59839429Y-117744529D01*
X59945561Y-117585691D01*
X60254991Y-117895121D01*
X60712434Y-118084600D01*
X61207566Y-118084600D01*
X61665009Y-117895121D01*
X62015121Y-117545009D01*
X62204600Y-117087566D01*
X62204600Y-116592434D01*
X62033599Y-116179600D01*
X62426401Y-116179600D01*
X62255400Y-116592434D01*
X62255400Y-117087566D01*
X62444879Y-117545009D01*
X62794991Y-117895121D01*
X63252434Y-118084600D01*
X63747566Y-118084600D01*
X64205009Y-117895121D01*
X64555121Y-117545009D01*
X64744600Y-117087566D01*
X64744600Y-116592434D01*
X64573599Y-116179600D01*
X64966401Y-116179600D01*
X64795400Y-116592434D01*
X64795400Y-117087566D01*
X64984879Y-117545009D01*
X65334991Y-117895121D01*
X65792434Y-118084600D01*
X66287566Y-118084600D01*
X66745009Y-117895121D01*
X67095121Y-117545009D01*
X67284600Y-117087566D01*
X67284600Y-116592434D01*
X67113599Y-116179600D01*
X67506401Y-116179600D01*
X67335400Y-116592434D01*
X67335400Y-117087566D01*
X67524879Y-117545009D01*
X67874991Y-117895121D01*
X68332434Y-118084600D01*
X68827566Y-118084600D01*
X69285009Y-117895121D01*
X69571364Y-117608766D01*
X70194971Y-118232373D01*
X70237371Y-118295829D01*
X70488763Y-118463804D01*
X70710448Y-118507900D01*
X70710452Y-118507900D01*
X70785299Y-118522788D01*
X70860146Y-118507900D01*
X71363453Y-118507900D01*
X71438300Y-118522788D01*
X71513147Y-118507900D01*
X71513152Y-118507900D01*
X71734837Y-118463804D01*
X71986229Y-118295829D01*
X72028631Y-118232371D01*
X72660436Y-117600566D01*
X72954991Y-117895121D01*
X73412434Y-118084600D01*
X73907566Y-118084600D01*
X74365009Y-117895121D01*
X74715121Y-117545009D01*
X74904600Y-117087566D01*
X74904600Y-116592434D01*
X74733599Y-116179600D01*
X75126401Y-116179600D01*
X74955400Y-116592434D01*
X74955400Y-117087566D01*
X75144879Y-117545009D01*
X75494991Y-117895121D01*
X75952434Y-118084600D01*
X76447566Y-118084600D01*
X76905009Y-117895121D01*
X77255121Y-117545009D01*
X77444600Y-117087566D01*
X77444600Y-116592434D01*
X77273599Y-116179600D01*
X77666401Y-116179600D01*
X77495400Y-116592434D01*
X77495400Y-117087566D01*
X77684879Y-117545009D01*
X78034991Y-117895121D01*
X78492434Y-118084600D01*
X78987566Y-118084600D01*
X79445009Y-117895121D01*
X79743164Y-117596966D01*
X81411198Y-119265000D01*
X20735000Y-119265000D01*
X20735000Y-118467622D01*
X25856983Y-118467622D01*
X26035967Y-118802738D01*
X26883674Y-119138972D01*
X27795524Y-119125207D01*
X28574033Y-118802738D01*
X28753017Y-118467622D01*
X27305000Y-117019605D01*
X25856983Y-118467622D01*
X20735000Y-118467622D01*
X20735000Y-116418674D01*
X25006028Y-116418674D01*
X25019793Y-117330524D01*
X25342262Y-118109033D01*
X25677378Y-118288017D01*
X27125395Y-116840000D01*
X27484605Y-116840000D01*
X28932622Y-118288017D01*
X29267738Y-118109033D01*
X29426128Y-117709702D01*
X32329903Y-117709702D01*
X32380600Y-117936123D01*
X32848739Y-118097374D01*
X33342952Y-118067200D01*
X33659400Y-117936123D01*
X33710097Y-117709702D01*
X34869903Y-117709702D01*
X34920600Y-117936123D01*
X35388739Y-118097374D01*
X35882952Y-118067200D01*
X36199400Y-117936123D01*
X36250097Y-117709702D01*
X37409903Y-117709702D01*
X37460600Y-117936123D01*
X37928739Y-118097374D01*
X38422952Y-118067200D01*
X38739400Y-117936123D01*
X38790097Y-117709702D01*
X38100000Y-117019605D01*
X37409903Y-117709702D01*
X36250097Y-117709702D01*
X35560000Y-117019605D01*
X34869903Y-117709702D01*
X33710097Y-117709702D01*
X33020000Y-117019605D01*
X32329903Y-117709702D01*
X29426128Y-117709702D01*
X29603972Y-117261326D01*
X29595027Y-116668739D01*
X31762626Y-116668739D01*
X31792800Y-117162952D01*
X31923877Y-117479400D01*
X32150298Y-117530097D01*
X32840395Y-116840000D01*
X32150298Y-116149903D01*
X31923877Y-116200600D01*
X31762626Y-116668739D01*
X29595027Y-116668739D01*
X29590207Y-116349476D01*
X29267738Y-115570967D01*
X28932622Y-115391983D01*
X27484605Y-116840000D01*
X27125395Y-116840000D01*
X25677378Y-115391983D01*
X25342262Y-115570967D01*
X25006028Y-116418674D01*
X20735000Y-116418674D01*
X20735000Y-115212378D01*
X25856983Y-115212378D01*
X27305000Y-116660395D01*
X28753017Y-115212378D01*
X28574033Y-114877262D01*
X27726326Y-114541028D01*
X26814476Y-114554793D01*
X26035967Y-114877262D01*
X25856983Y-115212378D01*
X20735000Y-115212378D01*
X20735000Y-61668970D01*
X31685635Y-61668970D01*
X31845418Y-61987739D01*
X32636187Y-62297723D01*
X33485387Y-62281497D01*
X34194582Y-61987739D01*
X34354365Y-61668970D01*
X33020000Y-60334605D01*
X31685635Y-61668970D01*
X20735000Y-61668970D01*
X20735000Y-59771187D01*
X30877277Y-59771187D01*
X30893503Y-60620387D01*
X31187261Y-61329582D01*
X31506030Y-61489365D01*
X32840395Y-60155000D01*
X33199605Y-60155000D01*
X34533970Y-61489365D01*
X34852739Y-61329582D01*
X35162723Y-60538813D01*
X35146497Y-59689613D01*
X34852739Y-58980418D01*
X34533970Y-58820635D01*
X33199605Y-60155000D01*
X32840395Y-60155000D01*
X31506030Y-58820635D01*
X31187261Y-58980418D01*
X30877277Y-59771187D01*
X20735000Y-59771187D01*
X20735000Y-58641030D01*
X31685635Y-58641030D01*
X33020000Y-59975395D01*
X34354365Y-58641030D01*
X34194582Y-58322261D01*
X33403813Y-58012277D01*
X32554613Y-58028503D01*
X31845418Y-58322261D01*
X31685635Y-58641030D01*
X20735000Y-58641030D01*
X20735000Y-44920000D01*
X30302560Y-44920000D01*
X30302560Y-46520000D01*
X30351843Y-46767765D01*
X30492191Y-46977809D01*
X30702235Y-47118157D01*
X30950000Y-47167440D01*
X32550000Y-47167440D01*
X32797765Y-47118157D01*
X33007809Y-46977809D01*
X33148157Y-46767765D01*
X33156117Y-46727745D01*
X38541861Y-46727745D01*
X38615995Y-46973864D01*
X39153223Y-47166965D01*
X39723454Y-47139778D01*
X40124005Y-46973864D01*
X40198139Y-46727745D01*
X39370000Y-45899605D01*
X38541861Y-46727745D01*
X33156117Y-46727745D01*
X33197440Y-46520000D01*
X33197440Y-45503223D01*
X37923035Y-45503223D01*
X37950222Y-46073454D01*
X38116136Y-46474005D01*
X38362255Y-46548139D01*
X39190395Y-45720000D01*
X39549605Y-45720000D01*
X40377745Y-46548139D01*
X40623864Y-46474005D01*
X40816965Y-45936777D01*
X40789778Y-45366546D01*
X40623864Y-44965995D01*
X40377745Y-44891861D01*
X39549605Y-45720000D01*
X39190395Y-45720000D01*
X38362255Y-44891861D01*
X38116136Y-44965995D01*
X37923035Y-45503223D01*
X33197440Y-45503223D01*
X33197440Y-44920000D01*
X33156118Y-44712255D01*
X38541861Y-44712255D01*
X39370000Y-45540395D01*
X40198139Y-44712255D01*
X40124005Y-44466136D01*
X39586777Y-44273035D01*
X39016546Y-44300222D01*
X38615995Y-44466136D01*
X38541861Y-44712255D01*
X33156118Y-44712255D01*
X33148157Y-44672235D01*
X33007809Y-44462191D01*
X32797765Y-44321843D01*
X32550000Y-44272560D01*
X30950000Y-44272560D01*
X30702235Y-44321843D01*
X30492191Y-44462191D01*
X30351843Y-44672235D01*
X30302560Y-44920000D01*
X20735000Y-44920000D01*
X20735000Y-37814561D01*
X30315000Y-37814561D01*
X30315000Y-38385439D01*
X30533466Y-38912862D01*
X30937138Y-39316534D01*
X31464561Y-39535000D01*
X32035439Y-39535000D01*
X32562862Y-39316534D01*
X32966534Y-38912862D01*
X33185000Y-38385439D01*
X33185000Y-37814561D01*
X37935000Y-37814561D01*
X37935000Y-38385439D01*
X38153466Y-38912862D01*
X38557138Y-39316534D01*
X39084561Y-39535000D01*
X39655439Y-39535000D01*
X40182862Y-39316534D01*
X40586534Y-38912862D01*
X40805000Y-38385439D01*
X40805000Y-37814561D01*
X40586534Y-37287138D01*
X40182862Y-36883466D01*
X39655439Y-36665000D01*
X39084561Y-36665000D01*
X38557138Y-36883466D01*
X38153466Y-37287138D01*
X37935000Y-37814561D01*
X33185000Y-37814561D01*
X32966534Y-37287138D01*
X32562862Y-36883466D01*
X32035439Y-36665000D01*
X31464561Y-36665000D01*
X30937138Y-36883466D01*
X30533466Y-37287138D01*
X30315000Y-37814561D01*
X20735000Y-37814561D01*
X20735000Y-20735000D01*
X119265000Y-20735000D01*
X119265001Y-119265000D01*
G36*
X37023748Y-114920858D02*
X37009605Y-114935000D01*
X37023748Y-114949143D01*
X36844143Y-115128748D01*
X36830000Y-115114605D01*
X36815858Y-115128748D01*
X36636253Y-114949143D01*
X36650395Y-114935000D01*
X36636253Y-114920858D01*
X36815858Y-114741253D01*
X36830000Y-114755395D01*
X36844143Y-114741253D01*
X37023748Y-114920858D01*
X37023748Y-114920858D01*
G37*
X37023748Y-114920858D02*
X37009605Y-114935000D01*
X37023748Y-114949143D01*
X36844143Y-115128748D01*
X36830000Y-115114605D01*
X36815858Y-115128748D01*
X36636253Y-114949143D01*
X36650395Y-114935000D01*
X36636253Y-114920858D01*
X36815858Y-114741253D01*
X36830000Y-114755395D01*
X36844143Y-114741253D01*
X37023748Y-114920858D01*
G36*
X34483748Y-114920858D02*
X34469605Y-114935000D01*
X34483748Y-114949143D01*
X34304143Y-115128748D01*
X34290000Y-115114605D01*
X34275858Y-115128748D01*
X34096253Y-114949143D01*
X34110395Y-114935000D01*
X34096253Y-114920858D01*
X34275858Y-114741253D01*
X34290000Y-114755395D01*
X34304143Y-114741253D01*
X34483748Y-114920858D01*
X34483748Y-114920858D01*
G37*
X34483748Y-114920858D02*
X34469605Y-114935000D01*
X34483748Y-114949143D01*
X34304143Y-115128748D01*
X34290000Y-115114605D01*
X34275858Y-115128748D01*
X34096253Y-114949143D01*
X34110395Y-114935000D01*
X34096253Y-114920858D01*
X34275858Y-114741253D01*
X34290000Y-114755395D01*
X34304143Y-114741253D01*
X34483748Y-114920858D01*
G36*
X106873748Y-113015858D02*
X106859605Y-113030000D01*
X106873748Y-113044143D01*
X106694143Y-113223748D01*
X106680000Y-113209605D01*
X106665858Y-113223748D01*
X106486253Y-113044143D01*
X106500395Y-113030000D01*
X106486253Y-113015858D01*
X106665858Y-112836253D01*
X106680000Y-112850395D01*
X106694143Y-112836253D01*
X106873748Y-113015858D01*
X106873748Y-113015858D01*
G37*
X106873748Y-113015858D02*
X106859605Y-113030000D01*
X106873748Y-113044143D01*
X106694143Y-113223748D01*
X106680000Y-113209605D01*
X106665858Y-113223748D01*
X106486253Y-113044143D01*
X106500395Y-113030000D01*
X106486253Y-113015858D01*
X106665858Y-112836253D01*
X106680000Y-112850395D01*
X106694143Y-112836253D01*
X106873748Y-113015858D01*
G36*
X104333748Y-113015858D02*
X104319605Y-113030000D01*
X104333748Y-113044143D01*
X104154143Y-113223748D01*
X104140000Y-113209605D01*
X104125858Y-113223748D01*
X103946253Y-113044143D01*
X103960395Y-113030000D01*
X103946253Y-113015858D01*
X104125858Y-112836253D01*
X104140000Y-112850395D01*
X104154143Y-112836253D01*
X104333748Y-113015858D01*
X104333748Y-113015858D01*
G37*
X104333748Y-113015858D02*
X104319605Y-113030000D01*
X104333748Y-113044143D01*
X104154143Y-113223748D01*
X104140000Y-113209605D01*
X104125858Y-113223748D01*
X103946253Y-113044143D01*
X103960395Y-113030000D01*
X103946253Y-113015858D01*
X104125858Y-112836253D01*
X104140000Y-112850395D01*
X104154143Y-112836253D01*
X104333748Y-113015858D01*
G36*
X77028748Y-76820858D02*
X77014605Y-76835000D01*
X77028748Y-76849143D01*
X76849143Y-77028748D01*
X76835000Y-77014605D01*
X76820858Y-77028748D01*
X76641253Y-76849143D01*
X76655395Y-76835000D01*
X76641253Y-76820858D01*
X76820858Y-76641253D01*
X76835000Y-76655395D01*
X76849143Y-76641253D01*
X77028748Y-76820858D01*
X77028748Y-76820858D01*
G37*
X77028748Y-76820858D02*
X77014605Y-76835000D01*
X77028748Y-76849143D01*
X76849143Y-77028748D01*
X76835000Y-77014605D01*
X76820858Y-77028748D01*
X76641253Y-76849143D01*
X76655395Y-76835000D01*
X76641253Y-76820858D01*
X76820858Y-76641253D01*
X76835000Y-76655395D01*
X76849143Y-76641253D01*
X77028748Y-76820858D01*
G36*
X58559513Y-67430367D02*
X58923844Y-67794698D01*
X58930000Y-67825647D01*
X58930000Y-67825651D01*
X58974096Y-68047336D01*
X58984998Y-68063651D01*
X58934633Y-68084513D01*
X58559513Y-68459633D01*
X58356500Y-68949750D01*
X58356500Y-69480250D01*
X58559513Y-69970367D01*
X58934633Y-70345487D01*
X59271447Y-70485000D01*
X58934633Y-70624513D01*
X58559513Y-70999633D01*
X58356500Y-71489750D01*
X58356500Y-72020250D01*
X58559513Y-72510367D01*
X58934633Y-72885487D01*
X59255211Y-73018275D01*
X58997071Y-73125200D01*
X58935417Y-73360812D01*
X59690000Y-74115395D01*
X59704143Y-74101253D01*
X59883200Y-74280310D01*
X59883200Y-74281405D01*
X59869605Y-74295000D01*
X59883200Y-74308595D01*
X59883200Y-74309690D01*
X59704143Y-74488748D01*
X59690000Y-74474605D01*
X59639090Y-74525515D01*
X59616563Y-74529996D01*
X59365171Y-74697971D01*
X59322771Y-74761427D01*
X58142526Y-75941672D01*
X57905367Y-75704513D01*
X57568553Y-75565000D01*
X57905367Y-75425487D01*
X58280487Y-75050367D01*
X58413275Y-74729789D01*
X58520200Y-74987929D01*
X58755812Y-75049583D01*
X59510395Y-74295000D01*
X58755812Y-73540417D01*
X58520200Y-73602071D01*
X58421962Y-73881184D01*
X58280487Y-73539633D01*
X57905367Y-73164513D01*
X57415250Y-72961500D01*
X56884750Y-72961500D01*
X56394633Y-73164513D01*
X56019513Y-73539633D01*
X55886725Y-73860211D01*
X55779800Y-73602071D01*
X55544188Y-73540417D01*
X54789605Y-74295000D01*
X54803748Y-74309143D01*
X54624143Y-74488748D01*
X54610000Y-74474605D01*
X54595858Y-74488748D01*
X54416253Y-74309143D01*
X54430395Y-74295000D01*
X54416253Y-74280858D01*
X54595858Y-74101253D01*
X54610000Y-74115395D01*
X55364583Y-73360812D01*
X55329969Y-73228533D01*
X55892783Y-72665719D01*
X56192826Y-72790000D01*
X56604574Y-72790000D01*
X56984980Y-72632431D01*
X57276131Y-72341280D01*
X57433700Y-71960874D01*
X57433700Y-71549126D01*
X57276131Y-71168720D01*
X56984980Y-70877569D01*
X56682376Y-70752226D01*
X56683573Y-70751029D01*
X56747029Y-70708629D01*
X56915004Y-70457237D01*
X56959100Y-70235552D01*
X56959100Y-70235548D01*
X56973988Y-70160700D01*
X56959100Y-70085852D01*
X56959100Y-68020940D01*
X57848500Y-68020940D01*
X58096265Y-67971657D01*
X58306309Y-67831309D01*
X58446657Y-67621265D01*
X58495940Y-67373500D01*
X58495940Y-67276888D01*
X58559513Y-67430367D01*
X58559513Y-67430367D01*
G37*
X58559513Y-67430367D02*
X58923844Y-67794698D01*
X58930000Y-67825647D01*
X58930000Y-67825651D01*
X58974096Y-68047336D01*
X58984998Y-68063651D01*
X58934633Y-68084513D01*
X58559513Y-68459633D01*
X58356500Y-68949750D01*
X58356500Y-69480250D01*
X58559513Y-69970367D01*
X58934633Y-70345487D01*
X59271447Y-70485000D01*
X58934633Y-70624513D01*
X58559513Y-70999633D01*
X58356500Y-71489750D01*
X58356500Y-72020250D01*
X58559513Y-72510367D01*
X58934633Y-72885487D01*
X59255211Y-73018275D01*
X58997071Y-73125200D01*
X58935417Y-73360812D01*
X59690000Y-74115395D01*
X59704143Y-74101253D01*
X59883200Y-74280310D01*
X59883200Y-74281405D01*
X59869605Y-74295000D01*
X59883200Y-74308595D01*
X59883200Y-74309690D01*
X59704143Y-74488748D01*
X59690000Y-74474605D01*
X59639090Y-74525515D01*
X59616563Y-74529996D01*
X59365171Y-74697971D01*
X59322771Y-74761427D01*
X58142526Y-75941672D01*
X57905367Y-75704513D01*
X57568553Y-75565000D01*
X57905367Y-75425487D01*
X58280487Y-75050367D01*
X58413275Y-74729789D01*
X58520200Y-74987929D01*
X58755812Y-75049583D01*
X59510395Y-74295000D01*
X58755812Y-73540417D01*
X58520200Y-73602071D01*
X58421962Y-73881184D01*
X58280487Y-73539633D01*
X57905367Y-73164513D01*
X57415250Y-72961500D01*
X56884750Y-72961500D01*
X56394633Y-73164513D01*
X56019513Y-73539633D01*
X55886725Y-73860211D01*
X55779800Y-73602071D01*
X55544188Y-73540417D01*
X54789605Y-74295000D01*
X54803748Y-74309143D01*
X54624143Y-74488748D01*
X54610000Y-74474605D01*
X54595858Y-74488748D01*
X54416253Y-74309143D01*
X54430395Y-74295000D01*
X54416253Y-74280858D01*
X54595858Y-74101253D01*
X54610000Y-74115395D01*
X55364583Y-73360812D01*
X55329969Y-73228533D01*
X55892783Y-72665719D01*
X56192826Y-72790000D01*
X56604574Y-72790000D01*
X56984980Y-72632431D01*
X57276131Y-72341280D01*
X57433700Y-71960874D01*
X57433700Y-71549126D01*
X57276131Y-71168720D01*
X56984980Y-70877569D01*
X56682376Y-70752226D01*
X56683573Y-70751029D01*
X56747029Y-70708629D01*
X56915004Y-70457237D01*
X56959100Y-70235552D01*
X56959100Y-70235548D01*
X56973988Y-70160700D01*
X56959100Y-70085852D01*
X56959100Y-68020940D01*
X57848500Y-68020940D01*
X58096265Y-67971657D01*
X58306309Y-67831309D01*
X58446657Y-67621265D01*
X58495940Y-67373500D01*
X58495940Y-67276888D01*
X58559513Y-67430367D01*
G36*
X50969400Y-49335153D02*
X50954512Y-49410000D01*
X50969400Y-49484847D01*
X50969400Y-49484851D01*
X51013496Y-49706536D01*
X51181471Y-49957929D01*
X51244930Y-50000331D01*
X56017901Y-54773303D01*
X56017900Y-62248498D01*
X55714628Y-62551771D01*
X55651172Y-62594171D01*
X55608772Y-62657627D01*
X55608771Y-62657628D01*
X55528188Y-62778229D01*
X55483197Y-62845563D01*
X55442085Y-63052249D01*
X55437276Y-63076422D01*
X55365367Y-63004513D01*
X54875250Y-62801500D01*
X54344750Y-62801500D01*
X53854633Y-63004513D01*
X53479513Y-63379633D01*
X53340000Y-63716447D01*
X53200487Y-63379633D01*
X52825367Y-63004513D01*
X52335250Y-62801500D01*
X51804750Y-62801500D01*
X51314633Y-63004513D01*
X50939513Y-63379633D01*
X50736500Y-63869750D01*
X50736500Y-64400250D01*
X50902068Y-64799966D01*
X46197600Y-60095499D01*
X46197600Y-59340750D01*
X48470000Y-59340750D01*
X48470000Y-59606310D01*
X48566673Y-59839699D01*
X48745302Y-60018327D01*
X48978691Y-60115000D01*
X49244250Y-60115000D01*
X49403000Y-59956250D01*
X49403000Y-59182000D01*
X49657000Y-59182000D01*
X49657000Y-59956250D01*
X49815750Y-60115000D01*
X50081309Y-60115000D01*
X50314698Y-60018327D01*
X50493327Y-59839699D01*
X50590000Y-59606310D01*
X50590000Y-59340750D01*
X50431250Y-59182000D01*
X49657000Y-59182000D01*
X49403000Y-59182000D01*
X48628750Y-59182000D01*
X48470000Y-59340750D01*
X46197600Y-59340750D01*
X46197600Y-58503690D01*
X48470000Y-58503690D01*
X48470000Y-58769250D01*
X48628750Y-58928000D01*
X49403000Y-58928000D01*
X49403000Y-58153750D01*
X49657000Y-58153750D01*
X49657000Y-58928000D01*
X50431250Y-58928000D01*
X50590000Y-58769250D01*
X50590000Y-58503690D01*
X50493327Y-58270301D01*
X50314698Y-58091673D01*
X50081309Y-57995000D01*
X49815750Y-57995000D01*
X49657000Y-58153750D01*
X49403000Y-58153750D01*
X49244250Y-57995000D01*
X48978691Y-57995000D01*
X48745302Y-58091673D01*
X48566673Y-58270301D01*
X48470000Y-58503690D01*
X46197600Y-58503690D01*
X46197600Y-55701434D01*
X53447700Y-55701434D01*
X53447700Y-56152966D01*
X53620493Y-56570126D01*
X53927567Y-56877200D01*
X53620493Y-57184274D01*
X53447700Y-57601434D01*
X53447700Y-58052966D01*
X53620493Y-58470126D01*
X53939774Y-58789407D01*
X54356934Y-58962200D01*
X54808466Y-58962200D01*
X55225626Y-58789407D01*
X55544907Y-58470126D01*
X55717700Y-58052966D01*
X55717700Y-57601434D01*
X55544907Y-57184274D01*
X55237833Y-56877200D01*
X55544907Y-56570126D01*
X55717700Y-56152966D01*
X55717700Y-55701434D01*
X55544907Y-55284274D01*
X55225626Y-54964993D01*
X54808466Y-54792200D01*
X54356934Y-54792200D01*
X53939774Y-54964993D01*
X53620493Y-55284274D01*
X53447700Y-55701434D01*
X46197600Y-55701434D01*
X46197600Y-54895750D01*
X48470000Y-54895750D01*
X48470000Y-55161310D01*
X48566673Y-55394699D01*
X48745302Y-55573327D01*
X48978691Y-55670000D01*
X49244250Y-55670000D01*
X49403000Y-55511250D01*
X49403000Y-54737000D01*
X49657000Y-54737000D01*
X49657000Y-55511250D01*
X49815750Y-55670000D01*
X50081309Y-55670000D01*
X50314698Y-55573327D01*
X50493327Y-55394699D01*
X50590000Y-55161310D01*
X50590000Y-54895750D01*
X50431250Y-54737000D01*
X49657000Y-54737000D01*
X49403000Y-54737000D01*
X48628750Y-54737000D01*
X48470000Y-54895750D01*
X46197600Y-54895750D01*
X46197600Y-54058690D01*
X48470000Y-54058690D01*
X48470000Y-54324250D01*
X48628750Y-54483000D01*
X49403000Y-54483000D01*
X49403000Y-53708750D01*
X49657000Y-53708750D01*
X49657000Y-54483000D01*
X50431250Y-54483000D01*
X50590000Y-54324250D01*
X50590000Y-54058690D01*
X50493327Y-53825301D01*
X50314698Y-53646673D01*
X50081309Y-53550000D01*
X49815750Y-53550000D01*
X49657000Y-53708750D01*
X49403000Y-53708750D01*
X49244250Y-53550000D01*
X48978691Y-53550000D01*
X48745302Y-53646673D01*
X48566673Y-53825301D01*
X48470000Y-54058690D01*
X46197600Y-54058690D01*
X46197600Y-53200001D01*
X50969401Y-48428201D01*
X50969400Y-49335153D01*
X50969400Y-49335153D01*
G37*
X50969400Y-49335153D02*
X50954512Y-49410000D01*
X50969400Y-49484847D01*
X50969400Y-49484851D01*
X51013496Y-49706536D01*
X51181471Y-49957929D01*
X51244930Y-50000331D01*
X56017901Y-54773303D01*
X56017900Y-62248498D01*
X55714628Y-62551771D01*
X55651172Y-62594171D01*
X55608772Y-62657627D01*
X55608771Y-62657628D01*
X55528188Y-62778229D01*
X55483197Y-62845563D01*
X55442085Y-63052249D01*
X55437276Y-63076422D01*
X55365367Y-63004513D01*
X54875250Y-62801500D01*
X54344750Y-62801500D01*
X53854633Y-63004513D01*
X53479513Y-63379633D01*
X53340000Y-63716447D01*
X53200487Y-63379633D01*
X52825367Y-63004513D01*
X52335250Y-62801500D01*
X51804750Y-62801500D01*
X51314633Y-63004513D01*
X50939513Y-63379633D01*
X50736500Y-63869750D01*
X50736500Y-64400250D01*
X50902068Y-64799966D01*
X46197600Y-60095499D01*
X46197600Y-59340750D01*
X48470000Y-59340750D01*
X48470000Y-59606310D01*
X48566673Y-59839699D01*
X48745302Y-60018327D01*
X48978691Y-60115000D01*
X49244250Y-60115000D01*
X49403000Y-59956250D01*
X49403000Y-59182000D01*
X49657000Y-59182000D01*
X49657000Y-59956250D01*
X49815750Y-60115000D01*
X50081309Y-60115000D01*
X50314698Y-60018327D01*
X50493327Y-59839699D01*
X50590000Y-59606310D01*
X50590000Y-59340750D01*
X50431250Y-59182000D01*
X49657000Y-59182000D01*
X49403000Y-59182000D01*
X48628750Y-59182000D01*
X48470000Y-59340750D01*
X46197600Y-59340750D01*
X46197600Y-58503690D01*
X48470000Y-58503690D01*
X48470000Y-58769250D01*
X48628750Y-58928000D01*
X49403000Y-58928000D01*
X49403000Y-58153750D01*
X49657000Y-58153750D01*
X49657000Y-58928000D01*
X50431250Y-58928000D01*
X50590000Y-58769250D01*
X50590000Y-58503690D01*
X50493327Y-58270301D01*
X50314698Y-58091673D01*
X50081309Y-57995000D01*
X49815750Y-57995000D01*
X49657000Y-58153750D01*
X49403000Y-58153750D01*
X49244250Y-57995000D01*
X48978691Y-57995000D01*
X48745302Y-58091673D01*
X48566673Y-58270301D01*
X48470000Y-58503690D01*
X46197600Y-58503690D01*
X46197600Y-55701434D01*
X53447700Y-55701434D01*
X53447700Y-56152966D01*
X53620493Y-56570126D01*
X53927567Y-56877200D01*
X53620493Y-57184274D01*
X53447700Y-57601434D01*
X53447700Y-58052966D01*
X53620493Y-58470126D01*
X53939774Y-58789407D01*
X54356934Y-58962200D01*
X54808466Y-58962200D01*
X55225626Y-58789407D01*
X55544907Y-58470126D01*
X55717700Y-58052966D01*
X55717700Y-57601434D01*
X55544907Y-57184274D01*
X55237833Y-56877200D01*
X55544907Y-56570126D01*
X55717700Y-56152966D01*
X55717700Y-55701434D01*
X55544907Y-55284274D01*
X55225626Y-54964993D01*
X54808466Y-54792200D01*
X54356934Y-54792200D01*
X53939774Y-54964993D01*
X53620493Y-55284274D01*
X53447700Y-55701434D01*
X46197600Y-55701434D01*
X46197600Y-54895750D01*
X48470000Y-54895750D01*
X48470000Y-55161310D01*
X48566673Y-55394699D01*
X48745302Y-55573327D01*
X48978691Y-55670000D01*
X49244250Y-55670000D01*
X49403000Y-55511250D01*
X49403000Y-54737000D01*
X49657000Y-54737000D01*
X49657000Y-55511250D01*
X49815750Y-55670000D01*
X50081309Y-55670000D01*
X50314698Y-55573327D01*
X50493327Y-55394699D01*
X50590000Y-55161310D01*
X50590000Y-54895750D01*
X50431250Y-54737000D01*
X49657000Y-54737000D01*
X49403000Y-54737000D01*
X48628750Y-54737000D01*
X48470000Y-54895750D01*
X46197600Y-54895750D01*
X46197600Y-54058690D01*
X48470000Y-54058690D01*
X48470000Y-54324250D01*
X48628750Y-54483000D01*
X49403000Y-54483000D01*
X49403000Y-53708750D01*
X49657000Y-53708750D01*
X49657000Y-54483000D01*
X50431250Y-54483000D01*
X50590000Y-54324250D01*
X50590000Y-54058690D01*
X50493327Y-53825301D01*
X50314698Y-53646673D01*
X50081309Y-53550000D01*
X49815750Y-53550000D01*
X49657000Y-53708750D01*
X49403000Y-53708750D01*
X49244250Y-53550000D01*
X48978691Y-53550000D01*
X48745302Y-53646673D01*
X48566673Y-53825301D01*
X48470000Y-54058690D01*
X46197600Y-54058690D01*
X46197600Y-53200001D01*
X50969401Y-48428201D01*
X50969400Y-49335153D01*
G36*
X56856122Y-47303024D02*
X56654513Y-47504633D01*
X56521725Y-47825211D01*
X56414800Y-47567071D01*
X56179188Y-47505417D01*
X55424605Y-48260000D01*
X56179188Y-49014583D01*
X56414800Y-48952929D01*
X56513038Y-48673816D01*
X56654513Y-49015367D01*
X57029633Y-49390487D01*
X57519750Y-49593500D01*
X58043699Y-49593500D01*
X60136400Y-51686202D01*
X60136401Y-62876535D01*
X59955250Y-62801500D01*
X59424750Y-62801500D01*
X58934633Y-63004513D01*
X58559513Y-63379633D01*
X58451300Y-63640882D01*
X58451300Y-53732871D01*
X58471086Y-53633400D01*
X58451300Y-53533929D01*
X58451300Y-53533924D01*
X58392699Y-53239318D01*
X58288251Y-53083000D01*
X58225818Y-52989562D01*
X58225816Y-52989560D01*
X58169469Y-52905231D01*
X58085140Y-52848884D01*
X54944600Y-49708345D01*
X54944600Y-49567957D01*
X55052480Y-49605927D01*
X55582199Y-49577148D01*
X55937929Y-49429800D01*
X55999583Y-49194188D01*
X55245000Y-48439605D01*
X55230858Y-48453748D01*
X55051253Y-48274143D01*
X55065395Y-48260000D01*
X55051253Y-48245858D01*
X55230858Y-48066253D01*
X55245000Y-48080395D01*
X55999583Y-47325812D01*
X55937929Y-47090200D01*
X55658816Y-46991962D01*
X56000367Y-46850487D01*
X56201976Y-46648878D01*
X56856122Y-47303024D01*
X56856122Y-47303024D01*
G37*
X56856122Y-47303024D02*
X56654513Y-47504633D01*
X56521725Y-47825211D01*
X56414800Y-47567071D01*
X56179188Y-47505417D01*
X55424605Y-48260000D01*
X56179188Y-49014583D01*
X56414800Y-48952929D01*
X56513038Y-48673816D01*
X56654513Y-49015367D01*
X57029633Y-49390487D01*
X57519750Y-49593500D01*
X58043699Y-49593500D01*
X60136400Y-51686202D01*
X60136401Y-62876535D01*
X59955250Y-62801500D01*
X59424750Y-62801500D01*
X58934633Y-63004513D01*
X58559513Y-63379633D01*
X58451300Y-63640882D01*
X58451300Y-53732871D01*
X58471086Y-53633400D01*
X58451300Y-53533929D01*
X58451300Y-53533924D01*
X58392699Y-53239318D01*
X58288251Y-53083000D01*
X58225818Y-52989562D01*
X58225816Y-52989560D01*
X58169469Y-52905231D01*
X58085140Y-52848884D01*
X54944600Y-49708345D01*
X54944600Y-49567957D01*
X55052480Y-49605927D01*
X55582199Y-49577148D01*
X55937929Y-49429800D01*
X55999583Y-49194188D01*
X55245000Y-48439605D01*
X55230858Y-48453748D01*
X55051253Y-48274143D01*
X55065395Y-48260000D01*
X55051253Y-48245858D01*
X55230858Y-48066253D01*
X55245000Y-48080395D01*
X55999583Y-47325812D01*
X55937929Y-47090200D01*
X55658816Y-46991962D01*
X56000367Y-46850487D01*
X56201976Y-46648878D01*
X56856122Y-47303024D01*
G36*
X73164513Y-38855367D02*
X73539633Y-39230487D01*
X73860211Y-39363275D01*
X73602071Y-39470200D01*
X73540417Y-39705812D01*
X74295000Y-40460395D01*
X75049583Y-39705812D01*
X74987929Y-39470200D01*
X74708816Y-39371962D01*
X75050367Y-39230487D01*
X75277226Y-39003628D01*
X76313270Y-40039672D01*
X76355671Y-40103129D01*
X76419127Y-40145529D01*
X76607062Y-40271104D01*
X76643682Y-40278388D01*
X76828748Y-40315200D01*
X76828752Y-40315200D01*
X76903600Y-40330088D01*
X76978448Y-40315200D01*
X80606166Y-40315200D01*
X80581500Y-40374750D01*
X80581500Y-40905250D01*
X80784513Y-41395367D01*
X81159633Y-41770487D01*
X81480211Y-41903275D01*
X81222071Y-42010200D01*
X81160417Y-42245812D01*
X81915000Y-43000395D01*
X81929143Y-42986253D01*
X82108748Y-43165858D01*
X82094605Y-43180000D01*
X82108748Y-43194143D01*
X81929143Y-43373748D01*
X81915000Y-43359605D01*
X81624373Y-43650232D01*
X81379171Y-43814071D01*
X81336771Y-43877527D01*
X80377576Y-44836722D01*
X80130367Y-44589513D01*
X79640250Y-44386500D01*
X79109750Y-44386500D01*
X78619633Y-44589513D01*
X78244513Y-44964633D01*
X78111725Y-45285211D01*
X78004800Y-45027071D01*
X77769188Y-44965417D01*
X77014605Y-45720000D01*
X77769188Y-46474583D01*
X78004800Y-46412929D01*
X78103038Y-46133816D01*
X78244513Y-46475367D01*
X78619633Y-46850487D01*
X78956447Y-46990000D01*
X78619633Y-47129513D01*
X78244513Y-47504633D01*
X78111725Y-47825211D01*
X78004800Y-47567071D01*
X77769188Y-47505417D01*
X77014605Y-48260000D01*
X77769188Y-49014583D01*
X78004800Y-48952929D01*
X78103038Y-48673816D01*
X78244513Y-49015367D01*
X78619633Y-49390487D01*
X79109750Y-49593500D01*
X79640250Y-49593500D01*
X79769901Y-49539797D01*
X79769901Y-51146698D01*
X79649929Y-51266669D01*
X79586471Y-51309071D01*
X79418496Y-51560464D01*
X79374400Y-51782149D01*
X79374400Y-51782153D01*
X79359512Y-51857000D01*
X79374400Y-51931847D01*
X79374401Y-53285249D01*
X79359512Y-53360100D01*
X79418497Y-53656637D01*
X79478400Y-53746288D01*
X79478401Y-59316399D01*
X76617200Y-56455199D01*
X76617200Y-49597029D01*
X76642480Y-49605927D01*
X77172199Y-49577148D01*
X77527929Y-49429800D01*
X77589583Y-49194188D01*
X76835000Y-48439605D01*
X76820858Y-48453748D01*
X76641253Y-48274143D01*
X76655395Y-48260000D01*
X76575449Y-48180054D01*
X76573104Y-48168263D01*
X76405129Y-47916871D01*
X76341673Y-47874471D01*
X75261131Y-46793930D01*
X75218729Y-46730471D01*
X75189748Y-46711106D01*
X75246666Y-46654188D01*
X76080417Y-46654188D01*
X76142071Y-46889800D01*
X76403629Y-46981859D01*
X76142071Y-47090200D01*
X76080417Y-47325812D01*
X76835000Y-48080395D01*
X77589583Y-47325812D01*
X77527929Y-47090200D01*
X77266371Y-46998141D01*
X77527929Y-46889800D01*
X77589583Y-46654188D01*
X76835000Y-45899605D01*
X76080417Y-46654188D01*
X75246666Y-46654188D01*
X75425487Y-46475367D01*
X75558275Y-46154789D01*
X75665200Y-46412929D01*
X75900812Y-46474583D01*
X76655395Y-45720000D01*
X75900812Y-44965417D01*
X75665200Y-45027071D01*
X75566962Y-45306184D01*
X75425487Y-44964633D01*
X75246666Y-44785812D01*
X76080417Y-44785812D01*
X76835000Y-45540395D01*
X77589583Y-44785812D01*
X77527929Y-44550200D01*
X77027520Y-44374073D01*
X76497801Y-44402852D01*
X76142071Y-44550200D01*
X76080417Y-44785812D01*
X75246666Y-44785812D01*
X75050367Y-44589513D01*
X74713553Y-44450000D01*
X75050367Y-44310487D01*
X75425487Y-43935367D01*
X75628500Y-43445250D01*
X75628500Y-42987480D01*
X80569073Y-42987480D01*
X80597852Y-43517199D01*
X80745200Y-43872929D01*
X80980812Y-43934583D01*
X81735395Y-43180000D01*
X80980812Y-42425417D01*
X80745200Y-42487071D01*
X80569073Y-42987480D01*
X75628500Y-42987480D01*
X75628500Y-42914750D01*
X75425487Y-42424633D01*
X75050367Y-42049513D01*
X74729789Y-41916725D01*
X74987929Y-41809800D01*
X75049583Y-41574188D01*
X74295000Y-40819605D01*
X73540417Y-41574188D01*
X73602071Y-41809800D01*
X73881184Y-41908038D01*
X73539633Y-42049513D01*
X73164513Y-42424633D01*
X73025000Y-42761447D01*
X72885487Y-42424633D01*
X72510367Y-42049513D01*
X72173553Y-41910000D01*
X72510367Y-41770487D01*
X72885487Y-41395367D01*
X73018275Y-41074789D01*
X73125200Y-41332929D01*
X73360812Y-41394583D01*
X74115395Y-40640000D01*
X74474605Y-40640000D01*
X75229188Y-41394583D01*
X75464800Y-41332929D01*
X75640927Y-40832520D01*
X75612148Y-40302801D01*
X75464800Y-39947071D01*
X75229188Y-39885417D01*
X74474605Y-40640000D01*
X74115395Y-40640000D01*
X73360812Y-39885417D01*
X73125200Y-39947071D01*
X73026962Y-40226184D01*
X72885487Y-39884633D01*
X72510367Y-39509513D01*
X72173553Y-39370000D01*
X72510367Y-39230487D01*
X72885487Y-38855367D01*
X73025000Y-38518553D01*
X73164513Y-38855367D01*
X73164513Y-38855367D01*
G37*
X73164513Y-38855367D02*
X73539633Y-39230487D01*
X73860211Y-39363275D01*
X73602071Y-39470200D01*
X73540417Y-39705812D01*
X74295000Y-40460395D01*
X75049583Y-39705812D01*
X74987929Y-39470200D01*
X74708816Y-39371962D01*
X75050367Y-39230487D01*
X75277226Y-39003628D01*
X76313270Y-40039672D01*
X76355671Y-40103129D01*
X76419127Y-40145529D01*
X76607062Y-40271104D01*
X76643682Y-40278388D01*
X76828748Y-40315200D01*
X76828752Y-40315200D01*
X76903600Y-40330088D01*
X76978448Y-40315200D01*
X80606166Y-40315200D01*
X80581500Y-40374750D01*
X80581500Y-40905250D01*
X80784513Y-41395367D01*
X81159633Y-41770487D01*
X81480211Y-41903275D01*
X81222071Y-42010200D01*
X81160417Y-42245812D01*
X81915000Y-43000395D01*
X81929143Y-42986253D01*
X82108748Y-43165858D01*
X82094605Y-43180000D01*
X82108748Y-43194143D01*
X81929143Y-43373748D01*
X81915000Y-43359605D01*
X81624373Y-43650232D01*
X81379171Y-43814071D01*
X81336771Y-43877527D01*
X80377576Y-44836722D01*
X80130367Y-44589513D01*
X79640250Y-44386500D01*
X79109750Y-44386500D01*
X78619633Y-44589513D01*
X78244513Y-44964633D01*
X78111725Y-45285211D01*
X78004800Y-45027071D01*
X77769188Y-44965417D01*
X77014605Y-45720000D01*
X77769188Y-46474583D01*
X78004800Y-46412929D01*
X78103038Y-46133816D01*
X78244513Y-46475367D01*
X78619633Y-46850487D01*
X78956447Y-46990000D01*
X78619633Y-47129513D01*
X78244513Y-47504633D01*
X78111725Y-47825211D01*
X78004800Y-47567071D01*
X77769188Y-47505417D01*
X77014605Y-48260000D01*
X77769188Y-49014583D01*
X78004800Y-48952929D01*
X78103038Y-48673816D01*
X78244513Y-49015367D01*
X78619633Y-49390487D01*
X79109750Y-49593500D01*
X79640250Y-49593500D01*
X79769901Y-49539797D01*
X79769901Y-51146698D01*
X79649929Y-51266669D01*
X79586471Y-51309071D01*
X79418496Y-51560464D01*
X79374400Y-51782149D01*
X79374400Y-51782153D01*
X79359512Y-51857000D01*
X79374400Y-51931847D01*
X79374401Y-53285249D01*
X79359512Y-53360100D01*
X79418497Y-53656637D01*
X79478400Y-53746288D01*
X79478401Y-59316399D01*
X76617200Y-56455199D01*
X76617200Y-49597029D01*
X76642480Y-49605927D01*
X77172199Y-49577148D01*
X77527929Y-49429800D01*
X77589583Y-49194188D01*
X76835000Y-48439605D01*
X76820858Y-48453748D01*
X76641253Y-48274143D01*
X76655395Y-48260000D01*
X76575449Y-48180054D01*
X76573104Y-48168263D01*
X76405129Y-47916871D01*
X76341673Y-47874471D01*
X75261131Y-46793930D01*
X75218729Y-46730471D01*
X75189748Y-46711106D01*
X75246666Y-46654188D01*
X76080417Y-46654188D01*
X76142071Y-46889800D01*
X76403629Y-46981859D01*
X76142071Y-47090200D01*
X76080417Y-47325812D01*
X76835000Y-48080395D01*
X77589583Y-47325812D01*
X77527929Y-47090200D01*
X77266371Y-46998141D01*
X77527929Y-46889800D01*
X77589583Y-46654188D01*
X76835000Y-45899605D01*
X76080417Y-46654188D01*
X75246666Y-46654188D01*
X75425487Y-46475367D01*
X75558275Y-46154789D01*
X75665200Y-46412929D01*
X75900812Y-46474583D01*
X76655395Y-45720000D01*
X75900812Y-44965417D01*
X75665200Y-45027071D01*
X75566962Y-45306184D01*
X75425487Y-44964633D01*
X75246666Y-44785812D01*
X76080417Y-44785812D01*
X76835000Y-45540395D01*
X77589583Y-44785812D01*
X77527929Y-44550200D01*
X77027520Y-44374073D01*
X76497801Y-44402852D01*
X76142071Y-44550200D01*
X76080417Y-44785812D01*
X75246666Y-44785812D01*
X75050367Y-44589513D01*
X74713553Y-44450000D01*
X75050367Y-44310487D01*
X75425487Y-43935367D01*
X75628500Y-43445250D01*
X75628500Y-42987480D01*
X80569073Y-42987480D01*
X80597852Y-43517199D01*
X80745200Y-43872929D01*
X80980812Y-43934583D01*
X81735395Y-43180000D01*
X80980812Y-42425417D01*
X80745200Y-42487071D01*
X80569073Y-42987480D01*
X75628500Y-42987480D01*
X75628500Y-42914750D01*
X75425487Y-42424633D01*
X75050367Y-42049513D01*
X74729789Y-41916725D01*
X74987929Y-41809800D01*
X75049583Y-41574188D01*
X74295000Y-40819605D01*
X73540417Y-41574188D01*
X73602071Y-41809800D01*
X73881184Y-41908038D01*
X73539633Y-42049513D01*
X73164513Y-42424633D01*
X73025000Y-42761447D01*
X72885487Y-42424633D01*
X72510367Y-42049513D01*
X72173553Y-41910000D01*
X72510367Y-41770487D01*
X72885487Y-41395367D01*
X73018275Y-41074789D01*
X73125200Y-41332929D01*
X73360812Y-41394583D01*
X74115395Y-40640000D01*
X74474605Y-40640000D01*
X75229188Y-41394583D01*
X75464800Y-41332929D01*
X75640927Y-40832520D01*
X75612148Y-40302801D01*
X75464800Y-39947071D01*
X75229188Y-39885417D01*
X74474605Y-40640000D01*
X74115395Y-40640000D01*
X73360812Y-39885417D01*
X73125200Y-39947071D01*
X73026962Y-40226184D01*
X72885487Y-39884633D01*
X72510367Y-39509513D01*
X72173553Y-39370000D01*
X72510367Y-39230487D01*
X72885487Y-38855367D01*
X73025000Y-38518553D01*
X73164513Y-38855367D01*
G36*
X70421500Y-40905250D02*
X70624513Y-41395367D01*
X70999633Y-41770487D01*
X71336447Y-41910000D01*
X70999633Y-42049513D01*
X70624513Y-42424633D01*
X70421500Y-42914750D01*
X70421500Y-43445250D01*
X70624513Y-43935367D01*
X70999633Y-44310487D01*
X71336447Y-44450000D01*
X70999633Y-44589513D01*
X70624513Y-44964633D01*
X70421500Y-45454750D01*
X70421500Y-45985250D01*
X70624513Y-46475367D01*
X70995000Y-46845854D01*
X70995001Y-51228000D01*
X70955100Y-51228000D01*
X70955100Y-51205326D01*
X70797531Y-50824920D01*
X70506380Y-50533769D01*
X70125974Y-50376200D01*
X69714226Y-50376200D01*
X69333820Y-50533769D01*
X69042669Y-50824920D01*
X68885100Y-51205326D01*
X68885100Y-51617074D01*
X69042669Y-51997480D01*
X69055600Y-52010411D01*
X69055601Y-53449648D01*
X69040712Y-53524500D01*
X69055601Y-53599352D01*
X69055949Y-53601103D01*
X69099697Y-53821037D01*
X69211667Y-53988611D01*
X69267672Y-54072429D01*
X69331127Y-54114829D01*
X69560700Y-54344402D01*
X69560700Y-55079429D01*
X69342000Y-55194845D01*
X69342000Y-56388000D01*
X69362000Y-56388000D01*
X69362000Y-56642000D01*
X69342000Y-56642000D01*
X69342000Y-56662000D01*
X69088000Y-56662000D01*
X69088000Y-56642000D01*
X69068000Y-56642000D01*
X69068000Y-56388000D01*
X69088000Y-56388000D01*
X69088000Y-55194845D01*
X68858110Y-55073524D01*
X68571500Y-55192234D01*
X68571500Y-42358301D01*
X70421500Y-40508302D01*
X70421500Y-40905250D01*
X70421500Y-40905250D01*
G37*
X70421500Y-40905250D02*
X70624513Y-41395367D01*
X70999633Y-41770487D01*
X71336447Y-41910000D01*
X70999633Y-42049513D01*
X70624513Y-42424633D01*
X70421500Y-42914750D01*
X70421500Y-43445250D01*
X70624513Y-43935367D01*
X70999633Y-44310487D01*
X71336447Y-44450000D01*
X70999633Y-44589513D01*
X70624513Y-44964633D01*
X70421500Y-45454750D01*
X70421500Y-45985250D01*
X70624513Y-46475367D01*
X70995000Y-46845854D01*
X70995001Y-51228000D01*
X70955100Y-51228000D01*
X70955100Y-51205326D01*
X70797531Y-50824920D01*
X70506380Y-50533769D01*
X70125974Y-50376200D01*
X69714226Y-50376200D01*
X69333820Y-50533769D01*
X69042669Y-50824920D01*
X68885100Y-51205326D01*
X68885100Y-51617074D01*
X69042669Y-51997480D01*
X69055600Y-52010411D01*
X69055601Y-53449648D01*
X69040712Y-53524500D01*
X69055601Y-53599352D01*
X69055949Y-53601103D01*
X69099697Y-53821037D01*
X69211667Y-53988611D01*
X69267672Y-54072429D01*
X69331127Y-54114829D01*
X69560700Y-54344402D01*
X69560700Y-55079429D01*
X69342000Y-55194845D01*
X69342000Y-56388000D01*
X69362000Y-56388000D01*
X69362000Y-56642000D01*
X69342000Y-56642000D01*
X69342000Y-56662000D01*
X69088000Y-56662000D01*
X69088000Y-56642000D01*
X69068000Y-56642000D01*
X69068000Y-56388000D01*
X69088000Y-56388000D01*
X69088000Y-55194845D01*
X68858110Y-55073524D01*
X68571500Y-55192234D01*
X68571500Y-42358301D01*
X70421500Y-40508302D01*
X70421500Y-40905250D01*
G36*
X98292360Y-36887061D02*
X98025423Y-37065423D01*
X97790000Y-37417758D01*
X97554577Y-37065423D01*
X97079909Y-36748260D01*
X96661333Y-36665000D01*
X96378667Y-36665000D01*
X95960091Y-36748260D01*
X95485423Y-37065423D01*
X95250000Y-37417758D01*
X95014577Y-37065423D01*
X94539909Y-36748260D01*
X94121333Y-36665000D01*
X93838667Y-36665000D01*
X93420091Y-36748260D01*
X92945423Y-37065423D01*
X92874266Y-37171917D01*
X92778327Y-36940301D01*
X92599698Y-36761673D01*
X92366309Y-36665000D01*
X91725750Y-36665000D01*
X91567000Y-36823750D01*
X91567000Y-37973000D01*
X91587000Y-37973000D01*
X91587000Y-38227000D01*
X91567000Y-38227000D01*
X91567000Y-38247000D01*
X91313000Y-38247000D01*
X91313000Y-38227000D01*
X91293000Y-38227000D01*
X91293000Y-37973000D01*
X91313000Y-37973000D01*
X91313000Y-36823750D01*
X91154250Y-36665000D01*
X90513691Y-36665000D01*
X90280302Y-36761673D01*
X90101673Y-36940301D01*
X90005000Y-37173690D01*
X90005000Y-37814250D01*
X90163748Y-37972998D01*
X90112800Y-37972998D01*
X87497301Y-35357500D01*
X96762799Y-35357500D01*
X98292360Y-36887061D01*
X98292360Y-36887061D01*
G37*
X98292360Y-36887061D02*
X98025423Y-37065423D01*
X97790000Y-37417758D01*
X97554577Y-37065423D01*
X97079909Y-36748260D01*
X96661333Y-36665000D01*
X96378667Y-36665000D01*
X95960091Y-36748260D01*
X95485423Y-37065423D01*
X95250000Y-37417758D01*
X95014577Y-37065423D01*
X94539909Y-36748260D01*
X94121333Y-36665000D01*
X93838667Y-36665000D01*
X93420091Y-36748260D01*
X92945423Y-37065423D01*
X92874266Y-37171917D01*
X92778327Y-36940301D01*
X92599698Y-36761673D01*
X92366309Y-36665000D01*
X91725750Y-36665000D01*
X91567000Y-36823750D01*
X91567000Y-37973000D01*
X91587000Y-37973000D01*
X91587000Y-38227000D01*
X91567000Y-38227000D01*
X91567000Y-38247000D01*
X91313000Y-38247000D01*
X91313000Y-38227000D01*
X91293000Y-38227000D01*
X91293000Y-37973000D01*
X91313000Y-37973000D01*
X91313000Y-36823750D01*
X91154250Y-36665000D01*
X90513691Y-36665000D01*
X90280302Y-36761673D01*
X90101673Y-36940301D01*
X90005000Y-37173690D01*
X90005000Y-37814250D01*
X90163748Y-37972998D01*
X90112800Y-37972998D01*
X87497301Y-35357500D01*
X96762799Y-35357500D01*
X98292360Y-36887061D01*
G04 #@! TD*
M02*
