G04 #@! TF.GenerationSoftware,KiCad,Pcbnew,(5.0.2)-1*
G04 #@! TF.CreationDate,2019-01-03T08:46:51-07:00*
G04 #@! TF.ProjectId,Pi Board,50692042-6f61-4726-942e-6b696361645f,rev?*
G04 #@! TF.SameCoordinates,Original*
G04 #@! TF.FileFunction,Legend,Top*
G04 #@! TF.FilePolarity,Positive*
%FSLAX46Y46*%
G04 Gerber Fmt 4.6, Leading zero omitted, Abs format (unit mm)*
G04 Created by KiCad (PCBNEW (5.0.2)-1) date 1/3/2019 8:46:51 AM*
%MOMM*%
%LPD*%
G01*
G04 APERTURE LIST*
%ADD10C,0.300000*%
%ADD11C,0.150000*%
%ADD12C,0.120000*%
%ADD13C,0.152400*%
%ADD14C,0.010000*%
%ADD15C,0.254000*%
G04 APERTURE END LIST*
D10*
X105945714Y-81007857D02*
X106017142Y-81079285D01*
X106088571Y-81293571D01*
X106088571Y-81436428D01*
X106017142Y-81650714D01*
X105874285Y-81793571D01*
X105731428Y-81865000D01*
X105445714Y-81936428D01*
X105231428Y-81936428D01*
X104945714Y-81865000D01*
X104802857Y-81793571D01*
X104660000Y-81650714D01*
X104588571Y-81436428D01*
X104588571Y-81293571D01*
X104660000Y-81079285D01*
X104731428Y-81007857D01*
X106088571Y-80365000D02*
X104588571Y-80365000D01*
X106088571Y-79722142D02*
X105302857Y-79722142D01*
X105160000Y-79793571D01*
X105088571Y-79936428D01*
X105088571Y-80150714D01*
X105160000Y-80293571D01*
X105231428Y-80365000D01*
X106017142Y-78436428D02*
X106088571Y-78579285D01*
X106088571Y-78865000D01*
X106017142Y-79007857D01*
X105874285Y-79079285D01*
X105302857Y-79079285D01*
X105160000Y-79007857D01*
X105088571Y-78865000D01*
X105088571Y-78579285D01*
X105160000Y-78436428D01*
X105302857Y-78365000D01*
X105445714Y-78365000D01*
X105588571Y-79079285D01*
X106088571Y-77079285D02*
X105302857Y-77079285D01*
X105160000Y-77150714D01*
X105088571Y-77293571D01*
X105088571Y-77579285D01*
X105160000Y-77722142D01*
X106017142Y-77079285D02*
X106088571Y-77222142D01*
X106088571Y-77579285D01*
X106017142Y-77722142D01*
X105874285Y-77793571D01*
X105731428Y-77793571D01*
X105588571Y-77722142D01*
X105517142Y-77579285D01*
X105517142Y-77222142D01*
X105445714Y-77079285D01*
X105088571Y-76365000D02*
X106588571Y-76365000D01*
X105160000Y-76365000D02*
X105088571Y-76222142D01*
X105088571Y-75936428D01*
X105160000Y-75793571D01*
X105231428Y-75722142D01*
X105374285Y-75650714D01*
X105802857Y-75650714D01*
X105945714Y-75722142D01*
X106017142Y-75793571D01*
X106088571Y-75936428D01*
X106088571Y-76222142D01*
X106017142Y-76365000D01*
X105302857Y-74507857D02*
X105374285Y-74293571D01*
X105445714Y-74222142D01*
X105588571Y-74150714D01*
X105802857Y-74150714D01*
X105945714Y-74222142D01*
X106017142Y-74293571D01*
X106088571Y-74436428D01*
X106088571Y-75007857D01*
X104588571Y-75007857D01*
X104588571Y-74507857D01*
X104660000Y-74365000D01*
X104731428Y-74293571D01*
X104874285Y-74222142D01*
X105017142Y-74222142D01*
X105160000Y-74293571D01*
X105231428Y-74365000D01*
X105302857Y-74507857D01*
X105302857Y-75007857D01*
X105088571Y-72865000D02*
X106088571Y-72865000D01*
X105088571Y-73507857D02*
X105874285Y-73507857D01*
X106017142Y-73436428D01*
X106088571Y-73293571D01*
X106088571Y-73079285D01*
X106017142Y-72936428D01*
X105945714Y-72865000D01*
X106017142Y-72222142D02*
X106088571Y-72079285D01*
X106088571Y-71793571D01*
X106017142Y-71650714D01*
X105874285Y-71579285D01*
X105802857Y-71579285D01*
X105660000Y-71650714D01*
X105588571Y-71793571D01*
X105588571Y-72007857D01*
X105517142Y-72150714D01*
X105374285Y-72222142D01*
X105302857Y-72222142D01*
X105160000Y-72150714D01*
X105088571Y-72007857D01*
X105088571Y-71793571D01*
X105160000Y-71650714D01*
X106088571Y-69793571D02*
X104588571Y-69793571D01*
X104588571Y-69222142D01*
X104660000Y-69079285D01*
X104731428Y-69007857D01*
X104874285Y-68936428D01*
X105088571Y-68936428D01*
X105231428Y-69007857D01*
X105302857Y-69079285D01*
X105374285Y-69222142D01*
X105374285Y-69793571D01*
X106088571Y-68293571D02*
X105088571Y-68293571D01*
X104588571Y-68293571D02*
X104660000Y-68365000D01*
X104731428Y-68293571D01*
X104660000Y-68222142D01*
X104588571Y-68293571D01*
X104731428Y-68293571D01*
X105302857Y-65936428D02*
X105374285Y-65722142D01*
X105445714Y-65650714D01*
X105588571Y-65579285D01*
X105802857Y-65579285D01*
X105945714Y-65650714D01*
X106017142Y-65722142D01*
X106088571Y-65865000D01*
X106088571Y-66436428D01*
X104588571Y-66436428D01*
X104588571Y-65936428D01*
X104660000Y-65793571D01*
X104731428Y-65722142D01*
X104874285Y-65650714D01*
X105017142Y-65650714D01*
X105160000Y-65722142D01*
X105231428Y-65793571D01*
X105302857Y-65936428D01*
X105302857Y-66436428D01*
X106088571Y-64722142D02*
X106017142Y-64865000D01*
X105945714Y-64936428D01*
X105802857Y-65007857D01*
X105374285Y-65007857D01*
X105231428Y-64936428D01*
X105160000Y-64865000D01*
X105088571Y-64722142D01*
X105088571Y-64507857D01*
X105160000Y-64365000D01*
X105231428Y-64293571D01*
X105374285Y-64222142D01*
X105802857Y-64222142D01*
X105945714Y-64293571D01*
X106017142Y-64365000D01*
X106088571Y-64507857D01*
X106088571Y-64722142D01*
X106088571Y-62936428D02*
X105302857Y-62936428D01*
X105160000Y-63007857D01*
X105088571Y-63150714D01*
X105088571Y-63436428D01*
X105160000Y-63579285D01*
X106017142Y-62936428D02*
X106088571Y-63079285D01*
X106088571Y-63436428D01*
X106017142Y-63579285D01*
X105874285Y-63650714D01*
X105731428Y-63650714D01*
X105588571Y-63579285D01*
X105517142Y-63436428D01*
X105517142Y-63079285D01*
X105445714Y-62936428D01*
X106088571Y-62222142D02*
X105088571Y-62222142D01*
X105374285Y-62222142D02*
X105231428Y-62150714D01*
X105160000Y-62079285D01*
X105088571Y-61936428D01*
X105088571Y-61793571D01*
X106088571Y-60650714D02*
X104588571Y-60650714D01*
X106017142Y-60650714D02*
X106088571Y-60793571D01*
X106088571Y-61079285D01*
X106017142Y-61222142D01*
X105945714Y-61293571D01*
X105802857Y-61365000D01*
X105374285Y-61365000D01*
X105231428Y-61293571D01*
X105160000Y-61222142D01*
X105088571Y-61079285D01*
X105088571Y-60793571D01*
X105160000Y-60650714D01*
X105660000Y-56579285D02*
X105660000Y-55865000D01*
X106088571Y-56722142D02*
X104588571Y-56222142D01*
X106088571Y-55722142D01*
X105302857Y-54722142D02*
X105374285Y-54507857D01*
X105445714Y-54436428D01*
X105588571Y-54365000D01*
X105802857Y-54365000D01*
X105945714Y-54436428D01*
X106017142Y-54507857D01*
X106088571Y-54650714D01*
X106088571Y-55222142D01*
X104588571Y-55222142D01*
X104588571Y-54722142D01*
X104660000Y-54579285D01*
X104731428Y-54507857D01*
X104874285Y-54436428D01*
X105017142Y-54436428D01*
X105160000Y-54507857D01*
X105231428Y-54579285D01*
X105302857Y-54722142D01*
X105302857Y-55222142D01*
X104588571Y-53436428D02*
X104588571Y-53293571D01*
X104660000Y-53150714D01*
X104731428Y-53079285D01*
X104874285Y-53007857D01*
X105160000Y-52936428D01*
X105517142Y-52936428D01*
X105802857Y-53007857D01*
X105945714Y-53079285D01*
X106017142Y-53150714D01*
X106088571Y-53293571D01*
X106088571Y-53436428D01*
X106017142Y-53579285D01*
X105945714Y-53650714D01*
X105802857Y-53722142D01*
X105517142Y-53793571D01*
X105160000Y-53793571D01*
X104874285Y-53722142D01*
X104731428Y-53650714D01*
X104660000Y-53579285D01*
X104588571Y-53436428D01*
X104588571Y-52507857D02*
X104588571Y-51650714D01*
X106088571Y-52079285D02*
X104588571Y-52079285D01*
X104588571Y-50722142D02*
X105660000Y-50722142D01*
X105874285Y-50793571D01*
X106017142Y-50936428D01*
X106088571Y-51150714D01*
X106088571Y-51293571D01*
X104731428Y-48936428D02*
X104660000Y-48865000D01*
X104588571Y-48722142D01*
X104588571Y-48365000D01*
X104660000Y-48222142D01*
X104731428Y-48150714D01*
X104874285Y-48079285D01*
X105017142Y-48079285D01*
X105231428Y-48150714D01*
X106088571Y-49007857D01*
X106088571Y-48079285D01*
X104588571Y-47150714D02*
X104588571Y-47007857D01*
X104660000Y-46865000D01*
X104731428Y-46793571D01*
X104874285Y-46722142D01*
X105160000Y-46650714D01*
X105517142Y-46650714D01*
X105802857Y-46722142D01*
X105945714Y-46793571D01*
X106017142Y-46865000D01*
X106088571Y-47007857D01*
X106088571Y-47150714D01*
X106017142Y-47293571D01*
X105945714Y-47365000D01*
X105802857Y-47436428D01*
X105517142Y-47507857D01*
X105160000Y-47507857D01*
X104874285Y-47436428D01*
X104731428Y-47365000D01*
X104660000Y-47293571D01*
X104588571Y-47150714D01*
X106088571Y-45222142D02*
X106088571Y-46079285D01*
X106088571Y-45650714D02*
X104588571Y-45650714D01*
X104802857Y-45793571D01*
X104945714Y-45936428D01*
X105017142Y-46079285D01*
X105231428Y-44365000D02*
X105160000Y-44507857D01*
X105088571Y-44579285D01*
X104945714Y-44650714D01*
X104874285Y-44650714D01*
X104731428Y-44579285D01*
X104660000Y-44507857D01*
X104588571Y-44365000D01*
X104588571Y-44079285D01*
X104660000Y-43936428D01*
X104731428Y-43865000D01*
X104874285Y-43793571D01*
X104945714Y-43793571D01*
X105088571Y-43865000D01*
X105160000Y-43936428D01*
X105231428Y-44079285D01*
X105231428Y-44365000D01*
X105302857Y-44507857D01*
X105374285Y-44579285D01*
X105517142Y-44650714D01*
X105802857Y-44650714D01*
X105945714Y-44579285D01*
X106017142Y-44507857D01*
X106088571Y-44365000D01*
X106088571Y-44079285D01*
X106017142Y-43936428D01*
X105945714Y-43865000D01*
X105802857Y-43793571D01*
X105517142Y-43793571D01*
X105374285Y-43865000D01*
X105302857Y-43936428D01*
X105231428Y-44079285D01*
D11*
X148407380Y-112680714D02*
X147407380Y-112680714D01*
X147883571Y-112680714D02*
X147883571Y-112109285D01*
X148407380Y-112109285D02*
X147407380Y-112109285D01*
X144867380Y-112442619D02*
X144867380Y-112347380D01*
X144915000Y-112252142D01*
X144962619Y-112204523D01*
X145057857Y-112156904D01*
X145248333Y-112109285D01*
X145486428Y-112109285D01*
X145676904Y-112156904D01*
X145772142Y-112204523D01*
X145819761Y-112252142D01*
X145867380Y-112347380D01*
X145867380Y-112442619D01*
X145819761Y-112537857D01*
X145772142Y-112585476D01*
X145676904Y-112633095D01*
X145486428Y-112680714D01*
X145248333Y-112680714D01*
X145057857Y-112633095D01*
X144962619Y-112585476D01*
X144915000Y-112537857D01*
X144867380Y-112442619D01*
X143327380Y-112109285D02*
X143327380Y-112680714D01*
X143327380Y-112395000D02*
X142327380Y-112395000D01*
X142470238Y-112490238D01*
X142565476Y-112585476D01*
X142613095Y-112680714D01*
X139882619Y-112680714D02*
X139835000Y-112633095D01*
X139787380Y-112537857D01*
X139787380Y-112299761D01*
X139835000Y-112204523D01*
X139882619Y-112156904D01*
X139977857Y-112109285D01*
X140073095Y-112109285D01*
X140215952Y-112156904D01*
X140787380Y-112728333D01*
X140787380Y-112109285D01*
X137247380Y-112728333D02*
X137247380Y-112109285D01*
X137628333Y-112442619D01*
X137628333Y-112299761D01*
X137675952Y-112204523D01*
X137723571Y-112156904D01*
X137818809Y-112109285D01*
X138056904Y-112109285D01*
X138152142Y-112156904D01*
X138199761Y-112204523D01*
X138247380Y-112299761D01*
X138247380Y-112585476D01*
X138199761Y-112680714D01*
X138152142Y-112728333D01*
X112117142Y-106148095D02*
X112164761Y-106195714D01*
X112212380Y-106338571D01*
X112212380Y-106433809D01*
X112164761Y-106576666D01*
X112069523Y-106671904D01*
X111974285Y-106719523D01*
X111783809Y-106767142D01*
X111640952Y-106767142D01*
X111450476Y-106719523D01*
X111355238Y-106671904D01*
X111260000Y-106576666D01*
X111212380Y-106433809D01*
X111212380Y-106338571D01*
X111260000Y-106195714D01*
X111307619Y-106148095D01*
X111212380Y-105529047D02*
X111212380Y-105338571D01*
X111260000Y-105243333D01*
X111355238Y-105148095D01*
X111545714Y-105100476D01*
X111879047Y-105100476D01*
X112069523Y-105148095D01*
X112164761Y-105243333D01*
X112212380Y-105338571D01*
X112212380Y-105529047D01*
X112164761Y-105624285D01*
X112069523Y-105719523D01*
X111879047Y-105767142D01*
X111545714Y-105767142D01*
X111355238Y-105719523D01*
X111260000Y-105624285D01*
X111212380Y-105529047D01*
X112212380Y-104671904D02*
X111212380Y-104671904D01*
X112212380Y-104100476D01*
X111212380Y-104100476D01*
X109672380Y-105910000D02*
X108672380Y-105910000D01*
X108672380Y-105529047D01*
X108720000Y-105433809D01*
X108767619Y-105386190D01*
X108862857Y-105338571D01*
X109005714Y-105338571D01*
X109100952Y-105386190D01*
X109148571Y-105433809D01*
X109196190Y-105529047D01*
X109196190Y-105910000D01*
X109672380Y-104910000D02*
X108672380Y-104910000D01*
X127452380Y-120245000D02*
X126452380Y-120245000D01*
X127452380Y-119197380D02*
X126976190Y-119530714D01*
X127452380Y-119768809D02*
X126452380Y-119768809D01*
X126452380Y-119387857D01*
X126500000Y-119292619D01*
X126547619Y-119245000D01*
X126642857Y-119197380D01*
X126785714Y-119197380D01*
X126880952Y-119245000D01*
X126928571Y-119292619D01*
X126976190Y-119387857D01*
X126976190Y-119768809D01*
X127547619Y-118102142D02*
X127500000Y-118197380D01*
X127404761Y-118292619D01*
X127261904Y-118435476D01*
X127214285Y-118530714D01*
X127214285Y-118625952D01*
X127452380Y-118578333D02*
X127404761Y-118673571D01*
X127309523Y-118768809D01*
X127119047Y-118816428D01*
X126785714Y-118816428D01*
X126595238Y-118768809D01*
X126500000Y-118673571D01*
X126452380Y-118578333D01*
X126452380Y-118387857D01*
X126500000Y-118292619D01*
X126595238Y-118197380D01*
X126785714Y-118149761D01*
X127119047Y-118149761D01*
X127309523Y-118197380D01*
X127404761Y-118292619D01*
X127452380Y-118387857D01*
X127452380Y-118578333D01*
X126452380Y-117816428D02*
X126452380Y-117149761D01*
X127452380Y-117578333D01*
X124912380Y-120245000D02*
X123912380Y-120245000D01*
X124912380Y-119197380D02*
X124436190Y-119530714D01*
X124912380Y-119768809D02*
X123912380Y-119768809D01*
X123912380Y-119387857D01*
X123960000Y-119292619D01*
X124007619Y-119245000D01*
X124102857Y-119197380D01*
X124245714Y-119197380D01*
X124340952Y-119245000D01*
X124388571Y-119292619D01*
X124436190Y-119387857D01*
X124436190Y-119768809D01*
X125007619Y-118102142D02*
X124960000Y-118197380D01*
X124864761Y-118292619D01*
X124721904Y-118435476D01*
X124674285Y-118530714D01*
X124674285Y-118625952D01*
X124912380Y-118578333D02*
X124864761Y-118673571D01*
X124769523Y-118768809D01*
X124579047Y-118816428D01*
X124245714Y-118816428D01*
X124055238Y-118768809D01*
X123960000Y-118673571D01*
X123912380Y-118578333D01*
X123912380Y-118387857D01*
X123960000Y-118292619D01*
X124055238Y-118197380D01*
X124245714Y-118149761D01*
X124579047Y-118149761D01*
X124769523Y-118197380D01*
X124864761Y-118292619D01*
X124912380Y-118387857D01*
X124912380Y-118578333D01*
X123912380Y-117292619D02*
X123912380Y-117483095D01*
X123960000Y-117578333D01*
X124007619Y-117625952D01*
X124150476Y-117721190D01*
X124340952Y-117768809D01*
X124721904Y-117768809D01*
X124817142Y-117721190D01*
X124864761Y-117673571D01*
X124912380Y-117578333D01*
X124912380Y-117387857D01*
X124864761Y-117292619D01*
X124817142Y-117245000D01*
X124721904Y-117197380D01*
X124483809Y-117197380D01*
X124388571Y-117245000D01*
X124340952Y-117292619D01*
X124293333Y-117387857D01*
X124293333Y-117578333D01*
X124340952Y-117673571D01*
X124388571Y-117721190D01*
X124483809Y-117768809D01*
X122372380Y-120245000D02*
X121372380Y-120245000D01*
X122372380Y-119197380D02*
X121896190Y-119530714D01*
X122372380Y-119768809D02*
X121372380Y-119768809D01*
X121372380Y-119387857D01*
X121420000Y-119292619D01*
X121467619Y-119245000D01*
X121562857Y-119197380D01*
X121705714Y-119197380D01*
X121800952Y-119245000D01*
X121848571Y-119292619D01*
X121896190Y-119387857D01*
X121896190Y-119768809D01*
X122467619Y-118102142D02*
X122420000Y-118197380D01*
X122324761Y-118292619D01*
X122181904Y-118435476D01*
X122134285Y-118530714D01*
X122134285Y-118625952D01*
X122372380Y-118578333D02*
X122324761Y-118673571D01*
X122229523Y-118768809D01*
X122039047Y-118816428D01*
X121705714Y-118816428D01*
X121515238Y-118768809D01*
X121420000Y-118673571D01*
X121372380Y-118578333D01*
X121372380Y-118387857D01*
X121420000Y-118292619D01*
X121515238Y-118197380D01*
X121705714Y-118149761D01*
X122039047Y-118149761D01*
X122229523Y-118197380D01*
X122324761Y-118292619D01*
X122372380Y-118387857D01*
X122372380Y-118578333D01*
X121372380Y-117245000D02*
X121372380Y-117721190D01*
X121848571Y-117768809D01*
X121800952Y-117721190D01*
X121753333Y-117625952D01*
X121753333Y-117387857D01*
X121800952Y-117292619D01*
X121848571Y-117245000D01*
X121943809Y-117197380D01*
X122181904Y-117197380D01*
X122277142Y-117245000D01*
X122324761Y-117292619D01*
X122372380Y-117387857D01*
X122372380Y-117625952D01*
X122324761Y-117721190D01*
X122277142Y-117768809D01*
X119832380Y-120245000D02*
X118832380Y-120245000D01*
X119832380Y-119197380D02*
X119356190Y-119530714D01*
X119832380Y-119768809D02*
X118832380Y-119768809D01*
X118832380Y-119387857D01*
X118880000Y-119292619D01*
X118927619Y-119245000D01*
X119022857Y-119197380D01*
X119165714Y-119197380D01*
X119260952Y-119245000D01*
X119308571Y-119292619D01*
X119356190Y-119387857D01*
X119356190Y-119768809D01*
X119927619Y-118102142D02*
X119880000Y-118197380D01*
X119784761Y-118292619D01*
X119641904Y-118435476D01*
X119594285Y-118530714D01*
X119594285Y-118625952D01*
X119832380Y-118578333D02*
X119784761Y-118673571D01*
X119689523Y-118768809D01*
X119499047Y-118816428D01*
X119165714Y-118816428D01*
X118975238Y-118768809D01*
X118880000Y-118673571D01*
X118832380Y-118578333D01*
X118832380Y-118387857D01*
X118880000Y-118292619D01*
X118975238Y-118197380D01*
X119165714Y-118149761D01*
X119499047Y-118149761D01*
X119689523Y-118197380D01*
X119784761Y-118292619D01*
X119832380Y-118387857D01*
X119832380Y-118578333D01*
X119165714Y-117292619D02*
X119832380Y-117292619D01*
X118784761Y-117530714D02*
X119499047Y-117768809D01*
X119499047Y-117149761D01*
X117292380Y-120245000D02*
X116292380Y-120245000D01*
X117292380Y-119197380D02*
X116816190Y-119530714D01*
X117292380Y-119768809D02*
X116292380Y-119768809D01*
X116292380Y-119387857D01*
X116340000Y-119292619D01*
X116387619Y-119245000D01*
X116482857Y-119197380D01*
X116625714Y-119197380D01*
X116720952Y-119245000D01*
X116768571Y-119292619D01*
X116816190Y-119387857D01*
X116816190Y-119768809D01*
X117387619Y-118102142D02*
X117340000Y-118197380D01*
X117244761Y-118292619D01*
X117101904Y-118435476D01*
X117054285Y-118530714D01*
X117054285Y-118625952D01*
X117292380Y-118578333D02*
X117244761Y-118673571D01*
X117149523Y-118768809D01*
X116959047Y-118816428D01*
X116625714Y-118816428D01*
X116435238Y-118768809D01*
X116340000Y-118673571D01*
X116292380Y-118578333D01*
X116292380Y-118387857D01*
X116340000Y-118292619D01*
X116435238Y-118197380D01*
X116625714Y-118149761D01*
X116959047Y-118149761D01*
X117149523Y-118197380D01*
X117244761Y-118292619D01*
X117292380Y-118387857D01*
X117292380Y-118578333D01*
X116292380Y-117816428D02*
X116292380Y-117197380D01*
X116673333Y-117530714D01*
X116673333Y-117387857D01*
X116720952Y-117292619D01*
X116768571Y-117245000D01*
X116863809Y-117197380D01*
X117101904Y-117197380D01*
X117197142Y-117245000D01*
X117244761Y-117292619D01*
X117292380Y-117387857D01*
X117292380Y-117673571D01*
X117244761Y-117768809D01*
X117197142Y-117816428D01*
X114752380Y-120245000D02*
X113752380Y-120245000D01*
X114752380Y-119197380D02*
X114276190Y-119530714D01*
X114752380Y-119768809D02*
X113752380Y-119768809D01*
X113752380Y-119387857D01*
X113800000Y-119292619D01*
X113847619Y-119245000D01*
X113942857Y-119197380D01*
X114085714Y-119197380D01*
X114180952Y-119245000D01*
X114228571Y-119292619D01*
X114276190Y-119387857D01*
X114276190Y-119768809D01*
X114847619Y-118102142D02*
X114800000Y-118197380D01*
X114704761Y-118292619D01*
X114561904Y-118435476D01*
X114514285Y-118530714D01*
X114514285Y-118625952D01*
X114752380Y-118578333D02*
X114704761Y-118673571D01*
X114609523Y-118768809D01*
X114419047Y-118816428D01*
X114085714Y-118816428D01*
X113895238Y-118768809D01*
X113800000Y-118673571D01*
X113752380Y-118578333D01*
X113752380Y-118387857D01*
X113800000Y-118292619D01*
X113895238Y-118197380D01*
X114085714Y-118149761D01*
X114419047Y-118149761D01*
X114609523Y-118197380D01*
X114704761Y-118292619D01*
X114752380Y-118387857D01*
X114752380Y-118578333D01*
X113847619Y-117768809D02*
X113800000Y-117721190D01*
X113752380Y-117625952D01*
X113752380Y-117387857D01*
X113800000Y-117292619D01*
X113847619Y-117245000D01*
X113942857Y-117197380D01*
X114038095Y-117197380D01*
X114180952Y-117245000D01*
X114752380Y-117816428D01*
X114752380Y-117197380D01*
X112212380Y-120245000D02*
X111212380Y-120245000D01*
X112212380Y-119197380D02*
X111736190Y-119530714D01*
X112212380Y-119768809D02*
X111212380Y-119768809D01*
X111212380Y-119387857D01*
X111260000Y-119292619D01*
X111307619Y-119245000D01*
X111402857Y-119197380D01*
X111545714Y-119197380D01*
X111640952Y-119245000D01*
X111688571Y-119292619D01*
X111736190Y-119387857D01*
X111736190Y-119768809D01*
X112307619Y-118102142D02*
X112260000Y-118197380D01*
X112164761Y-118292619D01*
X112021904Y-118435476D01*
X111974285Y-118530714D01*
X111974285Y-118625952D01*
X112212380Y-118578333D02*
X112164761Y-118673571D01*
X112069523Y-118768809D01*
X111879047Y-118816428D01*
X111545714Y-118816428D01*
X111355238Y-118768809D01*
X111260000Y-118673571D01*
X111212380Y-118578333D01*
X111212380Y-118387857D01*
X111260000Y-118292619D01*
X111355238Y-118197380D01*
X111545714Y-118149761D01*
X111879047Y-118149761D01*
X112069523Y-118197380D01*
X112164761Y-118292619D01*
X112212380Y-118387857D01*
X112212380Y-118578333D01*
X112212380Y-117197380D02*
X112212380Y-117768809D01*
X112212380Y-117483095D02*
X111212380Y-117483095D01*
X111355238Y-117578333D01*
X111450476Y-117673571D01*
X111498095Y-117768809D01*
X109672380Y-120245000D02*
X108672380Y-120245000D01*
X109672380Y-119197380D02*
X109196190Y-119530714D01*
X109672380Y-119768809D02*
X108672380Y-119768809D01*
X108672380Y-119387857D01*
X108720000Y-119292619D01*
X108767619Y-119245000D01*
X108862857Y-119197380D01*
X109005714Y-119197380D01*
X109100952Y-119245000D01*
X109148571Y-119292619D01*
X109196190Y-119387857D01*
X109196190Y-119768809D01*
X109767619Y-118102142D02*
X109720000Y-118197380D01*
X109624761Y-118292619D01*
X109481904Y-118435476D01*
X109434285Y-118530714D01*
X109434285Y-118625952D01*
X109672380Y-118578333D02*
X109624761Y-118673571D01*
X109529523Y-118768809D01*
X109339047Y-118816428D01*
X109005714Y-118816428D01*
X108815238Y-118768809D01*
X108720000Y-118673571D01*
X108672380Y-118578333D01*
X108672380Y-118387857D01*
X108720000Y-118292619D01*
X108815238Y-118197380D01*
X109005714Y-118149761D01*
X109339047Y-118149761D01*
X109529523Y-118197380D01*
X109624761Y-118292619D01*
X109672380Y-118387857D01*
X109672380Y-118578333D01*
X108672380Y-117530714D02*
X108672380Y-117435476D01*
X108720000Y-117340238D01*
X108767619Y-117292619D01*
X108862857Y-117245000D01*
X109053333Y-117197380D01*
X109291428Y-117197380D01*
X109481904Y-117245000D01*
X109577142Y-117292619D01*
X109624761Y-117340238D01*
X109672380Y-117435476D01*
X109672380Y-117530714D01*
X109624761Y-117625952D01*
X109577142Y-117673571D01*
X109481904Y-117721190D01*
X109291428Y-117768809D01*
X109053333Y-117768809D01*
X108862857Y-117721190D01*
X108767619Y-117673571D01*
X108720000Y-117625952D01*
X108672380Y-117530714D01*
X149391666Y-101679285D02*
X149391666Y-101203095D01*
X149677380Y-101774523D02*
X148677380Y-101441190D01*
X149677380Y-101107857D01*
X148772619Y-100822142D02*
X148725000Y-100774523D01*
X148677380Y-100679285D01*
X148677380Y-100441190D01*
X148725000Y-100345952D01*
X148772619Y-100298333D01*
X148867857Y-100250714D01*
X148963095Y-100250714D01*
X149105952Y-100298333D01*
X149677380Y-100869761D01*
X149677380Y-100250714D01*
X146851666Y-101679285D02*
X146851666Y-101203095D01*
X147137380Y-101774523D02*
X146137380Y-101441190D01*
X147137380Y-101107857D01*
X146137380Y-100869761D02*
X146137380Y-100250714D01*
X146518333Y-100584047D01*
X146518333Y-100441190D01*
X146565952Y-100345952D01*
X146613571Y-100298333D01*
X146708809Y-100250714D01*
X146946904Y-100250714D01*
X147042142Y-100298333D01*
X147089761Y-100345952D01*
X147137380Y-100441190D01*
X147137380Y-100726904D01*
X147089761Y-100822142D01*
X147042142Y-100869761D01*
X144311666Y-101679285D02*
X144311666Y-101203095D01*
X144597380Y-101774523D02*
X143597380Y-101441190D01*
X144597380Y-101107857D01*
X143930714Y-100345952D02*
X144597380Y-100345952D01*
X143549761Y-100584047D02*
X144264047Y-100822142D01*
X144264047Y-100203095D01*
X141771666Y-101679285D02*
X141771666Y-101203095D01*
X142057380Y-101774523D02*
X141057380Y-101441190D01*
X142057380Y-101107857D01*
X141057380Y-100298333D02*
X141057380Y-100774523D01*
X141533571Y-100822142D01*
X141485952Y-100774523D01*
X141438333Y-100679285D01*
X141438333Y-100441190D01*
X141485952Y-100345952D01*
X141533571Y-100298333D01*
X141628809Y-100250714D01*
X141866904Y-100250714D01*
X141962142Y-100298333D01*
X142009761Y-100345952D01*
X142057380Y-100441190D01*
X142057380Y-100679285D01*
X142009761Y-100774523D01*
X141962142Y-100822142D01*
X139231666Y-101679285D02*
X139231666Y-101203095D01*
X139517380Y-101774523D02*
X138517380Y-101441190D01*
X139517380Y-101107857D01*
X138517380Y-100345952D02*
X138517380Y-100536428D01*
X138565000Y-100631666D01*
X138612619Y-100679285D01*
X138755476Y-100774523D01*
X138945952Y-100822142D01*
X139326904Y-100822142D01*
X139422142Y-100774523D01*
X139469761Y-100726904D01*
X139517380Y-100631666D01*
X139517380Y-100441190D01*
X139469761Y-100345952D01*
X139422142Y-100298333D01*
X139326904Y-100250714D01*
X139088809Y-100250714D01*
X138993571Y-100298333D01*
X138945952Y-100345952D01*
X138898333Y-100441190D01*
X138898333Y-100631666D01*
X138945952Y-100726904D01*
X138993571Y-100774523D01*
X139088809Y-100822142D01*
X136691666Y-101679285D02*
X136691666Y-101203095D01*
X136977380Y-101774523D02*
X135977380Y-101441190D01*
X136977380Y-101107857D01*
X135977380Y-100869761D02*
X135977380Y-100203095D01*
X136977380Y-100631666D01*
X127801666Y-101679285D02*
X127801666Y-101203095D01*
X128087380Y-101774523D02*
X127087380Y-101441190D01*
X128087380Y-101107857D01*
X127515952Y-100631666D02*
X127468333Y-100726904D01*
X127420714Y-100774523D01*
X127325476Y-100822142D01*
X127277857Y-100822142D01*
X127182619Y-100774523D01*
X127135000Y-100726904D01*
X127087380Y-100631666D01*
X127087380Y-100441190D01*
X127135000Y-100345952D01*
X127182619Y-100298333D01*
X127277857Y-100250714D01*
X127325476Y-100250714D01*
X127420714Y-100298333D01*
X127468333Y-100345952D01*
X127515952Y-100441190D01*
X127515952Y-100631666D01*
X127563571Y-100726904D01*
X127611190Y-100774523D01*
X127706428Y-100822142D01*
X127896904Y-100822142D01*
X127992142Y-100774523D01*
X128039761Y-100726904D01*
X128087380Y-100631666D01*
X128087380Y-100441190D01*
X128039761Y-100345952D01*
X127992142Y-100298333D01*
X127896904Y-100250714D01*
X127706428Y-100250714D01*
X127611190Y-100298333D01*
X127563571Y-100345952D01*
X127515952Y-100441190D01*
X125261666Y-101679285D02*
X125261666Y-101203095D01*
X125547380Y-101774523D02*
X124547380Y-101441190D01*
X125547380Y-101107857D01*
X125547380Y-100726904D02*
X125547380Y-100536428D01*
X125499761Y-100441190D01*
X125452142Y-100393571D01*
X125309285Y-100298333D01*
X125118809Y-100250714D01*
X124737857Y-100250714D01*
X124642619Y-100298333D01*
X124595000Y-100345952D01*
X124547380Y-100441190D01*
X124547380Y-100631666D01*
X124595000Y-100726904D01*
X124642619Y-100774523D01*
X124737857Y-100822142D01*
X124975952Y-100822142D01*
X125071190Y-100774523D01*
X125118809Y-100726904D01*
X125166428Y-100631666D01*
X125166428Y-100441190D01*
X125118809Y-100345952D01*
X125071190Y-100298333D01*
X124975952Y-100250714D01*
X122721666Y-102790476D02*
X122721666Y-102314285D01*
X123007380Y-102885714D02*
X122007380Y-102552380D01*
X123007380Y-102219047D01*
X123007380Y-101361904D02*
X123007380Y-101933333D01*
X123007380Y-101647619D02*
X122007380Y-101647619D01*
X122150238Y-101742857D01*
X122245476Y-101838095D01*
X122293095Y-101933333D01*
X122007380Y-100742857D02*
X122007380Y-100647619D01*
X122055000Y-100552380D01*
X122102619Y-100504761D01*
X122197857Y-100457142D01*
X122388333Y-100409523D01*
X122626428Y-100409523D01*
X122816904Y-100457142D01*
X122912142Y-100504761D01*
X122959761Y-100552380D01*
X123007380Y-100647619D01*
X123007380Y-100742857D01*
X122959761Y-100838095D01*
X122912142Y-100885714D01*
X122816904Y-100933333D01*
X122626428Y-100980952D01*
X122388333Y-100980952D01*
X122197857Y-100933333D01*
X122102619Y-100885714D01*
X122055000Y-100838095D01*
X122007380Y-100742857D01*
X120181666Y-102790476D02*
X120181666Y-102314285D01*
X120467380Y-102885714D02*
X119467380Y-102552380D01*
X120467380Y-102219047D01*
X120467380Y-101361904D02*
X120467380Y-101933333D01*
X120467380Y-101647619D02*
X119467380Y-101647619D01*
X119610238Y-101742857D01*
X119705476Y-101838095D01*
X119753095Y-101933333D01*
X120467380Y-100409523D02*
X120467380Y-100980952D01*
X120467380Y-100695238D02*
X119467380Y-100695238D01*
X119610238Y-100790476D01*
X119705476Y-100885714D01*
X119753095Y-100980952D01*
X117641666Y-102790476D02*
X117641666Y-102314285D01*
X117927380Y-102885714D02*
X116927380Y-102552380D01*
X117927380Y-102219047D01*
X117927380Y-101361904D02*
X117927380Y-101933333D01*
X117927380Y-101647619D02*
X116927380Y-101647619D01*
X117070238Y-101742857D01*
X117165476Y-101838095D01*
X117213095Y-101933333D01*
X117022619Y-100980952D02*
X116975000Y-100933333D01*
X116927380Y-100838095D01*
X116927380Y-100600000D01*
X116975000Y-100504761D01*
X117022619Y-100457142D01*
X117117857Y-100409523D01*
X117213095Y-100409523D01*
X117355952Y-100457142D01*
X117927380Y-101028571D01*
X117927380Y-100409523D01*
X115101666Y-102790476D02*
X115101666Y-102314285D01*
X115387380Y-102885714D02*
X114387380Y-102552380D01*
X115387380Y-102219047D01*
X115387380Y-101361904D02*
X115387380Y-101933333D01*
X115387380Y-101647619D02*
X114387380Y-101647619D01*
X114530238Y-101742857D01*
X114625476Y-101838095D01*
X114673095Y-101933333D01*
X114387380Y-101028571D02*
X114387380Y-100409523D01*
X114768333Y-100742857D01*
X114768333Y-100600000D01*
X114815952Y-100504761D01*
X114863571Y-100457142D01*
X114958809Y-100409523D01*
X115196904Y-100409523D01*
X115292142Y-100457142D01*
X115339761Y-100504761D01*
X115387380Y-100600000D01*
X115387380Y-100885714D01*
X115339761Y-100980952D01*
X115292142Y-101028571D01*
X112561666Y-102790476D02*
X112561666Y-102314285D01*
X112847380Y-102885714D02*
X111847380Y-102552380D01*
X112847380Y-102219047D01*
X112847380Y-101361904D02*
X112847380Y-101933333D01*
X112847380Y-101647619D02*
X111847380Y-101647619D01*
X111990238Y-101742857D01*
X112085476Y-101838095D01*
X112133095Y-101933333D01*
X112180714Y-100504761D02*
X112847380Y-100504761D01*
X111799761Y-100742857D02*
X112514047Y-100980952D01*
X112514047Y-100361904D01*
X110021666Y-102790476D02*
X110021666Y-102314285D01*
X110307380Y-102885714D02*
X109307380Y-102552380D01*
X110307380Y-102219047D01*
X110307380Y-101361904D02*
X110307380Y-101933333D01*
X110307380Y-101647619D02*
X109307380Y-101647619D01*
X109450238Y-101742857D01*
X109545476Y-101838095D01*
X109593095Y-101933333D01*
X109307380Y-100457142D02*
X109307380Y-100933333D01*
X109783571Y-100980952D01*
X109735952Y-100933333D01*
X109688333Y-100838095D01*
X109688333Y-100600000D01*
X109735952Y-100504761D01*
X109783571Y-100457142D01*
X109878809Y-100409523D01*
X110116904Y-100409523D01*
X110212142Y-100457142D01*
X110259761Y-100504761D01*
X110307380Y-100600000D01*
X110307380Y-100838095D01*
X110259761Y-100933333D01*
X110212142Y-100980952D01*
X189079285Y-49982380D02*
X189079285Y-48982380D01*
X189650714Y-49982380D01*
X189650714Y-48982380D01*
X190698333Y-49887142D02*
X190650714Y-49934761D01*
X190507857Y-49982380D01*
X190412619Y-49982380D01*
X190269761Y-49934761D01*
X190174523Y-49839523D01*
X190126904Y-49744285D01*
X190079285Y-49553809D01*
X190079285Y-49410952D01*
X190126904Y-49220476D01*
X190174523Y-49125238D01*
X190269761Y-49030000D01*
X190412619Y-48982380D01*
X190507857Y-48982380D01*
X190650714Y-49030000D01*
X190698333Y-49077619D01*
X188603095Y-46442380D02*
X189174523Y-46442380D01*
X188888809Y-47442380D02*
X188888809Y-46442380D01*
X189412619Y-46442380D02*
X190079285Y-47442380D01*
X190079285Y-46442380D02*
X189412619Y-47442380D01*
X190460238Y-47442380D02*
X190460238Y-46442380D01*
X190698333Y-46442380D01*
X190841190Y-46490000D01*
X190936428Y-46585238D01*
X190984047Y-46680476D01*
X191031666Y-46870952D01*
X191031666Y-47013809D01*
X190984047Y-47204285D01*
X190936428Y-47299523D01*
X190841190Y-47394761D01*
X190698333Y-47442380D01*
X190460238Y-47442380D01*
X189198333Y-44902380D02*
X188865000Y-44426190D01*
X188626904Y-44902380D02*
X188626904Y-43902380D01*
X189007857Y-43902380D01*
X189103095Y-43950000D01*
X189150714Y-43997619D01*
X189198333Y-44092857D01*
X189198333Y-44235714D01*
X189150714Y-44330952D01*
X189103095Y-44378571D01*
X189007857Y-44426190D01*
X188626904Y-44426190D01*
X189531666Y-43902380D02*
X190198333Y-44902380D01*
X190198333Y-43902380D02*
X189531666Y-44902380D01*
X190579285Y-44902380D02*
X190579285Y-43902380D01*
X190817380Y-43902380D01*
X190960238Y-43950000D01*
X191055476Y-44045238D01*
X191103095Y-44140476D01*
X191150714Y-44330952D01*
X191150714Y-44473809D01*
X191103095Y-44664285D01*
X191055476Y-44759523D01*
X190960238Y-44854761D01*
X190817380Y-44902380D01*
X190579285Y-44902380D01*
X189079285Y-42362380D02*
X189079285Y-41362380D01*
X189650714Y-42362380D01*
X189650714Y-41362380D01*
X190698333Y-42267142D02*
X190650714Y-42314761D01*
X190507857Y-42362380D01*
X190412619Y-42362380D01*
X190269761Y-42314761D01*
X190174523Y-42219523D01*
X190126904Y-42124285D01*
X190079285Y-41933809D01*
X190079285Y-41790952D01*
X190126904Y-41600476D01*
X190174523Y-41505238D01*
X190269761Y-41410000D01*
X190412619Y-41362380D01*
X190507857Y-41362380D01*
X190650714Y-41410000D01*
X190698333Y-41457619D01*
X189079285Y-39822380D02*
X189079285Y-38822380D01*
X189650714Y-39822380D01*
X189650714Y-38822380D01*
X190698333Y-39727142D02*
X190650714Y-39774761D01*
X190507857Y-39822380D01*
X190412619Y-39822380D01*
X190269761Y-39774761D01*
X190174523Y-39679523D01*
X190126904Y-39584285D01*
X190079285Y-39393809D01*
X190079285Y-39250952D01*
X190126904Y-39060476D01*
X190174523Y-38965238D01*
X190269761Y-38870000D01*
X190412619Y-38822380D01*
X190507857Y-38822380D01*
X190650714Y-38870000D01*
X190698333Y-38917619D01*
X189103095Y-36330000D02*
X189007857Y-36282380D01*
X188865000Y-36282380D01*
X188722142Y-36330000D01*
X188626904Y-36425238D01*
X188579285Y-36520476D01*
X188531666Y-36710952D01*
X188531666Y-36853809D01*
X188579285Y-37044285D01*
X188626904Y-37139523D01*
X188722142Y-37234761D01*
X188865000Y-37282380D01*
X188960238Y-37282380D01*
X189103095Y-37234761D01*
X189150714Y-37187142D01*
X189150714Y-36853809D01*
X188960238Y-36853809D01*
X189579285Y-37282380D02*
X189579285Y-36282380D01*
X190150714Y-37282380D01*
X190150714Y-36282380D01*
X190626904Y-37282380D02*
X190626904Y-36282380D01*
X190865000Y-36282380D01*
X191007857Y-36330000D01*
X191103095Y-36425238D01*
X191150714Y-36520476D01*
X191198333Y-36710952D01*
X191198333Y-36853809D01*
X191150714Y-37044285D01*
X191103095Y-37139523D01*
X191007857Y-37234761D01*
X190865000Y-37282380D01*
X190626904Y-37282380D01*
X191929285Y-34742380D02*
X191929285Y-33742380D01*
X192310238Y-33742380D01*
X192405476Y-33790000D01*
X192453095Y-33837619D01*
X192500714Y-33932857D01*
X192500714Y-34075714D01*
X192453095Y-34170952D01*
X192405476Y-34218571D01*
X192310238Y-34266190D01*
X191929285Y-34266190D01*
X192929285Y-34742380D02*
X192929285Y-33742380D01*
X194738809Y-34647142D02*
X194691190Y-34694761D01*
X194548333Y-34742380D01*
X194453095Y-34742380D01*
X194310238Y-34694761D01*
X194215000Y-34599523D01*
X194167380Y-34504285D01*
X194119761Y-34313809D01*
X194119761Y-34170952D01*
X194167380Y-33980476D01*
X194215000Y-33885238D01*
X194310238Y-33790000D01*
X194453095Y-33742380D01*
X194548333Y-33742380D01*
X194691190Y-33790000D01*
X194738809Y-33837619D01*
X195357857Y-33742380D02*
X195548333Y-33742380D01*
X195643571Y-33790000D01*
X195738809Y-33885238D01*
X195786428Y-34075714D01*
X195786428Y-34409047D01*
X195738809Y-34599523D01*
X195643571Y-34694761D01*
X195548333Y-34742380D01*
X195357857Y-34742380D01*
X195262619Y-34694761D01*
X195167380Y-34599523D01*
X195119761Y-34409047D01*
X195119761Y-34075714D01*
X195167380Y-33885238D01*
X195262619Y-33790000D01*
X195357857Y-33742380D01*
X196215000Y-34742380D02*
X196215000Y-33742380D01*
X196786428Y-34742380D01*
X196786428Y-33742380D01*
X197215000Y-34694761D02*
X197357857Y-34742380D01*
X197595952Y-34742380D01*
X197691190Y-34694761D01*
X197738809Y-34647142D01*
X197786428Y-34551904D01*
X197786428Y-34456666D01*
X197738809Y-34361428D01*
X197691190Y-34313809D01*
X197595952Y-34266190D01*
X197405476Y-34218571D01*
X197310238Y-34170952D01*
X197262619Y-34123333D01*
X197215000Y-34028095D01*
X197215000Y-33932857D01*
X197262619Y-33837619D01*
X197310238Y-33790000D01*
X197405476Y-33742380D01*
X197643571Y-33742380D01*
X197786428Y-33790000D01*
X198405476Y-33742380D02*
X198595952Y-33742380D01*
X198691190Y-33790000D01*
X198786428Y-33885238D01*
X198834047Y-34075714D01*
X198834047Y-34409047D01*
X198786428Y-34599523D01*
X198691190Y-34694761D01*
X198595952Y-34742380D01*
X198405476Y-34742380D01*
X198310238Y-34694761D01*
X198215000Y-34599523D01*
X198167380Y-34409047D01*
X198167380Y-34075714D01*
X198215000Y-33885238D01*
X198310238Y-33790000D01*
X198405476Y-33742380D01*
X199738809Y-34742380D02*
X199262619Y-34742380D01*
X199262619Y-33742380D01*
X200072142Y-34218571D02*
X200405476Y-34218571D01*
X200548333Y-34742380D02*
X200072142Y-34742380D01*
X200072142Y-33742380D01*
X200548333Y-33742380D01*
X193595952Y-51332380D02*
X194215000Y-51332380D01*
X193881666Y-51713333D01*
X194024523Y-51713333D01*
X194119761Y-51760952D01*
X194167380Y-51808571D01*
X194215000Y-51903809D01*
X194215000Y-52141904D01*
X194167380Y-52237142D01*
X194119761Y-52284761D01*
X194024523Y-52332380D01*
X193738809Y-52332380D01*
X193643571Y-52284761D01*
X193595952Y-52237142D01*
X194643571Y-52237142D02*
X194691190Y-52284761D01*
X194643571Y-52332380D01*
X194595952Y-52284761D01*
X194643571Y-52237142D01*
X194643571Y-52332380D01*
X195024523Y-51332380D02*
X195643571Y-51332380D01*
X195310238Y-51713333D01*
X195453095Y-51713333D01*
X195548333Y-51760952D01*
X195595952Y-51808571D01*
X195643571Y-51903809D01*
X195643571Y-52141904D01*
X195595952Y-52237142D01*
X195548333Y-52284761D01*
X195453095Y-52332380D01*
X195167380Y-52332380D01*
X195072142Y-52284761D01*
X195024523Y-52237142D01*
X195929285Y-51332380D02*
X196262619Y-52332380D01*
X196595952Y-51332380D01*
X197691190Y-52332380D02*
X197691190Y-51332380D01*
X198357857Y-51332380D02*
X198548333Y-51332380D01*
X198643571Y-51380000D01*
X198738809Y-51475238D01*
X198786428Y-51665714D01*
X198786428Y-51999047D01*
X198738809Y-52189523D01*
X198643571Y-52284761D01*
X198548333Y-52332380D01*
X198357857Y-52332380D01*
X198262619Y-52284761D01*
X198167380Y-52189523D01*
X198119761Y-51999047D01*
X198119761Y-51665714D01*
X198167380Y-51475238D01*
X198262619Y-51380000D01*
X198357857Y-51332380D01*
X189524523Y-53982380D02*
X189524523Y-52982380D01*
X190095952Y-53982380D01*
X190095952Y-52982380D01*
X190762619Y-52982380D02*
X190953095Y-52982380D01*
X191048333Y-53030000D01*
X191143571Y-53125238D01*
X191191190Y-53315714D01*
X191191190Y-53649047D01*
X191143571Y-53839523D01*
X191048333Y-53934761D01*
X190953095Y-53982380D01*
X190762619Y-53982380D01*
X190667380Y-53934761D01*
X190572142Y-53839523D01*
X190524523Y-53649047D01*
X190524523Y-53315714D01*
X190572142Y-53125238D01*
X190667380Y-53030000D01*
X190762619Y-52982380D01*
X191476904Y-52982380D02*
X192048333Y-52982380D01*
X191762619Y-53982380D02*
X191762619Y-52982380D01*
X193619761Y-52982380D02*
X193143571Y-52982380D01*
X193095952Y-53458571D01*
X193143571Y-53410952D01*
X193238809Y-53363333D01*
X193476904Y-53363333D01*
X193572142Y-53410952D01*
X193619761Y-53458571D01*
X193667380Y-53553809D01*
X193667380Y-53791904D01*
X193619761Y-53887142D01*
X193572142Y-53934761D01*
X193476904Y-53982380D01*
X193238809Y-53982380D01*
X193143571Y-53934761D01*
X193095952Y-53887142D01*
X193953095Y-52982380D02*
X194286428Y-53982380D01*
X194619761Y-52982380D01*
X195572142Y-52982380D02*
X196143571Y-52982380D01*
X195857857Y-53982380D02*
X195857857Y-52982380D01*
X196667380Y-52982380D02*
X196857857Y-52982380D01*
X196953095Y-53030000D01*
X197048333Y-53125238D01*
X197095952Y-53315714D01*
X197095952Y-53649047D01*
X197048333Y-53839523D01*
X196953095Y-53934761D01*
X196857857Y-53982380D01*
X196667380Y-53982380D01*
X196572142Y-53934761D01*
X196476904Y-53839523D01*
X196429285Y-53649047D01*
X196429285Y-53315714D01*
X196476904Y-53125238D01*
X196572142Y-53030000D01*
X196667380Y-52982380D01*
X198000714Y-53982380D02*
X197524523Y-53982380D01*
X197524523Y-52982380D01*
X198334047Y-53458571D02*
X198667380Y-53458571D01*
X198810238Y-53982380D02*
X198334047Y-53982380D01*
X198334047Y-52982380D01*
X198810238Y-52982380D01*
X199810238Y-53982380D02*
X199476904Y-53506190D01*
X199238809Y-53982380D02*
X199238809Y-52982380D01*
X199619761Y-52982380D01*
X199715000Y-53030000D01*
X199762619Y-53077619D01*
X199810238Y-53172857D01*
X199810238Y-53315714D01*
X199762619Y-53410952D01*
X199715000Y-53458571D01*
X199619761Y-53506190D01*
X199238809Y-53506190D01*
X200191190Y-53696666D02*
X200667380Y-53696666D01*
X200095952Y-53982380D02*
X200429285Y-52982380D01*
X200762619Y-53982380D01*
X201095952Y-53982380D02*
X201095952Y-52982380D01*
X201667380Y-53982380D01*
X201667380Y-52982380D01*
X202000714Y-52982380D02*
X202572142Y-52982380D01*
X202286428Y-53982380D02*
X202286428Y-52982380D01*
X202905476Y-53887142D02*
X202953095Y-53934761D01*
X202905476Y-53982380D01*
X202857857Y-53934761D01*
X202905476Y-53887142D01*
X202905476Y-53982380D01*
X202905476Y-53601428D02*
X202857857Y-53030000D01*
X202905476Y-52982380D01*
X202953095Y-53030000D01*
X202905476Y-53601428D01*
X202905476Y-52982380D01*
X186396666Y-121372380D02*
X185920476Y-121372380D01*
X185872857Y-121848571D01*
X185920476Y-121800952D01*
X186015714Y-121753333D01*
X186253809Y-121753333D01*
X186349047Y-121800952D01*
X186396666Y-121848571D01*
X186444285Y-121943809D01*
X186444285Y-122181904D01*
X186396666Y-122277142D01*
X186349047Y-122324761D01*
X186253809Y-122372380D01*
X186015714Y-122372380D01*
X185920476Y-122324761D01*
X185872857Y-122277142D01*
X186730000Y-121372380D02*
X187063333Y-122372380D01*
X187396666Y-121372380D01*
X187682380Y-122324761D02*
X187825238Y-122372380D01*
X188063333Y-122372380D01*
X188158571Y-122324761D01*
X188206190Y-122277142D01*
X188253809Y-122181904D01*
X188253809Y-122086666D01*
X188206190Y-121991428D01*
X188158571Y-121943809D01*
X188063333Y-121896190D01*
X187872857Y-121848571D01*
X187777619Y-121800952D01*
X187730000Y-121753333D01*
X187682380Y-121658095D01*
X187682380Y-121562857D01*
X187730000Y-121467619D01*
X187777619Y-121420000D01*
X187872857Y-121372380D01*
X188110952Y-121372380D01*
X188253809Y-121420000D01*
X189015714Y-121848571D02*
X189158571Y-121896190D01*
X189206190Y-121943809D01*
X189253809Y-122039047D01*
X189253809Y-122181904D01*
X189206190Y-122277142D01*
X189158571Y-122324761D01*
X189063333Y-122372380D01*
X188682380Y-122372380D01*
X188682380Y-121372380D01*
X189015714Y-121372380D01*
X189110952Y-121420000D01*
X189158571Y-121467619D01*
X189206190Y-121562857D01*
X189206190Y-121658095D01*
X189158571Y-121753333D01*
X189110952Y-121800952D01*
X189015714Y-121848571D01*
X188682380Y-121848571D01*
X191682380Y-121372380D02*
X191206190Y-121372380D01*
X191158571Y-121848571D01*
X191206190Y-121800952D01*
X191301428Y-121753333D01*
X191539523Y-121753333D01*
X191634761Y-121800952D01*
X191682380Y-121848571D01*
X191730000Y-121943809D01*
X191730000Y-122181904D01*
X191682380Y-122277142D01*
X191634761Y-122324761D01*
X191539523Y-122372380D01*
X191301428Y-122372380D01*
X191206190Y-122324761D01*
X191158571Y-122277142D01*
X192015714Y-121372380D02*
X192349047Y-122372380D01*
X192682380Y-121372380D01*
D12*
G04 #@! TO.C,J6*
X113605000Y-41970000D02*
X113605000Y-36770000D01*
X161925000Y-41970000D02*
X113605000Y-41970000D01*
X164525000Y-36770000D02*
X113605000Y-36770000D01*
X161925000Y-41970000D02*
X161925000Y-39370000D01*
X161925000Y-39370000D02*
X164525000Y-39370000D01*
X164525000Y-39370000D02*
X164525000Y-36770000D01*
X163195000Y-41970000D02*
X164525000Y-41970000D01*
X164525000Y-41970000D02*
X164525000Y-40640000D01*
G04 #@! TO.C,J4*
X136465000Y-119440000D02*
X136465000Y-118110000D01*
X137795000Y-119440000D02*
X136465000Y-119440000D01*
X136465000Y-116840000D02*
X136465000Y-114240000D01*
X139065000Y-116840000D02*
X136465000Y-116840000D01*
X139065000Y-119440000D02*
X139065000Y-116840000D01*
X136465000Y-114240000D02*
X149285000Y-114240000D01*
X139065000Y-119440000D02*
X149285000Y-119440000D01*
X149285000Y-119440000D02*
X149285000Y-114240000D01*
G04 #@! TO.C,SW1*
X148590000Y-94615000D02*
X149860000Y-94615000D01*
X148590000Y-92585000D02*
X148590000Y-96645000D01*
X149860000Y-92585000D02*
X148590000Y-92585000D01*
X149860000Y-96645000D02*
X149860000Y-92585000D01*
X148590000Y-96645000D02*
X149860000Y-96645000D01*
X146050000Y-94615000D02*
X147320000Y-94615000D01*
X146050000Y-92585000D02*
X146050000Y-96645000D01*
X147320000Y-92585000D02*
X146050000Y-92585000D01*
X147320000Y-96645000D02*
X147320000Y-92585000D01*
X146050000Y-96645000D02*
X147320000Y-96645000D01*
X143510000Y-94615000D02*
X144780000Y-94615000D01*
X143510000Y-92585000D02*
X143510000Y-96645000D01*
X144780000Y-92585000D02*
X143510000Y-92585000D01*
X144780000Y-96645000D02*
X144780000Y-92585000D01*
X143510000Y-96645000D02*
X144780000Y-96645000D01*
X140970000Y-94615000D02*
X142240000Y-94615000D01*
X140970000Y-92585000D02*
X140970000Y-96645000D01*
X142240000Y-92585000D02*
X140970000Y-92585000D01*
X142240000Y-96645000D02*
X142240000Y-92585000D01*
X140970000Y-96645000D02*
X142240000Y-96645000D01*
X138430000Y-94615000D02*
X139700000Y-94615000D01*
X138430000Y-92585000D02*
X138430000Y-96645000D01*
X139700000Y-92585000D02*
X138430000Y-92585000D01*
X139700000Y-96645000D02*
X139700000Y-92585000D01*
X138430000Y-96645000D02*
X139700000Y-96645000D01*
X135890000Y-94615000D02*
X137160000Y-94615000D01*
X135890000Y-92585000D02*
X135890000Y-96645000D01*
X137160000Y-92585000D02*
X135890000Y-92585000D01*
X137160000Y-96645000D02*
X137160000Y-92585000D01*
X135890000Y-96645000D02*
X137160000Y-96645000D01*
X151705000Y-99625000D02*
X134045000Y-99625000D01*
X151705000Y-89605000D02*
X151705000Y-99625000D01*
X134045000Y-89605000D02*
X151705000Y-89605000D01*
X134045000Y-99625000D02*
X134045000Y-89605000D01*
X133845000Y-99825000D02*
X133845000Y-97285000D01*
X133845000Y-99825000D02*
X135115000Y-99825000D01*
G04 #@! TO.C,SW2*
X127000000Y-94615000D02*
X128270000Y-94615000D01*
X127000000Y-92585000D02*
X127000000Y-96645000D01*
X128270000Y-92585000D02*
X127000000Y-92585000D01*
X128270000Y-96645000D02*
X128270000Y-92585000D01*
X127000000Y-96645000D02*
X128270000Y-96645000D01*
X124460000Y-94615000D02*
X125730000Y-94615000D01*
X124460000Y-92585000D02*
X124460000Y-96645000D01*
X125730000Y-92585000D02*
X124460000Y-92585000D01*
X125730000Y-96645000D02*
X125730000Y-92585000D01*
X124460000Y-96645000D02*
X125730000Y-96645000D01*
X121920000Y-94615000D02*
X123190000Y-94615000D01*
X121920000Y-92585000D02*
X121920000Y-96645000D01*
X123190000Y-92585000D02*
X121920000Y-92585000D01*
X123190000Y-96645000D02*
X123190000Y-92585000D01*
X121920000Y-96645000D02*
X123190000Y-96645000D01*
X119380000Y-94615000D02*
X120650000Y-94615000D01*
X119380000Y-92585000D02*
X119380000Y-96645000D01*
X120650000Y-92585000D02*
X119380000Y-92585000D01*
X120650000Y-96645000D02*
X120650000Y-92585000D01*
X119380000Y-96645000D02*
X120650000Y-96645000D01*
X116840000Y-94615000D02*
X118110000Y-94615000D01*
X116840000Y-92585000D02*
X116840000Y-96645000D01*
X118110000Y-92585000D02*
X116840000Y-92585000D01*
X118110000Y-96645000D02*
X118110000Y-92585000D01*
X116840000Y-96645000D02*
X118110000Y-96645000D01*
X114300000Y-94615000D02*
X115570000Y-94615000D01*
X114300000Y-92585000D02*
X114300000Y-96645000D01*
X115570000Y-92585000D02*
X114300000Y-92585000D01*
X115570000Y-96645000D02*
X115570000Y-92585000D01*
X114300000Y-96645000D02*
X115570000Y-96645000D01*
X111760000Y-94615000D02*
X113030000Y-94615000D01*
X111760000Y-92585000D02*
X111760000Y-96645000D01*
X113030000Y-92585000D02*
X111760000Y-92585000D01*
X113030000Y-96645000D02*
X113030000Y-92585000D01*
X111760000Y-96645000D02*
X113030000Y-96645000D01*
X109220000Y-94615000D02*
X110490000Y-94615000D01*
X109220000Y-92585000D02*
X109220000Y-96645000D01*
X110490000Y-92585000D02*
X109220000Y-92585000D01*
X110490000Y-96645000D02*
X110490000Y-92585000D01*
X109220000Y-96645000D02*
X110490000Y-96645000D01*
X130115000Y-99625000D02*
X107375000Y-99625000D01*
X130115000Y-89605000D02*
X130115000Y-99625000D01*
X107375000Y-89605000D02*
X130115000Y-89605000D01*
X107375000Y-99625000D02*
X107375000Y-89605000D01*
X107175000Y-99825000D02*
X107175000Y-97285000D01*
X107175000Y-99825000D02*
X108445000Y-99825000D01*
G04 #@! TO.C,C8*
X197985000Y-98210000D02*
X196985000Y-98210000D01*
X196985000Y-99910000D02*
X197985000Y-99910000D01*
G04 #@! TO.C,C12*
X131600000Y-61810000D02*
X132600000Y-61810000D01*
X132600000Y-60110000D02*
X131600000Y-60110000D01*
G04 #@! TO.C,C13*
X128155000Y-46140000D02*
X127155000Y-46140000D01*
X127155000Y-47840000D02*
X128155000Y-47840000D01*
G04 #@! TO.C,C14*
X183670000Y-57365000D02*
X184670000Y-57365000D01*
X184670000Y-55665000D02*
X183670000Y-55665000D01*
G04 #@! TO.C,C15*
X196370000Y-82130000D02*
X197370000Y-82130000D01*
X197370000Y-80430000D02*
X196370000Y-80430000D01*
G04 #@! TO.C,C16*
X148110000Y-61810000D02*
X149110000Y-61810000D01*
X149110000Y-60110000D02*
X148110000Y-60110000D01*
G04 #@! TO.C,C10*
X166215000Y-98210000D02*
X165215000Y-98210000D01*
X165215000Y-99910000D02*
X166215000Y-99910000D01*
G04 #@! TO.C,C9*
X138565000Y-47840000D02*
X139565000Y-47840000D01*
X139565000Y-46140000D02*
X138565000Y-46140000D01*
G04 #@! TO.C,C7*
X182110000Y-80430000D02*
X181110000Y-80430000D01*
X181110000Y-82130000D02*
X182110000Y-82130000D01*
G04 #@! TO.C,C1*
X153515000Y-48680000D02*
X152515000Y-48680000D01*
X152515000Y-50380000D02*
X153515000Y-50380000D01*
G04 #@! TO.C,C6*
X147820000Y-48680000D02*
X146820000Y-48680000D01*
X146820000Y-50380000D02*
X147820000Y-50380000D01*
G04 #@! TO.C,C5*
X163985000Y-61810000D02*
X164985000Y-61810000D01*
X164985000Y-60110000D02*
X163985000Y-60110000D01*
G04 #@! TO.C,C11*
X182130000Y-98210000D02*
X181130000Y-98210000D01*
X181130000Y-99910000D02*
X182130000Y-99910000D01*
G04 #@! TO.C,C4*
X163985000Y-47840000D02*
X164985000Y-47840000D01*
X164985000Y-46140000D02*
X163985000Y-46140000D01*
G04 #@! TO.C,C17*
X165600000Y-80430000D02*
X164600000Y-80430000D01*
X164600000Y-82130000D02*
X165600000Y-82130000D01*
G04 #@! TO.C,C2*
X108330000Y-123340000D02*
X108330000Y-129140000D01*
X105030000Y-123340000D02*
X105030000Y-129140000D01*
X108330000Y-123340000D02*
X105030000Y-123340000D01*
G04 #@! TO.C,C3*
X199010000Y-131440000D02*
X202310000Y-131440000D01*
X202310000Y-131440000D02*
X202310000Y-125640000D01*
X199010000Y-131440000D02*
X199010000Y-125640000D01*
G04 #@! TO.C,J2*
X107890000Y-109110000D02*
X107890000Y-110760000D01*
X128330000Y-109110000D02*
X107890000Y-109110000D01*
X128330000Y-114410000D02*
X128330000Y-109110000D01*
X107890000Y-114410000D02*
X128330000Y-114410000D01*
X107890000Y-112760000D02*
X107890000Y-114410000D01*
X107890000Y-110760000D02*
G75*
G02X107890000Y-112760000I0J-1000000D01*
G01*
D11*
G04 #@! TO.C,U1*
X124290000Y-48915000D02*
X122915000Y-48915000D01*
X124290000Y-57790000D02*
X128440000Y-57790000D01*
X124290000Y-48890000D02*
X128440000Y-48890000D01*
X124290000Y-57790000D02*
X124290000Y-57675000D01*
X128440000Y-57790000D02*
X128440000Y-57675000D01*
X128440000Y-48890000D02*
X128440000Y-49005000D01*
X124290000Y-48890000D02*
X124290000Y-48915000D01*
G04 #@! TO.C,U2*
X135720000Y-48890000D02*
X135720000Y-48915000D01*
X139870000Y-48890000D02*
X139870000Y-49005000D01*
X139870000Y-57790000D02*
X139870000Y-57675000D01*
X135720000Y-57790000D02*
X135720000Y-57675000D01*
X135720000Y-48890000D02*
X139870000Y-48890000D01*
X135720000Y-57790000D02*
X139870000Y-57790000D01*
X135720000Y-48915000D02*
X134345000Y-48915000D01*
G04 #@! TO.C,U7*
X161120000Y-48915000D02*
X159745000Y-48915000D01*
X161120000Y-57790000D02*
X165270000Y-57790000D01*
X161120000Y-48890000D02*
X165270000Y-48890000D01*
X161120000Y-57790000D02*
X161120000Y-57675000D01*
X165270000Y-57790000D02*
X165270000Y-57675000D01*
X165270000Y-48890000D02*
X165270000Y-49005000D01*
X161120000Y-48890000D02*
X161120000Y-48915000D01*
G04 #@! TO.C,U4*
X173925000Y-83210000D02*
X172125000Y-83210000D01*
X173925000Y-96110000D02*
X181675000Y-96110000D01*
X173925000Y-82960000D02*
X181675000Y-82960000D01*
X173925000Y-96110000D02*
X173925000Y-95775000D01*
X181675000Y-96110000D02*
X181675000Y-95775000D01*
X181675000Y-82960000D02*
X181675000Y-83295000D01*
X173925000Y-82960000D02*
X173925000Y-83210000D01*
G04 #@! TO.C,U5*
X157415000Y-82960000D02*
X157415000Y-83210000D01*
X165165000Y-82960000D02*
X165165000Y-83295000D01*
X165165000Y-96110000D02*
X165165000Y-95775000D01*
X157415000Y-96110000D02*
X157415000Y-95775000D01*
X157415000Y-82960000D02*
X165165000Y-82960000D01*
X157415000Y-96110000D02*
X165165000Y-96110000D01*
X157415000Y-83210000D02*
X155615000Y-83210000D01*
G04 #@! TO.C,U6*
X157415000Y-62890000D02*
X155615000Y-62890000D01*
X157415000Y-75790000D02*
X165165000Y-75790000D01*
X157415000Y-62640000D02*
X165165000Y-62640000D01*
X157415000Y-75790000D02*
X157415000Y-75455000D01*
X165165000Y-75790000D02*
X165165000Y-75455000D01*
X165165000Y-62640000D02*
X165165000Y-62975000D01*
X157415000Y-62640000D02*
X157415000Y-62890000D01*
G04 #@! TO.C,U3*
X189800000Y-82960000D02*
X189800000Y-83210000D01*
X197550000Y-82960000D02*
X197550000Y-83295000D01*
X197550000Y-96110000D02*
X197550000Y-95775000D01*
X189800000Y-96110000D02*
X189800000Y-95775000D01*
X189800000Y-82960000D02*
X197550000Y-82960000D01*
X189800000Y-96110000D02*
X197550000Y-96110000D01*
X189800000Y-83210000D02*
X188000000Y-83210000D01*
G04 #@! TO.C,U8*
X158050000Y-100990000D02*
X156250000Y-100990000D01*
X158050000Y-113890000D02*
X165800000Y-113890000D01*
X158050000Y-100740000D02*
X165800000Y-100740000D01*
X158050000Y-113890000D02*
X158050000Y-113555000D01*
X165800000Y-113890000D02*
X165800000Y-113555000D01*
X165800000Y-100740000D02*
X165800000Y-101075000D01*
X158050000Y-100740000D02*
X158050000Y-100990000D01*
G04 #@! TO.C,U9*
X173925000Y-100740000D02*
X173925000Y-100990000D01*
X181675000Y-100740000D02*
X181675000Y-101075000D01*
X181675000Y-113890000D02*
X181675000Y-113555000D01*
X173925000Y-113890000D02*
X173925000Y-113555000D01*
X173925000Y-100740000D02*
X181675000Y-100740000D01*
X173925000Y-113890000D02*
X181675000Y-113890000D01*
X173925000Y-100990000D02*
X172125000Y-100990000D01*
G04 #@! TO.C,U10*
X189800000Y-100740000D02*
X189800000Y-100990000D01*
X197550000Y-100740000D02*
X197550000Y-101075000D01*
X197550000Y-113890000D02*
X197550000Y-113555000D01*
X189800000Y-113890000D02*
X189800000Y-113555000D01*
X189800000Y-100740000D02*
X197550000Y-100740000D01*
X189800000Y-113890000D02*
X197550000Y-113890000D01*
X189800000Y-100990000D02*
X188000000Y-100990000D01*
G04 #@! TO.C,U12*
X140905000Y-62640000D02*
X140905000Y-62890000D01*
X148655000Y-62640000D02*
X148655000Y-62975000D01*
X148655000Y-75790000D02*
X148655000Y-75455000D01*
X140905000Y-75790000D02*
X140905000Y-75455000D01*
X140905000Y-62640000D02*
X148655000Y-62640000D01*
X140905000Y-75790000D02*
X148655000Y-75790000D01*
X140905000Y-62890000D02*
X139105000Y-62890000D01*
G04 #@! TO.C,U13*
X124395000Y-62890000D02*
X122595000Y-62890000D01*
X124395000Y-75790000D02*
X132145000Y-75790000D01*
X124395000Y-62640000D02*
X132145000Y-62640000D01*
X124395000Y-75790000D02*
X124395000Y-75455000D01*
X132145000Y-75790000D02*
X132145000Y-75455000D01*
X132145000Y-62640000D02*
X132145000Y-62975000D01*
X124395000Y-62640000D02*
X124395000Y-62890000D01*
G04 #@! TO.C,U11*
X148420000Y-52720000D02*
X147020000Y-52720000D01*
X148420000Y-57820000D02*
X152570000Y-57820000D01*
X148420000Y-52670000D02*
X152570000Y-52670000D01*
X148420000Y-57820000D02*
X148420000Y-57675000D01*
X152570000Y-57820000D02*
X152570000Y-57675000D01*
X152570000Y-52670000D02*
X152570000Y-52815000D01*
X148420000Y-52670000D02*
X148420000Y-52720000D01*
D12*
G04 #@! TO.C,J5*
X191770000Y-35560000D02*
X193040000Y-35560000D01*
X191770000Y-36830000D02*
X191770000Y-35560000D01*
X194082929Y-49910000D02*
X194480000Y-49910000D01*
X194082929Y-49150000D02*
X194480000Y-49150000D01*
X203140000Y-49910000D02*
X197140000Y-49910000D01*
X203140000Y-49150000D02*
X203140000Y-49910000D01*
X197140000Y-49150000D02*
X203140000Y-49150000D01*
X194480000Y-48260000D02*
X197140000Y-48260000D01*
X194082929Y-47370000D02*
X194480000Y-47370000D01*
X194082929Y-46610000D02*
X194480000Y-46610000D01*
X203140000Y-47370000D02*
X197140000Y-47370000D01*
X203140000Y-46610000D02*
X203140000Y-47370000D01*
X197140000Y-46610000D02*
X203140000Y-46610000D01*
X194480000Y-45720000D02*
X197140000Y-45720000D01*
X194082929Y-44830000D02*
X194480000Y-44830000D01*
X194082929Y-44070000D02*
X194480000Y-44070000D01*
X203140000Y-44830000D02*
X197140000Y-44830000D01*
X203140000Y-44070000D02*
X203140000Y-44830000D01*
X197140000Y-44070000D02*
X203140000Y-44070000D01*
X194480000Y-43180000D02*
X197140000Y-43180000D01*
X194082929Y-42290000D02*
X194480000Y-42290000D01*
X194082929Y-41530000D02*
X194480000Y-41530000D01*
X203140000Y-42290000D02*
X197140000Y-42290000D01*
X203140000Y-41530000D02*
X203140000Y-42290000D01*
X197140000Y-41530000D02*
X203140000Y-41530000D01*
X194480000Y-40640000D02*
X197140000Y-40640000D01*
X194082929Y-39750000D02*
X194480000Y-39750000D01*
X194082929Y-38990000D02*
X194480000Y-38990000D01*
X203140000Y-39750000D02*
X197140000Y-39750000D01*
X203140000Y-38990000D02*
X203140000Y-39750000D01*
X197140000Y-38990000D02*
X203140000Y-38990000D01*
X194480000Y-38100000D02*
X197140000Y-38100000D01*
X194150000Y-37210000D02*
X194480000Y-37210000D01*
X194150000Y-36450000D02*
X194480000Y-36450000D01*
X197140000Y-37110000D02*
X203140000Y-37110000D01*
X197140000Y-36990000D02*
X203140000Y-36990000D01*
X197140000Y-36870000D02*
X203140000Y-36870000D01*
X197140000Y-36750000D02*
X203140000Y-36750000D01*
X197140000Y-36630000D02*
X203140000Y-36630000D01*
X197140000Y-36510000D02*
X203140000Y-36510000D01*
X203140000Y-37210000D02*
X197140000Y-37210000D01*
X203140000Y-36450000D02*
X203140000Y-37210000D01*
X197140000Y-36450000D02*
X203140000Y-36450000D01*
X197140000Y-35500000D02*
X194480000Y-35500000D01*
X197140000Y-50860000D02*
X197140000Y-35500000D01*
X194480000Y-50860000D02*
X197140000Y-50860000D01*
X194480000Y-35500000D02*
X194480000Y-50860000D01*
G04 #@! TO.C,J7*
X185360000Y-120710000D02*
X185360000Y-119380000D01*
X186690000Y-120710000D02*
X185360000Y-120710000D01*
X187960000Y-120710000D02*
X187960000Y-118050000D01*
X187960000Y-118050000D02*
X193100000Y-118050000D01*
X187960000Y-120710000D02*
X193100000Y-120710000D01*
X193100000Y-120710000D02*
X193100000Y-118050000D01*
G04 #@! TO.C,J3*
X136465000Y-110550000D02*
X136465000Y-109220000D01*
X137795000Y-110550000D02*
X136465000Y-110550000D01*
X136465000Y-107950000D02*
X136465000Y-105350000D01*
X139065000Y-107950000D02*
X136465000Y-107950000D01*
X139065000Y-110550000D02*
X139065000Y-107950000D01*
X136465000Y-105350000D02*
X149285000Y-105350000D01*
X139065000Y-110550000D02*
X149285000Y-110550000D01*
X149285000Y-110550000D02*
X149285000Y-105350000D01*
G04 #@! TO.C,R1*
X152515000Y-44840000D02*
X153715000Y-44840000D01*
X153715000Y-46600000D02*
X152515000Y-46600000D01*
G04 #@! TO.C,RN2*
X124925000Y-79245000D02*
X124925000Y-82045000D01*
X124925000Y-82045000D02*
X150665000Y-82045000D01*
X150665000Y-82045000D02*
X150665000Y-79245000D01*
X150665000Y-79245000D02*
X124925000Y-79245000D01*
X127635000Y-79245000D02*
X127635000Y-82045000D01*
G04 #@! TO.C,RN3*
X108585000Y-84325000D02*
X108585000Y-87125000D01*
X131615000Y-84325000D02*
X105875000Y-84325000D01*
X131615000Y-87125000D02*
X131615000Y-84325000D01*
X105875000Y-87125000D02*
X131615000Y-87125000D01*
X105875000Y-84325000D02*
X105875000Y-87125000D01*
G04 #@! TO.C,RN1*
X137795000Y-84325000D02*
X137795000Y-87125000D01*
X150665000Y-84325000D02*
X135085000Y-84325000D01*
X150665000Y-87125000D02*
X150665000Y-84325000D01*
X135085000Y-87125000D02*
X150665000Y-87125000D01*
X135085000Y-84325000D02*
X135085000Y-87125000D01*
D13*
G04 #@! TO.C,J1*
X197459600Y-131953000D02*
X198069200Y-131953000D01*
X198069200Y-123723400D02*
X109270800Y-123723400D01*
X109270800Y-123723400D02*
X109270800Y-131953000D01*
X109270800Y-131953000D02*
X109880400Y-131953000D01*
X198069200Y-131953000D02*
X198069200Y-123723400D01*
X194970400Y-131953000D02*
X112369600Y-131953000D01*
X111125000Y-132511800D02*
X111125000Y-139446000D01*
X111125000Y-139446000D02*
X196215000Y-139446000D01*
X196215000Y-139446000D02*
X196215000Y-132511800D01*
D11*
G04 #@! TO.C,U14*
X193040000Y-58420000D02*
X177800000Y-58420000D01*
X193040000Y-76200000D02*
X193040000Y-58420000D01*
X175260000Y-76200000D02*
X193040000Y-76200000D01*
X175260000Y-60960000D02*
X175260000Y-76200000D01*
X177800000Y-58420000D02*
X175260000Y-60960000D01*
D14*
G04 #@! TO.C,REF\002A\002A\002A*
G36*
X196354744Y-120029918D02*
X196410201Y-120057568D01*
X196459148Y-120108480D01*
X196472629Y-120127338D01*
X196487314Y-120152015D01*
X196496842Y-120178816D01*
X196502293Y-120214587D01*
X196504747Y-120266169D01*
X196505286Y-120334267D01*
X196502852Y-120427588D01*
X196494394Y-120497657D01*
X196478174Y-120549931D01*
X196452454Y-120589869D01*
X196415497Y-120622929D01*
X196412782Y-120624886D01*
X196376360Y-120644908D01*
X196332502Y-120654815D01*
X196276724Y-120657257D01*
X196186048Y-120657257D01*
X196186010Y-120745283D01*
X196185166Y-120794308D01*
X196180024Y-120823065D01*
X196166587Y-120840311D01*
X196140858Y-120854808D01*
X196134679Y-120857769D01*
X196105764Y-120871648D01*
X196083376Y-120880414D01*
X196066729Y-120881171D01*
X196055036Y-120871023D01*
X196047510Y-120847073D01*
X196043366Y-120806426D01*
X196041815Y-120746186D01*
X196042071Y-120663455D01*
X196043349Y-120555339D01*
X196043748Y-120523000D01*
X196045185Y-120411524D01*
X196046472Y-120338603D01*
X196185971Y-120338603D01*
X196186755Y-120400499D01*
X196190240Y-120440997D01*
X196198124Y-120467708D01*
X196212105Y-120488244D01*
X196221597Y-120498260D01*
X196260404Y-120527567D01*
X196294763Y-120529952D01*
X196330216Y-120505750D01*
X196331114Y-120504857D01*
X196345539Y-120486153D01*
X196354313Y-120460732D01*
X196358739Y-120421584D01*
X196360118Y-120361697D01*
X196360143Y-120348430D01*
X196356812Y-120265901D01*
X196345969Y-120208691D01*
X196326340Y-120173766D01*
X196296650Y-120158094D01*
X196279491Y-120156514D01*
X196238766Y-120163926D01*
X196210832Y-120188330D01*
X196194017Y-120232980D01*
X196186650Y-120301130D01*
X196185971Y-120338603D01*
X196046472Y-120338603D01*
X196046708Y-120325245D01*
X196048677Y-120260333D01*
X196051450Y-120212958D01*
X196055388Y-120179290D01*
X196060849Y-120155498D01*
X196068192Y-120137753D01*
X196077777Y-120122224D01*
X196081887Y-120116381D01*
X196136405Y-120061185D01*
X196205336Y-120029890D01*
X196285072Y-120021165D01*
X196354744Y-120029918D01*
X196354744Y-120029918D01*
G37*
X196354744Y-120029918D02*
X196410201Y-120057568D01*
X196459148Y-120108480D01*
X196472629Y-120127338D01*
X196487314Y-120152015D01*
X196496842Y-120178816D01*
X196502293Y-120214587D01*
X196504747Y-120266169D01*
X196505286Y-120334267D01*
X196502852Y-120427588D01*
X196494394Y-120497657D01*
X196478174Y-120549931D01*
X196452454Y-120589869D01*
X196415497Y-120622929D01*
X196412782Y-120624886D01*
X196376360Y-120644908D01*
X196332502Y-120654815D01*
X196276724Y-120657257D01*
X196186048Y-120657257D01*
X196186010Y-120745283D01*
X196185166Y-120794308D01*
X196180024Y-120823065D01*
X196166587Y-120840311D01*
X196140858Y-120854808D01*
X196134679Y-120857769D01*
X196105764Y-120871648D01*
X196083376Y-120880414D01*
X196066729Y-120881171D01*
X196055036Y-120871023D01*
X196047510Y-120847073D01*
X196043366Y-120806426D01*
X196041815Y-120746186D01*
X196042071Y-120663455D01*
X196043349Y-120555339D01*
X196043748Y-120523000D01*
X196045185Y-120411524D01*
X196046472Y-120338603D01*
X196185971Y-120338603D01*
X196186755Y-120400499D01*
X196190240Y-120440997D01*
X196198124Y-120467708D01*
X196212105Y-120488244D01*
X196221597Y-120498260D01*
X196260404Y-120527567D01*
X196294763Y-120529952D01*
X196330216Y-120505750D01*
X196331114Y-120504857D01*
X196345539Y-120486153D01*
X196354313Y-120460732D01*
X196358739Y-120421584D01*
X196360118Y-120361697D01*
X196360143Y-120348430D01*
X196356812Y-120265901D01*
X196345969Y-120208691D01*
X196326340Y-120173766D01*
X196296650Y-120158094D01*
X196279491Y-120156514D01*
X196238766Y-120163926D01*
X196210832Y-120188330D01*
X196194017Y-120232980D01*
X196186650Y-120301130D01*
X196185971Y-120338603D01*
X196046472Y-120338603D01*
X196046708Y-120325245D01*
X196048677Y-120260333D01*
X196051450Y-120212958D01*
X196055388Y-120179290D01*
X196060849Y-120155498D01*
X196068192Y-120137753D01*
X196077777Y-120122224D01*
X196081887Y-120116381D01*
X196136405Y-120061185D01*
X196205336Y-120029890D01*
X196285072Y-120021165D01*
X196354744Y-120029918D01*
G36*
X197471093Y-120037780D02*
X197517672Y-120064723D01*
X197550057Y-120091466D01*
X197573742Y-120119484D01*
X197590059Y-120153748D01*
X197600339Y-120199227D01*
X197605914Y-120260892D01*
X197608116Y-120343711D01*
X197608371Y-120403246D01*
X197608371Y-120622391D01*
X197546686Y-120650044D01*
X197485000Y-120677697D01*
X197477743Y-120437670D01*
X197474744Y-120348028D01*
X197471598Y-120282962D01*
X197467701Y-120238026D01*
X197462447Y-120208770D01*
X197455231Y-120190748D01*
X197445450Y-120179511D01*
X197442312Y-120177079D01*
X197394761Y-120158083D01*
X197346697Y-120165600D01*
X197318086Y-120185543D01*
X197306447Y-120199675D01*
X197298391Y-120218220D01*
X197293271Y-120246334D01*
X197290441Y-120289173D01*
X197289256Y-120351895D01*
X197289057Y-120417261D01*
X197289018Y-120499268D01*
X197287614Y-120557316D01*
X197282914Y-120596465D01*
X197272987Y-120621780D01*
X197255903Y-120638323D01*
X197229732Y-120651156D01*
X197194775Y-120664491D01*
X197156596Y-120679007D01*
X197161141Y-120421389D01*
X197162971Y-120328519D01*
X197165112Y-120259889D01*
X197168181Y-120210711D01*
X197172794Y-120176198D01*
X197179568Y-120151562D01*
X197189119Y-120132016D01*
X197200634Y-120114770D01*
X197256190Y-120059680D01*
X197323980Y-120027822D01*
X197397713Y-120020191D01*
X197471093Y-120037780D01*
X197471093Y-120037780D01*
G37*
X197471093Y-120037780D02*
X197517672Y-120064723D01*
X197550057Y-120091466D01*
X197573742Y-120119484D01*
X197590059Y-120153748D01*
X197600339Y-120199227D01*
X197605914Y-120260892D01*
X197608116Y-120343711D01*
X197608371Y-120403246D01*
X197608371Y-120622391D01*
X197546686Y-120650044D01*
X197485000Y-120677697D01*
X197477743Y-120437670D01*
X197474744Y-120348028D01*
X197471598Y-120282962D01*
X197467701Y-120238026D01*
X197462447Y-120208770D01*
X197455231Y-120190748D01*
X197445450Y-120179511D01*
X197442312Y-120177079D01*
X197394761Y-120158083D01*
X197346697Y-120165600D01*
X197318086Y-120185543D01*
X197306447Y-120199675D01*
X197298391Y-120218220D01*
X197293271Y-120246334D01*
X197290441Y-120289173D01*
X197289256Y-120351895D01*
X197289057Y-120417261D01*
X197289018Y-120499268D01*
X197287614Y-120557316D01*
X197282914Y-120596465D01*
X197272987Y-120621780D01*
X197255903Y-120638323D01*
X197229732Y-120651156D01*
X197194775Y-120664491D01*
X197156596Y-120679007D01*
X197161141Y-120421389D01*
X197162971Y-120328519D01*
X197165112Y-120259889D01*
X197168181Y-120210711D01*
X197172794Y-120176198D01*
X197179568Y-120151562D01*
X197189119Y-120132016D01*
X197200634Y-120114770D01*
X197256190Y-120059680D01*
X197323980Y-120027822D01*
X197397713Y-120020191D01*
X197471093Y-120037780D01*
G36*
X195796115Y-120031962D02*
X195864145Y-120067733D01*
X195914351Y-120125301D01*
X195932185Y-120162312D01*
X195946063Y-120217882D01*
X195953167Y-120288096D01*
X195953840Y-120364727D01*
X195948427Y-120439552D01*
X195937270Y-120504342D01*
X195920714Y-120550873D01*
X195915626Y-120558887D01*
X195855355Y-120618707D01*
X195783769Y-120654535D01*
X195706092Y-120665020D01*
X195627548Y-120648810D01*
X195605689Y-120639092D01*
X195563122Y-120609143D01*
X195525763Y-120569433D01*
X195522232Y-120564397D01*
X195507881Y-120540124D01*
X195498394Y-120514178D01*
X195492790Y-120480022D01*
X195490086Y-120431119D01*
X195489299Y-120360935D01*
X195489286Y-120345200D01*
X195489322Y-120340192D01*
X195634429Y-120340192D01*
X195635273Y-120406430D01*
X195638596Y-120450386D01*
X195645583Y-120478779D01*
X195657416Y-120498325D01*
X195663457Y-120504857D01*
X195698186Y-120529680D01*
X195731903Y-120528548D01*
X195765995Y-120507016D01*
X195786329Y-120484029D01*
X195798371Y-120450478D01*
X195805134Y-120397569D01*
X195805598Y-120391399D01*
X195806752Y-120295513D01*
X195794688Y-120224299D01*
X195769570Y-120178194D01*
X195731560Y-120157635D01*
X195717992Y-120156514D01*
X195682364Y-120162152D01*
X195657994Y-120181686D01*
X195643093Y-120219042D01*
X195635875Y-120278150D01*
X195634429Y-120340192D01*
X195489322Y-120340192D01*
X195489826Y-120270413D01*
X195492096Y-120218159D01*
X195497068Y-120181949D01*
X195505713Y-120155299D01*
X195519005Y-120131722D01*
X195521943Y-120127338D01*
X195571313Y-120068249D01*
X195625109Y-120033947D01*
X195690602Y-120020331D01*
X195712842Y-120019665D01*
X195796115Y-120031962D01*
X195796115Y-120031962D01*
G37*
X195796115Y-120031962D02*
X195864145Y-120067733D01*
X195914351Y-120125301D01*
X195932185Y-120162312D01*
X195946063Y-120217882D01*
X195953167Y-120288096D01*
X195953840Y-120364727D01*
X195948427Y-120439552D01*
X195937270Y-120504342D01*
X195920714Y-120550873D01*
X195915626Y-120558887D01*
X195855355Y-120618707D01*
X195783769Y-120654535D01*
X195706092Y-120665020D01*
X195627548Y-120648810D01*
X195605689Y-120639092D01*
X195563122Y-120609143D01*
X195525763Y-120569433D01*
X195522232Y-120564397D01*
X195507881Y-120540124D01*
X195498394Y-120514178D01*
X195492790Y-120480022D01*
X195490086Y-120431119D01*
X195489299Y-120360935D01*
X195489286Y-120345200D01*
X195489322Y-120340192D01*
X195634429Y-120340192D01*
X195635273Y-120406430D01*
X195638596Y-120450386D01*
X195645583Y-120478779D01*
X195657416Y-120498325D01*
X195663457Y-120504857D01*
X195698186Y-120529680D01*
X195731903Y-120528548D01*
X195765995Y-120507016D01*
X195786329Y-120484029D01*
X195798371Y-120450478D01*
X195805134Y-120397569D01*
X195805598Y-120391399D01*
X195806752Y-120295513D01*
X195794688Y-120224299D01*
X195769570Y-120178194D01*
X195731560Y-120157635D01*
X195717992Y-120156514D01*
X195682364Y-120162152D01*
X195657994Y-120181686D01*
X195643093Y-120219042D01*
X195635875Y-120278150D01*
X195634429Y-120340192D01*
X195489322Y-120340192D01*
X195489826Y-120270413D01*
X195492096Y-120218159D01*
X195497068Y-120181949D01*
X195505713Y-120155299D01*
X195519005Y-120131722D01*
X195521943Y-120127338D01*
X195571313Y-120068249D01*
X195625109Y-120033947D01*
X195690602Y-120020331D01*
X195712842Y-120019665D01*
X195796115Y-120031962D01*
G36*
X196923303Y-120041239D02*
X196980527Y-120079735D01*
X197024749Y-120135335D01*
X197051167Y-120206086D01*
X197056510Y-120258162D01*
X197055903Y-120279893D01*
X197050822Y-120296531D01*
X197036855Y-120311437D01*
X197009589Y-120327973D01*
X196964612Y-120349498D01*
X196897511Y-120379374D01*
X196897171Y-120379524D01*
X196835407Y-120407813D01*
X196784759Y-120432933D01*
X196750404Y-120452179D01*
X196737518Y-120462848D01*
X196737514Y-120462934D01*
X196748872Y-120486166D01*
X196775431Y-120511774D01*
X196805923Y-120530221D01*
X196821370Y-120533886D01*
X196863515Y-120521212D01*
X196899808Y-120489471D01*
X196917517Y-120454572D01*
X196934552Y-120428845D01*
X196967922Y-120399546D01*
X197007149Y-120374235D01*
X197041756Y-120360471D01*
X197048993Y-120359714D01*
X197057139Y-120372160D01*
X197057630Y-120403972D01*
X197051643Y-120446866D01*
X197040357Y-120492558D01*
X197024950Y-120532761D01*
X197024171Y-120534322D01*
X196977804Y-120599062D01*
X196917711Y-120643097D01*
X196849465Y-120664711D01*
X196778638Y-120662185D01*
X196710804Y-120633804D01*
X196707788Y-120631808D01*
X196654427Y-120583448D01*
X196619340Y-120520352D01*
X196599922Y-120437387D01*
X196597316Y-120414078D01*
X196592701Y-120304055D01*
X196598233Y-120252748D01*
X196737514Y-120252748D01*
X196739324Y-120284753D01*
X196749222Y-120294093D01*
X196773898Y-120287105D01*
X196812795Y-120270587D01*
X196856275Y-120249881D01*
X196857356Y-120249333D01*
X196894209Y-120229949D01*
X196909000Y-120217013D01*
X196905353Y-120203451D01*
X196889995Y-120185632D01*
X196850923Y-120159845D01*
X196808846Y-120157950D01*
X196771103Y-120176717D01*
X196745034Y-120212915D01*
X196737514Y-120252748D01*
X196598233Y-120252748D01*
X196602194Y-120216027D01*
X196626550Y-120146212D01*
X196660456Y-120097302D01*
X196721653Y-120047878D01*
X196789063Y-120023359D01*
X196857880Y-120021797D01*
X196923303Y-120041239D01*
X196923303Y-120041239D01*
G37*
X196923303Y-120041239D02*
X196980527Y-120079735D01*
X197024749Y-120135335D01*
X197051167Y-120206086D01*
X197056510Y-120258162D01*
X197055903Y-120279893D01*
X197050822Y-120296531D01*
X197036855Y-120311437D01*
X197009589Y-120327973D01*
X196964612Y-120349498D01*
X196897511Y-120379374D01*
X196897171Y-120379524D01*
X196835407Y-120407813D01*
X196784759Y-120432933D01*
X196750404Y-120452179D01*
X196737518Y-120462848D01*
X196737514Y-120462934D01*
X196748872Y-120486166D01*
X196775431Y-120511774D01*
X196805923Y-120530221D01*
X196821370Y-120533886D01*
X196863515Y-120521212D01*
X196899808Y-120489471D01*
X196917517Y-120454572D01*
X196934552Y-120428845D01*
X196967922Y-120399546D01*
X197007149Y-120374235D01*
X197041756Y-120360471D01*
X197048993Y-120359714D01*
X197057139Y-120372160D01*
X197057630Y-120403972D01*
X197051643Y-120446866D01*
X197040357Y-120492558D01*
X197024950Y-120532761D01*
X197024171Y-120534322D01*
X196977804Y-120599062D01*
X196917711Y-120643097D01*
X196849465Y-120664711D01*
X196778638Y-120662185D01*
X196710804Y-120633804D01*
X196707788Y-120631808D01*
X196654427Y-120583448D01*
X196619340Y-120520352D01*
X196599922Y-120437387D01*
X196597316Y-120414078D01*
X196592701Y-120304055D01*
X196598233Y-120252748D01*
X196737514Y-120252748D01*
X196739324Y-120284753D01*
X196749222Y-120294093D01*
X196773898Y-120287105D01*
X196812795Y-120270587D01*
X196856275Y-120249881D01*
X196857356Y-120249333D01*
X196894209Y-120229949D01*
X196909000Y-120217013D01*
X196905353Y-120203451D01*
X196889995Y-120185632D01*
X196850923Y-120159845D01*
X196808846Y-120157950D01*
X196771103Y-120176717D01*
X196745034Y-120212915D01*
X196737514Y-120252748D01*
X196598233Y-120252748D01*
X196602194Y-120216027D01*
X196626550Y-120146212D01*
X196660456Y-120097302D01*
X196721653Y-120047878D01*
X196789063Y-120023359D01*
X196857880Y-120021797D01*
X196923303Y-120041239D01*
G36*
X198130886Y-119961289D02*
X198135139Y-120020613D01*
X198140025Y-120055572D01*
X198146795Y-120070820D01*
X198156702Y-120071015D01*
X198159914Y-120069195D01*
X198202644Y-120056015D01*
X198258227Y-120056785D01*
X198314737Y-120070333D01*
X198350082Y-120087861D01*
X198386321Y-120115861D01*
X198412813Y-120147549D01*
X198430999Y-120187813D01*
X198442322Y-120241543D01*
X198448222Y-120313626D01*
X198450143Y-120408951D01*
X198450177Y-120427237D01*
X198450200Y-120632646D01*
X198404491Y-120648580D01*
X198372027Y-120659420D01*
X198354215Y-120664468D01*
X198353691Y-120664514D01*
X198351937Y-120650828D01*
X198350444Y-120613076D01*
X198349326Y-120556224D01*
X198348697Y-120485234D01*
X198348600Y-120442073D01*
X198348398Y-120356973D01*
X198347358Y-120295981D01*
X198344831Y-120254177D01*
X198340164Y-120226642D01*
X198332707Y-120208456D01*
X198321811Y-120194698D01*
X198315007Y-120188073D01*
X198268272Y-120161375D01*
X198217272Y-120159375D01*
X198171001Y-120181955D01*
X198162444Y-120190107D01*
X198149893Y-120205436D01*
X198141188Y-120223618D01*
X198135631Y-120249909D01*
X198132526Y-120289562D01*
X198131176Y-120347832D01*
X198130886Y-120428173D01*
X198130886Y-120632646D01*
X198085177Y-120648580D01*
X198052713Y-120659420D01*
X198034901Y-120664468D01*
X198034377Y-120664514D01*
X198033037Y-120650623D01*
X198031828Y-120611439D01*
X198030801Y-120550700D01*
X198030002Y-120472141D01*
X198029481Y-120379498D01*
X198029286Y-120276509D01*
X198029286Y-119879342D01*
X198076457Y-119859444D01*
X198123629Y-119839547D01*
X198130886Y-119961289D01*
X198130886Y-119961289D01*
G37*
X198130886Y-119961289D02*
X198135139Y-120020613D01*
X198140025Y-120055572D01*
X198146795Y-120070820D01*
X198156702Y-120071015D01*
X198159914Y-120069195D01*
X198202644Y-120056015D01*
X198258227Y-120056785D01*
X198314737Y-120070333D01*
X198350082Y-120087861D01*
X198386321Y-120115861D01*
X198412813Y-120147549D01*
X198430999Y-120187813D01*
X198442322Y-120241543D01*
X198448222Y-120313626D01*
X198450143Y-120408951D01*
X198450177Y-120427237D01*
X198450200Y-120632646D01*
X198404491Y-120648580D01*
X198372027Y-120659420D01*
X198354215Y-120664468D01*
X198353691Y-120664514D01*
X198351937Y-120650828D01*
X198350444Y-120613076D01*
X198349326Y-120556224D01*
X198348697Y-120485234D01*
X198348600Y-120442073D01*
X198348398Y-120356973D01*
X198347358Y-120295981D01*
X198344831Y-120254177D01*
X198340164Y-120226642D01*
X198332707Y-120208456D01*
X198321811Y-120194698D01*
X198315007Y-120188073D01*
X198268272Y-120161375D01*
X198217272Y-120159375D01*
X198171001Y-120181955D01*
X198162444Y-120190107D01*
X198149893Y-120205436D01*
X198141188Y-120223618D01*
X198135631Y-120249909D01*
X198132526Y-120289562D01*
X198131176Y-120347832D01*
X198130886Y-120428173D01*
X198130886Y-120632646D01*
X198085177Y-120648580D01*
X198052713Y-120659420D01*
X198034901Y-120664468D01*
X198034377Y-120664514D01*
X198033037Y-120650623D01*
X198031828Y-120611439D01*
X198030801Y-120550700D01*
X198030002Y-120472141D01*
X198029481Y-120379498D01*
X198029286Y-120276509D01*
X198029286Y-119879342D01*
X198076457Y-119859444D01*
X198123629Y-119839547D01*
X198130886Y-119961289D01*
G36*
X198794744Y-120060968D02*
X198851616Y-120082087D01*
X198852267Y-120082493D01*
X198887440Y-120108380D01*
X198913407Y-120138633D01*
X198931670Y-120178058D01*
X198943732Y-120231462D01*
X198951096Y-120303651D01*
X198955264Y-120399432D01*
X198955629Y-120413078D01*
X198960876Y-120618842D01*
X198916716Y-120641678D01*
X198884763Y-120657110D01*
X198865470Y-120664423D01*
X198864578Y-120664514D01*
X198861239Y-120651022D01*
X198858587Y-120614626D01*
X198856956Y-120561452D01*
X198856600Y-120518393D01*
X198856592Y-120448641D01*
X198853403Y-120404837D01*
X198842288Y-120383944D01*
X198818501Y-120382925D01*
X198777296Y-120398741D01*
X198715086Y-120427815D01*
X198669341Y-120451963D01*
X198645813Y-120472913D01*
X198638896Y-120495747D01*
X198638886Y-120496877D01*
X198650299Y-120536212D01*
X198684092Y-120557462D01*
X198735809Y-120560539D01*
X198773061Y-120560006D01*
X198792703Y-120570735D01*
X198804952Y-120596505D01*
X198812002Y-120629337D01*
X198801842Y-120647966D01*
X198798017Y-120650632D01*
X198762001Y-120661340D01*
X198711566Y-120662856D01*
X198659626Y-120655759D01*
X198622822Y-120642788D01*
X198571938Y-120599585D01*
X198543014Y-120539446D01*
X198537286Y-120492462D01*
X198541657Y-120450082D01*
X198557475Y-120415488D01*
X198588797Y-120384763D01*
X198639678Y-120353990D01*
X198714176Y-120319252D01*
X198718714Y-120317288D01*
X198785821Y-120286287D01*
X198827232Y-120260862D01*
X198844981Y-120238014D01*
X198841107Y-120214745D01*
X198817643Y-120188056D01*
X198810627Y-120181914D01*
X198763630Y-120158100D01*
X198714933Y-120159103D01*
X198672522Y-120182451D01*
X198644384Y-120225675D01*
X198641769Y-120234160D01*
X198616308Y-120275308D01*
X198584001Y-120295128D01*
X198537286Y-120314770D01*
X198537286Y-120263950D01*
X198551496Y-120190082D01*
X198593675Y-120122327D01*
X198615624Y-120099661D01*
X198665517Y-120070569D01*
X198728967Y-120057400D01*
X198794744Y-120060968D01*
X198794744Y-120060968D01*
G37*
X198794744Y-120060968D02*
X198851616Y-120082087D01*
X198852267Y-120082493D01*
X198887440Y-120108380D01*
X198913407Y-120138633D01*
X198931670Y-120178058D01*
X198943732Y-120231462D01*
X198951096Y-120303651D01*
X198955264Y-120399432D01*
X198955629Y-120413078D01*
X198960876Y-120618842D01*
X198916716Y-120641678D01*
X198884763Y-120657110D01*
X198865470Y-120664423D01*
X198864578Y-120664514D01*
X198861239Y-120651022D01*
X198858587Y-120614626D01*
X198856956Y-120561452D01*
X198856600Y-120518393D01*
X198856592Y-120448641D01*
X198853403Y-120404837D01*
X198842288Y-120383944D01*
X198818501Y-120382925D01*
X198777296Y-120398741D01*
X198715086Y-120427815D01*
X198669341Y-120451963D01*
X198645813Y-120472913D01*
X198638896Y-120495747D01*
X198638886Y-120496877D01*
X198650299Y-120536212D01*
X198684092Y-120557462D01*
X198735809Y-120560539D01*
X198773061Y-120560006D01*
X198792703Y-120570735D01*
X198804952Y-120596505D01*
X198812002Y-120629337D01*
X198801842Y-120647966D01*
X198798017Y-120650632D01*
X198762001Y-120661340D01*
X198711566Y-120662856D01*
X198659626Y-120655759D01*
X198622822Y-120642788D01*
X198571938Y-120599585D01*
X198543014Y-120539446D01*
X198537286Y-120492462D01*
X198541657Y-120450082D01*
X198557475Y-120415488D01*
X198588797Y-120384763D01*
X198639678Y-120353990D01*
X198714176Y-120319252D01*
X198718714Y-120317288D01*
X198785821Y-120286287D01*
X198827232Y-120260862D01*
X198844981Y-120238014D01*
X198841107Y-120214745D01*
X198817643Y-120188056D01*
X198810627Y-120181914D01*
X198763630Y-120158100D01*
X198714933Y-120159103D01*
X198672522Y-120182451D01*
X198644384Y-120225675D01*
X198641769Y-120234160D01*
X198616308Y-120275308D01*
X198584001Y-120295128D01*
X198537286Y-120314770D01*
X198537286Y-120263950D01*
X198551496Y-120190082D01*
X198593675Y-120122327D01*
X198615624Y-120099661D01*
X198665517Y-120070569D01*
X198728967Y-120057400D01*
X198794744Y-120060968D01*
G36*
X199284926Y-120059755D02*
X199350858Y-120084084D01*
X199404273Y-120127117D01*
X199425164Y-120157409D01*
X199447939Y-120212994D01*
X199447466Y-120253186D01*
X199423562Y-120280217D01*
X199414717Y-120284813D01*
X199376530Y-120299144D01*
X199357028Y-120295472D01*
X199350422Y-120271407D01*
X199350086Y-120258114D01*
X199337992Y-120209210D01*
X199306471Y-120174999D01*
X199262659Y-120158476D01*
X199213695Y-120162634D01*
X199173894Y-120184227D01*
X199160450Y-120196544D01*
X199150921Y-120211487D01*
X199144485Y-120234075D01*
X199140317Y-120269328D01*
X199137597Y-120322266D01*
X199135502Y-120397907D01*
X199134960Y-120421857D01*
X199132981Y-120503790D01*
X199130731Y-120561455D01*
X199127357Y-120599608D01*
X199122006Y-120623004D01*
X199113824Y-120636398D01*
X199101959Y-120644545D01*
X199094362Y-120648144D01*
X199062102Y-120660452D01*
X199043111Y-120664514D01*
X199036836Y-120650948D01*
X199033006Y-120609934D01*
X199031600Y-120540999D01*
X199032598Y-120443669D01*
X199032908Y-120428657D01*
X199035101Y-120339859D01*
X199037693Y-120275019D01*
X199041382Y-120229067D01*
X199046864Y-120196935D01*
X199054835Y-120173553D01*
X199065993Y-120153852D01*
X199071830Y-120145410D01*
X199105296Y-120108057D01*
X199142727Y-120079003D01*
X199147309Y-120076467D01*
X199214426Y-120056443D01*
X199284926Y-120059755D01*
X199284926Y-120059755D01*
G37*
X199284926Y-120059755D02*
X199350858Y-120084084D01*
X199404273Y-120127117D01*
X199425164Y-120157409D01*
X199447939Y-120212994D01*
X199447466Y-120253186D01*
X199423562Y-120280217D01*
X199414717Y-120284813D01*
X199376530Y-120299144D01*
X199357028Y-120295472D01*
X199350422Y-120271407D01*
X199350086Y-120258114D01*
X199337992Y-120209210D01*
X199306471Y-120174999D01*
X199262659Y-120158476D01*
X199213695Y-120162634D01*
X199173894Y-120184227D01*
X199160450Y-120196544D01*
X199150921Y-120211487D01*
X199144485Y-120234075D01*
X199140317Y-120269328D01*
X199137597Y-120322266D01*
X199135502Y-120397907D01*
X199134960Y-120421857D01*
X199132981Y-120503790D01*
X199130731Y-120561455D01*
X199127357Y-120599608D01*
X199122006Y-120623004D01*
X199113824Y-120636398D01*
X199101959Y-120644545D01*
X199094362Y-120648144D01*
X199062102Y-120660452D01*
X199043111Y-120664514D01*
X199036836Y-120650948D01*
X199033006Y-120609934D01*
X199031600Y-120540999D01*
X199032598Y-120443669D01*
X199032908Y-120428657D01*
X199035101Y-120339859D01*
X199037693Y-120275019D01*
X199041382Y-120229067D01*
X199046864Y-120196935D01*
X199054835Y-120173553D01*
X199065993Y-120153852D01*
X199071830Y-120145410D01*
X199105296Y-120108057D01*
X199142727Y-120079003D01*
X199147309Y-120076467D01*
X199214426Y-120056443D01*
X199284926Y-120059755D01*
G36*
X199945117Y-120175358D02*
X199944933Y-120283837D01*
X199944219Y-120367287D01*
X199942675Y-120429704D01*
X199940001Y-120475085D01*
X199935894Y-120507429D01*
X199930055Y-120530733D01*
X199922182Y-120548995D01*
X199916221Y-120559418D01*
X199866855Y-120615945D01*
X199804264Y-120651377D01*
X199735013Y-120664090D01*
X199665668Y-120652463D01*
X199624375Y-120631568D01*
X199581025Y-120595422D01*
X199551481Y-120551276D01*
X199533655Y-120493462D01*
X199525463Y-120416313D01*
X199524302Y-120359714D01*
X199524458Y-120355647D01*
X199625857Y-120355647D01*
X199626476Y-120420550D01*
X199629314Y-120463514D01*
X199635840Y-120491622D01*
X199647523Y-120511953D01*
X199661483Y-120527288D01*
X199708365Y-120556890D01*
X199758701Y-120559419D01*
X199806276Y-120534705D01*
X199809979Y-120531356D01*
X199825783Y-120513935D01*
X199835693Y-120493209D01*
X199841058Y-120462362D01*
X199843228Y-120414577D01*
X199843571Y-120361748D01*
X199842827Y-120295381D01*
X199839748Y-120251106D01*
X199833061Y-120222009D01*
X199821496Y-120201173D01*
X199812013Y-120190107D01*
X199767960Y-120162198D01*
X199717224Y-120158843D01*
X199668796Y-120180159D01*
X199659450Y-120188073D01*
X199643540Y-120205647D01*
X199633610Y-120226587D01*
X199628278Y-120257782D01*
X199626163Y-120306122D01*
X199625857Y-120355647D01*
X199524458Y-120355647D01*
X199527810Y-120268568D01*
X199539726Y-120200086D01*
X199562135Y-120148600D01*
X199597124Y-120108443D01*
X199624375Y-120087861D01*
X199673907Y-120065625D01*
X199731316Y-120055304D01*
X199784682Y-120058067D01*
X199814543Y-120069212D01*
X199826261Y-120072383D01*
X199834037Y-120060557D01*
X199839465Y-120028866D01*
X199843571Y-119980593D01*
X199848067Y-119926829D01*
X199854313Y-119894482D01*
X199865676Y-119875985D01*
X199885528Y-119863770D01*
X199898000Y-119858362D01*
X199945171Y-119838601D01*
X199945117Y-120175358D01*
X199945117Y-120175358D01*
G37*
X199945117Y-120175358D02*
X199944933Y-120283837D01*
X199944219Y-120367287D01*
X199942675Y-120429704D01*
X199940001Y-120475085D01*
X199935894Y-120507429D01*
X199930055Y-120530733D01*
X199922182Y-120548995D01*
X199916221Y-120559418D01*
X199866855Y-120615945D01*
X199804264Y-120651377D01*
X199735013Y-120664090D01*
X199665668Y-120652463D01*
X199624375Y-120631568D01*
X199581025Y-120595422D01*
X199551481Y-120551276D01*
X199533655Y-120493462D01*
X199525463Y-120416313D01*
X199524302Y-120359714D01*
X199524458Y-120355647D01*
X199625857Y-120355647D01*
X199626476Y-120420550D01*
X199629314Y-120463514D01*
X199635840Y-120491622D01*
X199647523Y-120511953D01*
X199661483Y-120527288D01*
X199708365Y-120556890D01*
X199758701Y-120559419D01*
X199806276Y-120534705D01*
X199809979Y-120531356D01*
X199825783Y-120513935D01*
X199835693Y-120493209D01*
X199841058Y-120462362D01*
X199843228Y-120414577D01*
X199843571Y-120361748D01*
X199842827Y-120295381D01*
X199839748Y-120251106D01*
X199833061Y-120222009D01*
X199821496Y-120201173D01*
X199812013Y-120190107D01*
X199767960Y-120162198D01*
X199717224Y-120158843D01*
X199668796Y-120180159D01*
X199659450Y-120188073D01*
X199643540Y-120205647D01*
X199633610Y-120226587D01*
X199628278Y-120257782D01*
X199626163Y-120306122D01*
X199625857Y-120355647D01*
X199524458Y-120355647D01*
X199527810Y-120268568D01*
X199539726Y-120200086D01*
X199562135Y-120148600D01*
X199597124Y-120108443D01*
X199624375Y-120087861D01*
X199673907Y-120065625D01*
X199731316Y-120055304D01*
X199784682Y-120058067D01*
X199814543Y-120069212D01*
X199826261Y-120072383D01*
X199834037Y-120060557D01*
X199839465Y-120028866D01*
X199843571Y-119980593D01*
X199848067Y-119926829D01*
X199854313Y-119894482D01*
X199865676Y-119875985D01*
X199885528Y-119863770D01*
X199898000Y-119858362D01*
X199945171Y-119838601D01*
X199945117Y-120175358D01*
G36*
X200534833Y-120068663D02*
X200537048Y-120106850D01*
X200538784Y-120164886D01*
X200539899Y-120238180D01*
X200540257Y-120315055D01*
X200540257Y-120575196D01*
X200494326Y-120621127D01*
X200462675Y-120649429D01*
X200434890Y-120660893D01*
X200396915Y-120660168D01*
X200381840Y-120658321D01*
X200334726Y-120652948D01*
X200295756Y-120649869D01*
X200286257Y-120649585D01*
X200254233Y-120651445D01*
X200208432Y-120656114D01*
X200190674Y-120658321D01*
X200147057Y-120661735D01*
X200117745Y-120654320D01*
X200088680Y-120631427D01*
X200078188Y-120621127D01*
X200032257Y-120575196D01*
X200032257Y-120088602D01*
X200069226Y-120071758D01*
X200101059Y-120059282D01*
X200119683Y-120054914D01*
X200124458Y-120068718D01*
X200128921Y-120107286D01*
X200132775Y-120166356D01*
X200135722Y-120241663D01*
X200137143Y-120305286D01*
X200141114Y-120555657D01*
X200175759Y-120560556D01*
X200207268Y-120557131D01*
X200222708Y-120546041D01*
X200227023Y-120525308D01*
X200230708Y-120481145D01*
X200233469Y-120419146D01*
X200235012Y-120344909D01*
X200235235Y-120306706D01*
X200235457Y-120086783D01*
X200281166Y-120070849D01*
X200313518Y-120060015D01*
X200331115Y-120054962D01*
X200331623Y-120054914D01*
X200333388Y-120068648D01*
X200335329Y-120106730D01*
X200337282Y-120164482D01*
X200339084Y-120237227D01*
X200340343Y-120305286D01*
X200344314Y-120555657D01*
X200431400Y-120555657D01*
X200435396Y-120327240D01*
X200439392Y-120098822D01*
X200481847Y-120076868D01*
X200513192Y-120061793D01*
X200531744Y-120054951D01*
X200532279Y-120054914D01*
X200534833Y-120068663D01*
X200534833Y-120068663D01*
G37*
X200534833Y-120068663D02*
X200537048Y-120106850D01*
X200538784Y-120164886D01*
X200539899Y-120238180D01*
X200540257Y-120315055D01*
X200540257Y-120575196D01*
X200494326Y-120621127D01*
X200462675Y-120649429D01*
X200434890Y-120660893D01*
X200396915Y-120660168D01*
X200381840Y-120658321D01*
X200334726Y-120652948D01*
X200295756Y-120649869D01*
X200286257Y-120649585D01*
X200254233Y-120651445D01*
X200208432Y-120656114D01*
X200190674Y-120658321D01*
X200147057Y-120661735D01*
X200117745Y-120654320D01*
X200088680Y-120631427D01*
X200078188Y-120621127D01*
X200032257Y-120575196D01*
X200032257Y-120088602D01*
X200069226Y-120071758D01*
X200101059Y-120059282D01*
X200119683Y-120054914D01*
X200124458Y-120068718D01*
X200128921Y-120107286D01*
X200132775Y-120166356D01*
X200135722Y-120241663D01*
X200137143Y-120305286D01*
X200141114Y-120555657D01*
X200175759Y-120560556D01*
X200207268Y-120557131D01*
X200222708Y-120546041D01*
X200227023Y-120525308D01*
X200230708Y-120481145D01*
X200233469Y-120419146D01*
X200235012Y-120344909D01*
X200235235Y-120306706D01*
X200235457Y-120086783D01*
X200281166Y-120070849D01*
X200313518Y-120060015D01*
X200331115Y-120054962D01*
X200331623Y-120054914D01*
X200333388Y-120068648D01*
X200335329Y-120106730D01*
X200337282Y-120164482D01*
X200339084Y-120237227D01*
X200340343Y-120305286D01*
X200344314Y-120555657D01*
X200431400Y-120555657D01*
X200435396Y-120327240D01*
X200439392Y-120098822D01*
X200481847Y-120076868D01*
X200513192Y-120061793D01*
X200531744Y-120054951D01*
X200532279Y-120054914D01*
X200534833Y-120068663D01*
G36*
X200899876Y-120066335D02*
X200941667Y-120085344D01*
X200974469Y-120108378D01*
X200998503Y-120134133D01*
X201015097Y-120167358D01*
X201025577Y-120212800D01*
X201031271Y-120275207D01*
X201033507Y-120359327D01*
X201033743Y-120414721D01*
X201033743Y-120630826D01*
X200996774Y-120647670D01*
X200967656Y-120659981D01*
X200953231Y-120664514D01*
X200950472Y-120651025D01*
X200948282Y-120614653D01*
X200946942Y-120561542D01*
X200946657Y-120519372D01*
X200945434Y-120458447D01*
X200942136Y-120410115D01*
X200937321Y-120380518D01*
X200933496Y-120374229D01*
X200907783Y-120380652D01*
X200867418Y-120397125D01*
X200820679Y-120419458D01*
X200775845Y-120443457D01*
X200741193Y-120464930D01*
X200725002Y-120479685D01*
X200724938Y-120479845D01*
X200726330Y-120507152D01*
X200738818Y-120533219D01*
X200760743Y-120554392D01*
X200792743Y-120561474D01*
X200820092Y-120560649D01*
X200858826Y-120560042D01*
X200879158Y-120569116D01*
X200891369Y-120593092D01*
X200892909Y-120597613D01*
X200898203Y-120631806D01*
X200884047Y-120652568D01*
X200847148Y-120662462D01*
X200807289Y-120664292D01*
X200735562Y-120650727D01*
X200698432Y-120631355D01*
X200652576Y-120585845D01*
X200628256Y-120529983D01*
X200626073Y-120470957D01*
X200646629Y-120415953D01*
X200677549Y-120381486D01*
X200708420Y-120362189D01*
X200756942Y-120337759D01*
X200813485Y-120312985D01*
X200822910Y-120309199D01*
X200885019Y-120281791D01*
X200920822Y-120257634D01*
X200932337Y-120233619D01*
X200921580Y-120206635D01*
X200903114Y-120185543D01*
X200859469Y-120159572D01*
X200811446Y-120157624D01*
X200767406Y-120177637D01*
X200735709Y-120217551D01*
X200731549Y-120227848D01*
X200707327Y-120265724D01*
X200671965Y-120293842D01*
X200627343Y-120316917D01*
X200627343Y-120251485D01*
X200629969Y-120211506D01*
X200641230Y-120179997D01*
X200666199Y-120146378D01*
X200690169Y-120120484D01*
X200727441Y-120083817D01*
X200756401Y-120064121D01*
X200787505Y-120056220D01*
X200822713Y-120054914D01*
X200899876Y-120066335D01*
X200899876Y-120066335D01*
G37*
X200899876Y-120066335D02*
X200941667Y-120085344D01*
X200974469Y-120108378D01*
X200998503Y-120134133D01*
X201015097Y-120167358D01*
X201025577Y-120212800D01*
X201031271Y-120275207D01*
X201033507Y-120359327D01*
X201033743Y-120414721D01*
X201033743Y-120630826D01*
X200996774Y-120647670D01*
X200967656Y-120659981D01*
X200953231Y-120664514D01*
X200950472Y-120651025D01*
X200948282Y-120614653D01*
X200946942Y-120561542D01*
X200946657Y-120519372D01*
X200945434Y-120458447D01*
X200942136Y-120410115D01*
X200937321Y-120380518D01*
X200933496Y-120374229D01*
X200907783Y-120380652D01*
X200867418Y-120397125D01*
X200820679Y-120419458D01*
X200775845Y-120443457D01*
X200741193Y-120464930D01*
X200725002Y-120479685D01*
X200724938Y-120479845D01*
X200726330Y-120507152D01*
X200738818Y-120533219D01*
X200760743Y-120554392D01*
X200792743Y-120561474D01*
X200820092Y-120560649D01*
X200858826Y-120560042D01*
X200879158Y-120569116D01*
X200891369Y-120593092D01*
X200892909Y-120597613D01*
X200898203Y-120631806D01*
X200884047Y-120652568D01*
X200847148Y-120662462D01*
X200807289Y-120664292D01*
X200735562Y-120650727D01*
X200698432Y-120631355D01*
X200652576Y-120585845D01*
X200628256Y-120529983D01*
X200626073Y-120470957D01*
X200646629Y-120415953D01*
X200677549Y-120381486D01*
X200708420Y-120362189D01*
X200756942Y-120337759D01*
X200813485Y-120312985D01*
X200822910Y-120309199D01*
X200885019Y-120281791D01*
X200920822Y-120257634D01*
X200932337Y-120233619D01*
X200921580Y-120206635D01*
X200903114Y-120185543D01*
X200859469Y-120159572D01*
X200811446Y-120157624D01*
X200767406Y-120177637D01*
X200735709Y-120217551D01*
X200731549Y-120227848D01*
X200707327Y-120265724D01*
X200671965Y-120293842D01*
X200627343Y-120316917D01*
X200627343Y-120251485D01*
X200629969Y-120211506D01*
X200641230Y-120179997D01*
X200666199Y-120146378D01*
X200690169Y-120120484D01*
X200727441Y-120083817D01*
X200756401Y-120064121D01*
X200787505Y-120056220D01*
X200822713Y-120054914D01*
X200899876Y-120066335D01*
G36*
X201407600Y-120068752D02*
X201424948Y-120076334D01*
X201466356Y-120109128D01*
X201501765Y-120156547D01*
X201523664Y-120207151D01*
X201527229Y-120232098D01*
X201515279Y-120266927D01*
X201489067Y-120285357D01*
X201460964Y-120296516D01*
X201448095Y-120298572D01*
X201441829Y-120283649D01*
X201429456Y-120251175D01*
X201424028Y-120236502D01*
X201393590Y-120185744D01*
X201349520Y-120160427D01*
X201293010Y-120161206D01*
X201288825Y-120162203D01*
X201258655Y-120176507D01*
X201236476Y-120204393D01*
X201221327Y-120249287D01*
X201212250Y-120314615D01*
X201208286Y-120403804D01*
X201207914Y-120451261D01*
X201207730Y-120526071D01*
X201206522Y-120577069D01*
X201203309Y-120609471D01*
X201197109Y-120628495D01*
X201186940Y-120639356D01*
X201171819Y-120647272D01*
X201170946Y-120647670D01*
X201141828Y-120659981D01*
X201127403Y-120664514D01*
X201125186Y-120650809D01*
X201123289Y-120612925D01*
X201121847Y-120555715D01*
X201120998Y-120484027D01*
X201120829Y-120431565D01*
X201121692Y-120330047D01*
X201125070Y-120253032D01*
X201132142Y-120196023D01*
X201144088Y-120154526D01*
X201162090Y-120124043D01*
X201187327Y-120100080D01*
X201212247Y-120083355D01*
X201272171Y-120061097D01*
X201341911Y-120056076D01*
X201407600Y-120068752D01*
X201407600Y-120068752D01*
G37*
X201407600Y-120068752D02*
X201424948Y-120076334D01*
X201466356Y-120109128D01*
X201501765Y-120156547D01*
X201523664Y-120207151D01*
X201527229Y-120232098D01*
X201515279Y-120266927D01*
X201489067Y-120285357D01*
X201460964Y-120296516D01*
X201448095Y-120298572D01*
X201441829Y-120283649D01*
X201429456Y-120251175D01*
X201424028Y-120236502D01*
X201393590Y-120185744D01*
X201349520Y-120160427D01*
X201293010Y-120161206D01*
X201288825Y-120162203D01*
X201258655Y-120176507D01*
X201236476Y-120204393D01*
X201221327Y-120249287D01*
X201212250Y-120314615D01*
X201208286Y-120403804D01*
X201207914Y-120451261D01*
X201207730Y-120526071D01*
X201206522Y-120577069D01*
X201203309Y-120609471D01*
X201197109Y-120628495D01*
X201186940Y-120639356D01*
X201171819Y-120647272D01*
X201170946Y-120647670D01*
X201141828Y-120659981D01*
X201127403Y-120664514D01*
X201125186Y-120650809D01*
X201123289Y-120612925D01*
X201121847Y-120555715D01*
X201120998Y-120484027D01*
X201120829Y-120431565D01*
X201121692Y-120330047D01*
X201125070Y-120253032D01*
X201132142Y-120196023D01*
X201144088Y-120154526D01*
X201162090Y-120124043D01*
X201187327Y-120100080D01*
X201212247Y-120083355D01*
X201272171Y-120061097D01*
X201341911Y-120056076D01*
X201407600Y-120068752D01*
G36*
X201908595Y-120076966D02*
X201966021Y-120114497D01*
X201993719Y-120148096D01*
X202015662Y-120209064D01*
X202017405Y-120257308D01*
X202013457Y-120321816D01*
X201864686Y-120386934D01*
X201792349Y-120420202D01*
X201745084Y-120446964D01*
X201720507Y-120470144D01*
X201716237Y-120492667D01*
X201729889Y-120517455D01*
X201744943Y-120533886D01*
X201788746Y-120560235D01*
X201836389Y-120562081D01*
X201880145Y-120541546D01*
X201912289Y-120500752D01*
X201918038Y-120486347D01*
X201945576Y-120441356D01*
X201977258Y-120422182D01*
X202020714Y-120405779D01*
X202020714Y-120467966D01*
X202016872Y-120510283D01*
X202001823Y-120545969D01*
X201970280Y-120586943D01*
X201965592Y-120592267D01*
X201930506Y-120628720D01*
X201900347Y-120648283D01*
X201862615Y-120657283D01*
X201831335Y-120660230D01*
X201775385Y-120660965D01*
X201735555Y-120651660D01*
X201710708Y-120637846D01*
X201671656Y-120607467D01*
X201644625Y-120574613D01*
X201627517Y-120533294D01*
X201618238Y-120477521D01*
X201614693Y-120401305D01*
X201614410Y-120362622D01*
X201615372Y-120316247D01*
X201703007Y-120316247D01*
X201704023Y-120341126D01*
X201706556Y-120345200D01*
X201723274Y-120339665D01*
X201759249Y-120325017D01*
X201807331Y-120304190D01*
X201817386Y-120299714D01*
X201878152Y-120268814D01*
X201911632Y-120241657D01*
X201918990Y-120216220D01*
X201901391Y-120190481D01*
X201886856Y-120179109D01*
X201834410Y-120156364D01*
X201785322Y-120160122D01*
X201744227Y-120187884D01*
X201715758Y-120237152D01*
X201706631Y-120276257D01*
X201703007Y-120316247D01*
X201615372Y-120316247D01*
X201616285Y-120272249D01*
X201623196Y-120205384D01*
X201636884Y-120156695D01*
X201659096Y-120120849D01*
X201691574Y-120092513D01*
X201705733Y-120083355D01*
X201770053Y-120059507D01*
X201840473Y-120058006D01*
X201908595Y-120076966D01*
X201908595Y-120076966D01*
G37*
X201908595Y-120076966D02*
X201966021Y-120114497D01*
X201993719Y-120148096D01*
X202015662Y-120209064D01*
X202017405Y-120257308D01*
X202013457Y-120321816D01*
X201864686Y-120386934D01*
X201792349Y-120420202D01*
X201745084Y-120446964D01*
X201720507Y-120470144D01*
X201716237Y-120492667D01*
X201729889Y-120517455D01*
X201744943Y-120533886D01*
X201788746Y-120560235D01*
X201836389Y-120562081D01*
X201880145Y-120541546D01*
X201912289Y-120500752D01*
X201918038Y-120486347D01*
X201945576Y-120441356D01*
X201977258Y-120422182D01*
X202020714Y-120405779D01*
X202020714Y-120467966D01*
X202016872Y-120510283D01*
X202001823Y-120545969D01*
X201970280Y-120586943D01*
X201965592Y-120592267D01*
X201930506Y-120628720D01*
X201900347Y-120648283D01*
X201862615Y-120657283D01*
X201831335Y-120660230D01*
X201775385Y-120660965D01*
X201735555Y-120651660D01*
X201710708Y-120637846D01*
X201671656Y-120607467D01*
X201644625Y-120574613D01*
X201627517Y-120533294D01*
X201618238Y-120477521D01*
X201614693Y-120401305D01*
X201614410Y-120362622D01*
X201615372Y-120316247D01*
X201703007Y-120316247D01*
X201704023Y-120341126D01*
X201706556Y-120345200D01*
X201723274Y-120339665D01*
X201759249Y-120325017D01*
X201807331Y-120304190D01*
X201817386Y-120299714D01*
X201878152Y-120268814D01*
X201911632Y-120241657D01*
X201918990Y-120216220D01*
X201901391Y-120190481D01*
X201886856Y-120179109D01*
X201834410Y-120156364D01*
X201785322Y-120160122D01*
X201744227Y-120187884D01*
X201715758Y-120237152D01*
X201706631Y-120276257D01*
X201703007Y-120316247D01*
X201615372Y-120316247D01*
X201616285Y-120272249D01*
X201623196Y-120205384D01*
X201636884Y-120156695D01*
X201659096Y-120120849D01*
X201691574Y-120092513D01*
X201705733Y-120083355D01*
X201770053Y-120059507D01*
X201840473Y-120058006D01*
X201908595Y-120076966D01*
G36*
X198858910Y-115352348D02*
X198937454Y-115352778D01*
X198994298Y-115353942D01*
X199033105Y-115356207D01*
X199057538Y-115359940D01*
X199071262Y-115365506D01*
X199077940Y-115373273D01*
X199081236Y-115383605D01*
X199081556Y-115384943D01*
X199086562Y-115409079D01*
X199095829Y-115456701D01*
X199108392Y-115522741D01*
X199123287Y-115602128D01*
X199139551Y-115689796D01*
X199140119Y-115692875D01*
X199156410Y-115778789D01*
X199171652Y-115854696D01*
X199184861Y-115916045D01*
X199195054Y-115958282D01*
X199201248Y-115976855D01*
X199201543Y-115977184D01*
X199219788Y-115986253D01*
X199257405Y-116001367D01*
X199306271Y-116019262D01*
X199306543Y-116019358D01*
X199368093Y-116042493D01*
X199440657Y-116071965D01*
X199509057Y-116101597D01*
X199512294Y-116103062D01*
X199623702Y-116153626D01*
X199870399Y-115985160D01*
X199946077Y-115933803D01*
X200014631Y-115887889D01*
X200072088Y-115850030D01*
X200114476Y-115822837D01*
X200137825Y-115808921D01*
X200140042Y-115807889D01*
X200157010Y-115812484D01*
X200188701Y-115834655D01*
X200236352Y-115875447D01*
X200301198Y-115935905D01*
X200367397Y-116000227D01*
X200431214Y-116063612D01*
X200488329Y-116121451D01*
X200535305Y-116170175D01*
X200568703Y-116206210D01*
X200585085Y-116225984D01*
X200585694Y-116227002D01*
X200587505Y-116240572D01*
X200580683Y-116262733D01*
X200563540Y-116296478D01*
X200534393Y-116344800D01*
X200491555Y-116410692D01*
X200434448Y-116495517D01*
X200383766Y-116570177D01*
X200338461Y-116637140D01*
X200301150Y-116692516D01*
X200274452Y-116732420D01*
X200260985Y-116752962D01*
X200260137Y-116754356D01*
X200261781Y-116774038D01*
X200274245Y-116812293D01*
X200295048Y-116861889D01*
X200302462Y-116877728D01*
X200334814Y-116948290D01*
X200369328Y-117028353D01*
X200397365Y-117097629D01*
X200417568Y-117149045D01*
X200433615Y-117188119D01*
X200442888Y-117208541D01*
X200444041Y-117210114D01*
X200461096Y-117212721D01*
X200501298Y-117219863D01*
X200559302Y-117230523D01*
X200629763Y-117243685D01*
X200707335Y-117258333D01*
X200786672Y-117273449D01*
X200862431Y-117288018D01*
X200929264Y-117301022D01*
X200981828Y-117311445D01*
X201014776Y-117318270D01*
X201022857Y-117320199D01*
X201031205Y-117324962D01*
X201037506Y-117335718D01*
X201042045Y-117356098D01*
X201045104Y-117389734D01*
X201046967Y-117440255D01*
X201047918Y-117511292D01*
X201048240Y-117606476D01*
X201048257Y-117645492D01*
X201048257Y-117962799D01*
X200972057Y-117977839D01*
X200929663Y-117985995D01*
X200866400Y-117997899D01*
X200789962Y-118012116D01*
X200708043Y-118027210D01*
X200685400Y-118031355D01*
X200609806Y-118046053D01*
X200543953Y-118060505D01*
X200493366Y-118073375D01*
X200463574Y-118083322D01*
X200458612Y-118086287D01*
X200446426Y-118107283D01*
X200428953Y-118147967D01*
X200409577Y-118200322D01*
X200405734Y-118211600D01*
X200380339Y-118281523D01*
X200348817Y-118360418D01*
X200317969Y-118431266D01*
X200317817Y-118431595D01*
X200266447Y-118542733D01*
X200435399Y-118791253D01*
X200604352Y-119039772D01*
X200387429Y-119257058D01*
X200321819Y-119321726D01*
X200261979Y-119378733D01*
X200211267Y-119425033D01*
X200173046Y-119457584D01*
X200150675Y-119473343D01*
X200147466Y-119474343D01*
X200128626Y-119466469D01*
X200090180Y-119444578D01*
X200036330Y-119411267D01*
X199971276Y-119369131D01*
X199900940Y-119321943D01*
X199829555Y-119273810D01*
X199765908Y-119231928D01*
X199714041Y-119198871D01*
X199677995Y-119177218D01*
X199661867Y-119169543D01*
X199642189Y-119176037D01*
X199604875Y-119193150D01*
X199557621Y-119217326D01*
X199552612Y-119220013D01*
X199488977Y-119251927D01*
X199445341Y-119267579D01*
X199418202Y-119267745D01*
X199404057Y-119253204D01*
X199403975Y-119253000D01*
X199396905Y-119235779D01*
X199380042Y-119194899D01*
X199354695Y-119133525D01*
X199322171Y-119054819D01*
X199283778Y-118961947D01*
X199240822Y-118858072D01*
X199199222Y-118757502D01*
X199153504Y-118646516D01*
X199111526Y-118543703D01*
X199074548Y-118452215D01*
X199043827Y-118375201D01*
X199020622Y-118315815D01*
X199006190Y-118277209D01*
X199001743Y-118262800D01*
X199012896Y-118246272D01*
X199042069Y-118219930D01*
X199080971Y-118190887D01*
X199191757Y-118099039D01*
X199278351Y-117993759D01*
X199339716Y-117877266D01*
X199374815Y-117751776D01*
X199382608Y-117619507D01*
X199376943Y-117558457D01*
X199346078Y-117431795D01*
X199292920Y-117319941D01*
X199220767Y-117224001D01*
X199132917Y-117145076D01*
X199032665Y-117084270D01*
X198923310Y-117042687D01*
X198808147Y-117021428D01*
X198690475Y-117021599D01*
X198573590Y-117044301D01*
X198460789Y-117090638D01*
X198355369Y-117161713D01*
X198311368Y-117201911D01*
X198226979Y-117305129D01*
X198168222Y-117417925D01*
X198134704Y-117537010D01*
X198126035Y-117659095D01*
X198141823Y-117780893D01*
X198181678Y-117899116D01*
X198245207Y-118010475D01*
X198332021Y-118111684D01*
X198429029Y-118190887D01*
X198469437Y-118221162D01*
X198497982Y-118247219D01*
X198508257Y-118262825D01*
X198502877Y-118279843D01*
X198487575Y-118320500D01*
X198463612Y-118381642D01*
X198432244Y-118460119D01*
X198394732Y-118552780D01*
X198352333Y-118656472D01*
X198310663Y-118757526D01*
X198264690Y-118868607D01*
X198222107Y-118971541D01*
X198184221Y-119063165D01*
X198152340Y-119140316D01*
X198127771Y-119199831D01*
X198111820Y-119238544D01*
X198105910Y-119253000D01*
X198091948Y-119267685D01*
X198064940Y-119267642D01*
X198021413Y-119252099D01*
X197957890Y-119220284D01*
X197957388Y-119220013D01*
X197909560Y-119195323D01*
X197870897Y-119177338D01*
X197849095Y-119169614D01*
X197848133Y-119169543D01*
X197831721Y-119177378D01*
X197795487Y-119199165D01*
X197743474Y-119232328D01*
X197679725Y-119274291D01*
X197609060Y-119321943D01*
X197537116Y-119370191D01*
X197472274Y-119412151D01*
X197418735Y-119445227D01*
X197380697Y-119466821D01*
X197362533Y-119474343D01*
X197345808Y-119464457D01*
X197312180Y-119436826D01*
X197265010Y-119394495D01*
X197207658Y-119340505D01*
X197143484Y-119277899D01*
X197122497Y-119256983D01*
X196905499Y-119039623D01*
X197070668Y-118797220D01*
X197120864Y-118722781D01*
X197164919Y-118655972D01*
X197200362Y-118600665D01*
X197224719Y-118560729D01*
X197235522Y-118540036D01*
X197235838Y-118538563D01*
X197230143Y-118519058D01*
X197214826Y-118479822D01*
X197192537Y-118427430D01*
X197176893Y-118392355D01*
X197147641Y-118325201D01*
X197120094Y-118257358D01*
X197098737Y-118200034D01*
X197092935Y-118182572D01*
X197076452Y-118135938D01*
X197060340Y-118099905D01*
X197051490Y-118086287D01*
X197031960Y-118077952D01*
X196989334Y-118066137D01*
X196929145Y-118052181D01*
X196856922Y-118037422D01*
X196824600Y-118031355D01*
X196742522Y-118016273D01*
X196663795Y-118001669D01*
X196596109Y-117988980D01*
X196547160Y-117979642D01*
X196537943Y-117977839D01*
X196461743Y-117962799D01*
X196461743Y-117645492D01*
X196461914Y-117541154D01*
X196462616Y-117462213D01*
X196464134Y-117405038D01*
X196466749Y-117365999D01*
X196470746Y-117341465D01*
X196476409Y-117327805D01*
X196484020Y-117321389D01*
X196487143Y-117320199D01*
X196505978Y-117315980D01*
X196547588Y-117307562D01*
X196606630Y-117295961D01*
X196677757Y-117282195D01*
X196755625Y-117267280D01*
X196834887Y-117252232D01*
X196910198Y-117238069D01*
X196976213Y-117225806D01*
X197027587Y-117216461D01*
X197058975Y-117211050D01*
X197065959Y-117210114D01*
X197072285Y-117197596D01*
X197086290Y-117164246D01*
X197105355Y-117116377D01*
X197112634Y-117097629D01*
X197141996Y-117025195D01*
X197176571Y-116945170D01*
X197207537Y-116877728D01*
X197230323Y-116826159D01*
X197245482Y-116783785D01*
X197250542Y-116757834D01*
X197249736Y-116754356D01*
X197239041Y-116737936D01*
X197214620Y-116701417D01*
X197179095Y-116648687D01*
X197135087Y-116583635D01*
X197085217Y-116510151D01*
X197075356Y-116495645D01*
X197017492Y-116409704D01*
X196974956Y-116344261D01*
X196946054Y-116296304D01*
X196929090Y-116262820D01*
X196922367Y-116240795D01*
X196924190Y-116227217D01*
X196924236Y-116227131D01*
X196938586Y-116209297D01*
X196970323Y-116174817D01*
X197016010Y-116127268D01*
X197072204Y-116070222D01*
X197135468Y-116007255D01*
X197142602Y-116000227D01*
X197222330Y-115923020D01*
X197283857Y-115866330D01*
X197328421Y-115829110D01*
X197357257Y-115810315D01*
X197369958Y-115807889D01*
X197388494Y-115818471D01*
X197426961Y-115842916D01*
X197481386Y-115878612D01*
X197547798Y-115922947D01*
X197622225Y-115973311D01*
X197639601Y-115985160D01*
X197886297Y-116153626D01*
X197997706Y-116103062D01*
X198065457Y-116073595D01*
X198138183Y-116043959D01*
X198200703Y-116020330D01*
X198203457Y-116019358D01*
X198252360Y-116001457D01*
X198290057Y-115986320D01*
X198308425Y-115977210D01*
X198308456Y-115977184D01*
X198314285Y-115960717D01*
X198324192Y-115920219D01*
X198337195Y-115860242D01*
X198352309Y-115785340D01*
X198368552Y-115700064D01*
X198369881Y-115692875D01*
X198386175Y-115605014D01*
X198401133Y-115525260D01*
X198413791Y-115458681D01*
X198423186Y-115410347D01*
X198428354Y-115385325D01*
X198428444Y-115384943D01*
X198431589Y-115374299D01*
X198437704Y-115366262D01*
X198450453Y-115360467D01*
X198473500Y-115356547D01*
X198510509Y-115354135D01*
X198565144Y-115352865D01*
X198641067Y-115352371D01*
X198741944Y-115352286D01*
X198755000Y-115352286D01*
X198858910Y-115352348D01*
X198858910Y-115352348D01*
G37*
X198858910Y-115352348D02*
X198937454Y-115352778D01*
X198994298Y-115353942D01*
X199033105Y-115356207D01*
X199057538Y-115359940D01*
X199071262Y-115365506D01*
X199077940Y-115373273D01*
X199081236Y-115383605D01*
X199081556Y-115384943D01*
X199086562Y-115409079D01*
X199095829Y-115456701D01*
X199108392Y-115522741D01*
X199123287Y-115602128D01*
X199139551Y-115689796D01*
X199140119Y-115692875D01*
X199156410Y-115778789D01*
X199171652Y-115854696D01*
X199184861Y-115916045D01*
X199195054Y-115958282D01*
X199201248Y-115976855D01*
X199201543Y-115977184D01*
X199219788Y-115986253D01*
X199257405Y-116001367D01*
X199306271Y-116019262D01*
X199306543Y-116019358D01*
X199368093Y-116042493D01*
X199440657Y-116071965D01*
X199509057Y-116101597D01*
X199512294Y-116103062D01*
X199623702Y-116153626D01*
X199870399Y-115985160D01*
X199946077Y-115933803D01*
X200014631Y-115887889D01*
X200072088Y-115850030D01*
X200114476Y-115822837D01*
X200137825Y-115808921D01*
X200140042Y-115807889D01*
X200157010Y-115812484D01*
X200188701Y-115834655D01*
X200236352Y-115875447D01*
X200301198Y-115935905D01*
X200367397Y-116000227D01*
X200431214Y-116063612D01*
X200488329Y-116121451D01*
X200535305Y-116170175D01*
X200568703Y-116206210D01*
X200585085Y-116225984D01*
X200585694Y-116227002D01*
X200587505Y-116240572D01*
X200580683Y-116262733D01*
X200563540Y-116296478D01*
X200534393Y-116344800D01*
X200491555Y-116410692D01*
X200434448Y-116495517D01*
X200383766Y-116570177D01*
X200338461Y-116637140D01*
X200301150Y-116692516D01*
X200274452Y-116732420D01*
X200260985Y-116752962D01*
X200260137Y-116754356D01*
X200261781Y-116774038D01*
X200274245Y-116812293D01*
X200295048Y-116861889D01*
X200302462Y-116877728D01*
X200334814Y-116948290D01*
X200369328Y-117028353D01*
X200397365Y-117097629D01*
X200417568Y-117149045D01*
X200433615Y-117188119D01*
X200442888Y-117208541D01*
X200444041Y-117210114D01*
X200461096Y-117212721D01*
X200501298Y-117219863D01*
X200559302Y-117230523D01*
X200629763Y-117243685D01*
X200707335Y-117258333D01*
X200786672Y-117273449D01*
X200862431Y-117288018D01*
X200929264Y-117301022D01*
X200981828Y-117311445D01*
X201014776Y-117318270D01*
X201022857Y-117320199D01*
X201031205Y-117324962D01*
X201037506Y-117335718D01*
X201042045Y-117356098D01*
X201045104Y-117389734D01*
X201046967Y-117440255D01*
X201047918Y-117511292D01*
X201048240Y-117606476D01*
X201048257Y-117645492D01*
X201048257Y-117962799D01*
X200972057Y-117977839D01*
X200929663Y-117985995D01*
X200866400Y-117997899D01*
X200789962Y-118012116D01*
X200708043Y-118027210D01*
X200685400Y-118031355D01*
X200609806Y-118046053D01*
X200543953Y-118060505D01*
X200493366Y-118073375D01*
X200463574Y-118083322D01*
X200458612Y-118086287D01*
X200446426Y-118107283D01*
X200428953Y-118147967D01*
X200409577Y-118200322D01*
X200405734Y-118211600D01*
X200380339Y-118281523D01*
X200348817Y-118360418D01*
X200317969Y-118431266D01*
X200317817Y-118431595D01*
X200266447Y-118542733D01*
X200435399Y-118791253D01*
X200604352Y-119039772D01*
X200387429Y-119257058D01*
X200321819Y-119321726D01*
X200261979Y-119378733D01*
X200211267Y-119425033D01*
X200173046Y-119457584D01*
X200150675Y-119473343D01*
X200147466Y-119474343D01*
X200128626Y-119466469D01*
X200090180Y-119444578D01*
X200036330Y-119411267D01*
X199971276Y-119369131D01*
X199900940Y-119321943D01*
X199829555Y-119273810D01*
X199765908Y-119231928D01*
X199714041Y-119198871D01*
X199677995Y-119177218D01*
X199661867Y-119169543D01*
X199642189Y-119176037D01*
X199604875Y-119193150D01*
X199557621Y-119217326D01*
X199552612Y-119220013D01*
X199488977Y-119251927D01*
X199445341Y-119267579D01*
X199418202Y-119267745D01*
X199404057Y-119253204D01*
X199403975Y-119253000D01*
X199396905Y-119235779D01*
X199380042Y-119194899D01*
X199354695Y-119133525D01*
X199322171Y-119054819D01*
X199283778Y-118961947D01*
X199240822Y-118858072D01*
X199199222Y-118757502D01*
X199153504Y-118646516D01*
X199111526Y-118543703D01*
X199074548Y-118452215D01*
X199043827Y-118375201D01*
X199020622Y-118315815D01*
X199006190Y-118277209D01*
X199001743Y-118262800D01*
X199012896Y-118246272D01*
X199042069Y-118219930D01*
X199080971Y-118190887D01*
X199191757Y-118099039D01*
X199278351Y-117993759D01*
X199339716Y-117877266D01*
X199374815Y-117751776D01*
X199382608Y-117619507D01*
X199376943Y-117558457D01*
X199346078Y-117431795D01*
X199292920Y-117319941D01*
X199220767Y-117224001D01*
X199132917Y-117145076D01*
X199032665Y-117084270D01*
X198923310Y-117042687D01*
X198808147Y-117021428D01*
X198690475Y-117021599D01*
X198573590Y-117044301D01*
X198460789Y-117090638D01*
X198355369Y-117161713D01*
X198311368Y-117201911D01*
X198226979Y-117305129D01*
X198168222Y-117417925D01*
X198134704Y-117537010D01*
X198126035Y-117659095D01*
X198141823Y-117780893D01*
X198181678Y-117899116D01*
X198245207Y-118010475D01*
X198332021Y-118111684D01*
X198429029Y-118190887D01*
X198469437Y-118221162D01*
X198497982Y-118247219D01*
X198508257Y-118262825D01*
X198502877Y-118279843D01*
X198487575Y-118320500D01*
X198463612Y-118381642D01*
X198432244Y-118460119D01*
X198394732Y-118552780D01*
X198352333Y-118656472D01*
X198310663Y-118757526D01*
X198264690Y-118868607D01*
X198222107Y-118971541D01*
X198184221Y-119063165D01*
X198152340Y-119140316D01*
X198127771Y-119199831D01*
X198111820Y-119238544D01*
X198105910Y-119253000D01*
X198091948Y-119267685D01*
X198064940Y-119267642D01*
X198021413Y-119252099D01*
X197957890Y-119220284D01*
X197957388Y-119220013D01*
X197909560Y-119195323D01*
X197870897Y-119177338D01*
X197849095Y-119169614D01*
X197848133Y-119169543D01*
X197831721Y-119177378D01*
X197795487Y-119199165D01*
X197743474Y-119232328D01*
X197679725Y-119274291D01*
X197609060Y-119321943D01*
X197537116Y-119370191D01*
X197472274Y-119412151D01*
X197418735Y-119445227D01*
X197380697Y-119466821D01*
X197362533Y-119474343D01*
X197345808Y-119464457D01*
X197312180Y-119436826D01*
X197265010Y-119394495D01*
X197207658Y-119340505D01*
X197143484Y-119277899D01*
X197122497Y-119256983D01*
X196905499Y-119039623D01*
X197070668Y-118797220D01*
X197120864Y-118722781D01*
X197164919Y-118655972D01*
X197200362Y-118600665D01*
X197224719Y-118560729D01*
X197235522Y-118540036D01*
X197235838Y-118538563D01*
X197230143Y-118519058D01*
X197214826Y-118479822D01*
X197192537Y-118427430D01*
X197176893Y-118392355D01*
X197147641Y-118325201D01*
X197120094Y-118257358D01*
X197098737Y-118200034D01*
X197092935Y-118182572D01*
X197076452Y-118135938D01*
X197060340Y-118099905D01*
X197051490Y-118086287D01*
X197031960Y-118077952D01*
X196989334Y-118066137D01*
X196929145Y-118052181D01*
X196856922Y-118037422D01*
X196824600Y-118031355D01*
X196742522Y-118016273D01*
X196663795Y-118001669D01*
X196596109Y-117988980D01*
X196547160Y-117979642D01*
X196537943Y-117977839D01*
X196461743Y-117962799D01*
X196461743Y-117645492D01*
X196461914Y-117541154D01*
X196462616Y-117462213D01*
X196464134Y-117405038D01*
X196466749Y-117365999D01*
X196470746Y-117341465D01*
X196476409Y-117327805D01*
X196484020Y-117321389D01*
X196487143Y-117320199D01*
X196505978Y-117315980D01*
X196547588Y-117307562D01*
X196606630Y-117295961D01*
X196677757Y-117282195D01*
X196755625Y-117267280D01*
X196834887Y-117252232D01*
X196910198Y-117238069D01*
X196976213Y-117225806D01*
X197027587Y-117216461D01*
X197058975Y-117211050D01*
X197065959Y-117210114D01*
X197072285Y-117197596D01*
X197086290Y-117164246D01*
X197105355Y-117116377D01*
X197112634Y-117097629D01*
X197141996Y-117025195D01*
X197176571Y-116945170D01*
X197207537Y-116877728D01*
X197230323Y-116826159D01*
X197245482Y-116783785D01*
X197250542Y-116757834D01*
X197249736Y-116754356D01*
X197239041Y-116737936D01*
X197214620Y-116701417D01*
X197179095Y-116648687D01*
X197135087Y-116583635D01*
X197085217Y-116510151D01*
X197075356Y-116495645D01*
X197017492Y-116409704D01*
X196974956Y-116344261D01*
X196946054Y-116296304D01*
X196929090Y-116262820D01*
X196922367Y-116240795D01*
X196924190Y-116227217D01*
X196924236Y-116227131D01*
X196938586Y-116209297D01*
X196970323Y-116174817D01*
X197016010Y-116127268D01*
X197072204Y-116070222D01*
X197135468Y-116007255D01*
X197142602Y-116000227D01*
X197222330Y-115923020D01*
X197283857Y-115866330D01*
X197328421Y-115829110D01*
X197357257Y-115810315D01*
X197369958Y-115807889D01*
X197388494Y-115818471D01*
X197426961Y-115842916D01*
X197481386Y-115878612D01*
X197547798Y-115922947D01*
X197622225Y-115973311D01*
X197639601Y-115985160D01*
X197886297Y-116153626D01*
X197997706Y-116103062D01*
X198065457Y-116073595D01*
X198138183Y-116043959D01*
X198200703Y-116020330D01*
X198203457Y-116019358D01*
X198252360Y-116001457D01*
X198290057Y-115986320D01*
X198308425Y-115977210D01*
X198308456Y-115977184D01*
X198314285Y-115960717D01*
X198324192Y-115920219D01*
X198337195Y-115860242D01*
X198352309Y-115785340D01*
X198368552Y-115700064D01*
X198369881Y-115692875D01*
X198386175Y-115605014D01*
X198401133Y-115525260D01*
X198413791Y-115458681D01*
X198423186Y-115410347D01*
X198428354Y-115385325D01*
X198428444Y-115384943D01*
X198431589Y-115374299D01*
X198437704Y-115366262D01*
X198450453Y-115360467D01*
X198473500Y-115356547D01*
X198510509Y-115354135D01*
X198565144Y-115352865D01*
X198641067Y-115352371D01*
X198741944Y-115352286D01*
X198755000Y-115352286D01*
X198858910Y-115352348D01*
G04 #@! TO.C,J6*
D11*
X138731666Y-35012380D02*
X138731666Y-35726666D01*
X138684047Y-35869523D01*
X138588809Y-35964761D01*
X138445952Y-36012380D01*
X138350714Y-36012380D01*
X139636428Y-35012380D02*
X139445952Y-35012380D01*
X139350714Y-35060000D01*
X139303095Y-35107619D01*
X139207857Y-35250476D01*
X139160238Y-35440952D01*
X139160238Y-35821904D01*
X139207857Y-35917142D01*
X139255476Y-35964761D01*
X139350714Y-36012380D01*
X139541190Y-36012380D01*
X139636428Y-35964761D01*
X139684047Y-35917142D01*
X139731666Y-35821904D01*
X139731666Y-35583809D01*
X139684047Y-35488571D01*
X139636428Y-35440952D01*
X139541190Y-35393333D01*
X139350714Y-35393333D01*
X139255476Y-35440952D01*
X139207857Y-35488571D01*
X139160238Y-35583809D01*
G04 #@! TO.C,J4*
X134917380Y-117173333D02*
X135631666Y-117173333D01*
X135774523Y-117220952D01*
X135869761Y-117316190D01*
X135917380Y-117459047D01*
X135917380Y-117554285D01*
X135250714Y-116268571D02*
X135917380Y-116268571D01*
X134869761Y-116506666D02*
X135584047Y-116744761D01*
X135584047Y-116125714D01*
X150737380Y-118054285D02*
X149737380Y-118054285D01*
X150213571Y-118054285D02*
X150213571Y-117482857D01*
X150737380Y-117482857D02*
X149737380Y-117482857D01*
X150451666Y-117054285D02*
X150451666Y-116578095D01*
X150737380Y-117149523D02*
X149737380Y-116816190D01*
X150737380Y-116482857D01*
X150737380Y-116149523D02*
X149737380Y-116149523D01*
X150737380Y-115578095D02*
X150165952Y-116006666D01*
X149737380Y-115578095D02*
X150308809Y-116149523D01*
G04 #@! TO.C,SW1*
X133449761Y-95948333D02*
X133497380Y-95805476D01*
X133497380Y-95567380D01*
X133449761Y-95472142D01*
X133402142Y-95424523D01*
X133306904Y-95376904D01*
X133211666Y-95376904D01*
X133116428Y-95424523D01*
X133068809Y-95472142D01*
X133021190Y-95567380D01*
X132973571Y-95757857D01*
X132925952Y-95853095D01*
X132878333Y-95900714D01*
X132783095Y-95948333D01*
X132687857Y-95948333D01*
X132592619Y-95900714D01*
X132545000Y-95853095D01*
X132497380Y-95757857D01*
X132497380Y-95519761D01*
X132545000Y-95376904D01*
X132497380Y-95043571D02*
X133497380Y-94805476D01*
X132783095Y-94615000D01*
X133497380Y-94424523D01*
X132497380Y-94186428D01*
X133497380Y-93281666D02*
X133497380Y-93853095D01*
X133497380Y-93567380D02*
X132497380Y-93567380D01*
X132640238Y-93662619D01*
X132735476Y-93757857D01*
X132783095Y-93853095D01*
X152871666Y-97138809D02*
X152871666Y-96662619D01*
X153157380Y-97234047D02*
X152157380Y-96900714D01*
X153157380Y-96567380D01*
X153157380Y-96234047D02*
X152157380Y-96234047D01*
X152157380Y-95995952D01*
X152205000Y-95853095D01*
X152300238Y-95757857D01*
X152395476Y-95710238D01*
X152585952Y-95662619D01*
X152728809Y-95662619D01*
X152919285Y-95710238D01*
X153014523Y-95757857D01*
X153109761Y-95853095D01*
X153157380Y-95995952D01*
X153157380Y-96234047D01*
X153157380Y-95234047D02*
X152157380Y-95234047D01*
X152157380Y-94995952D01*
X152205000Y-94853095D01*
X152300238Y-94757857D01*
X152395476Y-94710238D01*
X152585952Y-94662619D01*
X152728809Y-94662619D01*
X152919285Y-94710238D01*
X153014523Y-94757857D01*
X153109761Y-94853095D01*
X153157380Y-94995952D01*
X153157380Y-95234047D01*
X153157380Y-93662619D02*
X152681190Y-93995952D01*
X153157380Y-94234047D02*
X152157380Y-94234047D01*
X152157380Y-93853095D01*
X152205000Y-93757857D01*
X152252619Y-93710238D01*
X152347857Y-93662619D01*
X152490714Y-93662619D01*
X152585952Y-93710238D01*
X152633571Y-93757857D01*
X152681190Y-93853095D01*
X152681190Y-94234047D01*
X153252619Y-93472142D02*
X153252619Y-92710238D01*
X153157380Y-91995952D02*
X153157380Y-92472142D01*
X152157380Y-92472142D01*
G04 #@! TO.C,SW2*
X106779761Y-95948333D02*
X106827380Y-95805476D01*
X106827380Y-95567380D01*
X106779761Y-95472142D01*
X106732142Y-95424523D01*
X106636904Y-95376904D01*
X106541666Y-95376904D01*
X106446428Y-95424523D01*
X106398809Y-95472142D01*
X106351190Y-95567380D01*
X106303571Y-95757857D01*
X106255952Y-95853095D01*
X106208333Y-95900714D01*
X106113095Y-95948333D01*
X106017857Y-95948333D01*
X105922619Y-95900714D01*
X105875000Y-95853095D01*
X105827380Y-95757857D01*
X105827380Y-95519761D01*
X105875000Y-95376904D01*
X105827380Y-95043571D02*
X106827380Y-94805476D01*
X106113095Y-94615000D01*
X106827380Y-94424523D01*
X105827380Y-94186428D01*
X105922619Y-93853095D02*
X105875000Y-93805476D01*
X105827380Y-93710238D01*
X105827380Y-93472142D01*
X105875000Y-93376904D01*
X105922619Y-93329285D01*
X106017857Y-93281666D01*
X106113095Y-93281666D01*
X106255952Y-93329285D01*
X106827380Y-93900714D01*
X106827380Y-93281666D01*
X131281666Y-97257857D02*
X131281666Y-96781666D01*
X131567380Y-97353095D02*
X130567380Y-97019761D01*
X131567380Y-96686428D01*
X131567380Y-96353095D02*
X130567380Y-96353095D01*
X130567380Y-96115000D01*
X130615000Y-95972142D01*
X130710238Y-95876904D01*
X130805476Y-95829285D01*
X130995952Y-95781666D01*
X131138809Y-95781666D01*
X131329285Y-95829285D01*
X131424523Y-95876904D01*
X131519761Y-95972142D01*
X131567380Y-96115000D01*
X131567380Y-96353095D01*
X131567380Y-95353095D02*
X130567380Y-95353095D01*
X130567380Y-95115000D01*
X130615000Y-94972142D01*
X130710238Y-94876904D01*
X130805476Y-94829285D01*
X130995952Y-94781666D01*
X131138809Y-94781666D01*
X131329285Y-94829285D01*
X131424523Y-94876904D01*
X131519761Y-94972142D01*
X131567380Y-95115000D01*
X131567380Y-95353095D01*
X131567380Y-93781666D02*
X131091190Y-94115000D01*
X131567380Y-94353095D02*
X130567380Y-94353095D01*
X130567380Y-93972142D01*
X130615000Y-93876904D01*
X130662619Y-93829285D01*
X130757857Y-93781666D01*
X130900714Y-93781666D01*
X130995952Y-93829285D01*
X131043571Y-93876904D01*
X131091190Y-93972142D01*
X131091190Y-94353095D01*
X131662619Y-93591190D02*
X131662619Y-92829285D01*
X131567380Y-92591190D02*
X130567380Y-92591190D01*
X131043571Y-92591190D02*
X131043571Y-92019761D01*
X131567380Y-92019761D02*
X130567380Y-92019761D01*
G04 #@! TO.C,C8*
X200493333Y-99417142D02*
X200445714Y-99464761D01*
X200302857Y-99512380D01*
X200207619Y-99512380D01*
X200064761Y-99464761D01*
X199969523Y-99369523D01*
X199921904Y-99274285D01*
X199874285Y-99083809D01*
X199874285Y-98940952D01*
X199921904Y-98750476D01*
X199969523Y-98655238D01*
X200064761Y-98560000D01*
X200207619Y-98512380D01*
X200302857Y-98512380D01*
X200445714Y-98560000D01*
X200493333Y-98607619D01*
X201064761Y-98940952D02*
X200969523Y-98893333D01*
X200921904Y-98845714D01*
X200874285Y-98750476D01*
X200874285Y-98702857D01*
X200921904Y-98607619D01*
X200969523Y-98560000D01*
X201064761Y-98512380D01*
X201255238Y-98512380D01*
X201350476Y-98560000D01*
X201398095Y-98607619D01*
X201445714Y-98702857D01*
X201445714Y-98750476D01*
X201398095Y-98845714D01*
X201350476Y-98893333D01*
X201255238Y-98940952D01*
X201064761Y-98940952D01*
X200969523Y-98988571D01*
X200921904Y-99036190D01*
X200874285Y-99131428D01*
X200874285Y-99321904D01*
X200921904Y-99417142D01*
X200969523Y-99464761D01*
X201064761Y-99512380D01*
X201255238Y-99512380D01*
X201350476Y-99464761D01*
X201398095Y-99417142D01*
X201445714Y-99321904D01*
X201445714Y-99131428D01*
X201398095Y-99036190D01*
X201350476Y-98988571D01*
X201255238Y-98940952D01*
G04 #@! TO.C,C12*
X135247142Y-61317142D02*
X135199523Y-61364761D01*
X135056666Y-61412380D01*
X134961428Y-61412380D01*
X134818571Y-61364761D01*
X134723333Y-61269523D01*
X134675714Y-61174285D01*
X134628095Y-60983809D01*
X134628095Y-60840952D01*
X134675714Y-60650476D01*
X134723333Y-60555238D01*
X134818571Y-60460000D01*
X134961428Y-60412380D01*
X135056666Y-60412380D01*
X135199523Y-60460000D01*
X135247142Y-60507619D01*
X136199523Y-61412380D02*
X135628095Y-61412380D01*
X135913809Y-61412380D02*
X135913809Y-60412380D01*
X135818571Y-60555238D01*
X135723333Y-60650476D01*
X135628095Y-60698095D01*
X136580476Y-60507619D02*
X136628095Y-60460000D01*
X136723333Y-60412380D01*
X136961428Y-60412380D01*
X137056666Y-60460000D01*
X137104285Y-60507619D01*
X137151904Y-60602857D01*
X137151904Y-60698095D01*
X137104285Y-60840952D01*
X136532857Y-61412380D01*
X137151904Y-61412380D01*
G04 #@! TO.C,C13*
X130802142Y-47347142D02*
X130754523Y-47394761D01*
X130611666Y-47442380D01*
X130516428Y-47442380D01*
X130373571Y-47394761D01*
X130278333Y-47299523D01*
X130230714Y-47204285D01*
X130183095Y-47013809D01*
X130183095Y-46870952D01*
X130230714Y-46680476D01*
X130278333Y-46585238D01*
X130373571Y-46490000D01*
X130516428Y-46442380D01*
X130611666Y-46442380D01*
X130754523Y-46490000D01*
X130802142Y-46537619D01*
X131754523Y-47442380D02*
X131183095Y-47442380D01*
X131468809Y-47442380D02*
X131468809Y-46442380D01*
X131373571Y-46585238D01*
X131278333Y-46680476D01*
X131183095Y-46728095D01*
X132087857Y-46442380D02*
X132706904Y-46442380D01*
X132373571Y-46823333D01*
X132516428Y-46823333D01*
X132611666Y-46870952D01*
X132659285Y-46918571D01*
X132706904Y-47013809D01*
X132706904Y-47251904D01*
X132659285Y-47347142D01*
X132611666Y-47394761D01*
X132516428Y-47442380D01*
X132230714Y-47442380D01*
X132135476Y-47394761D01*
X132087857Y-47347142D01*
G04 #@! TO.C,C14*
X183527142Y-54967142D02*
X183479523Y-55014761D01*
X183336666Y-55062380D01*
X183241428Y-55062380D01*
X183098571Y-55014761D01*
X183003333Y-54919523D01*
X182955714Y-54824285D01*
X182908095Y-54633809D01*
X182908095Y-54490952D01*
X182955714Y-54300476D01*
X183003333Y-54205238D01*
X183098571Y-54110000D01*
X183241428Y-54062380D01*
X183336666Y-54062380D01*
X183479523Y-54110000D01*
X183527142Y-54157619D01*
X184479523Y-55062380D02*
X183908095Y-55062380D01*
X184193809Y-55062380D02*
X184193809Y-54062380D01*
X184098571Y-54205238D01*
X184003333Y-54300476D01*
X183908095Y-54348095D01*
X185336666Y-54395714D02*
X185336666Y-55062380D01*
X185098571Y-54014761D02*
X184860476Y-54729047D01*
X185479523Y-54729047D01*
G04 #@! TO.C,C15*
X200017142Y-81637142D02*
X199969523Y-81684761D01*
X199826666Y-81732380D01*
X199731428Y-81732380D01*
X199588571Y-81684761D01*
X199493333Y-81589523D01*
X199445714Y-81494285D01*
X199398095Y-81303809D01*
X199398095Y-81160952D01*
X199445714Y-80970476D01*
X199493333Y-80875238D01*
X199588571Y-80780000D01*
X199731428Y-80732380D01*
X199826666Y-80732380D01*
X199969523Y-80780000D01*
X200017142Y-80827619D01*
X200969523Y-81732380D02*
X200398095Y-81732380D01*
X200683809Y-81732380D02*
X200683809Y-80732380D01*
X200588571Y-80875238D01*
X200493333Y-80970476D01*
X200398095Y-81018095D01*
X201874285Y-80732380D02*
X201398095Y-80732380D01*
X201350476Y-81208571D01*
X201398095Y-81160952D01*
X201493333Y-81113333D01*
X201731428Y-81113333D01*
X201826666Y-81160952D01*
X201874285Y-81208571D01*
X201921904Y-81303809D01*
X201921904Y-81541904D01*
X201874285Y-81637142D01*
X201826666Y-81684761D01*
X201731428Y-81732380D01*
X201493333Y-81732380D01*
X201398095Y-81684761D01*
X201350476Y-81637142D01*
G04 #@! TO.C,C16*
X151757142Y-61317142D02*
X151709523Y-61364761D01*
X151566666Y-61412380D01*
X151471428Y-61412380D01*
X151328571Y-61364761D01*
X151233333Y-61269523D01*
X151185714Y-61174285D01*
X151138095Y-60983809D01*
X151138095Y-60840952D01*
X151185714Y-60650476D01*
X151233333Y-60555238D01*
X151328571Y-60460000D01*
X151471428Y-60412380D01*
X151566666Y-60412380D01*
X151709523Y-60460000D01*
X151757142Y-60507619D01*
X152709523Y-61412380D02*
X152138095Y-61412380D01*
X152423809Y-61412380D02*
X152423809Y-60412380D01*
X152328571Y-60555238D01*
X152233333Y-60650476D01*
X152138095Y-60698095D01*
X153566666Y-60412380D02*
X153376190Y-60412380D01*
X153280952Y-60460000D01*
X153233333Y-60507619D01*
X153138095Y-60650476D01*
X153090476Y-60840952D01*
X153090476Y-61221904D01*
X153138095Y-61317142D01*
X153185714Y-61364761D01*
X153280952Y-61412380D01*
X153471428Y-61412380D01*
X153566666Y-61364761D01*
X153614285Y-61317142D01*
X153661904Y-61221904D01*
X153661904Y-60983809D01*
X153614285Y-60888571D01*
X153566666Y-60840952D01*
X153471428Y-60793333D01*
X153280952Y-60793333D01*
X153185714Y-60840952D01*
X153138095Y-60888571D01*
X153090476Y-60983809D01*
G04 #@! TO.C,C10*
X168902142Y-99417142D02*
X168854523Y-99464761D01*
X168711666Y-99512380D01*
X168616428Y-99512380D01*
X168473571Y-99464761D01*
X168378333Y-99369523D01*
X168330714Y-99274285D01*
X168283095Y-99083809D01*
X168283095Y-98940952D01*
X168330714Y-98750476D01*
X168378333Y-98655238D01*
X168473571Y-98560000D01*
X168616428Y-98512380D01*
X168711666Y-98512380D01*
X168854523Y-98560000D01*
X168902142Y-98607619D01*
X169854523Y-99512380D02*
X169283095Y-99512380D01*
X169568809Y-99512380D02*
X169568809Y-98512380D01*
X169473571Y-98655238D01*
X169378333Y-98750476D01*
X169283095Y-98798095D01*
X170473571Y-98512380D02*
X170568809Y-98512380D01*
X170664047Y-98560000D01*
X170711666Y-98607619D01*
X170759285Y-98702857D01*
X170806904Y-98893333D01*
X170806904Y-99131428D01*
X170759285Y-99321904D01*
X170711666Y-99417142D01*
X170664047Y-99464761D01*
X170568809Y-99512380D01*
X170473571Y-99512380D01*
X170378333Y-99464761D01*
X170330714Y-99417142D01*
X170283095Y-99321904D01*
X170235476Y-99131428D01*
X170235476Y-98893333D01*
X170283095Y-98702857D01*
X170330714Y-98607619D01*
X170378333Y-98560000D01*
X170473571Y-98512380D01*
G04 #@! TO.C,C9*
X142708333Y-47347142D02*
X142660714Y-47394761D01*
X142517857Y-47442380D01*
X142422619Y-47442380D01*
X142279761Y-47394761D01*
X142184523Y-47299523D01*
X142136904Y-47204285D01*
X142089285Y-47013809D01*
X142089285Y-46870952D01*
X142136904Y-46680476D01*
X142184523Y-46585238D01*
X142279761Y-46490000D01*
X142422619Y-46442380D01*
X142517857Y-46442380D01*
X142660714Y-46490000D01*
X142708333Y-46537619D01*
X143184523Y-47442380D02*
X143375000Y-47442380D01*
X143470238Y-47394761D01*
X143517857Y-47347142D01*
X143613095Y-47204285D01*
X143660714Y-47013809D01*
X143660714Y-46632857D01*
X143613095Y-46537619D01*
X143565476Y-46490000D01*
X143470238Y-46442380D01*
X143279761Y-46442380D01*
X143184523Y-46490000D01*
X143136904Y-46537619D01*
X143089285Y-46632857D01*
X143089285Y-46870952D01*
X143136904Y-46966190D01*
X143184523Y-47013809D01*
X143279761Y-47061428D01*
X143470238Y-47061428D01*
X143565476Y-47013809D01*
X143613095Y-46966190D01*
X143660714Y-46870952D01*
G04 #@! TO.C,C7*
X184618333Y-81637142D02*
X184570714Y-81684761D01*
X184427857Y-81732380D01*
X184332619Y-81732380D01*
X184189761Y-81684761D01*
X184094523Y-81589523D01*
X184046904Y-81494285D01*
X183999285Y-81303809D01*
X183999285Y-81160952D01*
X184046904Y-80970476D01*
X184094523Y-80875238D01*
X184189761Y-80780000D01*
X184332619Y-80732380D01*
X184427857Y-80732380D01*
X184570714Y-80780000D01*
X184618333Y-80827619D01*
X184951666Y-80732380D02*
X185618333Y-80732380D01*
X185189761Y-81732380D01*
G04 #@! TO.C,C1*
X152848333Y-48137142D02*
X152800714Y-48184761D01*
X152657857Y-48232380D01*
X152562619Y-48232380D01*
X152419761Y-48184761D01*
X152324523Y-48089523D01*
X152276904Y-47994285D01*
X152229285Y-47803809D01*
X152229285Y-47660952D01*
X152276904Y-47470476D01*
X152324523Y-47375238D01*
X152419761Y-47280000D01*
X152562619Y-47232380D01*
X152657857Y-47232380D01*
X152800714Y-47280000D01*
X152848333Y-47327619D01*
X153800714Y-48232380D02*
X153229285Y-48232380D01*
X153515000Y-48232380D02*
X153515000Y-47232380D01*
X153419761Y-47375238D01*
X153324523Y-47470476D01*
X153229285Y-47518095D01*
G04 #@! TO.C,C6*
X147153333Y-47982142D02*
X147105714Y-48029761D01*
X146962857Y-48077380D01*
X146867619Y-48077380D01*
X146724761Y-48029761D01*
X146629523Y-47934523D01*
X146581904Y-47839285D01*
X146534285Y-47648809D01*
X146534285Y-47505952D01*
X146581904Y-47315476D01*
X146629523Y-47220238D01*
X146724761Y-47125000D01*
X146867619Y-47077380D01*
X146962857Y-47077380D01*
X147105714Y-47125000D01*
X147153333Y-47172619D01*
X148010476Y-47077380D02*
X147820000Y-47077380D01*
X147724761Y-47125000D01*
X147677142Y-47172619D01*
X147581904Y-47315476D01*
X147534285Y-47505952D01*
X147534285Y-47886904D01*
X147581904Y-47982142D01*
X147629523Y-48029761D01*
X147724761Y-48077380D01*
X147915238Y-48077380D01*
X148010476Y-48029761D01*
X148058095Y-47982142D01*
X148105714Y-47886904D01*
X148105714Y-47648809D01*
X148058095Y-47553571D01*
X148010476Y-47505952D01*
X147915238Y-47458333D01*
X147724761Y-47458333D01*
X147629523Y-47505952D01*
X147581904Y-47553571D01*
X147534285Y-47648809D01*
G04 #@! TO.C,C5*
X167473333Y-61317142D02*
X167425714Y-61364761D01*
X167282857Y-61412380D01*
X167187619Y-61412380D01*
X167044761Y-61364761D01*
X166949523Y-61269523D01*
X166901904Y-61174285D01*
X166854285Y-60983809D01*
X166854285Y-60840952D01*
X166901904Y-60650476D01*
X166949523Y-60555238D01*
X167044761Y-60460000D01*
X167187619Y-60412380D01*
X167282857Y-60412380D01*
X167425714Y-60460000D01*
X167473333Y-60507619D01*
X168378095Y-60412380D02*
X167901904Y-60412380D01*
X167854285Y-60888571D01*
X167901904Y-60840952D01*
X167997142Y-60793333D01*
X168235238Y-60793333D01*
X168330476Y-60840952D01*
X168378095Y-60888571D01*
X168425714Y-60983809D01*
X168425714Y-61221904D01*
X168378095Y-61317142D01*
X168330476Y-61364761D01*
X168235238Y-61412380D01*
X167997142Y-61412380D01*
X167901904Y-61364761D01*
X167854285Y-61317142D01*
G04 #@! TO.C,C11*
X184777142Y-99417142D02*
X184729523Y-99464761D01*
X184586666Y-99512380D01*
X184491428Y-99512380D01*
X184348571Y-99464761D01*
X184253333Y-99369523D01*
X184205714Y-99274285D01*
X184158095Y-99083809D01*
X184158095Y-98940952D01*
X184205714Y-98750476D01*
X184253333Y-98655238D01*
X184348571Y-98560000D01*
X184491428Y-98512380D01*
X184586666Y-98512380D01*
X184729523Y-98560000D01*
X184777142Y-98607619D01*
X185729523Y-99512380D02*
X185158095Y-99512380D01*
X185443809Y-99512380D02*
X185443809Y-98512380D01*
X185348571Y-98655238D01*
X185253333Y-98750476D01*
X185158095Y-98798095D01*
X186681904Y-99512380D02*
X186110476Y-99512380D01*
X186396190Y-99512380D02*
X186396190Y-98512380D01*
X186300952Y-98655238D01*
X186205714Y-98750476D01*
X186110476Y-98798095D01*
G04 #@! TO.C,C4*
X164318333Y-49097142D02*
X164270714Y-49144761D01*
X164127857Y-49192380D01*
X164032619Y-49192380D01*
X163889761Y-49144761D01*
X163794523Y-49049523D01*
X163746904Y-48954285D01*
X163699285Y-48763809D01*
X163699285Y-48620952D01*
X163746904Y-48430476D01*
X163794523Y-48335238D01*
X163889761Y-48240000D01*
X164032619Y-48192380D01*
X164127857Y-48192380D01*
X164270714Y-48240000D01*
X164318333Y-48287619D01*
X165175476Y-48525714D02*
X165175476Y-49192380D01*
X164937380Y-48144761D02*
X164699285Y-48859047D01*
X165318333Y-48859047D01*
G04 #@! TO.C,C17*
X168267142Y-81637142D02*
X168219523Y-81684761D01*
X168076666Y-81732380D01*
X167981428Y-81732380D01*
X167838571Y-81684761D01*
X167743333Y-81589523D01*
X167695714Y-81494285D01*
X167648095Y-81303809D01*
X167648095Y-81160952D01*
X167695714Y-80970476D01*
X167743333Y-80875238D01*
X167838571Y-80780000D01*
X167981428Y-80732380D01*
X168076666Y-80732380D01*
X168219523Y-80780000D01*
X168267142Y-80827619D01*
X169219523Y-81732380D02*
X168648095Y-81732380D01*
X168933809Y-81732380D02*
X168933809Y-80732380D01*
X168838571Y-80875238D01*
X168743333Y-80970476D01*
X168648095Y-81018095D01*
X169552857Y-80732380D02*
X170219523Y-80732380D01*
X169790952Y-81732380D01*
G04 #@! TO.C,C2*
X106513333Y-122912142D02*
X106465714Y-122959761D01*
X106322857Y-123007380D01*
X106227619Y-123007380D01*
X106084761Y-122959761D01*
X105989523Y-122864523D01*
X105941904Y-122769285D01*
X105894285Y-122578809D01*
X105894285Y-122435952D01*
X105941904Y-122245476D01*
X105989523Y-122150238D01*
X106084761Y-122055000D01*
X106227619Y-122007380D01*
X106322857Y-122007380D01*
X106465714Y-122055000D01*
X106513333Y-122102619D01*
X106894285Y-122102619D02*
X106941904Y-122055000D01*
X107037142Y-122007380D01*
X107275238Y-122007380D01*
X107370476Y-122055000D01*
X107418095Y-122102619D01*
X107465714Y-122197857D01*
X107465714Y-122293095D01*
X107418095Y-122435952D01*
X106846666Y-123007380D01*
X107465714Y-123007380D01*
G04 #@! TO.C,C3*
X200493333Y-122912142D02*
X200445714Y-122959761D01*
X200302857Y-123007380D01*
X200207619Y-123007380D01*
X200064761Y-122959761D01*
X199969523Y-122864523D01*
X199921904Y-122769285D01*
X199874285Y-122578809D01*
X199874285Y-122435952D01*
X199921904Y-122245476D01*
X199969523Y-122150238D01*
X200064761Y-122055000D01*
X200207619Y-122007380D01*
X200302857Y-122007380D01*
X200445714Y-122055000D01*
X200493333Y-122102619D01*
X200826666Y-122007380D02*
X201445714Y-122007380D01*
X201112380Y-122388333D01*
X201255238Y-122388333D01*
X201350476Y-122435952D01*
X201398095Y-122483571D01*
X201445714Y-122578809D01*
X201445714Y-122816904D01*
X201398095Y-122912142D01*
X201350476Y-122959761D01*
X201255238Y-123007380D01*
X200969523Y-123007380D01*
X200874285Y-122959761D01*
X200826666Y-122912142D01*
G04 #@! TO.C,J2*
X106342380Y-112093333D02*
X107056666Y-112093333D01*
X107199523Y-112140952D01*
X107294761Y-112236190D01*
X107342380Y-112379047D01*
X107342380Y-112474285D01*
X106437619Y-111664761D02*
X106390000Y-111617142D01*
X106342380Y-111521904D01*
X106342380Y-111283809D01*
X106390000Y-111188571D01*
X106437619Y-111140952D01*
X106532857Y-111093333D01*
X106628095Y-111093333D01*
X106770952Y-111140952D01*
X107342380Y-111712380D01*
X107342380Y-111093333D01*
X129782380Y-112664761D02*
X128782380Y-112664761D01*
X129782380Y-112188571D02*
X128782380Y-112188571D01*
X129782380Y-111617142D01*
X128782380Y-111617142D01*
X128782380Y-111283809D02*
X128782380Y-110712380D01*
X129782380Y-110998095D02*
X128782380Y-110998095D01*
G04 #@! TO.C,U1*
X122428095Y-47077380D02*
X122428095Y-47886904D01*
X122475714Y-47982142D01*
X122523333Y-48029761D01*
X122618571Y-48077380D01*
X122809047Y-48077380D01*
X122904285Y-48029761D01*
X122951904Y-47982142D01*
X122999523Y-47886904D01*
X122999523Y-47077380D01*
X123999523Y-48077380D02*
X123428095Y-48077380D01*
X123713809Y-48077380D02*
X123713809Y-47077380D01*
X123618571Y-47220238D01*
X123523333Y-47315476D01*
X123428095Y-47363095D01*
X125817380Y-56982857D02*
X125817380Y-56316190D01*
X126817380Y-56744761D01*
X126150714Y-55506666D02*
X126817380Y-55506666D01*
X125769761Y-55744761D02*
X126484047Y-55982857D01*
X126484047Y-55363809D01*
X126817380Y-54982857D02*
X125817380Y-54982857D01*
X126293571Y-54982857D02*
X126293571Y-54411428D01*
X126817380Y-54411428D02*
X125817380Y-54411428D01*
X126722142Y-53363809D02*
X126769761Y-53411428D01*
X126817380Y-53554285D01*
X126817380Y-53649523D01*
X126769761Y-53792380D01*
X126674523Y-53887619D01*
X126579285Y-53935238D01*
X126388809Y-53982857D01*
X126245952Y-53982857D01*
X126055476Y-53935238D01*
X125960238Y-53887619D01*
X125865000Y-53792380D01*
X125817380Y-53649523D01*
X125817380Y-53554285D01*
X125865000Y-53411428D01*
X125912619Y-53363809D01*
X125817380Y-53078095D02*
X125817380Y-52506666D01*
X126817380Y-52792380D02*
X125817380Y-52792380D01*
X126817380Y-51649523D02*
X126817380Y-52220952D01*
X126817380Y-51935238D02*
X125817380Y-51935238D01*
X125960238Y-52030476D01*
X126055476Y-52125714D01*
X126103095Y-52220952D01*
X125912619Y-51268571D02*
X125865000Y-51220952D01*
X125817380Y-51125714D01*
X125817380Y-50887619D01*
X125865000Y-50792380D01*
X125912619Y-50744761D01*
X126007857Y-50697142D01*
X126103095Y-50697142D01*
X126245952Y-50744761D01*
X126817380Y-51316190D01*
X126817380Y-50697142D01*
X125817380Y-49792380D02*
X125817380Y-50268571D01*
X126293571Y-50316190D01*
X126245952Y-50268571D01*
X126198333Y-50173333D01*
X126198333Y-49935238D01*
X126245952Y-49840000D01*
X126293571Y-49792380D01*
X126388809Y-49744761D01*
X126626904Y-49744761D01*
X126722142Y-49792380D01*
X126769761Y-49840000D01*
X126817380Y-49935238D01*
X126817380Y-50173333D01*
X126769761Y-50268571D01*
X126722142Y-50316190D01*
G04 #@! TO.C,U2*
X133858095Y-47077380D02*
X133858095Y-47886904D01*
X133905714Y-47982142D01*
X133953333Y-48029761D01*
X134048571Y-48077380D01*
X134239047Y-48077380D01*
X134334285Y-48029761D01*
X134381904Y-47982142D01*
X134429523Y-47886904D01*
X134429523Y-47077380D01*
X134858095Y-47172619D02*
X134905714Y-47125000D01*
X135000952Y-47077380D01*
X135239047Y-47077380D01*
X135334285Y-47125000D01*
X135381904Y-47172619D01*
X135429523Y-47267857D01*
X135429523Y-47363095D01*
X135381904Y-47505952D01*
X134810476Y-48077380D01*
X135429523Y-48077380D01*
X137247380Y-56911428D02*
X137247380Y-56244761D01*
X138247380Y-56673333D01*
X137580714Y-55435238D02*
X138247380Y-55435238D01*
X137199761Y-55673333D02*
X137914047Y-55911428D01*
X137914047Y-55292380D01*
X138247380Y-54435238D02*
X138247380Y-54911428D01*
X137247380Y-54911428D01*
X137247380Y-54244761D02*
X138247380Y-53911428D01*
X137247380Y-53578095D01*
X138152142Y-52673333D02*
X138199761Y-52720952D01*
X138247380Y-52863809D01*
X138247380Y-52959047D01*
X138199761Y-53101904D01*
X138104523Y-53197142D01*
X138009285Y-53244761D01*
X137818809Y-53292380D01*
X137675952Y-53292380D01*
X137485476Y-53244761D01*
X137390238Y-53197142D01*
X137295000Y-53101904D01*
X137247380Y-52959047D01*
X137247380Y-52863809D01*
X137295000Y-52720952D01*
X137342619Y-52673333D01*
X138247380Y-51720952D02*
X138247380Y-52292380D01*
X138247380Y-52006666D02*
X137247380Y-52006666D01*
X137390238Y-52101904D01*
X137485476Y-52197142D01*
X137533095Y-52292380D01*
X137342619Y-51340000D02*
X137295000Y-51292380D01*
X137247380Y-51197142D01*
X137247380Y-50959047D01*
X137295000Y-50863809D01*
X137342619Y-50816190D01*
X137437857Y-50768571D01*
X137533095Y-50768571D01*
X137675952Y-50816190D01*
X138247380Y-51387619D01*
X138247380Y-50768571D01*
X137247380Y-49863809D02*
X137247380Y-50340000D01*
X137723571Y-50387619D01*
X137675952Y-50340000D01*
X137628333Y-50244761D01*
X137628333Y-50006666D01*
X137675952Y-49911428D01*
X137723571Y-49863809D01*
X137818809Y-49816190D01*
X138056904Y-49816190D01*
X138152142Y-49863809D01*
X138199761Y-49911428D01*
X138247380Y-50006666D01*
X138247380Y-50244761D01*
X138199761Y-50340000D01*
X138152142Y-50387619D01*
G04 #@! TO.C,U7*
X159258095Y-47077380D02*
X159258095Y-47886904D01*
X159305714Y-47982142D01*
X159353333Y-48029761D01*
X159448571Y-48077380D01*
X159639047Y-48077380D01*
X159734285Y-48029761D01*
X159781904Y-47982142D01*
X159829523Y-47886904D01*
X159829523Y-47077380D01*
X160210476Y-47077380D02*
X160877142Y-47077380D01*
X160448571Y-48077380D01*
X162647380Y-56982857D02*
X162647380Y-56316190D01*
X163647380Y-56744761D01*
X162980714Y-55506666D02*
X163647380Y-55506666D01*
X162599761Y-55744761D02*
X163314047Y-55982857D01*
X163314047Y-55363809D01*
X163647380Y-54982857D02*
X162647380Y-54982857D01*
X163123571Y-54982857D02*
X163123571Y-54411428D01*
X163647380Y-54411428D02*
X162647380Y-54411428D01*
X163552142Y-53363809D02*
X163599761Y-53411428D01*
X163647380Y-53554285D01*
X163647380Y-53649523D01*
X163599761Y-53792380D01*
X163504523Y-53887619D01*
X163409285Y-53935238D01*
X163218809Y-53982857D01*
X163075952Y-53982857D01*
X162885476Y-53935238D01*
X162790238Y-53887619D01*
X162695000Y-53792380D01*
X162647380Y-53649523D01*
X162647380Y-53554285D01*
X162695000Y-53411428D01*
X162742619Y-53363809D01*
X162647380Y-53078095D02*
X162647380Y-52506666D01*
X163647380Y-52792380D02*
X162647380Y-52792380D01*
X163647380Y-51649523D02*
X163647380Y-52220952D01*
X163647380Y-51935238D02*
X162647380Y-51935238D01*
X162790238Y-52030476D01*
X162885476Y-52125714D01*
X162933095Y-52220952D01*
X162742619Y-51268571D02*
X162695000Y-51220952D01*
X162647380Y-51125714D01*
X162647380Y-50887619D01*
X162695000Y-50792380D01*
X162742619Y-50744761D01*
X162837857Y-50697142D01*
X162933095Y-50697142D01*
X163075952Y-50744761D01*
X163647380Y-51316190D01*
X163647380Y-50697142D01*
X162647380Y-49792380D02*
X162647380Y-50268571D01*
X163123571Y-50316190D01*
X163075952Y-50268571D01*
X163028333Y-50173333D01*
X163028333Y-49935238D01*
X163075952Y-49840000D01*
X163123571Y-49792380D01*
X163218809Y-49744761D01*
X163456904Y-49744761D01*
X163552142Y-49792380D01*
X163599761Y-49840000D01*
X163647380Y-49935238D01*
X163647380Y-50173333D01*
X163599761Y-50268571D01*
X163552142Y-50316190D01*
G04 #@! TO.C,U4*
X171958095Y-81367380D02*
X171958095Y-82176904D01*
X172005714Y-82272142D01*
X172053333Y-82319761D01*
X172148571Y-82367380D01*
X172339047Y-82367380D01*
X172434285Y-82319761D01*
X172481904Y-82272142D01*
X172529523Y-82176904D01*
X172529523Y-81367380D01*
X173434285Y-81700714D02*
X173434285Y-82367380D01*
X173196190Y-81319761D02*
X172958095Y-82034047D01*
X173577142Y-82034047D01*
X177252380Y-93106428D02*
X177252380Y-92439761D01*
X178252380Y-92868333D01*
X177585714Y-91630238D02*
X178252380Y-91630238D01*
X177204761Y-91868333D02*
X177919047Y-92106428D01*
X177919047Y-91487380D01*
X178252380Y-90630238D02*
X178252380Y-91106428D01*
X177252380Y-91106428D01*
X177252380Y-90439761D02*
X178252380Y-90106428D01*
X177252380Y-89773095D01*
X178157142Y-88868333D02*
X178204761Y-88915952D01*
X178252380Y-89058809D01*
X178252380Y-89154047D01*
X178204761Y-89296904D01*
X178109523Y-89392142D01*
X178014285Y-89439761D01*
X177823809Y-89487380D01*
X177680952Y-89487380D01*
X177490476Y-89439761D01*
X177395238Y-89392142D01*
X177300000Y-89296904D01*
X177252380Y-89154047D01*
X177252380Y-89058809D01*
X177300000Y-88915952D01*
X177347619Y-88868333D01*
X177347619Y-88487380D02*
X177300000Y-88439761D01*
X177252380Y-88344523D01*
X177252380Y-88106428D01*
X177300000Y-88011190D01*
X177347619Y-87963571D01*
X177442857Y-87915952D01*
X177538095Y-87915952D01*
X177680952Y-87963571D01*
X178252380Y-88535000D01*
X178252380Y-87915952D01*
X177585714Y-87058809D02*
X178252380Y-87058809D01*
X177204761Y-87296904D02*
X177919047Y-87535000D01*
X177919047Y-86915952D01*
X177585714Y-86106428D02*
X178252380Y-86106428D01*
X177204761Y-86344523D02*
X177919047Y-86582619D01*
X177919047Y-85963571D01*
G04 #@! TO.C,U5*
X155448095Y-81367380D02*
X155448095Y-82176904D01*
X155495714Y-82272142D01*
X155543333Y-82319761D01*
X155638571Y-82367380D01*
X155829047Y-82367380D01*
X155924285Y-82319761D01*
X155971904Y-82272142D01*
X156019523Y-82176904D01*
X156019523Y-81367380D01*
X156971904Y-81367380D02*
X156495714Y-81367380D01*
X156448095Y-81843571D01*
X156495714Y-81795952D01*
X156590952Y-81748333D01*
X156829047Y-81748333D01*
X156924285Y-81795952D01*
X156971904Y-81843571D01*
X157019523Y-81938809D01*
X157019523Y-82176904D01*
X156971904Y-82272142D01*
X156924285Y-82319761D01*
X156829047Y-82367380D01*
X156590952Y-82367380D01*
X156495714Y-82319761D01*
X156448095Y-82272142D01*
X160742380Y-93177857D02*
X160742380Y-92511190D01*
X161742380Y-92939761D01*
X161075714Y-91701666D02*
X161742380Y-91701666D01*
X160694761Y-91939761D02*
X161409047Y-92177857D01*
X161409047Y-91558809D01*
X161742380Y-91177857D02*
X160742380Y-91177857D01*
X161218571Y-91177857D02*
X161218571Y-90606428D01*
X161742380Y-90606428D02*
X160742380Y-90606428D01*
X161647142Y-89558809D02*
X161694761Y-89606428D01*
X161742380Y-89749285D01*
X161742380Y-89844523D01*
X161694761Y-89987380D01*
X161599523Y-90082619D01*
X161504285Y-90130238D01*
X161313809Y-90177857D01*
X161170952Y-90177857D01*
X160980476Y-90130238D01*
X160885238Y-90082619D01*
X160790000Y-89987380D01*
X160742380Y-89844523D01*
X160742380Y-89749285D01*
X160790000Y-89606428D01*
X160837619Y-89558809D01*
X160742380Y-89273095D02*
X160742380Y-88701666D01*
X161742380Y-88987380D02*
X160742380Y-88987380D01*
X160742380Y-88463571D02*
X160742380Y-87844523D01*
X161123333Y-88177857D01*
X161123333Y-88035000D01*
X161170952Y-87939761D01*
X161218571Y-87892142D01*
X161313809Y-87844523D01*
X161551904Y-87844523D01*
X161647142Y-87892142D01*
X161694761Y-87939761D01*
X161742380Y-88035000D01*
X161742380Y-88320714D01*
X161694761Y-88415952D01*
X161647142Y-88463571D01*
X160742380Y-87511190D02*
X160742380Y-86844523D01*
X161742380Y-87273095D01*
X161075714Y-86035000D02*
X161742380Y-86035000D01*
X160694761Y-86273095D02*
X161409047Y-86511190D01*
X161409047Y-85892142D01*
G04 #@! TO.C,U6*
X155448095Y-61167380D02*
X155448095Y-61976904D01*
X155495714Y-62072142D01*
X155543333Y-62119761D01*
X155638571Y-62167380D01*
X155829047Y-62167380D01*
X155924285Y-62119761D01*
X155971904Y-62072142D01*
X156019523Y-61976904D01*
X156019523Y-61167380D01*
X156924285Y-61167380D02*
X156733809Y-61167380D01*
X156638571Y-61215000D01*
X156590952Y-61262619D01*
X156495714Y-61405476D01*
X156448095Y-61595952D01*
X156448095Y-61976904D01*
X156495714Y-62072142D01*
X156543333Y-62119761D01*
X156638571Y-62167380D01*
X156829047Y-62167380D01*
X156924285Y-62119761D01*
X156971904Y-62072142D01*
X157019523Y-61976904D01*
X157019523Y-61738809D01*
X156971904Y-61643571D01*
X156924285Y-61595952D01*
X156829047Y-61548333D01*
X156638571Y-61548333D01*
X156543333Y-61595952D01*
X156495714Y-61643571D01*
X156448095Y-61738809D01*
X160742380Y-72786428D02*
X160742380Y-72119761D01*
X161742380Y-72548333D01*
X161075714Y-71310238D02*
X161742380Y-71310238D01*
X160694761Y-71548333D02*
X161409047Y-71786428D01*
X161409047Y-71167380D01*
X161742380Y-70310238D02*
X161742380Y-70786428D01*
X160742380Y-70786428D01*
X160742380Y-70119761D02*
X161742380Y-69786428D01*
X160742380Y-69453095D01*
X161647142Y-68548333D02*
X161694761Y-68595952D01*
X161742380Y-68738809D01*
X161742380Y-68834047D01*
X161694761Y-68976904D01*
X161599523Y-69072142D01*
X161504285Y-69119761D01*
X161313809Y-69167380D01*
X161170952Y-69167380D01*
X160980476Y-69119761D01*
X160885238Y-69072142D01*
X160790000Y-68976904D01*
X160742380Y-68834047D01*
X160742380Y-68738809D01*
X160790000Y-68595952D01*
X160837619Y-68548333D01*
X160742380Y-68215000D02*
X160742380Y-67595952D01*
X161123333Y-67929285D01*
X161123333Y-67786428D01*
X161170952Y-67691190D01*
X161218571Y-67643571D01*
X161313809Y-67595952D01*
X161551904Y-67595952D01*
X161647142Y-67643571D01*
X161694761Y-67691190D01*
X161742380Y-67786428D01*
X161742380Y-68072142D01*
X161694761Y-68167380D01*
X161647142Y-68215000D01*
X160742380Y-67262619D02*
X160742380Y-66595952D01*
X161742380Y-67024523D01*
X161075714Y-65786428D02*
X161742380Y-65786428D01*
X160694761Y-66024523D02*
X161409047Y-66262619D01*
X161409047Y-65643571D01*
G04 #@! TO.C,U3*
X187833095Y-81367380D02*
X187833095Y-82176904D01*
X187880714Y-82272142D01*
X187928333Y-82319761D01*
X188023571Y-82367380D01*
X188214047Y-82367380D01*
X188309285Y-82319761D01*
X188356904Y-82272142D01*
X188404523Y-82176904D01*
X188404523Y-81367380D01*
X188785476Y-81367380D02*
X189404523Y-81367380D01*
X189071190Y-81748333D01*
X189214047Y-81748333D01*
X189309285Y-81795952D01*
X189356904Y-81843571D01*
X189404523Y-81938809D01*
X189404523Y-82176904D01*
X189356904Y-82272142D01*
X189309285Y-82319761D01*
X189214047Y-82367380D01*
X188928333Y-82367380D01*
X188833095Y-82319761D01*
X188785476Y-82272142D01*
X193127380Y-93177857D02*
X193127380Y-92511190D01*
X194127380Y-92939761D01*
X193460714Y-91701666D02*
X194127380Y-91701666D01*
X193079761Y-91939761D02*
X193794047Y-92177857D01*
X193794047Y-91558809D01*
X194127380Y-91177857D02*
X193127380Y-91177857D01*
X193603571Y-91177857D02*
X193603571Y-90606428D01*
X194127380Y-90606428D02*
X193127380Y-90606428D01*
X194032142Y-89558809D02*
X194079761Y-89606428D01*
X194127380Y-89749285D01*
X194127380Y-89844523D01*
X194079761Y-89987380D01*
X193984523Y-90082619D01*
X193889285Y-90130238D01*
X193698809Y-90177857D01*
X193555952Y-90177857D01*
X193365476Y-90130238D01*
X193270238Y-90082619D01*
X193175000Y-89987380D01*
X193127380Y-89844523D01*
X193127380Y-89749285D01*
X193175000Y-89606428D01*
X193222619Y-89558809D01*
X193127380Y-89273095D02*
X193127380Y-88701666D01*
X194127380Y-88987380D02*
X193127380Y-88987380D01*
X193222619Y-88415952D02*
X193175000Y-88368333D01*
X193127380Y-88273095D01*
X193127380Y-88035000D01*
X193175000Y-87939761D01*
X193222619Y-87892142D01*
X193317857Y-87844523D01*
X193413095Y-87844523D01*
X193555952Y-87892142D01*
X194127380Y-88463571D01*
X194127380Y-87844523D01*
X193460714Y-86987380D02*
X194127380Y-86987380D01*
X193079761Y-87225476D02*
X193794047Y-87463571D01*
X193794047Y-86844523D01*
X193460714Y-86035000D02*
X194127380Y-86035000D01*
X193079761Y-86273095D02*
X193794047Y-86511190D01*
X193794047Y-85892142D01*
G04 #@! TO.C,U8*
X156083095Y-99267380D02*
X156083095Y-100076904D01*
X156130714Y-100172142D01*
X156178333Y-100219761D01*
X156273571Y-100267380D01*
X156464047Y-100267380D01*
X156559285Y-100219761D01*
X156606904Y-100172142D01*
X156654523Y-100076904D01*
X156654523Y-99267380D01*
X157273571Y-99695952D02*
X157178333Y-99648333D01*
X157130714Y-99600714D01*
X157083095Y-99505476D01*
X157083095Y-99457857D01*
X157130714Y-99362619D01*
X157178333Y-99315000D01*
X157273571Y-99267380D01*
X157464047Y-99267380D01*
X157559285Y-99315000D01*
X157606904Y-99362619D01*
X157654523Y-99457857D01*
X157654523Y-99505476D01*
X157606904Y-99600714D01*
X157559285Y-99648333D01*
X157464047Y-99695952D01*
X157273571Y-99695952D01*
X157178333Y-99743571D01*
X157130714Y-99791190D01*
X157083095Y-99886428D01*
X157083095Y-100076904D01*
X157130714Y-100172142D01*
X157178333Y-100219761D01*
X157273571Y-100267380D01*
X157464047Y-100267380D01*
X157559285Y-100219761D01*
X157606904Y-100172142D01*
X157654523Y-100076904D01*
X157654523Y-99886428D01*
X157606904Y-99791190D01*
X157559285Y-99743571D01*
X157464047Y-99695952D01*
X161377380Y-110957857D02*
X161377380Y-110291190D01*
X162377380Y-110719761D01*
X161710714Y-109481666D02*
X162377380Y-109481666D01*
X161329761Y-109719761D02*
X162044047Y-109957857D01*
X162044047Y-109338809D01*
X162377380Y-108957857D02*
X161377380Y-108957857D01*
X161853571Y-108957857D02*
X161853571Y-108386428D01*
X162377380Y-108386428D02*
X161377380Y-108386428D01*
X162282142Y-107338809D02*
X162329761Y-107386428D01*
X162377380Y-107529285D01*
X162377380Y-107624523D01*
X162329761Y-107767380D01*
X162234523Y-107862619D01*
X162139285Y-107910238D01*
X161948809Y-107957857D01*
X161805952Y-107957857D01*
X161615476Y-107910238D01*
X161520238Y-107862619D01*
X161425000Y-107767380D01*
X161377380Y-107624523D01*
X161377380Y-107529285D01*
X161425000Y-107386428D01*
X161472619Y-107338809D01*
X161377380Y-107053095D02*
X161377380Y-106481666D01*
X162377380Y-106767380D02*
X161377380Y-106767380D01*
X161377380Y-106243571D02*
X161377380Y-105624523D01*
X161758333Y-105957857D01*
X161758333Y-105815000D01*
X161805952Y-105719761D01*
X161853571Y-105672142D01*
X161948809Y-105624523D01*
X162186904Y-105624523D01*
X162282142Y-105672142D01*
X162329761Y-105719761D01*
X162377380Y-105815000D01*
X162377380Y-106100714D01*
X162329761Y-106195952D01*
X162282142Y-106243571D01*
X161377380Y-105291190D02*
X161377380Y-104624523D01*
X162377380Y-105053095D01*
X161710714Y-103815000D02*
X162377380Y-103815000D01*
X161329761Y-104053095D02*
X162044047Y-104291190D01*
X162044047Y-103672142D01*
G04 #@! TO.C,U9*
X171958095Y-99147380D02*
X171958095Y-99956904D01*
X172005714Y-100052142D01*
X172053333Y-100099761D01*
X172148571Y-100147380D01*
X172339047Y-100147380D01*
X172434285Y-100099761D01*
X172481904Y-100052142D01*
X172529523Y-99956904D01*
X172529523Y-99147380D01*
X173053333Y-100147380D02*
X173243809Y-100147380D01*
X173339047Y-100099761D01*
X173386666Y-100052142D01*
X173481904Y-99909285D01*
X173529523Y-99718809D01*
X173529523Y-99337857D01*
X173481904Y-99242619D01*
X173434285Y-99195000D01*
X173339047Y-99147380D01*
X173148571Y-99147380D01*
X173053333Y-99195000D01*
X173005714Y-99242619D01*
X172958095Y-99337857D01*
X172958095Y-99575952D01*
X173005714Y-99671190D01*
X173053333Y-99718809D01*
X173148571Y-99766428D01*
X173339047Y-99766428D01*
X173434285Y-99718809D01*
X173481904Y-99671190D01*
X173529523Y-99575952D01*
X177252380Y-110957857D02*
X177252380Y-110291190D01*
X178252380Y-110719761D01*
X177585714Y-109481666D02*
X178252380Y-109481666D01*
X177204761Y-109719761D02*
X177919047Y-109957857D01*
X177919047Y-109338809D01*
X178252380Y-108957857D02*
X177252380Y-108957857D01*
X177728571Y-108957857D02*
X177728571Y-108386428D01*
X178252380Y-108386428D02*
X177252380Y-108386428D01*
X178157142Y-107338809D02*
X178204761Y-107386428D01*
X178252380Y-107529285D01*
X178252380Y-107624523D01*
X178204761Y-107767380D01*
X178109523Y-107862619D01*
X178014285Y-107910238D01*
X177823809Y-107957857D01*
X177680952Y-107957857D01*
X177490476Y-107910238D01*
X177395238Y-107862619D01*
X177300000Y-107767380D01*
X177252380Y-107624523D01*
X177252380Y-107529285D01*
X177300000Y-107386428D01*
X177347619Y-107338809D01*
X177252380Y-107053095D02*
X177252380Y-106481666D01*
X178252380Y-106767380D02*
X177252380Y-106767380D01*
X177252380Y-106243571D02*
X177252380Y-105624523D01*
X177633333Y-105957857D01*
X177633333Y-105815000D01*
X177680952Y-105719761D01*
X177728571Y-105672142D01*
X177823809Y-105624523D01*
X178061904Y-105624523D01*
X178157142Y-105672142D01*
X178204761Y-105719761D01*
X178252380Y-105815000D01*
X178252380Y-106100714D01*
X178204761Y-106195952D01*
X178157142Y-106243571D01*
X177252380Y-105291190D02*
X177252380Y-104624523D01*
X178252380Y-105053095D01*
X177585714Y-103815000D02*
X178252380Y-103815000D01*
X177204761Y-104053095D02*
X177919047Y-104291190D01*
X177919047Y-103672142D01*
G04 #@! TO.C,U10*
X187991904Y-99147380D02*
X187991904Y-99956904D01*
X188039523Y-100052142D01*
X188087142Y-100099761D01*
X188182380Y-100147380D01*
X188372857Y-100147380D01*
X188468095Y-100099761D01*
X188515714Y-100052142D01*
X188563333Y-99956904D01*
X188563333Y-99147380D01*
X189563333Y-100147380D02*
X188991904Y-100147380D01*
X189277619Y-100147380D02*
X189277619Y-99147380D01*
X189182380Y-99290238D01*
X189087142Y-99385476D01*
X188991904Y-99433095D01*
X190182380Y-99147380D02*
X190277619Y-99147380D01*
X190372857Y-99195000D01*
X190420476Y-99242619D01*
X190468095Y-99337857D01*
X190515714Y-99528333D01*
X190515714Y-99766428D01*
X190468095Y-99956904D01*
X190420476Y-100052142D01*
X190372857Y-100099761D01*
X190277619Y-100147380D01*
X190182380Y-100147380D01*
X190087142Y-100099761D01*
X190039523Y-100052142D01*
X189991904Y-99956904D01*
X189944285Y-99766428D01*
X189944285Y-99528333D01*
X189991904Y-99337857D01*
X190039523Y-99242619D01*
X190087142Y-99195000D01*
X190182380Y-99147380D01*
X193127380Y-110957857D02*
X193127380Y-110291190D01*
X194127380Y-110719761D01*
X193460714Y-109481666D02*
X194127380Y-109481666D01*
X193079761Y-109719761D02*
X193794047Y-109957857D01*
X193794047Y-109338809D01*
X194127380Y-108957857D02*
X193127380Y-108957857D01*
X193603571Y-108957857D02*
X193603571Y-108386428D01*
X194127380Y-108386428D02*
X193127380Y-108386428D01*
X194032142Y-107338809D02*
X194079761Y-107386428D01*
X194127380Y-107529285D01*
X194127380Y-107624523D01*
X194079761Y-107767380D01*
X193984523Y-107862619D01*
X193889285Y-107910238D01*
X193698809Y-107957857D01*
X193555952Y-107957857D01*
X193365476Y-107910238D01*
X193270238Y-107862619D01*
X193175000Y-107767380D01*
X193127380Y-107624523D01*
X193127380Y-107529285D01*
X193175000Y-107386428D01*
X193222619Y-107338809D01*
X193127380Y-107053095D02*
X193127380Y-106481666D01*
X194127380Y-106767380D02*
X193127380Y-106767380D01*
X193127380Y-106243571D02*
X193127380Y-105624523D01*
X193508333Y-105957857D01*
X193508333Y-105815000D01*
X193555952Y-105719761D01*
X193603571Y-105672142D01*
X193698809Y-105624523D01*
X193936904Y-105624523D01*
X194032142Y-105672142D01*
X194079761Y-105719761D01*
X194127380Y-105815000D01*
X194127380Y-106100714D01*
X194079761Y-106195952D01*
X194032142Y-106243571D01*
X193127380Y-105291190D02*
X193127380Y-104624523D01*
X194127380Y-105053095D01*
X193460714Y-103815000D02*
X194127380Y-103815000D01*
X193079761Y-104053095D02*
X193794047Y-104291190D01*
X193794047Y-103672142D01*
G04 #@! TO.C,U12*
X139096904Y-61167380D02*
X139096904Y-61976904D01*
X139144523Y-62072142D01*
X139192142Y-62119761D01*
X139287380Y-62167380D01*
X139477857Y-62167380D01*
X139573095Y-62119761D01*
X139620714Y-62072142D01*
X139668333Y-61976904D01*
X139668333Y-61167380D01*
X140668333Y-62167380D02*
X140096904Y-62167380D01*
X140382619Y-62167380D02*
X140382619Y-61167380D01*
X140287380Y-61310238D01*
X140192142Y-61405476D01*
X140096904Y-61453095D01*
X141049285Y-61262619D02*
X141096904Y-61215000D01*
X141192142Y-61167380D01*
X141430238Y-61167380D01*
X141525476Y-61215000D01*
X141573095Y-61262619D01*
X141620714Y-61357857D01*
X141620714Y-61453095D01*
X141573095Y-61595952D01*
X141001666Y-62167380D01*
X141620714Y-62167380D01*
X144232380Y-72857857D02*
X144232380Y-72191190D01*
X145232380Y-72619761D01*
X144565714Y-71381666D02*
X145232380Y-71381666D01*
X144184761Y-71619761D02*
X144899047Y-71857857D01*
X144899047Y-71238809D01*
X145232380Y-70857857D02*
X144232380Y-70857857D01*
X144708571Y-70857857D02*
X144708571Y-70286428D01*
X145232380Y-70286428D02*
X144232380Y-70286428D01*
X145137142Y-69238809D02*
X145184761Y-69286428D01*
X145232380Y-69429285D01*
X145232380Y-69524523D01*
X145184761Y-69667380D01*
X145089523Y-69762619D01*
X144994285Y-69810238D01*
X144803809Y-69857857D01*
X144660952Y-69857857D01*
X144470476Y-69810238D01*
X144375238Y-69762619D01*
X144280000Y-69667380D01*
X144232380Y-69524523D01*
X144232380Y-69429285D01*
X144280000Y-69286428D01*
X144327619Y-69238809D01*
X144232380Y-68953095D02*
X144232380Y-68381666D01*
X145232380Y-68667380D02*
X144232380Y-68667380D01*
X144232380Y-67619761D02*
X144232380Y-67810238D01*
X144280000Y-67905476D01*
X144327619Y-67953095D01*
X144470476Y-68048333D01*
X144660952Y-68095952D01*
X145041904Y-68095952D01*
X145137142Y-68048333D01*
X145184761Y-68000714D01*
X145232380Y-67905476D01*
X145232380Y-67715000D01*
X145184761Y-67619761D01*
X145137142Y-67572142D01*
X145041904Y-67524523D01*
X144803809Y-67524523D01*
X144708571Y-67572142D01*
X144660952Y-67619761D01*
X144613333Y-67715000D01*
X144613333Y-67905476D01*
X144660952Y-68000714D01*
X144708571Y-68048333D01*
X144803809Y-68095952D01*
X144660952Y-66953095D02*
X144613333Y-67048333D01*
X144565714Y-67095952D01*
X144470476Y-67143571D01*
X144422857Y-67143571D01*
X144327619Y-67095952D01*
X144280000Y-67048333D01*
X144232380Y-66953095D01*
X144232380Y-66762619D01*
X144280000Y-66667380D01*
X144327619Y-66619761D01*
X144422857Y-66572142D01*
X144470476Y-66572142D01*
X144565714Y-66619761D01*
X144613333Y-66667380D01*
X144660952Y-66762619D01*
X144660952Y-66953095D01*
X144708571Y-67048333D01*
X144756190Y-67095952D01*
X144851428Y-67143571D01*
X145041904Y-67143571D01*
X145137142Y-67095952D01*
X145184761Y-67048333D01*
X145232380Y-66953095D01*
X145232380Y-66762619D01*
X145184761Y-66667380D01*
X145137142Y-66619761D01*
X145041904Y-66572142D01*
X144851428Y-66572142D01*
X144756190Y-66619761D01*
X144708571Y-66667380D01*
X144660952Y-66762619D01*
X144660952Y-66000714D02*
X144613333Y-66095952D01*
X144565714Y-66143571D01*
X144470476Y-66191190D01*
X144422857Y-66191190D01*
X144327619Y-66143571D01*
X144280000Y-66095952D01*
X144232380Y-66000714D01*
X144232380Y-65810238D01*
X144280000Y-65715000D01*
X144327619Y-65667380D01*
X144422857Y-65619761D01*
X144470476Y-65619761D01*
X144565714Y-65667380D01*
X144613333Y-65715000D01*
X144660952Y-65810238D01*
X144660952Y-66000714D01*
X144708571Y-66095952D01*
X144756190Y-66143571D01*
X144851428Y-66191190D01*
X145041904Y-66191190D01*
X145137142Y-66143571D01*
X145184761Y-66095952D01*
X145232380Y-66000714D01*
X145232380Y-65810238D01*
X145184761Y-65715000D01*
X145137142Y-65667380D01*
X145041904Y-65619761D01*
X144851428Y-65619761D01*
X144756190Y-65667380D01*
X144708571Y-65715000D01*
X144660952Y-65810238D01*
G04 #@! TO.C,U13*
X121951904Y-61167380D02*
X121951904Y-61976904D01*
X121999523Y-62072142D01*
X122047142Y-62119761D01*
X122142380Y-62167380D01*
X122332857Y-62167380D01*
X122428095Y-62119761D01*
X122475714Y-62072142D01*
X122523333Y-61976904D01*
X122523333Y-61167380D01*
X123523333Y-62167380D02*
X122951904Y-62167380D01*
X123237619Y-62167380D02*
X123237619Y-61167380D01*
X123142380Y-61310238D01*
X123047142Y-61405476D01*
X122951904Y-61453095D01*
X123856666Y-61167380D02*
X124475714Y-61167380D01*
X124142380Y-61548333D01*
X124285238Y-61548333D01*
X124380476Y-61595952D01*
X124428095Y-61643571D01*
X124475714Y-61738809D01*
X124475714Y-61976904D01*
X124428095Y-62072142D01*
X124380476Y-62119761D01*
X124285238Y-62167380D01*
X123999523Y-62167380D01*
X123904285Y-62119761D01*
X123856666Y-62072142D01*
X127722380Y-72857857D02*
X127722380Y-72191190D01*
X128722380Y-72619761D01*
X128055714Y-71381666D02*
X128722380Y-71381666D01*
X127674761Y-71619761D02*
X128389047Y-71857857D01*
X128389047Y-71238809D01*
X128722380Y-70857857D02*
X127722380Y-70857857D01*
X128198571Y-70857857D02*
X128198571Y-70286428D01*
X128722380Y-70286428D02*
X127722380Y-70286428D01*
X128627142Y-69238809D02*
X128674761Y-69286428D01*
X128722380Y-69429285D01*
X128722380Y-69524523D01*
X128674761Y-69667380D01*
X128579523Y-69762619D01*
X128484285Y-69810238D01*
X128293809Y-69857857D01*
X128150952Y-69857857D01*
X127960476Y-69810238D01*
X127865238Y-69762619D01*
X127770000Y-69667380D01*
X127722380Y-69524523D01*
X127722380Y-69429285D01*
X127770000Y-69286428D01*
X127817619Y-69238809D01*
X127722380Y-68953095D02*
X127722380Y-68381666D01*
X128722380Y-68667380D02*
X127722380Y-68667380D01*
X127722380Y-67619761D02*
X127722380Y-67810238D01*
X127770000Y-67905476D01*
X127817619Y-67953095D01*
X127960476Y-68048333D01*
X128150952Y-68095952D01*
X128531904Y-68095952D01*
X128627142Y-68048333D01*
X128674761Y-68000714D01*
X128722380Y-67905476D01*
X128722380Y-67715000D01*
X128674761Y-67619761D01*
X128627142Y-67572142D01*
X128531904Y-67524523D01*
X128293809Y-67524523D01*
X128198571Y-67572142D01*
X128150952Y-67619761D01*
X128103333Y-67715000D01*
X128103333Y-67905476D01*
X128150952Y-68000714D01*
X128198571Y-68048333D01*
X128293809Y-68095952D01*
X128150952Y-66953095D02*
X128103333Y-67048333D01*
X128055714Y-67095952D01*
X127960476Y-67143571D01*
X127912857Y-67143571D01*
X127817619Y-67095952D01*
X127770000Y-67048333D01*
X127722380Y-66953095D01*
X127722380Y-66762619D01*
X127770000Y-66667380D01*
X127817619Y-66619761D01*
X127912857Y-66572142D01*
X127960476Y-66572142D01*
X128055714Y-66619761D01*
X128103333Y-66667380D01*
X128150952Y-66762619D01*
X128150952Y-66953095D01*
X128198571Y-67048333D01*
X128246190Y-67095952D01*
X128341428Y-67143571D01*
X128531904Y-67143571D01*
X128627142Y-67095952D01*
X128674761Y-67048333D01*
X128722380Y-66953095D01*
X128722380Y-66762619D01*
X128674761Y-66667380D01*
X128627142Y-66619761D01*
X128531904Y-66572142D01*
X128341428Y-66572142D01*
X128246190Y-66619761D01*
X128198571Y-66667380D01*
X128150952Y-66762619D01*
X128150952Y-66000714D02*
X128103333Y-66095952D01*
X128055714Y-66143571D01*
X127960476Y-66191190D01*
X127912857Y-66191190D01*
X127817619Y-66143571D01*
X127770000Y-66095952D01*
X127722380Y-66000714D01*
X127722380Y-65810238D01*
X127770000Y-65715000D01*
X127817619Y-65667380D01*
X127912857Y-65619761D01*
X127960476Y-65619761D01*
X128055714Y-65667380D01*
X128103333Y-65715000D01*
X128150952Y-65810238D01*
X128150952Y-66000714D01*
X128198571Y-66095952D01*
X128246190Y-66143571D01*
X128341428Y-66191190D01*
X128531904Y-66191190D01*
X128627142Y-66143571D01*
X128674761Y-66095952D01*
X128722380Y-66000714D01*
X128722380Y-65810238D01*
X128674761Y-65715000D01*
X128627142Y-65667380D01*
X128531904Y-65619761D01*
X128341428Y-65619761D01*
X128246190Y-65667380D01*
X128198571Y-65715000D01*
X128150952Y-65810238D01*
G04 #@! TO.C,U11*
X149256904Y-51197380D02*
X149256904Y-52006904D01*
X149304523Y-52102142D01*
X149352142Y-52149761D01*
X149447380Y-52197380D01*
X149637857Y-52197380D01*
X149733095Y-52149761D01*
X149780714Y-52102142D01*
X149828333Y-52006904D01*
X149828333Y-51197380D01*
X150828333Y-52197380D02*
X150256904Y-52197380D01*
X150542619Y-52197380D02*
X150542619Y-51197380D01*
X150447380Y-51340238D01*
X150352142Y-51435476D01*
X150256904Y-51483095D01*
X151780714Y-52197380D02*
X151209285Y-52197380D01*
X151495000Y-52197380D02*
X151495000Y-51197380D01*
X151399761Y-51340238D01*
X151304523Y-51435476D01*
X151209285Y-51483095D01*
G04 #@! TO.C,J8*
X105851380Y-39627133D02*
X106565666Y-39627133D01*
X106708523Y-39674752D01*
X106803761Y-39769990D01*
X106851380Y-39912847D01*
X106851380Y-40008085D01*
X106279952Y-39008085D02*
X106232333Y-39103323D01*
X106184714Y-39150942D01*
X106089476Y-39198561D01*
X106041857Y-39198561D01*
X105946619Y-39150942D01*
X105899000Y-39103323D01*
X105851380Y-39008085D01*
X105851380Y-38817609D01*
X105899000Y-38722371D01*
X105946619Y-38674752D01*
X106041857Y-38627133D01*
X106089476Y-38627133D01*
X106184714Y-38674752D01*
X106232333Y-38722371D01*
X106279952Y-38817609D01*
X106279952Y-39008085D01*
X106327571Y-39103323D01*
X106375190Y-39150942D01*
X106470428Y-39198561D01*
X106660904Y-39198561D01*
X106756142Y-39150942D01*
X106803761Y-39103323D01*
X106851380Y-39008085D01*
X106851380Y-38817609D01*
X106803761Y-38722371D01*
X106756142Y-38674752D01*
X106660904Y-38627133D01*
X106470428Y-38627133D01*
X106375190Y-38674752D01*
X106327571Y-38722371D01*
X106279952Y-38817609D01*
G04 #@! TO.C,J9*
X163851380Y-39627133D02*
X164565666Y-39627133D01*
X164708523Y-39674752D01*
X164803761Y-39769990D01*
X164851380Y-39912847D01*
X164851380Y-40008085D01*
X164851380Y-39103323D02*
X164851380Y-38912847D01*
X164803761Y-38817609D01*
X164756142Y-38769990D01*
X164613285Y-38674752D01*
X164422809Y-38627133D01*
X164041857Y-38627133D01*
X163946619Y-38674752D01*
X163899000Y-38722371D01*
X163851380Y-38817609D01*
X163851380Y-39008085D01*
X163899000Y-39103323D01*
X163946619Y-39150942D01*
X164041857Y-39198561D01*
X164279952Y-39198561D01*
X164375190Y-39150942D01*
X164422809Y-39103323D01*
X164470428Y-39008085D01*
X164470428Y-38817609D01*
X164422809Y-38722371D01*
X164375190Y-38674752D01*
X164279952Y-38627133D01*
G04 #@! TO.C,J5*
X195032380Y-43513333D02*
X195746666Y-43513333D01*
X195889523Y-43560952D01*
X195984761Y-43656190D01*
X196032380Y-43799047D01*
X196032380Y-43894285D01*
X195032380Y-42560952D02*
X195032380Y-43037142D01*
X195508571Y-43084761D01*
X195460952Y-43037142D01*
X195413333Y-42941904D01*
X195413333Y-42703809D01*
X195460952Y-42608571D01*
X195508571Y-42560952D01*
X195603809Y-42513333D01*
X195841904Y-42513333D01*
X195937142Y-42560952D01*
X195984761Y-42608571D01*
X196032380Y-42703809D01*
X196032380Y-42941904D01*
X195984761Y-43037142D01*
X195937142Y-43084761D01*
G04 #@! TO.C,J7*
X183812380Y-119713333D02*
X184526666Y-119713333D01*
X184669523Y-119760952D01*
X184764761Y-119856190D01*
X184812380Y-119999047D01*
X184812380Y-120094285D01*
X183812380Y-119332380D02*
X183812380Y-118665714D01*
X184812380Y-119094285D01*
X186777619Y-117292380D02*
X186777619Y-116292380D01*
X187158571Y-116292380D01*
X187253809Y-116340000D01*
X187301428Y-116387619D01*
X187349047Y-116482857D01*
X187349047Y-116625714D01*
X187301428Y-116720952D01*
X187253809Y-116768571D01*
X187158571Y-116816190D01*
X186777619Y-116816190D01*
X187777619Y-117292380D02*
X187777619Y-116292380D01*
X189015714Y-117292380D02*
X189015714Y-116292380D01*
X189396666Y-116292380D01*
X189491904Y-116340000D01*
X189539523Y-116387619D01*
X189587142Y-116482857D01*
X189587142Y-116625714D01*
X189539523Y-116720952D01*
X189491904Y-116768571D01*
X189396666Y-116816190D01*
X189015714Y-116816190D01*
X189920476Y-116292380D02*
X190158571Y-117292380D01*
X190349047Y-116578095D01*
X190539523Y-117292380D01*
X190777619Y-116292380D01*
X191730000Y-117292380D02*
X191396666Y-116816190D01*
X191158571Y-117292380D02*
X191158571Y-116292380D01*
X191539523Y-116292380D01*
X191634761Y-116340000D01*
X191682380Y-116387619D01*
X191730000Y-116482857D01*
X191730000Y-116625714D01*
X191682380Y-116720952D01*
X191634761Y-116768571D01*
X191539523Y-116816190D01*
X191158571Y-116816190D01*
G04 #@! TO.C,J3*
X134917380Y-108283333D02*
X135631666Y-108283333D01*
X135774523Y-108330952D01*
X135869761Y-108426190D01*
X135917380Y-108569047D01*
X135917380Y-108664285D01*
X134917380Y-107902380D02*
X134917380Y-107283333D01*
X135298333Y-107616666D01*
X135298333Y-107473809D01*
X135345952Y-107378571D01*
X135393571Y-107330952D01*
X135488809Y-107283333D01*
X135726904Y-107283333D01*
X135822142Y-107330952D01*
X135869761Y-107378571D01*
X135917380Y-107473809D01*
X135917380Y-107759523D01*
X135869761Y-107854761D01*
X135822142Y-107902380D01*
X150737380Y-109259523D02*
X149737380Y-109259523D01*
X150213571Y-109259523D02*
X150213571Y-108688095D01*
X150737380Y-108688095D02*
X149737380Y-108688095D01*
X150737380Y-107640476D02*
X150261190Y-107973809D01*
X150737380Y-108211904D02*
X149737380Y-108211904D01*
X149737380Y-107830952D01*
X149785000Y-107735714D01*
X149832619Y-107688095D01*
X149927857Y-107640476D01*
X150070714Y-107640476D01*
X150165952Y-107688095D01*
X150213571Y-107735714D01*
X150261190Y-107830952D01*
X150261190Y-108211904D01*
X150832619Y-106545238D02*
X150785000Y-106640476D01*
X150689761Y-106735714D01*
X150546904Y-106878571D01*
X150499285Y-106973809D01*
X150499285Y-107069047D01*
X150737380Y-107021428D02*
X150689761Y-107116666D01*
X150594523Y-107211904D01*
X150404047Y-107259523D01*
X150070714Y-107259523D01*
X149880238Y-107211904D01*
X149785000Y-107116666D01*
X149737380Y-107021428D01*
X149737380Y-106830952D01*
X149785000Y-106735714D01*
X149880238Y-106640476D01*
X150070714Y-106592857D01*
X150404047Y-106592857D01*
X150594523Y-106640476D01*
X150689761Y-106735714D01*
X150737380Y-106830952D01*
X150737380Y-107021428D01*
G04 #@! TO.C,R1*
X152948333Y-44472380D02*
X152615000Y-43996190D01*
X152376904Y-44472380D02*
X152376904Y-43472380D01*
X152757857Y-43472380D01*
X152853095Y-43520000D01*
X152900714Y-43567619D01*
X152948333Y-43662857D01*
X152948333Y-43805714D01*
X152900714Y-43900952D01*
X152853095Y-43948571D01*
X152757857Y-43996190D01*
X152376904Y-43996190D01*
X153900714Y-44472380D02*
X153329285Y-44472380D01*
X153615000Y-44472380D02*
X153615000Y-43472380D01*
X153519761Y-43615238D01*
X153424523Y-43710476D01*
X153329285Y-43758095D01*
G04 #@! TO.C,RN2*
X138374523Y-78697380D02*
X138041190Y-78221190D01*
X137803095Y-78697380D02*
X137803095Y-77697380D01*
X138184047Y-77697380D01*
X138279285Y-77745000D01*
X138326904Y-77792619D01*
X138374523Y-77887857D01*
X138374523Y-78030714D01*
X138326904Y-78125952D01*
X138279285Y-78173571D01*
X138184047Y-78221190D01*
X137803095Y-78221190D01*
X138803095Y-78697380D02*
X138803095Y-77697380D01*
X139374523Y-78697380D01*
X139374523Y-77697380D01*
X139803095Y-77792619D02*
X139850714Y-77745000D01*
X139945952Y-77697380D01*
X140184047Y-77697380D01*
X140279285Y-77745000D01*
X140326904Y-77792619D01*
X140374523Y-77887857D01*
X140374523Y-77983095D01*
X140326904Y-78125952D01*
X139755476Y-78697380D01*
X140374523Y-78697380D01*
G04 #@! TO.C,RN3*
X119324523Y-83777380D02*
X118991190Y-83301190D01*
X118753095Y-83777380D02*
X118753095Y-82777380D01*
X119134047Y-82777380D01*
X119229285Y-82825000D01*
X119276904Y-82872619D01*
X119324523Y-82967857D01*
X119324523Y-83110714D01*
X119276904Y-83205952D01*
X119229285Y-83253571D01*
X119134047Y-83301190D01*
X118753095Y-83301190D01*
X119753095Y-83777380D02*
X119753095Y-82777380D01*
X120324523Y-83777380D01*
X120324523Y-82777380D01*
X120705476Y-82777380D02*
X121324523Y-82777380D01*
X120991190Y-83158333D01*
X121134047Y-83158333D01*
X121229285Y-83205952D01*
X121276904Y-83253571D01*
X121324523Y-83348809D01*
X121324523Y-83586904D01*
X121276904Y-83682142D01*
X121229285Y-83729761D01*
X121134047Y-83777380D01*
X120848333Y-83777380D01*
X120753095Y-83729761D01*
X120705476Y-83682142D01*
G04 #@! TO.C,RN1*
X143454523Y-83777380D02*
X143121190Y-83301190D01*
X142883095Y-83777380D02*
X142883095Y-82777380D01*
X143264047Y-82777380D01*
X143359285Y-82825000D01*
X143406904Y-82872619D01*
X143454523Y-82967857D01*
X143454523Y-83110714D01*
X143406904Y-83205952D01*
X143359285Y-83253571D01*
X143264047Y-83301190D01*
X142883095Y-83301190D01*
X143883095Y-83777380D02*
X143883095Y-82777380D01*
X144454523Y-83777380D01*
X144454523Y-82777380D01*
X145454523Y-83777380D02*
X144883095Y-83777380D01*
X145168809Y-83777380D02*
X145168809Y-82777380D01*
X145073571Y-82920238D01*
X144978333Y-83015476D01*
X144883095Y-83063095D01*
G04 #@! TO.C,J1*
D15*
X158301266Y-140274523D02*
X158301266Y-141181666D01*
X158240790Y-141363095D01*
X158119838Y-141484047D01*
X157938409Y-141544523D01*
X157817457Y-141544523D01*
X159571266Y-141544523D02*
X158845552Y-141544523D01*
X159208409Y-141544523D02*
X159208409Y-140274523D01*
X159087457Y-140455952D01*
X158966504Y-140576904D01*
X158845552Y-140637380D01*
G04 #@! TO.C,U14*
D11*
X184181904Y-76922380D02*
X184181904Y-77731904D01*
X184229523Y-77827142D01*
X184277142Y-77874761D01*
X184372380Y-77922380D01*
X184562857Y-77922380D01*
X184658095Y-77874761D01*
X184705714Y-77827142D01*
X184753333Y-77731904D01*
X184753333Y-76922380D01*
X185753333Y-77922380D02*
X185181904Y-77922380D01*
X185467619Y-77922380D02*
X185467619Y-76922380D01*
X185372380Y-77065238D01*
X185277142Y-77160476D01*
X185181904Y-77208095D01*
X186610476Y-77255714D02*
X186610476Y-77922380D01*
X186372380Y-76874761D02*
X186134285Y-77589047D01*
X186753333Y-77589047D01*
G04 #@! TD*
M02*
