G04 #@! TF.GenerationSoftware,KiCad,Pcbnew,(5.0.2)-1*
G04 #@! TF.CreationDate,2019-01-03T08:46:51-07:00*
G04 #@! TF.ProjectId,Pi Board,50692042-6f61-4726-942e-6b696361645f,rev?*
G04 #@! TF.SameCoordinates,Original*
G04 #@! TF.FileFunction,Copper,L2,Bot*
G04 #@! TF.FilePolarity,Positive*
%FSLAX46Y46*%
G04 Gerber Fmt 4.6, Leading zero omitted, Abs format (unit mm)*
G04 Created by KiCad (PCBNEW (5.0.2)-1) date 1/3/2019 8:46:51 AM*
%MOMM*%
%LPD*%
G01*
G04 APERTURE LIST*
G04 #@! TA.AperFunction,ComponentPad*
%ADD10R,1.700000X1.700000*%
G04 #@! TD*
G04 #@! TA.AperFunction,ComponentPad*
%ADD11O,1.700000X1.700000*%
G04 #@! TD*
G04 #@! TA.AperFunction,ComponentPad*
%ADD12O,1.600000X1.600000*%
G04 #@! TD*
G04 #@! TA.AperFunction,ComponentPad*
%ADD13R,1.600000X1.600000*%
G04 #@! TD*
G04 #@! TA.AperFunction,ComponentPad*
%ADD14C,5.400000*%
G04 #@! TD*
G04 #@! TA.AperFunction,ComponentPad*
%ADD15C,0.800000*%
G04 #@! TD*
G04 #@! TA.AperFunction,ComponentPad*
%ADD16C,1.219200*%
G04 #@! TD*
G04 #@! TA.AperFunction,ComponentPad*
%ADD17C,3.314700*%
G04 #@! TD*
G04 #@! TA.AperFunction,ComponentPad*
%ADD18C,1.397000*%
G04 #@! TD*
G04 #@! TA.AperFunction,ComponentPad*
%ADD19R,1.397000X1.397000*%
G04 #@! TD*
G04 #@! TA.AperFunction,ViaPad*
%ADD20C,0.800000*%
G04 #@! TD*
G04 #@! TA.AperFunction,ViaPad*
%ADD21C,0.600000*%
G04 #@! TD*
G04 #@! TA.AperFunction,Conductor*
%ADD22C,0.600000*%
G04 #@! TD*
G04 #@! TA.AperFunction,Conductor*
%ADD23C,0.250000*%
G04 #@! TD*
G04 #@! TA.AperFunction,Conductor*
%ADD24C,0.254000*%
G04 #@! TD*
G04 APERTURE END LIST*
D10*
G04 #@! TO.P,J6,1*
G04 #@! TO.N,Net-(J6-Pad1)*
X163195000Y-40640000D03*
D11*
G04 #@! TO.P,J6,2*
G04 #@! TO.N,/PIPWR*
X163195000Y-38100000D03*
G04 #@! TO.P,J6,3*
G04 #@! TO.N,Net-(J6-Pad3)*
X160655000Y-40640000D03*
G04 #@! TO.P,J6,4*
G04 #@! TO.N,/PIPWR*
X160655000Y-38100000D03*
G04 #@! TO.P,J6,5*
G04 #@! TO.N,Net-(J6-Pad5)*
X158115000Y-40640000D03*
G04 #@! TO.P,J6,6*
G04 #@! TO.N,GND*
X158115000Y-38100000D03*
G04 #@! TO.P,J6,7*
G04 #@! TO.N,/~WR*
X155575000Y-40640000D03*
G04 #@! TO.P,J6,8*
G04 #@! TO.N,Net-(J5-Pad5)*
X155575000Y-38100000D03*
G04 #@! TO.P,J6,9*
G04 #@! TO.N,GND*
X153035000Y-40640000D03*
G04 #@! TO.P,J6,10*
G04 #@! TO.N,Net-(J5-Pad4)*
X153035000Y-38100000D03*
G04 #@! TO.P,J6,11*
G04 #@! TO.N,/AD1*
X150495000Y-40640000D03*
G04 #@! TO.P,J6,12*
G04 #@! TO.N,/AD2*
X150495000Y-38100000D03*
G04 #@! TO.P,J6,13*
G04 #@! TO.N,/pPI_REQ*
X147955000Y-40640000D03*
G04 #@! TO.P,J6,14*
G04 #@! TO.N,GND*
X147955000Y-38100000D03*
G04 #@! TO.P,J6,15*
G04 #@! TO.N,/AD6*
X145415000Y-40640000D03*
G04 #@! TO.P,J6,16*
G04 #@! TO.N,/AD7*
X145415000Y-38100000D03*
G04 #@! TO.P,J6,17*
G04 #@! TO.N,Net-(C6-Pad1)*
X142875000Y-40640000D03*
G04 #@! TO.P,J6,18*
G04 #@! TO.N,/ALE_X*
X142875000Y-38100000D03*
G04 #@! TO.P,J6,19*
G04 #@! TO.N,/CON_W*
X140335000Y-40640000D03*
G04 #@! TO.P,J6,20*
G04 #@! TO.N,GND*
X140335000Y-38100000D03*
G04 #@! TO.P,J6,21*
G04 #@! TO.N,/~pCON_SO*
X137795000Y-40640000D03*
G04 #@! TO.P,J6,22*
G04 #@! TO.N,/ALE_H*
X137795000Y-38100000D03*
G04 #@! TO.P,J6,23*
G04 #@! TO.N,/~CON_R*
X135255000Y-40640000D03*
G04 #@! TO.P,J6,24*
G04 #@! TO.N,/~HAK*
X135255000Y-38100000D03*
G04 #@! TO.P,J6,25*
G04 #@! TO.N,GND*
X132715000Y-40640000D03*
G04 #@! TO.P,J6,26*
G04 #@! TO.N,/~HRQ*
X132715000Y-38100000D03*
G04 #@! TO.P,J6,27*
G04 #@! TO.N,Net-(J6-Pad27)*
X130175000Y-40640000D03*
G04 #@! TO.P,J6,28*
G04 #@! TO.N,Net-(J6-Pad28)*
X130175000Y-38100000D03*
G04 #@! TO.P,J6,29*
G04 #@! TO.N,/~RD*
X127635000Y-40640000D03*
G04 #@! TO.P,J6,30*
G04 #@! TO.N,GND*
X127635000Y-38100000D03*
G04 #@! TO.P,J6,31*
G04 #@! TO.N,/IO~M*
X125095000Y-40640000D03*
G04 #@! TO.P,J6,32*
G04 #@! TO.N,/~pINT*
X125095000Y-38100000D03*
G04 #@! TO.P,J6,33*
G04 #@! TO.N,/~pRFSH*
X122555000Y-40640000D03*
G04 #@! TO.P,J6,34*
G04 #@! TO.N,GND*
X122555000Y-38100000D03*
G04 #@! TO.P,J6,35*
G04 #@! TO.N,/AD3*
X120015000Y-40640000D03*
G04 #@! TO.P,J6,36*
G04 #@! TO.N,/AD0*
X120015000Y-38100000D03*
G04 #@! TO.P,J6,37*
G04 #@! TO.N,/ALE_L*
X117475000Y-40640000D03*
G04 #@! TO.P,J6,38*
G04 #@! TO.N,/AD4*
X117475000Y-38100000D03*
G04 #@! TO.P,J6,39*
G04 #@! TO.N,GND*
X114935000Y-40640000D03*
G04 #@! TO.P,J6,40*
G04 #@! TO.N,/AD5*
X114935000Y-38100000D03*
G04 #@! TD*
G04 #@! TO.P,J4,10*
G04 #@! TO.N,/PU1*
X147955000Y-115570000D03*
G04 #@! TO.P,J4,9*
G04 #@! TO.N,/~HLDA*
X147955000Y-118110000D03*
G04 #@! TO.P,J4,8*
G04 #@! TO.N,/PU1*
X145415000Y-115570000D03*
G04 #@! TO.P,J4,7*
G04 #@! TO.N,/~DAK0*
X145415000Y-118110000D03*
G04 #@! TO.P,J4,6*
G04 #@! TO.N,/PU1*
X142875000Y-115570000D03*
G04 #@! TO.P,J4,5*
G04 #@! TO.N,/~DAK1*
X142875000Y-118110000D03*
G04 #@! TO.P,J4,4*
G04 #@! TO.N,/PU1*
X140335000Y-115570000D03*
G04 #@! TO.P,J4,3*
G04 #@! TO.N,/~DAK2*
X140335000Y-118110000D03*
G04 #@! TO.P,J4,2*
G04 #@! TO.N,/PU1*
X137795000Y-115570000D03*
D10*
G04 #@! TO.P,J4,1*
G04 #@! TO.N,/~DAK3*
X137795000Y-118110000D03*
G04 #@! TD*
D12*
G04 #@! TO.P,SW1,12*
G04 #@! TO.N,/PD1*
X136525000Y-90805000D03*
G04 #@! TO.P,SW1,6*
G04 #@! TO.N,+5V*
X149225000Y-98425000D03*
G04 #@! TO.P,SW1,11*
G04 #@! TO.N,Net-(RN1-Pad2)*
X139065000Y-90805000D03*
G04 #@! TO.P,SW1,5*
G04 #@! TO.N,+5V*
X146685000Y-98425000D03*
G04 #@! TO.P,SW1,10*
G04 #@! TO.N,Net-(RN1-Pad3)*
X141605000Y-90805000D03*
G04 #@! TO.P,SW1,4*
G04 #@! TO.N,+5V*
X144145000Y-98425000D03*
G04 #@! TO.P,SW1,9*
G04 #@! TO.N,Net-(RN1-Pad4)*
X144145000Y-90805000D03*
G04 #@! TO.P,SW1,3*
G04 #@! TO.N,+5V*
X141605000Y-98425000D03*
G04 #@! TO.P,SW1,8*
G04 #@! TO.N,Net-(RN1-Pad5)*
X146685000Y-90805000D03*
G04 #@! TO.P,SW1,2*
G04 #@! TO.N,+5V*
X139065000Y-98425000D03*
G04 #@! TO.P,SW1,7*
G04 #@! TO.N,Net-(RN1-Pad6)*
X149225000Y-90805000D03*
D13*
G04 #@! TO.P,SW1,1*
G04 #@! TO.N,+5V*
X136525000Y-98425000D03*
G04 #@! TD*
D12*
G04 #@! TO.P,SW2,16*
G04 #@! TO.N,Net-(RN3-Pad2)*
X109855000Y-90805000D03*
G04 #@! TO.P,SW2,8*
G04 #@! TO.N,+5V*
X127635000Y-98425000D03*
G04 #@! TO.P,SW2,15*
G04 #@! TO.N,Net-(RN3-Pad3)*
X112395000Y-90805000D03*
G04 #@! TO.P,SW2,7*
G04 #@! TO.N,+5V*
X125095000Y-98425000D03*
G04 #@! TO.P,SW2,14*
G04 #@! TO.N,Net-(RN3-Pad4)*
X114935000Y-90805000D03*
G04 #@! TO.P,SW2,6*
G04 #@! TO.N,+5V*
X122555000Y-98425000D03*
G04 #@! TO.P,SW2,13*
G04 #@! TO.N,Net-(RN3-Pad5)*
X117475000Y-90805000D03*
G04 #@! TO.P,SW2,5*
G04 #@! TO.N,+5V*
X120015000Y-98425000D03*
G04 #@! TO.P,SW2,12*
G04 #@! TO.N,Net-(RN3-Pad6)*
X120015000Y-90805000D03*
G04 #@! TO.P,SW2,4*
G04 #@! TO.N,+5V*
X117475000Y-98425000D03*
G04 #@! TO.P,SW2,11*
G04 #@! TO.N,Net-(RN3-Pad7)*
X122555000Y-90805000D03*
G04 #@! TO.P,SW2,3*
G04 #@! TO.N,+5V*
X114935000Y-98425000D03*
G04 #@! TO.P,SW2,10*
G04 #@! TO.N,Net-(RN3-Pad8)*
X125095000Y-90805000D03*
G04 #@! TO.P,SW2,2*
G04 #@! TO.N,+5V*
X112395000Y-98425000D03*
G04 #@! TO.P,SW2,9*
G04 #@! TO.N,Net-(RN3-Pad9)*
X127635000Y-90805000D03*
D13*
G04 #@! TO.P,SW2,1*
G04 #@! TO.N,+5V*
X109855000Y-98425000D03*
G04 #@! TD*
D12*
G04 #@! TO.P,J2,16*
G04 #@! TO.N,Net-(J2-Pad16)*
X109220000Y-107950000D03*
G04 #@! TO.P,J2,8*
G04 #@! TO.N,/~IRQ7*
X127000000Y-115570000D03*
G04 #@! TO.P,J2,15*
G04 #@! TO.N,Net-(J2-Pad15)*
X111760000Y-107950000D03*
G04 #@! TO.P,J2,7*
G04 #@! TO.N,/~IRQ6*
X124460000Y-115570000D03*
G04 #@! TO.P,J2,14*
G04 #@! TO.N,Net-(J2-Pad14)*
X114300000Y-107950000D03*
G04 #@! TO.P,J2,6*
G04 #@! TO.N,/~IRQ5*
X121920000Y-115570000D03*
G04 #@! TO.P,J2,13*
G04 #@! TO.N,Net-(J2-Pad13)*
X116840000Y-107950000D03*
G04 #@! TO.P,J2,5*
G04 #@! TO.N,/~IRQ4*
X119380000Y-115570000D03*
G04 #@! TO.P,J2,12*
G04 #@! TO.N,Net-(J2-Pad12)*
X119380000Y-107950000D03*
G04 #@! TO.P,J2,4*
G04 #@! TO.N,/~IRQ3*
X116840000Y-115570000D03*
G04 #@! TO.P,J2,11*
G04 #@! TO.N,Net-(J2-Pad11)*
X121920000Y-107950000D03*
G04 #@! TO.P,J2,3*
G04 #@! TO.N,/~IRQ2*
X114300000Y-115570000D03*
G04 #@! TO.P,J2,10*
G04 #@! TO.N,Net-(J2-Pad10)*
X124460000Y-107950000D03*
G04 #@! TO.P,J2,2*
G04 #@! TO.N,/~IRQ1*
X111760000Y-115570000D03*
G04 #@! TO.P,J2,9*
G04 #@! TO.N,Net-(J2-Pad9)*
X127000000Y-107950000D03*
D13*
G04 #@! TO.P,J2,1*
G04 #@! TO.N,/~IRQ0*
X109220000Y-115570000D03*
G04 #@! TD*
D14*
G04 #@! TO.P,J8,1*
G04 #@! TO.N,GND*
X110099000Y-39293800D03*
D15*
X110099000Y-37268800D03*
X111530891Y-37861909D03*
X112124000Y-39293800D03*
X111530891Y-40725691D03*
X110099000Y-41318800D03*
X108667109Y-40725691D03*
X108074000Y-39293800D03*
X108667109Y-37861909D03*
G04 #@! TD*
G04 #@! TO.P,J9,1*
G04 #@! TO.N,GND*
X166667109Y-37861909D03*
X166074000Y-39293800D03*
X166667109Y-40725691D03*
X168099000Y-41318800D03*
X169530891Y-40725691D03*
X170124000Y-39293800D03*
X169530891Y-37861909D03*
X168099000Y-37268800D03*
D14*
X168099000Y-39293800D03*
G04 #@! TD*
D11*
G04 #@! TO.P,J5,6*
G04 #@! TO.N,Net-(J5-Pad6)*
X193040000Y-49530000D03*
G04 #@! TO.P,J5,5*
G04 #@! TO.N,Net-(J5-Pad5)*
X193040000Y-46990000D03*
G04 #@! TO.P,J5,4*
G04 #@! TO.N,Net-(J5-Pad4)*
X193040000Y-44450000D03*
G04 #@! TO.P,J5,3*
G04 #@! TO.N,Net-(J5-Pad3)*
X193040000Y-41910000D03*
G04 #@! TO.P,J5,2*
G04 #@! TO.N,Net-(J5-Pad2)*
X193040000Y-39370000D03*
D10*
G04 #@! TO.P,J5,1*
G04 #@! TO.N,GND*
X193040000Y-36830000D03*
G04 #@! TD*
D11*
G04 #@! TO.P,J7,3*
G04 #@! TO.N,+5V*
X191770000Y-119380000D03*
G04 #@! TO.P,J7,2*
G04 #@! TO.N,/PIPWR*
X189230000Y-119380000D03*
D10*
G04 #@! TO.P,J7,1*
G04 #@! TO.N,/+5VSB*
X186690000Y-119380000D03*
G04 #@! TD*
D11*
G04 #@! TO.P,J3,10*
G04 #@! TO.N,Net-(J3-Pad10)*
X147955000Y-106680000D03*
G04 #@! TO.P,J3,9*
G04 #@! TO.N,/~HOLD*
X147955000Y-109220000D03*
G04 #@! TO.P,J3,8*
G04 #@! TO.N,Net-(J3-Pad10)*
X145415000Y-106680000D03*
G04 #@! TO.P,J3,7*
G04 #@! TO.N,/~DRQ0*
X145415000Y-109220000D03*
G04 #@! TO.P,J3,6*
G04 #@! TO.N,Net-(J3-Pad10)*
X142875000Y-106680000D03*
G04 #@! TO.P,J3,5*
G04 #@! TO.N,/~DRQ1*
X142875000Y-109220000D03*
G04 #@! TO.P,J3,4*
G04 #@! TO.N,Net-(J3-Pad10)*
X140335000Y-106680000D03*
G04 #@! TO.P,J3,3*
G04 #@! TO.N,/~DRQ2*
X140335000Y-109220000D03*
G04 #@! TO.P,J3,2*
G04 #@! TO.N,Net-(J3-Pad10)*
X137795000Y-106680000D03*
D10*
G04 #@! TO.P,J3,1*
G04 #@! TO.N,/~DRQ3*
X137795000Y-109220000D03*
G04 #@! TD*
D13*
G04 #@! TO.P,RN2,1*
G04 #@! TO.N,+3V3*
X126365000Y-80645000D03*
D12*
G04 #@! TO.P,RN2,2*
G04 #@! TO.N,/~pRFSH*
X128905000Y-80645000D03*
G04 #@! TO.P,RN2,3*
G04 #@! TO.N,/~HRQ*
X131445000Y-80645000D03*
G04 #@! TO.P,RN2,4*
G04 #@! TO.N,/~pINT*
X133985000Y-80645000D03*
G04 #@! TO.P,RN2,5*
G04 #@! TO.N,/~RD*
X136525000Y-80645000D03*
G04 #@! TO.P,RN2,6*
G04 #@! TO.N,/PU1*
X139065000Y-80645000D03*
G04 #@! TO.P,RN2,7*
G04 #@! TO.N,/~HAK*
X141605000Y-80645000D03*
G04 #@! TO.P,RN2,8*
G04 #@! TO.N,Net-(RN2-Pad8)*
X144145000Y-80645000D03*
G04 #@! TO.P,RN2,9*
G04 #@! TO.N,/~CON_R*
X146685000Y-80645000D03*
G04 #@! TO.P,RN2,10*
G04 #@! TO.N,/~WR*
X149225000Y-80645000D03*
G04 #@! TD*
G04 #@! TO.P,RN3,10*
G04 #@! TO.N,/PD1*
X130175000Y-85725000D03*
G04 #@! TO.P,RN3,9*
G04 #@! TO.N,Net-(RN3-Pad9)*
X127635000Y-85725000D03*
G04 #@! TO.P,RN3,8*
G04 #@! TO.N,Net-(RN3-Pad8)*
X125095000Y-85725000D03*
G04 #@! TO.P,RN3,7*
G04 #@! TO.N,Net-(RN3-Pad7)*
X122555000Y-85725000D03*
G04 #@! TO.P,RN3,6*
G04 #@! TO.N,Net-(RN3-Pad6)*
X120015000Y-85725000D03*
G04 #@! TO.P,RN3,5*
G04 #@! TO.N,Net-(RN3-Pad5)*
X117475000Y-85725000D03*
G04 #@! TO.P,RN3,4*
G04 #@! TO.N,Net-(RN3-Pad4)*
X114935000Y-85725000D03*
G04 #@! TO.P,RN3,3*
G04 #@! TO.N,Net-(RN3-Pad3)*
X112395000Y-85725000D03*
G04 #@! TO.P,RN3,2*
G04 #@! TO.N,Net-(RN3-Pad2)*
X109855000Y-85725000D03*
D13*
G04 #@! TO.P,RN3,1*
G04 #@! TO.N,GND*
X107315000Y-85725000D03*
G04 #@! TD*
D12*
G04 #@! TO.P,RN1,6*
G04 #@! TO.N,Net-(RN1-Pad6)*
X149225000Y-85725000D03*
G04 #@! TO.P,RN1,5*
G04 #@! TO.N,Net-(RN1-Pad5)*
X146685000Y-85725000D03*
G04 #@! TO.P,RN1,4*
G04 #@! TO.N,Net-(RN1-Pad4)*
X144145000Y-85725000D03*
G04 #@! TO.P,RN1,3*
G04 #@! TO.N,Net-(RN1-Pad3)*
X141605000Y-85725000D03*
G04 #@! TO.P,RN1,2*
G04 #@! TO.N,Net-(RN1-Pad2)*
X139065000Y-85725000D03*
D13*
G04 #@! TO.P,RN1,1*
G04 #@! TO.N,GND*
X136525000Y-85725000D03*
G04 #@! TD*
D16*
G04 #@! TO.P,J1,1*
G04 #@! TO.N,GND*
X191770000Y-125095000D03*
G04 #@! TO.P,J1,2*
X190500000Y-127000000D03*
G04 #@! TO.P,J1,3*
X189230000Y-125095000D03*
G04 #@! TO.P,J1,4*
X187960000Y-127000000D03*
G04 #@! TO.P,J1,5*
X186690000Y-125095000D03*
G04 #@! TO.P,J1,6*
G04 #@! TO.N,/A23*
X185420000Y-127000000D03*
G04 #@! TO.P,J1,7*
G04 #@! TO.N,/A22*
X184150000Y-125095000D03*
G04 #@! TO.P,J1,8*
G04 #@! TO.N,/A21*
X182880000Y-127000000D03*
G04 #@! TO.P,J1,9*
G04 #@! TO.N,/A20*
X181610000Y-125095000D03*
G04 #@! TO.P,J1,10*
G04 #@! TO.N,/A19*
X180340000Y-127000000D03*
G04 #@! TO.P,J1,11*
G04 #@! TO.N,/A18*
X179070000Y-125095000D03*
G04 #@! TO.P,J1,12*
G04 #@! TO.N,/A17*
X177800000Y-127000000D03*
G04 #@! TO.P,J1,13*
G04 #@! TO.N,/A16*
X176530000Y-125095000D03*
G04 #@! TO.P,J1,14*
G04 #@! TO.N,/A15*
X175260000Y-127000000D03*
G04 #@! TO.P,J1,15*
G04 #@! TO.N,/A14*
X173990000Y-125095000D03*
G04 #@! TO.P,J1,16*
G04 #@! TO.N,/A13*
X172720000Y-127000000D03*
G04 #@! TO.P,J1,17*
G04 #@! TO.N,/A12*
X171450000Y-125095000D03*
G04 #@! TO.P,J1,18*
G04 #@! TO.N,/A11*
X170180000Y-127000000D03*
G04 #@! TO.P,J1,19*
G04 #@! TO.N,/A10*
X168910000Y-125095000D03*
G04 #@! TO.P,J1,20*
G04 #@! TO.N,/A9*
X167640000Y-127000000D03*
G04 #@! TO.P,J1,21*
G04 #@! TO.N,/A8*
X166370000Y-125095000D03*
G04 #@! TO.P,J1,22*
G04 #@! TO.N,/A7*
X165100000Y-127000000D03*
G04 #@! TO.P,J1,23*
G04 #@! TO.N,/A6*
X163830000Y-125095000D03*
G04 #@! TO.P,J1,24*
G04 #@! TO.N,/A5*
X162560000Y-127000000D03*
G04 #@! TO.P,J1,25*
G04 #@! TO.N,/A4*
X161290000Y-125095000D03*
G04 #@! TO.P,J1,26*
G04 #@! TO.N,/A3*
X160020000Y-127000000D03*
G04 #@! TO.P,J1,27*
G04 #@! TO.N,/A2*
X158750000Y-125095000D03*
G04 #@! TO.P,J1,28*
G04 #@! TO.N,/A1*
X157480000Y-127000000D03*
G04 #@! TO.P,J1,29*
G04 #@! TO.N,/A0*
X156210000Y-125095000D03*
G04 #@! TO.P,J1,30*
G04 #@! TO.N,/~IOR*
X154940000Y-127000000D03*
G04 #@! TO.P,J1,31*
G04 #@! TO.N,/~IOW*
X153670000Y-125095000D03*
G04 #@! TO.P,J1,32*
G04 #@! TO.N,/~MEMR*
X152400000Y-127000000D03*
G04 #@! TO.P,J1,33*
G04 #@! TO.N,/~MEMW*
X151130000Y-125095000D03*
G04 #@! TO.P,J1,34*
G04 #@! TO.N,Net-(J1-Pad34)*
X149860000Y-127000000D03*
G04 #@! TO.P,J1,35*
G04 #@! TO.N,Net-(J1-Pad35)*
X148590000Y-125095000D03*
G04 #@! TO.P,J1,36*
G04 #@! TO.N,Net-(J1-Pad36)*
X147320000Y-127000000D03*
G04 #@! TO.P,J1,37*
G04 #@! TO.N,Net-(J1-Pad37)*
X146050000Y-125095000D03*
G04 #@! TO.P,J1,38*
G04 #@! TO.N,Net-(J1-Pad38)*
X144780000Y-127000000D03*
G04 #@! TO.P,J1,39*
G04 #@! TO.N,Net-(J1-Pad39)*
X143510000Y-125095000D03*
G04 #@! TO.P,J1,40*
G04 #@! TO.N,Net-(J1-Pad40)*
X142240000Y-127000000D03*
G04 #@! TO.P,J1,41*
G04 #@! TO.N,Net-(J1-Pad41)*
X140970000Y-125095000D03*
G04 #@! TO.P,J1,42*
G04 #@! TO.N,Net-(J1-Pad42)*
X139700000Y-127000000D03*
G04 #@! TO.P,J1,43*
G04 #@! TO.N,Net-(J1-Pad43)*
X138430000Y-125095000D03*
G04 #@! TO.P,J1,44*
G04 #@! TO.N,Net-(J1-Pad44)*
X137160000Y-127000000D03*
G04 #@! TO.P,J1,45*
G04 #@! TO.N,Net-(J1-Pad45)*
X135890000Y-125095000D03*
G04 #@! TO.P,J1,46*
G04 #@! TO.N,Net-(J1-Pad46)*
X134620000Y-127000000D03*
G04 #@! TO.P,J1,47*
G04 #@! TO.N,Net-(J1-Pad47)*
X133350000Y-125095000D03*
G04 #@! TO.P,J1,48*
G04 #@! TO.N,Net-(J1-Pad48)*
X132080000Y-127000000D03*
G04 #@! TO.P,J1,49*
G04 #@! TO.N,Net-(J1-Pad49)*
X130810000Y-125095000D03*
G04 #@! TO.P,J1,50*
G04 #@! TO.N,Net-(J1-Pad50)*
X129540000Y-127000000D03*
G04 #@! TO.P,J1,51*
G04 #@! TO.N,Net-(J1-Pad51)*
X128270000Y-125095000D03*
G04 #@! TO.P,J1,52*
G04 #@! TO.N,Net-(J1-Pad52)*
X127000000Y-127000000D03*
G04 #@! TO.P,J1,53*
G04 #@! TO.N,Net-(J1-Pad53)*
X125730000Y-125095000D03*
G04 #@! TO.P,J1,54*
G04 #@! TO.N,Net-(J1-Pad54)*
X124460000Y-127000000D03*
G04 #@! TO.P,J1,55*
G04 #@! TO.N,Net-(J1-Pad55)*
X123190000Y-125095000D03*
G04 #@! TO.P,J1,56*
G04 #@! TO.N,Net-(J1-Pad56)*
X121920000Y-127000000D03*
G04 #@! TO.P,J1,57*
G04 #@! TO.N,+3V3*
X120650000Y-125095000D03*
G04 #@! TO.P,J1,58*
G04 #@! TO.N,+5V*
X119380000Y-127000000D03*
G04 #@! TO.P,J1,59*
X118110000Y-125095000D03*
G04 #@! TO.P,J1,60*
X116840000Y-127000000D03*
G04 #@! TO.P,J1,61*
X191770000Y-128905000D03*
G04 #@! TO.P,J1,62*
X190500000Y-130810000D03*
G04 #@! TO.P,J1,63*
G04 #@! TO.N,/+5VSB*
X189230000Y-128905000D03*
G04 #@! TO.P,J1,64*
G04 #@! TO.N,+3V3*
X187960000Y-130810000D03*
G04 #@! TO.P,J1,65*
G04 #@! TO.N,Net-(J1-Pad65)*
X186690000Y-128905000D03*
G04 #@! TO.P,J1,66*
G04 #@! TO.N,Net-(J1-Pad66)*
X185420000Y-130810000D03*
G04 #@! TO.P,J1,67*
G04 #@! TO.N,Net-(J1-Pad67)*
X184150000Y-128905000D03*
G04 #@! TO.P,J1,68*
G04 #@! TO.N,Net-(J1-Pad68)*
X182880000Y-130810000D03*
G04 #@! TO.P,J1,69*
G04 #@! TO.N,Net-(J1-Pad69)*
X181610000Y-128905000D03*
G04 #@! TO.P,J1,70*
G04 #@! TO.N,Net-(J1-Pad70)*
X180340000Y-130810000D03*
G04 #@! TO.P,J1,71*
G04 #@! TO.N,Net-(J1-Pad71)*
X179070000Y-128905000D03*
G04 #@! TO.P,J1,72*
G04 #@! TO.N,Net-(J1-Pad72)*
X177800000Y-130810000D03*
G04 #@! TO.P,J1,73*
G04 #@! TO.N,Net-(J1-Pad73)*
X176530000Y-128905000D03*
G04 #@! TO.P,J1,74*
G04 #@! TO.N,/D7*
X175260000Y-130810000D03*
G04 #@! TO.P,J1,75*
G04 #@! TO.N,/D6*
X173990000Y-128905000D03*
G04 #@! TO.P,J1,76*
G04 #@! TO.N,/D5*
X172720000Y-130810000D03*
G04 #@! TO.P,J1,77*
G04 #@! TO.N,/D4*
X171450000Y-128905000D03*
G04 #@! TO.P,J1,78*
G04 #@! TO.N,/D3*
X170180000Y-130810000D03*
G04 #@! TO.P,J1,79*
G04 #@! TO.N,/D2*
X168910000Y-128905000D03*
G04 #@! TO.P,J1,80*
G04 #@! TO.N,/D1*
X167640000Y-130810000D03*
G04 #@! TO.P,J1,81*
G04 #@! TO.N,/D0*
X166370000Y-128905000D03*
G04 #@! TO.P,J1,82*
G04 #@! TO.N,/~HOLD*
X165100000Y-130810000D03*
G04 #@! TO.P,J1,83*
G04 #@! TO.N,/~HLDA*
X163830000Y-128905000D03*
G04 #@! TO.P,J1,84*
G04 #@! TO.N,Net-(J1-Pad84)*
X162560000Y-130810000D03*
G04 #@! TO.P,J1,85*
G04 #@! TO.N,/~RFSH*
X161290000Y-128905000D03*
G04 #@! TO.P,J1,86*
G04 #@! TO.N,Net-(J1-Pad86)*
X160020000Y-130810000D03*
G04 #@! TO.P,J1,87*
G04 #@! TO.N,Net-(J1-Pad87)*
X158750000Y-128905000D03*
G04 #@! TO.P,J1,88*
G04 #@! TO.N,Net-(J1-Pad88)*
X157480000Y-130810000D03*
G04 #@! TO.P,J1,89*
G04 #@! TO.N,/~MASTER*
X156210000Y-128905000D03*
G04 #@! TO.P,J1,90*
G04 #@! TO.N,/~AEN*
X154940000Y-130810000D03*
G04 #@! TO.P,J1,91*
G04 #@! TO.N,/~DRQ0*
X153670000Y-128905000D03*
G04 #@! TO.P,J1,92*
G04 #@! TO.N,/~DAK0*
X152400000Y-130810000D03*
G04 #@! TO.P,J1,93*
G04 #@! TO.N,/~DRQ1*
X151130000Y-128905000D03*
G04 #@! TO.P,J1,94*
G04 #@! TO.N,/~DAK1*
X149860000Y-130810000D03*
G04 #@! TO.P,J1,95*
G04 #@! TO.N,/~DRQ2*
X148590000Y-128905000D03*
G04 #@! TO.P,J1,96*
G04 #@! TO.N,/~DAK2*
X147320000Y-130810000D03*
G04 #@! TO.P,J1,97*
G04 #@! TO.N,/~DRQ3*
X146050000Y-128905000D03*
G04 #@! TO.P,J1,98*
G04 #@! TO.N,/~DAK3*
X144780000Y-130810000D03*
G04 #@! TO.P,J1,99*
G04 #@! TO.N,Net-(J1-Pad99)*
X143510000Y-128905000D03*
G04 #@! TO.P,J1,100*
G04 #@! TO.N,Net-(J1-Pad100)*
X142240000Y-130810000D03*
G04 #@! TO.P,J1,101*
G04 #@! TO.N,Net-(J1-Pad101)*
X140970000Y-128905000D03*
G04 #@! TO.P,J1,102*
G04 #@! TO.N,/~IRQ7*
X139700000Y-130810000D03*
G04 #@! TO.P,J1,103*
G04 #@! TO.N,/~IRQ6*
X138430000Y-128905000D03*
G04 #@! TO.P,J1,104*
G04 #@! TO.N,/~IRQ5*
X137160000Y-130810000D03*
G04 #@! TO.P,J1,105*
G04 #@! TO.N,/~IRQ4*
X135890000Y-128905000D03*
G04 #@! TO.P,J1,106*
G04 #@! TO.N,/~IRQ3*
X134620000Y-130810000D03*
G04 #@! TO.P,J1,107*
G04 #@! TO.N,/~IRQ2*
X133350000Y-128905000D03*
G04 #@! TO.P,J1,108*
G04 #@! TO.N,/~IRQ1*
X132080000Y-130810000D03*
G04 #@! TO.P,J1,109*
G04 #@! TO.N,/~IRQ0*
X130810000Y-128905000D03*
G04 #@! TO.P,J1,110*
G04 #@! TO.N,Net-(J1-Pad110)*
X129540000Y-130810000D03*
G04 #@! TO.P,J1,111*
G04 #@! TO.N,Net-(J1-Pad111)*
X128270000Y-128905000D03*
G04 #@! TO.P,J1,112*
G04 #@! TO.N,Net-(J1-Pad112)*
X127000000Y-130810000D03*
G04 #@! TO.P,J1,113*
G04 #@! TO.N,/SDA*
X125730000Y-128905000D03*
G04 #@! TO.P,J1,114*
G04 #@! TO.N,/SCL*
X124460000Y-130810000D03*
G04 #@! TO.P,J1,115*
G04 #@! TO.N,/~RESET*
X123190000Y-128905000D03*
G04 #@! TO.P,J1,116*
G04 #@! TO.N,GND*
X121920000Y-130810000D03*
G04 #@! TO.P,J1,117*
X120650000Y-128905000D03*
G04 #@! TO.P,J1,118*
X119380000Y-130810000D03*
G04 #@! TO.P,J1,119*
X118110000Y-128905000D03*
G04 #@! TO.P,J1,120*
X116840000Y-130810000D03*
D17*
G04 #@! TO.P,J1,121*
G04 #@! TO.N,Net-(J1-Pad121)*
X196215000Y-130810000D03*
G04 #@! TO.P,J1,122*
G04 #@! TO.N,GND*
X111125000Y-130810000D03*
G04 #@! TD*
D18*
G04 #@! TO.P,U14,28*
G04 #@! TO.N,+5V*
X185420000Y-60960000D03*
G04 #@! TO.P,U14,27*
G04 #@! TO.N,/~IOR*
X187960000Y-63500000D03*
G04 #@! TO.P,U14,26*
G04 #@! TO.N,/~IOW*
X187960000Y-60960000D03*
G04 #@! TO.P,U14,25*
G04 #@! TO.N,/~MEMR*
X190500000Y-63500000D03*
G04 #@! TO.P,U14,24*
G04 #@! TO.N,/~MEMW*
X187960000Y-66040000D03*
G04 #@! TO.P,U14,23*
G04 #@! TO.N,/PI_REQ*
X190500000Y-66040000D03*
G04 #@! TO.P,U14,22*
G04 #@! TO.N,GND*
X187960000Y-68580000D03*
G04 #@! TO.P,U14,21*
G04 #@! TO.N,/CON_IOW*
X190500000Y-68580000D03*
G04 #@! TO.P,U14,20*
G04 #@! TO.N,/~CON_IOR*
X187960000Y-71120000D03*
G04 #@! TO.P,U14,19*
G04 #@! TO.N,/~STS_IOR*
X190500000Y-71120000D03*
G04 #@! TO.P,U14,18*
G04 #@! TO.N,/~CON_SO*
X187960000Y-73660000D03*
G04 #@! TO.P,U14,17*
G04 #@! TO.N,/~CON_SI*
X185420000Y-71120000D03*
G04 #@! TO.P,U14,16*
G04 #@! TO.N,Net-(U14-Pad16)*
X185420000Y-73660000D03*
G04 #@! TO.P,U14,15*
G04 #@! TO.N,GND*
X182880000Y-71120000D03*
G04 #@! TO.P,U14,14*
X182880000Y-73660000D03*
G04 #@! TO.P,U14,13*
G04 #@! TO.N,/~RESET*
X180340000Y-71120000D03*
G04 #@! TO.P,U14,12*
G04 #@! TO.N,/~CON_R*
X180340000Y-73660000D03*
G04 #@! TO.P,U14,11*
G04 #@! TO.N,/CON_W*
X177800000Y-71120000D03*
G04 #@! TO.P,U14,10*
G04 #@! TO.N,/~HAK*
X180340000Y-68580000D03*
G04 #@! TO.P,U14,9*
G04 #@! TO.N,/~HRQ*
X177800000Y-68580000D03*
G04 #@! TO.P,U14,8*
G04 #@! TO.N,GND*
X180340000Y-66040000D03*
G04 #@! TO.P,U14,7*
G04 #@! TO.N,/A0*
X177800000Y-66040000D03*
G04 #@! TO.P,U14,6*
G04 #@! TO.N,/A1*
X180340000Y-63500000D03*
G04 #@! TO.P,U14,5*
G04 #@! TO.N,Net-(U12-Pad19)*
X177800000Y-63500000D03*
G04 #@! TO.P,U14,4*
G04 #@! TO.N,/~RD*
X180340000Y-60960000D03*
G04 #@! TO.P,U14,3*
G04 #@! TO.N,/~WR*
X182880000Y-63500000D03*
G04 #@! TO.P,U14,2*
G04 #@! TO.N,/IO~M*
X182880000Y-60960000D03*
D19*
G04 #@! TO.P,U14,1*
G04 #@! TO.N,+5V*
X185420000Y-63500000D03*
G04 #@! TD*
D20*
G04 #@! TO.N,GND*
X185818200Y-114641600D03*
X181602000Y-100701600D03*
X179292100Y-112988900D03*
D21*
G04 #@! TO.N,/AD7*
X170121400Y-103271800D03*
X164548500Y-64519200D03*
X167466700Y-86459500D03*
X148058300Y-64260000D03*
G04 #@! TO.N,/AD6*
X176411700Y-104370000D03*
X174776500Y-91355800D03*
X167866100Y-68850400D03*
X167675000Y-87636200D03*
X161400100Y-43070000D03*
G04 #@! TO.N,/AD5*
X167979800Y-69717000D03*
X190746700Y-85439600D03*
X175899000Y-107320200D03*
X171670400Y-88772000D03*
G04 #@! TO.N,/AD4*
X167416400Y-73825200D03*
X169259200Y-86459500D03*
X171556400Y-109954100D03*
X169753700Y-91465200D03*
X112987300Y-37563100D03*
X176284100Y-40392200D03*
G04 #@! TO.N,/AD3*
X154547000Y-73697200D03*
X125049900Y-99963400D03*
X154568100Y-92618100D03*
X153279100Y-106033800D03*
X180400300Y-110900000D03*
X187120700Y-93068800D03*
X186381100Y-109984400D03*
G04 #@! TO.N,/AD2*
X160986500Y-71555800D03*
X160732200Y-91744600D03*
X148058300Y-66252500D03*
X180256000Y-109193700D03*
X160975900Y-108710000D03*
X186320900Y-108946100D03*
G04 #@! TO.N,/AD1*
X153910900Y-102828500D03*
X154578300Y-68873600D03*
X184221400Y-89427400D03*
X184891900Y-105904800D03*
X153832900Y-87439900D03*
G04 #@! TO.N,/AD0*
X155013900Y-101456000D03*
X155159200Y-67771100D03*
X155100300Y-86640600D03*
X120400500Y-76513300D03*
X185266700Y-86357000D03*
X185357200Y-104108200D03*
G04 #@! TO.N,/~RD*
X178622400Y-73294900D03*
G04 #@! TO.N,/~WR*
X190110700Y-82299600D03*
X161027600Y-42265300D03*
X168844400Y-50170200D03*
D20*
G04 #@! TO.N,+5V*
X158243500Y-61336700D03*
X164088600Y-48840300D03*
X130757100Y-50263000D03*
X133857800Y-59266600D03*
X159563400Y-83633300D03*
X157862900Y-100400200D03*
X192322400Y-102060600D03*
D21*
G04 #@! TO.N,/~IOR*
X193405100Y-130016300D03*
G04 #@! TO.N,/~IOW*
X192690500Y-131183200D03*
G04 #@! TO.N,/~MEMR*
X198246500Y-129825400D03*
G04 #@! TO.N,/~MEMW*
X155625800Y-123494700D03*
X156927900Y-82443400D03*
G04 #@! TO.N,/~STS_IOR*
X177741100Y-60781600D03*
G04 #@! TO.N,/~CON_SO*
X176500500Y-60562600D03*
G04 #@! TO.N,/~CON_SI*
X176408600Y-61658800D03*
X151099300Y-47012000D03*
X156051000Y-47517400D03*
G04 #@! TO.N,/~CON_R*
X146667200Y-63952600D03*
X171060300Y-67113400D03*
G04 #@! TO.N,/CON_W*
X148590600Y-36538900D03*
X170024300Y-93419000D03*
X168729300Y-80258700D03*
G04 #@! TO.N,/~HAK*
X191037100Y-101751500D03*
X138142100Y-52363800D03*
X142153800Y-94402800D03*
X132162500Y-52642100D03*
X133610500Y-49865000D03*
G04 #@! TO.N,/~HRQ*
X134728100Y-76796000D03*
X133838100Y-52292900D03*
G04 #@! TO.N,/A0*
X160427300Y-74122200D03*
X158907100Y-102935700D03*
G04 #@! TO.N,/A1*
X161183200Y-73909700D03*
X158800000Y-106065500D03*
G04 #@! TO.N,/A23*
X195503700Y-103041600D03*
X194095900Y-126194000D03*
G04 #@! TO.N,/A21*
X199866100Y-107898900D03*
G04 #@! TO.N,/A16*
X180361200Y-103786200D03*
G04 #@! TO.N,/A15*
X179684600Y-102870000D03*
X119793200Y-66267300D03*
X178296400Y-129689500D03*
G04 #@! TO.N,/A14*
X174539000Y-106524000D03*
X125763400Y-66948200D03*
X124681200Y-83383500D03*
X173680000Y-99416600D03*
G04 #@! TO.N,/A13*
X125894000Y-69453900D03*
G04 #@! TO.N,/A12*
X122426300Y-77378500D03*
X124711700Y-104326000D03*
G04 #@! TO.N,/A11*
X132978200Y-76330600D03*
X140331000Y-104017500D03*
X170208000Y-112991300D03*
G04 #@! TO.N,/A10*
X131047300Y-72553500D03*
X139730900Y-111361800D03*
X170198800Y-108001600D03*
G04 #@! TO.N,/A9*
X135139000Y-73902800D03*
X140019600Y-100148100D03*
X168771000Y-107569400D03*
G04 #@! TO.N,/A8*
X163798400Y-76892900D03*
X168818000Y-102870000D03*
G04 #@! TO.N,/A7*
X163278900Y-78118400D03*
X165190800Y-102990000D03*
G04 #@! TO.N,/A6*
X141078800Y-86985700D03*
X141219800Y-88967800D03*
X161939100Y-99331100D03*
X163675200Y-106341700D03*
G04 #@! TO.N,/A5*
X163468000Y-79368300D03*
X164740100Y-107982500D03*
G04 #@! TO.N,/A4*
X152851400Y-73364100D03*
X155616300Y-117207200D03*
X163026000Y-111757800D03*
G04 #@! TO.N,/A3*
X159048300Y-111712400D03*
X154569200Y-110609200D03*
X152003500Y-71389600D03*
G04 #@! TO.N,/A2*
X158800000Y-108286100D03*
X151081100Y-67857300D03*
X151062300Y-103289700D03*
D20*
G04 #@! TO.N,+3V3*
X137321000Y-72672400D03*
X185521700Y-83421400D03*
X139852900Y-61298700D03*
X139173700Y-49603200D03*
X167583300Y-63742800D03*
X181532200Y-82601400D03*
D21*
G04 #@! TO.N,/D7*
X167612300Y-66047400D03*
X175992000Y-84552600D03*
X180665800Y-95997600D03*
G04 #@! TO.N,/D6*
X174891600Y-92633900D03*
X167451000Y-67899100D03*
X170676300Y-88194700D03*
G04 #@! TO.N,/D5*
X167589000Y-71762000D03*
X170093900Y-89339500D03*
G04 #@! TO.N,/D4*
X167546200Y-72859700D03*
X169665200Y-87636200D03*
X170906500Y-92180000D03*
G04 #@! TO.N,/D3*
X164768600Y-53929100D03*
X164870200Y-78141500D03*
X167853000Y-95189200D03*
G04 #@! TO.N,/D2*
X168360100Y-91742000D03*
X161307100Y-59899100D03*
X160197100Y-72005700D03*
X161378400Y-88239200D03*
G04 #@! TO.N,/D1*
X161952100Y-55769800D03*
X161103500Y-67117900D03*
X163891500Y-87439900D03*
G04 #@! TO.N,/D0*
X158203600Y-66164800D03*
X156899700Y-119232700D03*
X158057200Y-85060300D03*
X164426700Y-45986700D03*
X158907100Y-52138900D03*
G04 #@! TO.N,/~RFSH*
X126323900Y-55940800D03*
X141575500Y-112108100D03*
G04 #@! TO.N,/~MASTER*
X142731000Y-53002900D03*
G04 #@! TO.N,/~AEN*
X141936700Y-64699400D03*
G04 #@! TO.N,/SDA*
X150141600Y-57282700D03*
X150516200Y-108187200D03*
G04 #@! TO.N,/SCL*
X137883600Y-54652800D03*
X136405600Y-58658400D03*
X120030300Y-67139300D03*
G04 #@! TO.N,Net-(RN1-Pad6)*
X150970400Y-66103200D03*
G04 #@! TO.N,Net-(RN1-Pad5)*
X148058300Y-68581900D03*
G04 #@! TO.N,Net-(RN3-Pad9)*
X126314500Y-75207000D03*
G04 #@! TO.N,Net-(RN3-Pad8)*
X127323600Y-73918000D03*
G04 #@! TO.N,Net-(RN3-Pad7)*
X123608700Y-77638400D03*
G04 #@! TO.N,Net-(RN3-Pad6)*
X122683700Y-78522200D03*
G04 #@! TO.N,Net-(RN3-Pad5)*
X121453800Y-74554900D03*
G04 #@! TO.N,Net-(RN3-Pad4)*
X121477100Y-73571600D03*
G04 #@! TO.N,Net-(RN3-Pad3)*
X121582300Y-69746400D03*
G04 #@! TO.N,/PD1*
X131551200Y-82232100D03*
G04 #@! TO.N,/PU1*
X141676700Y-51793800D03*
G04 #@! TO.N,/~pINT*
X127648400Y-54798600D03*
X154018600Y-51114000D03*
X150290900Y-46196900D03*
X129358200Y-45738100D03*
G04 #@! TO.N,/~pRFSH*
X125631500Y-55218000D03*
G04 #@! TO.N,Net-(J6-Pad3)*
X151353600Y-56670100D03*
G04 #@! TO.N,Net-(J6-Pad5)*
X151292700Y-55530200D03*
G04 #@! TO.N,/pPI_REQ*
X147197500Y-58620800D03*
G04 #@! TO.N,Net-(C6-Pad1)*
X145205600Y-47934900D03*
G04 #@! TO.N,/~pCON_SO*
X138415400Y-56652700D03*
G04 #@! TO.N,/ALE_H*
X154772600Y-113482000D03*
G04 #@! TO.N,/ALE_L*
X122886700Y-100146500D03*
G04 #@! TO.N,Net-(RN3-Pad2)*
X120757700Y-67289000D03*
G04 #@! TO.N,Net-(J2-Pad16)*
X116698400Y-75682900D03*
G04 #@! TD*
D22*
G04 #@! TO.N,GND*
X147955000Y-38100000D02*
X148058000Y-38100000D01*
X148058000Y-38100000D02*
X149335400Y-36822600D01*
X149335400Y-36822600D02*
X156837600Y-36822600D01*
X156837600Y-36822600D02*
X158115000Y-38100000D01*
X179528700Y-112988900D02*
X179292100Y-112988900D01*
X185412600Y-114641600D02*
X183759900Y-112988900D01*
X183759900Y-112988900D02*
X179528700Y-112988900D01*
X181602000Y-100701600D02*
X181602000Y-106819200D01*
X181602000Y-106819200D02*
X179528700Y-108892500D01*
X179528700Y-108892500D02*
X179528700Y-112988900D01*
X180340000Y-66040000D02*
X182880000Y-68580000D01*
X182880000Y-68580000D02*
X182880000Y-71120000D01*
X186690000Y-125095000D02*
X185412600Y-123817600D01*
X185412600Y-123817600D02*
X185412600Y-114641600D01*
X185412600Y-114641600D02*
X185818200Y-114641600D01*
X167209400Y-38158400D02*
X168099000Y-37268800D01*
X166667100Y-38158400D02*
X167209400Y-38158400D01*
X168099000Y-39293800D02*
X167209400Y-38404200D01*
X167209400Y-38404200D02*
X167209400Y-38158400D01*
X166074000Y-39293800D02*
X166074000Y-38751500D01*
X166074000Y-38751500D02*
X166667100Y-38158400D01*
X166667100Y-37861900D02*
X166667100Y-38158400D01*
X170124000Y-39293800D02*
X169530900Y-38700700D01*
X169530900Y-38700700D02*
X169530900Y-37861900D01*
X140335000Y-38100000D02*
X141612300Y-36822700D01*
X141612300Y-36822700D02*
X146677700Y-36822700D01*
X146677700Y-36822700D02*
X147955000Y-38100000D01*
X168099000Y-41318800D02*
X168937800Y-41318800D01*
X168937800Y-41318800D02*
X169530900Y-40725700D01*
X168099000Y-41318800D02*
X167260200Y-41318800D01*
X167260200Y-41318800D02*
X166667100Y-40725700D01*
X166667100Y-37861900D02*
X165624400Y-36819200D01*
X165624400Y-36819200D02*
X159395800Y-36819200D01*
X159395800Y-36819200D02*
X158115000Y-38100000D01*
X116840000Y-130810000D02*
X107315000Y-121285000D01*
X107315000Y-121285000D02*
X107315000Y-86952300D01*
X107315000Y-85725000D02*
X107315000Y-86952300D01*
X111530900Y-37861900D02*
X112124000Y-38455000D01*
X112124000Y-38455000D02*
X112124000Y-39293800D01*
X112124000Y-39293800D02*
X111530900Y-39886900D01*
X111530900Y-39886900D02*
X111530900Y-40725700D01*
X108074000Y-39293800D02*
X108074000Y-40132600D01*
X108074000Y-40132600D02*
X108667100Y-40725700D01*
X108667100Y-37861900D02*
X108074000Y-38455000D01*
X108074000Y-38455000D02*
X108074000Y-39293800D01*
X169530900Y-40725700D02*
X170124000Y-40132600D01*
X170124000Y-40132600D02*
X170124000Y-39293800D01*
X182880000Y-73660000D02*
X182880000Y-71120000D01*
D23*
G04 #@! TO.N,/AD7*
X170121400Y-103271800D02*
X170121400Y-95303800D01*
X170121400Y-95303800D02*
X167076500Y-92258900D01*
X167076500Y-92258900D02*
X167076500Y-86849700D01*
X167076500Y-86849700D02*
X167466700Y-86459500D01*
X164548500Y-64519200D02*
X164548500Y-73160900D01*
X164548500Y-73160900D02*
X167466700Y-76079100D01*
X167466700Y-76079100D02*
X167466700Y-86459500D01*
X145415000Y-39202300D02*
X145564200Y-39202300D01*
X145564200Y-39202300D02*
X146645200Y-40283300D01*
X146645200Y-40283300D02*
X146645200Y-62846900D01*
X146645200Y-62846900D02*
X148058300Y-64260000D01*
X145415000Y-38100000D02*
X145415000Y-39202300D01*
G04 #@! TO.N,/AD6*
X176411700Y-104370000D02*
X176411700Y-92746600D01*
X176411700Y-92746600D02*
X175020900Y-91355800D01*
X175020900Y-91355800D02*
X174776500Y-91355800D01*
X167934800Y-68781700D02*
X167866100Y-68850400D01*
X166858400Y-67314300D02*
X167687800Y-67314300D01*
X167687800Y-67314300D02*
X168003400Y-67629900D01*
X168003400Y-67629900D02*
X168003400Y-68713100D01*
X168003400Y-68713100D02*
X167934800Y-68781700D01*
X167934800Y-68781700D02*
X174776500Y-75623500D01*
X174776500Y-75623500D02*
X174776500Y-91355800D01*
X166858400Y-67314300D02*
X166858400Y-74099500D01*
X166858400Y-74099500D02*
X168019100Y-75260200D01*
X168019100Y-75260200D02*
X168019100Y-87292100D01*
X168019100Y-87292100D02*
X167675000Y-87636200D01*
X161400100Y-43070000D02*
X162352400Y-43070000D01*
X162352400Y-43070000D02*
X166858400Y-47576000D01*
X166858400Y-47576000D02*
X166858400Y-67314300D01*
G04 #@! TO.N,/AD5*
X171670400Y-88772000D02*
X171670400Y-89030700D01*
X171670400Y-89030700D02*
X174547800Y-91908100D01*
X174547800Y-91908100D02*
X175021000Y-91908100D01*
X175021000Y-91908100D02*
X175859400Y-92746500D01*
X175859400Y-92746500D02*
X175859400Y-107280600D01*
X175859400Y-107280600D02*
X175899000Y-107320200D01*
X167979800Y-69717000D02*
X171670400Y-73407600D01*
X171670400Y-73407600D02*
X171670400Y-88772000D01*
X114935000Y-38100000D02*
X116037300Y-38100000D01*
X190746700Y-85439600D02*
X191475400Y-84710900D01*
X191475400Y-84710900D02*
X191475400Y-70727300D01*
X191475400Y-70727300D02*
X190598100Y-69850000D01*
X190598100Y-69850000D02*
X190425000Y-69850000D01*
X190425000Y-69850000D02*
X189295400Y-68720400D01*
X189295400Y-68720400D02*
X189295400Y-67564200D01*
X189295400Y-67564200D02*
X189015400Y-67284200D01*
X189015400Y-67284200D02*
X189015400Y-65697400D01*
X189015400Y-65697400D02*
X188088000Y-64770000D01*
X188088000Y-64770000D02*
X187847800Y-64770000D01*
X187847800Y-64770000D02*
X186690000Y-63612200D01*
X186690000Y-63612200D02*
X186690000Y-51774100D01*
X186690000Y-51774100D02*
X175539100Y-40623200D01*
X175539100Y-40623200D02*
X175539100Y-40291500D01*
X175539100Y-40291500D02*
X169919900Y-34672300D01*
X169919900Y-34672300D02*
X119236600Y-34672300D01*
X119236600Y-34672300D02*
X116037300Y-37871600D01*
X116037300Y-37871600D02*
X116037300Y-38100000D01*
G04 #@! TO.N,/AD4*
X169259200Y-86459500D02*
X169281600Y-86437100D01*
X169281600Y-86437100D02*
X169281600Y-75690400D01*
X169281600Y-75690400D02*
X167416400Y-73825200D01*
X169259200Y-86459500D02*
X169112900Y-86605800D01*
X169112900Y-86605800D02*
X169112900Y-90824400D01*
X169112900Y-90824400D02*
X169753700Y-91465200D01*
X171556400Y-109954100D02*
X171556400Y-93610900D01*
X171556400Y-93610900D02*
X169753700Y-91808200D01*
X169753700Y-91808200D02*
X169753700Y-91465200D01*
X176284100Y-40392200D02*
X170186800Y-34294900D01*
X170186800Y-34294900D02*
X116255500Y-34294900D01*
X116255500Y-34294900D02*
X112987300Y-37563100D01*
G04 #@! TO.N,/AD3*
X154548100Y-92618100D02*
X154547000Y-92617000D01*
X154547000Y-92617000D02*
X154547000Y-73697200D01*
X154548100Y-92618100D02*
X154461600Y-92704600D01*
X154461600Y-92704600D02*
X154461600Y-101684700D01*
X154461600Y-101684700D02*
X154514800Y-101737900D01*
X154514800Y-101737900D02*
X154514800Y-104798100D01*
X154514800Y-104798100D02*
X153279100Y-106033800D01*
X154568100Y-92618100D02*
X154548100Y-92618100D01*
X120015000Y-40640000D02*
X120015000Y-41742300D01*
X125049900Y-99963400D02*
X123990800Y-98904300D01*
X123990800Y-98904300D02*
X123990800Y-83279800D01*
X123990800Y-83279800D02*
X124163100Y-83107500D01*
X124163100Y-83107500D02*
X124163100Y-45890400D01*
X124163100Y-45890400D02*
X120015000Y-41742300D01*
X186381100Y-109984400D02*
X181315900Y-109984400D01*
X181315900Y-109984400D02*
X180400300Y-110900000D01*
X187120700Y-93068800D02*
X187120700Y-109244800D01*
X187120700Y-109244800D02*
X186381100Y-109984400D01*
G04 #@! TO.N,/AD2*
X160732200Y-91744600D02*
X162142100Y-90334700D01*
X162142100Y-90334700D02*
X162142100Y-72711400D01*
X162142100Y-72711400D02*
X160986500Y-71555800D01*
X160975900Y-108710000D02*
X160732200Y-108466300D01*
X160732200Y-108466300D02*
X160732200Y-91744600D01*
X150495000Y-38100000D02*
X150495000Y-39202300D01*
X148058300Y-66252500D02*
X149138500Y-65172300D01*
X149138500Y-65172300D02*
X149138500Y-40330400D01*
X149138500Y-40330400D02*
X150266600Y-39202300D01*
X150266600Y-39202300D02*
X150495000Y-39202300D01*
X180256000Y-109193700D02*
X180503600Y-108946100D01*
X180503600Y-108946100D02*
X186320900Y-108946100D01*
G04 #@! TO.N,/AD1*
X153910900Y-102828500D02*
X153832900Y-102750500D01*
X153832900Y-102750500D02*
X153832900Y-87439900D01*
X151597300Y-40640000D02*
X151597300Y-40411600D01*
X151597300Y-40411600D02*
X152490900Y-39518000D01*
X152490900Y-39518000D02*
X156050200Y-39518000D01*
X156050200Y-39518000D02*
X156691700Y-40159500D01*
X156691700Y-40159500D02*
X156691700Y-49350200D01*
X156691700Y-49350200D02*
X150740400Y-55301500D01*
X150740400Y-55301500D02*
X150740400Y-63472300D01*
X150740400Y-63472300D02*
X154578300Y-67310200D01*
X154578300Y-67310200D02*
X154578300Y-68873600D01*
X154578300Y-68873600D02*
X153832900Y-69619000D01*
X153832900Y-69619000D02*
X153832900Y-87439900D01*
X150495000Y-40640000D02*
X151597300Y-40640000D01*
X184891900Y-105904800D02*
X184221400Y-105234300D01*
X184221400Y-105234300D02*
X184221400Y-89427400D01*
G04 #@! TO.N,/AD0*
X155013900Y-101456000D02*
X155130700Y-101339200D01*
X155130700Y-101339200D02*
X155130700Y-86671000D01*
X155130700Y-86671000D02*
X155100300Y-86640600D01*
X155159200Y-67771100D02*
X155159200Y-86581700D01*
X155159200Y-86581700D02*
X155100300Y-86640600D01*
X120015000Y-38100000D02*
X118912700Y-38100000D01*
X120400500Y-76513300D02*
X122134700Y-74779100D01*
X122134700Y-74779100D02*
X122134700Y-66482700D01*
X122134700Y-66482700D02*
X116363100Y-60711100D01*
X116363100Y-60711100D02*
X116363100Y-40135800D01*
X116363100Y-40135800D02*
X117128900Y-39370000D01*
X117128900Y-39370000D02*
X117871100Y-39370000D01*
X117871100Y-39370000D02*
X118912700Y-38328400D01*
X118912700Y-38328400D02*
X118912700Y-38100000D01*
X185266700Y-86357000D02*
X185357200Y-86447500D01*
X185357200Y-86447500D02*
X185357200Y-104108200D01*
G04 #@! TO.N,/~RD*
X136525000Y-79592700D02*
X133530500Y-76598200D01*
X133530500Y-76598200D02*
X133530500Y-60544300D01*
X133530500Y-60544300D02*
X130054500Y-57068300D01*
X130054500Y-57068300D02*
X130054500Y-42078500D01*
X130054500Y-42078500D02*
X128616000Y-40640000D01*
X136525000Y-80645000D02*
X136525000Y-79592700D01*
X128616000Y-40640000D02*
X128737300Y-40640000D01*
X127635000Y-40640000D02*
X128616000Y-40640000D01*
X176271800Y-60010300D02*
X175831500Y-60450600D01*
X175831500Y-60450600D02*
X175831500Y-65434000D01*
X175831500Y-65434000D02*
X177707500Y-67310000D01*
X177707500Y-67310000D02*
X177968500Y-67310000D01*
X177968500Y-67310000D02*
X178750900Y-68092400D01*
X178750900Y-68092400D02*
X178750900Y-73166400D01*
X178750900Y-73166400D02*
X178622400Y-73294900D01*
X180340000Y-60960000D02*
X179390300Y-60010300D01*
X179390300Y-60010300D02*
X176271800Y-60010300D01*
X176271800Y-60010300D02*
X173596800Y-57335300D01*
X173596800Y-57335300D02*
X173596800Y-39481300D01*
X173596800Y-39481300D02*
X169622800Y-35507300D01*
X169622800Y-35507300D02*
X133687100Y-35507300D01*
X133687100Y-35507300D02*
X131414400Y-37780000D01*
X131414400Y-37780000D02*
X131414400Y-38476200D01*
X131414400Y-38476200D02*
X130520600Y-39370000D01*
X130520600Y-39370000D02*
X129778900Y-39370000D01*
X129778900Y-39370000D02*
X128737300Y-40411600D01*
X128737300Y-40411600D02*
X128737300Y-40640000D01*
G04 #@! TO.N,/~WR*
X154472700Y-40640000D02*
X154472700Y-41217700D01*
X154472700Y-41217700D02*
X149589300Y-46101100D01*
X149589300Y-46101100D02*
X149589300Y-79228400D01*
X149589300Y-79228400D02*
X149225000Y-79592700D01*
X149225000Y-80645000D02*
X149225000Y-79592700D01*
X155575000Y-40640000D02*
X154472700Y-40640000D01*
X182880000Y-63500000D02*
X182880000Y-64865200D01*
X182880000Y-64865200D02*
X188118700Y-70103900D01*
X188118700Y-70103900D02*
X188306500Y-70103900D01*
X188306500Y-70103900D02*
X189230000Y-71027400D01*
X189230000Y-71027400D02*
X189230000Y-81418900D01*
X189230000Y-81418900D02*
X190110700Y-82299600D01*
X168844400Y-50170200D02*
X168844400Y-48996800D01*
X168844400Y-48996800D02*
X162112900Y-42265300D01*
X162112900Y-42265300D02*
X161027600Y-42265300D01*
D22*
G04 #@! TO.N,+5V*
X191770000Y-119380000D02*
X191770000Y-120657300D01*
X191770000Y-120657300D02*
X190731600Y-121695700D01*
X190731600Y-121695700D02*
X190731600Y-125764800D01*
X190731600Y-125764800D02*
X191770000Y-126803200D01*
X191770000Y-126803200D02*
X191770000Y-128905000D01*
X192322400Y-102060600D02*
X191770000Y-102613000D01*
X191770000Y-102613000D02*
X191770000Y-119380000D01*
X159142100Y-83633300D02*
X159142100Y-88666000D01*
X159142100Y-88666000D02*
X157862900Y-89945200D01*
X157862900Y-89945200D02*
X157862900Y-100400200D01*
X159142100Y-83633300D02*
X159142100Y-62235300D01*
X159142100Y-62235300D02*
X158243500Y-61336700D01*
X164088600Y-48840300D02*
X158243500Y-54685400D01*
X158243500Y-54685400D02*
X158243500Y-61336700D01*
X141605000Y-98425000D02*
X139065000Y-98425000D01*
X133857800Y-59266600D02*
X130757100Y-56165900D01*
X130757100Y-56165900D02*
X130757100Y-50263000D01*
X159563400Y-83633300D02*
X159142100Y-83633300D01*
X191770000Y-128905000D02*
X190500000Y-130175000D01*
X190500000Y-130175000D02*
X190500000Y-130810000D01*
X117475000Y-98425000D02*
X117475000Y-99652300D01*
X118110000Y-125730000D02*
X119380000Y-127000000D01*
X118110000Y-125095000D02*
X118110000Y-125730000D01*
X116840000Y-127000000D02*
X118110000Y-125730000D01*
X117475000Y-99652300D02*
X115570000Y-101557300D01*
X115570000Y-101557300D02*
X115570000Y-122555000D01*
X115570000Y-122555000D02*
X118110000Y-125095000D01*
D23*
G04 #@! TO.N,/~IOR*
X187960000Y-63500000D02*
X189549200Y-65089200D01*
X189549200Y-65089200D02*
X189549200Y-66470100D01*
X189549200Y-66470100D02*
X190389100Y-67310000D01*
X190389100Y-67310000D02*
X190654500Y-67310000D01*
X190654500Y-67310000D02*
X196077200Y-72732700D01*
X196077200Y-72732700D02*
X196077200Y-127344200D01*
X196077200Y-127344200D02*
X193405100Y-130016300D01*
G04 #@! TO.N,/~IOW*
X192690500Y-131183200D02*
X192690500Y-131183100D01*
X192690500Y-131183100D02*
X193050600Y-131183100D01*
X193050600Y-131183100D02*
X196475700Y-127758000D01*
X196475700Y-127758000D02*
X196475700Y-70642400D01*
X196475700Y-70642400D02*
X190284200Y-64450900D01*
X190284200Y-64450900D02*
X190100100Y-64450900D01*
X190100100Y-64450900D02*
X188910900Y-63261700D01*
X188910900Y-63261700D02*
X188910900Y-61910900D01*
X188910900Y-61910900D02*
X187960000Y-60960000D01*
G04 #@! TO.N,/~MEMR*
X190500000Y-63500000D02*
X198246500Y-71246500D01*
X198246500Y-71246500D02*
X198246500Y-129825400D01*
G04 #@! TO.N,/~MEMW*
X156927900Y-82443400D02*
X156327700Y-83043600D01*
X156327700Y-83043600D02*
X156327700Y-122792800D01*
X156327700Y-122792800D02*
X155625800Y-123494700D01*
G04 #@! TO.N,/~STS_IOR*
X190500000Y-71120000D02*
X188911000Y-69531000D01*
X188911000Y-69531000D02*
X188911000Y-68150000D01*
X188911000Y-68150000D02*
X188071000Y-67310000D01*
X188071000Y-67310000D02*
X187442900Y-67310000D01*
X187442900Y-67310000D02*
X184283500Y-64150600D01*
X184283500Y-64150600D02*
X184283500Y-63532500D01*
X184283500Y-63532500D02*
X182922700Y-62171700D01*
X182922700Y-62171700D02*
X179131200Y-62171700D01*
X179131200Y-62171700D02*
X177741100Y-60781600D01*
G04 #@! TO.N,/~CON_SO*
X187960000Y-73660000D02*
X186690100Y-72390100D01*
X186690100Y-72390100D02*
X186690100Y-70040800D01*
X186690100Y-70040800D02*
X181610100Y-64960800D01*
X181610100Y-64960800D02*
X181610100Y-63422100D01*
X181610100Y-63422100D02*
X180737100Y-62549100D01*
X180737100Y-62549100D02*
X178487000Y-62549100D01*
X178487000Y-62549100D02*
X176500500Y-60562600D01*
G04 #@! TO.N,/~CON_SI*
X185420000Y-71120000D02*
X185420000Y-69775200D01*
X185420000Y-69775200D02*
X180414800Y-64770000D01*
X180414800Y-64770000D02*
X177690500Y-64770000D01*
X177690500Y-64770000D02*
X176408600Y-63488100D01*
X176408600Y-63488100D02*
X176408600Y-61658800D01*
X156051000Y-47517400D02*
X151604700Y-47517400D01*
X151604700Y-47517400D02*
X151099300Y-47012000D01*
G04 #@! TO.N,/~RESET*
X180340000Y-71120000D02*
X181290800Y-72070800D01*
X181290800Y-72070800D02*
X181290800Y-80169000D01*
X181290800Y-80169000D02*
X184492100Y-83370300D01*
X184492100Y-83370300D02*
X184492100Y-83847800D01*
X184492100Y-83847800D02*
X185095300Y-84451000D01*
X185095300Y-84451000D02*
X185214600Y-84451000D01*
X185214600Y-84451000D02*
X190332400Y-89568800D01*
X190332400Y-89568800D02*
X190332400Y-120327700D01*
X190332400Y-120327700D02*
X190177700Y-120482400D01*
X190177700Y-120482400D02*
X190177700Y-125721300D01*
X190177700Y-125721300D02*
X189622400Y-126276600D01*
X189622400Y-126276600D02*
X189622400Y-127430900D01*
X189622400Y-127430900D02*
X190102100Y-127910600D01*
X190102100Y-127910600D02*
X190102100Y-129276400D01*
X190102100Y-129276400D02*
X189611500Y-129767000D01*
X189611500Y-129767000D02*
X186303600Y-129767000D01*
X186303600Y-129767000D02*
X185828000Y-129291400D01*
X185828000Y-129291400D02*
X185828000Y-128728900D01*
X185828000Y-128728900D02*
X183237100Y-126138000D01*
X183237100Y-126138000D02*
X179973200Y-126138000D01*
X179973200Y-126138000D02*
X177744000Y-128367200D01*
X177744000Y-128367200D02*
X177744000Y-129545100D01*
X177744000Y-129545100D02*
X175195400Y-132093700D01*
X175195400Y-132093700D02*
X137223800Y-132093700D01*
X137223800Y-132093700D02*
X135041000Y-129910900D01*
X135041000Y-129910900D02*
X124195900Y-129910900D01*
X124195900Y-129910900D02*
X123190000Y-128905000D01*
G04 #@! TO.N,/~CON_R*
X146685000Y-79592700D02*
X146685000Y-63970400D01*
X146685000Y-63970400D02*
X146667200Y-63952600D01*
X146667200Y-63952600D02*
X146248800Y-63534200D01*
X146248800Y-63534200D02*
X146248800Y-51827400D01*
X146248800Y-51827400D02*
X141605000Y-47183600D01*
X141605000Y-47183600D02*
X141605000Y-40304300D01*
X141605000Y-40304300D02*
X140838300Y-39537600D01*
X140838300Y-39537600D02*
X140175900Y-39537600D01*
X140175900Y-39537600D02*
X139065000Y-38426700D01*
X139065000Y-38426700D02*
X139065000Y-37769100D01*
X139065000Y-37769100D02*
X138253800Y-36957900D01*
X138253800Y-36957900D02*
X137295900Y-36957900D01*
X137295900Y-36957900D02*
X136430100Y-37823700D01*
X136430100Y-37823700D02*
X136430100Y-39464900D01*
X136430100Y-39464900D02*
X135255000Y-40640000D01*
X146685000Y-80645000D02*
X146685000Y-79592700D01*
X171060300Y-67113400D02*
X177794100Y-73847200D01*
X177794100Y-73847200D02*
X180152800Y-73847200D01*
X180152800Y-73847200D02*
X180340000Y-73660000D01*
G04 #@! TO.N,/CON_W*
X148590600Y-36538900D02*
X148867400Y-36262100D01*
X148867400Y-36262100D02*
X169310200Y-36262100D01*
X169310200Y-36262100D02*
X171373500Y-38325400D01*
X171373500Y-38325400D02*
X171373500Y-64693500D01*
X171373500Y-64693500D02*
X177800000Y-71120000D01*
X170024300Y-93419000D02*
X170024300Y-92625100D01*
X170024300Y-92625100D02*
X168651500Y-91252300D01*
X168651500Y-91252300D02*
X168651500Y-80336500D01*
X168651500Y-80336500D02*
X168729300Y-80258700D01*
G04 #@! TO.N,/~HAK*
X180340000Y-68580000D02*
X181914500Y-70154500D01*
X181914500Y-70154500D02*
X181914500Y-80259100D01*
X181914500Y-80259100D02*
X184869400Y-83214000D01*
X184869400Y-83214000D02*
X184869400Y-83691500D01*
X184869400Y-83691500D02*
X185251600Y-84073700D01*
X185251600Y-84073700D02*
X185370900Y-84073700D01*
X185370900Y-84073700D02*
X191037100Y-89739900D01*
X191037100Y-89739900D02*
X191037100Y-101751500D01*
X139077600Y-79071100D02*
X137961100Y-80187600D01*
X137961100Y-80187600D02*
X137961100Y-81268300D01*
X137961100Y-81268300D02*
X140526500Y-83833700D01*
X140526500Y-83833700D02*
X140526500Y-87214400D01*
X140526500Y-87214400D02*
X140552600Y-87240500D01*
X140552600Y-87240500D02*
X140552600Y-92801600D01*
X140552600Y-92801600D02*
X142153800Y-94402800D01*
X135895700Y-53407500D02*
X133646400Y-51158200D01*
X139077600Y-79071100D02*
X139077600Y-78774900D01*
X139077600Y-78774900D02*
X135853300Y-75550600D01*
X135853300Y-75550600D02*
X135853300Y-53534700D01*
X135853300Y-53534700D02*
X135895700Y-53492300D01*
X135895700Y-53492300D02*
X135895700Y-53407500D01*
X135895700Y-53407500D02*
X137098400Y-53407500D01*
X137098400Y-53407500D02*
X138142100Y-52363800D01*
X139077600Y-79071100D02*
X140552700Y-80546300D01*
X140552700Y-80546300D02*
X140552700Y-80645000D01*
X133610500Y-49865000D02*
X133610500Y-51122300D01*
X133610500Y-51122300D02*
X133646400Y-51158200D01*
X133646400Y-51158200D02*
X132162500Y-52642100D01*
X141605000Y-80645000D02*
X140552700Y-80645000D01*
X135255000Y-39202300D02*
X135117100Y-39202300D01*
X135117100Y-39202300D02*
X134086300Y-40233100D01*
X134086300Y-40233100D02*
X134086300Y-49389200D01*
X134086300Y-49389200D02*
X133610500Y-49865000D01*
X135255000Y-38100000D02*
X135255000Y-39202300D01*
G04 #@! TO.N,/~HRQ*
X133734900Y-53205700D02*
X133734900Y-52396100D01*
X133734900Y-52396100D02*
X133838100Y-52292900D01*
X132715000Y-39202300D02*
X132486600Y-39202300D01*
X132486600Y-39202300D02*
X131603000Y-40085900D01*
X131603000Y-40085900D02*
X131603000Y-52864000D01*
X131603000Y-52864000D02*
X131944700Y-53205700D01*
X131944700Y-53205700D02*
X133734900Y-53205700D01*
X133734900Y-53205700D02*
X134586600Y-54057400D01*
X134586600Y-54057400D02*
X134586600Y-76654500D01*
X134586600Y-76654500D02*
X134728100Y-76796000D01*
X132715000Y-38100000D02*
X133817300Y-38100000D01*
X177800000Y-68580000D02*
X172506000Y-63286000D01*
X172506000Y-63286000D02*
X172506000Y-38924200D01*
X172506000Y-38924200D02*
X169466500Y-35884700D01*
X169466500Y-35884700D02*
X135804200Y-35884700D01*
X135804200Y-35884700D02*
X133817300Y-37871600D01*
X133817300Y-37871600D02*
X133817300Y-38100000D01*
X132715000Y-38100000D02*
X132715000Y-39202300D01*
G04 #@! TO.N,/A0*
X160427300Y-74122200D02*
X160427300Y-88162000D01*
X160427300Y-88162000D02*
X158907100Y-89682200D01*
X158907100Y-89682200D02*
X158907100Y-102935700D01*
X156210000Y-125095000D02*
X157486300Y-123818700D01*
X157486300Y-123818700D02*
X157486300Y-104356500D01*
X157486300Y-104356500D02*
X158907100Y-102935700D01*
G04 #@! TO.N,/A1*
X161183200Y-73909700D02*
X161183200Y-75561600D01*
X161183200Y-75561600D02*
X160815400Y-75929400D01*
X160815400Y-75929400D02*
X160815400Y-89897100D01*
X160815400Y-89897100D02*
X160040700Y-90671800D01*
X160040700Y-90671800D02*
X160040700Y-104824800D01*
X160040700Y-104824800D02*
X158800000Y-106065500D01*
X157480000Y-127000000D02*
X157480000Y-125146000D01*
X157480000Y-125146000D02*
X157933600Y-124692400D01*
X157933600Y-124692400D02*
X157933600Y-106931900D01*
X157933600Y-106931900D02*
X158800000Y-106065500D01*
G04 #@! TO.N,/IO~M*
X125095000Y-40640000D02*
X125095000Y-39537700D01*
X182880000Y-60960000D02*
X174702100Y-52782100D01*
X174702100Y-52782100D02*
X174702100Y-40052900D01*
X174702100Y-40052900D02*
X169726400Y-35077200D01*
X169726400Y-35077200D02*
X126543200Y-35077200D01*
X126543200Y-35077200D02*
X123983700Y-37636700D01*
X123983700Y-37636700D02*
X123983700Y-38654800D01*
X123983700Y-38654800D02*
X124866600Y-39537700D01*
X124866600Y-39537700D02*
X125095000Y-39537700D01*
G04 #@! TO.N,/A23*
X194095900Y-126194000D02*
X194095900Y-104449400D01*
X194095900Y-104449400D02*
X195503700Y-103041600D01*
G04 #@! TO.N,/A21*
X199866100Y-107898900D02*
X199866100Y-129984700D01*
X199866100Y-129984700D02*
X197093200Y-132757600D01*
X197093200Y-132757600D02*
X188678800Y-132757600D01*
X188678800Y-132757600D02*
X185420100Y-129498900D01*
X185420100Y-129498900D02*
X185420100Y-128938500D01*
X185420100Y-128938500D02*
X183481600Y-127000000D01*
X183481600Y-127000000D02*
X182880000Y-127000000D01*
G04 #@! TO.N,/A16*
X176530000Y-125095000D02*
X177284500Y-124340500D01*
X177284500Y-124340500D02*
X177284500Y-106862900D01*
X177284500Y-106862900D02*
X180361200Y-103786200D01*
G04 #@! TO.N,/A15*
X175260000Y-127000000D02*
X175260000Y-116217000D01*
X175260000Y-116217000D02*
X176907100Y-114569900D01*
X176907100Y-114569900D02*
X176907100Y-105647500D01*
X176907100Y-105647500D02*
X179684600Y-102870000D01*
X178296400Y-129689500D02*
X178683200Y-130076300D01*
X178683200Y-130076300D02*
X178683200Y-131152200D01*
X178683200Y-131152200D02*
X177364300Y-132471100D01*
X177364300Y-132471100D02*
X116637900Y-132471100D01*
X116637900Y-132471100D02*
X105803500Y-121636700D01*
X105803500Y-121636700D02*
X105803500Y-80257000D01*
X105803500Y-80257000D02*
X119793200Y-66267300D01*
G04 #@! TO.N,/A14*
X125763400Y-66948200D02*
X124681200Y-68030400D01*
X124681200Y-68030400D02*
X124681200Y-83383500D01*
X173990000Y-106524000D02*
X173990000Y-99726600D01*
X173990000Y-99726600D02*
X173680000Y-99416600D01*
X173990000Y-125095000D02*
X173990000Y-106524000D01*
X173990000Y-106524000D02*
X174539000Y-106524000D01*
G04 #@! TO.N,/A13*
X172720000Y-127000000D02*
X172720000Y-129489100D01*
X172720000Y-129489100D02*
X170492800Y-131716300D01*
X170492800Y-131716300D02*
X144457500Y-131716300D01*
X144457500Y-131716300D02*
X142064000Y-129322800D01*
X142064000Y-129322800D02*
X142064000Y-128690200D01*
X142064000Y-128690200D02*
X140658200Y-127284400D01*
X140658200Y-127284400D02*
X140658200Y-126104200D01*
X140658200Y-126104200D02*
X128905000Y-114351000D01*
X128905000Y-114351000D02*
X128905000Y-83960000D01*
X128905000Y-83960000D02*
X127837000Y-82892000D01*
X127837000Y-82892000D02*
X127837000Y-74571600D01*
X127837000Y-74571600D02*
X127896800Y-74511800D01*
X127896800Y-74511800D02*
X127896800Y-71456700D01*
X127896800Y-71456700D02*
X125894000Y-69453900D01*
G04 #@! TO.N,/A12*
X124711700Y-104326000D02*
X121379100Y-100993400D01*
X121379100Y-100993400D02*
X121379100Y-97031500D01*
X121379100Y-97031500D02*
X118961700Y-94614100D01*
X118961700Y-94614100D02*
X118961700Y-80843100D01*
X118961700Y-80843100D02*
X122426300Y-77378500D01*
G04 #@! TO.N,/A11*
X140331000Y-104017500D02*
X140088800Y-104017500D01*
X140088800Y-104017500D02*
X135145900Y-99074600D01*
X135145900Y-99074600D02*
X135145900Y-79298800D01*
X135145900Y-79298800D02*
X132978200Y-77131100D01*
X132978200Y-77131100D02*
X132978200Y-76330600D01*
X170208000Y-112991300D02*
X170208000Y-126972000D01*
X170208000Y-126972000D02*
X170180000Y-127000000D01*
G04 #@! TO.N,/A10*
X139730900Y-111361800D02*
X137855500Y-111361800D01*
X137855500Y-111361800D02*
X132542000Y-106048300D01*
X132542000Y-106048300D02*
X132542000Y-80167800D01*
X132542000Y-80167800D02*
X131047300Y-78673100D01*
X131047300Y-78673100D02*
X131047300Y-72553500D01*
X168910000Y-125095000D02*
X168910000Y-113332100D01*
X168910000Y-113332100D02*
X170198800Y-112043300D01*
X170198800Y-112043300D02*
X170198800Y-108001600D01*
G04 #@! TO.N,/A9*
X140019600Y-100148100D02*
X139217900Y-100148100D01*
X139217900Y-100148100D02*
X137583700Y-98513900D01*
X137583700Y-98513900D02*
X137583700Y-78651900D01*
X137583700Y-78651900D02*
X135139000Y-76207200D01*
X135139000Y-76207200D02*
X135139000Y-73902800D01*
X167640000Y-127000000D02*
X167640000Y-108700400D01*
X167640000Y-108700400D02*
X168771000Y-107569400D01*
G04 #@! TO.N,/A8*
X168818000Y-102870000D02*
X165888200Y-99940200D01*
X165888200Y-99940200D02*
X165888200Y-80075500D01*
X165888200Y-80075500D02*
X164317800Y-78505100D01*
X164317800Y-78505100D02*
X164317800Y-77412300D01*
X164317800Y-77412300D02*
X163798400Y-76892900D01*
X166370000Y-125095000D02*
X166370000Y-105318000D01*
X166370000Y-105318000D02*
X168818000Y-102870000D01*
G04 #@! TO.N,/A7*
X165190800Y-102990000D02*
X165190800Y-80030300D01*
X165190800Y-80030300D02*
X163278900Y-78118400D01*
X165100000Y-127000000D02*
X165292400Y-126807600D01*
X165292400Y-126807600D02*
X165292400Y-103091600D01*
X165292400Y-103091600D02*
X165190800Y-102990000D01*
G04 #@! TO.N,/A6*
X141219800Y-88967800D02*
X141219800Y-87126700D01*
X141219800Y-87126700D02*
X141078800Y-86985700D01*
X163675200Y-106341700D02*
X163675200Y-101067200D01*
X163675200Y-101067200D02*
X161939100Y-99331100D01*
X163830000Y-125095000D02*
X163830000Y-106496500D01*
X163830000Y-106496500D02*
X163675200Y-106341700D01*
G04 #@! TO.N,/A5*
X163468000Y-79368300D02*
X164503800Y-80404100D01*
X164503800Y-80404100D02*
X164503800Y-107746200D01*
X164503800Y-107746200D02*
X164740100Y-107982500D01*
X162560000Y-127000000D02*
X163154800Y-127000000D01*
X163154800Y-127000000D02*
X164740100Y-125414700D01*
X164740100Y-125414700D02*
X164740100Y-107982500D01*
G04 #@! TO.N,/A4*
X155616300Y-117207200D02*
X155616300Y-110326100D01*
X155616300Y-110326100D02*
X152689700Y-107399500D01*
X152689700Y-107399500D02*
X152689700Y-73525800D01*
X152689700Y-73525800D02*
X152851400Y-73364100D01*
X161290000Y-125095000D02*
X161290000Y-113493800D01*
X161290000Y-113493800D02*
X163026000Y-111757800D01*
G04 #@! TO.N,/A3*
X154569200Y-110609200D02*
X152102200Y-108142200D01*
X152102200Y-108142200D02*
X152102200Y-71488300D01*
X152102200Y-71488300D02*
X152003500Y-71389600D01*
X160020000Y-127000000D02*
X160020000Y-112684100D01*
X160020000Y-112684100D02*
X159048300Y-111712400D01*
G04 #@! TO.N,/A2*
X151062300Y-103289700D02*
X151062300Y-67876100D01*
X151062300Y-67876100D02*
X151081100Y-67857300D01*
X158800000Y-108286100D02*
X158496000Y-108590100D01*
X158496000Y-108590100D02*
X158496000Y-124841000D01*
X158496000Y-124841000D02*
X158750000Y-125095000D01*
D22*
G04 #@! TO.N,+3V3*
X139333900Y-61298700D02*
X139852900Y-61298700D01*
X139173700Y-49603200D02*
X139333900Y-49763400D01*
X139333900Y-49763400D02*
X139333900Y-61298700D01*
X139333900Y-61298700D02*
X139333900Y-70659500D01*
X139333900Y-70659500D02*
X137321000Y-72672400D01*
X187960000Y-130810000D02*
X189006400Y-131856400D01*
X189006400Y-131856400D02*
X190920200Y-131856400D01*
X190920200Y-131856400D02*
X191850100Y-130926500D01*
X191850100Y-130926500D02*
X191850100Y-130417100D01*
X191850100Y-130417100D02*
X193179800Y-129087400D01*
X193179800Y-129087400D02*
X193179800Y-91079500D01*
X193179800Y-91079500D02*
X185521700Y-83421400D01*
X120650000Y-125095000D02*
X120650000Y-111802600D01*
X120650000Y-111802600D02*
X123190000Y-109262600D01*
X123190000Y-109262600D02*
X123190000Y-106876300D01*
X123190000Y-106876300D02*
X126365000Y-103701300D01*
X126365000Y-103701300D02*
X126365000Y-80645000D01*
X167583300Y-63742800D02*
X169605700Y-65765200D01*
X169605700Y-65765200D02*
X169605700Y-67715800D01*
X169605700Y-67715800D02*
X177810700Y-75920800D01*
X177810700Y-75920800D02*
X177810700Y-78879900D01*
X177810700Y-78879900D02*
X181532200Y-82601400D01*
G04 #@! TO.N,/+5VSB*
X186690000Y-119380000D02*
X186690000Y-120657300D01*
X189230000Y-128905000D02*
X188325500Y-128905000D01*
X188325500Y-128905000D02*
X186905600Y-127485100D01*
X186905600Y-127485100D02*
X186905600Y-126467000D01*
X186905600Y-126467000D02*
X187756300Y-125616300D01*
X187756300Y-125616300D02*
X187756300Y-121723600D01*
X187756300Y-121723600D02*
X186690000Y-120657300D01*
D23*
G04 #@! TO.N,/D7*
X175260000Y-130810000D02*
X175260000Y-128321000D01*
X175260000Y-128321000D02*
X177793700Y-125787300D01*
X177793700Y-125787300D02*
X177793700Y-107134800D01*
X177793700Y-107134800D02*
X180939600Y-103988900D01*
X180939600Y-103988900D02*
X180939600Y-96271400D01*
X180939600Y-96271400D02*
X180665800Y-95997600D01*
X175992000Y-84552600D02*
X175992000Y-75084800D01*
X175992000Y-75084800D02*
X167612300Y-66705100D01*
X167612300Y-66705100D02*
X167612300Y-66047400D01*
X180665800Y-95997600D02*
X175992000Y-91323800D01*
X175992000Y-91323800D02*
X175992000Y-84552600D01*
G04 #@! TO.N,/D6*
X174891600Y-92633900D02*
X174737100Y-92633900D01*
X174737100Y-92633900D02*
X170676300Y-88573100D01*
X170676300Y-88573100D02*
X170676300Y-88194700D01*
X173990000Y-128905000D02*
X173990000Y-126752100D01*
X173990000Y-126752100D02*
X174882500Y-125859600D01*
X174882500Y-125859600D02*
X174882500Y-106961600D01*
X174882500Y-106961600D02*
X175091300Y-106752800D01*
X175091300Y-106752800D02*
X175091300Y-92833600D01*
X175091300Y-92833600D02*
X174891600Y-92633900D01*
X167451000Y-67899100D02*
X167313800Y-68036300D01*
X167313800Y-68036300D02*
X167313800Y-69967000D01*
X167313800Y-69967000D02*
X170676300Y-73329500D01*
X170676300Y-73329500D02*
X170676300Y-88194700D01*
G04 #@! TO.N,/D5*
X172720000Y-130810000D02*
X173097400Y-130432600D01*
X173097400Y-130432600D02*
X173097400Y-128279700D01*
X173097400Y-128279700D02*
X173594900Y-127782200D01*
X173594900Y-127782200D02*
X173594900Y-125918800D01*
X173594900Y-125918800D02*
X173086500Y-125410400D01*
X173086500Y-125410400D02*
X173086500Y-92332100D01*
X173086500Y-92332100D02*
X170093900Y-89339500D01*
X167589000Y-71762000D02*
X170217500Y-74390500D01*
X170217500Y-74390500D02*
X170217500Y-87865000D01*
X170217500Y-87865000D02*
X170093900Y-87988600D01*
X170093900Y-87988600D02*
X170093900Y-89339500D01*
G04 #@! TO.N,/D4*
X171450000Y-128905000D02*
X171450000Y-126949100D01*
X171450000Y-126949100D02*
X172344800Y-126054300D01*
X172344800Y-126054300D02*
X172344800Y-93618300D01*
X172344800Y-93618300D02*
X170906500Y-92180000D01*
X169665200Y-87636200D02*
X169541600Y-87759800D01*
X169541600Y-87759800D02*
X169541600Y-90360000D01*
X169541600Y-90360000D02*
X170906500Y-91724900D01*
X170906500Y-91724900D02*
X170906500Y-92180000D01*
X169665200Y-87636200D02*
X169840100Y-87461300D01*
X169840100Y-87461300D02*
X169840100Y-75153600D01*
X169840100Y-75153600D02*
X167546200Y-72859700D01*
G04 #@! TO.N,/D3*
X167853000Y-95189200D02*
X166318500Y-93654700D01*
X166318500Y-93654700D02*
X166318500Y-79589800D01*
X166318500Y-79589800D02*
X164870200Y-78141500D01*
X170180000Y-130810000D02*
X169582000Y-130810000D01*
X169582000Y-130810000D02*
X168031800Y-129259800D01*
X168031800Y-129259800D02*
X168031800Y-128376700D01*
X168031800Y-128376700D02*
X168511500Y-127897000D01*
X168511500Y-127897000D02*
X168511500Y-126353600D01*
X168511500Y-126353600D02*
X168017400Y-125859500D01*
X168017400Y-125859500D02*
X168017400Y-111239800D01*
X168017400Y-111239800D02*
X169425800Y-109831400D01*
X169425800Y-109831400D02*
X169425800Y-96762000D01*
X169425800Y-96762000D02*
X167853000Y-95189200D01*
X164870200Y-78141500D02*
X164870200Y-74016300D01*
X164870200Y-74016300D02*
X163957000Y-73103100D01*
X163957000Y-73103100D02*
X163957000Y-54740700D01*
X163957000Y-54740700D02*
X164768600Y-53929100D01*
G04 #@! TO.N,/D2*
X168910000Y-128905000D02*
X169501000Y-128905000D01*
X169501000Y-128905000D02*
X171057300Y-127348700D01*
X171057300Y-127348700D02*
X171057300Y-126359400D01*
X171057300Y-126359400D02*
X170585400Y-125887500D01*
X170585400Y-125887500D02*
X170585400Y-113424700D01*
X170585400Y-113424700D02*
X170778900Y-113231200D01*
X170778900Y-113231200D02*
X170778900Y-95256200D01*
X170778900Y-95256200D02*
X168360100Y-92837400D01*
X168360100Y-92837400D02*
X168360100Y-91742000D01*
X160197100Y-72005700D02*
X161764700Y-73573300D01*
X161764700Y-73573300D02*
X161764700Y-87852900D01*
X161764700Y-87852900D02*
X161378400Y-88239200D01*
X161307100Y-59899100D02*
X160197100Y-61009100D01*
X160197100Y-61009100D02*
X160197100Y-72005700D01*
G04 #@! TO.N,/D1*
X161103500Y-67117900D02*
X162726600Y-68741000D01*
X162726600Y-68741000D02*
X162726600Y-86275000D01*
X162726600Y-86275000D02*
X163891500Y-87439900D01*
X163891500Y-87439900D02*
X163891500Y-96597700D01*
X163891500Y-96597700D02*
X161386800Y-99102400D01*
X161386800Y-99102400D02*
X161386800Y-104052900D01*
X161386800Y-104052900D02*
X161536300Y-104202400D01*
X161536300Y-104202400D02*
X161536300Y-111197400D01*
X161536300Y-111197400D02*
X160397800Y-112335900D01*
X160397800Y-112335900D02*
X160397800Y-126066600D01*
X160397800Y-126066600D02*
X162337100Y-128005900D01*
X162337100Y-128005900D02*
X164235800Y-128005900D01*
X164235800Y-128005900D02*
X167039900Y-130810000D01*
X167039900Y-130810000D02*
X167640000Y-130810000D01*
X161103500Y-67117900D02*
X161952100Y-66269300D01*
X161952100Y-66269300D02*
X161952100Y-55769800D01*
G04 #@! TO.N,/D0*
X158057200Y-66164800D02*
X158057200Y-85060300D01*
X158907100Y-52138900D02*
X157547800Y-53498200D01*
X157547800Y-53498200D02*
X157547800Y-65655400D01*
X157547800Y-65655400D02*
X158057200Y-66164800D01*
X158057200Y-66164800D02*
X158203600Y-66164800D01*
X156899700Y-119232700D02*
X156899700Y-86217800D01*
X156899700Y-86217800D02*
X158057200Y-85060300D01*
X158907100Y-52138900D02*
X158907100Y-51506300D01*
X158907100Y-51506300D02*
X164426700Y-45986700D01*
G04 #@! TO.N,/~RFSH*
X141575500Y-112108100D02*
X139065000Y-109597600D01*
X139065000Y-109597600D02*
X139065000Y-105124500D01*
X139065000Y-105124500D02*
X132919400Y-98978900D01*
X132919400Y-98978900D02*
X132919400Y-78961100D01*
X132919400Y-78961100D02*
X131963700Y-78005400D01*
X131963700Y-78005400D02*
X131963700Y-66987500D01*
X131963700Y-66987500D02*
X126323900Y-61347700D01*
X126323900Y-61347700D02*
X126323900Y-55940800D01*
G04 #@! TO.N,/~MASTER*
X156210000Y-128905000D02*
X156210000Y-126682400D01*
X156210000Y-126682400D02*
X155063900Y-125536300D01*
X155063900Y-125536300D02*
X155063900Y-115674900D01*
X155063900Y-115674900D02*
X149209200Y-109820200D01*
X149209200Y-109820200D02*
X149209200Y-103314700D01*
X149209200Y-103314700D02*
X147955000Y-102060500D01*
X147955000Y-102060500D02*
X147955000Y-95660500D01*
X147955000Y-95660500D02*
X145255300Y-92960800D01*
X145255300Y-92960800D02*
X145255300Y-55527200D01*
X145255300Y-55527200D02*
X142731000Y-53002900D01*
G04 #@! TO.N,/~AEN*
X154940000Y-130810000D02*
X154940000Y-128657100D01*
X154940000Y-128657100D02*
X154078000Y-127795100D01*
X154078000Y-127795100D02*
X154078000Y-126344100D01*
X154078000Y-126344100D02*
X154540100Y-125882000D01*
X154540100Y-125882000D02*
X154540100Y-118327700D01*
X154540100Y-118327700D02*
X146685000Y-110472600D01*
X146685000Y-110472600D02*
X146685000Y-100152200D01*
X146685000Y-100152200D02*
X145603600Y-99070800D01*
X145603600Y-99070800D02*
X145603600Y-95028800D01*
X145603600Y-95028800D02*
X143092600Y-92517800D01*
X143092600Y-92517800D02*
X143092600Y-65855300D01*
X143092600Y-65855300D02*
X141936700Y-64699400D01*
G04 #@! TO.N,/~DRQ0*
X145415000Y-109220000D02*
X145415000Y-110322300D01*
X153670000Y-128905000D02*
X153670000Y-126415900D01*
X153670000Y-126415900D02*
X149621600Y-122367500D01*
X149621600Y-122367500D02*
X149621600Y-114528900D01*
X149621600Y-114528900D02*
X145415000Y-110322300D01*
G04 #@! TO.N,/~DRQ1*
X142875000Y-110322300D02*
X146658500Y-114105800D01*
X146658500Y-114105800D02*
X146658500Y-120661000D01*
X146658500Y-120661000D02*
X149994200Y-123996700D01*
X149994200Y-123996700D02*
X149994200Y-125816400D01*
X149994200Y-125816400D02*
X151130000Y-126952200D01*
X151130000Y-126952200D02*
X151130000Y-128905000D01*
X142875000Y-109220000D02*
X142875000Y-110322300D01*
G04 #@! TO.N,/~DAK1*
X142875000Y-118110000D02*
X142875000Y-119212300D01*
X149860000Y-130810000D02*
X149860000Y-128320900D01*
X149860000Y-128320900D02*
X147320100Y-125781000D01*
X147320100Y-125781000D02*
X147320100Y-123657400D01*
X147320100Y-123657400D02*
X142875000Y-119212300D01*
G04 #@! TO.N,/~DRQ2*
X148590000Y-128905000D02*
X147996200Y-128905000D01*
X147996200Y-128905000D02*
X144780100Y-125688900D01*
X144780100Y-125688900D02*
X144780100Y-123100000D01*
X144780100Y-123100000D02*
X141769600Y-120089500D01*
X141769600Y-120089500D02*
X141769600Y-112695100D01*
X141769600Y-112695100D02*
X142127800Y-112336900D01*
X142127800Y-112336900D02*
X142127800Y-111879300D01*
X142127800Y-111879300D02*
X140570800Y-110322300D01*
X140570800Y-110322300D02*
X140335000Y-110322300D01*
X140335000Y-109220000D02*
X140335000Y-110322300D01*
G04 #@! TO.N,/~DAK3*
X137795000Y-118110000D02*
X137795000Y-119212300D01*
X144780000Y-130810000D02*
X144780000Y-128320900D01*
X144780000Y-128320900D02*
X142240100Y-125781000D01*
X142240100Y-125781000D02*
X142240100Y-123657400D01*
X142240100Y-123657400D02*
X137795000Y-119212300D01*
G04 #@! TO.N,/~IRQ7*
X127000000Y-115570000D02*
X128052300Y-115570000D01*
X139700000Y-130810000D02*
X139700000Y-128320900D01*
X139700000Y-128320900D02*
X137160100Y-125781000D01*
X137160100Y-125781000D02*
X137160100Y-124677800D01*
X137160100Y-124677800D02*
X128052300Y-115570000D01*
G04 #@! TO.N,/~IRQ6*
X124460000Y-115570000D02*
X125512300Y-115570000D01*
X138430000Y-128905000D02*
X137836200Y-128905000D01*
X137836200Y-128905000D02*
X134620100Y-125688900D01*
X134620100Y-125688900D02*
X134620100Y-125139400D01*
X134620100Y-125139400D02*
X125512300Y-116031600D01*
X125512300Y-116031600D02*
X125512300Y-115570000D01*
G04 #@! TO.N,/~IRQ5*
X121920000Y-115570000D02*
X122972300Y-115570000D01*
X122972300Y-115570000D02*
X122972300Y-116014600D01*
X122972300Y-116014600D02*
X132942000Y-125984300D01*
X132942000Y-125984300D02*
X132942000Y-127176000D01*
X132942000Y-127176000D02*
X136576000Y-130810000D01*
X136576000Y-130810000D02*
X137160000Y-130810000D01*
G04 #@! TO.N,/~IRQ0*
X130810000Y-128905000D02*
X129936800Y-128031800D01*
X129936800Y-128031800D02*
X116649900Y-128031800D01*
X116649900Y-128031800D02*
X109220000Y-120601900D01*
X109220000Y-120601900D02*
X109220000Y-115570000D01*
G04 #@! TO.N,/SDA*
X150516200Y-108187200D02*
X151653600Y-107049800D01*
X151653600Y-107049800D02*
X151653600Y-87649100D01*
X151653600Y-87649100D02*
X151439700Y-87435200D01*
X151439700Y-87435200D02*
X151439700Y-68464400D01*
X151439700Y-68464400D02*
X151633600Y-68270500D01*
X151633600Y-68270500D02*
X151633600Y-65901600D01*
X151633600Y-65901600D02*
X150141600Y-64409600D01*
X150141600Y-64409600D02*
X150141600Y-57282700D01*
G04 #@! TO.N,/SCL*
X124460000Y-130810000D02*
X123553900Y-131716100D01*
X123553900Y-131716100D02*
X116429600Y-131716100D01*
X116429600Y-131716100D02*
X106224500Y-121511000D01*
X106224500Y-121511000D02*
X106224500Y-80945100D01*
X106224500Y-80945100D02*
X120030300Y-67139300D01*
X136405600Y-58658400D02*
X136405600Y-56130800D01*
X136405600Y-56130800D02*
X137883600Y-54652800D01*
G04 #@! TO.N,Net-(RN1-Pad6)*
X149225000Y-85725000D02*
X149225000Y-84672700D01*
X149225000Y-84672700D02*
X150277300Y-83620400D01*
X150277300Y-83620400D02*
X150277300Y-66796300D01*
X150277300Y-66796300D02*
X150970400Y-66103200D01*
X149225000Y-90805000D02*
X149225000Y-85725000D01*
G04 #@! TO.N,Net-(RN1-Pad5)*
X146685000Y-86777300D02*
X146685000Y-89752700D01*
X146685000Y-90805000D02*
X146685000Y-89752700D01*
X146685000Y-85725000D02*
X146685000Y-86777300D01*
X146685000Y-85725000D02*
X146685000Y-84672700D01*
X146685000Y-84672700D02*
X148058300Y-83299400D01*
X148058300Y-83299400D02*
X148058300Y-68581900D01*
G04 #@! TO.N,Net-(RN1-Pad4)*
X144145000Y-85725000D02*
X144145000Y-90805000D01*
G04 #@! TO.N,Net-(RN1-Pad3)*
X141605000Y-90805000D02*
X141605000Y-89752700D01*
X141605000Y-89752700D02*
X141772100Y-89585600D01*
X141772100Y-89585600D02*
X141772100Y-85892100D01*
X141772100Y-85892100D02*
X141605000Y-85725000D01*
G04 #@! TO.N,Net-(RN1-Pad2)*
X139065000Y-90805000D02*
X139065000Y-89752700D01*
X139065000Y-85725000D02*
X139065000Y-89752700D01*
G04 #@! TO.N,Net-(RN3-Pad9)*
X127635000Y-85725000D02*
X127635000Y-84672700D01*
X127635000Y-84672700D02*
X127459600Y-84497300D01*
X127459600Y-84497300D02*
X127459600Y-76352100D01*
X127459600Y-76352100D02*
X126314500Y-75207000D01*
X127635000Y-90805000D02*
X127635000Y-85725000D01*
G04 #@! TO.N,Net-(RN3-Pad8)*
X125095000Y-84672700D02*
X125233500Y-84534200D01*
X125233500Y-84534200D02*
X125233500Y-75507000D01*
X125233500Y-75507000D02*
X126822500Y-73918000D01*
X126822500Y-73918000D02*
X127323600Y-73918000D01*
X125095000Y-85725000D02*
X125095000Y-84672700D01*
X125095000Y-90805000D02*
X125095000Y-85725000D01*
G04 #@! TO.N,Net-(RN3-Pad7)*
X122555000Y-85725000D02*
X122555000Y-84672700D01*
X122555000Y-84672700D02*
X123613400Y-83614300D01*
X123613400Y-83614300D02*
X123613400Y-77643100D01*
X123613400Y-77643100D02*
X123608700Y-77638400D01*
X122555000Y-86251100D02*
X122555000Y-85725000D01*
X122555000Y-86251100D02*
X122555000Y-86777300D01*
X122555000Y-90805000D02*
X122555000Y-89752700D01*
X122555000Y-89752700D02*
X122555000Y-86777300D01*
G04 #@! TO.N,Net-(RN3-Pad6)*
X120015000Y-85725000D02*
X120015000Y-81190900D01*
X120015000Y-81190900D02*
X122683700Y-78522200D01*
X120015000Y-90805000D02*
X120015000Y-85725000D01*
G04 #@! TO.N,Net-(RN3-Pad5)*
X117475000Y-85725000D02*
X117475000Y-78533700D01*
X117475000Y-78533700D02*
X121453800Y-74554900D01*
X117475000Y-90805000D02*
X117475000Y-85725000D01*
G04 #@! TO.N,Net-(RN3-Pad4)*
X114935000Y-85725000D02*
X114935000Y-90805000D01*
X121477100Y-73571600D02*
X114935000Y-80113700D01*
X114935000Y-80113700D02*
X114935000Y-85725000D01*
G04 #@! TO.N,Net-(RN3-Pad3)*
X112395000Y-85725000D02*
X112395000Y-78933700D01*
X112395000Y-78933700D02*
X121582300Y-69746400D01*
X112395000Y-86251100D02*
X112395000Y-85725000D01*
X112395000Y-86251100D02*
X112395000Y-86777300D01*
X112395000Y-86777300D02*
X112395000Y-90805000D01*
G04 #@! TO.N,/PD1*
X130175000Y-85725000D02*
X130175000Y-84672700D01*
X130175000Y-84672700D02*
X131551200Y-83296500D01*
X131551200Y-83296500D02*
X131551200Y-82232100D01*
G04 #@! TO.N,/PU1*
X141676700Y-51793800D02*
X141368600Y-52101900D01*
X141368600Y-52101900D02*
X141368600Y-65247600D01*
X141368600Y-65247600D02*
X142715200Y-66594200D01*
X142715200Y-66594200D02*
X142715200Y-81663100D01*
X142715200Y-81663100D02*
X142657200Y-81721100D01*
X142657200Y-81721100D02*
X142715200Y-81779100D01*
X142715200Y-81779100D02*
X142715200Y-99811600D01*
X142715200Y-99811600D02*
X141763700Y-100763100D01*
X141763700Y-100763100D02*
X141763700Y-109935900D01*
X141763700Y-109935900D02*
X142875000Y-111047200D01*
X142875000Y-111047200D02*
X142875000Y-115570000D01*
X140117300Y-80645000D02*
X140117300Y-80776500D01*
X140117300Y-80776500D02*
X141061900Y-81721100D01*
X141061900Y-81721100D02*
X142657200Y-81721100D01*
X139065000Y-80645000D02*
X140117300Y-80645000D01*
G04 #@! TO.N,/~pINT*
X129358200Y-54798600D02*
X129358200Y-63113600D01*
X129358200Y-63113600D02*
X132425900Y-66181300D01*
X132425900Y-66181300D02*
X132425900Y-77112600D01*
X132425900Y-77112600D02*
X133985000Y-78671700D01*
X133985000Y-78671700D02*
X133985000Y-80645000D01*
X129358200Y-54798600D02*
X129358200Y-45738100D01*
X129358200Y-54798600D02*
X127648400Y-54798600D01*
X125095000Y-38100000D02*
X126270100Y-39275100D01*
X126270100Y-39275100D02*
X126270100Y-42650000D01*
X126270100Y-42650000D02*
X129358200Y-45738100D01*
X150290900Y-46196900D02*
X150290900Y-47386300D01*
X150290900Y-47386300D02*
X154018600Y-51114000D01*
G04 #@! TO.N,/~pRFSH*
X128905000Y-79592700D02*
X128905000Y-64627200D01*
X128905000Y-64627200D02*
X125631500Y-61353700D01*
X125631500Y-61353700D02*
X125631500Y-55218000D01*
X128905000Y-80645000D02*
X128905000Y-79592700D01*
X122555000Y-41742300D02*
X125631500Y-44818800D01*
X125631500Y-44818800D02*
X125631500Y-55218000D01*
X122555000Y-40640000D02*
X122555000Y-41742300D01*
G04 #@! TO.N,Net-(J6-Pad3)*
X160655000Y-41742300D02*
X160198300Y-42199000D01*
X160198300Y-42199000D02*
X160198300Y-47825400D01*
X160198300Y-47825400D02*
X151353600Y-56670100D01*
X160655000Y-40640000D02*
X160655000Y-41742300D01*
G04 #@! TO.N,Net-(J6-Pad5)*
X151292700Y-55530200D02*
X158115000Y-48707900D01*
X158115000Y-48707900D02*
X158115000Y-40640000D01*
G04 #@! TO.N,/pPI_REQ*
X147197500Y-58620800D02*
X147955000Y-57863300D01*
X147955000Y-57863300D02*
X147955000Y-40640000D01*
G04 #@! TO.N,Net-(C6-Pad1)*
X142875000Y-41742300D02*
X145205600Y-44072900D01*
X145205600Y-44072900D02*
X145205600Y-47934900D01*
X142875000Y-40640000D02*
X142875000Y-41742300D01*
G04 #@! TO.N,/~pCON_SO*
X138415400Y-56652700D02*
X138694400Y-56373700D01*
X138694400Y-56373700D02*
X138694400Y-52135000D01*
X138694400Y-52135000D02*
X137795000Y-51235600D01*
X137795000Y-51235600D02*
X137795000Y-41742300D01*
X137795000Y-40640000D02*
X137795000Y-41742300D01*
G04 #@! TO.N,/ALE_H*
X137795000Y-38100000D02*
X137795000Y-39202300D01*
X154772600Y-113482000D02*
X149959500Y-108668900D01*
X149959500Y-108668900D02*
X149959500Y-103611400D01*
X149959500Y-103611400D02*
X150337300Y-103233600D01*
X150337300Y-103233600D02*
X150337300Y-97157300D01*
X150337300Y-97157300D02*
X145632700Y-92452700D01*
X145632700Y-92452700D02*
X145632700Y-54901700D01*
X145632700Y-54901700D02*
X139232600Y-48501600D01*
X139232600Y-48501600D02*
X139232600Y-40411500D01*
X139232600Y-40411500D02*
X138023400Y-39202300D01*
X138023400Y-39202300D02*
X137795000Y-39202300D01*
G04 #@! TO.N,/ALE_L*
X122886700Y-100146500D02*
X123607400Y-99425800D01*
X123607400Y-99425800D02*
X123607400Y-94333800D01*
X123607400Y-94333800D02*
X121500600Y-92227000D01*
X121500600Y-92227000D02*
X121500600Y-80486400D01*
X121500600Y-80486400D02*
X123236000Y-78751000D01*
X123236000Y-78751000D02*
X123236000Y-78293400D01*
X123236000Y-78293400D02*
X122986000Y-78043400D01*
X122986000Y-78043400D02*
X122986000Y-47253300D01*
X122986000Y-47253300D02*
X117475000Y-41742300D01*
X117475000Y-40640000D02*
X117475000Y-41742300D01*
G04 #@! TO.N,Net-(RN3-Pad2)*
X120757700Y-67289000D02*
X109855000Y-78191700D01*
X109855000Y-78191700D02*
X109855000Y-85725000D01*
X109855000Y-85725000D02*
X109855000Y-86777300D01*
X109855000Y-90805000D02*
X109855000Y-89752700D01*
X109855000Y-89752700D02*
X109855000Y-86777300D01*
D22*
G04 #@! TO.N,/PIPWR*
X163195000Y-38100000D02*
X164971600Y-39876600D01*
X164971600Y-39876600D02*
X164971600Y-43465000D01*
X164971600Y-43465000D02*
X170333000Y-48826400D01*
X170333000Y-48826400D02*
X170333000Y-67414500D01*
X170333000Y-67414500D02*
X179188000Y-76269500D01*
X179188000Y-76269500D02*
X179188000Y-79087300D01*
X179188000Y-79087300D02*
X183939800Y-83839100D01*
X183939800Y-83839100D02*
X183939800Y-84076600D01*
X183939800Y-84076600D02*
X184866500Y-85003300D01*
X184866500Y-85003300D02*
X184985200Y-85003300D01*
X184985200Y-85003300D02*
X189230000Y-89248100D01*
X189230000Y-89248100D02*
X189230000Y-119380000D01*
D23*
G04 #@! TO.N,Net-(J2-Pad16)*
X109220000Y-107950000D02*
X109220000Y-106897700D01*
X116698400Y-75682900D02*
X113665000Y-78716300D01*
X113665000Y-78716300D02*
X113665000Y-102452700D01*
X113665000Y-102452700D02*
X109220000Y-106897700D01*
G04 #@! TD*
D24*
G04 #@! TO.N,GND*
G36*
X115707571Y-33746971D02*
X115665171Y-33810427D01*
X112847499Y-36628100D01*
X112801317Y-36628100D01*
X112457665Y-36770445D01*
X112194645Y-37033465D01*
X112052300Y-37377117D01*
X112052300Y-37749083D01*
X112194645Y-38092735D01*
X112457665Y-38355755D01*
X112801317Y-38498100D01*
X113173283Y-38498100D01*
X113475218Y-38373035D01*
X113536161Y-38679418D01*
X113864375Y-39170625D01*
X114179869Y-39381431D01*
X114080850Y-39425233D01*
X113680997Y-39844571D01*
X113472055Y-40385006D01*
X113608926Y-40617000D01*
X114912000Y-40617000D01*
X114912000Y-40597000D01*
X114958000Y-40597000D01*
X114958000Y-40617000D01*
X114978000Y-40617000D01*
X114978000Y-40663000D01*
X114958000Y-40663000D01*
X114958000Y-41966051D01*
X115189994Y-42102943D01*
X115259260Y-42089167D01*
X115603101Y-41937067D01*
X115603100Y-60636253D01*
X115588212Y-60711100D01*
X115603100Y-60785947D01*
X115603100Y-60785951D01*
X115647196Y-61007636D01*
X115815171Y-61259029D01*
X115878630Y-61301431D01*
X119909498Y-65332300D01*
X119607217Y-65332300D01*
X119263565Y-65474645D01*
X119000545Y-65737665D01*
X118858200Y-66081317D01*
X118858200Y-66127497D01*
X105319028Y-79666671D01*
X105255572Y-79709071D01*
X105213172Y-79772527D01*
X105213171Y-79772528D01*
X105087597Y-79960463D01*
X105028612Y-80257000D01*
X105043501Y-80331852D01*
X105043500Y-121561853D01*
X105028612Y-121636700D01*
X105043500Y-121711547D01*
X105043500Y-121711551D01*
X105087596Y-121933236D01*
X105255571Y-122184629D01*
X105319030Y-122227031D01*
X111623324Y-128531326D01*
X110736673Y-128505225D01*
X109884233Y-128829272D01*
X109769867Y-128905689D01*
X109600910Y-129253383D01*
X111125000Y-130777473D01*
X111139142Y-130763331D01*
X111171669Y-130795858D01*
X111157527Y-130810000D01*
X111171669Y-130824142D01*
X111139142Y-130856669D01*
X111125000Y-130842527D01*
X111110858Y-130856669D01*
X111078331Y-130824142D01*
X111092473Y-130810000D01*
X109568383Y-129285910D01*
X109220689Y-129454867D01*
X108847059Y-130286769D01*
X108820225Y-131198327D01*
X109144272Y-132050767D01*
X109220689Y-132165133D01*
X109518809Y-132310000D01*
X104215000Y-132310000D01*
X104215000Y-40894994D01*
X113472055Y-40894994D01*
X113680997Y-41435429D01*
X114080850Y-41854767D01*
X114610740Y-42089167D01*
X114680006Y-42102943D01*
X114912000Y-41966051D01*
X114912000Y-40663000D01*
X113608926Y-40663000D01*
X113472055Y-40894994D01*
X104215000Y-40894994D01*
X104215000Y-33730000D01*
X115732970Y-33730000D01*
X115707571Y-33746971D01*
X115707571Y-33746971D01*
G37*
X115707571Y-33746971D02*
X115665171Y-33810427D01*
X112847499Y-36628100D01*
X112801317Y-36628100D01*
X112457665Y-36770445D01*
X112194645Y-37033465D01*
X112052300Y-37377117D01*
X112052300Y-37749083D01*
X112194645Y-38092735D01*
X112457665Y-38355755D01*
X112801317Y-38498100D01*
X113173283Y-38498100D01*
X113475218Y-38373035D01*
X113536161Y-38679418D01*
X113864375Y-39170625D01*
X114179869Y-39381431D01*
X114080850Y-39425233D01*
X113680997Y-39844571D01*
X113472055Y-40385006D01*
X113608926Y-40617000D01*
X114912000Y-40617000D01*
X114912000Y-40597000D01*
X114958000Y-40597000D01*
X114958000Y-40617000D01*
X114978000Y-40617000D01*
X114978000Y-40663000D01*
X114958000Y-40663000D01*
X114958000Y-41966051D01*
X115189994Y-42102943D01*
X115259260Y-42089167D01*
X115603101Y-41937067D01*
X115603100Y-60636253D01*
X115588212Y-60711100D01*
X115603100Y-60785947D01*
X115603100Y-60785951D01*
X115647196Y-61007636D01*
X115815171Y-61259029D01*
X115878630Y-61301431D01*
X119909498Y-65332300D01*
X119607217Y-65332300D01*
X119263565Y-65474645D01*
X119000545Y-65737665D01*
X118858200Y-66081317D01*
X118858200Y-66127497D01*
X105319028Y-79666671D01*
X105255572Y-79709071D01*
X105213172Y-79772527D01*
X105213171Y-79772528D01*
X105087597Y-79960463D01*
X105028612Y-80257000D01*
X105043501Y-80331852D01*
X105043500Y-121561853D01*
X105028612Y-121636700D01*
X105043500Y-121711547D01*
X105043500Y-121711551D01*
X105087596Y-121933236D01*
X105255571Y-122184629D01*
X105319030Y-122227031D01*
X111623324Y-128531326D01*
X110736673Y-128505225D01*
X109884233Y-128829272D01*
X109769867Y-128905689D01*
X109600910Y-129253383D01*
X111125000Y-130777473D01*
X111139142Y-130763331D01*
X111171669Y-130795858D01*
X111157527Y-130810000D01*
X111171669Y-130824142D01*
X111139142Y-130856669D01*
X111125000Y-130842527D01*
X111110858Y-130856669D01*
X111078331Y-130824142D01*
X111092473Y-130810000D01*
X109568383Y-129285910D01*
X109220689Y-129454867D01*
X108847059Y-130286769D01*
X108820225Y-131198327D01*
X109144272Y-132050767D01*
X109220689Y-132165133D01*
X109518809Y-132310000D01*
X104215000Y-132310000D01*
X104215000Y-40894994D01*
X113472055Y-40894994D01*
X113680997Y-41435429D01*
X114080850Y-41854767D01*
X114610740Y-42089167D01*
X114680006Y-42102943D01*
X114912000Y-41966051D01*
X114912000Y-40663000D01*
X113608926Y-40663000D01*
X113472055Y-40894994D01*
X104215000Y-40894994D01*
X104215000Y-33730000D01*
X115732970Y-33730000D01*
X115707571Y-33746971D01*
G36*
X202795000Y-132310000D02*
X198615601Y-132310000D01*
X200350573Y-130575029D01*
X200414029Y-130532629D01*
X200497163Y-130408211D01*
X200582004Y-130281238D01*
X200608188Y-130149600D01*
X200626100Y-130059552D01*
X200626100Y-130059548D01*
X200640988Y-129984700D01*
X200626100Y-129909852D01*
X200626100Y-108461190D01*
X200658755Y-108428535D01*
X200801100Y-108084883D01*
X200801100Y-107712917D01*
X200658755Y-107369265D01*
X200395735Y-107106245D01*
X200052083Y-106963900D01*
X199680117Y-106963900D01*
X199336465Y-107106245D01*
X199073445Y-107369265D01*
X199006500Y-107530885D01*
X199006500Y-71321346D01*
X199021388Y-71246499D01*
X199006500Y-71171652D01*
X199006500Y-71171648D01*
X198962404Y-70949963D01*
X198909244Y-70870403D01*
X198836829Y-70762026D01*
X198836827Y-70762024D01*
X198794429Y-70698571D01*
X198730976Y-70656173D01*
X191833500Y-63758699D01*
X191833500Y-63234750D01*
X191630487Y-62744633D01*
X191255367Y-62369513D01*
X190765250Y-62166500D01*
X190234750Y-62166500D01*
X189744633Y-62369513D01*
X189670900Y-62443246D01*
X189670900Y-61985748D01*
X189685788Y-61910900D01*
X189670900Y-61836052D01*
X189670900Y-61836048D01*
X189631758Y-61639269D01*
X189626804Y-61614362D01*
X189501229Y-61426427D01*
X189458829Y-61362971D01*
X189395373Y-61320571D01*
X189293500Y-61218698D01*
X189293500Y-60694750D01*
X189090487Y-60204633D01*
X188715367Y-59829513D01*
X188225250Y-59626500D01*
X187694750Y-59626500D01*
X187450000Y-59727879D01*
X187450000Y-51848946D01*
X187464888Y-51774099D01*
X187450000Y-51699252D01*
X187450000Y-51699248D01*
X187405904Y-51477563D01*
X187237929Y-51226171D01*
X187174473Y-51183771D01*
X176994646Y-41003944D01*
X177076755Y-40921835D01*
X177219100Y-40578183D01*
X177219100Y-40206217D01*
X177076755Y-39862565D01*
X176813735Y-39599545D01*
X176470083Y-39457200D01*
X176423903Y-39457200D01*
X176336703Y-39370000D01*
X191525908Y-39370000D01*
X191641161Y-39949418D01*
X191969375Y-40440625D01*
X192267761Y-40640000D01*
X191969375Y-40839375D01*
X191641161Y-41330582D01*
X191525908Y-41910000D01*
X191641161Y-42489418D01*
X191969375Y-42980625D01*
X192267761Y-43180000D01*
X191969375Y-43379375D01*
X191641161Y-43870582D01*
X191525908Y-44450000D01*
X191641161Y-45029418D01*
X191969375Y-45520625D01*
X192267761Y-45720000D01*
X191969375Y-45919375D01*
X191641161Y-46410582D01*
X191525908Y-46990000D01*
X191641161Y-47569418D01*
X191969375Y-48060625D01*
X192267761Y-48260000D01*
X191969375Y-48459375D01*
X191641161Y-48950582D01*
X191525908Y-49530000D01*
X191641161Y-50109418D01*
X191969375Y-50600625D01*
X192460582Y-50928839D01*
X192893744Y-51015000D01*
X193186256Y-51015000D01*
X193619418Y-50928839D01*
X194110625Y-50600625D01*
X194438839Y-50109418D01*
X194554092Y-49530000D01*
X194438839Y-48950582D01*
X194110625Y-48459375D01*
X193812239Y-48260000D01*
X194110625Y-48060625D01*
X194438839Y-47569418D01*
X194554092Y-46990000D01*
X194438839Y-46410582D01*
X194110625Y-45919375D01*
X193812239Y-45720000D01*
X194110625Y-45520625D01*
X194438839Y-45029418D01*
X194554092Y-44450000D01*
X194438839Y-43870582D01*
X194110625Y-43379375D01*
X193812239Y-43180000D01*
X194110625Y-42980625D01*
X194438839Y-42489418D01*
X194554092Y-41910000D01*
X194438839Y-41330582D01*
X194110625Y-40839375D01*
X193812239Y-40640000D01*
X194110625Y-40440625D01*
X194438839Y-39949418D01*
X194554092Y-39370000D01*
X194438839Y-38790582D01*
X194110625Y-38299375D01*
X194088967Y-38284904D01*
X194249698Y-38218327D01*
X194428327Y-38039699D01*
X194525000Y-37806310D01*
X194525000Y-37011750D01*
X194366250Y-36853000D01*
X193063000Y-36853000D01*
X193063000Y-36873000D01*
X193017000Y-36873000D01*
X193017000Y-36853000D01*
X191713750Y-36853000D01*
X191555000Y-37011750D01*
X191555000Y-37806310D01*
X191651673Y-38039699D01*
X191830302Y-38218327D01*
X191991033Y-38284904D01*
X191969375Y-38299375D01*
X191641161Y-38790582D01*
X191525908Y-39370000D01*
X176336703Y-39370000D01*
X172820392Y-35853690D01*
X191555000Y-35853690D01*
X191555000Y-36648250D01*
X191713750Y-36807000D01*
X193017000Y-36807000D01*
X193017000Y-35503750D01*
X193063000Y-35503750D01*
X193063000Y-36807000D01*
X194366250Y-36807000D01*
X194525000Y-36648250D01*
X194525000Y-35853690D01*
X194428327Y-35620301D01*
X194249698Y-35441673D01*
X194016309Y-35345000D01*
X193221750Y-35345000D01*
X193063000Y-35503750D01*
X193017000Y-35503750D01*
X192858250Y-35345000D01*
X192063691Y-35345000D01*
X191830302Y-35441673D01*
X191651673Y-35620301D01*
X191555000Y-35853690D01*
X172820392Y-35853690D01*
X170777131Y-33810430D01*
X170734729Y-33746971D01*
X170709330Y-33730000D01*
X202795001Y-33730000D01*
X202795000Y-132310000D01*
X202795000Y-132310000D01*
G37*
X202795000Y-132310000D02*
X198615601Y-132310000D01*
X200350573Y-130575029D01*
X200414029Y-130532629D01*
X200497163Y-130408211D01*
X200582004Y-130281238D01*
X200608188Y-130149600D01*
X200626100Y-130059552D01*
X200626100Y-130059548D01*
X200640988Y-129984700D01*
X200626100Y-129909852D01*
X200626100Y-108461190D01*
X200658755Y-108428535D01*
X200801100Y-108084883D01*
X200801100Y-107712917D01*
X200658755Y-107369265D01*
X200395735Y-107106245D01*
X200052083Y-106963900D01*
X199680117Y-106963900D01*
X199336465Y-107106245D01*
X199073445Y-107369265D01*
X199006500Y-107530885D01*
X199006500Y-71321346D01*
X199021388Y-71246499D01*
X199006500Y-71171652D01*
X199006500Y-71171648D01*
X198962404Y-70949963D01*
X198909244Y-70870403D01*
X198836829Y-70762026D01*
X198836827Y-70762024D01*
X198794429Y-70698571D01*
X198730976Y-70656173D01*
X191833500Y-63758699D01*
X191833500Y-63234750D01*
X191630487Y-62744633D01*
X191255367Y-62369513D01*
X190765250Y-62166500D01*
X190234750Y-62166500D01*
X189744633Y-62369513D01*
X189670900Y-62443246D01*
X189670900Y-61985748D01*
X189685788Y-61910900D01*
X189670900Y-61836052D01*
X189670900Y-61836048D01*
X189631758Y-61639269D01*
X189626804Y-61614362D01*
X189501229Y-61426427D01*
X189458829Y-61362971D01*
X189395373Y-61320571D01*
X189293500Y-61218698D01*
X189293500Y-60694750D01*
X189090487Y-60204633D01*
X188715367Y-59829513D01*
X188225250Y-59626500D01*
X187694750Y-59626500D01*
X187450000Y-59727879D01*
X187450000Y-51848946D01*
X187464888Y-51774099D01*
X187450000Y-51699252D01*
X187450000Y-51699248D01*
X187405904Y-51477563D01*
X187237929Y-51226171D01*
X187174473Y-51183771D01*
X176994646Y-41003944D01*
X177076755Y-40921835D01*
X177219100Y-40578183D01*
X177219100Y-40206217D01*
X177076755Y-39862565D01*
X176813735Y-39599545D01*
X176470083Y-39457200D01*
X176423903Y-39457200D01*
X176336703Y-39370000D01*
X191525908Y-39370000D01*
X191641161Y-39949418D01*
X191969375Y-40440625D01*
X192267761Y-40640000D01*
X191969375Y-40839375D01*
X191641161Y-41330582D01*
X191525908Y-41910000D01*
X191641161Y-42489418D01*
X191969375Y-42980625D01*
X192267761Y-43180000D01*
X191969375Y-43379375D01*
X191641161Y-43870582D01*
X191525908Y-44450000D01*
X191641161Y-45029418D01*
X191969375Y-45520625D01*
X192267761Y-45720000D01*
X191969375Y-45919375D01*
X191641161Y-46410582D01*
X191525908Y-46990000D01*
X191641161Y-47569418D01*
X191969375Y-48060625D01*
X192267761Y-48260000D01*
X191969375Y-48459375D01*
X191641161Y-48950582D01*
X191525908Y-49530000D01*
X191641161Y-50109418D01*
X191969375Y-50600625D01*
X192460582Y-50928839D01*
X192893744Y-51015000D01*
X193186256Y-51015000D01*
X193619418Y-50928839D01*
X194110625Y-50600625D01*
X194438839Y-50109418D01*
X194554092Y-49530000D01*
X194438839Y-48950582D01*
X194110625Y-48459375D01*
X193812239Y-48260000D01*
X194110625Y-48060625D01*
X194438839Y-47569418D01*
X194554092Y-46990000D01*
X194438839Y-46410582D01*
X194110625Y-45919375D01*
X193812239Y-45720000D01*
X194110625Y-45520625D01*
X194438839Y-45029418D01*
X194554092Y-44450000D01*
X194438839Y-43870582D01*
X194110625Y-43379375D01*
X193812239Y-43180000D01*
X194110625Y-42980625D01*
X194438839Y-42489418D01*
X194554092Y-41910000D01*
X194438839Y-41330582D01*
X194110625Y-40839375D01*
X193812239Y-40640000D01*
X194110625Y-40440625D01*
X194438839Y-39949418D01*
X194554092Y-39370000D01*
X194438839Y-38790582D01*
X194110625Y-38299375D01*
X194088967Y-38284904D01*
X194249698Y-38218327D01*
X194428327Y-38039699D01*
X194525000Y-37806310D01*
X194525000Y-37011750D01*
X194366250Y-36853000D01*
X193063000Y-36853000D01*
X193063000Y-36873000D01*
X193017000Y-36873000D01*
X193017000Y-36853000D01*
X191713750Y-36853000D01*
X191555000Y-37011750D01*
X191555000Y-37806310D01*
X191651673Y-38039699D01*
X191830302Y-38218327D01*
X191991033Y-38284904D01*
X191969375Y-38299375D01*
X191641161Y-38790582D01*
X191525908Y-39370000D01*
X176336703Y-39370000D01*
X172820392Y-35853690D01*
X191555000Y-35853690D01*
X191555000Y-36648250D01*
X191713750Y-36807000D01*
X193017000Y-36807000D01*
X193017000Y-35503750D01*
X193063000Y-35503750D01*
X193063000Y-36807000D01*
X194366250Y-36807000D01*
X194525000Y-36648250D01*
X194525000Y-35853690D01*
X194428327Y-35620301D01*
X194249698Y-35441673D01*
X194016309Y-35345000D01*
X193221750Y-35345000D01*
X193063000Y-35503750D01*
X193017000Y-35503750D01*
X192858250Y-35345000D01*
X192063691Y-35345000D01*
X191830302Y-35441673D01*
X191651673Y-35620301D01*
X191555000Y-35853690D01*
X172820392Y-35853690D01*
X170777131Y-33810430D01*
X170734729Y-33746971D01*
X170709330Y-33730000D01*
X202795001Y-33730000D01*
X202795000Y-132310000D01*
G36*
X119426669Y-130795858D02*
X119412527Y-130810000D01*
X119426669Y-130824142D01*
X119394142Y-130856669D01*
X119380000Y-130842527D01*
X119365858Y-130856669D01*
X119333331Y-130824142D01*
X119347473Y-130810000D01*
X119333331Y-130795858D01*
X119365858Y-130763331D01*
X119380000Y-130777473D01*
X119394142Y-130763331D01*
X119426669Y-130795858D01*
X119426669Y-130795858D01*
G37*
X119426669Y-130795858D02*
X119412527Y-130810000D01*
X119426669Y-130824142D01*
X119394142Y-130856669D01*
X119380000Y-130842527D01*
X119365858Y-130856669D01*
X119333331Y-130824142D01*
X119347473Y-130810000D01*
X119333331Y-130795858D01*
X119365858Y-130763331D01*
X119380000Y-130777473D01*
X119394142Y-130763331D01*
X119426669Y-130795858D01*
G36*
X121966669Y-130795858D02*
X121952527Y-130810000D01*
X121966669Y-130824142D01*
X121934142Y-130856669D01*
X121920000Y-130842527D01*
X121905858Y-130856669D01*
X121873331Y-130824142D01*
X121887473Y-130810000D01*
X121873331Y-130795858D01*
X121905858Y-130763331D01*
X121920000Y-130777473D01*
X121934142Y-130763331D01*
X121966669Y-130795858D01*
X121966669Y-130795858D01*
G37*
X121966669Y-130795858D02*
X121952527Y-130810000D01*
X121966669Y-130824142D01*
X121934142Y-130856669D01*
X121920000Y-130842527D01*
X121905858Y-130856669D01*
X121873331Y-130824142D01*
X121887473Y-130810000D01*
X121873331Y-130795858D01*
X121905858Y-130763331D01*
X121920000Y-130777473D01*
X121934142Y-130763331D01*
X121966669Y-130795858D01*
G36*
X109095001Y-84506956D02*
X108820423Y-84690423D01*
X108749266Y-84796917D01*
X108653327Y-84565301D01*
X108474698Y-84386673D01*
X108241309Y-84290000D01*
X107496750Y-84290000D01*
X107338000Y-84448750D01*
X107338000Y-85702000D01*
X107358000Y-85702000D01*
X107358000Y-85748000D01*
X107338000Y-85748000D01*
X107338000Y-87001250D01*
X107496750Y-87160000D01*
X108241309Y-87160000D01*
X108474698Y-87063327D01*
X108653327Y-86884699D01*
X108749266Y-86653083D01*
X108820423Y-86759577D01*
X109095001Y-86943044D01*
X109095000Y-89586956D01*
X108820423Y-89770423D01*
X108503260Y-90245091D01*
X108391887Y-90805000D01*
X108503260Y-91364909D01*
X108820423Y-91839577D01*
X109295091Y-92156740D01*
X109713667Y-92240000D01*
X109996333Y-92240000D01*
X110414909Y-92156740D01*
X110889577Y-91839577D01*
X111125000Y-91487242D01*
X111360423Y-91839577D01*
X111835091Y-92156740D01*
X112253667Y-92240000D01*
X112536333Y-92240000D01*
X112905001Y-92166667D01*
X112905001Y-97063333D01*
X112536333Y-96990000D01*
X112253667Y-96990000D01*
X111835091Y-97073260D01*
X111360423Y-97390423D01*
X111279785Y-97511106D01*
X111253157Y-97377235D01*
X111112809Y-97167191D01*
X110902765Y-97026843D01*
X110655000Y-96977560D01*
X109055000Y-96977560D01*
X108807235Y-97026843D01*
X108597191Y-97167191D01*
X108456843Y-97377235D01*
X108407560Y-97625000D01*
X108407560Y-99225000D01*
X108456843Y-99472765D01*
X108597191Y-99682809D01*
X108807235Y-99823157D01*
X109055000Y-99872440D01*
X110655000Y-99872440D01*
X110902765Y-99823157D01*
X111112809Y-99682809D01*
X111253157Y-99472765D01*
X111279785Y-99338894D01*
X111360423Y-99459577D01*
X111835091Y-99776740D01*
X112253667Y-99860000D01*
X112536333Y-99860000D01*
X112905001Y-99786667D01*
X112905001Y-102137897D01*
X108735528Y-106307371D01*
X108672072Y-106349771D01*
X108629672Y-106413227D01*
X108629671Y-106413228D01*
X108504097Y-106601163D01*
X108480852Y-106718024D01*
X108185423Y-106915423D01*
X107868260Y-107390091D01*
X107756887Y-107950000D01*
X107868260Y-108509909D01*
X108185423Y-108984577D01*
X108660091Y-109301740D01*
X109078667Y-109385000D01*
X109361333Y-109385000D01*
X109779909Y-109301740D01*
X110254577Y-108984577D01*
X110490000Y-108632242D01*
X110725423Y-108984577D01*
X111200091Y-109301740D01*
X111618667Y-109385000D01*
X111901333Y-109385000D01*
X112319909Y-109301740D01*
X112794577Y-108984577D01*
X113030000Y-108632242D01*
X113265423Y-108984577D01*
X113740091Y-109301740D01*
X114158667Y-109385000D01*
X114441333Y-109385000D01*
X114635000Y-109346477D01*
X114635001Y-114173523D01*
X114441333Y-114135000D01*
X114158667Y-114135000D01*
X113740091Y-114218260D01*
X113265423Y-114535423D01*
X113030000Y-114887758D01*
X112794577Y-114535423D01*
X112319909Y-114218260D01*
X111901333Y-114135000D01*
X111618667Y-114135000D01*
X111200091Y-114218260D01*
X110725423Y-114535423D01*
X110644785Y-114656106D01*
X110618157Y-114522235D01*
X110477809Y-114312191D01*
X110267765Y-114171843D01*
X110020000Y-114122560D01*
X108420000Y-114122560D01*
X108172235Y-114171843D01*
X107962191Y-114312191D01*
X107821843Y-114522235D01*
X107772560Y-114770000D01*
X107772560Y-116370000D01*
X107821843Y-116617765D01*
X107962191Y-116827809D01*
X108172235Y-116968157D01*
X108420000Y-117017440D01*
X108460001Y-117017440D01*
X108460000Y-120527053D01*
X108445112Y-120601900D01*
X108460000Y-120676747D01*
X108460000Y-120676751D01*
X108504096Y-120898436D01*
X108672071Y-121149829D01*
X108735530Y-121192231D01*
X116059573Y-128516276D01*
X116101971Y-128579729D01*
X116165424Y-128622127D01*
X116165426Y-128622129D01*
X116260250Y-128685488D01*
X116353363Y-128747704D01*
X116575048Y-128791800D01*
X116575052Y-128791800D01*
X116649899Y-128806688D01*
X116724746Y-128791800D01*
X116867515Y-128791800D01*
X116860443Y-129126197D01*
X117033063Y-129569204D01*
X116618803Y-129560443D01*
X116157456Y-129740209D01*
X116112840Y-129770021D01*
X116071378Y-130008852D01*
X116840000Y-130777473D01*
X116854142Y-130763331D01*
X116886669Y-130795858D01*
X116872527Y-130810000D01*
X116886669Y-130824142D01*
X116854142Y-130856669D01*
X116840000Y-130842527D01*
X116825858Y-130856669D01*
X116793331Y-130824142D01*
X116807473Y-130810000D01*
X116038852Y-130041378D01*
X115860621Y-130072320D01*
X106984500Y-121196199D01*
X106984500Y-87160000D01*
X107133250Y-87160000D01*
X107292000Y-87001250D01*
X107292000Y-85748000D01*
X107272000Y-85748000D01*
X107272000Y-85702000D01*
X107292000Y-85702000D01*
X107292000Y-84448750D01*
X107133250Y-84290000D01*
X106984500Y-84290000D01*
X106984500Y-81259901D01*
X109095000Y-79149401D01*
X109095001Y-84506956D01*
X109095001Y-84506956D01*
G37*
X109095001Y-84506956D02*
X108820423Y-84690423D01*
X108749266Y-84796917D01*
X108653327Y-84565301D01*
X108474698Y-84386673D01*
X108241309Y-84290000D01*
X107496750Y-84290000D01*
X107338000Y-84448750D01*
X107338000Y-85702000D01*
X107358000Y-85702000D01*
X107358000Y-85748000D01*
X107338000Y-85748000D01*
X107338000Y-87001250D01*
X107496750Y-87160000D01*
X108241309Y-87160000D01*
X108474698Y-87063327D01*
X108653327Y-86884699D01*
X108749266Y-86653083D01*
X108820423Y-86759577D01*
X109095001Y-86943044D01*
X109095000Y-89586956D01*
X108820423Y-89770423D01*
X108503260Y-90245091D01*
X108391887Y-90805000D01*
X108503260Y-91364909D01*
X108820423Y-91839577D01*
X109295091Y-92156740D01*
X109713667Y-92240000D01*
X109996333Y-92240000D01*
X110414909Y-92156740D01*
X110889577Y-91839577D01*
X111125000Y-91487242D01*
X111360423Y-91839577D01*
X111835091Y-92156740D01*
X112253667Y-92240000D01*
X112536333Y-92240000D01*
X112905001Y-92166667D01*
X112905001Y-97063333D01*
X112536333Y-96990000D01*
X112253667Y-96990000D01*
X111835091Y-97073260D01*
X111360423Y-97390423D01*
X111279785Y-97511106D01*
X111253157Y-97377235D01*
X111112809Y-97167191D01*
X110902765Y-97026843D01*
X110655000Y-96977560D01*
X109055000Y-96977560D01*
X108807235Y-97026843D01*
X108597191Y-97167191D01*
X108456843Y-97377235D01*
X108407560Y-97625000D01*
X108407560Y-99225000D01*
X108456843Y-99472765D01*
X108597191Y-99682809D01*
X108807235Y-99823157D01*
X109055000Y-99872440D01*
X110655000Y-99872440D01*
X110902765Y-99823157D01*
X111112809Y-99682809D01*
X111253157Y-99472765D01*
X111279785Y-99338894D01*
X111360423Y-99459577D01*
X111835091Y-99776740D01*
X112253667Y-99860000D01*
X112536333Y-99860000D01*
X112905001Y-99786667D01*
X112905001Y-102137897D01*
X108735528Y-106307371D01*
X108672072Y-106349771D01*
X108629672Y-106413227D01*
X108629671Y-106413228D01*
X108504097Y-106601163D01*
X108480852Y-106718024D01*
X108185423Y-106915423D01*
X107868260Y-107390091D01*
X107756887Y-107950000D01*
X107868260Y-108509909D01*
X108185423Y-108984577D01*
X108660091Y-109301740D01*
X109078667Y-109385000D01*
X109361333Y-109385000D01*
X109779909Y-109301740D01*
X110254577Y-108984577D01*
X110490000Y-108632242D01*
X110725423Y-108984577D01*
X111200091Y-109301740D01*
X111618667Y-109385000D01*
X111901333Y-109385000D01*
X112319909Y-109301740D01*
X112794577Y-108984577D01*
X113030000Y-108632242D01*
X113265423Y-108984577D01*
X113740091Y-109301740D01*
X114158667Y-109385000D01*
X114441333Y-109385000D01*
X114635000Y-109346477D01*
X114635001Y-114173523D01*
X114441333Y-114135000D01*
X114158667Y-114135000D01*
X113740091Y-114218260D01*
X113265423Y-114535423D01*
X113030000Y-114887758D01*
X112794577Y-114535423D01*
X112319909Y-114218260D01*
X111901333Y-114135000D01*
X111618667Y-114135000D01*
X111200091Y-114218260D01*
X110725423Y-114535423D01*
X110644785Y-114656106D01*
X110618157Y-114522235D01*
X110477809Y-114312191D01*
X110267765Y-114171843D01*
X110020000Y-114122560D01*
X108420000Y-114122560D01*
X108172235Y-114171843D01*
X107962191Y-114312191D01*
X107821843Y-114522235D01*
X107772560Y-114770000D01*
X107772560Y-116370000D01*
X107821843Y-116617765D01*
X107962191Y-116827809D01*
X108172235Y-116968157D01*
X108420000Y-117017440D01*
X108460001Y-117017440D01*
X108460000Y-120527053D01*
X108445112Y-120601900D01*
X108460000Y-120676747D01*
X108460000Y-120676751D01*
X108504096Y-120898436D01*
X108672071Y-121149829D01*
X108735530Y-121192231D01*
X116059573Y-128516276D01*
X116101971Y-128579729D01*
X116165424Y-128622127D01*
X116165426Y-128622129D01*
X116260250Y-128685488D01*
X116353363Y-128747704D01*
X116575048Y-128791800D01*
X116575052Y-128791800D01*
X116649899Y-128806688D01*
X116724746Y-128791800D01*
X116867515Y-128791800D01*
X116860443Y-129126197D01*
X117033063Y-129569204D01*
X116618803Y-129560443D01*
X116157456Y-129740209D01*
X116112840Y-129770021D01*
X116071378Y-130008852D01*
X116840000Y-130777473D01*
X116854142Y-130763331D01*
X116886669Y-130795858D01*
X116872527Y-130810000D01*
X116886669Y-130824142D01*
X116854142Y-130856669D01*
X116840000Y-130842527D01*
X116825858Y-130856669D01*
X116793331Y-130824142D01*
X116807473Y-130810000D01*
X116038852Y-130041378D01*
X115860621Y-130072320D01*
X106984500Y-121196199D01*
X106984500Y-87160000D01*
X107133250Y-87160000D01*
X107292000Y-87001250D01*
X107292000Y-85748000D01*
X107272000Y-85748000D01*
X107272000Y-85702000D01*
X107292000Y-85702000D01*
X107292000Y-84448750D01*
X107133250Y-84290000D01*
X106984500Y-84290000D01*
X106984500Y-81259901D01*
X109095000Y-79149401D01*
X109095001Y-84506956D01*
G36*
X118156669Y-128890858D02*
X118142527Y-128905000D01*
X118156669Y-128919142D01*
X118124142Y-128951669D01*
X118110000Y-128937527D01*
X118095858Y-128951669D01*
X118063331Y-128919142D01*
X118077473Y-128905000D01*
X118063331Y-128890858D01*
X118095858Y-128858331D01*
X118110000Y-128872473D01*
X118124142Y-128858331D01*
X118156669Y-128890858D01*
X118156669Y-128890858D01*
G37*
X118156669Y-128890858D02*
X118142527Y-128905000D01*
X118156669Y-128919142D01*
X118124142Y-128951669D01*
X118110000Y-128937527D01*
X118095858Y-128951669D01*
X118063331Y-128919142D01*
X118077473Y-128905000D01*
X118063331Y-128890858D01*
X118095858Y-128858331D01*
X118110000Y-128872473D01*
X118124142Y-128858331D01*
X118156669Y-128890858D01*
G36*
X120696669Y-128890858D02*
X120682527Y-128905000D01*
X120696669Y-128919142D01*
X120664142Y-128951669D01*
X120650000Y-128937527D01*
X120635858Y-128951669D01*
X120603331Y-128919142D01*
X120617473Y-128905000D01*
X120603331Y-128890858D01*
X120635858Y-128858331D01*
X120650000Y-128872473D01*
X120664142Y-128858331D01*
X120696669Y-128890858D01*
X120696669Y-128890858D01*
G37*
X120696669Y-128890858D02*
X120682527Y-128905000D01*
X120696669Y-128919142D01*
X120664142Y-128951669D01*
X120650000Y-128937527D01*
X120635858Y-128951669D01*
X120603331Y-128919142D01*
X120617473Y-128905000D01*
X120603331Y-128890858D01*
X120635858Y-128858331D01*
X120650000Y-128872473D01*
X120664142Y-128858331D01*
X120696669Y-128890858D01*
G36*
X190546669Y-126985858D02*
X190532527Y-127000000D01*
X190546669Y-127014142D01*
X190514142Y-127046669D01*
X190500000Y-127032527D01*
X190485858Y-127046669D01*
X190453331Y-127014142D01*
X190467473Y-127000000D01*
X190453331Y-126985858D01*
X190485858Y-126953331D01*
X190500000Y-126967473D01*
X190514142Y-126953331D01*
X190546669Y-126985858D01*
X190546669Y-126985858D01*
G37*
X190546669Y-126985858D02*
X190532527Y-127000000D01*
X190546669Y-127014142D01*
X190514142Y-127046669D01*
X190500000Y-127032527D01*
X190485858Y-127046669D01*
X190453331Y-127014142D01*
X190467473Y-127000000D01*
X190453331Y-126985858D01*
X190485858Y-126953331D01*
X190500000Y-126967473D01*
X190514142Y-126953331D01*
X190546669Y-126985858D01*
G36*
X188006669Y-126985858D02*
X187992527Y-127000000D01*
X188006669Y-127014142D01*
X187974142Y-127046669D01*
X187960000Y-127032527D01*
X187945858Y-127046669D01*
X187913331Y-127014142D01*
X187927473Y-127000000D01*
X187913331Y-126985858D01*
X187945858Y-126953331D01*
X187960000Y-126967473D01*
X187974142Y-126953331D01*
X188006669Y-126985858D01*
X188006669Y-126985858D01*
G37*
X188006669Y-126985858D02*
X187992527Y-127000000D01*
X188006669Y-127014142D01*
X187974142Y-127046669D01*
X187960000Y-127032527D01*
X187945858Y-127046669D01*
X187913331Y-127014142D01*
X187927473Y-127000000D01*
X187913331Y-126985858D01*
X187945858Y-126953331D01*
X187960000Y-126967473D01*
X187974142Y-126953331D01*
X188006669Y-126985858D01*
G36*
X176875700Y-76308090D02*
X176875701Y-78787810D01*
X176857383Y-78879900D01*
X176929950Y-79244718D01*
X177071926Y-79457200D01*
X177136604Y-79553997D01*
X177214670Y-79606159D01*
X180554770Y-82946259D01*
X180654769Y-83187680D01*
X180945920Y-83478831D01*
X181326326Y-83636400D01*
X181738074Y-83636400D01*
X182118480Y-83478831D01*
X182187861Y-83409450D01*
X183019128Y-84240718D01*
X183059050Y-84441419D01*
X183265703Y-84750697D01*
X183343772Y-84802861D01*
X184140239Y-85599328D01*
X184192403Y-85677397D01*
X184461646Y-85857299D01*
X184331700Y-86171017D01*
X184331700Y-86542983D01*
X184474045Y-86886635D01*
X184597200Y-87009790D01*
X184597200Y-88571025D01*
X184407383Y-88492400D01*
X184035417Y-88492400D01*
X183691765Y-88634745D01*
X183428745Y-88897765D01*
X183286400Y-89241417D01*
X183286400Y-89613383D01*
X183428745Y-89957035D01*
X183461401Y-89989691D01*
X183461400Y-105159453D01*
X183446512Y-105234300D01*
X183461400Y-105309147D01*
X183461400Y-105309151D01*
X183505496Y-105530836D01*
X183673471Y-105782229D01*
X183736930Y-105824631D01*
X183956900Y-106044601D01*
X183956900Y-106090783D01*
X184099245Y-106434435D01*
X184362265Y-106697455D01*
X184705917Y-106839800D01*
X185077883Y-106839800D01*
X185421535Y-106697455D01*
X185684555Y-106434435D01*
X185826900Y-106090783D01*
X185826900Y-105718817D01*
X185684555Y-105375165D01*
X185421535Y-105112145D01*
X185255087Y-105043200D01*
X185543183Y-105043200D01*
X185886835Y-104900855D01*
X186149855Y-104637835D01*
X186292200Y-104294183D01*
X186292200Y-103922217D01*
X186149855Y-103578565D01*
X186117200Y-103545910D01*
X186117200Y-87457589D01*
X188295000Y-89635390D01*
X188295001Y-118218753D01*
X188159375Y-118309375D01*
X188147184Y-118327619D01*
X188138157Y-118282235D01*
X187997809Y-118072191D01*
X187787765Y-117931843D01*
X187540000Y-117882560D01*
X185840000Y-117882560D01*
X185592235Y-117931843D01*
X185382191Y-118072191D01*
X185241843Y-118282235D01*
X185192560Y-118530000D01*
X185192560Y-120230000D01*
X185241843Y-120477765D01*
X185382191Y-120687809D01*
X185592235Y-120828157D01*
X185778019Y-120865111D01*
X185809250Y-121022118D01*
X185852183Y-121086372D01*
X186015904Y-121331397D01*
X186093970Y-121383559D01*
X186821301Y-122110891D01*
X186821300Y-123852898D01*
X186468803Y-123845443D01*
X186007456Y-124025209D01*
X185962840Y-124055021D01*
X185921378Y-124293852D01*
X186690000Y-125062473D01*
X186704142Y-125048331D01*
X186736669Y-125080858D01*
X186722527Y-125095000D01*
X186736669Y-125109142D01*
X186704142Y-125141669D01*
X186690000Y-125127527D01*
X186675858Y-125141669D01*
X186643331Y-125109142D01*
X186657473Y-125095000D01*
X185888852Y-124326378D01*
X185650021Y-124367840D01*
X185450912Y-124821175D01*
X185440443Y-125316197D01*
X185611580Y-125755400D01*
X185223599Y-125755400D01*
X185394600Y-125342566D01*
X185394600Y-124847434D01*
X185205121Y-124389991D01*
X184855009Y-124039879D01*
X184397566Y-123850400D01*
X183902434Y-123850400D01*
X183444991Y-124039879D01*
X183094879Y-124389991D01*
X182905400Y-124847434D01*
X182905400Y-125342566D01*
X182920077Y-125378000D01*
X182839923Y-125378000D01*
X182854600Y-125342566D01*
X182854600Y-124847434D01*
X182665121Y-124389991D01*
X182315009Y-124039879D01*
X181857566Y-123850400D01*
X181362434Y-123850400D01*
X180904991Y-124039879D01*
X180554879Y-124389991D01*
X180365400Y-124847434D01*
X180365400Y-125342566D01*
X180380077Y-125378000D01*
X180299923Y-125378000D01*
X180314600Y-125342566D01*
X180314600Y-124847434D01*
X180125121Y-124389991D01*
X179775009Y-124039879D01*
X179317566Y-123850400D01*
X178822434Y-123850400D01*
X178553700Y-123961713D01*
X178553700Y-109007717D01*
X179321000Y-109007717D01*
X179321000Y-109379683D01*
X179463345Y-109723335D01*
X179726365Y-109986355D01*
X179944563Y-110076735D01*
X179870665Y-110107345D01*
X179607645Y-110370365D01*
X179465300Y-110714017D01*
X179465300Y-111085983D01*
X179607645Y-111429635D01*
X179870665Y-111692655D01*
X180214317Y-111835000D01*
X180586283Y-111835000D01*
X180929935Y-111692655D01*
X181192955Y-111429635D01*
X181335300Y-111085983D01*
X181335300Y-111039801D01*
X181630702Y-110744400D01*
X185818810Y-110744400D01*
X185851465Y-110777055D01*
X186195117Y-110919400D01*
X186567083Y-110919400D01*
X186910735Y-110777055D01*
X187173755Y-110514035D01*
X187316100Y-110170383D01*
X187316100Y-110124202D01*
X187605175Y-109835128D01*
X187668629Y-109792729D01*
X187711027Y-109729276D01*
X187711029Y-109729274D01*
X187836603Y-109541338D01*
X187836604Y-109541337D01*
X187880700Y-109319652D01*
X187880700Y-109319648D01*
X187895588Y-109244801D01*
X187880700Y-109169954D01*
X187880700Y-93631090D01*
X187913355Y-93598435D01*
X188055700Y-93254783D01*
X188055700Y-92882817D01*
X187913355Y-92539165D01*
X187650335Y-92276145D01*
X187306683Y-92133800D01*
X186934717Y-92133800D01*
X186591065Y-92276145D01*
X186328045Y-92539165D01*
X186185700Y-92882817D01*
X186185700Y-93254783D01*
X186328045Y-93598435D01*
X186360700Y-93631090D01*
X186360701Y-108011100D01*
X186134917Y-108011100D01*
X185791265Y-108153445D01*
X185758610Y-108186100D01*
X180578446Y-108186100D01*
X180503599Y-108171212D01*
X180428752Y-108186100D01*
X180428748Y-108186100D01*
X180207063Y-108230196D01*
X180164404Y-108258700D01*
X180070017Y-108258700D01*
X179726365Y-108401045D01*
X179463345Y-108664065D01*
X179321000Y-109007717D01*
X178553700Y-109007717D01*
X178553700Y-107449601D01*
X181424076Y-104579227D01*
X181487529Y-104536829D01*
X181529927Y-104473376D01*
X181529929Y-104473374D01*
X181636394Y-104314037D01*
X181655504Y-104285437D01*
X181699600Y-104063752D01*
X181699600Y-104063748D01*
X181714488Y-103988901D01*
X181699600Y-103914054D01*
X181699600Y-96346248D01*
X181714488Y-96271400D01*
X181699600Y-96196552D01*
X181699600Y-96196548D01*
X181655504Y-95974863D01*
X181600800Y-95892993D01*
X181600800Y-95811617D01*
X181458455Y-95467965D01*
X181195435Y-95204945D01*
X180851783Y-95062600D01*
X180805603Y-95062600D01*
X176752000Y-91008999D01*
X176752000Y-85114890D01*
X176784655Y-85082235D01*
X176927000Y-84738583D01*
X176927000Y-84366617D01*
X176784655Y-84022965D01*
X176752000Y-83990310D01*
X176752000Y-76184390D01*
X176875700Y-76308090D01*
X176875700Y-76308090D01*
G37*
X176875700Y-76308090D02*
X176875701Y-78787810D01*
X176857383Y-78879900D01*
X176929950Y-79244718D01*
X177071926Y-79457200D01*
X177136604Y-79553997D01*
X177214670Y-79606159D01*
X180554770Y-82946259D01*
X180654769Y-83187680D01*
X180945920Y-83478831D01*
X181326326Y-83636400D01*
X181738074Y-83636400D01*
X182118480Y-83478831D01*
X182187861Y-83409450D01*
X183019128Y-84240718D01*
X183059050Y-84441419D01*
X183265703Y-84750697D01*
X183343772Y-84802861D01*
X184140239Y-85599328D01*
X184192403Y-85677397D01*
X184461646Y-85857299D01*
X184331700Y-86171017D01*
X184331700Y-86542983D01*
X184474045Y-86886635D01*
X184597200Y-87009790D01*
X184597200Y-88571025D01*
X184407383Y-88492400D01*
X184035417Y-88492400D01*
X183691765Y-88634745D01*
X183428745Y-88897765D01*
X183286400Y-89241417D01*
X183286400Y-89613383D01*
X183428745Y-89957035D01*
X183461401Y-89989691D01*
X183461400Y-105159453D01*
X183446512Y-105234300D01*
X183461400Y-105309147D01*
X183461400Y-105309151D01*
X183505496Y-105530836D01*
X183673471Y-105782229D01*
X183736930Y-105824631D01*
X183956900Y-106044601D01*
X183956900Y-106090783D01*
X184099245Y-106434435D01*
X184362265Y-106697455D01*
X184705917Y-106839800D01*
X185077883Y-106839800D01*
X185421535Y-106697455D01*
X185684555Y-106434435D01*
X185826900Y-106090783D01*
X185826900Y-105718817D01*
X185684555Y-105375165D01*
X185421535Y-105112145D01*
X185255087Y-105043200D01*
X185543183Y-105043200D01*
X185886835Y-104900855D01*
X186149855Y-104637835D01*
X186292200Y-104294183D01*
X186292200Y-103922217D01*
X186149855Y-103578565D01*
X186117200Y-103545910D01*
X186117200Y-87457589D01*
X188295000Y-89635390D01*
X188295001Y-118218753D01*
X188159375Y-118309375D01*
X188147184Y-118327619D01*
X188138157Y-118282235D01*
X187997809Y-118072191D01*
X187787765Y-117931843D01*
X187540000Y-117882560D01*
X185840000Y-117882560D01*
X185592235Y-117931843D01*
X185382191Y-118072191D01*
X185241843Y-118282235D01*
X185192560Y-118530000D01*
X185192560Y-120230000D01*
X185241843Y-120477765D01*
X185382191Y-120687809D01*
X185592235Y-120828157D01*
X185778019Y-120865111D01*
X185809250Y-121022118D01*
X185852183Y-121086372D01*
X186015904Y-121331397D01*
X186093970Y-121383559D01*
X186821301Y-122110891D01*
X186821300Y-123852898D01*
X186468803Y-123845443D01*
X186007456Y-124025209D01*
X185962840Y-124055021D01*
X185921378Y-124293852D01*
X186690000Y-125062473D01*
X186704142Y-125048331D01*
X186736669Y-125080858D01*
X186722527Y-125095000D01*
X186736669Y-125109142D01*
X186704142Y-125141669D01*
X186690000Y-125127527D01*
X186675858Y-125141669D01*
X186643331Y-125109142D01*
X186657473Y-125095000D01*
X185888852Y-124326378D01*
X185650021Y-124367840D01*
X185450912Y-124821175D01*
X185440443Y-125316197D01*
X185611580Y-125755400D01*
X185223599Y-125755400D01*
X185394600Y-125342566D01*
X185394600Y-124847434D01*
X185205121Y-124389991D01*
X184855009Y-124039879D01*
X184397566Y-123850400D01*
X183902434Y-123850400D01*
X183444991Y-124039879D01*
X183094879Y-124389991D01*
X182905400Y-124847434D01*
X182905400Y-125342566D01*
X182920077Y-125378000D01*
X182839923Y-125378000D01*
X182854600Y-125342566D01*
X182854600Y-124847434D01*
X182665121Y-124389991D01*
X182315009Y-124039879D01*
X181857566Y-123850400D01*
X181362434Y-123850400D01*
X180904991Y-124039879D01*
X180554879Y-124389991D01*
X180365400Y-124847434D01*
X180365400Y-125342566D01*
X180380077Y-125378000D01*
X180299923Y-125378000D01*
X180314600Y-125342566D01*
X180314600Y-124847434D01*
X180125121Y-124389991D01*
X179775009Y-124039879D01*
X179317566Y-123850400D01*
X178822434Y-123850400D01*
X178553700Y-123961713D01*
X178553700Y-109007717D01*
X179321000Y-109007717D01*
X179321000Y-109379683D01*
X179463345Y-109723335D01*
X179726365Y-109986355D01*
X179944563Y-110076735D01*
X179870665Y-110107345D01*
X179607645Y-110370365D01*
X179465300Y-110714017D01*
X179465300Y-111085983D01*
X179607645Y-111429635D01*
X179870665Y-111692655D01*
X180214317Y-111835000D01*
X180586283Y-111835000D01*
X180929935Y-111692655D01*
X181192955Y-111429635D01*
X181335300Y-111085983D01*
X181335300Y-111039801D01*
X181630702Y-110744400D01*
X185818810Y-110744400D01*
X185851465Y-110777055D01*
X186195117Y-110919400D01*
X186567083Y-110919400D01*
X186910735Y-110777055D01*
X187173755Y-110514035D01*
X187316100Y-110170383D01*
X187316100Y-110124202D01*
X187605175Y-109835128D01*
X187668629Y-109792729D01*
X187711027Y-109729276D01*
X187711029Y-109729274D01*
X187836603Y-109541338D01*
X187836604Y-109541337D01*
X187880700Y-109319652D01*
X187880700Y-109319648D01*
X187895588Y-109244801D01*
X187880700Y-109169954D01*
X187880700Y-93631090D01*
X187913355Y-93598435D01*
X188055700Y-93254783D01*
X188055700Y-92882817D01*
X187913355Y-92539165D01*
X187650335Y-92276145D01*
X187306683Y-92133800D01*
X186934717Y-92133800D01*
X186591065Y-92276145D01*
X186328045Y-92539165D01*
X186185700Y-92882817D01*
X186185700Y-93254783D01*
X186328045Y-93598435D01*
X186360700Y-93631090D01*
X186360701Y-108011100D01*
X186134917Y-108011100D01*
X185791265Y-108153445D01*
X185758610Y-108186100D01*
X180578446Y-108186100D01*
X180503599Y-108171212D01*
X180428752Y-108186100D01*
X180428748Y-108186100D01*
X180207063Y-108230196D01*
X180164404Y-108258700D01*
X180070017Y-108258700D01*
X179726365Y-108401045D01*
X179463345Y-108664065D01*
X179321000Y-109007717D01*
X178553700Y-109007717D01*
X178553700Y-107449601D01*
X181424076Y-104579227D01*
X181487529Y-104536829D01*
X181529927Y-104473376D01*
X181529929Y-104473374D01*
X181636394Y-104314037D01*
X181655504Y-104285437D01*
X181699600Y-104063752D01*
X181699600Y-104063748D01*
X181714488Y-103988901D01*
X181699600Y-103914054D01*
X181699600Y-96346248D01*
X181714488Y-96271400D01*
X181699600Y-96196552D01*
X181699600Y-96196548D01*
X181655504Y-95974863D01*
X181600800Y-95892993D01*
X181600800Y-95811617D01*
X181458455Y-95467965D01*
X181195435Y-95204945D01*
X180851783Y-95062600D01*
X180805603Y-95062600D01*
X176752000Y-91008999D01*
X176752000Y-85114890D01*
X176784655Y-85082235D01*
X176927000Y-84738583D01*
X176927000Y-84366617D01*
X176784655Y-84022965D01*
X176752000Y-83990310D01*
X176752000Y-76184390D01*
X176875700Y-76308090D01*
G36*
X191816669Y-125080858D02*
X191802527Y-125095000D01*
X191816669Y-125109142D01*
X191784142Y-125141669D01*
X191770000Y-125127527D01*
X191755858Y-125141669D01*
X191723331Y-125109142D01*
X191737473Y-125095000D01*
X191723331Y-125080858D01*
X191755858Y-125048331D01*
X191770000Y-125062473D01*
X191784142Y-125048331D01*
X191816669Y-125080858D01*
X191816669Y-125080858D01*
G37*
X191816669Y-125080858D02*
X191802527Y-125095000D01*
X191816669Y-125109142D01*
X191784142Y-125141669D01*
X191770000Y-125127527D01*
X191755858Y-125141669D01*
X191723331Y-125109142D01*
X191737473Y-125095000D01*
X191723331Y-125080858D01*
X191755858Y-125048331D01*
X191770000Y-125062473D01*
X191784142Y-125048331D01*
X191816669Y-125080858D01*
G36*
X189276669Y-125080858D02*
X189262527Y-125095000D01*
X189276669Y-125109142D01*
X189244142Y-125141669D01*
X189230000Y-125127527D01*
X189215858Y-125141669D01*
X189183331Y-125109142D01*
X189197473Y-125095000D01*
X189183331Y-125080858D01*
X189215858Y-125048331D01*
X189230000Y-125062473D01*
X189244142Y-125048331D01*
X189276669Y-125080858D01*
X189276669Y-125080858D01*
G37*
X189276669Y-125080858D02*
X189262527Y-125095000D01*
X189276669Y-125109142D01*
X189244142Y-125141669D01*
X189230000Y-125127527D01*
X189215858Y-125141669D01*
X189183331Y-125109142D01*
X189197473Y-125095000D01*
X189183331Y-125080858D01*
X189215858Y-125048331D01*
X189230000Y-125062473D01*
X189244142Y-125048331D01*
X189276669Y-125080858D01*
G36*
X180386669Y-66025858D02*
X180372527Y-66040000D01*
X181205255Y-66872728D01*
X181401389Y-66831390D01*
X184612072Y-70042074D01*
X184289513Y-70364633D01*
X184148955Y-70703970D01*
X184027087Y-70390089D01*
X183993321Y-70339555D01*
X183745255Y-70287272D01*
X182912527Y-71120000D01*
X183745255Y-71952728D01*
X183993321Y-71900445D01*
X184151351Y-71541815D01*
X184289513Y-71875367D01*
X184664633Y-72250487D01*
X185001447Y-72390000D01*
X184664633Y-72529513D01*
X184289513Y-72904633D01*
X184148955Y-73243970D01*
X184027087Y-72930089D01*
X183993321Y-72879555D01*
X183745255Y-72827272D01*
X182912527Y-73660000D01*
X183745255Y-74492728D01*
X183993321Y-74440445D01*
X184151351Y-74081815D01*
X184289513Y-74415367D01*
X184664633Y-74790487D01*
X185154750Y-74993500D01*
X185685250Y-74993500D01*
X186175367Y-74790487D01*
X186550487Y-74415367D01*
X186690000Y-74078553D01*
X186829513Y-74415367D01*
X187204633Y-74790487D01*
X187694750Y-74993500D01*
X188225250Y-74993500D01*
X188470000Y-74892121D01*
X188470001Y-81344048D01*
X188455112Y-81418900D01*
X188470001Y-81493752D01*
X188514097Y-81715437D01*
X188682072Y-81966829D01*
X188745528Y-82009229D01*
X189175700Y-82439402D01*
X189175700Y-82485583D01*
X189318045Y-82829235D01*
X189581065Y-83092255D01*
X189924717Y-83234600D01*
X190296683Y-83234600D01*
X190640335Y-83092255D01*
X190715400Y-83017190D01*
X190715400Y-84396098D01*
X190606898Y-84504600D01*
X190560717Y-84504600D01*
X190217065Y-84646945D01*
X189954045Y-84909965D01*
X189811700Y-85253617D01*
X189811700Y-85625583D01*
X189954045Y-85969235D01*
X190217065Y-86232255D01*
X190560717Y-86374600D01*
X190932683Y-86374600D01*
X191276335Y-86232255D01*
X191539355Y-85969235D01*
X191681700Y-85625583D01*
X191681700Y-85579402D01*
X191959876Y-85301227D01*
X192023329Y-85258829D01*
X192065727Y-85195376D01*
X192065729Y-85195374D01*
X192183797Y-85018672D01*
X192191304Y-85007437D01*
X192235400Y-84785752D01*
X192235400Y-84785748D01*
X192250288Y-84710901D01*
X192235400Y-84636054D01*
X192235400Y-70802148D01*
X192250288Y-70727300D01*
X192235400Y-70652452D01*
X192235400Y-70652448D01*
X192191304Y-70430763D01*
X192023329Y-70179371D01*
X191959873Y-70136971D01*
X191394378Y-69571476D01*
X191617776Y-69348078D01*
X195317200Y-73047502D01*
X195317201Y-102106814D01*
X194974065Y-102248945D01*
X194711045Y-102511965D01*
X194568700Y-102855617D01*
X194568700Y-102901798D01*
X194114800Y-103355699D01*
X194114800Y-91171586D01*
X194133117Y-91079500D01*
X194060550Y-90714681D01*
X193906059Y-90483469D01*
X193853897Y-90405403D01*
X193775831Y-90353241D01*
X186499131Y-83076542D01*
X186399131Y-82835120D01*
X186107980Y-82543969D01*
X185727574Y-82386400D01*
X185315826Y-82386400D01*
X185174953Y-82444751D01*
X182674500Y-79944299D01*
X182674500Y-74989239D01*
X183115379Y-74999095D01*
X183609911Y-74807087D01*
X183660445Y-74773321D01*
X183712728Y-74525255D01*
X182880000Y-73692527D01*
X182865858Y-73706669D01*
X182833331Y-73674142D01*
X182847473Y-73660000D01*
X182833331Y-73645858D01*
X182865858Y-73613331D01*
X182880000Y-73627473D01*
X183712728Y-72794745D01*
X183660445Y-72546679D01*
X183299475Y-72387617D01*
X183609911Y-72267087D01*
X183660445Y-72233321D01*
X183712728Y-71985255D01*
X182880000Y-71152527D01*
X182865858Y-71166669D01*
X182833331Y-71134142D01*
X182847473Y-71120000D01*
X182833331Y-71105858D01*
X182865858Y-71073331D01*
X182880000Y-71087473D01*
X183712728Y-70254745D01*
X183660445Y-70006679D01*
X183174988Y-69792762D01*
X182644621Y-69780905D01*
X182592450Y-69801161D01*
X182462429Y-69606571D01*
X182398973Y-69564171D01*
X181673500Y-68838698D01*
X181673500Y-68314750D01*
X181470487Y-67824633D01*
X181095367Y-67449513D01*
X180756030Y-67308955D01*
X181069911Y-67187087D01*
X181120445Y-67153321D01*
X181172728Y-66905255D01*
X180340000Y-66072527D01*
X179507272Y-66905255D01*
X179559555Y-67153321D01*
X179918185Y-67311351D01*
X179584633Y-67449513D01*
X179375271Y-67658875D01*
X179341229Y-67607927D01*
X179298829Y-67544471D01*
X179235373Y-67502071D01*
X178729578Y-66996276D01*
X178930487Y-66795367D01*
X179071045Y-66456030D01*
X179192913Y-66769911D01*
X179226679Y-66820445D01*
X179474745Y-66872728D01*
X180307473Y-66040000D01*
X180293331Y-66025858D01*
X180325858Y-65993331D01*
X180340000Y-66007473D01*
X180354142Y-65993331D01*
X180386669Y-66025858D01*
X180386669Y-66025858D01*
G37*
X180386669Y-66025858D02*
X180372527Y-66040000D01*
X181205255Y-66872728D01*
X181401389Y-66831390D01*
X184612072Y-70042074D01*
X184289513Y-70364633D01*
X184148955Y-70703970D01*
X184027087Y-70390089D01*
X183993321Y-70339555D01*
X183745255Y-70287272D01*
X182912527Y-71120000D01*
X183745255Y-71952728D01*
X183993321Y-71900445D01*
X184151351Y-71541815D01*
X184289513Y-71875367D01*
X184664633Y-72250487D01*
X185001447Y-72390000D01*
X184664633Y-72529513D01*
X184289513Y-72904633D01*
X184148955Y-73243970D01*
X184027087Y-72930089D01*
X183993321Y-72879555D01*
X183745255Y-72827272D01*
X182912527Y-73660000D01*
X183745255Y-74492728D01*
X183993321Y-74440445D01*
X184151351Y-74081815D01*
X184289513Y-74415367D01*
X184664633Y-74790487D01*
X185154750Y-74993500D01*
X185685250Y-74993500D01*
X186175367Y-74790487D01*
X186550487Y-74415367D01*
X186690000Y-74078553D01*
X186829513Y-74415367D01*
X187204633Y-74790487D01*
X187694750Y-74993500D01*
X188225250Y-74993500D01*
X188470000Y-74892121D01*
X188470001Y-81344048D01*
X188455112Y-81418900D01*
X188470001Y-81493752D01*
X188514097Y-81715437D01*
X188682072Y-81966829D01*
X188745528Y-82009229D01*
X189175700Y-82439402D01*
X189175700Y-82485583D01*
X189318045Y-82829235D01*
X189581065Y-83092255D01*
X189924717Y-83234600D01*
X190296683Y-83234600D01*
X190640335Y-83092255D01*
X190715400Y-83017190D01*
X190715400Y-84396098D01*
X190606898Y-84504600D01*
X190560717Y-84504600D01*
X190217065Y-84646945D01*
X189954045Y-84909965D01*
X189811700Y-85253617D01*
X189811700Y-85625583D01*
X189954045Y-85969235D01*
X190217065Y-86232255D01*
X190560717Y-86374600D01*
X190932683Y-86374600D01*
X191276335Y-86232255D01*
X191539355Y-85969235D01*
X191681700Y-85625583D01*
X191681700Y-85579402D01*
X191959876Y-85301227D01*
X192023329Y-85258829D01*
X192065727Y-85195376D01*
X192065729Y-85195374D01*
X192183797Y-85018672D01*
X192191304Y-85007437D01*
X192235400Y-84785752D01*
X192235400Y-84785748D01*
X192250288Y-84710901D01*
X192235400Y-84636054D01*
X192235400Y-70802148D01*
X192250288Y-70727300D01*
X192235400Y-70652452D01*
X192235400Y-70652448D01*
X192191304Y-70430763D01*
X192023329Y-70179371D01*
X191959873Y-70136971D01*
X191394378Y-69571476D01*
X191617776Y-69348078D01*
X195317200Y-73047502D01*
X195317201Y-102106814D01*
X194974065Y-102248945D01*
X194711045Y-102511965D01*
X194568700Y-102855617D01*
X194568700Y-102901798D01*
X194114800Y-103355699D01*
X194114800Y-91171586D01*
X194133117Y-91079500D01*
X194060550Y-90714681D01*
X193906059Y-90483469D01*
X193853897Y-90405403D01*
X193775831Y-90353241D01*
X186499131Y-83076542D01*
X186399131Y-82835120D01*
X186107980Y-82543969D01*
X185727574Y-82386400D01*
X185315826Y-82386400D01*
X185174953Y-82444751D01*
X182674500Y-79944299D01*
X182674500Y-74989239D01*
X183115379Y-74999095D01*
X183609911Y-74807087D01*
X183660445Y-74773321D01*
X183712728Y-74525255D01*
X182880000Y-73692527D01*
X182865858Y-73706669D01*
X182833331Y-73674142D01*
X182847473Y-73660000D01*
X182833331Y-73645858D01*
X182865858Y-73613331D01*
X182880000Y-73627473D01*
X183712728Y-72794745D01*
X183660445Y-72546679D01*
X183299475Y-72387617D01*
X183609911Y-72267087D01*
X183660445Y-72233321D01*
X183712728Y-71985255D01*
X182880000Y-71152527D01*
X182865858Y-71166669D01*
X182833331Y-71134142D01*
X182847473Y-71120000D01*
X182833331Y-71105858D01*
X182865858Y-71073331D01*
X182880000Y-71087473D01*
X183712728Y-70254745D01*
X183660445Y-70006679D01*
X183174988Y-69792762D01*
X182644621Y-69780905D01*
X182592450Y-69801161D01*
X182462429Y-69606571D01*
X182398973Y-69564171D01*
X181673500Y-68838698D01*
X181673500Y-68314750D01*
X181470487Y-67824633D01*
X181095367Y-67449513D01*
X180756030Y-67308955D01*
X181069911Y-67187087D01*
X181120445Y-67153321D01*
X181172728Y-66905255D01*
X180340000Y-66072527D01*
X179507272Y-66905255D01*
X179559555Y-67153321D01*
X179918185Y-67311351D01*
X179584633Y-67449513D01*
X179375271Y-67658875D01*
X179341229Y-67607927D01*
X179298829Y-67544471D01*
X179235373Y-67502071D01*
X178729578Y-66996276D01*
X178930487Y-66795367D01*
X179071045Y-66456030D01*
X179192913Y-66769911D01*
X179226679Y-66820445D01*
X179474745Y-66872728D01*
X180307473Y-66040000D01*
X180293331Y-66025858D01*
X180325858Y-65993331D01*
X180340000Y-66007473D01*
X180354142Y-65993331D01*
X180386669Y-66025858D01*
G36*
X135965091Y-81996740D02*
X136383667Y-82080000D01*
X136666333Y-82080000D01*
X136823701Y-82048698D01*
X136823701Y-84290000D01*
X136706750Y-84290000D01*
X136548000Y-84448750D01*
X136548000Y-85702000D01*
X136568000Y-85702000D01*
X136568000Y-85748000D01*
X136548000Y-85748000D01*
X136548000Y-87001250D01*
X136706750Y-87160000D01*
X136823701Y-87160000D01*
X136823700Y-89401302D01*
X136666333Y-89370000D01*
X136383667Y-89370000D01*
X135965091Y-89453260D01*
X135905900Y-89492810D01*
X135905900Y-87160000D01*
X136343250Y-87160000D01*
X136502000Y-87001250D01*
X136502000Y-85748000D01*
X136482000Y-85748000D01*
X136482000Y-85702000D01*
X136502000Y-85702000D01*
X136502000Y-84448750D01*
X136343250Y-84290000D01*
X135905900Y-84290000D01*
X135905900Y-81957190D01*
X135965091Y-81996740D01*
X135965091Y-81996740D01*
G37*
X135965091Y-81996740D02*
X136383667Y-82080000D01*
X136666333Y-82080000D01*
X136823701Y-82048698D01*
X136823701Y-84290000D01*
X136706750Y-84290000D01*
X136548000Y-84448750D01*
X136548000Y-85702000D01*
X136568000Y-85702000D01*
X136568000Y-85748000D01*
X136548000Y-85748000D01*
X136548000Y-87001250D01*
X136706750Y-87160000D01*
X136823701Y-87160000D01*
X136823700Y-89401302D01*
X136666333Y-89370000D01*
X136383667Y-89370000D01*
X135965091Y-89453260D01*
X135905900Y-89492810D01*
X135905900Y-87160000D01*
X136343250Y-87160000D01*
X136502000Y-87001250D01*
X136502000Y-85748000D01*
X136482000Y-85748000D01*
X136482000Y-85702000D01*
X136502000Y-85702000D01*
X136502000Y-84448750D01*
X136343250Y-84290000D01*
X135905900Y-84290000D01*
X135905900Y-81957190D01*
X135965091Y-81996740D01*
G36*
X188006669Y-68565858D02*
X187992527Y-68580000D01*
X188006669Y-68594142D01*
X187974142Y-68626669D01*
X187960000Y-68612527D01*
X187945858Y-68626669D01*
X187913331Y-68594142D01*
X187927473Y-68580000D01*
X187913331Y-68565858D01*
X187945858Y-68533331D01*
X187960000Y-68547473D01*
X187974142Y-68533331D01*
X188006669Y-68565858D01*
X188006669Y-68565858D01*
G37*
X188006669Y-68565858D02*
X187992527Y-68580000D01*
X188006669Y-68594142D01*
X187974142Y-68626669D01*
X187960000Y-68612527D01*
X187945858Y-68626669D01*
X187913331Y-68594142D01*
X187927473Y-68580000D01*
X187913331Y-68565858D01*
X187945858Y-68533331D01*
X187960000Y-68547473D01*
X187974142Y-68533331D01*
X188006669Y-68565858D01*
G36*
X132738000Y-40617000D02*
X132758000Y-40617000D01*
X132758000Y-40663000D01*
X132738000Y-40663000D01*
X132738000Y-41966051D01*
X132969994Y-42102943D01*
X133039260Y-42089167D01*
X133326300Y-41962193D01*
X133326301Y-48970682D01*
X133080865Y-49072345D01*
X132817845Y-49335365D01*
X132675500Y-49679017D01*
X132675500Y-50050983D01*
X132817845Y-50394635D01*
X132850500Y-50427290D01*
X132850501Y-50879297D01*
X132363000Y-51366799D01*
X132363000Y-42076896D01*
X132390740Y-42089167D01*
X132460006Y-42102943D01*
X132692000Y-41966051D01*
X132692000Y-40663000D01*
X132672000Y-40663000D01*
X132672000Y-40617000D01*
X132692000Y-40617000D01*
X132692000Y-40597000D01*
X132738000Y-40597000D01*
X132738000Y-40617000D01*
X132738000Y-40617000D01*
G37*
X132738000Y-40617000D02*
X132758000Y-40617000D01*
X132758000Y-40663000D01*
X132738000Y-40663000D01*
X132738000Y-41966051D01*
X132969994Y-42102943D01*
X133039260Y-42089167D01*
X133326300Y-41962193D01*
X133326301Y-48970682D01*
X133080865Y-49072345D01*
X132817845Y-49335365D01*
X132675500Y-49679017D01*
X132675500Y-50050983D01*
X132817845Y-50394635D01*
X132850500Y-50427290D01*
X132850501Y-50879297D01*
X132363000Y-51366799D01*
X132363000Y-42076896D01*
X132390740Y-42089167D01*
X132460006Y-42102943D01*
X132692000Y-41966051D01*
X132692000Y-40663000D01*
X132672000Y-40663000D01*
X132672000Y-40617000D01*
X132692000Y-40617000D01*
X132692000Y-40597000D01*
X132738000Y-40597000D01*
X132738000Y-40617000D01*
G36*
X170613500Y-38640202D02*
X170613500Y-47784611D01*
X165906600Y-43077711D01*
X165906600Y-39968686D01*
X165924917Y-39876600D01*
X165852350Y-39511781D01*
X165697859Y-39280569D01*
X165645697Y-39202503D01*
X165567631Y-39150341D01*
X164677270Y-38259981D01*
X164709092Y-38100000D01*
X164593839Y-37520582D01*
X164265625Y-37029375D01*
X164254737Y-37022100D01*
X168995399Y-37022100D01*
X170613500Y-38640202D01*
X170613500Y-38640202D01*
G37*
X170613500Y-38640202D02*
X170613500Y-47784611D01*
X165906600Y-43077711D01*
X165906600Y-39968686D01*
X165924917Y-39876600D01*
X165852350Y-39511781D01*
X165697859Y-39280569D01*
X165645697Y-39202503D01*
X165567631Y-39150341D01*
X164677270Y-38259981D01*
X164709092Y-38100000D01*
X164593839Y-37520582D01*
X164265625Y-37029375D01*
X164254737Y-37022100D01*
X168995399Y-37022100D01*
X170613500Y-38640202D01*
G36*
X153058000Y-40617000D02*
X153078000Y-40617000D01*
X153078000Y-40663000D01*
X153058000Y-40663000D01*
X153058000Y-40683000D01*
X153012000Y-40683000D01*
X153012000Y-40663000D01*
X152992000Y-40663000D01*
X152992000Y-40617000D01*
X153012000Y-40617000D01*
X153012000Y-40597000D01*
X153058000Y-40597000D01*
X153058000Y-40617000D01*
X153058000Y-40617000D01*
G37*
X153058000Y-40617000D02*
X153078000Y-40617000D01*
X153078000Y-40663000D01*
X153058000Y-40663000D01*
X153058000Y-40683000D01*
X153012000Y-40683000D01*
X153012000Y-40663000D01*
X152992000Y-40663000D01*
X152992000Y-40617000D01*
X153012000Y-40617000D01*
X153012000Y-40597000D01*
X153058000Y-40597000D01*
X153058000Y-40617000D01*
G36*
X123531770Y-37013829D02*
X123409150Y-36885233D01*
X122879260Y-36650833D01*
X122809994Y-36637057D01*
X122578000Y-36773949D01*
X122578000Y-38077000D01*
X122598000Y-38077000D01*
X122598000Y-38123000D01*
X122578000Y-38123000D01*
X122578000Y-38143000D01*
X122532000Y-38143000D01*
X122532000Y-38123000D01*
X122512000Y-38123000D01*
X122512000Y-38077000D01*
X122532000Y-38077000D01*
X122532000Y-36773949D01*
X122300006Y-36637057D01*
X122230740Y-36650833D01*
X121700850Y-36885233D01*
X121300997Y-37304571D01*
X121289454Y-37334427D01*
X121085625Y-37029375D01*
X120594418Y-36701161D01*
X120161256Y-36615000D01*
X119868744Y-36615000D01*
X119435582Y-36701161D01*
X118944375Y-37029375D01*
X118745000Y-37327761D01*
X118545625Y-37029375D01*
X118191168Y-36792534D01*
X119551403Y-35432300D01*
X125113298Y-35432300D01*
X123531770Y-37013829D01*
X123531770Y-37013829D01*
G37*
X123531770Y-37013829D02*
X123409150Y-36885233D01*
X122879260Y-36650833D01*
X122809994Y-36637057D01*
X122578000Y-36773949D01*
X122578000Y-38077000D01*
X122598000Y-38077000D01*
X122598000Y-38123000D01*
X122578000Y-38123000D01*
X122578000Y-38143000D01*
X122532000Y-38143000D01*
X122532000Y-38123000D01*
X122512000Y-38123000D01*
X122512000Y-38077000D01*
X122532000Y-38077000D01*
X122532000Y-36773949D01*
X122300006Y-36637057D01*
X122230740Y-36650833D01*
X121700850Y-36885233D01*
X121300997Y-37304571D01*
X121289454Y-37334427D01*
X121085625Y-37029375D01*
X120594418Y-36701161D01*
X120161256Y-36615000D01*
X119868744Y-36615000D01*
X119435582Y-36701161D01*
X118944375Y-37029375D01*
X118745000Y-37327761D01*
X118545625Y-37029375D01*
X118191168Y-36792534D01*
X119551403Y-35432300D01*
X125113298Y-35432300D01*
X123531770Y-37013829D01*
G36*
X147978000Y-38077000D02*
X147998000Y-38077000D01*
X147998000Y-38123000D01*
X147978000Y-38123000D01*
X147978000Y-38143000D01*
X147932000Y-38143000D01*
X147932000Y-38123000D01*
X147912000Y-38123000D01*
X147912000Y-38077000D01*
X147932000Y-38077000D01*
X147932000Y-38057000D01*
X147978000Y-38057000D01*
X147978000Y-38077000D01*
X147978000Y-38077000D01*
G37*
X147978000Y-38077000D02*
X147998000Y-38077000D01*
X147998000Y-38123000D01*
X147978000Y-38123000D01*
X147978000Y-38143000D01*
X147932000Y-38143000D01*
X147932000Y-38123000D01*
X147912000Y-38123000D01*
X147912000Y-38077000D01*
X147932000Y-38077000D01*
X147932000Y-38057000D01*
X147978000Y-38057000D01*
X147978000Y-38077000D01*
G36*
X140358000Y-38077000D02*
X140378000Y-38077000D01*
X140378000Y-38123000D01*
X140358000Y-38123000D01*
X140358000Y-38143000D01*
X140312000Y-38143000D01*
X140312000Y-38123000D01*
X140292000Y-38123000D01*
X140292000Y-38077000D01*
X140312000Y-38077000D01*
X140312000Y-38057000D01*
X140358000Y-38057000D01*
X140358000Y-38077000D01*
X140358000Y-38077000D01*
G37*
X140358000Y-38077000D02*
X140378000Y-38077000D01*
X140378000Y-38123000D01*
X140358000Y-38123000D01*
X140358000Y-38143000D01*
X140312000Y-38143000D01*
X140312000Y-38123000D01*
X140292000Y-38123000D01*
X140292000Y-38077000D01*
X140312000Y-38077000D01*
X140312000Y-38057000D01*
X140358000Y-38057000D01*
X140358000Y-38077000D01*
G36*
X131152469Y-36967130D02*
X130754418Y-36701161D01*
X130321256Y-36615000D01*
X130028744Y-36615000D01*
X129595582Y-36701161D01*
X129104375Y-37029375D01*
X128900546Y-37334427D01*
X128889003Y-37304571D01*
X128489150Y-36885233D01*
X127959260Y-36650833D01*
X127889994Y-36637057D01*
X127658000Y-36773949D01*
X127658000Y-38077000D01*
X127678000Y-38077000D01*
X127678000Y-38123000D01*
X127658000Y-38123000D01*
X127658000Y-38143000D01*
X127612000Y-38143000D01*
X127612000Y-38123000D01*
X127592000Y-38123000D01*
X127592000Y-38077000D01*
X127612000Y-38077000D01*
X127612000Y-36773949D01*
X127380006Y-36637057D01*
X127310740Y-36650833D01*
X126780850Y-36885233D01*
X126380997Y-37304571D01*
X126369454Y-37334427D01*
X126165625Y-37029375D01*
X125866018Y-36829184D01*
X126858002Y-35837200D01*
X132282398Y-35837200D01*
X131152469Y-36967130D01*
X131152469Y-36967130D01*
G37*
X131152469Y-36967130D02*
X130754418Y-36701161D01*
X130321256Y-36615000D01*
X130028744Y-36615000D01*
X129595582Y-36701161D01*
X129104375Y-37029375D01*
X128900546Y-37334427D01*
X128889003Y-37304571D01*
X128489150Y-36885233D01*
X127959260Y-36650833D01*
X127889994Y-36637057D01*
X127658000Y-36773949D01*
X127658000Y-38077000D01*
X127678000Y-38077000D01*
X127678000Y-38123000D01*
X127658000Y-38123000D01*
X127658000Y-38143000D01*
X127612000Y-38143000D01*
X127612000Y-38123000D01*
X127592000Y-38123000D01*
X127592000Y-38077000D01*
X127612000Y-38077000D01*
X127612000Y-36773949D01*
X127380006Y-36637057D01*
X127310740Y-36650833D01*
X126780850Y-36885233D01*
X126380997Y-37304571D01*
X126369454Y-37334427D01*
X126165625Y-37029375D01*
X125866018Y-36829184D01*
X126858002Y-35837200D01*
X132282398Y-35837200D01*
X131152469Y-36967130D01*
G36*
X158138000Y-38077000D02*
X158158000Y-38077000D01*
X158158000Y-38123000D01*
X158138000Y-38123000D01*
X158138000Y-38143000D01*
X158092000Y-38143000D01*
X158092000Y-38123000D01*
X158072000Y-38123000D01*
X158072000Y-38077000D01*
X158092000Y-38077000D01*
X158092000Y-38057000D01*
X158138000Y-38057000D01*
X158138000Y-38077000D01*
X158138000Y-38077000D01*
G37*
X158138000Y-38077000D02*
X158158000Y-38077000D01*
X158158000Y-38123000D01*
X158138000Y-38123000D01*
X158138000Y-38143000D01*
X158092000Y-38143000D01*
X158092000Y-38123000D01*
X158072000Y-38123000D01*
X158072000Y-38077000D01*
X158092000Y-38077000D01*
X158092000Y-38057000D01*
X158138000Y-38057000D01*
X158138000Y-38077000D01*
G36*
X149424375Y-37029375D02*
X149220546Y-37334427D01*
X149209003Y-37304571D01*
X149178846Y-37272944D01*
X149383255Y-37068535D01*
X149402489Y-37022100D01*
X149435263Y-37022100D01*
X149424375Y-37029375D01*
X149424375Y-37029375D01*
G37*
X149424375Y-37029375D02*
X149220546Y-37334427D01*
X149209003Y-37304571D01*
X149178846Y-37272944D01*
X149383255Y-37068535D01*
X149402489Y-37022100D01*
X149435263Y-37022100D01*
X149424375Y-37029375D01*
G36*
X142295582Y-36701161D02*
X141804375Y-37029375D01*
X141600546Y-37334427D01*
X141589003Y-37304571D01*
X141189150Y-36885233D01*
X140659260Y-36650833D01*
X140628423Y-36644700D01*
X142579432Y-36644700D01*
X142295582Y-36701161D01*
X142295582Y-36701161D01*
G37*
X142295582Y-36701161D02*
X141804375Y-37029375D01*
X141600546Y-37334427D01*
X141589003Y-37304571D01*
X141189150Y-36885233D01*
X140659260Y-36650833D01*
X140628423Y-36644700D01*
X142579432Y-36644700D01*
X142295582Y-36701161D01*
G36*
X147655600Y-36645889D02*
X147630740Y-36650833D01*
X147100850Y-36885233D01*
X146700997Y-37304571D01*
X146689454Y-37334427D01*
X146485625Y-37029375D01*
X145994418Y-36701161D01*
X145710568Y-36644700D01*
X147655600Y-36644700D01*
X147655600Y-36645889D01*
X147655600Y-36645889D01*
G37*
X147655600Y-36645889D02*
X147630740Y-36650833D01*
X147100850Y-36885233D01*
X146700997Y-37304571D01*
X146689454Y-37334427D01*
X146485625Y-37029375D01*
X145994418Y-36701161D01*
X145710568Y-36644700D01*
X147655600Y-36644700D01*
X147655600Y-36645889D01*
G04 #@! TD*
M02*
