M48
;DRILL file {KiCad (5.0.2)-1} date 1/3/2019 8:46:55 AM
;FORMAT={-:-/ absolute / inch / decimal}
FMAT,2
INCH,TZ
T1C0.0157
T2C0.0197
T3C0.0236
T4C0.0315
T5C0.0320
T6C0.0394
T7C0.0870
T8C0.1063
%
G90
G05
T1
X4.4483Y-1.4789
X4.5944Y-2.9796
X4.7163Y-2.6089
X4.7256Y-2.6433
X4.7402Y-3.0123
X4.7542Y-2.6492
X4.7816Y-2.9352
X4.7826Y-2.8965
X4.7867Y-2.7459
X4.8199Y-3.0464
X4.8301Y-3.0914
X4.8381Y-3.9428
X4.8665Y-3.0566
X4.9087Y-3.2828
X4.9099Y-4.1073
X4.9232Y-3.9356
X4.9461Y-2.1739
X4.9513Y-2.6358
X4.9565Y-2.7344
X4.973Y-2.9609
X4.9734Y-2.2024
X5.0127Y-2.9102
X5.0255Y-2.1574
X5.0928Y-1.8007
X5.1593Y-2.8564
X5.1792Y-3.2375
X5.2032Y-2.0725
X5.2354Y-3.0051
X5.2603Y-1.9632
X5.2692Y-2.0588
X5.3043Y-3.0235
X5.3204Y-2.9096
X5.3703Y-2.3094
X5.4285Y-2.1517
X5.4387Y-2.0616
X5.4494Y-2.2304
X5.5012Y-4.3843
X5.5126Y-3.9428
X5.5248Y-4.0952
X5.5543Y-3.4246
X5.5598Y-3.5027
X5.5738Y-4.4137
X5.5778Y-2.0391
X5.5881Y-2.5472
X5.5966Y-3.7166
X5.6193Y-2.0867
X5.7168Y-1.8872
X5.7743Y-2.5178
X5.7952Y-2.3079
X5.8291Y-2.5299
X5.8291Y-2.6084
X5.8291Y-2.7001
X5.85Y-1.4385
X5.9111Y-2.2552
X5.917Y-1.8188
X5.9258Y-4.2593
X5.9437Y-2.6025
X5.9473Y-4.0665
X5.9481Y-2.6715
X5.9488Y-1.8509
X5.9564Y-2.1862
X5.9588Y-2.2311
X5.9844Y-2.8106
X6.0178Y-2.8884
X6.0346Y-4.1746
X6.0564Y-3.4425
X6.0595Y-4.0484
X6.0637Y-2.0124
X6.0845Y-2.9015
X6.0854Y-3.6464
X6.0854Y-4.3547
X6.0858Y-2.7116
X6.0934Y-4.4678
X6.1029Y-3.9943
X6.1063Y-3.411
X6.1086Y-2.6682
X6.1266Y-4.6145
X6.127Y-4.862
X6.1437Y-1.8708
X6.1772Y-4.6942
X6.1783Y-3.2458
X6.2227Y-3.3488
X6.2285Y-2.6049
X6.252Y-4.1758
X6.252Y-4.2632
X6.2562Y-2.0527
X6.2562Y-4.0526
X6.2617Y-4.3981
X6.307Y-2.8349
X6.316Y-2.9182
X6.328Y-3.612
X6.3376Y-4.2799
X6.3381Y-2.8172
X6.3397Y-1.664
X6.3427Y-2.6424
X6.3458Y-2.9098
X6.3507Y-2.3582
X6.3535Y-3.474
X6.3543Y-1.6957
X6.3756Y-3.9107
X6.3761Y-2.1957
X6.4183Y-4.3999
X6.4283Y-3.0755
X6.4357Y-3.1247
X6.4439Y-4.1867
X6.4488Y-3.0273
X6.4524Y-3.4425
X6.4735Y-1.8105
X6.4783Y-2.5401
X6.4858Y-4.2513
X6.487Y-2.1232
X6.491Y-3.0764
X6.5036Y-4.0547
X6.5912Y-2.9065
X6.5926Y-2.6732
X6.5932Y-3.4039
X6.5963Y-2.8685
X6.598Y-2.8253
X6.5989Y-2.6003
X6.6014Y-3.4502
X6.6084Y-3.7476
X6.6089Y-2.7106
X6.6134Y-2.7448
X6.6284Y-3.6119
X6.6429Y-3.1598
X6.6445Y-4.235
X6.6464Y-4.05
X6.6474Y-1.9752
X6.6637Y-3.4039
X6.6797Y-3.4502
X6.6832Y-3.601
X6.6939Y-3.6779
X6.6966Y-3.5173
X6.6977Y-4.0658
X6.7007Y-4.252
X6.7011Y-4.4485
X6.7195Y-3.4722
X6.7286Y-3.6291
X6.7347Y-2.6423
X6.7542Y-4.3289
X6.7587Y-3.495
X6.8378Y-3.914
X6.8716Y-4.1939
X6.881Y-3.5967
X6.8855Y-3.647
X6.9252Y-4.2252
X6.9288Y-3.3288
X6.9403Y-1.5902
X6.9452Y-2.4275
X6.9453Y-4.1091
X6.9488Y-2.3844
X6.9977Y-2.393
X7.0195Y-5.1059
X7.0324Y-2.8856
X7.0742Y-4.05
X7.0967Y-4.299
X7.1008Y-4.0861
X7.1024Y-4.3661
X7.1128Y-3.7794
X7.2528Y-3.5208
X7.2792Y-4.1695
X7.294Y-3.3999
X7.2975Y-4.0987
X7.3355Y-4.2892
X7.3378Y-4.3301
X7.367Y-3.6641
X7.4847Y-3.2401
X7.5097Y-3.3638
X7.5211Y-4.006
X7.5862Y-5.1647
X7.6144Y-5.1188
X7.6416Y-4.9683
X7.697Y-4.0568
X7.805Y-5.1112
X7.8687Y-4.248
T2
X6.5383Y-1.547
X6.5617Y-1.4906
X6.5617Y-1.6034
X6.6181Y-1.4673
X6.6181Y-1.6267
X6.6744Y-1.4906
X6.6744Y-1.6034
X6.6978Y-1.547
X4.2549Y-1.547
X4.2782Y-1.4906
X4.2782Y-1.6034
X4.3346Y-1.4673
X4.3346Y-1.6267
X4.391Y-1.4906
X4.391Y-1.6034
X4.4143Y-1.547
T3
X5.1479Y-1.9789
X5.27Y-2.3333
X5.4063Y-2.8611
X5.4793Y-1.9529
X5.506Y-2.4133
X6.2151Y-3.9528
X6.2301Y-2.4148
X6.282Y-3.2926
X6.4602Y-1.9228
X6.5978Y-2.5096
X7.0587Y-4.4484
X7.1469Y-3.252
X7.1497Y-3.9646
X7.304Y-3.2843
X7.3157Y-4.5134
X7.5717Y-4.0181
T4
X4.975Y-3.175
X5.075Y-3.175
X5.175Y-3.175
X5.275Y-3.175
X5.375Y-3.175
X5.475Y-3.175
X5.575Y-3.175
X5.675Y-3.175
X5.775Y-3.175
X5.875Y-3.175
X5.375Y-3.375
X5.475Y-3.375
X5.575Y-3.375
X5.675Y-3.375
X5.775Y-3.375
X5.875Y-3.375
X4.3Y-4.25
X4.3Y-4.55
X4.4Y-4.25
X4.4Y-4.55
X4.5Y-4.25
X4.5Y-4.55
X4.6Y-4.25
X4.6Y-4.55
X4.7Y-4.25
X4.7Y-4.55
X4.8Y-4.25
X4.8Y-4.55
X4.9Y-4.25
X4.9Y-4.55
X5.Y-4.25
X5.Y-4.55
X5.375Y-3.575
X5.375Y-3.875
X5.475Y-3.575
X5.475Y-3.875
X5.575Y-3.575
X5.575Y-3.875
X5.675Y-3.575
X5.675Y-3.875
X5.775Y-3.575
X5.775Y-3.875
X5.875Y-3.575
X5.875Y-3.875
X4.325Y-3.575
X4.325Y-3.875
X4.425Y-3.575
X4.425Y-3.875
X4.525Y-3.575
X4.525Y-3.875
X4.625Y-3.575
X4.625Y-3.875
X4.725Y-3.575
X4.725Y-3.875
X4.825Y-3.575
X4.825Y-3.875
X4.925Y-3.575
X4.925Y-3.875
X5.025Y-3.575
X5.025Y-3.875
X4.225Y-3.375
X4.325Y-3.375
X4.425Y-3.375
X4.525Y-3.375
X4.625Y-3.375
X4.725Y-3.375
X4.825Y-3.375
X4.925Y-3.375
X5.025Y-3.375
X5.125Y-3.375
T5
X4.6Y-5.
X4.6Y-5.15
X4.65Y-4.925
X4.65Y-5.075
X4.7Y-5.
X4.7Y-5.15
X4.75Y-4.925
X4.75Y-5.075
X4.8Y-5.
X4.8Y-5.15
X4.85Y-4.925
X4.85Y-5.075
X4.9Y-5.
X4.9Y-5.15
X4.95Y-4.925
X4.95Y-5.075
X5.Y-5.
X5.Y-5.15
X5.05Y-4.925
X5.05Y-5.075
X5.1Y-5.
X5.1Y-5.15
X5.15Y-4.925
X5.15Y-5.075
X5.2Y-5.
X5.2Y-5.15
X5.25Y-4.925
X5.25Y-5.075
X5.3Y-5.
X5.3Y-5.15
X5.35Y-4.925
X5.35Y-5.075
X5.4Y-5.
X5.4Y-5.15
X5.45Y-4.925
X5.45Y-5.075
X5.5Y-5.
X5.5Y-5.15
X5.55Y-4.925
X5.55Y-5.075
X5.6Y-5.
X5.6Y-5.15
X5.65Y-4.925
X5.65Y-5.075
X5.7Y-5.
X5.7Y-5.15
X5.75Y-4.925
X5.75Y-5.075
X5.8Y-5.
X5.8Y-5.15
X5.85Y-4.925
X5.85Y-5.075
X5.9Y-5.
X5.9Y-5.15
X5.95Y-4.925
X5.95Y-5.075
X6.Y-5.
X6.Y-5.15
X6.05Y-4.925
X6.05Y-5.075
X6.1Y-5.
X6.1Y-5.15
X6.15Y-4.925
X6.15Y-5.075
X6.2Y-5.
X6.2Y-5.15
X6.25Y-4.925
X6.25Y-5.075
X6.3Y-5.
X6.3Y-5.15
X6.35Y-4.925
X6.35Y-5.075
X6.4Y-5.
X6.4Y-5.15
X6.45Y-4.925
X6.45Y-5.075
X6.5Y-5.
X6.5Y-5.15
X6.55Y-4.925
X6.55Y-5.075
X6.6Y-5.
X6.6Y-5.15
X6.65Y-4.925
X6.65Y-5.075
X6.7Y-5.
X6.7Y-5.15
X6.75Y-4.925
X6.75Y-5.075
X6.8Y-5.
X6.8Y-5.15
X6.85Y-4.925
X6.85Y-5.075
X6.9Y-5.
X6.9Y-5.15
X6.95Y-4.925
X6.95Y-5.075
X7.Y-5.
X7.Y-5.15
X7.05Y-4.925
X7.05Y-5.075
X7.1Y-5.
X7.1Y-5.15
X7.15Y-4.925
X7.15Y-5.075
X7.2Y-5.
X7.2Y-5.15
X7.25Y-4.925
X7.25Y-5.075
X7.3Y-5.
X7.3Y-5.15
X7.35Y-4.925
X7.35Y-5.075
X7.4Y-5.
X7.4Y-5.15
X7.45Y-4.925
X7.45Y-5.075
X7.5Y-5.
X7.5Y-5.15
X7.55Y-4.925
X7.55Y-5.075
X7.Y-2.5
X7.Y-2.6
X7.Y-2.7
X7.Y-2.8
X7.1Y-2.4
X7.1Y-2.5
X7.1Y-2.6
X7.1Y-2.7
X7.1Y-2.8
X7.1Y-2.9
X7.2Y-2.4
X7.2Y-2.5
X7.2Y-2.8
X7.2Y-2.9
X7.3Y-2.4
X7.3Y-2.5
X7.3Y-2.8
X7.3Y-2.9
X7.4Y-2.4
X7.4Y-2.5
X7.4Y-2.6
X7.4Y-2.7
X7.4Y-2.8
X7.4Y-2.9
X7.5Y-2.5
X7.5Y-2.6
X7.5Y-2.7
X7.5Y-2.8
T6
X7.6Y-1.45
X7.6Y-1.55
X7.6Y-1.65
X7.6Y-1.75
X7.6Y-1.85
X7.6Y-1.95
X7.35Y-4.7
X7.45Y-4.7
X7.55Y-4.7
X4.525Y-1.5
X4.525Y-1.6
X4.625Y-1.5
X4.625Y-1.6
X4.725Y-1.5
X4.725Y-1.6
X4.825Y-1.5
X4.825Y-1.6
X4.925Y-1.5
X4.925Y-1.6
X5.025Y-1.5
X5.025Y-1.6
X5.125Y-1.5
X5.125Y-1.6
X5.225Y-1.5
X5.225Y-1.6
X5.325Y-1.5
X5.325Y-1.6
X5.425Y-1.5
X5.425Y-1.6
X5.525Y-1.5
X5.525Y-1.6
X5.625Y-1.5
X5.625Y-1.6
X5.725Y-1.5
X5.725Y-1.6
X5.825Y-1.5
X5.825Y-1.6
X5.925Y-1.5
X5.925Y-1.6
X6.025Y-1.5
X6.025Y-1.6
X6.125Y-1.5
X6.125Y-1.6
X6.225Y-1.5
X6.225Y-1.6
X6.325Y-1.5
X6.325Y-1.6
X6.425Y-1.5
X6.425Y-1.6
X5.425Y-4.55
X5.425Y-4.65
X5.525Y-4.55
X5.525Y-4.65
X5.625Y-4.55
X5.625Y-4.65
X5.725Y-4.55
X5.725Y-4.65
X5.825Y-4.55
X5.825Y-4.65
X5.425Y-4.2
X5.425Y-4.3
X5.525Y-4.2
X5.525Y-4.3
X5.625Y-4.2
X5.625Y-4.3
X5.725Y-4.2
X5.725Y-4.3
X5.825Y-4.2
X5.825Y-4.3
T7
X4.375Y-5.15
X7.725Y-5.15
T8
X6.6181Y-1.547
X4.3346Y-1.547
T0
M30
