M48
; DRILL file {KiCad (5.1.4)-1} date 4/13/2020 8:45:55 AM
; FORMAT={-:-/ absolute / inch / decimal}
; #@! TF.CreationDate,2020-04-13T08:45:55-06:00
; #@! TF.GenerationSoftware,Kicad,Pcbnew,(5.1.4)-1
; #@! TF.FileFunction,Plated,1,2,PTH
FMAT,2
INCH
T1C0.0157
T2C0.0200
T3C0.0315
T4C0.0320
T5C0.0394
T6C0.0870
%
G90
G05
T1
X1.0448Y-0.9067
X1.2331Y-3.5298
X1.2681Y-3.5735
X1.8235Y-3.8978
X2.3471Y-1.4851
X2.3968Y-3.8014
X2.4719Y-1.5771
X2.4909Y-3.9801
X2.5602Y-1.7846
X2.6187Y-2.1493
X2.6418Y-2.0924
X2.6695Y-1.9762
X2.7005Y-1.7194
X2.717Y-3.3991
X2.7884Y-1.9812
X2.8947Y-1.8742
X2.9016Y-1.7968
X2.9124Y-2.0573
X3.0026Y-3.2205
X3.1863Y-3.076
X3.2325Y-2.6247
X3.255Y-3.5453
X3.264Y-3.1165
X3.2831Y-3.3758
X3.2911Y-3.237
X3.308Y-2.5978
X3.3852Y-3.5345
X3.4024Y-3.3171
X3.423Y-3.0369
X3.43Y-3.4023
X3.4546Y-3.3329
X3.4566Y-3.7416
X3.4595Y-3.8849
X3.4852Y-2.5848
X3.4889Y-3.7615
X3.4948Y-3.1245
X3.5139Y-3.6905
X3.5209Y-3.3207
X3.5464Y-3.7464
X3.5574Y-3.8961
X3.598Y-3.0728
X3.6007Y-3.2625
X3.6429Y-3.8351
X3.6475Y-2.9086
X3.6861Y-3.1784
X3.6887Y-3.0969
X3.7002Y-2.2198
X3.7079Y-2.7446
X3.86Y-2.6107
X3.9315Y-3.0491
X4.0776Y-3.6018
T2
X2.3771Y-1.9655
X2.7261Y-1.8649
X2.7767Y-1.9226
X2.9046Y-2.013
X3.759Y-3.0437
X3.8219Y-3.6322
T3
X2.33Y-3.46
X2.33Y-3.56
X2.33Y-3.66
X2.43Y-3.36
X2.43Y-3.46
X2.43Y-3.56
X2.43Y-3.66
X2.43Y-3.76
X2.53Y-3.36
X2.53Y-3.46
X2.53Y-3.66
X2.53Y-3.76
X2.63Y-3.36
X2.63Y-3.46
X2.63Y-3.56
X2.63Y-3.66
X2.63Y-3.76
X2.73Y-3.46
X2.73Y-3.56
X2.73Y-3.66
X1.61Y-2.59
X1.61Y-2.89
X1.91Y-2.59
X1.91Y-2.89
X2.33Y-2.63
X2.33Y-2.73
X2.33Y-2.83
X2.43Y-2.53
X2.43Y-2.63
X2.43Y-2.73
X2.43Y-2.83
X2.43Y-2.93
X2.53Y-2.53
X2.53Y-2.63
X2.53Y-2.83
X2.53Y-2.93
X2.63Y-2.53
X2.63Y-2.63
X2.63Y-2.73
X2.63Y-2.83
X2.63Y-2.93
X2.73Y-2.63
X2.73Y-2.73
X2.73Y-2.83
T4
X1.3236Y-4.475
X1.3236Y-4.625
X1.3736Y-4.4
X1.3736Y-4.55
X1.4236Y-4.475
X1.4236Y-4.625
X1.4736Y-4.4
X1.4736Y-4.55
X1.5236Y-4.475
X1.5236Y-4.625
X1.5736Y-4.4
X1.5736Y-4.55
X1.6236Y-4.475
X1.6236Y-4.625
X1.6736Y-4.4
X1.6736Y-4.55
X1.7236Y-4.475
X1.7236Y-4.625
X1.7736Y-4.4
X1.7736Y-4.55
X1.8236Y-4.475
X1.8236Y-4.625
X1.8736Y-4.4
X1.8736Y-4.55
X1.9236Y-4.475
X1.9236Y-4.625
X1.9736Y-4.4
X1.9736Y-4.55
X2.0236Y-4.475
X2.0236Y-4.625
X2.0736Y-4.4
X2.0736Y-4.55
X2.1236Y-4.475
X2.1236Y-4.625
X2.1736Y-4.4
X2.1736Y-4.55
X2.2236Y-4.475
X2.2236Y-4.625
X2.2736Y-4.4
X2.2736Y-4.55
X2.3236Y-4.475
X2.3236Y-4.625
X2.3736Y-4.4
X2.3736Y-4.55
X2.4236Y-4.475
X2.4236Y-4.625
X2.4736Y-4.4
X2.4736Y-4.55
X2.5236Y-4.475
X2.5236Y-4.625
X2.5736Y-4.4
X2.5736Y-4.55
X2.6236Y-4.475
X2.6236Y-4.625
X2.6736Y-4.4
X2.6736Y-4.55
X2.7236Y-4.475
X2.7236Y-4.625
X2.7736Y-4.4
X2.7736Y-4.55
X2.8236Y-4.475
X2.8236Y-4.625
X2.8736Y-4.4
X2.8736Y-4.55
X2.9236Y-4.475
X2.9236Y-4.625
X2.9736Y-4.4
X2.9736Y-4.55
X3.0236Y-4.475
X3.0236Y-4.625
X3.0736Y-4.4
X3.0736Y-4.55
X3.1236Y-4.475
X3.1236Y-4.625
X3.1736Y-4.4
X3.1736Y-4.55
X3.2236Y-4.475
X3.2236Y-4.625
X3.2736Y-4.4
X3.2736Y-4.55
X3.3236Y-4.475
X3.3236Y-4.625
X3.3736Y-4.4
X3.3736Y-4.55
X3.4236Y-4.475
X3.4236Y-4.625
X3.4736Y-4.4
X3.4736Y-4.55
X3.5236Y-4.475
X3.5236Y-4.625
X3.5736Y-4.4
X3.5736Y-4.55
X3.6236Y-4.475
X3.6236Y-4.625
X3.6736Y-4.4
X3.6736Y-4.55
X3.7236Y-4.475
X3.7236Y-4.625
X3.7736Y-4.4
X3.7736Y-4.55
X3.8236Y-4.475
X3.8236Y-4.625
X3.8736Y-4.4
X3.8736Y-4.55
X3.9236Y-4.475
X3.9236Y-4.625
X3.9736Y-4.4
X3.9736Y-4.55
X4.0236Y-4.475
X4.0236Y-4.625
X4.0736Y-4.4
X4.0736Y-4.55
X4.1236Y-4.475
X4.1236Y-4.625
X4.1736Y-4.4
X4.1736Y-4.55
X4.2236Y-4.475
X4.2236Y-4.625
X4.2736Y-4.4
X4.2736Y-4.55
T5
X4.32Y-1.5
X4.32Y-1.6
X1.01Y-2.21
X1.01Y-2.31
X1.01Y-2.41
X1.01Y-2.51
X1.01Y-2.61
X1.01Y-2.71
X1.01Y-2.81
X1.01Y-2.91
X1.11Y-2.21
X1.11Y-2.31
X1.11Y-2.41
X1.11Y-2.51
X1.11Y-2.61
X1.11Y-2.71
X1.11Y-2.81
X1.11Y-2.91
X4.4Y-2.21
X4.4Y-2.31
X4.4Y-2.41
X4.4Y-2.51
X4.4Y-2.61
X4.4Y-2.71
X4.4Y-2.81
X4.4Y-2.91
X4.5Y-2.21
X4.5Y-2.31
X4.5Y-2.41
X4.5Y-2.51
X4.5Y-2.61
X4.5Y-2.71
X4.5Y-2.81
X4.5Y-2.91
X1.01Y-3.25
X1.01Y-3.35
X1.01Y-3.45
X1.01Y-3.55
X1.01Y-3.65
X1.01Y-3.75
X1.01Y-3.85
X1.11Y-3.25
X1.11Y-3.35
X1.11Y-3.45
X1.11Y-3.55
X1.11Y-3.65
X1.11Y-3.75
X1.11Y-3.85
T6
X1.0986Y-4.625
X4.4486Y-4.625
T0
M30
